<?xml version="1.0" ?><svg xmlns:inkscape="http://www.inkscape.org/namespaces/inkscape" xmlns:sodipodi="http://sodipodi.sourceforge.net/DTD/sodipodi-0.dtd" xmlns="http://www.w3.org/2000/svg" xmlns:svg="http://www.w3.org/2000/svg" width="903.961" height="569.15997" viewBox="0 0 239.17329 150.59024" version="1.1" id="svg5" sodipodi:docname="opaque-field-1.svg" xml:space="preserve"><sodipodi:namedview id="namedview7" pagecolor="#ffffff" bordercolor="#000000" borderopacity="0.25" showgrid="true"/><defs id="defs2"><rect x="22.319975" y="66.959999" width="848.159" height="479.88" id="rect2499"/></defs><g id="layer1"><g id="g26287" transform="matrix(0.26458333,0,0,0.26458333,151.03674,16.444252)"><g id="g26211" transform="translate(-559.68753,-50.991504)" style="display:inline">
	<path style="fill:#e6e6e6;fill-opacity:1" d="M 850.74201,546.84001 H 30.897 C 13.833,546.84001 0,533.00701 0,515.94301 V 42.057 C 0,24.993 13.833,11.16 30.897,11.16 h 819.84601 c 17.064,0 30.897,13.833 30.897,30.897 v 473.88601 c -10e-4,17.064 -13.834,30.897 -30.898,30.897 z" id="path26201" sodipodi:nodetypes="ssssssscs"/>
	<path style="fill:#434141;fill-opacity:1" d="M 881.64001,44.64 H 0.0010028 L 0,30.897 C -0.00124512,13.833 13.833,0 30.897,0 h 819.84601 c 17.063,0 30.896,13.833 30.896,30.897 z" id="path26203" sodipodi:nodetypes="ccssssc"/>
	
	
	
<g aria-label="   const char* passwd = env-&gt;GetStringUTFChars(jstr)  bool is_ok = passwd[3] == 'F'" transform="matrix(1.0000012,0,0,1.0000012,-11.159998,-11.160334)" id="text2497" style="font-weight:500;font-size:28px;font-family:'Fira Code';-inkscape-font-specification:'Fira Code, Medium';white-space:pre;shape-inside:url(#rect2499);display:inline;opacity:1;fill:#434141;stroke-width:2;stroke-linecap:round;stroke-miterlimit:2;paint-order:fill markers stroke"><path d="m 32.184928,194.20658 q 1.062564,0 1.981538,-0.37333 0.918975,-0.37334 1.751795,-0.9477 l 1.493334,2.0677 q -0.99077,0.84717 -2.412308,1.37846 -1.40718,0.51692 -2.914872,0.51692 -2.326154,0 -3.991795,-0.97641 -1.651282,-0.99077 -2.527179,-2.75692 -0.861539,-1.78052 -0.861539,-4.16411 0,-2.31179 0.875898,-4.12102 0.890256,-1.82359 2.555897,-2.8718 1.665641,-1.06256 4.006154,-1.06256 3.044103,0 5.255385,1.82359 l -1.478975,2.02461 q -0.890256,-0.61743 -1.82359,-0.93333 -0.933333,-0.33026 -1.895384,-0.33026 -1.809231,0 -2.94359,1.32103 -1.134359,1.32103 -1.134359,4.14974 0,2.84308 1.148718,4.04923 1.148718,1.20616 2.914872,1.20616 z" id="path40934"/><path d="m 48.180838,180.89581 q 3.331282,0 5.083077,2.1682 1.751794,2.16821 1.751794,5.78667 0,2.41231 -0.804102,4.20718 -0.789744,1.79487 -2.326154,2.8 -1.522051,0.99077 -3.718974,0.99077 -3.316923,0 -5.083077,-2.13949 -1.766154,-2.15384 -1.766154,-5.82974 0,-2.35487 0.789743,-4.14974 0.804103,-1.80924 2.340513,-2.81436 1.536411,-1.01949 3.733334,-1.01949 z m 0,2.49846 q -1.737436,0 -2.613334,1.33539 -0.875897,1.32102 -0.875897,4.14974 0,2.82872 0.861538,4.1641 0.875898,1.32103 2.613334,1.32103 1.737436,0 2.598974,-1.33539 0.875897,-1.33538 0.875897,-4.17846 0,-2.8 -0.861538,-4.12102 -0.861538,-1.33539 -2.598974,-1.33539 z" id="path40936"/><path d="m 59.337773,196.46094 v -15.16308 h 2.771282 l 0.244103,1.96718 q 0.947692,-1.14872 2.24,-1.75179 1.292307,-0.61744 2.65641,-0.61744 2.125128,0 3.173333,1.19179 1.062564,1.1918 1.062564,3.31693 v 11.05641 h -3.21641 v -9.46257 q 0,-1.96718 -0.402051,-2.8 -0.387692,-0.84718 -1.766154,-0.84718 -1.105641,0 -2.024615,0.68923 -0.904616,0.67488 -1.522052,1.53641 v 10.88411 z" id="path40938"/><path d="m 82.082401,194.37889 q 1.507692,0 2.397948,-0.53129 0.890257,-0.54564 0.890257,-1.49333 0,-0.61744 -0.258462,-1.0482 -0.258461,-0.43077 -1.033846,-0.80411 -0.775384,-0.37333 -2.354872,-0.77538 -1.493333,-0.38769 -2.627692,-0.91898 -1.12,-0.53128 -1.737436,-1.37846 -0.617436,-0.84718 -0.617436,-2.18256 0,-1.95282 1.622564,-3.14462 1.636923,-1.20615 4.436923,-1.20615 1.909744,0 3.331283,0.50256 1.421538,0.50257 2.426666,1.24923 l -1.349743,2.02462 q -0.890257,-0.58872 -1.952821,-0.96205 -1.048205,-0.37334 -2.369231,-0.37334 -1.53641,0 -2.211282,0.45949 -0.660513,0.45949 -0.660513,1.22051 0,0.57436 0.330257,0.9477 0.344615,0.37333 1.177436,0.70359 0.83282,0.33025 2.354872,0.74666 1.478974,0.40205 2.570256,0.9477 1.105641,0.54564 1.708718,1.45025 0.617436,0.89026 0.617436,2.32616 0,1.63692 -0.947693,2.68512 -0.947692,1.03385 -2.469743,1.53641 -1.522051,0.48821 -3.273846,0.48821 -2.110769,0 -3.64718,-0.60308 -1.53641,-0.61743 -2.584615,-1.53641 l 1.708718,-1.95282 q 0.890256,0.71795 2.038974,1.17744 1.148718,0.44513 2.484103,0.44513 z" id="path40940"/><path d="m 106.46395,195.65683 q -0.83282,0.53129 -1.9959,0.86154 -1.16307,0.33026 -2.42666,0.33026 -2.642054,0 -4.020515,-1.3641 -1.364103,-1.37846 -1.364103,-3.61846 v -8.2277 h -3.374359 v -2.34051 h 3.374359 v -3.38872 l 3.21641,-0.38769 v 3.77641 h 5.111798 l -0.35898,2.34051 h -4.752818 v 8.19898 q 0,1.22051 0.603078,1.82359 0.61744,0.58872 2.01026,0.58872 0.83282,0 1.52205,-0.20103 0.70359,-0.20103 1.2923,-0.51692 z" id="path40942"/><path d="m 135.56962,194.20658 q 1.06256,0 1.98154,-0.37333 0.91897,-0.37334 1.75179,-0.9477 l 1.49333,2.0677 q -0.99077,0.84717 -2.4123,1.37846 -1.40718,0.51692 -2.91488,0.51692 -2.32615,0 -3.99179,-0.97641 -1.65128,-0.99077 -2.52718,-2.75692 -0.86154,-1.78052 -0.86154,-4.16411 0,-2.31179 0.8759,-4.12102 0.89026,-1.82359 2.5559,-2.8718 1.66564,-1.06256 4.00615,-1.06256 3.0441,0 5.25538,1.82359 l -1.47897,2.02461 q -0.89026,-0.61743 -1.82359,-0.93333 -0.93333,-0.33026 -1.89538,-0.33026 -1.80923,0 -2.94359,1.32103 -1.13436,1.32103 -1.13436,4.14974 0,2.84308 1.14872,4.04923 1.14871,1.20616 2.91487,1.20616 z" id="path40944"/><path d="m 148.70809,174.89376 v 8.25641 q 0.91898,-1.12 2.13949,-1.68 1.23487,-0.57436 2.5559,-0.57436 2.13948,0 3.18769,1.19179 1.0482,1.1918 1.0482,3.31693 v 11.05641 h -3.21641 v -10.55385 q 0,-1.3641 -0.51692,-1.95282 -0.51692,-0.60308 -1.66564,-0.60308 -1.07692,0 -1.9959,0.70359 -0.91897,0.68923 -1.53641,1.56513 v 10.84103 h -3.21641 v -21.22257 z" id="path40946"/><path d="m 174.31015,192.74196 q 0,0.90462 0.27283,1.30667 0.27282,0.40205 0.87589,0.60308 l -0.71795,2.18256 q -1.12,-0.12923 -1.93846,-0.61744 -0.8041,-0.4882 -1.20615,-1.47897 -0.83282,1.06256 -2.11077,1.59385 -1.27795,0.51692 -2.72821,0.51692 -2.31179,0 -3.64718,-1.29231 -1.33538,-1.30666 -1.33538,-3.41743 0,-2.39795 1.86667,-3.69026 1.86666,-1.29231 5.34154,-1.29231 h 2.1682 v -0.99077 q 0,-1.47897 -0.89026,-2.11077 -0.89025,-0.64615 -2.4841,-0.64615 -0.74667,0 -1.80923,0.20103 -1.06256,0.18666 -2.22564,0.58871 l -0.78974,-2.26871 q 1.42153,-0.53129 2.78564,-0.77539 1.3641,-0.25846 2.52718,-0.25846 3.0441,0 4.53743,1.34974 1.50769,1.34975 1.50769,3.73334 z m -6.57641,1.73744 q 0.97641,0 1.90975,-0.51692 0.93333,-0.51693 1.50769,-1.45026 v -3.34564 h -1.78051 q -2.26872,0 -3.24513,0.76102 -0.97641,0.74667 -0.97641,2.0677 0,2.4841 2.58461,2.4841 z" id="path40948"/><path d="m 180.09683,196.46094 v -2.29744 h 2.22564 v -10.58256 h -2.22564 v -2.28308 h 4.68102 l 0.58872,3.51795 q 0.84718,-1.90974 2.09641,-2.90051 1.26359,-1.00513 3.24513,-1.00513 0.67487,0 1.20615,0.11487 0.54564,0.10051 1.07693,0.27282 l -0.54565,5.58564 h -2.29743 v -3.08718 q -1.60821,0.0574 -2.77128,1.29231 -1.16308,1.22051 -1.83795,3.44615 v 5.62872 h 3.05846 v 2.29744 z" id="path40950"/><path d="m 201.66403,180.83837 h 3.15897 l -0.35897,5.6718 5.26974,-2.06769 0.96205,2.95794 -5.48513,1.42154 3.6041,4.39385 -2.51282,1.80923 -3.05846,-4.76718 -3.05846,4.76718 -2.51282,-1.80923 3.6041,-4.39385 -5.48513,-1.42154 0.96206,-2.95794 5.26974,2.06769 z" id="path40952"/><path d="m 239.04046,180.89581 q 2.01026,0 3.21641,0.99077 1.20615,0.97641 1.7518,2.77128 0.54564,1.78051 0.54564,4.19282 0,2.3118 -0.66052,4.12103 -0.66051,1.80923 -1.96718,2.84307 -1.2923,1.03385 -3.21641,1.03385 -2.38359,0 -3.8482,-1.68 v 7.12205 l -3.21641,0.35898 v -21.3518 h 2.8 l 0.20102,1.95282 q 0.86154,-1.16308 1.9959,-1.75179 1.13436,-0.60308 2.39795,-0.60308 z m -0.89026,2.4841 q -1.07692,0 -1.90974,0.64616 -0.81846,0.64615 -1.37846,1.52205 v 7.09333 q 1.13436,1.69436 3.00102,1.69436 1.62257,0 2.46975,-1.30667 0.84718,-1.30666 0.84718,-4.1641 0,-2.91487 -0.76103,-4.19282 -0.74666,-1.29231 -2.26872,-1.29231 z" id="path40954"/><path d="m 260.46405,192.74196 q 0,0.90462 0.27283,1.30667 0.27282,0.40205 0.87589,0.60308 l -0.71795,2.18256 q -1.12,-0.12923 -1.93846,-0.61744 -0.8041,-0.4882 -1.20615,-1.47897 -0.83282,1.06256 -2.11077,1.59385 -1.27795,0.51692 -2.72821,0.51692 -2.31179,0 -3.64718,-1.29231 -1.33538,-1.30666 -1.33538,-3.41743 0,-2.39795 1.86667,-3.69026 1.86666,-1.29231 5.34154,-1.29231 h 2.1682 v -0.99077 q 0,-1.47897 -0.89026,-2.11077 -0.89025,-0.64615 -2.4841,-0.64615 -0.74667,0 -1.80923,0.20103 -1.06256,0.18666 -2.22564,0.58871 l -0.78974,-2.26871 q 1.42153,-0.53129 2.78564,-0.77539 1.3641,-0.25846 2.52718,-0.25846 3.0441,0 4.53743,1.34974 1.50769,1.34975 1.50769,3.73334 z m -6.57641,1.73744 q 0.97641,0 1.90975,-0.51692 0.93333,-0.51693 1.50769,-1.45026 v -3.34564 h -1.78051 q -2.26872,0 -3.24513,0.76102 -0.97641,0.74667 -0.97641,2.0677 0,2.4841 2.58461,2.4841 z" id="path40956"/><path d="m 271.621,194.37889 q 1.50769,0 2.39795,-0.53129 0.89025,-0.54564 0.89025,-1.49333 0,-0.61744 -0.25846,-1.0482 -0.25846,-0.43077 -1.03384,-0.80411 -0.77539,-0.37333 -2.35488,-0.77538 -1.49333,-0.38769 -2.62769,-0.91898 -1.12,-0.53128 -1.73743,-1.37846 -0.61744,-0.84718 -0.61744,-2.18256 0,-1.95282 1.62256,-3.14462 1.63693,-1.20615 4.43693,-1.20615 1.90974,0 3.33128,0.50256 1.42154,0.50257 2.42667,1.24923 l -1.34975,2.02462 q -0.89025,-0.58872 -1.95282,-0.96205 -1.0482,-0.37334 -2.36923,-0.37334 -1.53641,0 -2.21128,0.45949 -0.66051,0.45949 -0.66051,1.22051 0,0.57436 0.33025,0.9477 0.34462,0.37333 1.17744,0.70359 0.83282,0.33025 2.35487,0.74666 1.47897,0.40205 2.57026,0.9477 1.10564,0.54564 1.70871,1.45025 0.61744,0.89026 0.61744,2.32616 0,1.63692 -0.94769,2.68512 -0.94769,1.03385 -2.46975,1.53641 -1.52205,0.48821 -3.27384,0.48821 -2.11077,0 -3.64718,-0.60308 -1.53641,-0.61743 -2.58462,-1.53641 l 1.70872,-1.95282 q 0.89026,0.71795 2.03898,1.17744 1.14871,0.44513 2.4841,0.44513 z" id="path40958"/><path d="m 288.85179,194.37889 q 1.50769,0 2.39795,-0.53129 0.89025,-0.54564 0.89025,-1.49333 0,-0.61744 -0.25846,-1.0482 -0.25846,-0.43077 -1.03385,-0.80411 -0.77538,-0.37333 -2.35487,-0.77538 -1.49333,-0.38769 -2.62769,-0.91898 -1.12,-0.53128 -1.73744,-1.37846 -0.61743,-0.84718 -0.61743,-2.18256 0,-1.95282 1.62256,-3.14462 1.63693,-1.20615 4.43693,-1.20615 1.90974,0 3.33128,0.50256 1.42154,0.50257 2.42666,1.24923 l -1.34974,2.02462 q -0.89026,-0.58872 -1.95282,-0.96205 -1.0482,-0.37334 -2.36923,-0.37334 -1.53641,0 -2.21128,0.45949 -0.66052,0.45949 -0.66052,1.22051 0,0.57436 0.33026,0.9477 0.34462,0.37333 1.17744,0.70359 0.83282,0.33025 2.35487,0.74666 1.47897,0.40205 2.57026,0.9477 1.10564,0.54564 1.70871,1.45025 0.61744,0.89026 0.61744,2.32616 0,1.63692 -0.94769,2.68512 -0.9477,1.03385 -2.46975,1.53641 -1.52205,0.48821 -3.27384,0.48821 -2.11077,0 -3.64718,-0.60308 -1.53641,-0.61743 -2.58462,-1.53641 l 1.70872,-1.95282 q 0.89026,0.71795 2.03897,1.17744 1.14872,0.44513 2.48411,0.44513 z" id="path40960"/><path d="m 312.42923,196.46094 h -4.02052 L 306.7,185.69171 l -1.83795,10.76923 h -3.93436 l -2.57026,-15.16308 h 3.10154 l 1.57949,13.16718 2.11077,-11.24308 h 3.21641 l 1.96718,11.24308 1.57948,-13.16718 h 2.98667 z" id="path40962"/><path d="m 326.70205,174.85068 3.21641,0.35898 v 21.25128 h -2.82871 L 326.86,194.59427 q -0.77538,1.07692 -1.85231,1.66564 -1.07692,0.58872 -2.4123,0.58872 -1.95282,0 -3.21641,-0.99077 -1.24923,-1.00513 -1.86667,-2.8 -0.61744,-1.79487 -0.61744,-4.17846 0,-2.3118 0.71795,-4.10667 0.71795,-1.80923 2.05334,-2.84307 1.33538,-1.03385 3.21641,-1.03385 2.34051,0 3.81948,1.65128 z m -2.9723,8.51487 q -1.62257,0 -2.52718,1.34975 -0.90462,1.33538 -0.90462,4.1641 0,2.90051 0.81846,4.20718 0.83282,1.29231 2.32616,1.29231 1.09128,0 1.89538,-0.6318 0.8041,-0.63179 1.3641,-1.52205 v -7.17949 q -0.56,-0.8041 -1.30666,-1.23487 -0.74667,-0.44513 -1.66564,-0.44513 z" id="path40964"/><path d="m 364.26517,183.37991 v 2.62769 h -11.88923 v -2.62769 z m 0,5.6718 v 2.62769 h -11.88923 v -2.62769 z" id="path40966"/><path d="m 389.39338,189.91325 q 0.14359,2.34051 1.30667,3.38871 1.17744,1.04821 2.82872,1.04821 1.10564,0 2.05333,-0.34462 0.96205,-0.34461 1.9241,-0.97641 l 1.39283,1.92411 q -1.06257,0.86153 -2.48411,1.37846 -1.42154,0.51692 -3.0441,0.51692 -2.36923,0 -4.00615,-1.00513 -1.62257,-1.00513 -2.46975,-2.8 -0.83282,-1.79487 -0.83282,-4.14974 0,-2.28308 0.83282,-4.07795 0.83282,-1.80923 2.38359,-2.85744 1.55077,-1.06256 3.70462,-1.06256 3.01538,0 4.76718,2.02461 1.76615,2.02462 1.76615,5.55693 0,0.38769 -0.0287,0.77538 -0.0144,0.37334 -0.0431,0.66052 z m 3.61847,-6.63385 q -1.5077,0 -2.49847,1.07692 -0.99077,1.07693 -1.13435,3.36 h 7.02153 q -0.0431,-2.13949 -0.91897,-3.2882 -0.86154,-1.14872 -2.46974,-1.14872 z" id="path40968"/><path d="m 403.95342,196.46094 v -15.16308 h 2.77128 l 0.2441,1.96718 q 0.9477,-1.14872 2.24,-1.75179 1.29231,-0.61744 2.65641,-0.61744 2.12513,0 3.17334,1.19179 1.06256,1.1918 1.06256,3.31693 v 11.05641 h -3.21641 v -9.46257 q 0,-1.96718 -0.40205,-2.8 -0.38769,-0.84718 -1.76615,-0.84718 -1.10564,0 -2.02462,0.68923 -0.90461,0.67488 -1.52205,1.53641 v 10.88411 z" id="path40970"/><path d="m 434.46624,181.29786 -5.34153,15.16308 h -3.76206 l -5.34153,-15.16308 h 3.44615 l 3.84821,12.49231 3.86256,-12.49231 z" id="path40972"/><path d="m 439.26215,188.83632 v -2.7282 h 14.11487 v 2.7282 z" id="path40974"/><path d="m 458.91959,178.38299 8.14154,9.08923 -8.14154,9.08923 -2.24,-1.90974 3.31692,-3.63282 q 0.70359,-0.76103 1.23487,-1.26359 0.53128,-0.50257 1.20616,-0.91898 h -9.63488 v -2.7282 h 9.63488 q -0.67488,-0.41641 -1.20616,-0.91898 -0.53128,-0.50256 -1.23487,-1.26359 l -3.31692,-3.63282 z" id="path40976"/><path d="m 479.45293,196.84863 q -3.79077,0 -5.93026,-2.59897 -2.13949,-2.59898 -2.13949,-7.72513 0,-3.38872 1.1918,-5.6718 1.20615,-2.29743 3.17333,-3.44615 1.96718,-1.16308 4.27897,-1.16308 2.02462,0 3.37436,0.60308 1.36411,0.60308 2.52718,1.68 l -1.86666,1.93846 q -0.90462,-0.81846 -1.85231,-1.22051 -0.93333,-0.40205 -2.09641,-0.40205 -1.39282,0 -2.58462,0.74666 -1.19179,0.73231 -1.9241,2.42667 -0.73231,1.68 -0.73231,4.52308 0,4.14974 1.1918,5.93025 1.19179,1.78052 3.54666,1.78052 1.7518,0 3.27385,-0.83283 v -5.45641 h -3.36 l -0.35897,-2.54153 h 6.94974 v 9.60615 q -1.40718,0.8041 -3.00103,1.32103 -1.57948,0.50256 -3.66153,0.50256 z" id="path40978"/><path d="m 492.77809,189.91325 q 0.14359,2.34051 1.30667,3.38871 1.17743,1.04821 2.82871,1.04821 1.10564,0 2.05334,-0.34462 0.96205,-0.34461 1.9241,-0.97641 l 1.39282,1.92411 q -1.06256,0.86153 -2.4841,1.37846 -1.42154,0.51692 -3.04411,0.51692 -2.36923,0 -4.00615,-1.00513 -1.62256,-1.00513 -2.46974,-2.8 -0.83282,-1.79487 -0.83282,-4.14974 0,-2.28308 0.83282,-4.07795 0.83282,-1.80923 2.38359,-2.85744 1.55077,-1.06256 3.70461,-1.06256 3.01539,0 4.76718,2.02461 1.76616,2.02462 1.76616,5.55693 0,0.38769 -0.0287,0.77538 -0.0144,0.37334 -0.0431,0.66052 z m 3.61846,-6.63385 q -1.50769,0 -2.49846,1.07692 -0.99077,1.07693 -1.13436,3.36 h 7.02154 q -0.0431,-2.13949 -0.91898,-3.2882 -0.86153,-1.14872 -2.46974,-1.14872 z" id="path40980"/><path d="m 520.00271,195.65683 q -0.83282,0.53129 -1.9959,0.86154 -1.16308,0.33026 -2.42667,0.33026 -2.64205,0 -4.02051,-1.3641 -1.3641,-1.37846 -1.3641,-3.61846 v -8.2277 h -3.37436 v -2.34051 h 3.37436 v -3.38872 l 3.21641,-0.38769 v 3.77641 h 5.11179 l -0.35897,2.34051 h -4.75282 v 8.19898 q 0,1.22051 0.60308,1.82359 0.61743,0.58872 2.01025,0.58872 0.83282,0 1.52205,-0.20103 0.70359,-0.20103 1.29231,-0.51692 z" id="path40982"/><path d="m 537.76476,190.86094 q 0,1.76615 -0.90461,3.11589 -0.89026,1.34975 -2.58462,2.11077 -1.68,0.76103 -4.06359,0.76103 -2.42666,0 -4.23589,-0.71795 -1.80923,-0.71795 -3.05846,-1.93846 l 1.82359,-2.03897 q 1.0482,0.97641 2.38358,1.52205 1.33539,0.54564 3.07283,0.54564 1.68,0 2.88615,-0.78975 1.22051,-0.8041 1.22051,-2.4123 0,-0.86154 -0.35897,-1.46462 -0.35898,-0.61744 -1.24923,-1.09128 -0.8759,-0.48821 -2.45539,-0.96205 -3.14461,-0.93334 -4.76718,-2.25436 -1.62256,-1.32103 -1.62256,-3.64718 0,-1.60821 0.8759,-2.81436 0.89025,-1.20615 2.42666,-1.86667 1.55077,-0.67487 3.50359,-0.67487 2.15385,0 3.76205,0.6318 1.60821,0.61743 2.8718,1.75179 l -1.7518,1.98154 q -1.0482,-0.90462 -2.25436,-1.32103 -1.19179,-0.43077 -2.42666,-0.43077 -1.52205,0 -2.5559,0.64616 -1.03385,0.63179 -1.03385,1.90974 0,0.77539 0.41641,1.32103 0.43077,0.53128 1.4359,1.00513 1.01949,0.45948 2.78564,0.99077 1.66564,0.4882 2.98667,1.20615 1.33538,0.71795 2.09641,1.89538 0.77538,1.16308 0.77538,3.02975 z" id="path40984"/><path d="m 554.46429,195.65683 q -0.83282,0.53129 -1.9959,0.86154 -1.16308,0.33026 -2.42667,0.33026 -2.64205,0 -4.02051,-1.3641 -1.3641,-1.37846 -1.3641,-3.61846 v -8.2277 h -3.37436 v -2.34051 h 3.37436 v -3.38872 l 3.21641,-0.38769 v 3.77641 h 5.11179 l -0.35897,2.34051 h -4.75282 v 8.19898 q 0,1.22051 0.60307,1.82359 0.61744,0.58872 2.01026,0.58872 0.83282,0 1.52205,-0.20103 0.70359,-0.20103 1.29231,-0.51692 z" id="path40986"/><path d="m 559.17404,196.46094 v -2.29744 h 2.22564 v -10.58256 h -2.22564 v -2.28308 h 4.68102 l 0.58872,3.51795 q 0.84718,-1.90974 2.09641,-2.90051 1.26359,-1.00513 3.24513,-1.00513 0.67487,0 1.20615,0.11487 0.54564,0.10051 1.07692,0.27282 l -0.54564,5.58564 h -2.29743 v -3.08718 q -1.60821,0.0574 -2.77128,1.29231 -1.16308,1.22051 -1.83795,3.44615 v 5.62872 h 3.05846 v 2.29744 z" id="path40988"/><path d="m 582.30635,173.87427 q 0.94769,0 1.52205,0.57436 0.58872,0.57436 0.58872,1.4359 0,0.86154 -0.58872,1.45025 -0.57436,0.58872 -1.52205,0.58872 -0.91898,0 -1.50769,-0.58872 -0.58872,-0.58871 -0.58872,-1.45025 0,-0.86154 0.58872,-1.4359 0.58871,-0.57436 1.50769,-0.57436 z m 2.24,7.42359 v 12.80821 h 4.12102 v 2.35487 H 576.7925 v -2.35487 h 4.53744 v -10.45334 h -4.39385 v -2.35487 z" id="path40990"/><path d="m 593.49199,196.46094 v -15.16308 h 2.77129 l 0.2441,1.96718 q 0.94769,-1.14872 2.24,-1.75179 1.29231,-0.61744 2.65641,-0.61744 2.12513,0 3.17333,1.19179 1.06257,1.1918 1.06257,3.31693 v 11.05641 h -3.21641 v -9.46257 q 0,-1.96718 -0.40206,-2.8 -0.38769,-0.84718 -1.76615,-0.84718 -1.10564,0 -2.02461,0.68923 -0.90462,0.67488 -1.52206,1.53641 v 10.88411 z" id="path40992"/><path d="m 623.4879,179.37376 0.86153,2.67077 q -0.90461,0.30154 -1.99589,0.40205 -1.07693,0.10051 -2.41231,0.10051 1.3641,0.60308 2.05333,1.55077 0.68923,0.93333 0.68923,2.29744 0,1.47897 -0.71795,2.64205 -0.71794,1.16307 -2.06769,1.82359 -1.33538,0.66051 -3.18769,0.66051 -0.66051,0 -1.14872,-0.0574 -0.47384,-0.0574 -0.93333,-0.18666 -0.67487,0.44513 -0.67487,1.24923 0,0.45949 0.37333,0.8041 0.38769,0.33026 1.52205,0.33026 h 2.64205 q 1.62257,0 2.85744,0.56 1.24923,0.54564 1.95282,1.50769 0.71795,0.94769 0.71795,2.15385 0,2.26871 -1.95282,3.51794 -1.95282,1.24924 -5.62872,1.24924 -2.61333,0 -4.09231,-0.53129 -1.46461,-0.53128 -2.06769,-1.57948 -0.60308,-1.04821 -0.60308,-2.57026 h 2.88616 q 0,0.8041 0.30153,1.32103 0.3159,0.51692 1.16308,0.76102 0.84718,0.25846 2.44103,0.25846 2.36923,0 3.34564,-0.58872 0.97641,-0.57435 0.97641,-1.62256 0,-0.93333 -0.8041,-1.4359 -0.80411,-0.4882 -2.15385,-0.4882 h -2.59897 q -2.15385,0 -3.15898,-0.8759 -0.99077,-0.8759 -0.99077,-2.03897 0,-1.63693 1.69436,-2.74257 -1.3641,-0.71795 -1.9959,-1.73743 -0.61743,-1.03385 -0.61743,-2.49847 0,-1.6082 0.8041,-2.81435 0.8041,-1.20616 2.22564,-1.88103 1.4359,-0.67487 3.30257,-0.67487 1.82358,0.0144 3.0441,-0.18667 1.22051,-0.20102 2.12513,-0.54564 0.91897,-0.35897 1.82359,-0.8041 z m -6.96411,3.74769 q -1.53641,0 -2.31179,0.8759 -0.77539,0.86154 -0.77539,2.25436 0,1.43589 0.78975,2.31179 0.78974,0.86154 2.34051,0.86154 1.42154,0 2.16821,-0.83282 0.76102,-0.83282 0.76102,-2.36923 0,-3.10154 -2.97231,-3.10154 z" id="path40994"/><path d="m 640.87662,176.64555 v 13.31077 q 0,2.02462 -0.81846,3.57539 -0.80411,1.55077 -2.35487,2.44102 -1.53642,0.8759 -3.70462,0.8759 -2.21128,0 -3.74769,-0.86154 -1.52205,-0.8759 -2.3118,-2.42667 -0.78974,-1.55076 -0.78974,-3.6041 v -13.31077 h 3.33128 v 12.7077 q 0,2.4123 0.83282,3.63282 0.83282,1.20615 2.68513,1.20615 1.85231,0 2.68513,-1.20615 0.84718,-1.22052 0.84718,-3.63282 v -12.7077 z" id="path40996"/><path d="m 652.86637,179.33068 v 17.13026 h -3.33129 v -17.13026 h -5.94461 v -2.68513 h 15.3641 l -0.34461,2.68513 z" id="path40998"/><path d="m 666.83771,179.17273 v 6.30359 h 7.45231 v 2.52718 h -7.45231 v 8.45744 h -3.33128 v -19.81539 h 12.19077 l -0.37333,2.52718 z" id="path41000"/><path d="m 687.37105,176.2435 q 2.01026,0 3.38872,0.53128 1.37846,0.51693 2.58462,1.49334 l -1.73744,2.06769 q -1.76615,-1.46462 -4.07795,-1.46462 -1.47897,0 -2.7282,0.74667 -1.24923,0.74667 -2.01026,2.42667 -0.74667,1.68 -0.74667,4.48 0,2.74256 0.71795,4.42256 0.71795,1.68 1.95282,2.44103 1.24923,0.76102 2.81436,0.76102 1.59385,0 2.64205,-0.51692 1.04821,-0.53128 1.85231,-1.1918 l 1.60821,2.05334 q -0.99077,0.96205 -2.51283,1.66564 -1.52205,0.68923 -3.70461,0.68923 -2.52718,0 -4.52308,-1.17744 -1.99589,-1.17743 -3.15897,-3.47487 -1.14872,-2.31179 -1.14872,-5.67179 0,-3.33128 1.1918,-5.61436 1.19179,-2.29744 3.17333,-3.47487 1.9959,-1.1918 4.42256,-1.1918 z" id="path41002"/><path d="m 700.09311,174.89376 v 8.25641 q 0.91897,-1.12 2.13949,-1.68 1.23487,-0.57436 2.55589,-0.57436 2.13949,0 3.1877,1.19179 1.0482,1.1918 1.0482,3.31693 v 11.05641 h -3.21641 v -10.55385 q 0,-1.3641 -0.51692,-1.95282 -0.51693,-0.60308 -1.66564,-0.60308 -1.07693,0 -1.9959,0.70359 -0.91898,0.68923 -1.53641,1.56513 v 10.84103 h -3.21641 v -21.22257 z" id="path41004"/><path d="m 725.69516,192.74196 q 0,0.90462 0.27282,1.30667 0.27283,0.40205 0.8759,0.60308 l -0.71795,2.18256 q -1.12,-0.12923 -1.93846,-0.61744 -0.8041,-0.4882 -1.20615,-1.47897 -0.83282,1.06256 -2.11077,1.59385 -1.27795,0.51692 -2.72821,0.51692 -2.31179,0 -3.64718,-1.29231 -1.33538,-1.30666 -1.33538,-3.41743 0,-2.39795 1.86667,-3.69026 1.86666,-1.29231 5.34153,-1.29231 h 2.16821 v -0.99077 q 0,-1.47897 -0.89026,-2.11077 -0.89025,-0.64615 -2.4841,-0.64615 -0.74667,0 -1.80923,0.20103 -1.06256,0.18666 -2.22564,0.58871 l -0.78974,-2.26871 q 1.42153,-0.53129 2.78564,-0.77539 1.3641,-0.25846 2.52718,-0.25846 3.0441,0 4.53743,1.34974 1.50769,1.34975 1.50769,3.73334 z m -6.57641,1.73744 q 0.97641,0 1.90975,-0.51692 0.93333,-0.51693 1.50769,-1.45026 v -3.34564 h -1.78051 q -2.26872,0 -3.24513,0.76102 -0.97641,0.74667 -0.97641,2.0677 0,2.4841 2.58461,2.4841 z" id="path41006"/><path d="m 731.48184,196.46094 v -2.29744 h 2.22564 v -10.58256 h -2.22564 v -2.28308 h 4.68102 l 0.58872,3.51795 q 0.84718,-1.90974 2.09641,-2.90051 1.26359,-1.00513 3.24513,-1.00513 0.67487,0 1.20615,0.11487 0.54564,0.10051 1.07692,0.27282 l -0.54564,5.58564 h -2.29743 v -3.08718 q -1.60821,0.0574 -2.77128,1.29231 -1.16308,1.22051 -1.83795,3.44615 v 5.62872 h 3.05846 v 2.29744 z" id="path41008"/><path d="m 754.08287,194.37889 q 1.50769,0 2.39794,-0.53129 0.89026,-0.54564 0.89026,-1.49333 0,-0.61744 -0.25846,-1.0482 -0.25846,-0.43077 -1.03385,-0.80411 -0.77538,-0.37333 -2.35487,-0.77538 -1.49333,-0.38769 -2.62769,-0.91898 -1.12,-0.53128 -1.73744,-1.37846 -0.61743,-0.84718 -0.61743,-2.18256 0,-1.95282 1.62256,-3.14462 1.63692,-1.20615 4.43692,-1.20615 1.90975,0 3.33129,0.50256 1.42154,0.50257 2.42666,1.24923 l -1.34974,2.02462 q -0.89026,-0.58872 -1.95282,-0.96205 -1.04821,-0.37334 -2.36923,-0.37334 -1.53641,0 -2.21128,0.45949 -0.66052,0.45949 -0.66052,1.22051 0,0.57436 0.33026,0.9477 0.34462,0.37333 1.17744,0.70359 0.83282,0.33025 2.35487,0.74666 1.47897,0.40205 2.57025,0.9477 1.10565,0.54564 1.70872,1.45025 0.61744,0.89026 0.61744,2.32616 0,1.63692 -0.94769,2.68512 -0.9477,1.03385 -2.46975,1.53641 -1.52205,0.48821 -3.27384,0.48821 -2.11077,0 -3.64718,-0.60308 -1.53641,-0.61743 -2.58462,-1.53641 l 1.70872,-1.95282 q 0.89026,0.71795 2.03897,1.17744 1.14872,0.44513 2.48411,0.44513 z" id="path41010"/><path d="m 769.87774,186.40966 q 0,2.75692 0.60308,4.83897 0.61744,2.08205 1.90974,3.90564 1.30667,1.82359 3.36,3.79077 l -1.78051,1.72308 q -2.31179,-1.90975 -3.97744,-3.97744 -1.65128,-2.06769 -2.54153,-4.55179 -0.89026,-2.49847 -0.89026,-5.72923 0,-3.23077 0.89026,-5.71488 0.89025,-2.49846 2.54153,-4.56615 1.66565,-2.06769 3.97744,-3.97744 l 1.78051,1.72308 q -2.01025,1.93846 -3.31692,3.76205 -1.30667,1.80923 -1.93846,3.90564 -0.61744,2.09641 -0.61744,4.8677 z" id="path41012"/><path d="m 791.04294,173.87427 q 0.93333,0 1.52205,0.57436 0.58872,0.57436 0.58872,1.4359 0,0.86154 -0.58872,1.45025 -0.58872,0.58872 -1.52205,0.58872 -0.93334,0 -1.52205,-0.58872 -0.57436,-0.58871 -0.57436,-1.45025 0,-0.86154 0.57436,-1.4359 0.58871,-0.57436 1.52205,-0.57436 z m 2.51282,7.42359 v 11.97539 q 0,2.82871 -1.17744,4.69538 -1.17743,1.86667 -3.43179,2.98667 -2.25436,1.12 -5.48513,1.69436 l -0.51692,-2.46975 q 2.25435,-0.43077 3.92,-1.19179 1.66564,-0.76103 2.57025,-2.08205 0.90462,-1.32103 0.90462,-3.41744 v -9.8359 h -5.9877 v -2.35487 z" id="path41014"/><path d="m 805.77525,194.37889 q 1.50769,0 2.39795,-0.53129 0.89025,-0.54564 0.89025,-1.49333 0,-0.61744 -0.25846,-1.0482 -0.25846,-0.43077 -1.03384,-0.80411 -0.77539,-0.37333 -2.35488,-0.77538 -1.49333,-0.38769 -2.62769,-0.91898 -1.12,-0.53128 -1.73743,-1.37846 -0.61744,-0.84718 -0.61744,-2.18256 0,-1.95282 1.62256,-3.14462 1.63693,-1.20615 4.43693,-1.20615 1.90974,0 3.33128,0.50256 1.42154,0.50257 2.42667,1.24923 l -1.34975,2.02462 q -0.89025,-0.58872 -1.95282,-0.96205 -1.0482,-0.37334 -2.36923,-0.37334 -1.53641,0 -2.21128,0.45949 -0.66051,0.45949 -0.66051,1.22051 0,0.57436 0.33025,0.9477 0.34462,0.37333 1.17744,0.70359 0.83282,0.33025 2.35487,0.74666 1.47898,0.40205 2.57026,0.9477 1.10564,0.54564 1.70872,1.45025 0.61743,0.89026 0.61743,2.32616 0,1.63692 -0.94769,2.68512 -0.94769,1.03385 -2.46974,1.53641 -1.52206,0.48821 -3.27385,0.48821 -2.11077,0 -3.64718,-0.60308 -1.53641,-0.61743 -2.58462,-1.53641 l 1.70872,-1.95282 q 0.89026,0.71795 2.03898,1.17744 1.14871,0.44513 2.4841,0.44513 z" id="path41016"/><path d="m 830.15679,195.65683 q -0.83282,0.53129 -1.9959,0.86154 -1.16307,0.33026 -2.42666,0.33026 -2.64205,0 -4.02051,-1.3641 -1.36411,-1.37846 -1.36411,-3.61846 v -8.2277 h -3.37436 v -2.34051 h 3.37436 v -3.38872 l 3.21641,-0.38769 v 3.77641 h 5.1118 l -0.35898,2.34051 h -4.75282 v 8.19898 q 0,1.22051 0.60308,1.82359 0.61744,0.58872 2.01026,0.58872 0.83282,0 1.52205,-0.20103 0.70359,-0.20103 1.29231,-0.51692 z" id="path41018"/><path d="m 834.86654,196.46094 v -2.29744 h 2.22564 v -10.58256 h -2.22564 v -2.28308 h 4.68103 l 0.58871,3.51795 q 0.84718,-1.90974 2.09641,-2.90051 1.26359,-1.00513 3.24513,-1.00513 0.67487,0 1.20616,0.11487 0.54564,0.10051 1.07692,0.27282 l -0.54564,5.58564 h -2.29744 v -3.08718 q -1.6082,0.0574 -2.77128,1.29231 -1.16308,1.22051 -1.83795,3.44615 v 5.62872 h 3.05846 v 2.29744 z" id="path41020"/><path d="m 859.99475,186.40966 q 0,-2.77129 -0.63179,-4.8677 -0.61744,-2.09641 -1.92411,-3.90564 -1.30666,-1.82359 -3.31692,-3.76205 l 1.78051,-1.72308 q 2.3118,1.90975 3.96308,3.97744 1.66564,2.06769 2.5559,4.56615 0.89025,2.48411 0.89025,5.71488 0,3.23076 -0.89025,5.72923 -0.89026,2.4841 -2.5559,4.55179 -1.65128,2.06769 -3.96308,3.97744 l -1.78051,-1.72308 q 2.05333,-1.96718 3.34564,-3.79077 1.30667,-1.82359 1.90974,-3.90564 0.61744,-2.08205 0.61744,-4.83897 z" id="path41022"/><path d="m 28.09262,253.10709 q 0.775385,-1.03384 1.837949,-1.62256 1.062564,-0.58872 2.326154,-0.58872 1.995897,0 3.230769,0.99077 1.249231,0.97641 1.82359,2.77128 0.588718,1.78051 0.588718,4.19282 0,2.3118 -0.689231,4.12103 -0.689231,1.80923 -2.038974,2.84307 -1.335385,1.03385 -3.302565,1.03385 -2.541538,0 -3.991794,-1.88103 l -0.172308,1.49334 H 24.87621 v -21.25128 l 3.21641,-0.35898 z m 2.972308,11.28616 q 1.636923,0 2.527179,-1.33539 0.904616,-1.33538 0.904616,-4.19282 0,-2.91487 -0.818462,-4.19282 -0.804102,-1.29231 -2.297436,-1.29231 -1.076923,0 -1.909743,0.64616 -0.818462,0.64615 -1.378462,1.52205 v 7.09333 q 0.531282,0.81846 1.277949,1.29231 0.761026,0.45949 1.694359,0.45949 z" id="path41024"/><path d="m 48.180838,250.89581 q 3.331282,0 5.083077,2.1682 1.751794,2.16821 1.751794,5.78667 0,2.41231 -0.804102,4.20718 -0.789744,1.79487 -2.326154,2.8 -1.522051,0.99077 -3.718974,0.99077 -3.316923,0 -5.083077,-2.13949 -1.766154,-2.15384 -1.766154,-5.82974 0,-2.35487 0.789743,-4.14974 0.804103,-1.80924 2.340513,-2.81436 1.536411,-1.01949 3.733334,-1.01949 z m 0,2.49846 q -1.737436,0 -2.613334,1.33539 -0.875897,1.32102 -0.875897,4.14974 0,2.82872 0.861538,4.1641 0.875898,1.32103 2.613334,1.32103 1.737436,0 2.598974,-1.33539 0.875897,-1.33538 0.875897,-4.17846 0,-2.8 -0.861538,-4.12102 -0.861538,-1.33539 -2.598974,-1.33539 z" id="path41026"/><path d="m 65.411619,250.89581 q 3.331282,0 5.083077,2.1682 1.751795,2.16821 1.751795,5.78667 0,2.41231 -0.804103,4.20718 -0.789743,1.79487 -2.326153,2.8 -1.522052,0.99077 -3.718975,0.99077 -3.316923,0 -5.083077,-2.13949 -1.766154,-2.15384 -1.766154,-5.82974 0,-2.35487 0.789744,-4.14974 0.804103,-1.80924 2.340513,-2.81436 1.53641,-1.01949 3.733333,-1.01949 z m 0,2.49846 q -1.737436,0 -2.613333,1.33539 -0.875898,1.32102 -0.875898,4.14974 0,2.82872 0.861539,4.1641 0.875897,1.32103 2.613333,1.32103 1.737436,0 2.598975,-1.33539 0.875897,-1.33538 0.875897,-4.17846 0,-2.8 -0.861538,-4.12102 -0.861539,-1.33539 -2.598975,-1.33539 z" id="path41028"/><path d="m 83.231119,245.20966 v 17.11589 q 0,1.04821 0.631795,1.49334 0.646153,0.43077 1.665641,0.43077 0.646153,0 1.234871,-0.12924 0.603077,-0.14359 1.163077,-0.37333 l 0.818462,2.24 q -0.674872,0.34462 -1.665641,0.60308 -0.97641,0.25846 -2.24,0.25846 -2.283077,0 -3.561026,-1.29231 -1.26359,-1.29231 -1.26359,-3.51795 v -14.45948 h -4.580512 v -2.36923 z" id="path41030"/><path d="m 117.07525,243.87427 q 0.94769,0 1.52205,0.57436 0.58872,0.57436 0.58872,1.4359 0,0.86154 -0.58872,1.45025 -0.57436,0.58872 -1.52205,0.58872 -0.91898,0 -1.5077,-0.58872 -0.58871,-0.58871 -0.58871,-1.45025 0,-0.86154 0.58871,-1.4359 0.58872,-0.57436 1.5077,-0.57436 z m 2.24,7.42359 v 12.80821 h 4.12102 v 2.35487 H 111.5614 v -2.35487 h 4.53744 v -10.45334 h -4.39385 v -2.35487 z" id="path41032"/><path d="m 133.77475,264.37889 q 1.50769,0 2.39794,-0.53129 0.89026,-0.54564 0.89026,-1.49333 0,-0.61744 -0.25846,-1.0482 -0.25846,-0.43077 -1.03385,-0.80411 -0.77538,-0.37333 -2.35487,-0.77538 -1.49333,-0.38769 -2.62769,-0.91898 -1.12,-0.53128 -1.73744,-1.37846 -0.61743,-0.84718 -0.61743,-2.18256 0,-1.95282 1.62256,-3.14462 1.63692,-1.20615 4.43692,-1.20615 1.90975,0 3.33129,0.50256 1.42153,0.50257 2.42666,1.24923 l -1.34974,2.02462 q -0.89026,-0.58872 -1.95282,-0.96205 -1.04821,-0.37334 -2.36923,-0.37334 -1.53641,0 -2.21128,0.45949 -0.66052,0.45949 -0.66052,1.22051 0,0.57436 0.33026,0.9477 0.34461,0.37333 1.17744,0.70359 0.83282,0.33025 2.35487,0.74666 1.47897,0.40205 2.57025,0.9477 1.10564,0.54564 1.70872,1.45025 0.61744,0.89026 0.61744,2.32616 0,1.63692 -0.94769,2.68512 -0.9477,1.03385 -2.46975,1.53641 -1.52205,0.48821 -3.27384,0.48821 -2.11077,0 -3.64718,-0.60308 -1.53641,-0.61743 -2.58462,-1.53641 l 1.70872,-1.95282 q 0.89025,0.71795 2.03897,1.17744 1.14872,0.44513 2.48411,0.44513 z" id="path41034"/><path d="m 144.37168,271.71632 v -2.65641 h 14.35898 v 2.65641 z" id="path41036"/><path d="m 168.79631,250.89581 q 3.33128,0 5.08308,2.1682 1.75179,2.16821 1.75179,5.78667 0,2.41231 -0.8041,4.20718 -0.78975,1.79487 -2.32616,2.8 -1.52205,0.99077 -3.71897,0.99077 -3.31692,0 -5.08308,-2.13949 -1.76615,-2.15384 -1.76615,-5.82974 0,-2.35487 0.78974,-4.14974 0.8041,-1.80924 2.34052,-2.81436 1.53641,-1.01949 3.73333,-1.01949 z m 0,2.49846 q -1.73744,0 -2.61333,1.33539 -0.8759,1.32102 -0.8759,4.14974 0,2.82872 0.86154,4.1641 0.87589,1.32103 2.61333,1.32103 1.73744,0 2.59897,-1.33539 0.8759,-1.33538 0.8759,-4.17846 0,-2.8 -0.86154,-4.12102 -0.86154,-1.33539 -2.59897,-1.33539 z" id="path41038"/><path d="m 183.27016,244.85068 v 21.61026 h -3.21641 v -21.25128 z m 10.03692,6.44718 -6.13128,6.77744 6.77744,8.38564 h -3.93436 l -6.51898,-8.29949 6.05949,-6.86359 z" id="path41040"/><path d="m 226.41892,253.37991 v 2.62769 h -11.88923 v -2.62769 z m 0,5.6718 v 2.62769 h -11.88923 v -2.62769 z" id="path41042"/><path d="m 256.27123,250.89581 q 2.01026,0 3.21641,0.99077 1.20616,0.97641 1.7518,2.77128 0.54564,1.78051 0.54564,4.19282 0,2.3118 -0.66051,4.12103 -0.66052,1.80923 -1.96718,2.84307 -1.29231,1.03385 -3.21641,1.03385 -2.38359,0 -3.84821,-1.68 v 7.12205 l -3.21641,0.35898 v -21.3518 h 2.8 l 0.20103,1.95282 q 0.86154,-1.16308 1.9959,-1.75179 1.13435,-0.60308 2.39794,-0.60308 z m -0.89025,2.4841 q -1.07693,0 -1.90975,0.64616 -0.81846,0.64615 -1.37846,1.52205 v 7.09333 q 1.13436,1.69436 3.00103,1.69436 1.62256,0 2.46974,-1.30667 0.84718,-1.30666 0.84718,-4.1641 0,-2.91487 -0.76102,-4.19282 -0.74667,-1.29231 -2.26872,-1.29231 z" id="path41044"/><path d="m 277.69484,262.74196 q 0,0.90462 0.27282,1.30667 0.27283,0.40205 0.8759,0.60308 l -0.71795,2.18256 q -1.12,-0.12923 -1.93846,-0.61744 -0.8041,-0.4882 -1.20615,-1.47897 -0.83282,1.06256 -2.11077,1.59385 -1.27795,0.51692 -2.72821,0.51692 -2.31179,0 -3.64718,-1.29231 -1.33538,-1.30666 -1.33538,-3.41743 0,-2.39795 1.86667,-3.69026 1.86666,-1.29231 5.34153,-1.29231 h 2.16821 v -0.99077 q 0,-1.47897 -0.89026,-2.11077 -0.89025,-0.64615 -2.4841,-0.64615 -0.74667,0 -1.80923,0.20103 -1.06256,0.18666 -2.22564,0.58871 l -0.78974,-2.26871 q 1.42153,-0.53129 2.78564,-0.77539 1.3641,-0.25846 2.52718,-0.25846 3.0441,0 4.53743,1.34974 1.50769,1.34975 1.50769,3.73334 z m -6.57641,1.73744 q 0.97641,0 1.90975,-0.51692 0.93333,-0.51693 1.50769,-1.45026 v -3.34564 h -1.78051 q -2.26872,0 -3.24513,0.76102 -0.97641,0.74667 -0.97641,2.0677 0,2.4841 2.58461,2.4841 z" id="path41046"/><path d="m 288.85179,264.37889 q 1.50769,0 2.39795,-0.53129 0.89025,-0.54564 0.89025,-1.49333 0,-0.61744 -0.25846,-1.0482 -0.25846,-0.43077 -1.03385,-0.80411 -0.77538,-0.37333 -2.35487,-0.77538 -1.49333,-0.38769 -2.62769,-0.91898 -1.12,-0.53128 -1.73744,-1.37846 -0.61743,-0.84718 -0.61743,-2.18256 0,-1.95282 1.62256,-3.14462 1.63693,-1.20615 4.43693,-1.20615 1.90974,0 3.33128,0.50256 1.42154,0.50257 2.42666,1.24923 l -1.34974,2.02462 q -0.89026,-0.58872 -1.95282,-0.96205 -1.0482,-0.37334 -2.36923,-0.37334 -1.53641,0 -2.21128,0.45949 -0.66052,0.45949 -0.66052,1.22051 0,0.57436 0.33026,0.9477 0.34462,0.37333 1.17744,0.70359 0.83282,0.33025 2.35487,0.74666 1.47897,0.40205 2.57026,0.9477 1.10564,0.54564 1.70871,1.45025 0.61744,0.89026 0.61744,2.32616 0,1.63692 -0.94769,2.68512 -0.9477,1.03385 -2.46975,1.53641 -1.52205,0.48821 -3.27384,0.48821 -2.11077,0 -3.64718,-0.60308 -1.53641,-0.61743 -2.58462,-1.53641 l 1.70872,-1.95282 q 0.89026,0.71795 2.03897,1.17744 1.14872,0.44513 2.48411,0.44513 z" id="path41048"/><path d="m 306.08256,264.37889 q 1.50769,0 2.39795,-0.53129 0.89026,-0.54564 0.89026,-1.49333 0,-0.61744 -0.25847,-1.0482 -0.25846,-0.43077 -1.03384,-0.80411 -0.77539,-0.37333 -2.35487,-0.77538 -1.49334,-0.38769 -2.6277,-0.91898 -1.12,-0.53128 -1.73743,-1.37846 -0.61744,-0.84718 -0.61744,-2.18256 0,-1.95282 1.62257,-3.14462 1.63692,-1.20615 4.43692,-1.20615 1.90974,0 3.33128,0.50256 1.42154,0.50257 2.42667,1.24923 l -1.34975,2.02462 q -0.89025,-0.58872 -1.95282,-0.96205 -1.0482,-0.37334 -2.36923,-0.37334 -1.53641,0 -2.21128,0.45949 -0.66051,0.45949 -0.66051,1.22051 0,0.57436 0.33026,0.9477 0.34461,0.37333 1.17743,0.70359 0.83282,0.33025 2.35487,0.74666 1.47898,0.40205 2.57026,0.9477 1.10564,0.54564 1.70872,1.45025 0.61743,0.89026 0.61743,2.32616 0,1.63692 -0.94769,2.68512 -0.94769,1.03385 -2.46974,1.53641 -1.52205,0.48821 -3.27385,0.48821 -2.11077,0 -3.64718,-0.60308 -1.53641,-0.61743 -2.58461,-1.53641 l 1.70871,-1.95282 q 0.89026,0.71795 2.03898,1.17744 1.14872,0.44513 2.4841,0.44513 z" id="path41050"/><path d="m 329.66,266.46094 h -4.02051 l -1.70872,-10.76923 -1.83795,10.76923 h -3.93436 l -2.57025,-15.16308 h 3.10154 l 1.57948,13.16718 2.11077,-11.24308 h 3.21641 l 1.96718,11.24308 1.57949,-13.16718 h 2.98667 z" id="path41052"/><path d="m 343.93283,244.85068 3.21641,0.35898 v 21.25128 h -2.82872 l -0.22974,-1.86667 q -0.77539,1.07692 -1.85231,1.66564 -1.07693,0.58872 -2.41231,0.58872 -1.95282,0 -3.21641,-0.99077 -1.24923,-1.00513 -1.86667,-2.8 -0.61743,-1.79487 -0.61743,-4.17846 0,-2.3118 0.71795,-4.10667 0.71794,-1.80923 2.05333,-2.84307 1.33538,-1.03385 3.21641,-1.03385 2.34051,0 3.81949,1.65128 z m -2.97231,8.51487 q -1.62257,0 -2.52718,1.34975 -0.90462,1.33538 -0.90462,4.1641 0,2.90051 0.81847,4.20718 0.83282,1.29231 2.32615,1.29231 1.09128,0 1.89538,-0.6318 0.80411,-0.63179 1.36411,-1.52205 v -7.17949 q -0.56,-0.8041 -1.30667,-1.23487 -0.74667,-0.44513 -1.66564,-0.44513 z" id="path41054"/><path d="m 354.68773,269.84966 v -26.88 h 7.82564 v 2.57025 h -4.79589 v 21.76821 h 4.79589 v 2.54154 z" id="path41056"/><path d="m 374.68979,246.2435 q 1.96718,0 3.38872,0.68923 1.42154,0.68923 2.18256,1.82359 0.76103,1.13436 0.76103,2.49846 0,1.83795 -1.13436,3.05847 -1.12,1.22051 -2.8,1.6082 1.23487,0.12923 2.26872,0.68923 1.0482,0.56 1.66564,1.59385 0.63179,1.03384 0.63179,2.59897 0,1.69436 -0.89025,3.07282 -0.89026,1.3641 -2.49847,2.16821 -1.6082,0.8041 -3.79076,0.8041 -1.86667,0 -3.56103,-0.68923 -1.68,-0.68923 -2.85744,-2.08205 l 1.96718,-1.72308 q 0.84718,0.99077 1.96718,1.46462 1.13436,0.47384 2.34052,0.47384 1.83794,0 2.91487,-0.94769 1.07692,-0.96205 1.07692,-2.65641 0,-1.9241 -1.06256,-2.68513 -1.06257,-0.77538 -2.75693,-0.77538 h -1.70871 l 0.37333,-2.36923 h 1.20615 q 1.39282,0 2.42667,-0.76103 1.0482,-0.77538 1.0482,-2.36923 0,-1.4359 -0.99077,-2.21128 -0.97641,-0.78975 -2.42666,-0.78975 -1.24923,0 -2.21128,0.45949 -0.96206,0.45949 -1.89539,1.32103 l -1.70872,-1.82359 q 1.30667,-1.23487 2.82872,-1.83795 1.52205,-0.60308 3.24513,-0.60308 z" id="path41058"/><path d="m 396.41492,242.96966 v 26.88 h -7.82564 v -2.54154 h 4.7959 v -21.76821 h -4.7959 v -2.57025 z" id="path41060"/><path d="m 450.41907,253.37991 v 2.62769 h -29.12 v -2.62769 z m 0,5.6718 v 2.62769 h -29.12 v -2.62769 z" id="path41062"/><path d="m 477.65805,252.89171 -0.47384,-7.68205 h 3.50359 l -0.48821,7.68205 z" id="path41064"/><path d="m 494.52988,249.17273 v 6.30359 h 7.45231 v 2.52718 h -7.45231 v 8.45744 h -3.33128 v -19.81539 h 12.19077 l -0.37333,2.52718 z" id="path41066"/><path d="m 512.11963,252.89171 -0.47384,-7.68205 h 3.50359 l -0.48821,7.68205 z" id="path41068"/></g></g></g></g></svg>