<?xml version="1.0" ?><svg xmlns:inkscape="http://www.inkscape.org/namespaces/inkscape" xmlns:sodipodi="http://sodipodi.sourceforge.net/DTD/sodipodi-0.dtd" xmlns="http://www.w3.org/2000/svg" xmlns:svg="http://www.w3.org/2000/svg" width="903.961" height="569.15997" viewBox="0 0 239.17329 150.59024" version="1.1" id="svg5" sodipodi:docname="opaque-field-2.svg" xml:space="preserve"><sodipodi:namedview id="namedview7" pagecolor="#ffffff" bordercolor="#000000" borderopacity="0.25" showgrid="true"/><defs id="defs2"><rect x="22.319975" y="66.959999" width="848.159" height="479.88" id="rect2499"/></defs><g id="layer1"><g id="g26287" transform="matrix(0.26458333,0,0,0.26458333,151.03674,16.444252)"><g id="g26211" transform="translate(-559.68753,-50.991504)">
	<path style="fill:#20283c;fill-opacity:1" d="M 850.74201,546.84001 H 30.897 C 13.833,546.84001 0,533.00701 0,515.94301 V 42.057 C 0,24.993 13.833,11.16 30.897,11.16 h 819.84601 c 17.064,0 30.897,13.833 30.897,30.897 v 473.88601 c -10e-4,17.064 -13.834,30.897 -30.898,30.897 z" id="path26201" sodipodi:nodetypes="ssssssscs"/><g id="g34542" transform="matrix(0.22579297,0,0,0.22579297,19.537281,407.67356)" style="font-size:80px;font-family:'Brolink DEMO';-inkscape-font-specification:'Brolink DEMO, Normal';display:inline;opacity:1;stroke-width:8.85763;stroke-linecap:round;stroke-linejoin:round;stroke-miterlimit:2;stroke-dasharray:1.11949, 2.23898"><g id="g34508" style="stroke-width:8.85763"><path d="m 162.144,193.719 c 0,0 67.743,-16.576 50.853,-114.74 0,0 81.408,-135.816 257.901,-50.836 0,0 -114.839,23.251 -86.081,138.61 0,0 -77.272,-16.404 -96.43,49.396 0,0 -39.238,-26.305 -76.384,13.254 0.001,0 -31.497,4.809 -49.859,-35.684 z" fill="#5bc992" id="path34504" style="fill:#0d3758;fill-opacity:1;stroke-width:60.4005"/><path d="m 168.14,196.604 c -3.557,0 -6.756,-2.472 -7.539,-6.09 -0.898,-4.15 1.723,-8.243 5.861,-9.168 1.823,-0.428 42.24,-10.743 40.627,-79.558 -0.229,-9.782 -1.411,-20.039 -3.511,-30.485 l -2.197,-10.93 c -0.84,-4.18 1.868,-8.251 6.048,-9.092 4.184,-0.838 8.251,1.868 9.092,6.048 l 2.197,10.93 c 2.277,11.327 3.559,22.486 3.81,33.167 0.547,23.372 -3.317,55.876 -24.841,77.998 -13.361,13.732 -27.318,16.877 -27.906,17.004 -0.55,0.118 -1.1,0.176 -1.641,0.176 z" fill="#0bb494" id="path34506" style="fill:#59aae8;fill-opacity:0.992157;stroke-width:60.4005"/></g><g id="g34514" style="stroke-width:8.85763"><path d="m 230.826,252.7 c 40.616,-35.987 77.278,-6.195 77.278,-6.195 25.11,-63.766 100.553,-40.346 100.553,-40.346 -18.06,-117.51 98.427,-130.134 98.427,-130.134 -167.958,-100.804 -261.476,26.976 -261.476,26.976 7.818,99.299 -61.159,109.594 -61.159,109.594 0,0 10.647,24.683 46.377,40.105 z" fill="#6fd7a3" id="path34510" style="fill:#135587;fill-opacity:1;stroke-width:60.4005"/><path d="m 190.86,216.05 c -3.848,0 -7.177,-2.872 -7.655,-6.788 -0.514,-4.215 2.472,-8.051 6.676,-8.593 1.85,-0.258 43.048,-6.821 47.752,-75.499 0.668,-9.759 0.432,-20.08 -0.702,-30.678 l -1.186,-11.085 c -0.453,-4.24 2.616,-8.046 6.856,-8.499 4.242,-0.449 8.046,2.616 8.499,6.856 l 1.186,11.085 c 1.23,11.492 1.483,22.721 0.753,33.377 -1.598,23.324 -8.426,55.337 -31.888,75.392 -14.564,12.449 -28.751,14.301 -29.348,14.374 -0.316,0.039 -0.631,0.058 -0.943,0.058 z" fill="#0bb494" id="path34512" style="fill:#59aae8;fill-opacity:0.992157;stroke-width:60.4005"/></g><path d="m 99.22,32.25 c 54.02,-16.304 94.124,31.976 82.031,97.634 -11.942,64.843 13.555,101.705 49.575,122.816 34.936,20.476 92.97,61.763 97.24,138.002 7.207,128.69 -146.88,153.812 -189.774,79.616 -38.092,-65.889 25.07,-126.332 25.07,-126.332 l 15.768,13.085 c 0,0 -54.212,57.459 -6.717,98.644 41.377,35.88 119.62,4.994 94.473,-63.798 C 244.159,329.748 153.7,343.132 110.926,284.427 70.063,228.345 104.751,176.066 120.847,144.993 147.748,93.059 132.054,50.522 98.003,64.226 Z" fill="#c9f6b0" id="path34516" style="fill:#1b71af;fill-opacity:1;stroke-width:60.4005"/><g id="g34520" style="stroke-width:8.85763"><path d="M 328.066,390.702 C 323.797,314.463 265.762,273.176 230.826,252.7 194.806,231.589 169.309,194.727 181.251,129.884 193.344,64.227 153.24,15.946 99.22,32.25 l -0.016,0.427 c 31.181,11.593 49.582,49.885 40.867,97.207 -11.942,64.843 13.555,101.705 49.575,122.816 34.936,20.476 92.97,61.763 97.24,138.002 3.97,70.889 -41.004,110.348 -89.374,119.094 59.897,11.218 135.657,-27.974 130.554,-119.094 z" fill="#bbf49b" id="path34518" style="fill:#155d91;fill-opacity:1;stroke-width:60.4005"/></g><path d="M 86.13,29.061 146.528,0 c 0,0 -10.295,53.02 -52.157,74.817 L 75.834,69.492 Z" fill="#6fd7a3" id="path34522" style="fill:#00ccff;fill-opacity:1;stroke-width:60.4005"/><path d="m 108.988,0 -14.942,49.333 0.325,25.484 c 0.132,10.356 -5.648,19.894 -14.922,24.625 l -53.66,27.374 C 13.17,133.254 -0.159,119.45 6.856,107.202 15.165,92.695 24.711,75.556 34.101,57.672 41.851,42.911 53.79,30.729 68.409,22.59 Z" fill="#c9f6b0" id="path34524" style="fill:#2a95e1;fill-opacity:1;stroke-width:60.4005"/><path d="m 181.814,315.601 c 4.614,-3.907 11.558,0.252 10.29,6.164 l -6.293,29.354 -7.207,33.619 c -1.15,5.364 -8.11,6.832 -11.328,2.389 L 157.07,373.035 c -1.033,-1.427 -2.614,-2.359 -4.362,-2.573 l -16.799,-2.056 c -5.486,-0.672 -7.543,-7.554 -3.325,-11.126 l 26.177,-22.163 z" fill="#6fd7a3" id="path34526" style="fill:#2ad4ff;fill-opacity:0.992157;stroke-width:60.4005"/><path d="m 408.662,213.882 c -2.855,0 -5.599,-1.59 -6.939,-4.325 -0.083,-0.168 -8.514,-17.05 -27.948,-36.153 -17.846,-17.542 -48.949,-40.642 -95.775,-51.077 -4.162,-0.927 -6.784,-5.054 -5.857,-9.216 0.927,-4.162 5.05,-6.787 9.216,-5.857 50.722,11.302 84.422,36.5 103.761,55.648 21.095,20.887 30.105,39.107 30.478,39.872 1.869,3.833 0.277,8.455 -3.556,10.324 -1.091,0.533 -2.244,0.784 -3.38,0.784 z" fill="#0bb494" id="path34528" style="fill:#59aae8;fill-opacity:0.992157;stroke-width:60.4005"/><path d="m 308.106,254.226 c -0.035,0 -0.068,0 -0.103,-0.001 -4.254,-0.056 -7.66,-3.541 -7.62,-7.792 0,-0.459 -0.233,-27.156 -22.522,-73.746 -1.84,-3.847 -0.214,-8.457 3.633,-10.298 3.847,-1.841 8.457,-0.214 10.298,3.633 24.143,50.465 24.049,79.377 24.033,80.583 -0.056,4.231 -3.502,7.621 -7.719,7.621 z" fill="#0bb494" id="path34530" style="fill:#59aae8;fill-opacity:0.992157;stroke-width:60.4005"/><g fill="#6fd7a3" id="g34540" style="display:inline;stroke-width:60.4005"><path d="m 293.41,353.127 c -2.935,0 -5.74,-1.682 -7.034,-4.528 -1.765,-3.882 -0.048,-8.459 3.834,-10.224 6.955,-3.161 18.792,-10.715 18.911,-10.791 3.592,-2.297 8.368,-1.248 10.665,2.345 2.297,3.593 1.248,8.367 -2.345,10.665 -0.522,0.334 -12.881,8.222 -20.84,11.839 -1.036,0.47 -2.122,0.694 -3.191,0.694 z" id="path34532" style="fill:#2b97e2;fill-opacity:0.992157;stroke-width:8.85763"/><path d="m 308.098,407.232 c -4.104,0 -7.52,-3.231 -7.707,-7.372 -0.193,-4.26 3.104,-7.87 7.364,-8.063 l 20.207,-0.915 c 4.259,-0.189 7.87,3.104 8.063,7.364 0.193,4.26 -3.104,7.87 -7.364,8.063 l -20.207,0.915 c -0.119,0.005 -0.238,0.008 -0.356,0.008 z" id="path34534" style="fill:#2b97e2;fill-opacity:0.992157;stroke-width:8.85763"/><path d="m 310.641,470.991 c -1.381,0 -2.779,-0.37 -4.042,-1.148 l -14.183,-8.736 c -3.631,-2.236 -4.762,-6.993 -2.525,-10.623 2.236,-3.632 6.993,-4.762 10.623,-2.525 l 14.184,8.736 c 3.631,2.236 4.762,6.993 2.525,10.623 -1.459,2.368 -3.99,3.673 -6.582,3.673 z" id="path34536" style="fill:#2b97e2;fill-opacity:0.992157;stroke-width:8.85763"/><path d="m 258.788,512 c -2.901,0 -5.679,-1.642 -6.994,-4.441 l -7.245,-15.427 c -1.813,-3.86 -0.153,-8.458 3.707,-10.271 3.858,-1.813 8.458,-0.153 10.271,3.707 l 7.245,15.427 c 1.813,3.86 0.153,8.458 -3.707,10.271 -1.06,0.498 -2.177,0.734 -3.277,0.734 z" id="path34538" style="fill:#2b97e2;fill-opacity:0.992157;stroke-width:8.85763"/></g></g><g aria-label="  size_t opaque      = var_34c ^ var_39c + 4 const char* passwd = (env[opaque])(jstr) size_t opaque      = var_34c - var_12c - var_c bool is_ok         = passwd[opaque] == 'F'" transform="matrix(1.0000012,0,0,1.0000012,-11.40444,-12.169992)" id="text2497" style="font-weight:500;font-size:28px;font-family:'Fira Code';-inkscape-font-specification:'Fira Code, Medium';white-space:pre;shape-inside:url(#rect2499);display:inline;fill:#2a96e2;stroke-width:2;stroke-linecap:round;stroke-miterlimit:2;paint-order:fill markers stroke"><path d="m 30.390056,159.37889 q 1.507692,0 2.397949,-0.53129 0.890256,-0.54564 0.890256,-1.49333 0,-0.61744 -0.258461,-1.0482 -0.258462,-0.43077 -1.033846,-0.80411 -0.775385,-0.37333 -2.354872,-0.77538 -1.493334,-0.38769 -2.627693,-0.91898 -1.12,-0.53128 -1.737435,-1.37846 -0.617436,-0.84718 -0.617436,-2.18256 0,-1.95282 1.622564,-3.14462 1.636923,-1.20615 4.436923,-1.20615 1.909743,0 3.331282,0.50256 1.421538,0.50257 2.426667,1.24923 l -1.349744,2.02462 q -0.890256,-0.58872 -1.952821,-0.96205 -1.048205,-0.37334 -2.36923,-0.37334 -1.536411,0 -2.211282,0.45949 -0.660513,0.45949 -0.660513,1.22051 0,0.57436 0.330256,0.9477 0.344616,0.37333 1.177436,0.70359 0.832821,0.33025 2.354872,0.74666 1.478974,0.40205 2.570256,0.9477 1.105641,0.54564 1.708718,1.45025 0.617436,0.89026 0.617436,2.32616 0,1.63692 -0.947692,2.68512 -0.947692,1.03385 -2.469744,1.53641 -1.522051,0.48821 -3.273846,0.48821 -2.110769,0 -3.647179,-0.60308 -1.536411,-0.61743 -2.584616,-1.53641 l 1.708718,-1.95282 q 0.890257,0.71795 2.038975,1.17744 1.148717,0.44513 2.484102,0.44513 z" id="path42636"/><path d="m 48.15212,138.87427 q 0.947692,0 1.522051,0.57436 0.588718,0.57436 0.588718,1.4359 0,0.86154 -0.588718,1.45025 -0.574359,0.58872 -1.522051,0.58872 -0.918975,0 -1.507693,-0.58872 -0.588718,-0.58871 -0.588718,-1.45025 0,-0.86154 0.588718,-1.4359 0.588718,-0.57436 1.507693,-0.57436 z m 2.24,7.42359 v 12.80821 h 4.121025 v 2.35487 H 42.638274 v -2.35487 h 4.537435 v -10.45334 h -4.393846 v -2.35487 z" id="path42638"/><path d="m 63.257773,158.87632 h 8.112821 l -0.344616,2.58462 H 59.395209 v -2.35487 l 8.069744,-10.22359 h -7.42359 v -2.58462 h 11.228718 v 2.35487 z" id="path42640"/><path d="m 79.239324,154.91325 q 0.14359,2.34051 1.306666,3.38871 1.177436,1.04821 2.828718,1.04821 1.105641,0 2.053334,-0.34462 0.962051,-0.34461 1.924102,-0.97641 l 1.392821,1.92411 q -1.062564,0.86153 -2.484103,1.37846 -1.421538,0.51692 -3.044102,0.51692 -2.369231,0 -4.006154,-1.00513 -1.622564,-1.00513 -2.469744,-2.8 -0.83282,-1.79487 -0.83282,-4.14974 0,-2.28308 0.83282,-4.07795 0.832821,-1.80923 2.38359,-2.85744 1.550769,-1.06256 3.704615,-1.06256 3.015385,0 4.76718,2.02461 1.766154,2.02462 1.766154,5.55693 0,0.38769 -0.02872,0.77538 -0.01436,0.37334 -0.04308,0.66052 z m 3.618461,-6.63385 q -1.507692,0 -2.498461,1.07692 -0.990769,1.07693 -1.134359,3.36 h 7.021538 q -0.04308,-2.13949 -0.918974,-3.2882 -0.861539,-1.14872 -2.469744,-1.14872 z" id="path42642"/><path d="m 92.679336,166.71632 v -2.65641 h 14.358974 v 2.65641 z" id="path42644"/><path d="m 123.69473,160.65683 q -0.83282,0.53129 -1.99589,0.86154 -1.16308,0.33026 -2.42667,0.33026 -2.64205,0 -4.02051,-1.3641 -1.36411,-1.37846 -1.36411,-3.61846 v -8.2277 h -3.37436 v -2.34051 h 3.37436 v -3.38872 l 3.21641,-0.38769 v 3.77641 h 5.1118 l -0.35898,2.34051 h -4.75282 v 8.19898 q 0,1.22051 0.60308,1.82359 0.61744,0.58872 2.01026,0.58872 0.83282,0 1.52205,-0.20103 0.70359,-0.20103 1.29231,-0.51692 z" id="path42646"/><path d="m 151.56553,145.89581 q 3.33128,0 5.08307,2.1682 1.7518,2.16821 1.7518,5.78667 0,2.41231 -0.8041,4.20718 -0.78975,1.79487 -2.32616,2.8 -1.52205,0.99077 -3.71897,0.99077 -3.31693,0 -5.08308,-2.13949 -1.76615,-2.15384 -1.76615,-5.82974 0,-2.35487 0.78974,-4.14974 0.8041,-1.80924 2.34051,-2.81436 1.53641,-1.01949 3.73334,-1.01949 z m 0,2.49846 q -1.73744,0 -2.61334,1.33539 -0.87589,1.32102 -0.87589,4.14974 0,2.82872 0.86153,4.1641 0.8759,1.32103 2.61334,1.32103 1.73743,0 2.59897,-1.33539 0.8759,-1.33538 0.8759,-4.17846 0,-2.8 -0.86154,-4.12102 -0.86154,-1.33539 -2.59897,-1.33539 z" id="path42648"/><path d="m 170.11733,145.89581 q 2.01026,0 3.21641,0.99077 1.20616,0.97641 1.7518,2.77128 0.54564,1.78051 0.54564,4.19282 0,2.3118 -0.66051,4.12103 -0.66052,1.80923 -1.96718,2.84307 -1.29231,1.03385 -3.21641,1.03385 -2.38359,0 -3.84821,-1.68 v 7.12205 l -3.21641,0.35898 v -21.3518 h 2.8 l 0.20103,1.95282 q 0.86154,-1.16308 1.9959,-1.75179 1.13435,-0.60308 2.39794,-0.60308 z m -0.89025,2.4841 q -1.07693,0 -1.90975,0.64616 -0.81846,0.64615 -1.37846,1.52205 v 7.09333 q 1.13436,1.69436 3.00103,1.69436 1.62256,0 2.46974,-1.30667 0.84718,-1.30666 0.84718,-4.1641 0,-2.91487 -0.76102,-4.19282 -0.74667,-1.29231 -2.26872,-1.29231 z" id="path42650"/><path d="m 191.54093,157.74196 q 0,0.90462 0.27282,1.30667 0.27282,0.40205 0.8759,0.60308 l -0.71795,2.18256 q -1.12,-0.12923 -1.93846,-0.61744 -0.80411,-0.4882 -1.20616,-1.47897 -0.83282,1.06256 -2.11077,1.59385 -1.27795,0.51692 -2.7282,0.51692 -2.3118,0 -3.64718,-1.29231 -1.33539,-1.30666 -1.33539,-3.41743 0,-2.39795 1.86667,-3.69026 1.86667,-1.29231 5.34154,-1.29231 h 2.1682 v -0.99077 q 0,-1.47897 -0.89025,-2.11077 -0.89026,-0.64615 -2.4841,-0.64615 -0.74667,0 -1.80924,0.20103 -1.06256,0.18666 -2.22564,0.58871 l -0.78974,-2.26871 q 1.42154,-0.53129 2.78564,-0.77539 1.3641,-0.25846 2.52718,-0.25846 3.0441,0 4.53744,1.34974 1.50769,1.34975 1.50769,3.73334 z m -6.57641,1.73744 q 0.97641,0 1.90974,-0.51692 0.93334,-0.51693 1.50769,-1.45026 v -3.34564 h -1.78051 q -2.26872,0 -3.24513,0.76102 -0.97641,0.74667 -0.97641,2.0677 0,2.4841 2.58462,2.4841 z" id="path42652"/><path d="m 202.28146,145.89581 q 2.52718,0 4.04923,1.88102 l 0.20103,-1.47897 h 2.77128 v 21.3518 l -3.21641,-0.35898 v -7.49538 q -1.56513,2.05333 -4.12103,2.05333 -2.01025,0 -3.23077,-0.99077 -1.22051,-0.99077 -1.78051,-2.78564 -0.56,-1.79487 -0.56,-4.19282 0,-2.3118 0.67487,-4.10667 0.68923,-1.80923 1.9959,-2.84307 1.32103,-1.03385 3.21641,-1.03385 z m 0.83282,2.46974 q -1.65128,0 -2.49846,1.34975 -0.84718,1.33538 -0.84718,4.1641 0,2.90051 0.77539,4.17846 0.78974,1.27795 2.28307,1.27795 1.07693,0 1.88103,-0.60308 0.81846,-0.61743 1.37846,-1.50769 v -7.17949 q -0.53128,-0.8041 -1.29231,-1.23487 -0.76102,-0.44513 -1.68,-0.44513 z" id="path42654"/><path d="m 217.63122,146.29786 v 10.59692 q 0,1.34975 0.53129,1.92411 0.54564,0.57436 1.63692,0.57436 1.03385,0 1.9959,-0.61744 0.96205,-0.61744 1.52205,-1.50769 v -10.97026 h 3.21641 v 15.16308 h -2.77128 l -0.20103,-1.93846 q -0.84718,1.13435 -2.13949,1.73743 -1.2923,0.58872 -2.64205,0.58872 -2.21128,0 -3.2882,-1.20615 -1.07693,-1.22052 -1.07693,-3.34565 v -10.99897 z" id="path42656"/><path d="m 234.31636,154.91325 q 0.14359,2.34051 1.30666,3.38871 1.17744,1.04821 2.82872,1.04821 1.10564,0 2.05334,-0.34462 0.96205,-0.34461 1.9241,-0.97641 l 1.39282,1.92411 q -1.06257,0.86153 -2.4841,1.37846 -1.42154,0.51692 -3.04411,0.51692 -2.36923,0 -4.00615,-1.00513 -1.62256,-1.00513 -2.46974,-2.8 -0.83282,-1.79487 -0.83282,-4.14974 0,-2.28308 0.83282,-4.07795 0.83282,-1.80923 2.38359,-2.85744 1.55077,-1.06256 3.70461,-1.06256 3.01539,0 4.76718,2.02461 1.76615,2.02462 1.76615,5.55693 0,0.38769 -0.0287,0.77538 -0.0144,0.37334 -0.0431,0.66052 z m 3.61846,-6.63385 q -1.50769,0 -2.49846,1.07692 -0.99077,1.07693 -1.13436,3.36 h 7.02154 q -0.0431,-2.13949 -0.91898,-3.2882 -0.86154,-1.14872 -2.46974,-1.14872 z" id="path42658"/><path d="m 364.26517,148.37991 v 2.62769 h -11.88923 v -2.62769 z m 0,5.6718 v 2.62769 h -11.88923 v -2.62769 z" id="path42660"/><path d="m 400.00467,146.29786 -5.34154,15.16308 h -3.76205 l -5.34154,-15.16308 h 3.44615 l 3.84821,12.49231 3.86256,-12.49231 z" id="path42662"/><path d="m 415.54111,157.74196 q 0,0.90462 0.27282,1.30667 0.27282,0.40205 0.8759,0.60308 l -0.71795,2.18256 q -1.12,-0.12923 -1.93846,-0.61744 -0.8041,-0.4882 -1.20615,-1.47897 -0.83282,1.06256 -2.11077,1.59385 -1.27795,0.51692 -2.72821,0.51692 -2.31179,0 -3.64718,-1.29231 -1.33538,-1.30666 -1.33538,-3.41743 0,-2.39795 1.86666,-3.69026 1.86667,-1.29231 5.34154,-1.29231 h 2.16821 v -0.99077 q 0,-1.47897 -0.89026,-2.11077 -0.89026,-0.64615 -2.4841,-0.64615 -0.74667,0 -1.80923,0.20103 -1.06257,0.18666 -2.22564,0.58871 l -0.78975,-2.26871 q 1.42154,-0.53129 2.78564,-0.77539 1.36411,-0.25846 2.52718,-0.25846 3.04411,0 4.53744,1.34974 1.50769,1.34975 1.50769,3.73334 z m -6.57641,1.73744 q 0.97641,0 1.90975,-0.51692 0.93333,-0.51693 1.50769,-1.45026 v -3.34564 h -1.78052 q -2.26871,0 -3.24512,0.76102 -0.97641,0.74667 -0.97641,2.0677 0,2.4841 2.58461,2.4841 z" id="path42664"/><path d="m 421.32778,161.46094 v -2.29744 h 2.22564 v -10.58256 h -2.22564 v -2.28308 h 4.68103 l 0.58872,3.51795 q 0.84718,-1.90974 2.09641,-2.90051 1.26359,-1.00513 3.24513,-1.00513 0.67487,0 1.20615,0.11487 0.54564,0.10051 1.07692,0.27282 l -0.54564,5.58564 h -2.29743 v -3.08718 q -1.60821,0.0574 -2.77129,1.29231 -1.16307,1.22051 -1.83795,3.44615 v 5.62872 h 3.05847 v 2.29744 z" id="path42666"/><path d="m 437.29497,166.71632 v -2.65641 h 14.35897 v 2.65641 z" id="path42668"/><path d="m 460.84369,141.2435 q 1.96718,0 3.38872,0.68923 1.42154,0.68923 2.18256,1.82359 0.76103,1.13436 0.76103,2.49846 0,1.83795 -1.13436,3.05847 -1.12,1.22051 -2.8,1.6082 1.23487,0.12923 2.26872,0.68923 1.0482,0.56 1.66564,1.59385 0.63179,1.03384 0.63179,2.59897 0,1.69436 -0.89025,3.07282 -0.89026,1.3641 -2.49847,2.16821 -1.6082,0.8041 -3.79076,0.8041 -1.86667,0 -3.56103,-0.68923 -1.68,-0.68923 -2.85744,-2.08205 l 1.96718,-1.72308 q 0.84718,0.99077 1.96718,1.46462 1.13436,0.47384 2.34052,0.47384 1.83794,0 2.91487,-0.94769 1.07692,-0.96205 1.07692,-2.65641 0,-1.9241 -1.06256,-2.68513 -1.06257,-0.77538 -2.75693,-0.77538 h -1.70871 l 0.37333,-2.36923 h 1.20615 q 1.39282,0 2.42667,-0.76103 1.0482,-0.77538 1.0482,-2.36923 0,-1.4359 -0.99076,-2.21128 -0.97642,-0.78975 -2.42667,-0.78975 -1.24923,0 -2.21128,0.45949 -0.96205,0.45949 -1.89539,1.32103 l -1.70872,-1.82359 q 1.30667,-1.23487 2.82872,-1.83795 1.52205,-0.60308 3.24513,-0.60308 z" id="path42670"/><path d="m 483.416,149.09786 v 5.29846 h 2.35487 v 2.49846 H 483.416 v 4.56616 h -3.08718 l -0.0144,-4.56616 h -8.22769 v -2.24 l 5.70051,-13.41128 2.71385,1.07692 -5.05436,12.0759 h 4.88205 l 0.3877,-5.29846 z" id="path42672"/><path d="m 497.41604,159.20658 q 1.06256,0 1.98154,-0.37333 0.91897,-0.37334 1.75179,-0.9477 l 1.49333,2.0677 q -0.99077,0.84717 -2.4123,1.37846 -1.40718,0.51692 -2.91488,0.51692 -2.32615,0 -3.99179,-0.97641 -1.65128,-0.99077 -2.52718,-2.75692 -0.86154,-1.78052 -0.86154,-4.16411 0,-2.31179 0.8759,-4.12102 0.89026,-1.82359 2.5559,-2.8718 1.66564,-1.06256 4.00615,-1.06256 3.0441,0 5.25539,1.82359 l -1.47898,2.02461 q -0.89026,-0.61743 -1.82359,-0.93333 -0.93333,-0.33026 -1.89538,-0.33026 -1.80923,0 -2.94359,1.32103 -1.13436,1.32103 -1.13436,4.14974 0,2.84308 1.14872,4.04923 1.14871,1.20616 2.91487,1.20616 z" id="path42674"/><path d="m 532.07861,137.30914 5.42769,9.01744 h -3.30256 l -3.6041,-6.38975 -3.54667,6.38975 h -3.30256 l 5.42769,-9.01744 z" id="path42676"/><path d="m 572.3125,146.29786 -5.34154,15.16308 h -3.76205 l -5.34154,-15.16308 h 3.44615 l 3.84821,12.49231 3.86256,-12.49231 z" id="path42678"/><path d="m 587.84891,157.74196 q 0,0.90462 0.27282,1.30667 0.27282,0.40205 0.8759,0.60308 l -0.71795,2.18256 q -1.12,-0.12923 -1.93846,-0.61744 -0.8041,-0.4882 -1.20615,-1.47897 -0.83282,1.06256 -2.11077,1.59385 -1.27795,0.51692 -2.72821,0.51692 -2.31179,0 -3.64718,-1.29231 -1.33538,-1.30666 -1.33538,-3.41743 0,-2.39795 1.86666,-3.69026 1.86667,-1.29231 5.34154,-1.29231 h 2.16821 v -0.99077 q 0,-1.47897 -0.89026,-2.11077 -0.89026,-0.64615 -2.4841,-0.64615 -0.74667,0 -1.80923,0.20103 -1.06257,0.18666 -2.22564,0.58871 l -0.78975,-2.26871 q 1.42154,-0.53129 2.78564,-0.77539 1.36411,-0.25846 2.52718,-0.25846 3.04411,0 4.53744,1.34974 1.50769,1.34975 1.50769,3.73334 z m -6.57641,1.73744 q 0.97641,0 1.90975,-0.51692 0.93333,-0.51693 1.50769,-1.45026 v -3.34564 h -1.78052 q -2.26871,0 -3.24512,0.76102 -0.97641,0.74667 -0.97641,2.0677 0,2.4841 2.58461,2.4841 z" id="path42680"/><path d="m 593.63558,161.46094 v -2.29744 h 2.22564 v -10.58256 h -2.22564 v -2.28308 h 4.68103 l 0.58872,3.51795 q 0.84718,-1.90974 2.09641,-2.90051 1.26359,-1.00513 3.24513,-1.00513 0.67487,0 1.20615,0.11487 0.54564,0.10051 1.07692,0.27282 l -0.54564,5.58564 h -2.29743 v -3.08718 q -1.60821,0.0574 -2.77129,1.29231 -1.16307,1.22051 -1.83795,3.44615 v 5.62872 h 3.05847 v 2.29744 z" id="path42682"/><path d="m 609.60277,166.71632 v -2.65641 h 14.35897 v 2.65641 z" id="path42684"/><path d="m 633.15149,141.2435 q 1.96718,0 3.38872,0.68923 1.42154,0.68923 2.18256,1.82359 0.76103,1.13436 0.76103,2.49846 0,1.83795 -1.13436,3.05847 -1.12,1.22051 -2.8,1.6082 1.23487,0.12923 2.26872,0.68923 1.0482,0.56 1.66564,1.59385 0.63179,1.03384 0.63179,2.59897 0,1.69436 -0.89025,3.07282 -0.89026,1.3641 -2.49847,2.16821 -1.6082,0.8041 -3.79076,0.8041 -1.86667,0 -3.56103,-0.68923 -1.68,-0.68923 -2.85744,-2.08205 l 1.96718,-1.72308 q 0.84718,0.99077 1.96718,1.46462 1.13436,0.47384 2.34052,0.47384 1.83794,0 2.91487,-0.94769 1.07692,-0.96205 1.07692,-2.65641 0,-1.9241 -1.06256,-2.68513 -1.06257,-0.77538 -2.75693,-0.77538 h -1.70871 l 0.37333,-2.36923 h 1.20615 q 1.39282,0 2.42667,-0.76103 1.0482,-0.77538 1.0482,-2.36923 0,-1.4359 -0.99076,-2.21128 -0.97641,-0.78975 -2.42667,-0.78975 -1.24923,0 -2.21128,0.45949 -0.96205,0.45949 -1.89539,1.32103 l -1.70872,-1.82359 q 1.30667,-1.23487 2.82872,-1.83795 1.52205,-0.60308 3.24513,-0.60308 z" id="path42686"/><path d="m 651.01406,141.27222 q 3.38872,0 5.08308,2.19692 1.69435,2.18257 1.69435,5.82975 0,2.94359 -0.66051,5.06871 -0.64615,2.11077 -2.01025,3.58975 -1.34975,1.47897 -3.46052,2.4841 -2.09641,1.00513 -5.01128,1.72308 l -0.70359,-2.35487 q 3.90564,-1.04821 5.97333,-2.75693 2.0677,-1.72307 2.45539,-4.7959 -0.8759,0.9477 -1.95282,1.52206 -1.07692,0.57436 -2.4841,0.57436 -1.62257,0 -2.90052,-0.76103 -1.26359,-0.77539 -2.01025,-2.19692 -0.73231,-1.42154 -0.73231,-3.37436 0,-2.13949 0.89026,-3.64718 0.89025,-1.50769 2.4123,-2.29744 1.53641,-0.8041 3.41744,-0.8041 z m -3.44615,6.74872 q 0,2.09641 0.86153,3.01538 0.8759,0.91898 2.3118,0.91898 1.13436,0 2.02461,-0.53129 0.89026,-0.53128 1.69436,-1.47897 -0.0144,-3.31692 -0.8041,-4.76718 -0.77538,-1.46461 -2.65641,-1.46461 -1.66564,0 -2.5559,1.07692 -0.87589,1.07692 -0.87589,3.23077 z" id="path42688"/><path d="m 669.72387,159.20658 q 1.06256,0 1.98154,-0.37333 0.91897,-0.37334 1.75179,-0.9477 l 1.49333,2.0677 q -0.99076,0.84717 -2.4123,1.37846 -1.40718,0.51692 -2.91487,0.51692 -2.32616,0 -3.9918,-0.97641 -1.65128,-0.99077 -2.52718,-2.75692 -0.86154,-1.78052 -0.86154,-4.16411 0,-2.31179 0.8759,-4.12102 0.89026,-1.82359 2.5559,-2.8718 1.66564,-1.06256 4.00615,-1.06256 3.0441,0 5.25539,1.82359 l -1.47898,2.02461 q -0.89025,-0.61743 -1.82359,-0.93333 -0.93333,-0.33026 -1.89538,-0.33026 -1.80923,0 -2.94359,1.32103 -1.13436,1.32103 -1.13436,4.14974 0,2.84308 1.14872,4.04923 1.14871,1.20616 2.91487,1.20616 z" id="path42690"/><path d="m 704.32901,145.43632 v 5.78667 h 5.70051 v 2.58461 h -5.70051 v 5.77231 h -2.82872 v -5.77231 h -5.65744 v -2.58461 h 5.65744 v -5.78667 z" id="path42692"/><path d="m 741.87773,149.09786 v 5.29846 h 2.35488 v 2.49846 h -2.35488 v 4.56616 h -3.08718 l -0.0144,-4.56616 h -8.22769 v -2.24 l 5.70052,-13.41128 2.71384,1.07692 -5.05436,12.0759 h 4.88205 l 0.3877,-5.29846 z" id="path42694"/><path d="m 32.184928,194.20658 q 1.062564,0 1.981538,-0.37333 0.918975,-0.37334 1.751795,-0.9477 l 1.493334,2.0677 q -0.99077,0.84717 -2.412308,1.37846 -1.40718,0.51692 -2.914872,0.51692 -2.326154,0 -3.991795,-0.97641 -1.651282,-0.99077 -2.527179,-2.75692 -0.861539,-1.78052 -0.861539,-4.16411 0,-2.31179 0.875898,-4.12102 0.890256,-1.82359 2.555897,-2.8718 1.665641,-1.06256 4.006154,-1.06256 3.044103,0 5.255385,1.82359 l -1.478975,2.02461 q -0.890256,-0.61743 -1.82359,-0.93333 -0.933333,-0.33026 -1.895384,-0.33026 -1.809231,0 -2.94359,1.32103 -1.134359,1.32103 -1.134359,4.14974 0,2.84308 1.148718,4.04923 1.148718,1.20616 2.914872,1.20616 z" id="path42696"/><path d="m 48.180838,180.89581 q 3.331282,0 5.083077,2.1682 1.751794,2.16821 1.751794,5.78667 0,2.41231 -0.804102,4.20718 -0.789744,1.79487 -2.326154,2.8 -1.522051,0.99077 -3.718974,0.99077 -3.316923,0 -5.083077,-2.13949 -1.766154,-2.15384 -1.766154,-5.82974 0,-2.35487 0.789743,-4.14974 0.804103,-1.80924 2.340513,-2.81436 1.536411,-1.01949 3.733334,-1.01949 z m 0,2.49846 q -1.737436,0 -2.613334,1.33539 -0.875897,1.32102 -0.875897,4.14974 0,2.82872 0.861538,4.1641 0.875898,1.32103 2.613334,1.32103 1.737436,0 2.598974,-1.33539 0.875897,-1.33538 0.875897,-4.17846 0,-2.8 -0.861538,-4.12102 -0.861538,-1.33539 -2.598974,-1.33539 z" id="path42698"/><path d="m 59.337773,196.46094 v -15.16308 h 2.771282 l 0.244103,1.96718 q 0.947692,-1.14872 2.24,-1.75179 1.292307,-0.61744 2.65641,-0.61744 2.125128,0 3.173333,1.19179 1.062564,1.1918 1.062564,3.31693 v 11.05641 h -3.21641 v -9.46257 q 0,-1.96718 -0.402051,-2.8 -0.387692,-0.84718 -1.766154,-0.84718 -1.105641,0 -2.024615,0.68923 -0.904616,0.67488 -1.522052,1.53641 v 10.88411 z" id="path42700"/><path d="m 82.082401,194.37889 q 1.507692,0 2.397948,-0.53129 0.890257,-0.54564 0.890257,-1.49333 0,-0.61744 -0.258462,-1.0482 -0.258461,-0.43077 -1.033846,-0.80411 -0.775384,-0.37333 -2.354872,-0.77538 -1.493333,-0.38769 -2.627692,-0.91898 -1.12,-0.53128 -1.737436,-1.37846 -0.617436,-0.84718 -0.617436,-2.18256 0,-1.95282 1.622564,-3.14462 1.636923,-1.20615 4.436923,-1.20615 1.909744,0 3.331283,0.50256 1.421538,0.50257 2.426666,1.24923 l -1.349743,2.02462 q -0.890257,-0.58872 -1.952821,-0.96205 -1.048205,-0.37334 -2.369231,-0.37334 -1.53641,0 -2.211282,0.45949 -0.660513,0.45949 -0.660513,1.22051 0,0.57436 0.330257,0.9477 0.344615,0.37333 1.177436,0.70359 0.83282,0.33025 2.354872,0.74666 1.478974,0.40205 2.570256,0.9477 1.105641,0.54564 1.708718,1.45025 0.617436,0.89026 0.617436,2.32616 0,1.63692 -0.947693,2.68512 -0.947692,1.03385 -2.469743,1.53641 -1.522051,0.48821 -3.273846,0.48821 -2.110769,0 -3.64718,-0.60308 -1.53641,-0.61743 -2.584615,-1.53641 l 1.708718,-1.95282 q 0.890256,0.71795 2.038974,1.17744 1.148718,0.44513 2.484103,0.44513 z" id="path42702"/><path d="m 106.46395,195.65683 q -0.83282,0.53129 -1.9959,0.86154 -1.16307,0.33026 -2.42666,0.33026 -2.642054,0 -4.020515,-1.3641 -1.364103,-1.37846 -1.364103,-3.61846 v -8.2277 h -3.374359 v -2.34051 h 3.374359 v -3.38872 l 3.21641,-0.38769 v 3.77641 h 5.111798 l -0.35898,2.34051 h -4.752818 v 8.19898 q 0,1.22051 0.603078,1.82359 0.61744,0.58872 2.01026,0.58872 0.83282,0 1.52205,-0.20103 0.70359,-0.20103 1.2923,-0.51692 z" id="path42704"/><path d="m 135.56962,194.20658 q 1.06256,0 1.98154,-0.37333 0.91897,-0.37334 1.75179,-0.9477 l 1.49333,2.0677 q -0.99077,0.84717 -2.4123,1.37846 -1.40718,0.51692 -2.91488,0.51692 -2.32615,0 -3.99179,-0.97641 -1.65128,-0.99077 -2.52718,-2.75692 -0.86154,-1.78052 -0.86154,-4.16411 0,-2.31179 0.8759,-4.12102 0.89026,-1.82359 2.5559,-2.8718 1.66564,-1.06256 4.00615,-1.06256 3.0441,0 5.25538,1.82359 l -1.47897,2.02461 q -0.89026,-0.61743 -1.82359,-0.93333 -0.93333,-0.33026 -1.89538,-0.33026 -1.80923,0 -2.94359,1.32103 -1.13436,1.32103 -1.13436,4.14974 0,2.84308 1.14872,4.04923 1.14871,1.20616 2.91487,1.20616 z" id="path42706"/><path d="m 148.70809,174.89376 v 8.25641 q 0.91898,-1.12 2.13949,-1.68 1.23487,-0.57436 2.5559,-0.57436 2.13948,0 3.18769,1.19179 1.0482,1.1918 1.0482,3.31693 v 11.05641 h -3.21641 v -10.55385 q 0,-1.3641 -0.51692,-1.95282 -0.51692,-0.60308 -1.66564,-0.60308 -1.07692,0 -1.9959,0.70359 -0.91897,0.68923 -1.53641,1.56513 v 10.84103 h -3.21641 v -21.22257 z" id="path42708"/><path d="m 174.31015,192.74196 q 0,0.90462 0.27283,1.30667 0.27282,0.40205 0.87589,0.60308 l -0.71795,2.18256 q -1.12,-0.12923 -1.93846,-0.61744 -0.8041,-0.4882 -1.20615,-1.47897 -0.83282,1.06256 -2.11077,1.59385 -1.27795,0.51692 -2.72821,0.51692 -2.31179,0 -3.64718,-1.29231 -1.33538,-1.30666 -1.33538,-3.41743 0,-2.39795 1.86667,-3.69026 1.86666,-1.29231 5.34154,-1.29231 h 2.1682 v -0.99077 q 0,-1.47897 -0.89026,-2.11077 -0.89025,-0.64615 -2.4841,-0.64615 -0.74667,0 -1.80923,0.20103 -1.06256,0.18666 -2.22564,0.58871 l -0.78974,-2.26871 q 1.42153,-0.53129 2.78564,-0.77539 1.3641,-0.25846 2.52718,-0.25846 3.0441,0 4.53743,1.34974 1.50769,1.34975 1.50769,3.73334 z m -6.57641,1.73744 q 0.97641,0 1.90975,-0.51692 0.93333,-0.51693 1.50769,-1.45026 v -3.34564 h -1.78051 q -2.26872,0 -3.24513,0.76102 -0.97641,0.74667 -0.97641,2.0677 0,2.4841 2.58461,2.4841 z" id="path42710"/><path d="m 180.09683,196.46094 v -2.29744 h 2.22564 v -10.58256 h -2.22564 v -2.28308 h 4.68102 l 0.58872,3.51795 q 0.84718,-1.90974 2.09641,-2.90051 1.26359,-1.00513 3.24513,-1.00513 0.67487,0 1.20615,0.11487 0.54564,0.10051 1.07693,0.27282 l -0.54565,5.58564 h -2.29743 v -3.08718 q -1.60821,0.0574 -2.77128,1.29231 -1.16308,1.22051 -1.83795,3.44615 v 5.62872 h 3.05846 v 2.29744 z" id="path42712"/><path d="m 201.66403,180.83837 h 3.15897 l -0.35897,5.6718 5.26974,-2.06769 0.96205,2.95794 -5.48513,1.42154 3.6041,4.39385 -2.51282,1.80923 -3.05846,-4.76718 -3.05846,4.76718 -2.51282,-1.80923 3.6041,-4.39385 -5.48513,-1.42154 0.96206,-2.95794 5.26974,2.06769 z" id="path42714"/><path d="m 239.04046,180.89581 q 2.01026,0 3.21641,0.99077 1.20615,0.97641 1.7518,2.77128 0.54564,1.78051 0.54564,4.19282 0,2.3118 -0.66052,4.12103 -0.66051,1.80923 -1.96718,2.84307 -1.2923,1.03385 -3.21641,1.03385 -2.38359,0 -3.8482,-1.68 v 7.12205 l -3.21641,0.35898 v -21.3518 h 2.8 l 0.20102,1.95282 q 0.86154,-1.16308 1.9959,-1.75179 1.13436,-0.60308 2.39795,-0.60308 z m -0.89026,2.4841 q -1.07692,0 -1.90974,0.64616 -0.81846,0.64615 -1.37846,1.52205 v 7.09333 q 1.13436,1.69436 3.00102,1.69436 1.62257,0 2.46975,-1.30667 0.84718,-1.30666 0.84718,-4.1641 0,-2.91487 -0.76103,-4.19282 -0.74666,-1.29231 -2.26872,-1.29231 z" id="path42716"/><path d="m 260.46405,192.74196 q 0,0.90462 0.27283,1.30667 0.27282,0.40205 0.87589,0.60308 l -0.71795,2.18256 q -1.12,-0.12923 -1.93846,-0.61744 -0.8041,-0.4882 -1.20615,-1.47897 -0.83282,1.06256 -2.11077,1.59385 -1.27795,0.51692 -2.72821,0.51692 -2.31179,0 -3.64718,-1.29231 -1.33538,-1.30666 -1.33538,-3.41743 0,-2.39795 1.86667,-3.69026 1.86666,-1.29231 5.34154,-1.29231 h 2.1682 v -0.99077 q 0,-1.47897 -0.89026,-2.11077 -0.89025,-0.64615 -2.4841,-0.64615 -0.74667,0 -1.80923,0.20103 -1.06256,0.18666 -2.22564,0.58871 l -0.78974,-2.26871 q 1.42153,-0.53129 2.78564,-0.77539 1.3641,-0.25846 2.52718,-0.25846 3.0441,0 4.53743,1.34974 1.50769,1.34975 1.50769,3.73334 z m -6.57641,1.73744 q 0.97641,0 1.90975,-0.51692 0.93333,-0.51693 1.50769,-1.45026 v -3.34564 h -1.78051 q -2.26872,0 -3.24513,0.76102 -0.97641,0.74667 -0.97641,2.0677 0,2.4841 2.58461,2.4841 z" id="path42718"/><path d="m 271.621,194.37889 q 1.50769,0 2.39795,-0.53129 0.89025,-0.54564 0.89025,-1.49333 0,-0.61744 -0.25846,-1.0482 -0.25846,-0.43077 -1.03384,-0.80411 -0.77539,-0.37333 -2.35488,-0.77538 -1.49333,-0.38769 -2.62769,-0.91898 -1.12,-0.53128 -1.73743,-1.37846 -0.61744,-0.84718 -0.61744,-2.18256 0,-1.95282 1.62256,-3.14462 1.63693,-1.20615 4.43693,-1.20615 1.90974,0 3.33128,0.50256 1.42154,0.50257 2.42667,1.24923 l -1.34975,2.02462 q -0.89025,-0.58872 -1.95282,-0.96205 -1.0482,-0.37334 -2.36923,-0.37334 -1.53641,0 -2.21128,0.45949 -0.66051,0.45949 -0.66051,1.22051 0,0.57436 0.33025,0.9477 0.34462,0.37333 1.17744,0.70359 0.83282,0.33025 2.35487,0.74666 1.47897,0.40205 2.57026,0.9477 1.10564,0.54564 1.70871,1.45025 0.61744,0.89026 0.61744,2.32616 0,1.63692 -0.94769,2.68512 -0.94769,1.03385 -2.46975,1.53641 -1.52205,0.48821 -3.27384,0.48821 -2.11077,0 -3.64718,-0.60308 -1.53641,-0.61743 -2.58462,-1.53641 l 1.70872,-1.95282 q 0.89026,0.71795 2.03898,1.17744 1.14871,0.44513 2.4841,0.44513 z" id="path42720"/><path d="m 288.85179,194.37889 q 1.50769,0 2.39795,-0.53129 0.89025,-0.54564 0.89025,-1.49333 0,-0.61744 -0.25846,-1.0482 -0.25846,-0.43077 -1.03385,-0.80411 -0.77538,-0.37333 -2.35487,-0.77538 -1.49333,-0.38769 -2.62769,-0.91898 -1.12,-0.53128 -1.73744,-1.37846 -0.61743,-0.84718 -0.61743,-2.18256 0,-1.95282 1.62256,-3.14462 1.63693,-1.20615 4.43693,-1.20615 1.90974,0 3.33128,0.50256 1.42154,0.50257 2.42666,1.24923 l -1.34974,2.02462 q -0.89026,-0.58872 -1.95282,-0.96205 -1.0482,-0.37334 -2.36923,-0.37334 -1.53641,0 -2.21128,0.45949 -0.66052,0.45949 -0.66052,1.22051 0,0.57436 0.33026,0.9477 0.34462,0.37333 1.17744,0.70359 0.83282,0.33025 2.35487,0.74666 1.47897,0.40205 2.57026,0.9477 1.10564,0.54564 1.70871,1.45025 0.61744,0.89026 0.61744,2.32616 0,1.63692 -0.94769,2.68512 -0.9477,1.03385 -2.46975,1.53641 -1.52205,0.48821 -3.27384,0.48821 -2.11077,0 -3.64718,-0.60308 -1.53641,-0.61743 -2.58462,-1.53641 l 1.70872,-1.95282 q 0.89026,0.71795 2.03897,1.17744 1.14872,0.44513 2.48411,0.44513 z" id="path42722"/><path d="m 312.42923,196.46094 h -4.02052 L 306.7,185.69171 l -1.83795,10.76923 h -3.93436 l -2.57026,-15.16308 h 3.10154 l 1.57949,13.16718 2.11077,-11.24308 h 3.21641 l 1.96718,11.24308 1.57948,-13.16718 h 2.98667 z" id="path42724"/><path d="m 326.70205,174.85068 3.21641,0.35898 v 21.25128 h -2.82871 L 326.86,194.59427 q -0.77538,1.07692 -1.85231,1.66564 -1.07692,0.58872 -2.4123,0.58872 -1.95282,0 -3.21641,-0.99077 -1.24923,-1.00513 -1.86667,-2.8 -0.61744,-1.79487 -0.61744,-4.17846 0,-2.3118 0.71795,-4.10667 0.71795,-1.80923 2.05334,-2.84307 1.33538,-1.03385 3.21641,-1.03385 2.34051,0 3.81948,1.65128 z m -2.9723,8.51487 q -1.62257,0 -2.52718,1.34975 -0.90462,1.33538 -0.90462,4.1641 0,2.90051 0.81846,4.20718 0.83282,1.29231 2.32616,1.29231 1.09128,0 1.89538,-0.6318 0.8041,-0.63179 1.3641,-1.52205 v -7.17949 q -0.56,-0.8041 -1.30666,-1.23487 -0.74667,-0.44513 -1.66564,-0.44513 z" id="path42726"/><path d="m 364.26517,183.37991 v 2.62769 h -11.88923 v -2.62769 z m 0,5.6718 v 2.62769 h -11.88923 v -2.62769 z" id="path42728"/><path d="m 390.80056,186.40966 q 0,2.75692 0.60308,4.83897 0.61744,2.08205 1.90974,3.90564 1.30667,1.82359 3.36,3.79077 l -1.78051,1.72308 q -2.31179,-1.90975 -3.97743,-3.97744 -1.65129,-2.06769 -2.54154,-4.55179 -0.89026,-2.49847 -0.89026,-5.72923 0,-3.23077 0.89026,-5.71488 0.89025,-2.49846 2.54154,-4.56615 1.66564,-2.06769 3.97743,-3.97744 l 1.78051,1.72308 q -2.01025,1.93846 -3.31692,3.76205 -1.30667,1.80923 -1.93846,3.90564 -0.61744,2.09641 -0.61744,4.8677 z" id="path42730"/><path d="m 406.62419,189.91325 q 0.14359,2.34051 1.30667,3.38871 1.17743,1.04821 2.82871,1.04821 1.10564,0 2.05334,-0.34462 0.96205,-0.34461 1.9241,-0.97641 l 1.39282,1.92411 q -1.06256,0.86153 -2.4841,1.37846 -1.42154,0.51692 -3.04411,0.51692 -2.36923,0 -4.00615,-1.00513 -1.62256,-1.00513 -2.46974,-2.8 -0.83282,-1.79487 -0.83282,-4.14974 0,-2.28308 0.83282,-4.07795 0.83282,-1.80923 2.38359,-2.85744 1.55077,-1.06256 3.70461,-1.06256 3.01539,0 4.76718,2.02461 1.76616,2.02462 1.76616,5.55693 0,0.38769 -0.0287,0.77538 -0.0144,0.37334 -0.0431,0.66052 z m 3.61846,-6.63385 q -1.50769,0 -2.49846,1.07692 -0.99077,1.07693 -1.13436,3.36 h 7.02154 q -0.0431,-2.13949 -0.91898,-3.2882 -0.86153,-1.14872 -2.46974,-1.14872 z" id="path42732"/><path d="m 421.18419,196.46094 v -15.16308 h 2.77129 l 0.2441,1.96718 q 0.94769,-1.14872 2.24,-1.75179 1.29231,-0.61744 2.65641,-0.61744 2.12513,0 3.17333,1.19179 1.06257,1.1918 1.06257,3.31693 v 11.05641 h -3.21641 v -9.46257 q 0,-1.96718 -0.40206,-2.8 -0.38769,-0.84718 -1.76615,-0.84718 -1.10564,0 -2.02462,0.68923 -0.90461,0.67488 -1.52205,1.53641 v 10.88411 z" id="path42734"/><path d="m 451.69702,181.29786 -5.34154,15.16308 h -3.76205 l -5.34154,-15.16308 h 3.44615 l 3.84821,12.49231 3.86256,-12.49231 z" id="path42736"/><path d="m 458.07241,199.84966 v -26.88 h 7.82564 v 2.57025 h -4.7959 v 21.76821 h 4.7959 v 2.54154 z" id="path42738"/><path d="m 478.95036,180.89581 q 3.33128,0 5.08308,2.1682 1.75179,2.16821 1.75179,5.78667 0,2.41231 -0.8041,4.20718 -0.78974,1.79487 -2.32615,2.8 -1.52205,0.99077 -3.71898,0.99077 -3.31692,0 -5.08307,-2.13949 -1.76616,-2.15384 -1.76616,-5.82974 0,-2.35487 0.78975,-4.14974 0.8041,-1.80924 2.34051,-2.81436 1.53641,-1.01949 3.73333,-1.01949 z m 0,2.49846 q -1.73743,0 -2.61333,1.33539 -0.8759,1.32102 -0.8759,4.14974 0,2.82872 0.86154,4.1641 0.8759,1.32103 2.61333,1.32103 1.73744,0 2.59898,-1.33539 0.87589,-1.33538 0.87589,-4.17846 0,-2.8 -0.86153,-4.12102 -0.86154,-1.33539 -2.59898,-1.33539 z" id="path42740"/><path d="m 497.50219,180.89581 q 2.01026,0 3.21641,0.99077 1.20616,0.97641 1.7518,2.77128 0.54564,1.78051 0.54564,4.19282 0,2.3118 -0.66052,4.12103 -0.66051,1.80923 -1.96717,2.84307 -1.29231,1.03385 -3.21642,1.03385 -2.38358,0 -3.8482,-1.68 v 7.12205 l -3.21641,0.35898 v -21.3518 h 2.8 l 0.20103,1.95282 q 0.86153,-1.16308 1.99589,-1.75179 1.13436,-0.60308 2.39795,-0.60308 z m -0.89026,2.4841 q -1.07692,0 -1.90974,0.64616 -0.81846,0.64615 -1.37846,1.52205 v 7.09333 q 1.13436,1.69436 3.00103,1.69436 1.62256,0 2.46974,-1.30667 0.84718,-1.30666 0.84718,-4.1641 0,-2.91487 -0.76103,-4.19282 -0.74666,-1.29231 -2.26872,-1.29231 z" id="path42742"/><path d="m 518.92579,192.74196 q 0,0.90462 0.27282,1.30667 0.27282,0.40205 0.87589,0.60308 l -0.71794,2.18256 q -1.12,-0.12923 -1.93847,-0.61744 -0.8041,-0.4882 -1.20615,-1.47897 -0.83282,1.06256 -2.11077,1.59385 -1.27795,0.51692 -2.7282,0.51692 -2.3118,0 -3.64718,-1.29231 -1.33539,-1.30666 -1.33539,-3.41743 0,-2.39795 1.86667,-3.69026 1.86666,-1.29231 5.34154,-1.29231 h 2.1682 v -0.99077 q 0,-1.47897 -0.89025,-2.11077 -0.89026,-0.64615 -2.48411,-0.64615 -0.74666,0 -1.80923,0.20103 -1.06256,0.18666 -2.22564,0.58871 l -0.78974,-2.26871 q 1.42154,-0.53129 2.78564,-0.77539 1.3641,-0.25846 2.52718,-0.25846 3.0441,0 4.53743,1.34974 1.5077,1.34975 1.5077,3.73334 z m -6.57641,1.73744 q 0.97641,0 1.90974,-0.51692 0.93333,-0.51693 1.50769,-1.45026 v -3.34564 h -1.78051 q -2.26872,0 -3.24513,0.76102 -0.97641,0.74667 -0.97641,2.0677 0,2.4841 2.58462,2.4841 z" id="path42744"/><path d="m 529.6663,180.89581 q 2.52718,0 4.04923,1.88102 l 0.20103,-1.47897 h 2.77128 v 21.3518 l -3.21641,-0.35898 v -7.49538 q -1.56513,2.05333 -4.12102,2.05333 -2.01026,0 -3.23077,-0.99077 -1.22052,-0.99077 -1.78052,-2.78564 -0.56,-1.79487 -0.56,-4.19282 0,-2.3118 0.67488,-4.10667 0.68923,-1.80923 1.99589,-2.84307 1.32103,-1.03385 3.21641,-1.03385 z m 0.83282,2.46974 q -1.65128,0 -2.49846,1.34975 -0.84718,1.33538 -0.84718,4.1641 0,2.90051 0.77539,4.17846 0.78974,1.27795 2.28307,1.27795 1.07693,0 1.88103,-0.60308 0.81846,-0.61743 1.37846,-1.50769 v -7.17949 q -0.53128,-0.8041 -1.29231,-1.23487 -0.76102,-0.44513 -1.68,-0.44513 z" id="path42746"/><path d="m 545.01608,181.29786 v 10.59692 q 0,1.34975 0.53128,1.92411 0.54565,0.57436 1.63693,0.57436 1.03384,0 1.99589,-0.61744 0.96206,-0.61744 1.52206,-1.50769 v -10.97026 h 3.21641 v 15.16308 h -2.77129 l -0.20102,-1.93846 q -0.84718,1.13435 -2.13949,1.73743 -1.29231,0.58872 -2.64205,0.58872 -2.21128,0 -3.28821,-1.20615 -1.07692,-1.22052 -1.07692,-3.34565 v -10.99897 z" id="path42748"/><path d="m 561.70122,189.91325 q 0.14358,2.34051 1.30666,3.38871 1.17744,1.04821 2.82872,1.04821 1.10564,0 2.05333,-0.34462 0.96205,-0.34461 1.92411,-0.97641 l 1.39282,1.92411 q -1.06257,0.86153 -2.48411,1.37846 -1.42153,0.51692 -3.0441,0.51692 -2.36923,0 -4.00615,-1.00513 -1.62257,-1.00513 -2.46975,-2.8 -0.83282,-1.79487 -0.83282,-4.14974 0,-2.28308 0.83282,-4.07795 0.83282,-1.80923 2.38359,-2.85744 1.55077,-1.06256 3.70462,-1.06256 3.01538,0 4.76718,2.02461 1.76615,2.02462 1.76615,5.55693 0,0.38769 -0.0287,0.77538 -0.0144,0.37334 -0.0431,0.66052 z m 3.61846,-6.63385 q -1.5077,0 -2.49846,1.07692 -0.99077,1.07693 -1.13436,3.36 h 7.02153 q -0.0431,-2.13949 -0.91897,-3.2882 -0.86154,-1.14872 -2.46974,-1.14872 z" id="path42750"/><path d="m 585.95353,172.96966 v 26.88 h -7.82564 v -2.54154 h 4.79589 v -21.76821 h -4.79589 v -2.57025 z" id="path42752"/><path d="m 601.53302,186.40966 q 0,-2.77129 -0.6318,-4.8677 -0.61743,-2.09641 -1.9241,-3.90564 -1.30666,-1.82359 -3.31692,-3.76205 l 1.78051,-1.72308 q 2.3118,1.90975 3.96308,3.97744 1.66564,2.06769 2.5559,4.56615 0.89025,2.48411 0.89025,5.71488 0,3.23076 -0.89025,5.72923 -0.89026,2.4841 -2.5559,4.55179 -1.65128,2.06769 -3.96308,3.97744 l -1.78051,-1.72308 q 2.05333,-1.96718 3.34564,-3.79077 1.30667,-1.82359 1.90974,-3.90564 0.61744,-2.08205 0.61744,-4.83897 z" id="path42754"/><path d="m 614.80072,186.40966 q 0,2.75692 0.60307,4.83897 0.61744,2.08205 1.90975,3.90564 1.30666,1.82359 3.36,3.79077 l -1.78052,1.72308 q -2.31179,-1.90975 -3.97743,-3.97744 -1.65128,-2.06769 -2.54154,-4.55179 -0.89026,-2.49847 -0.89026,-5.72923 0,-3.23077 0.89026,-5.71488 0.89026,-2.49846 2.54154,-4.56615 1.66564,-2.06769 3.97743,-3.97744 l 1.78052,1.72308 q -2.01026,1.93846 -3.31693,3.76205 -1.30666,1.80923 -1.93846,3.90564 -0.61743,2.09641 -0.61743,4.8677 z" id="path42756"/><path d="m 635.96585,173.87427 q 0.93333,0 1.52205,0.57436 0.58872,0.57436 0.58872,1.4359 0,0.86154 -0.58872,1.45025 -0.58872,0.58872 -1.52205,0.58872 -0.93333,0 -1.52205,-0.58872 -0.57436,-0.58871 -0.57436,-1.45025 0,-0.86154 0.57436,-1.4359 0.58872,-0.57436 1.52205,-0.57436 z m 2.51282,7.42359 v 11.97539 q 0,2.82871 -1.17744,4.69538 -1.17743,1.86667 -3.43179,2.98667 -2.25436,1.12 -5.48513,1.69436 l -0.51692,-2.46975 q 2.25436,-0.43077 3.92,-1.19179 1.66564,-0.76103 2.57025,-2.08205 0.90462,-1.32103 0.90462,-3.41744 v -9.8359 h -5.98769 v -2.35487 z" id="path42758"/><path d="m 650.69816,194.37889 q 1.50769,0 2.39795,-0.53129 0.89026,-0.54564 0.89026,-1.49333 0,-0.61744 -0.25846,-1.0482 -0.25847,-0.43077 -1.03385,-0.80411 -0.77539,-0.37333 -2.35487,-0.77538 -1.49334,-0.38769 -2.6277,-0.91898 -1.12,-0.53128 -1.73743,-1.37846 -0.61744,-0.84718 -0.61744,-2.18256 0,-1.95282 1.62257,-3.14462 1.63692,-1.20615 4.43692,-1.20615 1.90974,0 3.33128,0.50256 1.42154,0.50257 2.42667,1.24923 l -1.34974,2.02462 q -0.89026,-0.58872 -1.95283,-0.96205 -1.0482,-0.37334 -2.36923,-0.37334 -1.53641,0 -2.21128,0.45949 -0.66051,0.45949 -0.66051,1.22051 0,0.57436 0.33026,0.9477 0.34461,0.37333 1.17743,0.70359 0.83282,0.33025 2.35487,0.74666 1.47898,0.40205 2.57026,0.9477 1.10564,0.54564 1.70872,1.45025 0.61743,0.89026 0.61743,2.32616 0,1.63692 -0.94769,2.68512 -0.94769,1.03385 -2.46974,1.53641 -1.52205,0.48821 -3.27385,0.48821 -2.11077,0 -3.64718,-0.60308 -1.53641,-0.61743 -2.58461,-1.53641 l 1.70871,-1.95282 q 0.89026,0.71795 2.03898,1.17744 1.14872,0.44513 2.4841,0.44513 z" id="path42760"/><path d="m 675.07977,195.65683 q -0.83282,0.53129 -1.9959,0.86154 -1.16308,0.33026 -2.42667,0.33026 -2.64205,0 -4.02051,-1.3641 -1.3641,-1.37846 -1.3641,-3.61846 v -8.2277 h -3.37436 v -2.34051 h 3.37436 v -3.38872 l 3.21641,-0.38769 v 3.77641 h 5.11179 l -0.35897,2.34051 H 668.489 v 8.19898 q 0,1.22051 0.60307,1.82359 0.61744,0.58872 2.01026,0.58872 0.83282,0 1.52205,-0.20103 0.70359,-0.20103 1.29231,-0.51692 z" id="path42762"/><path d="m 679.78951,196.46094 v -2.29744 h 2.22565 v -10.58256 h -2.22565 v -2.28308 h 4.68103 l 0.58872,3.51795 q 0.84718,-1.90974 2.09641,-2.90051 1.26359,-1.00513 3.24513,-1.00513 0.67487,0 1.20615,0.11487 0.54564,0.10051 1.07692,0.27282 l -0.54564,5.58564 h -2.29743 v -3.08718 q -1.60821,0.0574 -2.77129,1.29231 -1.16307,1.22051 -1.83794,3.44615 v 5.62872 h 3.05846 v 2.29744 z" id="path42764"/><path d="m 704.91772,186.40966 q 0,-2.77129 -0.63179,-4.8677 -0.61744,-2.09641 -1.9241,-3.90564 -1.30667,-1.82359 -3.31693,-3.76205 l 1.78052,-1.72308 q 2.31179,1.90975 3.96307,3.97744 1.66564,2.06769 2.5559,4.56615 0.89026,2.48411 0.89026,5.71488 0,3.23076 -0.89026,5.72923 -0.89026,2.4841 -2.5559,4.55179 -1.65128,2.06769 -3.96307,3.97744 l -1.78052,-1.72308 q 2.05334,-1.96718 3.34564,-3.79077 1.30667,-1.82359 1.90975,-3.90564 0.61743,-2.08205 0.61743,-4.83897 z" id="path42766"/><path d="m 30.390056,229.37889 q 1.507692,0 2.397949,-0.53129 0.890256,-0.54564 0.890256,-1.49333 0,-0.61744 -0.258461,-1.0482 -0.258462,-0.43077 -1.033846,-0.80411 -0.775385,-0.37333 -2.354872,-0.77538 -1.493334,-0.38769 -2.627693,-0.91898 -1.12,-0.53128 -1.737435,-1.37846 -0.617436,-0.84718 -0.617436,-2.18256 0,-1.95282 1.622564,-3.14462 1.636923,-1.20615 4.436923,-1.20615 1.909743,0 3.331282,0.50256 1.421538,0.50257 2.426667,1.24923 l -1.349744,2.02462 q -0.890256,-0.58872 -1.952821,-0.96205 -1.048205,-0.37334 -2.36923,-0.37334 -1.536411,0 -2.211282,0.45949 -0.660513,0.45949 -0.660513,1.22051 0,0.57436 0.330256,0.9477 0.344616,0.37333 1.177436,0.70359 0.832821,0.33025 2.354872,0.74666 1.478974,0.40205 2.570256,0.9477 1.105641,0.54564 1.708718,1.45025 0.617436,0.89026 0.617436,2.32616 0,1.63692 -0.947692,2.68512 -0.947692,1.03385 -2.469744,1.53641 -1.522051,0.48821 -3.273846,0.48821 -2.110769,0 -3.647179,-0.60308 -1.536411,-0.61743 -2.584616,-1.53641 l 1.708718,-1.95282 q 0.890257,0.71795 2.038975,1.17744 1.148717,0.44513 2.484102,0.44513 z" id="path42768"/><path d="m 48.15212,208.87427 q 0.947692,0 1.522051,0.57436 0.588718,0.57436 0.588718,1.4359 0,0.86154 -0.588718,1.45025 -0.574359,0.58872 -1.522051,0.58872 -0.918975,0 -1.507693,-0.58872 -0.588718,-0.58871 -0.588718,-1.45025 0,-0.86154 0.588718,-1.4359 0.588718,-0.57436 1.507693,-0.57436 z m 2.24,7.42359 v 12.80821 h 4.121025 v 2.35487 H 42.638274 v -2.35487 h 4.537435 v -10.45334 h -4.393846 v -2.35487 z" id="path42770"/><path d="m 63.257773,228.87632 h 8.112821 l -0.344616,2.58462 H 59.395209 v -2.35487 l 8.069744,-10.22359 h -7.42359 v -2.58462 h 11.228718 v 2.35487 z" id="path42772"/><path d="m 79.239324,224.91325 q 0.14359,2.34051 1.306666,3.38871 1.177436,1.04821 2.828718,1.04821 1.105641,0 2.053334,-0.34462 0.962051,-0.34461 1.924102,-0.97641 l 1.392821,1.92411 q -1.062564,0.86153 -2.484103,1.37846 -1.421538,0.51692 -3.044102,0.51692 -2.369231,0 -4.006154,-1.00513 -1.622564,-1.00513 -2.469744,-2.8 -0.83282,-1.79487 -0.83282,-4.14974 0,-2.28308 0.83282,-4.07795 0.832821,-1.80923 2.38359,-2.85744 1.550769,-1.06256 3.704615,-1.06256 3.015385,0 4.76718,2.02461 1.766154,2.02462 1.766154,5.55693 0,0.38769 -0.02872,0.77538 -0.01436,0.37334 -0.04308,0.66052 z m 3.618461,-6.63385 q -1.507692,0 -2.498461,1.07692 -0.990769,1.07693 -1.134359,3.36 h 7.021538 q -0.04308,-2.13949 -0.918974,-3.2882 -0.861539,-1.14872 -2.469744,-1.14872 z" id="path42774"/><path d="m 92.679336,236.71632 v -2.65641 h 14.358974 v 2.65641 z" id="path42776"/><path d="m 123.69473,230.65683 q -0.83282,0.53129 -1.99589,0.86154 -1.16308,0.33026 -2.42667,0.33026 -2.64205,0 -4.02051,-1.3641 -1.36411,-1.37846 -1.36411,-3.61846 v -8.2277 h -3.37436 v -2.34051 h 3.37436 v -3.38872 l 3.21641,-0.38769 v 3.77641 h 5.1118 l -0.35898,2.34051 h -4.75282 v 8.19898 q 0,1.22051 0.60308,1.82359 0.61744,0.58872 2.01026,0.58872 0.83282,0 1.52205,-0.20103 0.70359,-0.20103 1.29231,-0.51692 z" id="path42778"/><path d="m 151.56553,215.89581 q 3.33128,0 5.08307,2.1682 1.7518,2.16821 1.7518,5.78667 0,2.41231 -0.8041,4.20718 -0.78975,1.79487 -2.32616,2.8 -1.52205,0.99077 -3.71897,0.99077 -3.31693,0 -5.08308,-2.13949 -1.76615,-2.15384 -1.76615,-5.82974 0,-2.35487 0.78974,-4.14974 0.8041,-1.80924 2.34051,-2.81436 1.53641,-1.01949 3.73334,-1.01949 z m 0,2.49846 q -1.73744,0 -2.61334,1.33539 -0.87589,1.32102 -0.87589,4.14974 0,2.82872 0.86153,4.1641 0.8759,1.32103 2.61334,1.32103 1.73743,0 2.59897,-1.33539 0.8759,-1.33538 0.8759,-4.17846 0,-2.8 -0.86154,-4.12102 -0.86154,-1.33539 -2.59897,-1.33539 z" id="path42780"/><path d="m 170.11733,215.89581 q 2.01026,0 3.21641,0.99077 1.20616,0.97641 1.7518,2.77128 0.54564,1.78051 0.54564,4.19282 0,2.3118 -0.66051,4.12103 -0.66052,1.80923 -1.96718,2.84307 -1.29231,1.03385 -3.21641,1.03385 -2.38359,0 -3.84821,-1.68 v 7.12205 l -3.21641,0.35898 v -21.3518 h 2.8 l 0.20103,1.95282 q 0.86154,-1.16308 1.9959,-1.75179 1.13435,-0.60308 2.39794,-0.60308 z m -0.89025,2.4841 q -1.07693,0 -1.90975,0.64616 -0.81846,0.64615 -1.37846,1.52205 v 7.09333 q 1.13436,1.69436 3.00103,1.69436 1.62256,0 2.46974,-1.30667 0.84718,-1.30666 0.84718,-4.1641 0,-2.91487 -0.76102,-4.19282 -0.74667,-1.29231 -2.26872,-1.29231 z" id="path42782"/><path d="m 191.54093,227.74196 q 0,0.90462 0.27282,1.30667 0.27282,0.40205 0.8759,0.60308 l -0.71795,2.18256 q -1.12,-0.12923 -1.93846,-0.61744 -0.80411,-0.4882 -1.20616,-1.47897 -0.83282,1.06256 -2.11077,1.59385 -1.27795,0.51692 -2.7282,0.51692 -2.3118,0 -3.64718,-1.29231 -1.33539,-1.30666 -1.33539,-3.41743 0,-2.39795 1.86667,-3.69026 1.86667,-1.29231 5.34154,-1.29231 h 2.1682 v -0.99077 q 0,-1.47897 -0.89025,-2.11077 -0.89026,-0.64615 -2.4841,-0.64615 -0.74667,0 -1.80924,0.20103 -1.06256,0.18666 -2.22564,0.58871 l -0.78974,-2.26871 q 1.42154,-0.53129 2.78564,-0.77539 1.3641,-0.25846 2.52718,-0.25846 3.0441,0 4.53744,1.34974 1.50769,1.34975 1.50769,3.73334 z m -6.57641,1.73744 q 0.97641,0 1.90974,-0.51692 0.93334,-0.51693 1.50769,-1.45026 v -3.34564 h -1.78051 q -2.26872,0 -3.24513,0.76102 -0.97641,0.74667 -0.97641,2.0677 0,2.4841 2.58462,2.4841 z" id="path42784"/><path d="m 202.28146,215.89581 q 2.52718,0 4.04923,1.88102 l 0.20103,-1.47897 h 2.77128 v 21.3518 l -3.21641,-0.35898 v -7.49538 q -1.56513,2.05333 -4.12103,2.05333 -2.01025,0 -3.23077,-0.99077 -1.22051,-0.99077 -1.78051,-2.78564 -0.56,-1.79487 -0.56,-4.19282 0,-2.3118 0.67487,-4.10667 0.68923,-1.80923 1.9959,-2.84307 1.32103,-1.03385 3.21641,-1.03385 z m 0.83282,2.46974 q -1.65128,0 -2.49846,1.34975 -0.84718,1.33538 -0.84718,4.1641 0,2.90051 0.77539,4.17846 0.78974,1.27795 2.28307,1.27795 1.07693,0 1.88103,-0.60308 0.81846,-0.61743 1.37846,-1.50769 v -7.17949 q -0.53128,-0.8041 -1.29231,-1.23487 -0.76102,-0.44513 -1.68,-0.44513 z" id="path42786"/><path d="m 217.63122,216.29786 v 10.59692 q 0,1.34975 0.53129,1.92411 0.54564,0.57436 1.63692,0.57436 1.03385,0 1.9959,-0.61744 0.96205,-0.61744 1.52205,-1.50769 v -10.97026 h 3.21641 v 15.16308 h -2.77128 l -0.20103,-1.93846 q -0.84718,1.13435 -2.13949,1.73743 -1.2923,0.58872 -2.64205,0.58872 -2.21128,0 -3.2882,-1.20615 -1.07693,-1.22052 -1.07693,-3.34565 v -10.99897 z" id="path42788"/><path d="m 234.31636,224.91325 q 0.14359,2.34051 1.30666,3.38871 1.17744,1.04821 2.82872,1.04821 1.10564,0 2.05334,-0.34462 0.96205,-0.34461 1.9241,-0.97641 l 1.39282,1.92411 q -1.06257,0.86153 -2.4841,1.37846 -1.42154,0.51692 -3.04411,0.51692 -2.36923,0 -4.00615,-1.00513 -1.62256,-1.00513 -2.46974,-2.8 -0.83282,-1.79487 -0.83282,-4.14974 0,-2.28308 0.83282,-4.07795 0.83282,-1.80923 2.38359,-2.85744 1.55077,-1.06256 3.70461,-1.06256 3.01539,0 4.76718,2.02461 1.76615,2.02462 1.76615,5.55693 0,0.38769 -0.0287,0.77538 -0.0144,0.37334 -0.0431,0.66052 z m 3.61846,-6.63385 q -1.50769,0 -2.49846,1.07692 -0.99077,1.07693 -1.13436,3.36 h 7.02154 q -0.0431,-2.13949 -0.91898,-3.2882 -0.86154,-1.14872 -2.46974,-1.14872 z" id="path42790"/><path d="m 364.26517,218.37991 v 2.62769 h -11.88923 v -2.62769 z m 0,5.6718 v 2.62769 h -11.88923 v -2.62769 z" id="path42792"/><path d="m 400.00467,216.29786 -5.34154,15.16308 h -3.76205 l -5.34154,-15.16308 h 3.44615 l 3.84821,12.49231 3.86256,-12.49231 z" id="path42794"/><path d="m 415.54111,227.74196 q 0,0.90462 0.27282,1.30667 0.27282,0.40205 0.8759,0.60308 l -0.71795,2.18256 q -1.12,-0.12923 -1.93846,-0.61744 -0.8041,-0.4882 -1.20615,-1.47897 -0.83282,1.06256 -2.11077,1.59385 -1.27795,0.51692 -2.72821,0.51692 -2.31179,0 -3.64718,-1.29231 -1.33538,-1.30666 -1.33538,-3.41743 0,-2.39795 1.86666,-3.69026 1.86667,-1.29231 5.34154,-1.29231 h 2.16821 v -0.99077 q 0,-1.47897 -0.89026,-2.11077 -0.89026,-0.64615 -2.4841,-0.64615 -0.74667,0 -1.80923,0.20103 -1.06257,0.18666 -2.22564,0.58871 l -0.78975,-2.26871 q 1.42154,-0.53129 2.78564,-0.77539 1.36411,-0.25846 2.52718,-0.25846 3.04411,0 4.53744,1.34974 1.50769,1.34975 1.50769,3.73334 z m -6.57641,1.73744 q 0.97641,0 1.90975,-0.51692 0.93333,-0.51693 1.50769,-1.45026 v -3.34564 h -1.78052 q -2.26871,0 -3.24512,0.76102 -0.97641,0.74667 -0.97641,2.0677 0,2.4841 2.58461,2.4841 z" id="path42796"/><path d="m 421.32778,231.46094 v -2.29744 h 2.22564 v -10.58256 h -2.22564 v -2.28308 h 4.68103 l 0.58872,3.51795 q 0.84718,-1.90974 2.09641,-2.90051 1.26359,-1.00513 3.24513,-1.00513 0.67487,0 1.20615,0.11487 0.54564,0.10051 1.07692,0.27282 l -0.54564,5.58564 h -2.29743 v -3.08718 q -1.60821,0.0574 -2.77129,1.29231 -1.16307,1.22051 -1.83795,3.44615 v 5.62872 h 3.05847 v 2.29744 z" id="path42798"/><path d="m 437.29497,236.71632 v -2.65641 h 14.35897 v 2.65641 z" id="path42800"/><path d="m 460.84369,211.2435 q 1.96718,0 3.38872,0.68923 1.42154,0.68923 2.18256,1.82359 0.76103,1.13436 0.76103,2.49846 0,1.83795 -1.13436,3.05847 -1.12,1.22051 -2.8,1.6082 1.23487,0.12923 2.26872,0.68923 1.0482,0.56 1.66564,1.59385 0.63179,1.03384 0.63179,2.59897 0,1.69436 -0.89025,3.07282 -0.89026,1.3641 -2.49847,2.16821 -1.6082,0.8041 -3.79076,0.8041 -1.86667,0 -3.56103,-0.68923 -1.68,-0.68923 -2.85744,-2.08205 l 1.96718,-1.72308 q 0.84718,0.99077 1.96718,1.46462 1.13436,0.47384 2.34052,0.47384 1.83794,0 2.91487,-0.94769 1.07692,-0.96205 1.07692,-2.65641 0,-1.9241 -1.06256,-2.68513 -1.06257,-0.77538 -2.75693,-0.77538 h -1.70871 l 0.37333,-2.36923 h 1.20615 q 1.39282,0 2.42667,-0.76103 1.0482,-0.77538 1.0482,-2.36923 0,-1.4359 -0.99076,-2.21128 -0.97642,-0.78975 -2.42667,-0.78975 -1.24923,0 -2.21128,0.45949 -0.96205,0.45949 -1.89539,1.32103 l -1.70872,-1.82359 q 1.30667,-1.23487 2.82872,-1.83795 1.52205,-0.60308 3.24513,-0.60308 z" id="path42802"/><path d="m 483.416,219.09786 v 5.29846 h 2.35487 v 2.49846 H 483.416 v 4.56616 h -3.08718 l -0.0144,-4.56616 h -8.22769 v -2.24 l 5.70051,-13.41128 2.71385,1.07692 -5.05436,12.0759 h 4.88205 l 0.3877,-5.29846 z" id="path42804"/><path d="m 497.41604,229.20658 q 1.06256,0 1.98154,-0.37333 0.91897,-0.37334 1.75179,-0.9477 l 1.49333,2.0677 q -0.99077,0.84717 -2.4123,1.37846 -1.40718,0.51692 -2.91488,0.51692 -2.32615,0 -3.99179,-0.97641 -1.65128,-0.99077 -2.52718,-2.75692 -0.86154,-1.78052 -0.86154,-4.16411 0,-2.31179 0.8759,-4.12102 0.89026,-1.82359 2.5559,-2.8718 1.66564,-1.06256 4.00615,-1.06256 3.0441,0 5.25539,1.82359 l -1.47898,2.02461 q -0.89026,-0.61743 -1.82359,-0.93333 -0.93333,-0.33026 -1.89538,-0.33026 -1.80923,0 -2.94359,1.32103 -1.13436,1.32103 -1.13436,4.14974 0,2.84308 1.14872,4.04923 1.14871,1.20616 2.91487,1.20616 z" id="path42806"/><path d="m 524.6981,223.79325 v -2.64206 h 11.86051 v 2.64206 z" id="path42808"/><path d="m 572.3125,216.29786 -5.34154,15.16308 h -3.76205 l -5.34154,-15.16308 h 3.44615 l 3.84821,12.49231 3.86256,-12.49231 z" id="path42810"/><path d="m 587.84891,227.74196 q 0,0.90462 0.27282,1.30667 0.27282,0.40205 0.8759,0.60308 l -0.71795,2.18256 q -1.12,-0.12923 -1.93846,-0.61744 -0.8041,-0.4882 -1.20615,-1.47897 -0.83282,1.06256 -2.11077,1.59385 -1.27795,0.51692 -2.72821,0.51692 -2.31179,0 -3.64718,-1.29231 -1.33538,-1.30666 -1.33538,-3.41743 0,-2.39795 1.86666,-3.69026 1.86667,-1.29231 5.34154,-1.29231 h 2.16821 v -0.99077 q 0,-1.47897 -0.89026,-2.11077 -0.89026,-0.64615 -2.4841,-0.64615 -0.74667,0 -1.80923,0.20103 -1.06257,0.18666 -2.22564,0.58871 l -0.78975,-2.26871 q 1.42154,-0.53129 2.78564,-0.77539 1.36411,-0.25846 2.52718,-0.25846 3.04411,0 4.53744,1.34974 1.50769,1.34975 1.50769,3.73334 z m -6.57641,1.73744 q 0.97641,0 1.90975,-0.51692 0.93333,-0.51693 1.50769,-1.45026 v -3.34564 h -1.78052 q -2.26871,0 -3.24512,0.76102 -0.97641,0.74667 -0.97641,2.0677 0,2.4841 2.58461,2.4841 z" id="path42812"/><path d="m 593.63558,231.46094 v -2.29744 h 2.22564 v -10.58256 h -2.22564 v -2.28308 h 4.68103 l 0.58872,3.51795 q 0.84718,-1.90974 2.09641,-2.90051 1.26359,-1.00513 3.24513,-1.00513 0.67487,0 1.20615,0.11487 0.54564,0.10051 1.07692,0.27282 l -0.54564,5.58564 h -2.29743 v -3.08718 q -1.60821,0.0574 -2.77129,1.29231 -1.16307,1.22051 -1.83795,3.44615 v 5.62872 h 3.05847 v 2.29744 z" id="path42814"/><path d="m 609.60277,236.71632 v -2.65641 h 14.35897 v 2.65641 z" id="path42816"/><path d="m 640.61816,228.93376 v 2.52718 h -11.98975 v -2.52718 h 4.83898 v -13.98564 l -4.36513,2.68513 -1.37846,-2.25436 6.0882,-3.73334 h 2.84308 v 17.28821 z" id="path42818"/><path d="m 650.4397,211.2435 q 2.01026,0 3.41744,0.76103 1.40718,0.74666 2.13948,2.02461 0.74667,1.26359 0.74667,2.81436 0,1.30667 -0.45949,2.5559 -0.44513,1.23487 -1.45025,2.61333 -0.99077,1.3641 -2.6277,3.0441 -1.63692,1.66565 -4.00615,3.81949 h 9.00308 l -0.37334,2.58462 h -12.32 v -2.44103 q 2.67077,-2.57025 4.39385,-4.36513 1.73744,-1.79487 2.71385,-3.10153 0.99077,-1.30667 1.39282,-2.35488 0.40205,-1.06256 0.40205,-2.15384 0,-1.49334 -0.84718,-2.35487 -0.84718,-0.86154 -2.35487,-0.86154 -1.33539,0 -2.24,0.4882 -0.89026,0.48821 -1.76616,1.57949 l -2.09641,-1.59385 q 1.16308,-1.47897 2.67077,-2.26871 1.50769,-0.78975 3.66154,-0.78975 z" id="path42820"/><path d="m 669.72387,229.20658 q 1.06256,0 1.98154,-0.37333 0.91897,-0.37334 1.75179,-0.9477 l 1.49333,2.0677 q -0.99076,0.84717 -2.4123,1.37846 -1.40718,0.51692 -2.91487,0.51692 -2.32616,0 -3.9918,-0.97641 -1.65128,-0.99077 -2.52718,-2.75692 -0.86154,-1.78052 -0.86154,-4.16411 0,-2.31179 0.8759,-4.12102 0.89026,-1.82359 2.5559,-2.8718 1.66564,-1.06256 4.00615,-1.06256 3.0441,0 5.25539,1.82359 l -1.47898,2.02461 q -0.89025,-0.61743 -1.82359,-0.93333 -0.93333,-0.33026 -1.89538,-0.33026 -1.80923,0 -2.94359,1.32103 -1.13436,1.32103 -1.13436,4.14974 0,2.84308 1.14872,4.04923 1.14871,1.20616 2.91487,1.20616 z" id="path42822"/><path d="m 697.00593,223.79325 v -2.64206 h 11.86051 v 2.64206 z" id="path42824"/><path d="m 744.6203,216.29786 -5.34154,15.16308 h -3.76205 l -5.34154,-15.16308 h 3.44615 l 3.84821,12.49231 3.86256,-12.49231 z" id="path42826"/><path d="m 760.15671,227.74196 q 0,0.90462 0.27282,1.30667 0.27282,0.40205 0.8759,0.60308 l -0.71795,2.18256 q -1.12,-0.12923 -1.93846,-0.61744 -0.8041,-0.4882 -1.20615,-1.47897 -0.83282,1.06256 -2.11077,1.59385 -1.27795,0.51692 -2.72821,0.51692 -2.31179,0 -3.64718,-1.29231 -1.33538,-1.30666 -1.33538,-3.41743 0,-2.39795 1.86666,-3.69026 1.86667,-1.29231 5.34154,-1.29231 h 2.16821 v -0.99077 q 0,-1.47897 -0.89026,-2.11077 -0.89025,-0.64615 -2.4841,-0.64615 -0.74667,0 -1.80923,0.20103 -1.06257,0.18666 -2.22564,0.58871 l -0.78975,-2.26871 q 1.42154,-0.53129 2.78564,-0.77539 1.36411,-0.25846 2.52718,-0.25846 3.04411,0 4.53744,1.34974 1.50769,1.34975 1.50769,3.73334 z m -6.57641,1.73744 q 0.97641,0 1.90975,-0.51692 0.93333,-0.51693 1.50769,-1.45026 v -3.34564 h -1.78051 q -2.26872,0 -3.24513,0.76102 -0.97641,0.74667 -0.97641,2.0677 0,2.4841 2.58461,2.4841 z" id="path42828"/><path d="m 765.94338,231.46094 v -2.29744 h 2.22564 v -10.58256 h -2.22564 v -2.28308 h 4.68103 l 0.58872,3.51795 q 0.84718,-1.90974 2.09641,-2.90051 1.26359,-1.00513 3.24513,-1.00513 0.67487,0 1.20615,0.11487 0.54564,0.10051 1.07692,0.27282 l -0.54564,5.58564 h -2.29743 v -3.08718 q -1.60821,0.0574 -2.77129,1.29231 -1.16307,1.22051 -1.83795,3.44615 v 5.62872 h 3.05847 v 2.29744 z" id="path42830"/><path d="m 781.91063,236.71632 v -2.65641 h 14.35897 v 2.65641 z" id="path42832"/><path d="m 807.57012,229.20658 q 1.06256,0 1.98154,-0.37333 0.91897,-0.37334 1.75179,-0.9477 l 1.49334,2.0677 q -0.99077,0.84717 -2.41231,1.37846 -1.40718,0.51692 -2.91487,0.51692 -2.32616,0 -3.9918,-0.97641 -1.65128,-0.99077 -2.52718,-2.75692 -0.86153,-1.78052 -0.86153,-4.16411 0,-2.31179 0.87589,-4.12102 0.89026,-1.82359 2.5559,-2.8718 1.66564,-1.06256 4.00615,-1.06256 3.04411,0 5.25539,1.82359 l -1.47898,2.02461 q -0.89025,-0.61743 -1.82359,-0.93333 -0.93333,-0.33026 -1.89538,-0.33026 -1.80923,0 -2.94359,1.32103 -1.13436,1.32103 -1.13436,4.14974 0,2.84308 1.14872,4.04923 1.14872,1.20616 2.91487,1.20616 z" id="path42834"/><path d="m 28.09262,253.10709 q 0.775385,-1.03384 1.837949,-1.62256 1.062564,-0.58872 2.326154,-0.58872 1.995897,0 3.230769,0.99077 1.249231,0.97641 1.82359,2.77128 0.588718,1.78051 0.588718,4.19282 0,2.3118 -0.689231,4.12103 -0.689231,1.80923 -2.038974,2.84307 -1.335385,1.03385 -3.302565,1.03385 -2.541538,0 -3.991794,-1.88103 l -0.172308,1.49334 H 24.87621 v -21.25128 l 3.21641,-0.35898 z m 2.972308,11.28616 q 1.636923,0 2.527179,-1.33539 0.904616,-1.33538 0.904616,-4.19282 0,-2.91487 -0.818462,-4.19282 -0.804102,-1.29231 -2.297436,-1.29231 -1.076923,0 -1.909743,0.64616 -0.818462,0.64615 -1.378462,1.52205 v 7.09333 q 0.531282,0.81846 1.277949,1.29231 0.761026,0.45949 1.694359,0.45949 z" id="path42836"/><path d="m 48.180838,250.89581 q 3.331282,0 5.083077,2.1682 1.751794,2.16821 1.751794,5.78667 0,2.41231 -0.804102,4.20718 -0.789744,1.79487 -2.326154,2.8 -1.522051,0.99077 -3.718974,0.99077 -3.316923,0 -5.083077,-2.13949 -1.766154,-2.15384 -1.766154,-5.82974 0,-2.35487 0.789743,-4.14974 0.804103,-1.80924 2.340513,-2.81436 1.536411,-1.01949 3.733334,-1.01949 z m 0,2.49846 q -1.737436,0 -2.613334,1.33539 -0.875897,1.32102 -0.875897,4.14974 0,2.82872 0.861538,4.1641 0.875898,1.32103 2.613334,1.32103 1.737436,0 2.598974,-1.33539 0.875897,-1.33538 0.875897,-4.17846 0,-2.8 -0.861538,-4.12102 -0.861538,-1.33539 -2.598974,-1.33539 z" id="path42838"/><path d="m 65.411619,250.89581 q 3.331282,0 5.083077,2.1682 1.751795,2.16821 1.751795,5.78667 0,2.41231 -0.804103,4.20718 -0.789743,1.79487 -2.326153,2.8 -1.522052,0.99077 -3.718975,0.99077 -3.316923,0 -5.083077,-2.13949 -1.766154,-2.15384 -1.766154,-5.82974 0,-2.35487 0.789744,-4.14974 0.804103,-1.80924 2.340513,-2.81436 1.53641,-1.01949 3.733333,-1.01949 z m 0,2.49846 q -1.737436,0 -2.613333,1.33539 -0.875898,1.32102 -0.875898,4.14974 0,2.82872 0.861539,4.1641 0.875897,1.32103 2.613333,1.32103 1.737436,0 2.598975,-1.33539 0.875897,-1.33538 0.875897,-4.17846 0,-2.8 -0.861538,-4.12102 -0.861539,-1.33539 -2.598975,-1.33539 z" id="path42840"/><path d="m 83.231119,245.20966 v 17.11589 q 0,1.04821 0.631795,1.49334 0.646153,0.43077 1.665641,0.43077 0.646153,0 1.234871,-0.12924 0.603077,-0.14359 1.163077,-0.37333 l 0.818462,2.24 q -0.674872,0.34462 -1.665641,0.60308 -0.97641,0.25846 -2.24,0.25846 -2.283077,0 -3.561026,-1.29231 -1.26359,-1.29231 -1.26359,-3.51795 v -14.45948 h -4.580512 v -2.36923 z" id="path42842"/><path d="m 117.07525,243.87427 q 0.94769,0 1.52205,0.57436 0.58872,0.57436 0.58872,1.4359 0,0.86154 -0.58872,1.45025 -0.57436,0.58872 -1.52205,0.58872 -0.91898,0 -1.5077,-0.58872 -0.58871,-0.58871 -0.58871,-1.45025 0,-0.86154 0.58871,-1.4359 0.58872,-0.57436 1.5077,-0.57436 z m 2.24,7.42359 v 12.80821 h 4.12102 v 2.35487 H 111.5614 v -2.35487 h 4.53744 v -10.45334 h -4.39385 v -2.35487 z" id="path42844"/><path d="m 133.77475,264.37889 q 1.50769,0 2.39794,-0.53129 0.89026,-0.54564 0.89026,-1.49333 0,-0.61744 -0.25846,-1.0482 -0.25846,-0.43077 -1.03385,-0.80411 -0.77538,-0.37333 -2.35487,-0.77538 -1.49333,-0.38769 -2.62769,-0.91898 -1.12,-0.53128 -1.73744,-1.37846 -0.61743,-0.84718 -0.61743,-2.18256 0,-1.95282 1.62256,-3.14462 1.63692,-1.20615 4.43692,-1.20615 1.90975,0 3.33129,0.50256 1.42153,0.50257 2.42666,1.24923 l -1.34974,2.02462 q -0.89026,-0.58872 -1.95282,-0.96205 -1.04821,-0.37334 -2.36923,-0.37334 -1.53641,0 -2.21128,0.45949 -0.66052,0.45949 -0.66052,1.22051 0,0.57436 0.33026,0.9477 0.34461,0.37333 1.17744,0.70359 0.83282,0.33025 2.35487,0.74666 1.47897,0.40205 2.57025,0.9477 1.10564,0.54564 1.70872,1.45025 0.61744,0.89026 0.61744,2.32616 0,1.63692 -0.94769,2.68512 -0.9477,1.03385 -2.46975,1.53641 -1.52205,0.48821 -3.27384,0.48821 -2.11077,0 -3.64718,-0.60308 -1.53641,-0.61743 -2.58462,-1.53641 l 1.70872,-1.95282 q 0.89025,0.71795 2.03897,1.17744 1.14872,0.44513 2.48411,0.44513 z" id="path42846"/><path d="m 144.37168,271.71632 v -2.65641 h 14.35898 v 2.65641 z" id="path42848"/><path d="m 168.79631,250.89581 q 3.33128,0 5.08308,2.1682 1.75179,2.16821 1.75179,5.78667 0,2.41231 -0.8041,4.20718 -0.78975,1.79487 -2.32616,2.8 -1.52205,0.99077 -3.71897,0.99077 -3.31692,0 -5.08308,-2.13949 -1.76615,-2.15384 -1.76615,-5.82974 0,-2.35487 0.78974,-4.14974 0.8041,-1.80924 2.34052,-2.81436 1.53641,-1.01949 3.73333,-1.01949 z m 0,2.49846 q -1.73744,0 -2.61333,1.33539 -0.8759,1.32102 -0.8759,4.14974 0,2.82872 0.86154,4.1641 0.87589,1.32103 2.61333,1.32103 1.73744,0 2.59897,-1.33539 0.8759,-1.33538 0.8759,-4.17846 0,-2.8 -0.86154,-4.12102 -0.86154,-1.33539 -2.59897,-1.33539 z" id="path42850"/><path d="m 183.27016,244.85068 v 21.61026 h -3.21641 v -21.25128 z m 10.03692,6.44718 -6.13128,6.77744 6.77744,8.38564 h -3.93436 l -6.51898,-8.29949 6.05949,-6.86359 z" id="path42852"/><path d="m 364.26517,253.37991 v 2.62769 h -11.88923 v -2.62769 z m 0,5.6718 v 2.62769 h -11.88923 v -2.62769 z" id="path42854"/><path d="m 394.11749,250.89581 q 2.01025,0 3.21641,0.99077 1.20615,0.97641 1.75179,2.77128 0.54564,1.78051 0.54564,4.19282 0,2.3118 -0.66051,4.12103 -0.66051,1.80923 -1.96718,2.84307 -1.29231,1.03385 -3.21641,1.03385 -2.38359,0 -3.8482,-1.68 v 7.12205 l -3.21642,0.35898 v -21.3518 h 2.8 l 0.20103,1.95282 q 0.86154,-1.16308 1.9959,-1.75179 1.13436,-0.60308 2.39795,-0.60308 z m -0.89026,2.4841 q -1.07692,0 -1.90974,0.64616 -0.81846,0.64615 -1.37846,1.52205 v 7.09333 q 1.13435,1.69436 3.00102,1.69436 1.62256,0 2.46974,-1.30667 0.84718,-1.30666 0.84718,-4.1641 0,-2.91487 -0.76102,-4.19282 -0.74667,-1.29231 -2.26872,-1.29231 z" id="path42856"/><path d="m 415.54111,262.74196 q 0,0.90462 0.27282,1.30667 0.27282,0.40205 0.8759,0.60308 l -0.71795,2.18256 q -1.12,-0.12923 -1.93846,-0.61744 -0.8041,-0.4882 -1.20615,-1.47897 -0.83282,1.06256 -2.11077,1.59385 -1.27795,0.51692 -2.72821,0.51692 -2.31179,0 -3.64718,-1.29231 -1.33538,-1.30666 -1.33538,-3.41743 0,-2.39795 1.86666,-3.69026 1.86667,-1.29231 5.34154,-1.29231 h 2.16821 v -0.99077 q 0,-1.47897 -0.89026,-2.11077 -0.89026,-0.64615 -2.4841,-0.64615 -0.74667,0 -1.80923,0.20103 -1.06257,0.18666 -2.22564,0.58871 l -0.78975,-2.26871 q 1.42154,-0.53129 2.78564,-0.77539 1.36411,-0.25846 2.52718,-0.25846 3.04411,0 4.53744,1.34974 1.50769,1.34975 1.50769,3.73334 z m -6.57641,1.73744 q 0.97641,0 1.90975,-0.51692 0.93333,-0.51693 1.50769,-1.45026 v -3.34564 h -1.78052 q -2.26871,0 -3.24512,0.76102 -0.97641,0.74667 -0.97641,2.0677 0,2.4841 2.58461,2.4841 z" id="path42858"/><path d="m 426.69804,264.37889 q 1.50769,0 2.39795,-0.53129 0.89025,-0.54564 0.89025,-1.49333 0,-0.61744 -0.25846,-1.0482 -0.25846,-0.43077 -1.03384,-0.80411 -0.77539,-0.37333 -2.35487,-0.77538 -1.49334,-0.38769 -2.6277,-0.91898 -1.12,-0.53128 -1.73743,-1.37846 -0.61744,-0.84718 -0.61744,-2.18256 0,-1.95282 1.62257,-3.14462 1.63692,-1.20615 4.43692,-1.20615 1.90974,0 3.33128,0.50256 1.42154,0.50257 2.42667,1.24923 l -1.34975,2.02462 q -0.89025,-0.58872 -1.95282,-0.96205 -1.0482,-0.37334 -2.36923,-0.37334 -1.53641,0 -2.21128,0.45949 -0.66051,0.45949 -0.66051,1.22051 0,0.57436 0.33025,0.9477 0.34462,0.37333 1.17744,0.70359 0.83282,0.33025 2.35487,0.74666 1.47898,0.40205 2.57026,0.9477 1.10564,0.54564 1.70872,1.45025 0.61743,0.89026 0.61743,2.32616 0,1.63692 -0.94769,2.68512 -0.94769,1.03385 -2.46974,1.53641 -1.52206,0.48821 -3.27385,0.48821 -2.11077,0 -3.64718,-0.60308 -1.53641,-0.61743 -2.58462,-1.53641 l 1.70872,-1.95282 q 0.89026,0.71795 2.03898,1.17744 1.14871,0.44513 2.4841,0.44513 z" id="path42860"/><path d="m 443.92881,264.37889 q 1.5077,0 2.39795,-0.53129 0.89026,-0.54564 0.89026,-1.49333 0,-0.61744 -0.25846,-1.0482 -0.25846,-0.43077 -1.03385,-0.80411 -0.77538,-0.37333 -2.35487,-0.77538 -1.49333,-0.38769 -2.62769,-0.91898 -1.12,-0.53128 -1.73744,-1.37846 -0.61744,-0.84718 -0.61744,-2.18256 0,-1.95282 1.62257,-3.14462 1.63692,-1.20615 4.43692,-1.20615 1.90975,0 3.33128,0.50256 1.42154,0.50257 2.42667,1.24923 l -1.34974,2.02462 q -0.89026,-0.58872 -1.95282,-0.96205 -1.04821,-0.37334 -2.36923,-0.37334 -1.53641,0 -2.21129,0.45949 -0.66051,0.45949 -0.66051,1.22051 0,0.57436 0.33026,0.9477 0.34461,0.37333 1.17743,0.70359 0.83282,0.33025 2.35488,0.74666 1.47897,0.40205 2.57025,0.9477 1.10564,0.54564 1.70872,1.45025 0.61744,0.89026 0.61744,2.32616 0,1.63692 -0.9477,2.68512 -0.94769,1.03385 -2.46974,1.53641 -1.52205,0.48821 -3.27385,0.48821 -2.11077,0 -3.64718,-0.60308 -1.53641,-0.61743 -2.58461,-1.53641 l 1.70872,-1.95282 q 0.89025,0.71795 2.03897,1.17744 1.14872,0.44513 2.4841,0.44513 z" id="path42862"/><path d="m 467.50625,266.46094 h -4.02051 l -1.70872,-10.76923 -1.83795,10.76923 h -3.93435 l -2.57026,-15.16308 h 3.10154 l 1.57948,13.16718 2.11077,-11.24308 h 3.21641 l 1.96718,11.24308 1.57949,-13.16718 h 2.98667 z" id="path42864"/><path d="m 481.77908,244.85068 3.21641,0.35898 v 21.25128 h -2.82872 l -0.22974,-1.86667 q -0.77539,1.07692 -1.85231,1.66564 -1.07692,0.58872 -2.41231,0.58872 -1.95282,0 -3.21641,-0.99077 -1.24923,-1.00513 -1.86666,-2.8 -0.61744,-1.79487 -0.61744,-4.17846 0,-2.3118 0.71795,-4.10667 0.71795,-1.80923 2.05333,-2.84307 1.33539,-1.03385 3.21641,-1.03385 2.34051,0 3.81949,1.65128 z m -2.97231,8.51487 q -1.62256,0 -2.52718,1.34975 -0.90461,1.33538 -0.90461,4.1641 0,2.90051 0.81846,4.20718 0.83282,1.29231 2.32615,1.29231 1.09128,0 1.89539,-0.6318 0.8041,-0.63179 1.3641,-1.52205 v -7.17949 q -0.56,-0.8041 -1.30667,-1.23487 -0.74666,-0.44513 -1.66564,-0.44513 z" id="path42866"/><path d="m 492.53399,269.84966 v -26.88 h 7.82564 v 2.57025 h -4.7959 v 21.76821 h 4.7959 v 2.54154 z" id="path42868"/><path d="m 513.41194,250.89581 q 3.33128,0 5.08308,2.1682 1.75179,2.16821 1.75179,5.78667 0,2.41231 -0.8041,4.20718 -0.78974,1.79487 -2.32615,2.8 -1.52206,0.99077 -3.71898,0.99077 -3.31692,0 -5.08308,-2.13949 -1.76615,-2.15384 -1.76615,-5.82974 0,-2.35487 0.78974,-4.14974 0.80411,-1.80924 2.34052,-2.81436 1.53641,-1.01949 3.73333,-1.01949 z m 0,2.49846 q -1.73744,0 -2.61333,1.33539 -0.8759,1.32102 -0.8759,4.14974 0,2.82872 0.86154,4.1641 0.87589,1.32103 2.61333,1.32103 1.73744,0 2.59898,-1.33539 0.87589,-1.33538 0.87589,-4.17846 0,-2.8 -0.86154,-4.12102 -0.86153,-1.33539 -2.59897,-1.33539 z" id="path42870"/><path d="m 531.96374,250.89581 q 2.01026,0 3.21641,0.99077 1.20615,0.97641 1.75179,2.77128 0.54565,1.78051 0.54565,4.19282 0,2.3118 -0.66052,4.12103 -0.66051,1.80923 -1.96718,2.84307 -1.2923,1.03385 -3.21641,1.03385 -2.38359,0 -3.8482,-1.68 v 7.12205 l -3.21641,0.35898 v -21.3518 h 2.8 l 0.20102,1.95282 q 0.86154,-1.16308 1.9959,-1.75179 1.13436,-0.60308 2.39795,-0.60308 z m -0.89026,2.4841 q -1.07692,0 -1.90974,0.64616 -0.81846,0.64615 -1.37846,1.52205 v 7.09333 q 1.13436,1.69436 3.00102,1.69436 1.62257,0 2.46975,-1.30667 0.84718,-1.30666 0.84718,-4.1641 0,-2.91487 -0.76103,-4.19282 -0.74667,-1.29231 -2.26872,-1.29231 z" id="path42872"/><path d="m 553.38736,262.74196 q 0,0.90462 0.27282,1.30667 0.27283,0.40205 0.8759,0.60308 l -0.71795,2.18256 q -1.12,-0.12923 -1.93846,-0.61744 -0.8041,-0.4882 -1.20615,-1.47897 -0.83282,1.06256 -2.11077,1.59385 -1.27795,0.51692 -2.72821,0.51692 -2.31179,0 -3.64718,-1.29231 -1.33538,-1.30666 -1.33538,-3.41743 0,-2.39795 1.86667,-3.69026 1.86666,-1.29231 5.34153,-1.29231 h 2.16821 v -0.99077 q 0,-1.47897 -0.89026,-2.11077 -0.89025,-0.64615 -2.4841,-0.64615 -0.74667,0 -1.80923,0.20103 -1.06256,0.18666 -2.22564,0.58871 l -0.78974,-2.26871 q 1.42153,-0.53129 2.78564,-0.77539 1.3641,-0.25846 2.52718,-0.25846 3.0441,0 4.53743,1.34974 1.50769,1.34975 1.50769,3.73334 z m -6.57641,1.73744 q 0.97641,0 1.90975,-0.51692 0.93333,-0.51693 1.50769,-1.45026 v -3.34564 h -1.78051 q -2.26872,0 -3.24513,0.76102 -0.97641,0.74667 -0.97641,2.0677 0,2.4841 2.58461,2.4841 z" id="path42874"/><path d="m 564.12788,250.89581 q 2.52718,0 4.04923,1.88102 l 0.20103,-1.47897 h 2.77128 v 21.3518 l -3.21641,-0.35898 v -7.49538 q -1.56513,2.05333 -4.12103,2.05333 -2.01025,0 -3.23076,-0.99077 -1.22052,-0.99077 -1.78052,-2.78564 -0.56,-1.79487 -0.56,-4.19282 0,-2.3118 0.67487,-4.10667 0.68923,-1.80923 1.9959,-2.84307 1.32103,-1.03385 3.21641,-1.03385 z m 0.83282,2.46974 q -1.65128,0 -2.49846,1.34975 -0.84718,1.33538 -0.84718,4.1641 0,2.90051 0.77539,4.17846 0.78974,1.27795 2.28307,1.27795 1.07693,0 1.88103,-0.60308 0.81846,-0.61743 1.37846,-1.50769 v -7.17949 q -0.53128,-0.8041 -1.29231,-1.23487 -0.76102,-0.44513 -1.68,-0.44513 z" id="path42876"/><path d="m 579.47763,251.29786 v 10.59692 q 0,1.34975 0.53128,1.92411 0.54564,0.57436 1.63693,0.57436 1.03384,0 1.99589,-0.61744 0.96205,-0.61744 1.52205,-1.50769 v -10.97026 h 3.21641 v 15.16308 h -2.77128 l -0.20102,-1.93846 q -0.84718,1.13435 -2.13949,1.73743 -1.29231,0.58872 -2.64205,0.58872 -2.21128,0 -3.28821,-1.20615 -1.07692,-1.22052 -1.07692,-3.34565 v -10.99897 z" id="path42878"/><path d="m 596.16276,259.91325 q 0.14359,2.34051 1.30667,3.38871 1.17744,1.04821 2.82872,1.04821 1.10564,0 2.05333,-0.34462 0.96205,-0.34461 1.9241,-0.97641 l 1.39282,1.92411 q -1.06256,0.86153 -2.4841,1.37846 -1.42154,0.51692 -3.0441,0.51692 -2.36923,0 -4.00616,-1.00513 -1.62256,-1.00513 -2.46974,-2.8 -0.83282,-1.79487 -0.83282,-4.14974 0,-2.28308 0.83282,-4.07795 0.83282,-1.80923 2.38359,-2.85744 1.55077,-1.06256 3.70462,-1.06256 3.01538,0 4.76718,2.02461 1.76615,2.02462 1.76615,5.55693 0,0.38769 -0.0287,0.77538 -0.0144,0.37334 -0.0431,0.66052 z m 3.61846,-6.63385 q -1.50769,0 -2.49846,1.07692 -0.99077,1.07693 -1.13436,3.36 h 7.02154 q -0.0431,-2.13949 -0.91897,-3.2882 -0.86154,-1.14872 -2.46975,-1.14872 z" id="path42880"/><path d="m 620.41508,242.96966 v 26.88 h -7.82565 v -2.54154 h 4.7959 v -21.76821 h -4.7959 v -2.57025 z" id="path42882"/><path d="m 674.41925,253.37991 v 2.62769 h -29.12 v -2.62769 z m 0,5.6718 v 2.62769 h -29.12 v -2.62769 z" id="path42884"/><path d="m 701.65824,252.89171 -0.47385,-7.68205 h 3.50359 l -0.4882,7.68205 z" id="path42886"/><path d="m 718.53004,249.17273 v 6.30359 h 7.4523 v 2.52718 h -7.4523 v 8.45744 h -3.33129 v -19.81539 h 12.19077 l -0.37333,2.52718 z" id="path42888"/><path d="m 736.11978,252.89171 -0.47384,-7.68205 h 3.50359 l -0.48821,7.68205 z" id="path42890"/></g>
	<g id="g41581"><path style="fill:#2686ca;fill-opacity:1" d="M 881.64001,44.64 H 0.0010028 L 0,30.897 C -0.00124512,13.833 13.833,0 30.897,0 h 819.84601 c 17.063,0 30.896,13.833 30.896,30.897 z" id="path26203" sodipodi:nodetypes="ccssssc"/><g id="g41563" style="stroke-width:13.8026" transform="matrix(0.50127704,0,0,0.50127704,818.45376,3.7727494)"><path d="M 37,72 A 1,1 0 0 1 36.578,71.907 C 19.185,63.811 8.8,49.853 8.8,34.57 V 13.46 A 1,1 0 0 1 9.127,12.72 0.992,0.992 0 0 1 9.896,12.464 C 20.887,13.518 29.508,10.209 36.24,2.35 A 1,1 0 0 1 37,2 1,1 0 0 1 37.76,2.352 c 6.586,7.733 15.213,11.048 26.357,10.111 a 1,1 0 0 1 1.083,1 V 34.57 a 29.339,29.339 0 0 1 -0.144,3 33.031,33.031 0 0 1 -1.475,7.2 31.017,31.017 0 0 1 -1.132,3.056 38.379,38.379 0 0 1 -4.011,7.183 c -0.2,0.3 -0.434,0.62 -0.669,0.939 A 53.361,53.361 0 0 1 37.422,71.907 1,1 0 0 1 37,72 Z M 10.8,14.547 V 34.57 c 0,14.362 9.785,27.539 26.2,35.33 A 51.137,51.137 0 0 0 56.149,54.781 c 0.226,-0.3 0.44,-0.592 0.635,-0.889 a 36.4,36.4 0 0 0 3.824,-6.841 29.481,29.481 0 0 0 1.067,-2.877 31.048,31.048 0 0 0 1.389,-6.793 A 26.935,26.935 0 0 0 63.2,34.57 V 14.535 C 52.3,15.2 43.707,11.91 37,4.513 30.158,12.029 21.567,15.319 10.8,14.547 Z" id="path35138" style="fill:#c11e2c;fill-opacity:1;stroke:#20283c;stroke-width:1.99491;stroke-dasharray:none;stroke-opacity:1"/><path d="m 58.031,38.47 a 0.884,0.884 0 0 1 -0.125,-0.008 1,1 0 0 1 -0.868,-1.116 22.223,22.223 0 0 0 0.162,-2.776 1.0000125,1.0000125 0 0 1 2,-0.01 v 0.01 a 24.073,24.073 0 0 1 -0.178,3.024 1,1 0 0 1 -0.991,0.876 z" id="path35140" style="fill:#c11e2c;fill-opacity:1;stroke:#20283c;stroke-width:1.99491;stroke-dasharray:none;stroke-opacity:1"/><path d="m 54.929,48.44 a 1,1 0 0 1 -0.884,-1.466 27.324,27.324 0 0 0 1.312,-2.864 1.0000445,1.0000445 0 1 1 1.866,0.72 29.149,29.149 0 0 1 -1.409,3.076 1,1 0 0 1 -0.885,0.534 z" id="path35142" style="fill:#c11e2c;fill-opacity:1;stroke:#20283c;stroke-width:1.99491;stroke-dasharray:none;stroke-opacity:1"/><path d="M 37,65.31 A 1.01,1.01 0 0 1 36.534,65.195 C 22.925,58.028 14.8,46.579 14.8,34.57 V 19.61 a 1,1 0 0 1 0.952,-1 33.729,33.729 0 0 0 20.6,-7.936 1,1 0 0 1 1.288,0 34.181,34.181 0 0 0 20.611,7.878 1,1 0 0 1 0.946,1 v 8.01 a 1,1 0 1 1 -2,0 V 20.487 A 36.02,36.02 0 0 1 37,12.734 35.561,35.561 0 0 1 16.8,20.552 V 34.57 c 0,11.285 7.354,21.688 20.2,28.607 A 45.135,45.135 0 0 0 49.247,53.771 1,1 0 1 1 50.733,55.109 47.372,47.372 0 0 1 37.466,65.195 1.01,1.01 0 0 1 37,65.31 Z" id="path35144" style="fill:#c11e2c;fill-opacity:1;stroke:#20283c;stroke-width:1.99491;stroke-dasharray:none;stroke-opacity:1"/></g></g>
	
	
	
</g></g></g></svg>