<?xml version="1.0" ?><svg xmlns="http://www.w3.org/2000/svg" xmlns:svg="http://www.w3.org/2000/svg" width="903.961" height="569.15997" viewBox="0 0 239.17329 150.59024" version="1.1" id="svg5" xml:space="preserve"><defs id="defs2"><rect x="22.319975" y="66.959999" width="1060.1989" height="669.60004" id="rect44902"/></defs><g id="layer1"><g id="g26287" transform="matrix(0.26458333,0,0,0.26458333,151.03674,16.444252)"><g id="g26211" transform="translate(-559.68753,-50.991504)">
	<path style="fill:#e6e6e6;fill-opacity:1" d="M 850.74201,546.84001 H 30.897 C 13.833,546.84001 0,533.00701 0,515.94301 V 42.057 C 0,24.993 13.833,11.16 30.897,11.16 h 819.84601 c 17.064,0 30.897,13.833 30.897,30.897 v 473.88601 c -10e-4,17.064 -13.834,30.897 -30.898,30.897 z" id="path26201"/>
	<path style="fill:#434141;fill-opacity:1" d="M 881.64001,44.64 H 0.0010028 L 0,30.897 C -0.00124512,13.833 13.833,0 30.897,0 h 819.84601 c 17.063,0 30.896,13.833 30.896,30.897 z" id="path26203"/>
	
	
	
<g aria-label="void chacha20_quarterRound(int[] x, int a, int b, int c, int d) {   x[a] += x[b];   x[d] = ROTATE(x[d] ^ x[a], 16);   x[c] += x[d];   x[b] = ROTATE(x[b] ^ x[c], 12);   x[a] += x[b];   x[d] = ROTATE(x[d] ^ x[a], 8);   x[c] += x[d];   x[b] = ROTATE(x[b] ^ x[c], 7); } " transform="matrix(1.0000012,0,0,1.0000012,-11.160337,-10.869991)" id="text44900" style="font-weight:500;font-size:16px;line-height:3.1;font-family:'Fira Code';-inkscape-font-specification:'Fira Code, Medium';white-space:pre;shape-inside:url(#rect44902);display:inline;fill:#434141;stroke-width:3.78;stroke-linecap:round;stroke-linejoin:round;stroke-miterlimit:2;paint-order:stroke fill markers"><path d="m 31.370569,87.096321 -3.052308,8.664616 H 26.168518 L 23.11621,87.096321 h 1.969231 l 2.198974,7.138462 2.20718,-7.138462 z" id="path48157"/><path d="m 37.097755,86.866578 q 1.90359,0 2.904616,1.238974 1.001025,1.238974 1.001025,3.306667 0,1.378461 -0.459487,2.404102 -0.451282,1.025641 -1.32923,1.6 -0.869744,0.566154 -2.125129,0.566154 -1.895384,0 -2.904615,-1.222564 -1.009231,-1.230769 -1.009231,-3.331282 0,-1.345641 0.451282,-2.371282 0.459487,-1.033846 1.337436,-1.608205 0.877949,-0.582564 2.133333,-0.582564 z m 0,1.427692 q -0.99282,0 -1.493333,0.763077 -0.500513,0.754872 -0.500513,2.371282 0,1.61641 0.492308,2.379487 0.500513,0.754872 1.493333,0.754872 0.992821,0 1.485129,-0.763077 0.500512,-0.763077 0.500512,-2.387692 0,-1.6 -0.492307,-2.354872 -0.492308,-0.763077 -1.485129,-0.763077 z" id="path48159"/><path d="m 46.927506,82.85427 q 0.541539,0 0.869744,0.328205 0.33641,0.328205 0.33641,0.820513 0,0.492308 -0.33641,0.828718 -0.328205,0.33641 -0.869744,0.33641 -0.525128,0 -0.861538,-0.33641 -0.336411,-0.33641 -0.336411,-0.828718 0,-0.492308 0.336411,-0.820513 0.33641,-0.328205 0.861538,-0.328205 z m 1.28,4.242051 v 7.318975 h 2.354872 v 1.345641 h -6.785641 v -1.345641 h 2.59282 v -5.973334 h -2.510769 v -1.345641 z" id="path48161"/><path d="m 58.406487,83.412219 1.837949,0.205128 v 12.14359 h -1.61641 L 58.496744,94.69427 q -0.443077,0.615385 -1.058462,0.951795 -0.615384,0.33641 -1.378461,0.33641 -1.115898,0 -1.837949,-0.566154 -0.713846,-0.574359 -1.066667,-1.6 -0.35282,-1.025641 -0.35282,-2.387692 0,-1.321026 0.410256,-2.346667 0.410257,-1.033846 1.173334,-1.624615 0.763077,-0.590769 1.837948,-0.590769 1.337436,0 2.182564,0.94359 z m -1.698461,4.865641 q -0.92718,0 -1.444103,0.771282 -0.516923,0.763077 -0.516923,2.379487 0,1.657436 0.467693,2.404103 0.475897,0.738461 1.32923,0.738461 0.62359,0 1.083077,-0.361025 0.459487,-0.361026 0.779487,-0.869744 V 89.23786 q -0.32,-0.459487 -0.746666,-0.705641 -0.426667,-0.254359 -0.951795,-0.254359 z" id="path48163"/><path d="m 77.18804,94.472732 q 0.60718,0 1.132308,-0.213334 0.525128,-0.213333 1.001025,-0.541538 l 0.853334,1.181538 q -0.566154,0.484103 -1.378462,0.787693 -0.804102,0.295384 -1.665641,0.295384 -1.329231,0 -2.281026,-0.557949 -0.943589,-0.566153 -1.444102,-1.575384 -0.492308,-1.017436 -0.492308,-2.379487 0,-1.321026 0.500513,-2.354872 0.508718,-1.042051 1.460513,-1.641026 0.951795,-0.607179 2.289231,-0.607179 1.739487,0 3.003077,1.042051 l -0.845129,1.156923 q -0.508718,-0.35282 -1.042051,-0.533333 -0.533333,-0.188718 -1.083077,-0.188718 -1.033846,0 -1.682051,0.754872 -0.648205,0.754871 -0.648205,2.371282 0,1.624615 0.65641,2.313846 0.65641,0.689231 1.665641,0.689231 z" id="path48165"/><path d="m 84.695739,83.436834 v 4.717949 q 0.525129,-0.64 1.222564,-0.96 0.705641,-0.328205 1.460513,-0.328205 1.222564,0 1.821539,0.681025 0.598974,0.681026 0.598974,1.895385 v 6.317949 H 87.96138 v -6.030769 q 0,-0.779488 -0.295384,-1.115898 -0.295385,-0.344615 -0.951795,-0.344615 -0.615385,0 -1.140513,0.402051 -0.525128,0.393846 -0.877949,0.894359 v 6.194872 h -1.837948 v -12.12718 z" id="path48167"/><path d="m 99.32549,93.635809 q 0,0.516923 0.155897,0.746666 0.155898,0.229744 0.500513,0.344616 l -0.410256,1.247179 q -0.64,-0.07385 -1.107692,-0.35282 -0.459488,-0.278975 -0.689231,-0.845129 -0.475898,0.60718 -1.206154,0.91077 -0.730256,0.295384 -1.558974,0.295384 -1.321026,0 -2.084103,-0.738461 -0.763077,-0.746667 -0.763077,-1.952821 0,-1.370256 1.066667,-2.108718 1.066666,-0.738461 3.052307,-0.738461 h 1.238975 V 89.87786 q 0,-0.845128 -0.508718,-1.206154 -0.508718,-0.369231 -1.419487,-0.369231 -0.426667,0 -1.033846,0.114872 -0.60718,0.106667 -1.271795,0.33641 l -0.451282,-1.29641 q 0.812307,-0.30359 1.591794,-0.443077 0.779488,-0.147692 1.444103,-0.147692 1.739487,0 2.592821,0.771282 0.861538,0.771282 0.861538,2.133333 z m -3.757949,0.99282 q 0.557949,0 1.091282,-0.295385 0.533334,-0.295384 0.861539,-0.828718 v -1.911794 h -1.017436 q -1.29641,0 -1.854359,0.434871 -0.557949,0.426667 -0.557949,1.181539 0,1.419487 1.476923,1.419487 z" id="path48169"/><path d="m 106.72652,94.472732 q 0.60718,0 1.13231,-0.213334 0.52513,-0.213333 1.00103,-0.541538 l 0.85333,1.181538 q -0.56615,0.484103 -1.37846,0.787693 -0.8041,0.295384 -1.66564,0.295384 -1.32923,0 -2.28103,-0.557949 -0.94359,-0.566153 -1.4441,-1.575384 -0.49231,-1.017436 -0.49231,-2.379487 0,-1.321026 0.50051,-2.354872 0.50872,-1.042051 1.46052,-1.641026 0.95179,-0.607179 2.28923,-0.607179 1.73948,0 3.00307,1.042051 l -0.84512,1.156923 q -0.50872,-0.35282 -1.04206,-0.533333 -0.53333,-0.188718 -1.08307,-0.188718 -1.03385,0 -1.68205,0.754872 -0.64821,0.754871 -0.64821,2.371282 0,1.624615 0.65641,2.313846 0.65641,0.689231 1.66564,0.689231 z" id="path48171"/><path d="m 114.23422,83.436834 v 4.717949 q 0.52513,-0.64 1.22257,-0.96 0.70564,-0.328205 1.46051,-0.328205 1.22256,0 1.82154,0.681025 0.59897,0.681026 0.59897,1.895385 v 6.317949 h -1.83795 v -6.030769 q 0,-0.779488 -0.29538,-1.115898 -0.29539,-0.344615 -0.9518,-0.344615 -0.61538,0 -1.14051,0.402051 -0.52513,0.393846 -0.87795,0.894359 v 6.194872 h -1.83795 v -12.12718 z" id="path48173"/><path d="m 128.86397,93.635809 q 0,0.516923 0.1559,0.746666 0.1559,0.229744 0.50051,0.344616 l -0.41025,1.247179 q -0.64,-0.07385 -1.1077,-0.35282 -0.45948,-0.278975 -0.68923,-0.845129 -0.47589,0.60718 -1.20615,0.91077 -0.73026,0.295384 -1.55897,0.295384 -1.32103,0 -2.08411,-0.738461 -0.76307,-0.746667 -0.76307,-1.952821 0,-1.370256 1.06666,-2.108718 1.06667,-0.738461 3.05231,-0.738461 h 1.23897 V 89.87786 q 0,-0.845128 -0.50871,-1.206154 -0.50872,-0.369231 -1.41949,-0.369231 -0.42667,0 -1.03385,0.114872 -0.60718,0.106667 -1.27179,0.33641 l -0.45128,-1.29641 q 0.8123,-0.30359 1.59179,-0.443077 0.77949,-0.147692 1.4441,-0.147692 1.73949,0 2.59282,0.771282 0.86154,0.771282 0.86154,2.133333 z m -3.75795,0.99282 q 0.55795,0 1.09129,-0.295385 0.53333,-0.295384 0.86153,-0.828718 v -1.911794 h -1.01743 q -1.29641,0 -1.85436,0.434871 -0.55795,0.426667 -0.55795,1.181539 0,1.419487 1.47692,1.419487 z" id="path48175"/><path d="m 135.09167,84.208116 q 1.14872,0 1.95282,0.434872 0.80411,0.426667 1.22257,1.156923 0.42666,0.722051 0.42666,1.608205 0,0.746667 -0.26256,1.460513 -0.25436,0.705641 -0.82872,1.493333 -0.56615,0.779488 -1.50154,1.739488 -0.93538,0.951794 -2.28923,2.182564 h 5.14462 l -0.21334,1.476923 h -7.04 v -1.394872 q 1.52616,-1.468718 2.51077,-2.494359 0.99282,-1.025641 1.55077,-1.772308 0.56616,-0.746666 0.7959,-1.345641 0.22974,-0.607179 0.22974,-1.230769 0,-0.853333 -0.4841,-1.345641 -0.4841,-0.492308 -1.34564,-0.492308 -0.76308,0 -1.28,0.278975 -0.50872,0.278974 -1.00923,0.902564 l -1.19795,-0.910769 q 0.66462,-0.845129 1.52615,-1.296411 0.86154,-0.451282 2.09231,-0.451282 z" id="path48177"/><path d="m 145.39732,84.208116 q 1.90359,0 2.88,1.534359 0.97641,1.534359 0.97641,4.340513 0,2.822564 -0.97641,4.365128 -0.97641,1.534359 -2.88,1.534359 -1.90359,0 -2.88,-1.534359 -0.97641,-1.542564 -0.97641,-4.365128 0,-2.806154 0.97641,-4.340513 0.97641,-1.534359 2.88,-1.534359 z m 0,1.403077 q -0.97641,0 -1.50154,1.042051 -0.52513,1.033847 -0.52513,3.429744 0,1.747692 0.21334,2.724103 l 3.2,-6.531282 q -0.23795,-0.352821 -0.58257,-0.508718 -0.34461,-0.155898 -0.8041,-0.155898 z m 2.02667,4.471795 q 0,-1.567179 -0.17231,-2.502564 l -3.15898,6.449231 q 0.44308,0.549743 1.30462,0.549743 0.98462,0 1.50154,-1.033846 0.52513,-1.033846 0.52513,-3.462564 z" id="path48179"/><path d="m 151.14092,98.764014 v -1.517949 h 8.20513 v 1.517949 z" id="path48181"/><path d="m 164.5399,86.866578 q 1.4441,0 2.31384,1.074872 l 0.11488,-0.845129 h 1.58359 v 12.201026 l -1.83795,-0.205128 v -4.283077 q -0.89436,1.173333 -2.35487,1.173333 -1.14872,0 -1.84616,-0.566154 -0.69743,-0.566153 -1.01743,-1.591795 -0.32,-1.025641 -0.32,-2.395897 0,-1.321026 0.38564,-2.346667 0.39384,-1.033846 1.14051,-1.624615 0.75487,-0.590769 1.83795,-0.590769 z m 0.4759,1.411282 q -0.94359,0 -1.4277,0.771282 -0.4841,0.763077 -0.4841,2.379487 0,1.657436 0.44308,2.387692 0.45128,0.730257 1.30461,0.730257 0.61539,0 1.07487,-0.344616 0.4677,-0.35282 0.7877,-0.861538 V 89.23786 q -0.30359,-0.459487 -0.73846,-0.705641 -0.43488,-0.254359 -0.96,-0.254359 z" id="path48183"/><path d="m 173.31119,87.096321 v 6.055385 q 0,0.771282 0.30359,1.099487 0.31179,0.328205 0.93538,0.328205 0.59077,0 1.14051,-0.35282 0.54975,-0.352821 0.86975,-0.861539 v -6.268718 h 1.83795 v 8.664616 h -1.58359 l -0.11487,-1.107693 q -0.48411,0.648206 -1.22257,0.992821 -0.73846,0.33641 -1.50974,0.33641 -1.26359,0 -1.87898,-0.689231 -0.61538,-0.697435 -0.61538,-1.911794 v -6.285129 z" id="path48185"/><path d="m 187.94094,93.635809 q 0,0.516923 0.1559,0.746666 0.15589,0.229744 0.50051,0.344616 l -0.41026,1.247179 q -0.64,-0.07385 -1.10769,-0.35282 -0.45949,-0.278975 -0.68923,-0.845129 -0.4759,0.60718 -1.20616,0.91077 -0.73025,0.295384 -1.55897,0.295384 -1.32103,0 -2.0841,-0.738461 -0.76308,-0.746667 -0.76308,-1.952821 0,-1.370256 1.06667,-2.108718 1.06666,-0.738461 3.05231,-0.738461 h 1.23897 V 89.87786 q 0,-0.845128 -0.50872,-1.206154 -0.50872,-0.369231 -1.41949,-0.369231 -0.42666,0 -1.03384,0.114872 -0.60718,0.106667 -1.2718,0.33641 l -0.45128,-1.29641 q 0.81231,-0.30359 1.5918,-0.443077 0.77948,-0.147692 1.4441,-0.147692 1.73949,0 2.59282,0.771282 0.86154,0.771282 0.86154,2.133333 z m -3.75795,0.99282 q 0.55795,0 1.09128,-0.295385 0.53333,-0.295384 0.86154,-0.828718 v -1.911794 h -1.01744 q -1.29641,0 -1.85436,0.434871 -0.55794,0.426667 -0.55794,1.181539 0,1.419487 1.47692,1.419487 z" id="path48187"/><path d="m 191.24761,95.760937 v -1.312821 h 1.2718 v -6.047179 h -1.2718 v -1.304616 h 2.67487 l 0.33641,2.010257 q 0.48411,-1.091282 1.19795,-1.657436 0.72205,-0.574359 1.85436,-0.574359 0.38564,0 0.68923,0.06564 0.3118,0.05744 0.61539,0.155897 l -0.3118,3.191795 h -1.31282 v -1.764102 q -0.91897,0.03282 -1.58359,0.738461 -0.66461,0.697436 -1.05025,1.969231 v 3.21641 h 1.74769 v 1.312821 z" id="path48189"/><path d="m 208.24864,95.30145 q -0.47589,0.303589 -1.14051,0.492307 -0.66461,0.188718 -1.38667,0.188718 -1.50974,0 -2.29743,-0.779487 -0.77949,-0.787692 -0.77949,-2.067692 v -4.701539 h -1.9282 v -1.337436 h 1.9282 v -1.93641 l 1.83795,-0.221538 v 2.157948 h 2.92103 l -0.20513,1.337436 h -2.7159 v 4.685128 q 0,0.697436 0.34462,1.042052 0.35282,0.33641 1.14871,0.33641 0.4759,0 0.86975,-0.114872 0.40205,-0.114872 0.73846,-0.295384 z" id="path48191"/><path d="m 212.38404,92.019398 q 0.0821,1.337436 0.74666,1.936411 0.67282,0.598974 1.61641,0.598974 0.6318,0 1.17334,-0.196923 0.54974,-0.196923 1.09948,-0.557949 l 0.7959,1.099487 q -0.60718,0.492308 -1.41949,0.787693 -0.8123,0.295384 -1.73948,0.295384 -1.35385,0 -2.28923,-0.574359 -0.92718,-0.574359 -1.41129,-1.6 -0.47589,-1.025641 -0.47589,-2.371282 0,-1.304615 0.47589,-2.330256 0.4759,-1.033846 1.36206,-1.632821 0.88615,-0.607179 2.11692,-0.607179 1.72308,0 2.7241,1.156923 1.00923,1.156923 1.00923,3.175384 0,0.221539 -0.0164,0.443077 -0.008,0.213334 -0.0246,0.377436 z m 2.06769,-3.790769 q -0.86154,0 -1.42769,0.615385 -0.56616,0.615384 -0.64821,1.92 h 4.01231 q -0.0246,-1.222564 -0.52513,-1.878975 -0.49231,-0.65641 -1.41128,-0.65641 z" id="path48193"/><path d="m 220.78609,95.760937 v -1.312821 h 1.2718 v -6.047179 h -1.2718 v -1.304616 h 2.67488 l 0.33641,2.010257 q 0.4841,-1.091282 1.19795,-1.657436 0.72205,-0.574359 1.85435,-0.574359 0.38565,0 0.68923,0.06564 0.3118,0.05744 0.61539,0.155897 l -0.3118,3.191795 h -1.31282 v -1.764102 q -0.91897,0.03282 -1.58359,0.738461 -0.66461,0.697436 -1.05025,1.969231 v 3.21641 h 1.74769 v 1.312821 z" id="path48195"/><path d="m 238.0579,87.711706 q 0,1.255385 -0.74667,2.026667 -0.74667,0.771282 -1.82974,1.091282 l 3.2082,4.931282 h -2.21538 l -2.84718,-4.660513 h -1.23898 v 4.660513 h -1.90359 V 84.43786 h 3.15898 q 2.17436,0 3.29025,0.820513 1.12411,0.812307 1.12411,2.453333 z m -1.99385,0 q 0,-0.984615 -0.57436,-1.419487 -0.57436,-0.443077 -1.73949,-0.443077 h -1.36205 v 3.85641 h 1.40308 q 1.08308,0 1.67385,-0.459487 0.59897,-0.467692 0.59897,-1.534359 z" id="path48197"/><path d="m 243.86713,86.866578 q 1.90359,0 2.90462,1.238974 1.00103,1.238974 1.00103,3.306667 0,1.378461 -0.45949,2.404102 -0.45128,1.025641 -1.32923,1.6 -0.86975,0.566154 -2.12513,0.566154 -1.89539,0 -2.90462,-1.222564 -1.00923,-1.230769 -1.00923,-3.331282 0,-1.345641 0.45128,-2.371282 0.45949,-1.033846 1.33744,-1.608205 0.87795,-0.582564 2.13333,-0.582564 z m 0,1.427692 q -0.99282,0 -1.49333,0.763077 -0.50051,0.754872 -0.50051,2.371282 0,1.61641 0.49231,2.379487 0.50051,0.754872 1.49333,0.754872 0.99282,0 1.48513,-0.763077 0.50051,-0.763077 0.50051,-2.387692 0,-1.6 -0.49231,-2.354872 -0.49231,-0.763077 -1.48513,-0.763077 z" id="path48199"/><path d="m 252.08047,87.096321 v 6.055385 q 0,0.771282 0.30359,1.099487 0.3118,0.328205 0.93539,0.328205 0.59077,0 1.14051,-0.35282 0.54975,-0.352821 0.86975,-0.861539 v -6.268718 h 1.83794 v 8.664616 h -1.58359 l -0.11487,-1.107693 q -0.4841,0.648206 -1.22256,0.992821 -0.73846,0.33641 -1.50975,0.33641 -1.26359,0 -1.87897,-0.689231 -0.61538,-0.697435 -0.61538,-1.911794 v -6.285129 z" id="path48201"/><path d="m 260.08869,95.760937 v -8.664616 h 1.58359 l 0.13948,1.124103 q 0.54154,-0.65641 1.28,-1.001026 0.73847,-0.35282 1.51795,-0.35282 1.21436,0 1.81334,0.681025 0.60718,0.681026 0.60718,1.895385 v 6.317949 h -1.83795 v -5.40718 q 0,-1.124102 -0.22975,-1.6 -0.22154,-0.484102 -1.00923,-0.484102 -0.63179,0 -1.15692,0.393846 -0.51692,0.385641 -0.86974,0.877949 v 6.219487 z" id="path48203"/><path d="m 275.02203,83.412219 1.83795,0.205128 v 12.14359 h -1.61641 l -0.13129,-1.066667 q -0.44307,0.615385 -1.05846,0.951795 -0.61538,0.33641 -1.37846,0.33641 -1.1159,0 -1.83795,-0.566154 -0.71384,-0.574359 -1.06667,-1.6 -0.35282,-1.025641 -0.35282,-2.387692 0,-1.321026 0.41026,-2.346667 0.41026,-1.033846 1.17333,-1.624615 0.76308,-0.590769 1.83795,-0.590769 1.33744,0 2.18257,0.94359 z m -1.69846,4.865641 q -0.92718,0 -1.44411,0.771282 -0.51692,0.763077 -0.51692,2.379487 0,1.657436 0.46769,2.404103 0.4759,0.738461 1.32923,0.738461 0.62359,0 1.08308,-0.361025 0.45949,-0.361026 0.77949,-0.869744 V 89.23786 q -0.32,-0.459487 -0.74667,-0.705641 -0.42667,-0.254359 -0.95179,-0.254359 z" id="path48205"/><path d="m 282.11126,90.017347 q 0,1.575385 0.34462,2.765128 0.35282,1.189744 1.09128,2.231795 0.74667,1.042051 1.92,2.166154 l -1.01743,0.984615 q -1.32103,-1.091282 -2.27282,-2.27282 -0.94359,-1.181539 -1.45231,-2.601026 -0.50872,-1.427692 -0.50872,-3.273846 0,-1.846154 0.50872,-3.265641 0.50872,-1.427692 1.45231,-2.609231 0.95179,-1.181538 2.27282,-2.27282 l 1.01743,0.984615 q -1.14872,1.107692 -1.89538,2.149744 -0.74667,1.033846 -1.10769,2.231795 -0.35283,1.197948 -0.35283,2.781538 z" id="path48207"/><path d="m 293.08153,82.85427 q 0.54154,0 0.86974,0.328205 0.33641,0.328205 0.33641,0.820513 0,0.492308 -0.33641,0.828718 -0.3282,0.33641 -0.86974,0.33641 -0.52513,0 -0.86154,-0.33641 -0.33641,-0.33641 -0.33641,-0.828718 0,-0.492308 0.33641,-0.820513 0.33641,-0.328205 0.86154,-0.328205 z m 1.28,4.242051 v 7.318975 h 2.35487 v 1.345641 h -6.78564 v -1.345641 h 2.59282 v -5.973334 h -2.51077 v -1.345641 z" id="path48209"/><path d="m 299.47333,95.760937 v -8.664616 h 1.58359 l 0.13949,1.124103 q 0.54154,-0.65641 1.28,-1.001026 0.73846,-0.35282 1.51795,-0.35282 1.21435,0 1.81333,0.681025 0.60718,0.681026 0.60718,1.895385 v 6.317949 h -1.83795 v -5.40718 q 0,-1.124102 -0.22974,-1.6 -0.22154,-0.484102 -1.00923,-0.484102 -0.6318,0 -1.15693,0.393846 -0.51692,0.385641 -0.86974,0.877949 v 6.219487 z" id="path48211"/><path d="m 316.55641,95.30145 q -0.47589,0.303589 -1.14051,0.492307 -0.66461,0.188718 -1.38667,0.188718 -1.50974,0 -2.29743,-0.779487 -0.77949,-0.787692 -0.77949,-2.067692 v -4.701539 h -1.9282 v -1.337436 h 1.9282 v -1.93641 l 1.83795,-0.221538 v 2.157948 h 2.92103 l -0.20513,1.337436 h -2.7159 v 4.685128 q 0,0.697436 0.34462,1.042052 0.35282,0.33641 1.14871,0.33641 0.4759,0 0.86975,-0.114872 0.40205,-0.114872 0.73846,-0.295384 z" id="path48213"/><path d="m 320.55232,97.697347 v -15.36 h 4.47179 v 1.468718 h -2.74051 v 12.438974 h 2.74051 v 1.452308 z" id="path48215"/><path d="m 334.55027,82.337347 v 15.36 h -4.47179 v -1.452308 h 2.74051 V 83.806065 h -2.74051 v -1.468718 z" id="path48217"/><path d="m 349.98413,95.760937 h -2.03487 l 3.10975,-4.570257 -2.76513,-4.094359 h 2.11692 l 1.77231,3.052308 1.77231,-3.052308 h 2.01846 l -2.70769,4.020513 3.11794,4.644103 h -2.15794 l -2.12513,-3.536411 z" id="path48219"/><path d="m 362.01286,92.807091 q 0.6482,0 1.07487,0.434871 0.42667,0.426667 0.42667,1.050257 0,0.369231 -0.11487,0.738461 -0.10667,0.369231 -0.35282,0.918975 l -1.2718,2.904615 h -1.42769 l 0.8041,-3.331282 q -0.62359,-0.418462 -0.62359,-1.238974 0,-0.615385 0.42667,-1.042052 0.42666,-0.434871 1.05846,-0.434871 z" id="path48221"/><path d="m 381.69698,82.85427 q 0.54153,0 0.86974,0.328205 0.33641,0.328205 0.33641,0.820513 0,0.492308 -0.33641,0.828718 -0.32821,0.33641 -0.86974,0.33641 -0.52513,0 -0.86154,-0.33641 -0.33641,-0.33641 -0.33641,-0.828718 0,-0.492308 0.33641,-0.820513 0.33641,-0.328205 0.86154,-0.328205 z m 1.28,4.242051 v 7.318975 h 2.35487 v 1.345641 h -6.78564 v -1.345641 h 2.59282 v -5.973334 h -2.51077 v -1.345641 z" id="path48223"/><path d="m 388.08878,95.760937 v -8.664616 h 1.58359 l 0.13949,1.124103 q 0.54153,-0.65641 1.28,-1.001026 0.73846,-0.35282 1.51794,-0.35282 1.21436,0 1.81334,0.681025 0.60718,0.681026 0.60718,1.895385 v 6.317949 h -1.83795 v -5.40718 q 0,-1.124102 -0.22975,-1.6 -0.22153,-0.484102 -1.00923,-0.484102 -0.63179,0 -1.15692,0.393846 -0.51692,0.385641 -0.86974,0.877949 v 6.219487 z" id="path48225"/><path d="m 405.17186,95.30145 q -0.4759,0.303589 -1.14051,0.492307 -0.66462,0.188718 -1.38667,0.188718 -1.50974,0 -2.29743,-0.779487 -0.77949,-0.787692 -0.77949,-2.067692 v -4.701539 h -1.92821 v -1.337436 h 1.92821 v -1.93641 l 1.83795,-0.221538 v 2.157948 h 2.92102 l -0.20512,1.337436 h -2.7159 v 4.685128 q 0,0.697436 0.34461,1.042052 0.35282,0.33641 1.14872,0.33641 0.4759,0 0.86975,-0.114872 0.40205,-0.114872 0.73846,-0.295384 z" id="path48227"/><path d="m 424.2488,93.635809 q 0,0.516923 0.1559,0.746666 0.15589,0.229744 0.50051,0.344616 l -0.41026,1.247179 q -0.64,-0.07385 -1.10769,-0.35282 -0.45949,-0.278975 -0.68923,-0.845129 -0.4759,0.60718 -1.20615,0.91077 -0.73026,0.295384 -1.55898,0.295384 -1.32102,0 -2.0841,-0.738461 -0.76308,-0.746667 -0.76308,-1.952821 0,-1.370256 1.06667,-2.108718 1.06667,-0.738461 3.05231,-0.738461 h 1.23897 V 89.87786 q 0,-0.845128 -0.50872,-1.206154 -0.50871,-0.369231 -1.41948,-0.369231 -0.42667,0 -1.03385,0.114872 -0.60718,0.106667 -1.2718,0.33641 l -0.45128,-1.29641 q 0.81231,-0.30359 1.5918,-0.443077 0.77948,-0.147692 1.4441,-0.147692 1.73949,0 2.59282,0.771282 0.86154,0.771282 0.86154,2.133333 z m -3.75795,0.99282 q 0.55795,0 1.09128,-0.295385 0.53334,-0.295384 0.86154,-0.828718 v -1.911794 h -1.01743 q -1.29642,0 -1.85436,0.434871 -0.55795,0.426667 -0.55795,1.181539 0,1.419487 1.47692,1.419487 z" id="path48229"/><path d="m 430.93599,92.807091 q 0.6482,0 1.07487,0.434871 0.42666,0.426667 0.42666,1.050257 0,0.369231 -0.11487,0.738461 -0.10666,0.369231 -0.35282,0.918975 l -1.27179,2.904615 h -1.4277 l 0.80411,-3.331282 q -0.62359,-0.418462 -0.62359,-1.238974 0,-0.615385 0.42666,-1.042052 0.42667,-0.434871 1.05847,-0.434871 z" id="path48231"/><path d="m 450.6201,82.85427 q 0.54154,0 0.86975,0.328205 0.33641,0.328205 0.33641,0.820513 0,0.492308 -0.33641,0.828718 -0.32821,0.33641 -0.86975,0.33641 -0.52513,0 -0.86154,-0.33641 -0.33641,-0.33641 -0.33641,-0.828718 0,-0.492308 0.33641,-0.820513 0.33641,-0.328205 0.86154,-0.328205 z m 1.28,4.242051 v 7.318975 h 2.35487 v 1.345641 h -6.78564 v -1.345641 h 2.59282 v -5.973334 h -2.51077 v -1.345641 z" id="path48233"/><path d="m 457.0119,95.760937 v -8.664616 h 1.58359 l 0.13949,1.124103 q 0.54154,-0.65641 1.28,-1.001026 0.73846,-0.35282 1.51795,-0.35282 1.21436,0 1.81333,0.681025 0.60718,0.681026 0.60718,1.895385 v 6.317949 h -1.83795 v -5.40718 q 0,-1.124102 -0.22974,-1.6 -0.22154,-0.484102 -1.00923,-0.484102 -0.6318,0 -1.15692,0.393846 -0.51693,0.385641 -0.86975,0.877949 v 6.219487 z" id="path48235"/><path d="m 474.09499,95.30145 q -0.4759,0.303589 -1.14051,0.492307 -0.66462,0.188718 -1.38667,0.188718 -1.50974,0 -2.29744,-0.779487 -0.77948,-0.787692 -0.77948,-2.067692 v -4.701539 h -1.92821 v -1.337436 h 1.92821 v -1.93641 l 1.83794,-0.221538 v 2.157948 h 2.92103 l -0.20513,1.337436 h -2.7159 v 4.685128 q 0,0.697436 0.34462,1.042052 0.35282,0.33641 1.14872,0.33641 0.4759,0 0.86974,-0.114872 0.40205,-0.114872 0.73846,-0.295384 z" id="path48237"/><path d="m 488.38834,88.130168 q 0.44307,-0.59077 1.05025,-0.92718 0.60718,-0.33641 1.32923,-0.33641 1.14052,0 1.84616,0.566154 0.71384,0.557948 1.04205,1.583589 0.33641,1.017436 0.33641,2.395898 0,1.321025 -0.39385,2.354872 -0.39384,1.033846 -1.16513,1.624615 -0.76307,0.590769 -1.88718,0.590769 -1.4523,0 -2.28102,-1.074872 l -0.0985,0.853334 h -1.61641 v -12.14359 l 1.83795,-0.205128 z m 1.69846,6.44923 q 0.93538,0 1.4441,-0.763077 0.51692,-0.763077 0.51692,-2.395897 0,-1.665641 -0.46769,-2.395898 -0.45949,-0.738461 -1.31282,-0.738461 -0.61538,0 -1.09128,0.369231 -0.46769,0.36923 -0.78769,0.869743 v 4.053334 q 0.30359,0.467692 0.73025,0.738461 0.43487,0.262564 0.96821,0.262564 z" id="path48239"/><path d="m 499.85911,92.807091 q 0.64821,0 1.07487,0.434871 0.42667,0.426667 0.42667,1.050257 0,0.369231 -0.11487,0.738461 -0.10667,0.369231 -0.35282,0.918975 l -1.2718,2.904615 h -1.42769 l 0.8041,-3.331282 q -0.62359,-0.418462 -0.62359,-1.238974 0,-0.615385 0.42667,-1.042052 0.42667,-0.434871 1.05846,-0.434871 z" id="path48241"/><path d="m 519.54323,82.85427 q 0.54154,0 0.86974,0.328205 0.33641,0.328205 0.33641,0.820513 0,0.492308 -0.33641,0.828718 -0.3282,0.33641 -0.86974,0.33641 -0.52513,0 -0.86154,-0.33641 -0.33641,-0.33641 -0.33641,-0.828718 0,-0.492308 0.33641,-0.820513 0.33641,-0.328205 0.86154,-0.328205 z m 1.28,4.242051 v 7.318975 h 2.35487 v 1.345641 h -6.78564 v -1.345641 h 2.59282 v -5.973334 h -2.51077 v -1.345641 z" id="path48243"/><path d="m 525.93503,95.760937 v -8.664616 h 1.58359 l 0.13949,1.124103 q 0.54154,-0.65641 1.28,-1.001026 0.73846,-0.35282 1.51795,-0.35282 1.21436,0 1.81333,0.681025 0.60718,0.681026 0.60718,1.895385 v 6.317949 h -1.83795 v -5.40718 q 0,-1.124102 -0.22974,-1.6 -0.22154,-0.484102 -1.00923,-0.484102 -0.6318,0 -1.15693,0.393846 -0.51692,0.385641 -0.86974,0.877949 v 6.219487 z" id="path48245"/><path d="m 543.01811,95.30145 q -0.47589,0.303589 -1.14051,0.492307 -0.66461,0.188718 -1.38666,0.188718 -1.50975,0 -2.29744,-0.779487 -0.77949,-0.787692 -0.77949,-2.067692 v -4.701539 h -1.9282 v -1.337436 h 1.9282 v -1.93641 l 1.83795,-0.221538 v 2.157948 h 2.92103 l -0.20513,1.337436 h -2.7159 v 4.685128 q 0,0.697436 0.34462,1.042052 0.35282,0.33641 1.14871,0.33641 0.4759,0 0.86975,-0.114872 0.40205,-0.114872 0.73846,-0.295384 z" id="path48247"/><path d="m 559.64992,94.472732 q 0.60718,0 1.13231,-0.213334 0.52513,-0.213333 1.00103,-0.541538 l 0.85333,1.181538 q -0.56615,0.484103 -1.37846,0.787693 -0.8041,0.295384 -1.66564,0.295384 -1.32923,0 -2.28103,-0.557949 -0.94359,-0.566153 -1.4441,-1.575384 -0.49231,-1.017436 -0.49231,-2.379487 0,-1.321026 0.50051,-2.354872 0.50872,-1.042051 1.46052,-1.641026 0.95179,-0.607179 2.28923,-0.607179 1.73949,0 3.00308,1.042051 l -0.84513,1.156923 q -0.50872,-0.35282 -1.04205,-0.533333 -0.53334,-0.188718 -1.08308,-0.188718 -1.03385,0 -1.68205,0.754872 -0.64821,0.754871 -0.64821,2.371282 0,1.624615 0.65641,2.313846 0.65641,0.689231 1.66564,0.689231 z" id="path48249"/><path d="m 568.78221,92.807091 q 0.6482,0 1.07487,0.434871 0.42667,0.426667 0.42667,1.050257 0,0.369231 -0.11488,0.738461 -0.10666,0.369231 -0.35282,0.918975 l -1.27179,2.904615 h -1.42769 l 0.8041,-3.331282 q -0.62359,-0.418462 -0.62359,-1.238974 0,-0.615385 0.42667,-1.042052 0.42666,-0.434871 1.05846,-0.434871 z" id="path48251"/><path d="m 588.46639,82.85427 q 0.54153,0 0.86974,0.328205 0.33641,0.328205 0.33641,0.820513 0,0.492308 -0.33641,0.828718 -0.32821,0.33641 -0.86974,0.33641 -0.52513,0 -0.86154,-0.33641 -0.33641,-0.33641 -0.33641,-0.828718 0,-0.492308 0.33641,-0.820513 0.33641,-0.328205 0.86154,-0.328205 z m 1.28,4.242051 v 7.318975 h 2.35487 v 1.345641 h -6.78564 v -1.345641 h 2.59282 v -5.973334 h -2.51077 v -1.345641 z" id="path48253"/><path d="m 594.85816,95.760937 v -8.664616 h 1.58359 l 0.13948,1.124103 q 0.54154,-0.65641 1.28,-1.001026 0.73847,-0.35282 1.51795,-0.35282 1.21436,0 1.81334,0.681025 0.60718,0.681026 0.60718,1.895385 v 6.317949 h -1.83795 v -5.40718 q 0,-1.124102 -0.22975,-1.6 -0.22154,-0.484102 -1.00923,-0.484102 -0.63179,0 -1.15692,0.393846 -0.51692,0.385641 -0.86974,0.877949 v 6.219487 z" id="path48255"/><path d="m 611.94121,95.30145 q -0.4759,0.303589 -1.14051,0.492307 -0.66462,0.188718 -1.38667,0.188718 -1.50974,0 -2.29744,-0.779487 -0.77948,-0.787692 -0.77948,-2.067692 v -4.701539 h -1.92821 v -1.337436 h 1.92821 v -1.93641 l 1.83795,-0.221538 v 2.157948 h 2.92102 l -0.20513,1.337436 h -2.71589 v 4.685128 q 0,0.697436 0.34461,1.042052 0.35282,0.33641 1.14872,0.33641 0.4759,0 0.86974,-0.114872 0.40205,-0.114872 0.73846,-0.295384 z" id="path48257"/><path d="m 629.48385,83.412219 1.83795,0.205128 v 12.14359 h -1.61641 l -0.13128,-1.066667 q -0.44308,0.615385 -1.05847,0.951795 -0.61538,0.33641 -1.37846,0.33641 -1.11589,0 -1.83795,-0.566154 -0.71384,-0.574359 -1.06666,-1.6 -0.35282,-1.025641 -0.35282,-2.387692 0,-1.321026 0.41025,-2.346667 0.41026,-1.033846 1.17334,-1.624615 0.76307,-0.590769 1.83795,-0.590769 1.33743,0 2.18256,0.94359 z m -1.69846,4.865641 q -0.92718,0 -1.4441,0.771282 -0.51693,0.763077 -0.51693,2.379487 0,1.657436 0.46769,2.404103 0.4759,0.738461 1.32924,0.738461 0.62359,0 1.08307,-0.361025 0.45949,-0.361026 0.77949,-0.869744 V 89.23786 q -0.32,-0.459487 -0.74667,-0.705641 -0.42666,-0.254359 -0.95179,-0.254359 z" id="path48259"/><path d="m 638.83767,90.017347 q 0,-1.58359 -0.36102,-2.781538 -0.35282,-1.197949 -1.09949,-2.231795 -0.74667,-1.042052 -1.89539,-2.149744 l 1.01744,-0.984615 q 1.32103,1.091282 2.26462,2.27282 0.95179,1.181539 1.46051,2.609231 0.50872,1.419487 0.50872,3.265641 0,1.846154 -0.50872,3.273846 -0.50872,1.419487 -1.46051,2.601026 -0.94359,1.181538 -2.26462,2.27282 l -1.01744,-0.984615 q 1.17334,-1.124103 1.9118,-2.166154 0.74667,-1.042051 1.09128,-2.231795 0.35282,-1.189743 0.35282,-2.765128 z" id="path48261"/><path d="m 659.9741,82.025552 v 1.353846 q -0.84513,0 -1.38667,0.254359 -0.54154,0.254359 -0.46769,0.951795 l 0.30359,3.011282 q 0.12307,1.165128 -0.40205,1.714872 -0.52513,0.541538 -1.51795,0.705641 1.03384,0.172308 1.53436,0.697436 0.50871,0.516923 0.38564,1.723077 l -0.30359,3.011282 q -0.0738,0.705641 0.46769,0.951795 0.54154,0.254359 1.38667,0.254359 v 1.353846 q -1.14052,0 -1.98564,-0.246154 -0.83693,-0.246154 -1.26359,-0.845128 -0.41847,-0.598975 -0.30359,-1.641026 l 0.30359,-2.830769 q 0.0902,-0.869744 -0.44308,-1.28 -0.53333,-0.410256 -1.95282,-0.410256 v -1.476924 q 1.41949,0 1.95282,-0.402051 0.53333,-0.402051 0.44308,-1.28 l -0.30359,-2.830769 q -0.11488,-1.050256 0.30359,-1.649231 0.42666,-0.598974 1.26359,-0.845128 0.84512,-0.246154 1.98564,-0.246154 z" id="path48263"/><path d="m 44.753147,145.36094 h -2.034872 l 3.109744,-4.57026 -2.765128,-4.09436 h 2.116923 l 1.772307,3.05231 1.772308,-3.05231 h 2.018462 l -2.707693,4.02051 3.117949,4.64411 h -2.157949 l -2.125128,-3.53642 z" id="path48265"/><path d="m 54.705975,147.29735 v -15.36 h 4.471795 v 1.46871 h -2.740513 v 12.43898 h 2.740513 v 1.45231 z" id="path48267"/><path d="m 69.787007,143.23581 q 0,0.51692 0.155898,0.74666 0.155897,0.22975 0.500513,0.34462 l -0.410257,1.24718 q -0.64,-0.0739 -1.107692,-0.35282 -0.459487,-0.27898 -0.689231,-0.84513 -0.475897,0.60718 -1.206154,0.91077 -0.730256,0.29538 -1.558974,0.29538 -1.321026,0 -2.084103,-0.73846 -0.763077,-0.74666 -0.763077,-1.95282 0,-1.37025 1.066667,-2.10872 1.066667,-0.73846 3.052308,-0.73846 h 1.238974 v -0.56615 q 0,-0.84513 -0.508718,-1.20616 -0.508718,-0.36923 -1.419487,-0.36923 -0.426667,0 -1.033846,0.11488 -0.60718,0.10666 -1.271795,0.33641 l -0.451282,-1.29641 q 0.812308,-0.30359 1.591795,-0.44308 0.779487,-0.14769 1.444102,-0.14769 1.739488,0 2.592821,0.77128 0.861538,0.77128 0.861538,2.13333 z m -3.757948,0.99282 q 0.557948,0 1.091282,-0.29539 0.533333,-0.29538 0.861538,-0.82872 v -1.91179 h -1.017436 q -1.29641,0 -1.854359,0.43487 -0.557948,0.42667 -0.557948,1.18154 0,1.41949 1.476923,1.41949 z" id="path48269"/><path d="m 78.550091,131.93735 v 15.36 h -4.471795 v -1.45231 h 2.740513 v -12.43898 h -2.740513 v -1.46871 z" id="path48271"/><path d="m 96.962413,136.20401 v 3.30667 h 3.257437 v 1.47692 h -3.257437 v 3.29846 h -1.61641 v -3.29846 h -3.232821 v -1.47692 h 3.232821 v -3.30667 z" id="path48273"/><path d="m 109.4096,137.88606 v 1.50154 h -6.79385 v -1.50154 z m 0,3.24103 v 1.50154 h -6.79385 v -1.50154 z" id="path48275"/><path d="m 123.52243,145.36094 h -2.03487 l 3.10975,-4.57026 -2.76513,-4.09436 h 2.11692 l 1.77231,3.05231 1.77231,-3.05231 h 2.01846 l -2.70769,4.02051 3.11794,4.64411 h -2.15794 l -2.12513,-3.53642 z" id="path48277"/><path d="m 133.47526,147.29735 v -15.36 h 4.4718 v 1.46871 h -2.74052 v 12.43898 h 2.74052 v 1.45231 z" id="path48279"/><path d="m 143.7727,137.73017 q 0.44308,-0.59077 1.05026,-0.92718 0.60718,-0.33641 1.32923,-0.33641 1.14051,0 1.84616,0.56615 0.71384,0.55795 1.04205,1.58359 0.33641,1.01744 0.33641,2.3959 0,1.32102 -0.39385,2.35487 -0.39385,1.03385 -1.16513,1.62461 -0.76307,0.59077 -1.88718,0.59077 -1.4523,0 -2.28102,-1.07487 l -0.0985,0.85334 h -1.61641 v -12.14359 l 1.83794,-0.20513 z m 1.69847,6.44923 q 0.93538,0 1.4441,-0.76308 0.51692,-0.76308 0.51692,-2.3959 0,-1.66564 -0.46769,-2.3959 -0.45949,-0.73846 -1.31282,-0.73846 -0.61539,0 -1.09128,0.36923 -0.4677,0.36923 -0.7877,0.86975 v 4.05333 q 0.30359,0.46769 0.73026,0.73846 0.43487,0.26257 0.96821,0.26257 z" id="path48281"/><path d="m 157.31938,131.93735 v 15.36 h -4.4718 v -1.45231 h 2.74052 v -12.43898 h -2.74052 v -1.46871 z" id="path48283"/><path d="m 165.08144,136.80299 q 0.62359,0 1.05025,0.43487 0.42667,0.42666 0.42667,1.03384 0,0.60718 -0.42667,1.05026 -0.42666,0.43487 -1.05025,0.43487 -0.62359,0 -1.05026,-0.43487 -0.42667,-0.44308 -0.42667,-1.05026 0,-0.60718 0.42667,-1.03384 0.42667,-0.43487 1.05026,-0.43487 z m 0,5.64512 q 0.63179,0 1.05025,0.42667 0.42667,0.42667 0.42667,1.04205 0,0.36103 -0.11487,0.73026 -0.10667,0.36923 -0.34462,0.90256 l -1.25538,2.8718 h -1.41128 l 0.78769,-3.29026 q -0.61539,-0.42667 -0.61539,-1.22256 0,-0.60718 0.42667,-1.03385 0.42667,-0.42667 1.05026,-0.42667 z" id="path48285"/><path d="m 44.753147,194.96093 h -2.034872 l 3.109744,-4.57025 -2.765128,-4.09436 h 2.116923 l 1.772307,3.05231 1.772308,-3.05231 h 2.018462 l -2.707693,4.02051 3.117949,4.6441 h -2.157949 l -2.125128,-3.53641 z" id="path48287"/><path d="m 54.705975,196.89734 v -15.36 h 4.471795 v 1.46872 h -2.740513 v 12.43898 h 2.740513 v 1.4523 z" id="path48289"/><path d="m 68.252648,182.61222 1.837949,0.20512 v 12.14359 h -1.61641 l -0.131282,-1.06666 q -0.443077,0.61538 -1.058462,0.95179 -0.615384,0.33641 -1.378461,0.33641 -1.115898,0 -1.837949,-0.56615 -0.713846,-0.57436 -1.066667,-1.6 -0.35282,-1.02564 -0.35282,-2.38769 0,-1.32103 0.410256,-2.34667 0.410257,-1.03385 1.173334,-1.62462 0.763076,-0.59077 1.837948,-0.59077 1.337436,0 2.182564,0.94359 z m -1.698461,4.86564 q -0.92718,0 -1.444103,0.77128 -0.516923,0.76308 -0.516923,2.37949 0,1.65743 0.467692,2.4041 0.475898,0.73846 1.329231,0.73846 0.62359,0 1.083077,-0.36103 0.459487,-0.36102 0.779487,-0.86974 v -4.10256 q -0.32,-0.45949 -0.746666,-0.70564 -0.426667,-0.25436 -0.951795,-0.25436 z" id="path48291"/><path d="m 78.550091,181.53734 v 15.36 h -4.471795 v -1.4523 h 2.740513 v -12.43898 h -2.740513 v -1.46872 z" id="path48293"/><path d="m 99.563439,187.48606 v 1.50154 h -6.793846 v -1.50154 z m 0,3.24103 v 1.50154 h -6.793846 v -1.50154 z" id="path48295"/><path d="m 119.90397,186.9117 q 0,1.25539 -0.74667,2.02667 -0.74667,0.77128 -1.82974,1.09128 l 3.2082,4.93128 h -2.21538 l -2.84718,-4.66051 h -1.23898 v 4.66051 h -1.90359 v -11.32307 h 3.15898 q 2.17436,0 3.29025,0.82051 1.12411,0.81231 1.12411,2.45333 z m -1.99385,0 q 0,-0.98461 -0.57436,-1.41948 -0.57436,-0.44308 -1.73949,-0.44308 h -1.36205 v 3.85641 h 1.40308 q 1.08308,0 1.67385,-0.45949 0.59897,-0.46769 0.59897,-1.53436 z" id="path48297"/><path d="m 130.01269,189.2994 q 0,1.74769 -0.4841,3.07692 -0.4841,1.32102 -1.4441,2.06769 -0.96,0.73846 -2.37949,0.73846 -1.41949,0 -2.37949,-0.72205 -0.96,-0.72205 -1.4441,-2.04308 -0.4841,-1.32102 -0.4841,-3.10153 0,-1.7477 0.4841,-3.07693 0.4841,-1.32923 1.4441,-2.0759 0.96,-0.75487 2.37949,-0.75487 1.41949,0 2.37949,0.73026 0.96,0.73026 1.4441,2.05949 0.4841,1.32102 0.4841,3.10154 z m -1.96923,0 q 0,-2.19898 -0.54154,-3.29847 -0.54154,-1.10769 -1.79692,-1.10769 -1.25539,0 -1.79692,1.1159 -0.54154,1.10769 -0.54154,3.30667 0,2.19076 0.55795,3.29025 0.55794,1.09128 1.78051,1.09128 1.25538,0 1.79692,-1.09948 0.54154,-1.1077 0.54154,-3.29846 z" id="path48299"/><path d="m 136.47834,185.17222 v 9.78871 h -1.90359 v -9.78871 h -3.39692 v -1.53436 h 8.77948 l -0.19692,1.53436 z" id="path48301"/><path d="m 147.38296,192.23683 h -4.04513 l -0.78769,2.7241 h -1.93641 l 3.60205,-11.32307 h 2.36308 l 3.61025,11.32307 h -2.01846 z m -3.65128,-1.46872 h 3.24923 l -1.61641,-5.65333 z" id="path48303"/><path d="m 156.17066,185.17222 v 9.78871 h -1.90359 v -9.78871 h -3.39692 v -1.53436 h 8.77948 l -0.19692,1.53436 z" id="path48305"/><path d="m 163.92451,185.08196 v 3.40513 h 4.10257 v 1.4441 h -4.10257 v 3.58564 h 4.99693 v 1.4441 h -6.90052 v -11.32307 h 6.81026 l -0.21333,1.4441 z" id="path48307"/><path d="m 173.8035,189.21734 q 0,1.57539 0.34461,2.76513 0.35282,1.18975 1.09128,2.2318 0.74667,1.04205 1.92,2.16615 l -1.01743,0.98462 q -1.32103,-1.09129 -2.27282,-2.27282 -0.94359,-1.18154 -1.45231,-2.60103 -0.50872,-1.42769 -0.50872,-3.27385 0,-1.84615 0.50872,-3.26564 0.50872,-1.42769 1.45231,-2.60923 0.95179,-1.18154 2.27282,-2.27282 l 1.01743,0.98462 q -1.14872,1.10769 -1.89538,2.14974 -0.74667,1.03385 -1.10769,2.2318 -0.35282,1.19794 -0.35282,2.78153 z" id="path48309"/><path d="m 182.5994,194.96093 h -2.03487 l 3.10974,-4.57025 -2.76513,-4.09436 h 2.11693 l 1.7723,3.05231 1.77231,-3.05231 h 2.01846 l -2.70769,4.02051 3.11795,4.6441 h -2.15795 l -2.12513,-3.53641 z" id="path48311"/><path d="m 192.55223,196.89734 v -15.36 h 4.47179 v 1.46872 h -2.74051 v 12.43898 h 2.74051 v 1.4523 z" id="path48313"/><path d="m 206.0989,182.61222 1.83795,0.20512 v 12.14359 h -1.61641 l -0.13128,-1.06666 q -0.44308,0.61538 -1.05846,0.95179 -0.61539,0.33641 -1.37847,0.33641 -1.11589,0 -1.83794,-0.56615 -0.71385,-0.57436 -1.06667,-1.6 -0.35282,-1.02564 -0.35282,-2.38769 0,-1.32103 0.41025,-2.34667 0.41026,-1.03385 1.17334,-1.62462 0.76307,-0.59077 1.83795,-0.59077 1.33743,0 2.18256,0.94359 z m -1.69846,4.86564 q -0.92718,0 -1.4441,0.77128 -0.51693,0.76308 -0.51693,2.37949 0,1.65743 0.4677,2.4041 0.47589,0.73846 1.32923,0.73846 0.62359,0 1.08307,-0.36103 0.45949,-0.36102 0.77949,-0.86974 v -4.10256 q -0.32,-0.45949 -0.74667,-0.70564 -0.42666,-0.25436 -0.95179,-0.25436 z" id="path48315"/><path d="m 216.39634,181.53734 v 15.36 h -4.47179 v -1.4523 h 2.74051 v -12.43898 h -2.74051 v -1.46872 z" id="path48317"/><path d="m 234.84149,181.15991 3.10153,5.15282 h -1.88717 l -2.05949,-3.65128 -2.02667,3.65128 h -1.88718 l 3.10154,-5.15282 z" id="path48319"/><path d="m 251.52253,194.96093 h -2.03488 l 3.10975,-4.57025 -2.76513,-4.09436 h 2.11692 l 1.77231,3.05231 1.77231,-3.05231 h 2.01846 l -2.70769,4.02051 3.11795,4.6441 h -2.15795 l -2.12513,-3.53641 z" id="path48321"/><path d="m 261.47535,196.89734 v -15.36 h 4.4718 v 1.46872 h -2.74051 v 12.43898 h 2.74051 v 1.4523 z" id="path48323"/><path d="m 276.55639,192.83581 q 0,0.51692 0.15589,0.74666 0.1559,0.22975 0.50052,0.34462 l -0.41026,1.24718 q -0.64,-0.0738 -1.10769,-0.35282 -0.45949,-0.27898 -0.68923,-0.84513 -0.4759,0.60718 -1.20616,0.91077 -0.73025,0.29538 -1.55897,0.29538 -1.32103,0 -2.0841,-0.73846 -0.76308,-0.74667 -0.76308,-1.95282 0,-1.37026 1.06667,-2.10872 1.06666,-0.73846 3.0523,-0.73846 h 1.23898 v -0.56615 q 0,-0.84513 -0.50872,-1.20616 -0.50872,-0.36923 -1.41949,-0.36923 -0.42666,0 -1.03384,0.11487 -0.60718,0.10667 -1.2718,0.33641 l -0.45128,-1.29641 q 0.81231,-0.30359 1.59179,-0.44307 0.77949,-0.1477 1.44411,-0.1477 1.73948,0 2.59282,0.77129 0.86154,0.77128 0.86154,2.13333 z m -3.75795,0.99282 q 0.55795,0 1.09128,-0.29539 0.53333,-0.29538 0.86154,-0.82872 v -1.91179 h -1.01744 q -1.29641,0 -1.85436,0.43487 -0.55795,0.42667 -0.55795,1.18154 0,1.41949 1.47693,1.41949 z" id="path48325"/><path d="m 285.31947,181.53734 v 15.36 h -4.47179 v -1.4523 h 2.74051 v -12.43898 h -2.74051 v -1.46872 z" id="path48327"/><path d="m 293.08973,192.00709 q 0.64821,0 1.07488,0.43487 0.42666,0.42667 0.42666,1.05026 0,0.36923 -0.11487,0.73846 -0.10667,0.36923 -0.35282,0.91897 l -1.2718,2.90462 h -1.42769 l 0.8041,-3.33129 q -0.62358,-0.41846 -0.62358,-1.23897 0,-0.61538 0.42666,-1.04205 0.42667,-0.43487 1.05846,-0.43487 z" id="path48329"/><path d="m 316.55641,193.51683 v 1.4441 h -6.85128 v -1.4441 h 2.76513 v -7.99179 l -2.49436,1.53436 -0.78769,-1.28821 3.47897,-2.13333 h 1.62462 v 9.87897 z" id="path48331"/><path d="m 323.30104,183.40811 q 0.68923,0 1.26359,0.18872 0.58256,0.18051 1.06666,0.50051 l -0.71384,1.18154 q -0.73026,-0.4759 -1.60821,-0.4759 -1.16513,0 -1.85436,1.08308 -0.68923,1.07487 -0.75487,2.95385 0.53333,-0.70564 1.18974,-1.01744 0.66462,-0.32 1.41129,-0.32 0.87795,0 1.6,0.41026 0.73025,0.40205 1.16512,1.21436 0.43488,0.8041 0.43488,2.01025 0,1.21436 -0.49231,2.12513 -0.4841,0.91077 -1.32923,1.41949 -0.84513,0.50051 -1.92,0.50051 -1.41949,0 -2.28923,-0.70564 -0.86154,-0.70564 -1.25539,-1.94461 -0.39384,-1.23898 -0.39384,-2.83898 0,-1.88718 0.53333,-3.29846 0.54154,-1.41949 1.54256,-2.19897 1.00103,-0.7877 2.40411,-0.7877 z m -0.38564,5.47282 q -0.67282,0 -1.23898,0.36103 -0.55795,0.36102 -0.96,0.96 0.0328,1.83795 0.50051,2.7159 0.4759,0.86974 1.55077,0.86974 0.94359,0 1.40308,-0.70564 0.46769,-0.71385 0.46769,-1.86256 0,-1.30462 -0.46769,-1.82154 -0.46769,-0.51693 -1.25538,-0.51693 z" id="path48333"/><path d="m 333.60668,189.21734 q 0,-1.58359 -0.36102,-2.78153 -0.35282,-1.19795 -1.09949,-2.2318 -0.74666,-1.04205 -1.89538,-2.14974 l 1.01743,-0.98462 q 1.32103,1.09128 2.26462,2.27282 0.95179,1.18154 1.46051,2.60923 0.50872,1.41949 0.50872,3.26564 0,1.84616 -0.50872,3.27385 -0.50872,1.41949 -1.46051,2.60103 -0.94359,1.18153 -2.26462,2.27282 l -1.01743,-0.98462 q 1.17333,-1.1241 1.91179,-2.16615 0.74667,-1.04205 1.09128,-2.2318 0.35282,-1.18974 0.35282,-2.76513 z" id="path48335"/><path d="m 342.31233,186.40298 q 0.62359,0 1.05026,0.43488 0.42667,0.42666 0.42667,1.03384 0,0.60718 -0.42667,1.05026 -0.42667,0.43487 -1.05026,0.43487 -0.62359,0 -1.05025,-0.43487 -0.42667,-0.44308 -0.42667,-1.05026 0,-0.60718 0.42667,-1.03384 0.42666,-0.43488 1.05025,-0.43488 z m 0,5.64513 q 0.6318,0 1.05026,0.42667 0.42667,0.42667 0.42667,1.04205 0,0.36103 -0.11488,0.73026 -0.10666,0.36923 -0.34461,0.90256 l -1.25539,2.8718 h -1.41128 l 0.78769,-3.29026 q -0.61538,-0.42667 -0.61538,-1.22256 0,-0.60718 0.42667,-1.03385 0.42666,-0.42667 1.05025,-0.42667 z" id="path48337"/><path d="m 44.753147,244.56092 h -2.034872 l 3.109744,-4.57025 -2.765128,-4.09436 h 2.116923 l 1.772307,3.05231 1.772308,-3.05231 h 2.018462 l -2.707693,4.02051 3.117949,4.6441 h -2.157949 l -2.125128,-3.53641 z" id="path48339"/><path d="m 54.705975,246.49733 v -15.36 h 4.471795 v 1.46872 h -2.740513 v 12.43898 h 2.740513 v 1.4523 z" id="path48341"/><path d="m 67.341879,243.27272 q 0.60718,0 1.132308,-0.21333 0.525128,-0.21334 1.001025,-0.54154 l 0.853334,1.18154 q -0.566154,0.4841 -1.378462,0.78769 -0.804102,0.29538 -1.665641,0.29538 -1.329231,0 -2.281025,-0.55795 -0.94359,-0.56615 -1.444103,-1.57538 -0.492308,-1.01744 -0.492308,-2.37949 0,-1.32102 0.500513,-2.35487 0.508718,-1.04205 1.460513,-1.64102 0.951795,-0.60718 2.289231,-0.60718 1.739487,0 3.003077,1.04205 l -0.845129,1.15692 q -0.508717,-0.35282 -1.042051,-0.53333 -0.533333,-0.18872 -1.083077,-0.18872 -1.033846,0 -1.682051,0.75487 -0.648205,0.75487 -0.648205,2.37128 0,1.62462 0.65641,2.31385 0.65641,0.68923 1.665641,0.68923 z" id="path48343"/><path d="m 78.550091,231.13733 v 15.36 h -4.471795 v -1.4523 h 2.740513 v -12.43898 h -2.740513 v -1.46872 z" id="path48345"/><path d="m 96.962413,235.404 v 3.30667 h 3.257437 v 1.47692 h -3.257437 v 3.29846 h -1.61641 v -3.29846 h -3.232821 v -1.47692 h 3.232821 V 235.404 Z" id="path48347"/><path d="m 109.4096,237.08605 v 1.50154 h -6.79385 v -1.50154 z m 0,3.24103 v 1.50154 h -6.79385 v -1.50154 z" id="path48349"/><path d="m 123.52243,244.56092 h -2.03487 l 3.10975,-4.57025 -2.76513,-4.09436 h 2.11692 l 1.77231,3.05231 1.77231,-3.05231 h 2.01846 l -2.70769,4.02051 3.11794,4.6441 h -2.15794 l -2.12513,-3.53641 z" id="path48351"/><path d="m 133.47526,246.49733 v -15.36 h 4.4718 v 1.46872 h -2.74052 v 12.43898 h 2.74052 v 1.4523 z" id="path48353"/><path d="m 147.02194,232.21221 1.83794,0.20512 v 12.14359 h -1.61641 l -0.13128,-1.06666 q -0.44308,0.61538 -1.05846,0.95179 -0.61538,0.33641 -1.37846,0.33641 -1.1159,0 -1.83795,-0.56615 -0.71385,-0.57436 -1.06667,-1.6 -0.35282,-1.02564 -0.35282,-2.38769 0,-1.32103 0.41026,-2.34667 0.41026,-1.03385 1.17333,-1.62462 0.76308,-0.59076 1.83795,-0.59076 1.33744,0 2.18257,0.94359 z m -1.69847,4.86564 q -0.92718,0 -1.4441,0.77128 -0.51692,0.76308 -0.51692,2.37949 0,1.65743 0.46769,2.4041 0.4759,0.73846 1.32923,0.73846 0.62359,0 1.08308,-0.36102 0.45949,-0.36103 0.77949,-0.86975 v -4.10256 q -0.32,-0.45949 -0.74667,-0.70564 -0.42667,-0.25436 -0.9518,-0.25436 z" id="path48355"/><path d="m 157.31938,231.13733 v 15.36 h -4.4718 v -1.4523 h 2.74052 v -12.43898 h -2.74052 v -1.46872 z" id="path48357"/><path d="m 165.08144,236.00298 q 0.62359,0 1.05025,0.43487 0.42667,0.42666 0.42667,1.03384 0,0.60718 -0.42667,1.05026 -0.42666,0.43487 -1.05025,0.43487 -0.62359,0 -1.05026,-0.43487 -0.42667,-0.44308 -0.42667,-1.05026 0,-0.60718 0.42667,-1.03384 0.42667,-0.43487 1.05026,-0.43487 z m 0,5.64512 q 0.63179,0 1.05025,0.42667 0.42667,0.42667 0.42667,1.04205 0,0.36103 -0.11487,0.73026 -0.10667,0.36923 -0.34462,0.90256 l -1.25538,2.8718 h -1.41128 l 0.78769,-3.29026 q -0.61539,-0.42667 -0.61539,-1.22256 0,-0.60718 0.42667,-1.03385 0.42667,-0.42667 1.05026,-0.42667 z" id="path48359"/><path d="m 44.753147,294.16093 h -2.034872 l 3.109744,-4.57026 -2.765128,-4.09435 h 2.116923 l 1.772307,3.0523 1.772308,-3.0523 h 2.018462 l -2.707693,4.02051 3.117949,4.6441 h -2.157949 l -2.125128,-3.53641 z" id="path48361"/><path d="m 54.705975,296.09734 v -15.36 h 4.471795 v 1.46872 h -2.740513 v 12.43897 h 2.740513 v 1.45231 z" id="path48363"/><path d="m 65.003418,286.53016 q 0.443077,-0.59077 1.050256,-0.92718 0.607179,-0.33641 1.329231,-0.33641 1.140513,0 1.846154,0.56616 0.713846,0.55794 1.042051,1.58359 0.33641,1.01743 0.33641,2.39589 0,1.32103 -0.393846,2.35487 -0.393846,1.03385 -1.165128,1.62462 -0.763077,0.59077 -1.88718,0.59077 -1.452307,0 -2.281025,-1.07487 l -0.09846,0.85333 h -1.61641 v -12.14359 l 1.837949,-0.20513 z m 1.698461,6.44923 q 0.935385,0 1.444103,-0.76307 0.516923,-0.76308 0.516923,-2.3959 0,-1.66564 -0.467693,-2.3959 -0.459487,-0.73846 -1.31282,-0.73846 -0.615385,0 -1.091282,0.36923 -0.467692,0.36923 -0.787692,0.86974 v 4.05334 q 0.303589,0.46769 0.730256,0.73846 0.434872,0.26256 0.968205,0.26256 z" id="path48365"/><path d="m 78.550091,280.73734 v 15.36 h -4.471795 v -1.45231 h 2.740513 v -12.43897 h -2.740513 v -1.46872 z" id="path48367"/><path d="m 99.563439,286.68606 v 1.50154 h -6.793846 v -1.50154 z m 0,3.24102 v 1.50154 h -6.793846 v -1.50154 z" id="path48369"/><path d="m 119.90397,286.1117 q 0,1.25538 -0.74667,2.02667 -0.74667,0.77128 -1.82974,1.09128 l 3.2082,4.93128 h -2.21538 l -2.84718,-4.66051 h -1.23898 v 4.66051 h -1.90359 v -11.32308 h 3.15898 q 2.17436,0 3.29025,0.82052 1.12411,0.8123 1.12411,2.45333 z m -1.99385,0 q 0,-0.98462 -0.57436,-1.41949 -0.57436,-0.44307 -1.73949,-0.44307 h -1.36205 v 3.85641 h 1.40308 q 1.08308,0 1.67385,-0.45949 0.59897,-0.46769 0.59897,-1.53436 z" id="path48371"/><path d="m 130.01269,288.49939 q 0,1.74769 -0.4841,3.07693 -0.4841,1.32102 -1.4441,2.06769 -0.96,0.73846 -2.37949,0.73846 -1.41949,0 -2.37949,-0.72205 -0.96,-0.72205 -1.4441,-2.04308 -0.4841,-1.32102 -0.4841,-3.10154 0,-1.74769 0.4841,-3.07692 0.4841,-1.32923 1.4441,-2.0759 0.96,-0.75487 2.37949,-0.75487 1.41949,0 2.37949,0.73026 0.96,0.73025 1.4441,2.05948 0.4841,1.32103 0.4841,3.10154 z m -1.96923,0 q 0,-2.19897 -0.54154,-3.29846 -0.54154,-1.10769 -1.79692,-1.10769 -1.25539,0 -1.79692,1.1159 -0.54154,1.10769 -0.54154,3.30666 0,2.19077 0.55795,3.29026 0.55794,1.09128 1.78051,1.09128 1.25538,0 1.79692,-1.09949 0.54154,-1.10769 0.54154,-3.29846 z" id="path48373"/><path d="m 136.47834,284.37221 v 9.78872 h -1.90359 v -9.78872 h -3.39692 v -1.53436 h 8.77948 l -0.19692,1.53436 z" id="path48375"/><path d="m 147.38296,291.43683 h -4.04513 l -0.78769,2.7241 h -1.93641 l 3.60205,-11.32308 h 2.36308 l 3.61025,11.32308 h -2.01846 z m -3.65128,-1.46872 h 3.24923 l -1.61641,-5.65333 z" id="path48377"/><path d="m 156.17066,284.37221 v 9.78872 h -1.90359 v -9.78872 h -3.39692 v -1.53436 h 8.77948 l -0.19692,1.53436 z" id="path48379"/><path d="m 163.92451,284.28196 v 3.40512 h 4.10257 v 1.44411 h -4.10257 v 3.58564 h 4.99693 v 1.4441 h -6.90052 v -11.32308 h 6.81026 l -0.21333,1.44411 z" id="path48381"/><path d="m 173.8035,288.41734 q 0,1.57539 0.34461,2.76513 0.35282,1.18974 1.09128,2.23179 0.74667,1.04206 1.92,2.16616 l -1.01743,0.98461 q -1.32103,-1.09128 -2.27282,-2.27282 -0.94359,-1.18154 -1.45231,-2.60102 -0.50872,-1.4277 -0.50872,-3.27385 0,-1.84615 0.50872,-3.26564 0.50872,-1.42769 1.45231,-2.60923 0.95179,-1.18154 2.27282,-2.27282 l 1.01743,0.98461 q -1.14872,1.1077 -1.89538,2.14975 -0.74667,1.03384 -1.10769,2.23179 -0.35282,1.19795 -0.35282,2.78154 z" id="path48383"/><path d="m 182.5994,294.16093 h -2.03487 l 3.10974,-4.57026 -2.76513,-4.09435 h 2.11693 l 1.7723,3.0523 1.77231,-3.0523 h 2.01846 l -2.70769,4.02051 3.11795,4.6441 h -2.15795 l -2.12513,-3.53641 z" id="path48385"/><path d="m 192.55223,296.09734 v -15.36 h 4.47179 v 1.46872 h -2.74051 v 12.43897 h 2.74051 v 1.45231 z" id="path48387"/><path d="m 202.84967,286.53016 q 0.44308,-0.59077 1.05026,-0.92718 0.60718,-0.33641 1.32923,-0.33641 1.14051,0 1.84615,0.56616 0.71385,0.55794 1.04205,1.58359 0.33641,1.01743 0.33641,2.39589 0,1.32103 -0.39384,2.35487 -0.39385,1.03385 -1.16513,1.62462 -0.76308,0.59077 -1.88718,0.59077 -1.45231,0 -2.28103,-1.07487 l -0.0985,0.85333 h -1.61641 v -12.14359 l 1.83795,-0.20513 z m 1.69846,6.44923 q 0.93539,0 1.4441,-0.76307 0.51693,-0.76308 0.51693,-2.3959 0,-1.66564 -0.4677,-2.3959 -0.45948,-0.73846 -1.31282,-0.73846 -0.61538,0 -1.09128,0.36923 -0.46769,0.36923 -0.78769,0.86974 v 4.05334 q 0.30359,0.46769 0.73026,0.73846 0.43487,0.26256 0.9682,0.26256 z" id="path48389"/><path d="m 216.39634,280.73734 v 15.36 h -4.47179 v -1.45231 h 2.74051 v -12.43897 h -2.74051 v -1.46872 z" id="path48391"/><path d="m 234.84149,280.3599 3.10153,5.15283 h -1.88717 l -2.05949,-3.65129 -2.02667,3.65129 h -1.88718 l 3.10154,-5.15283 z" id="path48393"/><path d="m 251.52253,294.16093 h -2.03488 l 3.10975,-4.57026 -2.76513,-4.09435 h 2.11692 l 1.77231,3.0523 1.77231,-3.0523 h 2.01846 l -2.70769,4.02051 3.11795,4.6441 h -2.15795 l -2.12513,-3.53641 z" id="path48395"/><path d="m 261.47535,296.09734 v -15.36 h 4.4718 v 1.46872 h -2.74051 v 12.43897 h 2.74051 v 1.45231 z" id="path48397"/><path d="m 274.11126,292.87273 q 0.60718,0 1.13231,-0.21334 0.52512,-0.21333 1.00102,-0.54154 l 0.85333,1.18154 q -0.56615,0.4841 -1.37846,0.78769 -0.8041,0.29539 -1.66564,0.29539 -1.32923,0 -2.28102,-0.55795 -0.94359,-0.56615 -1.44411,-1.57538 -0.4923,-1.01744 -0.4923,-2.37949 0,-1.32103 0.50051,-2.35487 0.50872,-1.04205 1.46051,-1.64103 0.9518,-0.60718 2.28923,-0.60718 1.73949,0 3.00308,1.04205 l -0.84513,1.15693 q -0.50872,-0.35282 -1.04205,-0.53334 -0.53333,-0.18872 -1.08308,-0.18872 -1.03384,0 -1.68205,0.75488 -0.6482,0.75487 -0.6482,2.37128 0,1.62461 0.65641,2.31384 0.65641,0.68924 1.66564,0.68924 z" id="path48399"/><path d="m 285.31947,280.73734 v 15.36 h -4.47179 v -1.45231 h 2.74051 v -12.43897 h -2.74051 v -1.46872 z" id="path48401"/><path d="m 293.08973,291.20708 q 0.64821,0 1.07488,0.43488 0.42666,0.42666 0.42666,1.05025 0,0.36923 -0.11487,0.73846 -0.10667,0.36923 -0.35282,0.91898 l -1.2718,2.90461 h -1.42769 l 0.8041,-3.33128 q -0.62358,-0.41846 -0.62358,-1.23897 0,-0.61539 0.42666,-1.04205 0.42667,-0.43488 1.05846,-0.43488 z" id="path48403"/><path d="m 316.55641,292.71683 v 1.4441 h -6.85128 v -1.4441 h 2.76513 v -7.9918 l -2.49436,1.53436 -0.78769,-1.2882 3.47897,-2.13334 h 1.62462 v 9.87898 z" id="path48405"/><path d="m 322.16873,282.60811 q 1.14872,0 1.95282,0.43487 0.8041,0.42667 1.22256,1.15692 0.42667,0.72206 0.42667,1.60821 0,0.74667 -0.26256,1.46051 -0.25436,0.70564 -0.82872,1.49334 -0.56616,0.77948 -1.50154,1.73948 -0.93538,0.9518 -2.28923,2.18257 h 5.14461 l -0.21333,1.47692 h -7.04 v -1.39487 q 1.52615,-1.46872 2.51077,-2.49436 0.99282,-1.02564 1.55077,-1.77231 0.56615,-0.74666 0.7959,-1.34564 0.22974,-0.60718 0.22974,-1.23077 0,-0.85333 -0.4841,-1.34564 -0.4841,-0.49231 -1.34564,-0.49231 -0.76308,0 -1.28,0.27898 -0.50872,0.27897 -1.00923,0.90256 l -1.19795,-0.91077 q 0.66461,-0.84513 1.52615,-1.29641 0.86154,-0.45128 2.09231,-0.45128 z" id="path48407"/><path d="m 333.60668,288.41734 q 0,-1.58359 -0.36102,-2.78154 -0.35282,-1.19795 -1.09949,-2.23179 -0.74666,-1.04205 -1.89538,-2.14975 l 1.01743,-0.98461 q 1.32103,1.09128 2.26462,2.27282 0.95179,1.18154 1.46051,2.60923 0.50872,1.41949 0.50872,3.26564 0,1.84615 -0.50872,3.27385 -0.50872,1.41948 -1.46051,2.60102 -0.94359,1.18154 -2.26462,2.27282 l -1.01743,-0.98461 q 1.17333,-1.1241 1.91179,-2.16616 0.74667,-1.04205 1.09128,-2.23179 0.35282,-1.18974 0.35282,-2.76513 z" id="path48409"/><path d="m 342.31233,285.60298 q 0.62359,0 1.05026,0.43487 0.42667,0.42667 0.42667,1.03385 0,0.60718 -0.42667,1.05026 -0.42667,0.43487 -1.05026,0.43487 -0.62359,0 -1.05025,-0.43487 -0.42667,-0.44308 -0.42667,-1.05026 0,-0.60718 0.42667,-1.03385 0.42666,-0.43487 1.05025,-0.43487 z m 0,5.64513 q 0.6318,0 1.05026,0.42667 0.42667,0.42666 0.42667,1.04205 0,0.36102 -0.11488,0.73025 -0.10666,0.36924 -0.34461,0.90257 l -1.25539,2.87179 h -1.41128 l 0.78769,-3.29025 q -0.61538,-0.42667 -0.61538,-1.22257 0,-0.60718 0.42667,-1.03384 0.42666,-0.42667 1.05025,-0.42667 z" id="path48411"/><path d="m 44.753147,343.76094 h -2.034872 l 3.109744,-4.57026 -2.765128,-4.09436 h 2.116923 l 1.772307,3.05231 1.772308,-3.05231 h 2.018462 l -2.707693,4.02051 3.117949,4.64411 h -2.157949 l -2.125128,-3.53641 z" id="path48413"/><path d="m 54.705975,345.69735 v -15.36 h 4.471795 v 1.46871 h -2.740513 v 12.43898 h 2.740513 v 1.45231 z" id="path48415"/><path d="m 69.787007,341.63581 q 0,0.51692 0.155898,0.74667 0.155897,0.22974 0.500513,0.34461 l -0.410257,1.24718 q -0.64,-0.0738 -1.107692,-0.35282 -0.459487,-0.27897 -0.689231,-0.84513 -0.475897,0.60718 -1.206154,0.91077 -0.730256,0.29539 -1.558974,0.29539 -1.321026,0 -2.084103,-0.73847 -0.763077,-0.74666 -0.763077,-1.95282 0,-1.37025 1.066667,-2.10871 1.066667,-0.73847 3.052308,-0.73847 h 1.238974 v -0.56615 q 0,-0.84513 -0.508718,-1.20615 -0.508718,-0.36923 -1.419487,-0.36923 -0.426667,0 -1.033846,0.11487 -0.60718,0.10666 -1.271795,0.33641 l -0.451282,-1.29641 q 0.812308,-0.30359 1.591795,-0.44308 0.779487,-0.14769 1.444102,-0.14769 1.739488,0 2.592821,0.77128 0.861538,0.77128 0.861538,2.13333 z m -3.757948,0.99282 q 0.557948,0 1.091282,-0.29539 0.533333,-0.29538 0.861538,-0.82871 v -1.9118 h -1.017436 q -1.29641,0 -1.854359,0.43487 -0.557948,0.42667 -0.557948,1.18154 0,1.41949 1.476923,1.41949 z" id="path48417"/><path d="m 78.550091,330.33735 v 15.36 h -4.471795 v -1.45231 h 2.740513 v -12.43898 h -2.740513 v -1.46871 z" id="path48419"/><path d="m 96.962413,334.60401 v 3.30667 h 3.257437 v 1.47692 h -3.257437 v 3.29846 h -1.61641 v -3.29846 h -3.232821 v -1.47692 h 3.232821 v -3.30667 z" id="path48421"/><path d="m 109.4096,336.28606 v 1.50154 h -6.79385 v -1.50154 z m 0,3.24103 v 1.50154 h -6.79385 v -1.50154 z" id="path48423"/><path d="m 123.52243,343.76094 h -2.03487 l 3.10975,-4.57026 -2.76513,-4.09436 h 2.11692 l 1.77231,3.05231 1.77231,-3.05231 h 2.01846 l -2.70769,4.02051 3.11794,4.64411 h -2.15794 l -2.12513,-3.53641 z" id="path48425"/><path d="m 133.47526,345.69735 v -15.36 h 4.4718 v 1.46871 h -2.74052 v 12.43898 h 2.74052 v 1.45231 z" id="path48427"/><path d="m 143.7727,336.13017 q 0.44308,-0.59077 1.05026,-0.92718 0.60718,-0.33641 1.32923,-0.33641 1.14051,0 1.84616,0.56615 0.71384,0.55795 1.04205,1.58359 0.33641,1.01744 0.33641,2.3959 0,1.32102 -0.39385,2.35487 -0.39385,1.03385 -1.16513,1.62462 -0.76307,0.59077 -1.88718,0.59077 -1.4523,0 -2.28102,-1.07488 l -0.0985,0.85334 h -1.61641 v -12.14359 l 1.83794,-0.20513 z m 1.69847,6.44923 q 0.93538,0 1.4441,-0.76308 0.51692,-0.76308 0.51692,-2.3959 0,-1.66564 -0.46769,-2.39589 -0.45949,-0.73847 -1.31282,-0.73847 -0.61539,0 -1.09128,0.36924 -0.4677,0.36923 -0.7877,0.86974 v 4.05333 q 0.30359,0.46769 0.73026,0.73846 0.43487,0.26257 0.96821,0.26257 z" id="path48429"/><path d="m 157.31938,330.33735 v 15.36 h -4.4718 v -1.45231 h 2.74052 v -12.43898 h -2.74052 v -1.46871 z" id="path48431"/><path d="m 165.08144,335.20299 q 0.62359,0 1.05025,0.43487 0.42667,0.42667 0.42667,1.03385 0,0.60718 -0.42667,1.05025 -0.42666,0.43487 -1.05025,0.43487 -0.62359,0 -1.05026,-0.43487 -0.42667,-0.44307 -0.42667,-1.05025 0,-0.60718 0.42667,-1.03385 0.42667,-0.43487 1.05026,-0.43487 z m 0,5.64513 q 0.63179,0 1.05025,0.42666 0.42667,0.42667 0.42667,1.04205 0,0.36103 -0.11487,0.73026 -0.10667,0.36923 -0.34462,0.90256 l -1.25538,2.8718 h -1.41128 l 0.78769,-3.29026 q -0.61539,-0.42666 -0.61539,-1.22256 0,-0.60718 0.42667,-1.03385 0.42667,-0.42666 1.05026,-0.42666 z" id="path48433"/><path d="m 44.753147,393.36094 h -2.034872 l 3.109744,-4.57025 -2.765128,-4.09436 h 2.116923 l 1.772307,3.05231 1.772308,-3.05231 h 2.018462 l -2.707693,4.02051 3.117949,4.6441 h -2.157949 l -2.125128,-3.53641 z" id="path48435"/><path d="m 54.705975,395.29735 v -15.36 h 4.471795 v 1.46872 h -2.740513 v 12.43898 h 2.740513 v 1.4523 z" id="path48437"/><path d="m 68.252648,381.01222 1.837949,0.20513 v 12.14359 h -1.61641 l -0.131282,-1.06666 q -0.443077,0.61538 -1.058462,0.95179 -0.615384,0.33641 -1.378461,0.33641 -1.115898,0 -1.837949,-0.56615 -0.713846,-0.57436 -1.066667,-1.6 -0.35282,-1.02564 -0.35282,-2.38769 0,-1.32103 0.410256,-2.34667 0.410257,-1.03385 1.173334,-1.62462 0.763076,-0.59077 1.837948,-0.59077 1.337436,0 2.182564,0.94359 z m -1.698461,4.86565 q -0.92718,0 -1.444103,0.77128 -0.516923,0.76307 -0.516923,2.37949 0,1.65743 0.467692,2.4041 0.475898,0.73846 1.329231,0.73846 0.62359,0 1.083077,-0.36103 0.459487,-0.36102 0.779487,-0.86974 v -4.10256 q -0.32,-0.45949 -0.746666,-0.70565 -0.426667,-0.25435 -0.951795,-0.25435 z" id="path48439"/><path d="m 78.550091,379.93735 v 15.36 h -4.471795 v -1.4523 h 2.740513 v -12.43898 h -2.740513 v -1.46872 z" id="path48441"/><path d="m 99.563439,385.88607 v 1.50154 h -6.793846 v -1.50154 z m 0,3.24103 v 1.50154 h -6.793846 v -1.50154 z" id="path48443"/><path d="m 119.90397,385.31171 q 0,1.25539 -0.74667,2.02667 -0.74667,0.77128 -1.82974,1.09128 l 3.2082,4.93128 h -2.21538 l -2.84718,-4.66051 h -1.23898 v 4.66051 h -1.90359 v -11.32307 h 3.15898 q 2.17436,0 3.29025,0.82051 1.12411,0.81231 1.12411,2.45333 z m -1.99385,0 q 0,-0.98461 -0.57436,-1.41949 -0.57436,-0.44307 -1.73949,-0.44307 h -1.36205 v 3.85641 h 1.40308 q 1.08308,0 1.67385,-0.45949 0.59897,-0.46769 0.59897,-1.53436 z" id="path48445"/><path d="m 130.01269,387.6994 q 0,1.7477 -0.4841,3.07693 -0.4841,1.32102 -1.4441,2.06769 -0.96,0.73846 -2.37949,0.73846 -1.41949,0 -2.37949,-0.72205 -0.96,-0.72205 -1.4441,-2.04308 -0.4841,-1.32102 -0.4841,-3.10154 0,-1.74769 0.4841,-3.07692 0.4841,-1.32923 1.4441,-2.0759 0.96,-0.75487 2.37949,-0.75487 1.41949,0 2.37949,0.73026 0.96,0.73026 1.4441,2.05949 0.4841,1.32102 0.4841,3.10153 z m -1.96923,0 q 0,-2.19897 -0.54154,-3.29846 -0.54154,-1.10769 -1.79692,-1.10769 -1.25539,0 -1.79692,1.1159 -0.54154,1.10769 -0.54154,3.30666 0,2.19077 0.55795,3.29026 0.55794,1.09128 1.78051,1.09128 1.25538,0 1.79692,-1.09948 0.54154,-1.1077 0.54154,-3.29847 z" id="path48447"/><path d="m 136.47834,383.57222 v 9.78872 h -1.90359 v -9.78872 h -3.39692 v -1.53435 h 8.77948 l -0.19692,1.53435 z" id="path48449"/><path d="m 147.38296,390.63684 h -4.04513 l -0.78769,2.7241 h -1.93641 l 3.60205,-11.32307 h 2.36308 l 3.61025,11.32307 h -2.01846 z m -3.65128,-1.46872 h 3.24923 l -1.61641,-5.65333 z" id="path48451"/><path d="m 156.17066,383.57222 v 9.78872 h -1.90359 v -9.78872 h -3.39692 v -1.53435 h 8.77948 l -0.19692,1.53435 z" id="path48453"/><path d="m 163.92451,383.48197 v 3.40513 h 4.10257 v 1.4441 h -4.10257 v 3.58564 h 4.99693 v 1.4441 h -6.90052 v -11.32307 h 6.81026 l -0.21333,1.4441 z" id="path48455"/><path d="m 173.8035,387.61735 q 0,1.57539 0.34461,2.76513 0.35282,1.18974 1.09128,2.2318 0.74667,1.04205 1.92,2.16615 l -1.01743,0.98462 q -1.32103,-1.09129 -2.27282,-2.27283 -0.94359,-1.18153 -1.45231,-2.60102 -0.50872,-1.42769 -0.50872,-3.27385 0,-1.84615 0.50872,-3.26564 0.50872,-1.42769 1.45231,-2.60923 0.95179,-1.18154 2.27282,-2.27282 l 1.01743,0.98462 q -1.14872,1.10769 -1.89538,2.14974 -0.74667,1.03385 -1.10769,2.23179 -0.35282,1.19795 -0.35282,2.78154 z" id="path48457"/><path d="m 182.5994,393.36094 h -2.03487 l 3.10974,-4.57025 -2.76513,-4.09436 h 2.11693 l 1.7723,3.05231 1.77231,-3.05231 h 2.01846 l -2.70769,4.02051 3.11795,4.6441 h -2.15795 l -2.12513,-3.53641 z" id="path48459"/><path d="m 192.55223,395.29735 v -15.36 h 4.47179 v 1.46872 h -2.74051 v 12.43898 h 2.74051 v 1.4523 z" id="path48461"/><path d="m 206.0989,381.01222 1.83795,0.20513 v 12.14359 h -1.61641 l -0.13128,-1.06666 q -0.44308,0.61538 -1.05846,0.95179 -0.61539,0.33641 -1.37847,0.33641 -1.11589,0 -1.83794,-0.56615 -0.71385,-0.57436 -1.06667,-1.6 -0.35282,-1.02564 -0.35282,-2.38769 0,-1.32103 0.41025,-2.34667 0.41026,-1.03385 1.17334,-1.62462 0.76307,-0.59077 1.83795,-0.59077 1.33743,0 2.18256,0.94359 z m -1.69846,4.86565 q -0.92718,0 -1.4441,0.77128 -0.51693,0.76307 -0.51693,2.37949 0,1.65743 0.4677,2.4041 0.47589,0.73846 1.32923,0.73846 0.62359,0 1.08307,-0.36103 0.45949,-0.36102 0.77949,-0.86974 v -4.10256 q -0.32,-0.45949 -0.74667,-0.70565 -0.42666,-0.25435 -0.95179,-0.25435 z" id="path48463"/><path d="m 216.39634,379.93735 v 15.36 h -4.47179 v -1.4523 h 2.74051 v -12.43898 h -2.74051 v -1.46872 z" id="path48465"/><path d="m 234.84149,379.55992 3.10153,5.15282 h -1.88717 l -2.05949,-3.65128 -2.02667,3.65128 h -1.88718 l 3.10154,-5.15282 z" id="path48467"/><path d="m 251.52253,393.36094 h -2.03488 l 3.10975,-4.57025 -2.76513,-4.09436 h 2.11692 l 1.77231,3.05231 1.77231,-3.05231 h 2.01846 l -2.70769,4.02051 3.11795,4.6441 h -2.15795 l -2.12513,-3.53641 z" id="path48469"/><path d="m 261.47535,395.29735 v -15.36 h 4.4718 v 1.46872 h -2.74051 v 12.43898 h 2.74051 v 1.4523 z" id="path48471"/><path d="m 276.55639,391.23581 q 0,0.51693 0.15589,0.74667 0.1559,0.22974 0.50052,0.34462 l -0.41026,1.24718 q -0.64,-0.0738 -1.10769,-0.35282 -0.45949,-0.27898 -0.68923,-0.84513 -0.4759,0.60718 -1.20616,0.91077 -0.73025,0.29538 -1.55897,0.29538 -1.32103,0 -2.0841,-0.73846 -0.76308,-0.74667 -0.76308,-1.95282 0,-1.37026 1.06667,-2.10872 1.06666,-0.73846 3.0523,-0.73846 h 1.23898 v -0.56615 q 0,-0.84513 -0.50872,-1.20616 -0.50872,-0.36923 -1.41949,-0.36923 -0.42666,0 -1.03384,0.11487 -0.60718,0.10667 -1.2718,0.33641 l -0.45128,-1.29641 q 0.81231,-0.30359 1.59179,-0.44307 0.77949,-0.1477 1.44411,-0.1477 1.73948,0 2.59282,0.77129 0.86154,0.77128 0.86154,2.13333 z m -3.75795,0.99283 q 0.55795,0 1.09128,-0.29539 0.53333,-0.29538 0.86154,-0.82872 v -1.91179 h -1.01744 q -1.29641,0 -1.85436,0.43487 -0.55795,0.42667 -0.55795,1.18154 0,1.41949 1.47693,1.41949 z" id="path48473"/><path d="m 285.31947,379.93735 v 15.36 h -4.47179 v -1.4523 h 2.74051 v -12.43898 h -2.74051 v -1.46872 z" id="path48475"/><path d="m 293.08973,390.4071 q 0.64821,0 1.07488,0.43487 0.42666,0.42667 0.42666,1.05025 0,0.36924 -0.11487,0.73847 -0.10667,0.36923 -0.35282,0.91897 l -1.2718,2.90462 h -1.42769 l 0.8041,-3.33129 q -0.62358,-0.41846 -0.62358,-1.23897 0,-0.61538 0.42666,-1.04205 0.42667,-0.43487 1.05846,-0.43487 z" id="path48477"/><path d="m 316.31847,384.73735 q 0,0.82052 -0.4759,1.41129 -0.4759,0.59076 -1.41128,1.10769 1.1241,0.50051 1.73128,1.27179 0.60718,0.77128 0.60718,1.78052 0,0.91076 -0.4759,1.65743 -0.4759,0.73846 -1.37846,1.18154 -0.89436,0.43487 -2.17436,0.43487 -1.2718,0 -2.15795,-0.43487 -0.87795,-0.43487 -1.33744,-1.16513 -0.45128,-0.73846 -0.45128,-1.63282 0,-1.00923 0.59898,-1.73128 0.59897,-0.72205 1.6,-1.17333 -0.89436,-0.4759 -1.32103,-1.06667 -0.42667,-0.59898 -0.42667,-1.54257 0,-1.00923 0.51693,-1.68205 0.52513,-0.67282 1.33743,-1.00923 0.81231,-0.33641 1.69026,-0.33641 0.92718,0 1.73128,0.32821 0.8041,0.3282 1.29641,0.97641 0.50052,0.6482 0.50052,1.62461 z m -5.29231,0.10667 q 0,0.55795 0.25436,0.90256 0.25436,0.34462 0.73846,0.58257 0.4841,0.23795 1.17333,0.46769 0.70564,-0.42667 1.02564,-0.86974 0.32,-0.44308 0.32,-1.09949 0,-0.76308 -0.45128,-1.22256 -0.45128,-0.45949 -1.29641,-0.45949 -0.83692,0 -1.30462,0.44308 -0.45948,0.44307 -0.45948,1.25538 z m 3.86461,5.47282 q 0,-0.68923 -0.3282,-1.09949 -0.32,-0.41025 -0.92718,-0.68923 -0.60718,-0.27897 -1.45231,-0.57436 -0.62359,0.32 -1.06667,0.86975 -0.44307,0.54974 -0.44307,1.46871 0,0.86975 0.52513,1.38667 0.52512,0.50872 1.56717,0.50872 1.05026,0 1.58359,-0.54154 0.54154,-0.54154 0.54154,-1.32923 z" id="path48479"/><path d="m 323.76052,387.61735 q 0,-1.58359 -0.36102,-2.78154 -0.35282,-1.19794 -1.09949,-2.23179 -0.74667,-1.04205 -1.89538,-2.14974 l 1.01743,-0.98462 q 1.32103,1.09128 2.26462,2.27282 0.95179,1.18154 1.46051,2.60923 0.50872,1.41949 0.50872,3.26564 0,1.84616 -0.50872,3.27385 -0.50872,1.41949 -1.46051,2.60102 -0.94359,1.18154 -2.26462,2.27283 l -1.01743,-0.98462 q 1.17333,-1.1241 1.91179,-2.16615 0.74667,-1.04206 1.09128,-2.2318 0.35282,-1.18974 0.35282,-2.76513 z" id="path48481"/><path d="m 332.46617,384.80299 q 0.62359,0 1.05026,0.43488 0.42666,0.42666 0.42666,1.03384 0,0.60718 -0.42666,1.05026 -0.42667,0.43487 -1.05026,0.43487 -0.62359,0 -1.05025,-0.43487 -0.42667,-0.44308 -0.42667,-1.05026 0,-0.60718 0.42667,-1.03384 0.42666,-0.43488 1.05025,-0.43488 z m 0,5.64513 q 0.6318,0 1.05026,0.42667 0.42666,0.42667 0.42666,1.04205 0,0.36103 -0.11487,0.73026 -0.10666,0.36923 -0.34461,0.90256 l -1.25539,2.8718 h -1.41128 l 0.78769,-3.29026 q -0.61538,-0.42667 -0.61538,-1.22256 0,-0.60718 0.42667,-1.03385 0.42666,-0.42667 1.05025,-0.42667 z" id="path48483"/><path d="m 44.753147,442.96095 h -2.034872 l 3.109744,-4.57026 -2.765128,-4.09436 h 2.116923 l 1.772307,3.05231 1.772308,-3.05231 h 2.018462 l -2.707693,4.02052 3.117949,4.6441 h -2.157949 l -2.125128,-3.53641 z" id="path48485"/><path d="m 54.705975,444.89736 v -15.36 h 4.471795 v 1.46872 h -2.740513 v 12.43897 h 2.740513 v 1.45231 z" id="path48487"/><path d="m 67.341879,441.67274 q 0.60718,0 1.132308,-0.21333 0.525128,-0.21333 1.001025,-0.54154 l 0.853334,1.18154 q -0.566154,0.4841 -1.378462,0.78769 -0.804102,0.29539 -1.665641,0.29539 -1.329231,0 -2.281025,-0.55795 -0.94359,-0.56616 -1.444103,-1.57539 -0.492308,-1.01743 -0.492308,-2.37948 0,-1.32103 0.500513,-2.35487 0.508718,-1.04206 1.460513,-1.64103 0.951795,-0.60718 2.289231,-0.60718 1.739487,0 3.003077,1.04205 l -0.845129,1.15692 q -0.508717,-0.35282 -1.042051,-0.53333 -0.533333,-0.18872 -1.083077,-0.18872 -1.033846,0 -1.682051,0.75487 -0.648205,0.75488 -0.648205,2.37129 0,1.62461 0.65641,2.31384 0.65641,0.68923 1.665641,0.68923 z" id="path48489"/><path d="m 78.550091,429.53736 v 15.36 h -4.471795 v -1.45231 h 2.740513 v -12.43897 h -2.740513 v -1.46872 z" id="path48491"/><path d="m 96.962413,433.80403 v 3.30666 h 3.257437 v 1.47693 h -3.257437 v 3.29846 h -1.61641 v -3.29846 h -3.232821 v -1.47693 h 3.232821 v -3.30666 z" id="path48493"/><path d="m 109.4096,435.48608 v 1.50154 h -6.79385 v -1.50154 z m 0,3.24102 v 1.50154 h -6.79385 v -1.50154 z" id="path48495"/><path d="m 123.52243,442.96095 h -2.03487 l 3.10975,-4.57026 -2.76513,-4.09436 h 2.11692 l 1.77231,3.05231 1.77231,-3.05231 h 2.01846 l -2.70769,4.02052 3.11794,4.6441 h -2.15794 l -2.12513,-3.53641 z" id="path48497"/><path d="m 133.47526,444.89736 v -15.36 h 4.4718 v 1.46872 h -2.74052 v 12.43897 h 2.74052 v 1.45231 z" id="path48499"/><path d="m 147.02194,430.61223 1.83794,0.20513 v 12.14359 h -1.61641 l -0.13128,-1.06667 q -0.44308,0.61539 -1.05846,0.9518 -0.61538,0.33641 -1.37846,0.33641 -1.1159,0 -1.83795,-0.56616 -0.71385,-0.57436 -1.06667,-1.6 -0.35282,-1.02564 -0.35282,-2.38769 0,-1.32102 0.41026,-2.34667 0.41026,-1.03384 1.17333,-1.62461 0.76308,-0.59077 1.83795,-0.59077 1.33744,0 2.18257,0.94359 z m -1.69847,4.86564 q -0.92718,0 -1.4441,0.77128 -0.51692,0.76308 -0.51692,2.37949 0,1.65744 0.46769,2.4041 0.4759,0.73847 1.32923,0.73847 0.62359,0 1.08308,-0.36103 0.45949,-0.36103 0.77949,-0.86974 v -4.10257 q -0.32,-0.45949 -0.74667,-0.70564 -0.42667,-0.25436 -0.9518,-0.25436 z" id="path48501"/><path d="m 157.31938,429.53736 v 15.36 h -4.4718 v -1.45231 h 2.74052 v -12.43897 h -2.74052 v -1.46872 z" id="path48503"/><path d="m 165.08144,434.403 q 0.62359,0 1.05025,0.43487 0.42667,0.42667 0.42667,1.03385 0,0.60718 -0.42667,1.05025 -0.42666,0.43488 -1.05025,0.43488 -0.62359,0 -1.05026,-0.43488 -0.42667,-0.44307 -0.42667,-1.05025 0,-0.60718 0.42667,-1.03385 0.42667,-0.43487 1.05026,-0.43487 z m 0,5.64513 q 0.63179,0 1.05025,0.42667 0.42667,0.42666 0.42667,1.04205 0,0.36102 -0.11487,0.73025 -0.10667,0.36923 -0.34462,0.90257 l -1.25538,2.87179 h -1.41128 l 0.78769,-3.29025 q -0.61539,-0.42667 -0.61539,-1.22257 0,-0.60718 0.42667,-1.03384 0.42667,-0.42667 1.05026,-0.42667 z" id="path48505"/><path d="m 44.753147,492.56096 h -2.034872 l 3.109744,-4.57026 -2.765128,-4.09436 h 2.116923 l 1.772307,3.05231 1.772308,-3.05231 h 2.018462 l -2.707693,4.02051 3.117949,4.64411 h -2.157949 l -2.125128,-3.53642 z" id="path48507"/><path d="m 54.705975,494.49737 v -15.36 h 4.471795 v 1.46871 h -2.740513 v 12.43898 h 2.740513 v 1.45231 z" id="path48509"/><path d="m 65.003418,484.93019 q 0.443077,-0.59077 1.050256,-0.92718 0.607179,-0.33641 1.329231,-0.33641 1.140513,0 1.846154,0.56615 0.713846,0.55795 1.042051,1.58359 0.33641,1.01744 0.33641,2.3959 0,1.32102 -0.393846,2.35487 -0.393846,1.03385 -1.165128,1.62461 -0.763077,0.59077 -1.88718,0.59077 -1.452307,0 -2.281025,-1.07487 l -0.09846,0.85334 h -1.61641 v -12.14359 l 1.837949,-0.20513 z m 1.698461,6.44923 q 0.935385,0 1.444103,-0.76308 0.516923,-0.76308 0.516923,-2.3959 0,-1.66564 -0.467693,-2.3959 -0.459487,-0.73846 -1.31282,-0.73846 -0.615385,0 -1.091282,0.36923 -0.467692,0.36923 -0.787692,0.86975 v 4.05333 q 0.303589,0.46769 0.730256,0.73846 0.434872,0.26257 0.968205,0.26257 z" id="path48511"/><path d="m 78.550091,479.13737 v 15.36 h -4.471795 v -1.45231 h 2.740513 v -12.43898 h -2.740513 v -1.46871 z" id="path48513"/><path d="m 99.563439,485.08608 v 1.50154 h -6.793846 v -1.50154 z m 0,3.24103 v 1.50154 h -6.793846 v -1.50154 z" id="path48515"/><path d="m 119.90397,484.51172 q 0,1.25539 -0.74667,2.02667 -0.74667,0.77128 -1.82974,1.09128 l 3.2082,4.93129 h -2.21538 l -2.84718,-4.66052 h -1.23898 v 4.66052 h -1.90359 v -11.32308 h 3.15898 q 2.17436,0 3.29025,0.82051 1.12411,0.81231 1.12411,2.45333 z m -1.99385,0 q 0,-0.98461 -0.57436,-1.41948 -0.57436,-0.44308 -1.73949,-0.44308 h -1.36205 v 3.85641 h 1.40308 q 1.08308,0 1.67385,-0.45949 0.59897,-0.46769 0.59897,-1.53436 z" id="path48517"/><path d="m 130.01269,486.89942 q 0,1.74769 -0.4841,3.07692 -0.4841,1.32103 -1.4441,2.06769 -0.96,0.73846 -2.37949,0.73846 -1.41949,0 -2.37949,-0.72205 -0.96,-0.72205 -1.4441,-2.04307 -0.4841,-1.32103 -0.4841,-3.10154 0,-1.7477 0.4841,-3.07693 0.4841,-1.32923 1.4441,-2.07589 0.96,-0.75488 2.37949,-0.75488 1.41949,0 2.37949,0.73026 0.96,0.73026 1.4441,2.05949 0.4841,1.32102 0.4841,3.10154 z m -1.96923,0 q 0,-2.19898 -0.54154,-3.29846 -0.54154,-1.1077 -1.79692,-1.1077 -1.25539,0 -1.79692,1.1159 -0.54154,1.10769 -0.54154,3.30667 0,2.19077 0.55795,3.29025 0.55794,1.09129 1.78051,1.09129 1.25538,0 1.79692,-1.09949 0.54154,-1.10769 0.54154,-3.29846 z" id="path48519"/><path d="m 136.47834,482.77224 v 9.78872 h -1.90359 v -9.78872 h -3.39692 v -1.53436 h 8.77948 l -0.19692,1.53436 z" id="path48521"/><path d="m 147.38296,489.83685 h -4.04513 l -0.78769,2.72411 h -1.93641 l 3.60205,-11.32308 h 2.36308 l 3.61025,11.32308 h -2.01846 z m -3.65128,-1.46872 h 3.24923 l -1.61641,-5.65333 z" id="path48523"/><path d="m 156.17066,482.77224 v 9.78872 h -1.90359 v -9.78872 h -3.39692 v -1.53436 h 8.77948 l -0.19692,1.53436 z" id="path48525"/><path d="m 163.92451,482.68198 v 3.40513 h 4.10257 v 1.4441 h -4.10257 v 3.58564 h 4.99693 v 1.44411 h -6.90052 v -11.32308 h 6.81026 l -0.21333,1.4441 z" id="path48527"/><path d="m 173.8035,486.81737 q 0,1.57538 0.34461,2.76512 0.35282,1.18975 1.09128,2.2318 0.74667,1.04205 1.92,2.16615 l -1.01743,0.98462 q -1.32103,-1.09128 -2.27282,-2.27282 -0.94359,-1.18154 -1.45231,-2.60103 -0.50872,-1.42769 -0.50872,-3.27384 0,-1.84616 0.50872,-3.26565 0.50872,-1.42769 1.45231,-2.60923 0.95179,-1.18153 2.27282,-2.27282 l 1.01743,0.98462 q -1.14872,1.10769 -1.89538,2.14974 -0.74667,1.03385 -1.10769,2.2318 -0.35282,1.19795 -0.35282,2.78154 z" id="path48529"/><path d="m 182.5994,492.56096 h -2.03487 l 3.10974,-4.57026 -2.76513,-4.09436 h 2.11693 l 1.7723,3.05231 1.77231,-3.05231 h 2.01846 l -2.70769,4.02051 3.11795,4.64411 h -2.15795 l -2.12513,-3.53642 z" id="path48531"/><path d="m 192.55223,494.49737 v -15.36 h 4.47179 v 1.46871 h -2.74051 v 12.43898 h 2.74051 v 1.45231 z" id="path48533"/><path d="m 202.84967,484.93019 q 0.44308,-0.59077 1.05026,-0.92718 0.60718,-0.33641 1.32923,-0.33641 1.14051,0 1.84615,0.56615 0.71385,0.55795 1.04205,1.58359 0.33641,1.01744 0.33641,2.3959 0,1.32102 -0.39384,2.35487 -0.39385,1.03385 -1.16513,1.62461 -0.76308,0.59077 -1.88718,0.59077 -1.45231,0 -2.28103,-1.07487 l -0.0985,0.85334 h -1.61641 v -12.14359 l 1.83795,-0.20513 z m 1.69846,6.44923 q 0.93539,0 1.4441,-0.76308 0.51693,-0.76308 0.51693,-2.3959 0,-1.66564 -0.4677,-2.3959 -0.45948,-0.73846 -1.31282,-0.73846 -0.61538,0 -1.09128,0.36923 -0.46769,0.36923 -0.78769,0.86975 v 4.05333 q 0.30359,0.46769 0.73026,0.73846 0.43487,0.26257 0.9682,0.26257 z" id="path48535"/><path d="m 216.39634,479.13737 v 15.36 h -4.47179 v -1.45231 h 2.74051 v -12.43898 h -2.74051 v -1.46871 z" id="path48537"/><path d="m 234.84149,478.75993 3.10153,5.15282 h -1.88717 l -2.05949,-3.65128 -2.02667,3.65128 h -1.88718 l 3.10154,-5.15282 z" id="path48539"/><path d="m 251.52253,492.56096 h -2.03488 l 3.10975,-4.57026 -2.76513,-4.09436 h 2.11692 l 1.77231,3.05231 1.77231,-3.05231 h 2.01846 l -2.70769,4.02051 3.11795,4.64411 h -2.15795 l -2.12513,-3.53642 z" id="path48541"/><path d="m 261.47535,494.49737 v -15.36 h 4.4718 v 1.46871 h -2.74051 v 12.43898 h 2.74051 v 1.45231 z" id="path48543"/><path d="m 274.11126,491.27275 q 0.60718,0 1.13231,-0.21333 0.52512,-0.21334 1.00102,-0.54154 l 0.85333,1.18154 q -0.56615,0.4841 -1.37846,0.78769 -0.8041,0.29538 -1.66564,0.29538 -1.32923,0 -2.28102,-0.55795 -0.94359,-0.56615 -1.44411,-1.57538 -0.4923,-1.01744 -0.4923,-2.37949 0,-1.32102 0.50051,-2.35487 0.50872,-1.04205 1.46051,-1.64102 0.9518,-0.60718 2.28923,-0.60718 1.73949,0 3.00308,1.04205 l -0.84513,1.15692 q -0.50872,-0.35282 -1.04205,-0.53333 -0.53333,-0.18872 -1.08308,-0.18872 -1.03384,0 -1.68205,0.75487 -0.6482,0.75487 -0.6482,2.37128 0,1.62462 0.65641,2.31385 0.65641,0.68923 1.66564,0.68923 z" id="path48545"/><path d="m 285.31947,479.13737 v 15.36 h -4.47179 v -1.45231 h 2.74051 v -12.43898 h -2.74051 v -1.46871 z" id="path48547"/><path d="m 293.08973,489.60711 q 0.64821,0 1.07488,0.43487 0.42666,0.42667 0.42666,1.05026 0,0.36923 -0.11487,0.73846 -0.10667,0.36923 -0.35282,0.91897 l -1.2718,2.90462 h -1.42769 l 0.8041,-3.33128 q -0.62358,-0.41847 -0.62358,-1.23898 0,-0.61538 0.42666,-1.04205 0.42667,-0.43487 1.05846,-0.43487 z" id="path48549"/><path d="m 311.84667,492.75788 -1.73128,-0.53334 4.34051,-9.54256 h -5.18564 v -1.4441 h 7.04821 v 1.32102 z" id="path48551"/><path d="m 323.76052,486.81737 q 0,-1.58359 -0.36102,-2.78154 -0.35282,-1.19795 -1.09949,-2.2318 -0.74667,-1.04205 -1.89538,-2.14974 l 1.01743,-0.98462 q 1.32103,1.09129 2.26462,2.27282 0.95179,1.18154 1.46051,2.60923 0.50872,1.41949 0.50872,3.26565 0,1.84615 -0.50872,3.27384 -0.50872,1.41949 -1.46051,2.60103 -0.94359,1.18154 -2.26462,2.27282 l -1.01743,-0.98462 q 1.17333,-1.1241 1.91179,-2.16615 0.74667,-1.04205 1.09128,-2.2318 0.35282,-1.18974 0.35282,-2.76512 z" id="path48553"/><path d="m 332.46617,484.00301 q 0.62359,0 1.05026,0.43487 0.42666,0.42666 0.42666,1.03384 0,0.60718 -0.42666,1.05026 -0.42667,0.43487 -1.05026,0.43487 -0.62359,0 -1.05025,-0.43487 -0.42667,-0.44308 -0.42667,-1.05026 0,-0.60718 0.42667,-1.03384 0.42666,-0.43487 1.05025,-0.43487 z m 0,5.64512 q 0.6318,0 1.05026,0.42667 0.42666,0.42667 0.42666,1.04205 0,0.36103 -0.11487,0.73026 -0.10666,0.36923 -0.34461,0.90256 l -1.25539,2.8718 h -1.41128 l 0.78769,-3.29026 q -0.61538,-0.42667 -0.61538,-1.22256 0,-0.60718 0.42667,-1.03385 0.42666,-0.42667 1.05025,-0.42667 z" id="path48555"/><path d="m 24.666979,528.42558 q 1.140513,0 1.977436,0.24615 0.845128,0.24615 1.26359,0.84513 0.426666,0.59897 0.311795,1.64102 l -0.30359,2.83898 q -0.09026,0.87795 0.484102,1.28 0.574359,0.40205 1.911795,0.40205 v 1.47692 q -1.32923,0 -1.911795,0.41026 -0.574358,0.41026 -0.484102,1.28 l 0.30359,2.82256 q 0.114871,1.05026 -0.311795,1.64923 -0.418462,0.59898 -1.26359,0.84513 -0.836923,0.24616 -1.977436,0.24616 v -1.35385 q 0.845128,0 1.386667,-0.25436 0.541538,-0.24615 0.467692,-0.95179 l -0.30359,-3.01129 q -0.123077,-1.20615 0.402052,-1.72307 0.533333,-0.52513 1.63282,-0.68923 -1.107692,-0.17231 -1.63282,-0.71385 -0.525129,-0.54974 -0.402052,-1.71487 l 0.30359,-3.01128 q 0.07385,-0.69744 -0.467692,-0.9518 -0.541539,-0.25436 -1.386667,-0.25436 z" id="path48557"/></g></g></g></g></svg>