<?xml version="1.0" ?><svg xmlns="http://www.w3.org/2000/svg" xmlns:svg="http://www.w3.org/2000/svg" width="881.63892" height="546.83942" viewBox="0 0 233.26723 144.68459" version="1.1" id="svg5" xml:space="preserve"><defs id="defs2"><rect x="22.319975" y="66.959999" width="948.59894" height="535.67999" id="rect4077"/></defs><g id="layer1" transform="translate(-2.9527495,-2.9528383)"><g id="g26287" transform="matrix(0.26458333,0,0,0.26458333,151.03674,16.444252)"><g id="g26211" transform="translate(-559.68753,-50.991504)">
	<path style="fill:#e6e6e6;fill-opacity:1" d="M 850.74201,546.84001 H 30.897 C 13.833,546.84001 0,533.00701 0,515.94301 V 42.057 C 0,24.993 13.833,11.16 30.897,11.16 h 819.84601 c 17.064,0 30.897,13.833 30.897,30.897 v 473.88601 c -10e-4,17.064 -13.834,30.897 -30.898,30.897 z" id="path26201"/>
	<path style="fill:#434141;fill-opacity:1" d="M 881.64001,44.64 H 0.0010028 L 0,30.897 C -0.00124512,13.833 13.833,0 30.897,0 h 819.84601 c 17.063,0 30.896,13.833 30.896,30.897 z" id="path26203"/>
	
	
	
</g></g><g aria-label="public class TestStringObfuscation {     public static String sayHello() {         return new String(&quot;Hello&quot;);     } }" transform="matrix(0.26458364,0,0,0.26458364,0,-8.8274406e-5)" id="text4075" style="font-weight:500;font-size:24px;font-family:'Fira Code';-inkscape-font-specification:'Fira Code, Medium';white-space:pre;shape-inside:url(#rect4077);fill:#434141;stroke-miterlimit:2;paint-order:fill markers stroke"><path d="m 30.849543,74.619399 q 1.723077,0 2.756923,0.849231 1.033846,0.836923 1.501539,2.375384 0.467692,1.526154 0.467692,3.593847 0,1.981538 -0.566154,3.532307 -0.566154,1.55077 -1.686154,2.436923 -1.107692,0.886154 -2.756923,0.886154 -2.043077,0 -3.298461,-1.44 v 6.104616 l -2.756923,0.307692 V 74.964014 h 2.4 l 0.172307,1.673847 q 0.738462,-0.996923 1.71077,-1.501539 0.972307,-0.516923 2.055384,-0.516923 z m -0.763077,2.129231 q -0.923077,0 -1.636923,0.553846 -0.701538,0.553846 -1.181538,1.304615 v 6.08 q 0.972308,1.452308 2.572307,1.452308 1.39077,0 2.116924,-1.12 0.726153,-1.12 0.726153,-3.569231 0,-2.498461 -0.652307,-3.593846 -0.64,-1.107692 -1.944616,-1.107692 z" id="path4459"/><path d="m 42.037246,74.964014 v 9.083077 q 0,1.156923 0.455385,1.649231 0.467692,0.492308 1.403077,0.492308 0.886154,0 1.710769,-0.529231 0.824615,-0.529231 1.304615,-1.292308 v -9.403077 h 2.756923 v 12.996923 h -2.375384 l -0.172308,-1.661538 q -0.726154,0.972308 -1.833846,1.489231 -1.107692,0.504615 -2.264615,0.504615 -1.895385,0 -2.818462,-1.033846 -0.923077,-1.046154 -0.923077,-2.867692 v -9.427693 z" id="path4461"/><path d="m 56.806487,76.514784 q 0.664616,-0.886154 1.575385,-1.39077 0.910769,-0.504615 1.993846,-0.504615 1.710769,0 2.769231,0.849231 1.070769,0.836923 1.563077,2.375384 0.504615,1.526154 0.504615,3.593847 0,1.981538 -0.590769,3.532307 -0.590769,1.55077 -1.747692,2.436923 -1.144616,0.886154 -2.830769,0.886154 -2.178462,0 -3.421539,-1.612308 l -0.147692,1.28 H 54.049564 V 69.745553 l 2.756923,-0.307692 z m 2.547693,9.673846 q 1.403077,0 2.166154,-1.144616 0.775384,-1.144615 0.775384,-3.593846 0,-2.498461 -0.701538,-3.593846 -0.689231,-1.107692 -1.969231,-1.107692 -0.923077,0 -1.636923,0.553846 -0.701539,0.553846 -1.181539,1.304615 v 6.08 q 0.455385,0.701539 1.095385,1.107693 0.652308,0.393846 1.452308,0.393846 z" id="path4463"/><path d="m 74.529575,69.745553 v 14.670769 q 0,0.898462 0.541538,1.28 0.553847,0.369231 1.427693,0.369231 0.553846,0 1.058461,-0.110769 0.516923,-0.123077 0.996923,-0.32 l 0.701539,1.92 q -0.578462,0.295384 -1.427693,0.516923 -0.836923,0.221538 -1.92,0.221538 -1.956923,0 -3.052307,-1.107692 -1.083077,-1.107692 -1.083077,-3.015385 V 71.776322 h -3.926154 v -2.030769 z" id="path4465"/><path d="m 88.769586,68.600937 q 0.812307,0 1.304615,0.492308 0.504615,0.492308 0.504615,1.230769 0,0.738462 -0.504615,1.243077 -0.492308,0.504616 -1.304615,0.504616 -0.787693,0 -1.292308,-0.504616 -0.504616,-0.504615 -0.504616,-1.243077 0,-0.738461 0.504616,-1.230769 0.504615,-0.492308 1.292308,-0.492308 z m 1.92,6.363077 v 10.978462 h 3.532307 v 2.018461 H 84.043432 v -2.018461 h 3.88923 v -8.96 h -3.766153 v -2.018462 z" id="path4467"/><path d="m 104.6219,86.02863 q 0.91077,0 1.69847,-0.32 0.78769,-0.32 1.50153,-0.812308 l 1.28,1.772308 q -0.84923,0.726154 -2.06769,1.181538 -1.20615,0.443077 -2.49846,0.443077 -1.99385,0 -3.42154,-0.836923 -1.415383,-0.849231 -2.166152,-2.363077 -0.738462,-1.526154 -0.738462,-3.569231 0,-1.981538 0.750769,-3.532307 0.763077,-1.563077 2.190765,-2.461539 1.4277,-0.910769 3.43385,-0.910769 2.60923,0 4.50462,1.563077 l -1.2677,1.735385 q -0.76307,-0.529231 -1.56307,-0.8 -0.8,-0.283077 -1.62462,-0.283077 -1.55077,0 -2.52308,1.132307 -0.9723,1.132308 -0.9723,3.556923 0,2.436923 0.98461,3.47077 0.98462,1.033846 2.49846,1.033846 z" id="path4469"/><path d="m 134.16039,86.02863 q 0.91077,0 1.69846,-0.32 0.78769,-0.32 1.50154,-0.812308 l 1.28,1.772308 q -0.84923,0.726154 -2.0677,1.181538 -1.20615,0.443077 -2.49846,0.443077 -1.99384,0 -3.42154,-0.836923 -1.41538,-0.849231 -2.16615,-2.363077 -0.73846,-1.526154 -0.73846,-3.569231 0,-1.981538 0.75077,-3.532307 0.76307,-1.563077 2.19077,-2.461539 1.42769,-0.910769 3.43384,-0.910769 2.60923,0 4.50462,1.563077 l -1.26769,1.735385 q -0.76308,-0.529231 -1.56308,-0.8 -0.8,-0.283077 -1.62462,-0.283077 -1.55077,0 -2.52307,1.132307 -0.97231,1.132308 -0.97231,3.556923 0,2.436923 0.98461,3.47077 0.98462,1.033846 2.49847,1.033846 z" id="path4471"/><path d="m 148.37578,69.745553 v 14.670769 q 0,0.898462 0.54154,1.28 0.55385,0.369231 1.42769,0.369231 0.55385,0 1.05846,-0.110769 0.51693,-0.123077 0.99693,-0.32 l 0.70154,1.92 q -0.57847,0.295384 -1.4277,0.516923 -0.83692,0.221538 -1.92,0.221538 -1.95692,0 -3.0523,-1.107692 -1.08308,-1.107692 -1.08308,-3.015385 V 71.776322 h -3.92616 v -2.030769 z" id="path4473"/><path d="m 167.36656,84.773245 q 0,0.775385 0.23385,1.12 0.23384,0.344616 0.75077,0.516923 l -0.61539,1.870769 q -0.96,-0.110769 -1.66154,-0.52923 -0.68923,-0.418462 -1.03384,-1.267693 -0.71385,0.91077 -1.80923,1.366154 -1.09539,0.443077 -2.33846,0.443077 -1.98154,0 -3.12616,-1.107692 -1.14461,-1.12 -1.14461,-2.929231 0,-2.055385 1.6,-3.163077 1.6,-1.107692 4.57846,-1.107692 h 1.85846 v -0.849231 q 0,-1.267692 -0.76308,-1.809231 -0.76307,-0.553846 -2.12923,-0.553846 -0.64,0 -1.55077,0.172308 -0.91077,0.16 -1.90769,0.504615 l -0.67692,-1.944615 q 1.21846,-0.455385 2.38769,-0.664616 1.16923,-0.221538 2.16615,-0.221538 2.60923,0 3.88923,1.156923 1.29231,1.156923 1.29231,3.2 z m -5.63692,1.489231 q 0.83692,0 1.63692,-0.443077 0.8,-0.443077 1.29231,-1.243077 V 81.70863 h -1.52615 q -1.94462,0 -2.78154,0.652308 -0.83693,0.64 -0.83693,1.772307 0,2.129231 2.21539,2.129231 z" id="path4475"/><path d="m 176.92965,86.176322 q 1.29231,0 2.05538,-0.455384 0.76308,-0.467693 0.76308,-1.28 0,-0.529231 -0.22154,-0.898462 -0.22154,-0.369231 -0.88615,-0.689231 -0.66462,-0.32 -2.01846,-0.664615 -1.28,-0.332308 -2.25231,-0.787693 -0.96,-0.455384 -1.48923,-1.181538 -0.52923,-0.726154 -0.52923,-1.870769 0,-1.673846 1.39077,-2.695385 1.40307,-1.033846 3.80307,-1.033846 1.63693,0 2.85539,0.430769 1.21846,0.430769 2.08,1.070769 l -1.15692,1.735385 q -0.76308,-0.504615 -1.67385,-0.824615 -0.89846,-0.32 -2.03077,-0.32 -1.31692,0 -1.89538,0.393846 -0.56616,0.393846 -0.56616,1.046154 0,0.492307 0.28308,0.812307 0.29538,0.32 1.00923,0.603077 0.71385,0.283077 2.01846,0.64 1.26769,0.344616 2.20308,0.812308 0.94769,0.467692 1.46461,1.243077 0.52923,0.763077 0.52923,1.993846 0,1.403077 -0.8123,2.301539 -0.81231,0.886153 -2.11693,1.316923 -1.30461,0.418461 -2.80615,0.418461 -1.80923,0 -3.12615,-0.516923 -1.31693,-0.529231 -2.21539,-1.316923 l 1.46462,-1.673846 q 0.76307,0.615384 1.74769,1.009231 0.98461,0.381538 2.12923,0.381538 z" id="path4477"/><path d="m 191.69889,86.176322 q 1.29231,0 2.05538,-0.455384 0.76308,-0.467693 0.76308,-1.28 0,-0.529231 -0.22154,-0.898462 -0.22154,-0.369231 -0.88615,-0.689231 -0.66462,-0.32 -2.01846,-0.664615 -1.28,-0.332308 -2.25231,-0.787693 -0.96,-0.455384 -1.48923,-1.181538 -0.52923,-0.726154 -0.52923,-1.870769 0,-1.673846 1.39077,-2.695385 1.40307,-1.033846 3.80307,-1.033846 1.63693,0 2.85539,0.430769 1.21846,0.430769 2.08,1.070769 l -1.15692,1.735385 q -0.76308,-0.504615 -1.67385,-0.824615 -0.89846,-0.32 -2.03077,-0.32 -1.31692,0 -1.89538,0.393846 -0.56616,0.393846 -0.56616,1.046154 0,0.492307 0.28308,0.812307 0.29538,0.32 1.00923,0.603077 0.71385,0.283077 2.01846,0.64 1.26769,0.344616 2.20308,0.812308 0.94769,0.467692 1.46461,1.243077 0.52923,0.763077 0.52923,1.993846 0,1.403077 -0.8123,2.301539 -0.81231,0.886153 -2.11693,1.316923 -1.30461,0.418461 -2.80615,0.418461 -1.80923,0 -3.12615,-0.516923 -1.31693,-0.529231 -2.21539,-1.316923 l 1.46462,-1.673846 q 0.76307,0.615384 1.74769,1.009231 0.98461,0.381538 2.12923,0.381538 z" id="path4479"/><path d="m 223.09583,73.277861 v 14.683076 h -2.85538 V 73.277861 h -5.09538 v -2.301539 h 13.16923 l -0.29539,2.301539 z" id="path4481"/><path d="m 233.56969,82.34863 q 0.12308,2.006154 1.12,2.904615 1.00923,0.898462 2.42462,0.898462 0.94769,0 1.76,-0.295385 0.82461,-0.295385 1.64923,-0.836923 l 1.19384,1.649231 q -0.91077,0.738461 -2.12923,1.181538 -1.21846,0.443077 -2.60923,0.443077 -2.03077,0 -3.43384,-0.861538 -1.39077,-0.861539 -2.11693,-2.4 -0.71384,-1.538462 -0.71384,-3.556923 0,-1.956923 0.71384,-3.495385 0.71385,-1.550769 2.04308,-2.449231 1.32923,-0.910769 3.17538,-0.910769 2.58462,0 4.08616,1.735385 1.51384,1.735384 1.51384,4.763077 0,0.332307 -0.0246,0.664615 -0.0123,0.32 -0.0369,0.566154 z m 3.10154,-5.686154 q -1.29231,0 -2.14154,0.923077 -0.84923,0.923077 -0.97231,2.88 h 6.01847 q -0.0369,-1.833846 -0.7877,-2.818462 -0.73846,-0.984615 -2.11692,-0.984615 z" id="path4483"/><path d="m 250.77586,86.176322 q 1.2923,0 2.05538,-0.455384 0.76308,-0.467693 0.76308,-1.28 0,-0.529231 -0.22154,-0.898462 -0.22154,-0.369231 -0.88616,-0.689231 -0.66461,-0.32 -2.01846,-0.664615 -1.28,-0.332308 -2.2523,-0.787693 -0.96,-0.455384 -1.48924,-1.181538 -0.52923,-0.726154 -0.52923,-1.870769 0,-1.673846 1.39077,-2.695385 1.40308,-1.033846 3.80308,-1.033846 1.63692,0 2.85538,0.430769 1.21847,0.430769 2.08,1.070769 l -1.15692,1.735385 q -0.76308,-0.504615 -1.67384,-0.824615 -0.89847,-0.32 -2.03077,-0.32 -1.31693,0 -1.89539,0.393846 -0.56615,0.393846 -0.56615,1.046154 0,0.492307 0.28307,0.812307 0.29539,0.32 1.00924,0.603077 0.71384,0.283077 2.01846,0.64 1.26769,0.344616 2.20307,0.812308 0.9477,0.467692 1.46462,1.243077 0.52923,0.763077 0.52923,1.993846 0,1.403077 -0.81231,2.301539 -0.81231,0.886153 -2.11692,1.316923 -1.30462,0.418461 -2.80615,0.418461 -1.80924,0 -3.12616,-0.516923 -1.31692,-0.529231 -2.21538,-1.316923 l 1.46461,-1.673846 q 0.76308,0.615384 1.74769,1.009231 0.98462,0.381538 2.12924,0.381538 z" id="path4485"/><path d="m 271.67433,87.271707 q -0.71385,0.455384 -1.71077,0.738461 -0.99692,0.283077 -2.08,0.283077 -2.26462,0 -3.44616,-1.169231 -1.16923,-1.181538 -1.16923,-3.101538 v -7.052308 h -2.8923 v -2.006154 h 2.8923 v -2.904615 l 2.75693,-0.332308 v 3.236923 h 4.38154 l -0.3077,2.006154 h -4.07384 v 7.027693 q 0,1.046153 0.51692,1.563076 0.52923,0.504616 1.72308,0.504616 0.71384,0 1.30461,-0.172308 0.60308,-0.172307 1.10769,-0.443077 z" id="path4487"/><path d="m 286.89895,83.160938 q 0,1.513846 -0.77538,2.670769 -0.76308,1.156923 -2.21539,1.809231 -1.44,0.652307 -3.48307,0.652307 -2.08,0 -3.63077,-0.615384 -1.55077,-0.615385 -2.62154,-1.661539 l 1.56308,-1.747692 q 0.89846,0.836923 2.04307,1.304615 1.14462,0.467692 2.63385,0.467692 1.44,0 2.47385,-0.676923 1.04615,-0.68923 1.04615,-2.067692 0,-0.738461 -0.30769,-1.255385 -0.30769,-0.52923 -1.07077,-0.935384 -0.75077,-0.418462 -2.10462,-0.824616 -2.69538,-0.8 -4.08615,-1.932307 -1.39077,-1.132308 -1.39077,-3.126154 0,-1.378462 0.75077,-2.412308 0.76308,-1.033846 2.08,-1.6 1.32923,-0.578461 3.00308,-0.578461 1.84615,0 3.22461,0.541538 1.37846,0.529231 2.46154,1.501539 l -1.50154,1.698461 q -0.89846,-0.775384 -1.93231,-1.132308 -1.02153,-0.36923 -2.08,-0.36923 -1.30461,0 -2.19077,0.553846 -0.88615,0.541538 -0.88615,1.636923 0,0.664615 0.35692,1.132308 0.36923,0.455384 1.23077,0.861538 0.87385,0.393846 2.3877,0.849231 1.42769,0.418461 2.56,1.033846 1.14461,0.615385 1.79692,1.624615 0.66461,0.996923 0.66461,2.596924 z" id="path4489"/><path d="m 301.21281,87.271707 q -0.71385,0.455384 -1.71077,0.738461 -0.99692,0.283077 -2.08,0.283077 -2.26461,0 -3.44615,-1.169231 -1.16923,-1.181538 -1.16923,-3.101538 v -7.052308 h -2.89231 v -2.006154 h 2.89231 v -2.904615 l 2.75692,-0.332308 v 3.236923 h 4.38154 l -0.30769,2.006154 h -4.07385 v 7.027693 q 0,1.046153 0.51692,1.563076 0.52923,0.504616 1.72308,0.504616 0.71385,0 1.30461,-0.172308 0.60308,-0.172307 1.1077,-0.443077 z" id="path4491"/><path d="m 305.24976,87.960937 v -1.96923 h 1.90769 v -9.07077 h -1.90769 v -1.956923 h 4.01231 l 0.50461,3.015385 q 0.72616,-1.636923 1.79693,-2.486154 1.08307,-0.861538 2.78153,-0.861538 0.57847,0 1.03385,0.09846 0.46769,0.08615 0.92308,0.233846 l -0.4677,4.787693 h -1.96923 v -2.646154 q -1.37846,0.04923 -2.37538,1.107692 -0.99692,1.046154 -1.57539,2.953846 v 4.824616 h 2.62154 v 1.96923 z" id="path4493"/><path d="m 325.07745,68.600937 q 0.8123,0 1.30461,0.492308 0.50462,0.492308 0.50462,1.230769 0,0.738462 -0.50462,1.243077 -0.49231,0.504616 -1.30461,0.504616 -0.7877,0 -1.29231,-0.504616 -0.50462,-0.504615 -0.50462,-1.243077 0,-0.738461 0.50462,-1.230769 0.50461,-0.492308 1.29231,-0.492308 z m 1.92,6.363077 v 10.978462 h 3.5323 v 2.018461 h -10.17846 v -2.018461 h 3.88923 v -8.96 h -3.76615 v -2.018462 z" id="path4495"/><path d="M 334.66513,87.960937 V 74.964014 h 2.37539 l 0.20923,1.686154 q 0.81231,-0.984615 1.92,-1.501538 1.10769,-0.529231 2.27692,-0.529231 1.82154,0 2.72,1.021539 0.91077,1.021538 0.91077,2.843076 v 9.476923 h -2.75692 v -8.110769 q 0,-1.686154 -0.34462,-2.4 -0.3323,-0.726154 -1.51384,-0.726154 -0.94769,0 -1.73539,0.59077 -0.77538,0.578461 -1.30461,1.316923 v 9.32923 z" id="path4497"/><path d="m 360.37593,73.314784 0.73846,2.28923 q -0.77538,0.258462 -1.71077,0.344616 -0.92308,0.08615 -2.06769,0.08615 1.16923,0.516923 1.76,1.32923 0.59077,0.8 0.59077,1.969231 0,1.267692 -0.61539,2.264616 -0.61538,0.996923 -1.7723,1.563077 -1.14462,0.566153 -2.73231,0.566153 -0.56616,0 -0.98462,-0.04923 -0.40615,-0.04923 -0.8,-0.16 -0.57846,0.381538 -0.57846,1.070769 0,0.393846 0.32,0.689231 0.33231,0.283076 1.30462,0.283076 h 2.26461 q 1.39077,0 2.44923,0.48 1.07077,0.467693 1.67385,1.292308 0.61538,0.812308 0.61538,1.846154 0,1.944615 -1.67384,3.015385 -1.67385,1.070769 -4.82462,1.070769 -2.24,0 -3.50769,-0.455385 -1.25538,-0.455384 -1.77231,-1.353846 -0.51692,-0.898461 -0.51692,-2.203077 h 2.47385 q 0,0.689231 0.25846,1.132308 0.27077,0.443077 0.99692,0.652308 0.72615,0.221538 2.09231,0.221538 2.03077,0 2.86769,-0.504615 0.83692,-0.492308 0.83692,-1.39077 0,-0.8 -0.68923,-1.230769 -0.68923,-0.418461 -1.84615,-0.418461 h -2.22769 q -1.84616,0 -2.7077,-0.75077 -0.84923,-0.750769 -0.84923,-1.747692 0,-1.403077 1.45231,-2.350769 -1.16923,-0.615385 -1.71077,-1.489231 -0.52923,-0.886154 -0.52923,-2.141538 0,-1.378462 0.68923,-2.412308 0.68923,-1.033846 1.90769,-1.612308 1.23077,-0.578461 2.83077,-0.578461 1.56308,0.01231 2.60923,-0.16 1.04616,-0.172308 1.82154,-0.467693 0.78769,-0.307692 1.56308,-0.68923 z m -5.96923,3.212307 q -1.31692,0 -1.98154,0.75077 -0.66462,0.738461 -0.66462,1.932307 0,1.23077 0.67693,1.981539 0.67692,0.738461 2.00615,0.738461 1.21846,0 1.85846,-0.713846 0.65231,-0.713846 0.65231,-2.030769 0,-2.658462 -2.54769,-2.658462 z" id="path4499"/><path d="m 375.85903,79.46863 q 0,2.621538 -0.72615,4.615384 -0.72616,1.981539 -2.16616,3.101539 -1.44,1.107692 -3.56923,1.107692 -2.12923,0 -3.56923,-1.083077 -1.44,-1.083077 -2.16615,-3.064615 -0.72615,-1.981539 -0.72615,-4.652308 0,-2.621538 0.72615,-4.615384 0.72615,-1.993847 2.16615,-3.113847 1.44,-1.132307 3.56923,-1.132307 2.12923,0 3.56923,1.095384 1.44,1.095385 2.16616,3.089231 0.72615,1.981539 0.72615,4.652308 z m -2.95384,0 q 0,-3.298462 -0.81231,-4.947692 -0.81231,-1.661539 -2.69539,-1.661539 -1.88307,0 -2.69538,1.673846 -0.81231,1.661539 -0.81231,4.96 0,3.286154 0.83692,4.935385 0.83693,1.636923 2.67077,1.636923 1.88308,0 2.69539,-1.649231 0.81231,-1.661538 0.81231,-4.947692 z" id="path4501"/><path d="m 381.7298,76.514784 q 0.66461,-0.886154 1.57538,-1.39077 0.91077,-0.504615 1.99385,-0.504615 1.71077,0 2.76923,0.849231 1.07077,0.836923 1.56308,2.375384 0.50461,1.526154 0.50461,3.593847 0,1.981538 -0.59077,3.532307 -0.59077,1.55077 -1.74769,2.436923 -1.14462,0.886154 -2.83077,0.886154 -2.17846,0 -3.42154,-1.612308 l -0.14769,1.28 h -2.42462 V 69.745553 l 2.75693,-0.307692 z m 2.54769,9.673846 q 1.40308,0 2.16615,-1.144616 0.77539,-1.144615 0.77539,-3.593846 0,-2.498461 -0.70154,-3.593846 -0.68923,-1.107692 -1.96923,-1.107692 -0.92308,0 -1.63692,0.553846 -0.70154,0.553846 -1.18154,1.304615 v 6.08 q 0.45538,0.701539 1.09538,1.107693 0.65231,0.393846 1.45231,0.393846 z" id="path4503"/><path d="m 401.64364,69.437861 q 1.19384,0 2.12923,0.20923 0.94769,0.196923 1.74769,0.541539 l -0.81231,1.907692 q -0.6523,-0.270769 -1.36615,-0.393846 -0.70154,-0.123077 -1.42769,-0.123077 -2.51077,0 -2.51077,2.018462 v 2.301538 h 4.34461 l -0.29538,2.030769 h -4.04923 v 10.030769 h -2.74462 V 77.930168 h -2.95384 v -2.030769 h 2.95384 v -2.326154 q 0,-1.846154 1.36616,-2.990769 1.36615,-1.144615 3.61846,-1.144615 z" id="path4505"/><path d="m 411.26828,74.964014 v 9.083077 q 0,1.156923 0.45538,1.649231 0.4677,0.492308 1.40308,0.492308 0.88615,0 1.71077,-0.529231 0.82462,-0.529231 1.30462,-1.292308 v -9.403077 h 2.75692 v 12.996923 h -2.37539 l -0.1723,-1.661538 q -0.72616,0.972308 -1.83385,1.489231 -1.10769,0.504615 -2.26462,0.504615 -1.89538,0 -2.81846,-1.033846 -0.92307,-1.046154 -0.92307,-2.867692 v -9.427693 z" id="path4507"/><path d="m 428.00677,86.176322 q 1.2923,0 2.05538,-0.455384 0.76308,-0.467693 0.76308,-1.28 0,-0.529231 -0.22154,-0.898462 -0.22154,-0.369231 -0.88615,-0.689231 -0.66462,-0.32 -2.01847,-0.664615 -1.28,-0.332308 -2.2523,-0.787693 -0.96,-0.455384 -1.48923,-1.181538 -0.52923,-0.726154 -0.52923,-1.870769 0,-1.673846 1.39076,-2.695385 1.40308,-1.033846 3.80308,-1.033846 1.63692,0 2.85539,0.430769 1.21846,0.430769 2.08,1.070769 l -1.15693,1.735385 q -0.76307,-0.504615 -1.67384,-0.824615 -0.89846,-0.32 -2.03077,-0.32 -1.31693,0 -1.89539,0.393846 -0.56615,0.393846 -0.56615,1.046154 0,0.492307 0.28308,0.812307 0.29538,0.32 1.00923,0.603077 0.71384,0.283077 2.01846,0.64 1.26769,0.344616 2.20308,0.812308 0.94769,0.467692 1.46461,1.243077 0.52923,0.763077 0.52923,1.993846 0,1.403077 -0.81231,2.301539 -0.8123,0.886153 -2.11692,1.316923 -1.30461,0.418461 -2.80615,0.418461 -1.80923,0 -3.12616,-0.516923 -1.31692,-0.529231 -2.21538,-1.316923 l 1.46461,-1.673846 q 0.76308,0.615384 1.7477,1.009231 0.98461,0.381538 2.12923,0.381538 z" id="path4509"/><path d="m 444.31445,86.02863 q 0.91077,0 1.69847,-0.32 0.78769,-0.32 1.50153,-0.812308 l 1.28,1.772308 q -0.84923,0.726154 -2.06769,1.181538 -1.20615,0.443077 -2.49846,0.443077 -1.99385,0 -3.42154,-0.836923 -1.41538,-0.849231 -2.16615,-2.363077 -0.73846,-1.526154 -0.73846,-3.569231 0,-1.981538 0.75077,-3.532307 0.76307,-1.563077 2.19077,-2.461539 1.42769,-0.910769 3.43384,-0.910769 2.60923,0 4.50462,1.563077 l -1.2677,1.735385 q -0.76307,-0.529231 -1.56307,-0.8 -0.8,-0.283077 -1.62462,-0.283077 -1.55077,0 -2.52307,1.132307 -0.97231,1.132308 -0.97231,3.556923 0,2.436923 0.98461,3.47077 0.98462,1.033846 2.49846,1.033846 z" id="path4511"/><path d="m 462.75137,84.773245 q 0,0.775385 0.23385,1.12 0.23385,0.344616 0.75077,0.516923 l -0.61539,1.870769 q -0.96,-0.110769 -1.66153,-0.52923 -0.68924,-0.418462 -1.03385,-1.267693 -0.71385,0.91077 -1.80923,1.366154 -1.09539,0.443077 -2.33846,0.443077 -1.98154,0 -3.12616,-1.107692 -1.14461,-1.12 -1.14461,-2.929231 0,-2.055385 1.6,-3.163077 1.6,-1.107692 4.57846,-1.107692 h 1.85846 v -0.849231 q 0,-1.267692 -0.76308,-1.809231 -0.76307,-0.553846 -2.12923,-0.553846 -0.64,0 -1.55077,0.172308 -0.91077,0.16 -1.90769,0.504615 l -0.67692,-1.944615 q 1.21846,-0.455385 2.38769,-0.664616 1.16923,-0.221538 2.16615,-0.221538 2.60924,0 3.88924,1.156923 1.2923,1.156923 1.2923,3.2 z m -5.63692,1.489231 q 0.83692,0 1.63692,-0.443077 0.8,-0.443077 1.29231,-1.243077 V 81.70863 h -1.52615 q -1.94462,0 -2.78154,0.652308 -0.83692,0.64 -0.83692,1.772307 0,2.129231 2.21538,2.129231 z" id="path4513"/><path d="m 478.44371,87.271707 q -0.71385,0.455384 -1.71077,0.738461 -0.99693,0.283077 -2.08,0.283077 -2.26462,0 -3.44616,-1.169231 -1.16923,-1.181538 -1.16923,-3.101538 v -7.052308 h -2.89231 v -2.006154 h 2.89231 v -2.904615 l 2.75693,-0.332308 v 3.236923 h 4.38153 l -0.30769,2.006154 h -4.07384 v 7.027693 q 0,1.046153 0.51692,1.563076 0.52923,0.504616 1.72308,0.504616 0.71384,0 1.30461,-0.172308 0.60308,-0.172307 1.10769,-0.443077 z" id="path4515"/><path d="m 487.53912,68.600937 q 0.8123,0 1.30461,0.492308 0.50462,0.492308 0.50462,1.230769 0,0.738462 -0.50462,1.243077 -0.49231,0.504616 -1.30461,0.504616 -0.7877,0 -1.29231,-0.504616 -0.50462,-0.504615 -0.50462,-1.243077 0,-0.738461 0.50462,-1.230769 0.50461,-0.492308 1.29231,-0.492308 z m 1.92,6.363077 v 10.978462 h 3.5323 v 2.018461 h -10.17846 v -2.018461 h 3.88923 v -8.96 h -3.76615 v -2.018462 z" id="path4517"/><path d="m 502.33296,74.619399 q 2.85538,0 4.35692,1.858462 1.50154,1.858461 1.50154,4.96 0,2.067692 -0.68923,3.606153 -0.67692,1.538462 -1.99385,2.4 -1.30461,0.849231 -3.18769,0.849231 -2.84308,0 -4.35692,-1.833846 -1.51385,-1.846154 -1.51385,-4.996923 0,-2.018462 0.67692,-3.556923 0.68924,-1.550769 2.00616,-2.412308 1.31692,-0.873846 3.2,-0.873846 z m 0,2.141538 q -1.48923,0 -2.24,1.144616 -0.75077,1.132308 -0.75077,3.556923 0,2.424615 0.73846,3.569231 0.75077,1.132307 2.24,1.132307 1.48923,0 2.22769,-1.144615 0.75077,-1.144615 0.75077,-3.581538 0,-2.4 -0.73846,-3.532308 -0.73846,-1.144616 -2.22769,-1.144616 z" id="path4519"/><path d="M 511.89603,87.960937 V 74.964014 h 2.37539 l 0.20923,1.686154 q 0.8123,-0.984615 1.92,-1.501538 1.10769,-0.529231 2.27692,-0.529231 1.82154,0 2.72,1.021539 0.91077,1.021538 0.91077,2.843076 v 9.476923 h -2.75692 v -8.110769 q 0,-1.686154 -0.34462,-2.4 -0.33231,-0.726154 -1.51385,-0.726154 -0.94769,0 -1.73538,0.59077 -0.77539,0.578461 -1.30462,1.316923 v 9.32923 z" id="path4521"/><path d="m 550.49301,67.357861 v 2.030769 q -1.2677,0 -2.08,0.381538 -0.81231,0.381539 -0.70154,1.427693 l 0.45538,4.516923 q 0.18462,1.747692 -0.60308,2.572307 -0.78769,0.812308 -2.27692,1.058462 1.55077,0.258461 2.30154,1.046154 0.76308,0.775384 0.57846,2.584615 l -0.45538,4.516923 q -0.11077,1.058462 0.70154,1.427692 0.8123,0.381539 2.08,0.381539 v 2.030769 q -1.71077,0 -2.97847,-0.369231 -1.25538,-0.36923 -1.89538,-1.267692 -0.62769,-0.898461 -0.45539,-2.461538 l 0.45539,-4.246154 q 0.13538,-1.304616 -0.66462,-1.92 -0.8,-0.615385 -2.92923,-0.615385 v -2.215384 q 2.12923,0 2.92923,-0.603077 0.8,-0.603077 0.66462,-1.92 l -0.45539,-4.246154 q -0.1723,-1.575385 0.45539,-2.473846 0.64,-0.898462 1.89538,-1.267693 1.2677,-0.36923 2.97847,-0.36923 z" id="path4523"/><path d="m 89.926509,104.6194 q 1.723077,0 2.756923,0.84923 1.033846,0.83692 1.501538,2.37538 0.467692,1.52616 0.467692,3.59385 0,1.98154 -0.566153,3.53231 -0.566154,1.55077 -1.686154,2.43692 -1.107693,0.88616 -2.756923,0.88616 -2.043077,0 -3.298462,-1.44 v 6.10461 l -2.756923,0.30769 v -18.30154 h 2.4 l 0.172308,1.67385 q 0.738461,-0.99692 1.710769,-1.50154 0.972308,-0.51692 2.055385,-0.51692 z m -0.763077,2.12923 q -0.923077,0 -1.636923,0.55385 -0.701539,0.55384 -1.181539,1.30461 v 6.08 q 0.972308,1.45231 2.572308,1.45231 1.390769,0 2.116923,-1.12 0.726154,-1.12 0.726154,-3.56923 0,-2.49846 -0.652308,-3.59385 -0.64,-1.10769 -1.944615,-1.10769 z" id="path4525"/><path d="m 101.11421,104.96401 v 9.08308 q 0,1.15692 0.45539,1.64923 0.46769,0.49231 1.40307,0.49231 0.88616,0 1.71077,-0.52923 0.82462,-0.52923 1.30462,-1.29231 v -9.40308 h 2.75692 v 12.99693 h -2.37538 l -0.17231,-1.66154 q -0.72616,0.97231 -1.83385,1.48923 -1.10769,0.50462 -2.26461,0.50462 -1.89539,0 -2.818465,-1.03385 -0.923077,-1.04615 -0.923077,-2.86769 v -9.4277 z" id="path4527"/><path d="m 115.88345,106.51478 q 0.66462,-0.88615 1.57539,-1.39077 0.91077,-0.50461 1.99384,-0.50461 1.71077,0 2.76923,0.84923 1.07077,0.83692 1.56308,2.37538 0.50462,1.52616 0.50462,3.59385 0,1.98154 -0.59077,3.53231 -0.59077,1.55077 -1.74769,2.43692 -1.14462,0.88616 -2.83077,0.88616 -2.17847,0 -3.42154,-1.61231 l -0.14769,1.28 h -2.42462 V 99.745553 l 2.75692,-0.307692 z m 2.5477,9.67385 q 1.40307,0 2.16615,-1.14462 0.77538,-1.14461 0.77538,-3.59384 0,-2.49846 -0.70153,-3.59385 -0.68924,-1.10769 -1.96924,-1.10769 -0.92307,0 -1.63692,0.55385 -0.70154,0.55384 -1.18154,1.30461 v 6.08 q 0.45539,0.70154 1.09539,1.10769 0.65231,0.39385 1.45231,0.39385 z" id="path4529"/><path d="m 133.60654,99.745553 v 14.670767 q 0,0.89846 0.54154,1.28 0.55384,0.36923 1.42769,0.36923 0.55385,0 1.05846,-0.11077 0.51693,-0.12307 0.99693,-0.32 l 0.70153,1.92 q -0.57846,0.29539 -1.42769,0.51693 -0.83692,0.22154 -1.92,0.22154 -1.95692,0 -3.05231,-1.1077 -1.08307,-1.10769 -1.08307,-3.01538 v -12.39385 h -3.92616 v -2.030767 z" id="path4531"/><path d="m 147.84655,98.600937 q 0.81231,0 1.30462,0.492308 0.50461,0.492308 0.50461,1.230765 0,0.73847 -0.50461,1.24308 -0.49231,0.50462 -1.30462,0.50462 -0.78769,0 -1.29231,-0.50462 -0.50461,-0.50461 -0.50461,-1.24308 0,-0.738457 0.50461,-1.230765 0.50462,-0.492308 1.29231,-0.492308 z m 1.92,6.363073 v 10.97847 h 3.53231 v 2.01846 H 143.1204 v -2.01846 h 3.88923 v -8.96 h -3.76616 v -2.01847 z" id="path4533"/><path d="m 163.69887,116.02863 q 0.91077,0 1.69846,-0.32 0.78769,-0.32 1.50154,-0.81231 l 1.28,1.77231 q -0.84923,0.72615 -2.06769,1.18154 -1.20616,0.44308 -2.49846,0.44308 -1.99385,0 -3.42154,-0.83693 -1.41539,-0.84923 -2.16616,-2.36307 -0.73846,-1.52616 -0.73846,-3.56924 0,-1.98153 0.75077,-3.5323 0.76308,-1.56308 2.19077,-2.46154 1.42769,-0.91077 3.43385,-0.91077 2.60923,0 4.50461,1.56308 l -1.26769,1.73538 q -0.76308,-0.52923 -1.56308,-0.8 -0.8,-0.28308 -1.62461,-0.28308 -1.55077,0 -2.52308,1.13231 -0.97231,1.13231 -0.97231,3.55692 0,2.43693 0.98462,3.47077 0.98461,1.03385 2.49846,1.03385 z" id="path4535"/><path d="m 191.69889,116.17632 q 1.29231,0 2.05538,-0.45538 0.76308,-0.46769 0.76308,-1.28 0,-0.52923 -0.22154,-0.89846 -0.22154,-0.36923 -0.88615,-0.68923 -0.66462,-0.32 -2.01846,-0.66462 -1.28,-0.33231 -2.25231,-0.78769 -0.96,-0.45539 -1.48923,-1.18154 -0.52923,-0.72615 -0.52923,-1.87077 0,-1.67385 1.39077,-2.69538 1.40307,-1.03385 3.80307,-1.03385 1.63693,0 2.85539,0.43077 1.21846,0.43077 2.08,1.07077 l -1.15692,1.73538 q -0.76308,-0.50461 -1.67385,-0.82461 -0.89846,-0.32 -2.03077,-0.32 -1.31692,0 -1.89538,0.39384 -0.56616,0.39385 -0.56616,1.04616 0,0.4923 0.28308,0.8123 0.29538,0.32 1.00923,0.60308 0.71385,0.28308 2.01846,0.64 1.26769,0.34462 2.20308,0.81231 0.94769,0.46769 1.46461,1.24308 0.52923,0.76307 0.52923,1.99384 0,1.40308 -0.8123,2.30154 -0.81231,0.88615 -2.11693,1.31692 -1.30461,0.41847 -2.80615,0.41847 -1.80923,0 -3.12615,-0.51693 -1.31693,-0.52923 -2.21539,-1.31692 l 1.46462,-1.67385 q 0.76307,0.61539 1.74769,1.00923 0.98461,0.38154 2.12923,0.38154 z" id="path4537"/><path d="m 212.59736,117.27171 q -0.71384,0.45538 -1.71077,0.73846 -0.99692,0.28308 -2.08,0.28308 -2.26461,0 -3.44615,-1.16924 -1.16923,-1.18153 -1.16923,-3.10153 v -7.05231 h -2.89231 v -2.00616 h 2.89231 v -2.90461 l 2.75692,-0.33231 v 3.23692 h 4.38154 l -0.30769,2.00616 h -4.07385 v 7.02769 q 0,1.04615 0.51692,1.56308 0.52924,0.50461 1.72308,0.50461 0.71385,0 1.30462,-0.1723 0.60307,-0.17231 1.10769,-0.44308 z" id="path4539"/><path d="m 226.44353,114.77325 q 0,0.77538 0.23384,1.12 0.23385,0.34461 0.75077,0.51692 l -0.61538,1.87077 q -0.96,-0.11077 -1.66154,-0.52923 -0.68923,-0.41846 -1.03385,-1.2677 -0.71384,0.91077 -1.80923,1.36616 -1.09538,0.44308 -2.33846,0.44308 -1.98154,0 -3.12615,-1.1077 -1.14462,-1.12 -1.14462,-2.92923 0,-2.05538 1.6,-3.16307 1.6,-1.1077 4.57846,-1.1077 h 1.85846 v -0.84923 q 0,-1.26769 -0.76307,-1.80923 -0.76308,-0.55384 -2.12923,-0.55384 -0.64,0 -1.55077,0.1723 -0.91077,0.16 -1.90769,0.50462 l -0.67693,-1.94462 q 1.21846,-0.45538 2.38769,-0.66461 1.16924,-0.22154 2.16616,-0.22154 2.60923,0 3.88923,1.15692 1.29231,1.15693 1.29231,3.2 z m -5.63693,1.48923 q 0.83693,0 1.63693,-0.44308 0.8,-0.44308 1.2923,-1.24308 v -2.86769 h -1.52615 q -1.94461,0 -2.78154,0.65231 -0.83692,0.64 -0.83692,1.77231 0,2.12923 2.21538,2.12923 z" id="path4541"/><path d="m 242.13585,117.27171 q -0.71385,0.45538 -1.71077,0.73846 -0.99693,0.28308 -2.08,0.28308 -2.26462,0 -3.44616,-1.16924 -1.16923,-1.18153 -1.16923,-3.10153 v -7.05231 h -2.89231 v -2.00616 h 2.89231 v -2.90461 l 2.75692,-0.33231 v 3.23692 h 4.38154 l -0.30769,2.00616 h -4.07385 v 7.02769 q 0,1.04615 0.51693,1.56308 0.52923,0.50461 1.72307,0.50461 0.71385,0 1.30462,-0.1723 0.60308,-0.17231 1.10769,-0.44308 z" id="path4543"/><path d="m 251.23124,98.600937 q 0.81231,0 1.30462,0.492308 0.50461,0.492308 0.50461,1.230765 0,0.73847 -0.50461,1.24308 -0.49231,0.50462 -1.30462,0.50462 -0.78769,0 -1.29231,-0.50462 -0.50461,-0.50461 -0.50461,-1.24308 0,-0.738457 0.50461,-1.230765 0.50462,-0.492308 1.29231,-0.492308 z m 1.92,6.363073 v 10.97847 h 3.53231 v 2.01846 h -10.17846 v -2.01846 h 3.88923 v -8.96 h -3.76616 v -2.01847 z" id="path4545"/><path d="m 267.08356,116.02863 q 0.91077,0 1.69846,-0.32 0.78769,-0.32 1.50154,-0.81231 l 1.28,1.77231 q -0.84923,0.72615 -2.06769,1.18154 -1.20616,0.44308 -2.49847,0.44308 -1.99384,0 -3.42153,-0.83693 -1.41539,-0.84923 -2.16616,-2.36307 -0.73846,-1.52616 -0.73846,-3.56924 0,-1.98153 0.75077,-3.5323 0.76308,-1.56308 2.19077,-2.46154 1.42769,-0.91077 3.43385,-0.91077 2.60923,0 4.50461,1.56308 l -1.26769,1.73538 q -0.76308,-0.52923 -1.56308,-0.8 -0.8,-0.28308 -1.62461,-0.28308 -1.55077,0 -2.52308,1.13231 -0.97231,1.13231 -0.97231,3.55692 0,2.43693 0.98462,3.47077 0.98461,1.03385 2.49846,1.03385 z" id="path4547"/><path d="m 301.66819,113.16094 q 0,1.51384 -0.77538,2.67077 -0.76308,1.15692 -2.21538,1.80923 -1.44,0.65231 -3.48308,0.65231 -2.08,0 -3.63077,-0.61539 -1.55077,-0.61538 -2.62154,-1.66154 l 1.56308,-1.74769 q 0.89846,0.83692 2.04307,1.30462 1.14462,0.46769 2.63385,0.46769 1.44,0 2.47385,-0.67693 1.04615,-0.68923 1.04615,-2.06769 0,-0.73846 -0.30769,-1.25538 -0.30769,-0.52923 -1.07077,-0.93539 -0.75077,-0.41846 -2.10462,-0.82461 -2.69538,-0.8 -4.08615,-1.93231 -1.39077,-1.13231 -1.39077,-3.12615 0,-1.37847 0.75077,-2.41231 0.76308,-1.03385 2.08,-1.6 1.32923,-0.57846 3.00308,-0.57846 1.84615,0 3.22461,0.54154 1.37846,0.52923 2.46154,1.50153 l -1.50154,1.69847 q -0.89846,-0.77539 -1.93231,-1.13231 -1.02153,-0.36923 -2.08,-0.36923 -1.30461,0 -2.19076,0.55384 -0.88616,0.54154 -0.88616,1.63693 0,0.66461 0.35692,1.1323 0.36924,0.45539 1.23077,0.86154 0.87385,0.39385 2.3877,0.84923 1.42769,0.41846 2.56,1.03385 1.14461,0.61538 1.79692,1.62461 0.66461,0.99693 0.66461,2.59693 z" id="path4549"/><path d="m 315.98207,117.27171 q -0.71385,0.45538 -1.71077,0.73846 -0.99693,0.28308 -2.08,0.28308 -2.26462,0 -3.44616,-1.16924 -1.16923,-1.18153 -1.16923,-3.10153 v -7.05231 h -2.8923 v -2.00616 h 2.8923 v -2.90461 l 2.75693,-0.33231 v 3.23692 h 4.38153 l -0.30769,2.00616 h -4.07384 v 7.02769 q 0,1.04615 0.51692,1.56308 0.52923,0.50461 1.72308,0.50461 0.71384,0 1.30461,-0.1723 0.60308,-0.17231 1.10769,-0.44308 z" id="path4551"/><path d="m 320.01899,117.96094 v -1.96923 h 1.90769 v -9.07077 h -1.90769 v -1.95693 h 4.0123 l 0.50462,3.01539 q 0.72615,-1.63692 1.79692,-2.48615 1.08308,-0.86154 2.78154,-0.86154 0.57846,0 1.03385,0.0985 0.46769,0.0862 0.92307,0.23384 l -0.46769,4.7877 h -1.96923 v -2.64616 q -1.37846,0.0492 -2.37538,1.1077 -0.99693,1.04615 -1.57539,2.95384 v 4.82462 h 2.62154 v 1.96923 z" id="path4553"/><path d="m 339.84667,98.600937 q 0.81231,0 1.30462,0.492308 0.50461,0.492308 0.50461,1.230765 0,0.73847 -0.50461,1.24308 -0.49231,0.50462 -1.30462,0.50462 -0.78769,0 -1.2923,-0.50462 -0.50462,-0.50461 -0.50462,-1.24308 0,-0.738457 0.50462,-1.230765 0.50461,-0.492308 1.2923,-0.492308 z m 1.92,6.363073 v 10.97847 h 3.53231 v 2.01846 h -10.17846 v -2.01846 h 3.88923 v -8.96 h -3.76615 v -2.01847 z" id="path4555"/><path d="m 349.43439,117.96094 v -12.99693 h 2.37539 l 0.20923,1.68616 q 0.8123,-0.98462 1.92,-1.50154 1.10769,-0.52923 2.27692,-0.52923 1.82154,0 2.72,1.02154 0.91077,1.02154 0.91077,2.84307 v 9.47693 h -2.75692 v -8.11077 q 0,-1.68616 -0.34462,-2.4 -0.33231,-0.72616 -1.51385,-0.72616 -0.94769,0 -1.73538,0.59077 -0.77539,0.57847 -1.30462,1.31693 v 9.32923 z" id="path4557"/><path d="m 375.14519,103.31478 0.73846,2.28923 q -0.77539,0.25847 -1.71077,0.34462 -0.92308,0.0862 -2.06769,0.0862 1.16923,0.51693 1.76,1.32923 0.59077,0.8 0.59077,1.96924 0,1.26769 -0.61539,2.26461 -0.61538,0.99692 -1.77231,1.56308 -1.14461,0.56615 -2.7323,0.56615 -0.56616,0 -0.98462,-0.0492 -0.40615,-0.0492 -0.8,-0.16 -0.57846,0.38154 -0.57846,1.07077 0,0.39385 0.32,0.68923 0.33231,0.28308 1.30461,0.28308 h 2.26462 q 1.39077,0 2.44923,0.48 1.07077,0.46769 1.67385,1.29231 0.61538,0.8123 0.61538,1.84615 0,1.94461 -1.67385,3.01538 -1.67384,1.07077 -4.82461,1.07077 -2.24,0 -3.50769,-0.45538 -1.25539,-0.45539 -1.77231,-1.35385 -0.51692,-0.89846 -0.51692,-2.20307 h 2.47384 q 0,0.68923 0.25846,1.1323 0.27077,0.44308 0.99693,0.65231 0.72615,0.22154 2.0923,0.22154 2.03077,0 2.8677,-0.50462 0.83692,-0.4923 0.83692,-1.39077 0,-0.8 -0.68923,-1.23076 -0.68923,-0.41847 -1.84615,-0.41847 h -2.2277 q -1.84615,0 -2.70769,-0.75077 -0.84923,-0.75076 -0.84923,-1.74769 0,-1.40307 1.45231,-2.35077 -1.16923,-0.61538 -1.71077,-1.48923 -0.52923,-0.88615 -0.52923,-2.14154 0,-1.37846 0.68923,-2.4123 0.68923,-1.03385 1.90769,-1.61231 1.23077,-0.57846 2.83077,-0.57846 1.56308,0.0123 2.60923,-0.16 1.04615,-0.17231 1.82154,-0.4677 0.78769,-0.30769 1.56308,-0.68923 z m -5.96923,3.21231 q -1.31693,0 -1.98154,0.75077 -0.66462,0.73846 -0.66462,1.93231 0,1.23077 0.67692,1.98154 0.67693,0.73846 2.00616,0.73846 1.21846,0 1.85846,-0.71385 0.65231,-0.71384 0.65231,-2.03077 0,-2.65846 -2.54769,-2.65846 z" id="path4559"/><path d="m 398.46825,116.17632 q 1.29231,0 2.05539,-0.45538 0.76308,-0.46769 0.76308,-1.28 0,-0.52923 -0.22154,-0.89846 -0.22154,-0.36923 -0.88616,-0.68923 -0.66461,-0.32 -2.01846,-0.66462 -1.28,-0.33231 -2.25231,-0.78769 -0.96,-0.45539 -1.48923,-1.18154 -0.52923,-0.72615 -0.52923,-1.87077 0,-1.67385 1.39077,-2.69538 1.40308,-1.03385 3.80308,-1.03385 1.63692,0 2.85538,0.43077 1.21846,0.43077 2.08,1.07077 l -1.15692,1.73538 q -0.76308,-0.50461 -1.67385,-0.82461 -0.89846,-0.32 -2.03077,-0.32 -1.31692,0 -1.89538,0.39384 -0.56615,0.39385 -0.56615,1.04616 0,0.4923 0.28307,0.8123 0.29539,0.32 1.00923,0.60308 0.71385,0.28308 2.01847,0.64 1.26769,0.34462 2.20307,0.81231 0.94769,0.46769 1.46462,1.24308 0.52923,0.76307 0.52923,1.99384 0,1.40308 -0.81231,2.30154 -0.81231,0.88615 -2.11692,1.31692 -1.30462,0.41847 -2.80616,0.41847 -1.80923,0 -3.12615,-0.51693 -1.31692,-0.52923 -2.21538,-1.31692 l 1.46461,-1.67385 q 0.76308,0.61539 1.74769,1.00923 0.98462,0.38154 2.12923,0.38154 z" id="path4561"/><path d="m 418.44366,114.77325 q 0,0.77538 0.23385,1.12 0.23385,0.34461 0.75077,0.51692 l -0.61539,1.87077 q -0.96,-0.11077 -1.66153,-0.52923 -0.68923,-0.41846 -1.03385,-1.2677 -0.71385,0.91077 -1.80923,1.36616 -1.09539,0.44308 -2.33846,0.44308 -1.98154,0 -3.12616,-1.1077 -1.14461,-1.12 -1.14461,-2.92923 0,-2.05538 1.6,-3.16307 1.6,-1.1077 4.57846,-1.1077 h 1.85846 v -0.84923 q 0,-1.26769 -0.76308,-1.80923 -0.76307,-0.55384 -2.12923,-0.55384 -0.64,0 -1.55077,0.1723 -0.91076,0.16 -1.90769,0.50462 l -0.67692,-1.94462 q 1.21846,-0.45538 2.38769,-0.66461 1.16923,-0.22154 2.16616,-0.22154 2.60923,0 3.88923,1.15692 1.2923,1.15693 1.2923,3.2 z m -5.63692,1.48923 q 0.83692,0 1.63692,-0.44308 0.8,-0.44308 1.29231,-1.24308 v -2.86769 h -1.52615 q -1.94462,0 -2.78154,0.65231 -0.83692,0.64 -0.83692,1.77231 0,2.12923 2.21538,2.12923 z" id="path4563"/><path d="m 434.65292,104.96401 -4.48,13.04616 q -0.50461,1.47692 -1.29231,2.60923 -0.78769,1.13231 -2.01846,1.80923 -1.23077,0.68923 -3.05231,0.84923 l -0.35692,-2.06769 q 1.31692,-0.20923 2.09231,-0.61539 0.78769,-0.39384 1.24308,-1.04615 0.46769,-0.64 0.82461,-1.58769 h -0.93538 L 422.296,104.96401 h 2.92923 l 3.27384,11.07693 3.32308,-11.07693 z" id="path4565"/><path d="m 446.01292,117.96094 v -7.71693 h -5.53847 v 7.71693 h -2.85538 v -16.98462 h 2.85538 v 6.91693 h 5.53847 v -6.91693 h 2.85538 v 16.98462 z" id="path4567"/><path d="m 455.1083,112.34863 q 0.12307,2.00615 1.12,2.90462 1.00923,0.89846 2.42461,0.89846 0.94769,0 1.76,-0.29539 0.82462,-0.29538 1.64923,-0.83692 l 1.19385,1.64923 q -0.91077,0.73846 -2.12923,1.18154 -1.21846,0.44308 -2.60923,0.44308 -2.03077,0 -3.43385,-0.86154 -1.39077,-0.86154 -2.11692,-2.4 -0.71385,-1.53846 -0.71385,-3.55693 0,-1.95692 0.71385,-3.49538 0.71384,-1.55077 2.04307,-2.44923 1.32924,-0.91077 3.17539,-0.91077 2.58461,0 4.08615,1.73538 1.51385,1.73539 1.51385,4.76308 0,0.33231 -0.0246,0.66462 -0.0123,0.32 -0.0369,0.56615 z m 3.10153,-5.68615 q -1.2923,0 -2.14153,0.92307 -0.84923,0.92308 -0.97231,2.88 h 6.01846 q -0.0369,-1.83384 -0.78769,-2.81846 -0.73846,-0.98461 -2.11693,-0.98461 z" id="path4569"/><path d="m 473.29909,99.745553 v 14.670767 q 0,0.89846 0.54154,1.28 0.55385,0.36923 1.42769,0.36923 0.55385,0 1.05846,-0.11077 0.51693,-0.12307 0.99693,-0.32 l 0.70153,1.92 q -0.57846,0.29539 -1.42769,0.51693 -0.83692,0.22154 -1.92,0.22154 -1.95692,0 -3.05231,-1.1077 -1.08307,-1.10769 -1.08307,-3.01538 v -12.39385 h -3.92616 v -2.030767 z" id="path4571"/><path d="m 488.06835,99.745553 v 14.670767 q 0,0.89846 0.54154,1.28 0.55384,0.36923 1.42769,0.36923 0.55384,0 1.05846,-0.11077 0.51692,-0.12307 0.99692,-0.32 l 0.70154,1.92 q -0.57846,0.29539 -1.42769,0.51693 -0.83692,0.22154 -1.92,0.22154 -1.95692,0 -3.05231,-1.1077 -1.08308,-1.10769 -1.08308,-3.01538 v -12.39385 h -3.92615 v -2.030767 z" id="path4573"/><path d="m 502.33296,104.6194 q 2.85538,0 4.35692,1.85846 1.50154,1.85846 1.50154,4.96 0,2.06769 -0.68923,3.60615 -0.67692,1.53847 -1.99385,2.4 -1.30461,0.84924 -3.18769,0.84924 -2.84308,0 -4.35692,-1.83385 -1.51385,-1.84615 -1.51385,-4.99692 0,-2.01847 0.67692,-3.55693 0.68924,-1.55077 2.00616,-2.4123 1.31692,-0.87385 3.2,-0.87385 z m 0,2.14154 q -1.48923,0 -2.24,1.14461 -0.75077,1.13231 -0.75077,3.55693 0,2.42461 0.73846,3.56923 0.75077,1.1323 2.24,1.1323 1.48923,0 2.22769,-1.14461 0.75077,-1.14462 0.75077,-3.58154 0,-2.4 -0.73846,-3.53231 -0.73846,-1.14461 -2.22769,-1.14461 z" id="path4575"/><path d="m 515.39142,109.34555 q 0,2.36308 0.51692,4.1477 0.52923,1.78461 1.63692,3.34769 1.12,1.56307 2.88,3.24923 l -1.52615,1.47692 q -1.98154,-1.63692 -3.40923,-3.40923 -1.41539,-1.77231 -2.17846,-3.90154 -0.76308,-2.14154 -0.76308,-4.91077 0,-2.76923 0.76308,-4.89846 0.76307,-2.14154 2.17846,-3.91384 1.42769,-1.772313 3.40923,-3.409236 l 1.52615,1.476923 q -1.72308,1.661543 -2.84308,3.224613 -1.12,1.55077 -1.66153,3.3477 -0.52923,1.79692 -0.52923,4.1723 z" id="path4577"/><path d="m 533.55759,109.34555 q 0,-2.37538 -0.54153,-4.1723 -0.52923,-1.79693 -1.64923,-3.3477 -1.12,-1.56307 -2.84308,-3.224613 l 1.52615,-1.476923 q 1.98154,1.636923 3.39693,3.409236 1.42769,1.7723 2.19076,3.91384 0.76308,2.12923 0.76308,4.89846 0,2.76923 -0.76308,4.91077 -0.76307,2.12923 -2.19076,3.90154 -1.41539,1.77231 -3.39693,3.40923 l -1.52615,-1.47692 q 1.76,-1.68616 2.86769,-3.24923 1.12,-1.56308 1.63692,-3.34769 0.52923,-1.78462 0.52923,-4.1477 z" id="path4579"/><path d="m 565.26223,97.357861 v 2.030769 q -1.26769,0 -2.08,0.381538 -0.81231,0.381542 -0.70154,1.427692 l 0.45539,4.51692 q 0.18461,1.7477 -0.60308,2.57231 -0.78769,0.81231 -2.27692,1.05846 1.55077,0.25846 2.30154,1.04616 0.76307,0.77538 0.57846,2.58461 l -0.45539,4.51693 q -0.11077,1.05846 0.70154,1.42769 0.81231,0.38154 2.08,0.38154 v 2.03077 q -1.71077,0 -2.97846,-0.36924 -1.25538,-0.36923 -1.89538,-1.26769 -0.6277,-0.89846 -0.45539,-2.46154 l 0.45539,-4.24615 q 0.13538,-1.30462 -0.66462,-1.92 -0.8,-0.61538 -2.92923,-0.61538 v -2.21539 q 2.12923,0 2.92923,-0.60308 0.8,-0.60307 0.66462,-1.92 l -0.45539,-4.24615 q -0.17231,-1.575385 0.45539,-2.473846 0.64,-0.898462 1.89538,-1.267693 1.26769,-0.36923 2.97846,-0.36923 z" id="path4581"/><path d="m 142.78809,147.96094 v -1.96923 h 1.90769 v -9.07077 h -1.90769 v -1.95693 h 4.01231 l 0.50461,3.01539 q 0.72616,-1.63692 1.79693,-2.48615 1.08307,-0.86154 2.78153,-0.86154 0.57847,0 1.03385,0.0985 0.46769,0.0862 0.92308,0.23384 l -0.4677,4.7877 h -1.96923 v -2.64616 q -1.37846,0.0492 -2.37538,1.1077 -0.99692,1.04615 -1.57539,2.95384 v 4.82462 h 2.62154 v 1.96923 z" id="path4583"/><path d="m 159.72348,142.34863 q 0.12308,2.00615 1.12,2.90462 1.00924,0.89846 2.42462,0.89846 0.94769,0 1.76,-0.29539 0.82462,-0.29538 1.64923,-0.83692 l 1.19385,1.64923 q -0.91077,0.73846 -2.12923,1.18154 -1.21847,0.44308 -2.60923,0.44308 -2.03077,0 -3.43385,-0.86154 -1.39077,-0.86154 -2.11692,-2.4 -0.71385,-1.53846 -0.71385,-3.55693 0,-1.95692 0.71385,-3.49538 0.71384,-1.55077 2.04307,-2.44923 1.32923,-0.91077 3.17539,-0.91077 2.58461,0 4.08615,1.73538 1.51385,1.73539 1.51385,4.76308 0,0.33231 -0.0246,0.66462 -0.0123,0.32 -0.0369,0.56615 z m 3.10154,-5.68615 q -1.2923,0 -2.14154,0.92307 -0.84923,0.92308 -0.9723,2.88 h 6.01846 q -0.0369,-1.83384 -0.78769,-2.81846 -0.73847,-0.98461 -2.11693,-0.98461 z" id="path4585"/><path d="m 183.05888,147.27171 q -0.71385,0.45538 -1.71077,0.73846 -0.99692,0.28308 -2.08,0.28308 -2.26461,0 -3.44615,-1.16924 -1.16923,-1.18153 -1.16923,-3.10153 v -7.05231 h -2.89231 v -2.00616 h 2.89231 v -2.90461 l 2.75692,-0.33231 v 3.23692 h 4.38154 l -0.30769,2.00616 h -4.07385 v 7.02769 q 0,1.04615 0.51692,1.56308 0.52923,0.50461 1.72308,0.50461 0.71385,0 1.30461,-0.1723 0.60308,-0.17231 1.1077,-0.44308 z" id="path4587"/><path d="m 189.72966,134.96401 v 9.08308 q 0,1.15692 0.45538,1.64923 0.4677,0.49231 1.40308,0.49231 0.88615,0 1.71077,-0.52923 0.82462,-0.52923 1.30462,-1.29231 v -9.40308 h 2.75692 v 12.99693 h -2.37539 l -0.1723,-1.66154 q -0.72616,0.97231 -1.83385,1.48923 -1.10769,0.50462 -2.26462,0.50462 -1.89538,0 -2.81846,-1.03385 -0.92307,-1.04615 -0.92307,-2.86769 v -9.4277 z" id="path4589"/><path d="m 201.86505,147.96094 v -1.96923 h 1.9077 v -9.07077 h -1.9077 v -1.95693 h 4.01231 l 0.50462,3.01539 q 0.72615,-1.63692 1.79692,-2.48615 1.08308,-0.86154 2.78154,-0.86154 0.57846,0 1.03385,0.0985 0.46769,0.0862 0.92307,0.23384 l -0.46769,4.7877 h -1.96923 v -2.64616 q -1.37846,0.0492 -2.37539,1.1077 -0.99692,1.04615 -1.57538,2.95384 v 4.82462 h 2.62154 v 1.96923 z" id="path4591"/><path d="m 216.51122,147.96094 v -12.99693 h 2.37538 l 0.20923,1.68616 q 0.81231,-0.98462 1.92,-1.50154 1.1077,-0.52923 2.27693,-0.52923 1.82154,0 2.72,1.02154 0.91077,1.02154 0.91077,2.84307 v 9.47693 h -2.75693 v -8.11077 q 0,-1.68616 -0.34461,-2.4 -0.33231,-0.72616 -1.51385,-0.72616 -0.94769,0 -1.73538,0.59077 -0.77539,0.57847 -1.30462,1.31693 v 9.32923 z" id="path4593"/><path d="m 246.0497,147.96094 v -12.99693 h 2.37539 l 0.20923,1.68616 q 0.8123,-0.98462 1.92,-1.50154 1.10769,-0.52923 2.27692,-0.52923 1.82154,0 2.72,1.02154 0.91077,1.02154 0.91077,2.84307 v 9.47693 h -2.75692 v -8.11077 q 0,-1.68616 -0.34462,-2.4 -0.33231,-0.72616 -1.51385,-0.72616 -0.94769,0 -1.73538,0.59077 -0.77538,0.57847 -1.30462,1.31693 v 9.32923 z" id="path4595"/><path d="m 263.10817,142.34863 q 0.12308,2.00615 1.12,2.90462 1.00923,0.89846 2.42462,0.89846 0.94769,0 1.76,-0.29539 0.82461,-0.29538 1.64923,-0.83692 l 1.19385,1.64923 q -0.91077,0.73846 -2.12923,1.18154 -1.21847,0.44308 -2.60924,0.44308 -2.03076,0 -3.43384,-0.86154 -1.39077,-0.86154 -2.11692,-2.4 -0.71385,-1.53846 -0.71385,-3.55693 0,-1.95692 0.71385,-3.49538 0.71384,-1.55077 2.04307,-2.44923 1.32923,-0.91077 3.17539,-0.91077 2.58461,0 4.08615,1.73538 1.51385,1.73539 1.51385,4.76308 0,0.33231 -0.0246,0.66462 -0.0123,0.32 -0.0369,0.56615 z m 3.10154,-5.68615 q -1.29231,0 -2.14154,0.92307 -0.84923,0.92308 -0.9723,2.88 h 6.01846 q -0.0369,-1.83384 -0.78769,-2.81846 -0.73847,-0.98461 -2.11693,-0.98461 z" id="path4597"/><path d="m 285.75434,147.96094 h -3.44616 l -1.46461,-9.23077 -1.57539,9.23077 h -3.3723 l -2.20308,-12.99693 h 2.65846 l 1.35385,11.28616 1.80923,-9.63692 h 2.75692 l 1.68616,9.63692 1.35384,-11.28616 h 2.56 z" id="path4599"/><path d="m 316.43745,143.16094 q 0,1.51384 -0.77538,2.67077 -0.76308,1.15692 -2.21539,1.80923 -1.44,0.65231 -3.48307,0.65231 -2.08,0 -3.63077,-0.61539 -1.55077,-0.61538 -2.62154,-1.66154 l 1.56307,-1.74769 q 0.89847,0.83692 2.04308,1.30462 1.14462,0.46769 2.63385,0.46769 1.44,0 2.47384,-0.67693 1.04616,-0.68923 1.04616,-2.06769 0,-0.73846 -0.30769,-1.25538 -0.3077,-0.52923 -1.07077,-0.93539 -0.75077,-0.41846 -2.10462,-0.82461 -2.69538,-0.8 -4.08615,-1.93231 -1.39077,-1.13231 -1.39077,-3.12615 0,-1.37847 0.75077,-2.41231 0.76307,-1.03385 2.08,-1.6 1.32923,-0.57846 3.00307,-0.57846 1.84616,0 3.22462,0.54154 1.37846,0.52923 2.46154,1.50153 l -1.50154,1.69847 q -0.89846,-0.77539 -1.93231,-1.13231 -1.02154,-0.36923 -2.08,-0.36923 -1.30461,0 -2.19077,0.55384 -0.88615,0.54154 -0.88615,1.63693 0,0.66461 0.35692,1.1323 0.36923,0.45539 1.23077,0.86154 0.87385,0.39385 2.38769,0.84923 1.4277,0.41846 2.56,1.03385 1.14462,0.61538 1.79693,1.62461 0.66461,0.99693 0.66461,2.59693 z" id="path4601"/><path d="m 330.75129,147.27171 q -0.71384,0.45538 -1.71077,0.73846 -0.99692,0.28308 -2.08,0.28308 -2.26461,0 -3.44615,-1.16924 -1.16923,-1.18153 -1.16923,-3.10153 v -7.05231 h -2.89231 v -2.00616 h 2.89231 v -2.90461 l 2.75692,-0.33231 v 3.23692 h 4.38154 l -0.30769,2.00616 h -4.07385 v 7.02769 q 0,1.04615 0.51693,1.56308 0.52923,0.50461 1.72307,0.50461 0.71385,0 1.30462,-0.1723 0.60307,-0.17231 1.10769,-0.44308 z" id="path4603"/><path d="m 334.78821,147.96094 v -1.96923 h 1.90769 v -9.07077 h -1.90769 v -1.95693 h 4.01231 l 0.50461,3.01539 q 0.72616,-1.63692 1.79693,-2.48615 1.08307,-0.86154 2.78154,-0.86154 0.57846,0 1.03384,0.0985 0.46769,0.0862 0.92308,0.23384 l -0.46769,4.7877 h -1.96923 v -2.64616 q -1.37847,0.0492 -2.37539,1.1077 -0.99692,1.04615 -1.57538,2.95384 v 4.82462 h 2.62154 v 1.96923 z" id="path4605"/><path d="m 354.61593,128.60094 q 0.81231,0 1.30461,0.49231 0.50462,0.4923 0.50462,1.23076 0,0.73847 -0.50462,1.24308 -0.4923,0.50462 -1.30461,0.50462 -0.78769,0 -1.29231,-0.50462 -0.50461,-0.50461 -0.50461,-1.24308 0,-0.73846 0.50461,-1.23076 0.50462,-0.49231 1.29231,-0.49231 z m 1.92,6.36307 v 10.97847 h 3.53231 v 2.01846 h -10.17846 v -2.01846 h 3.88923 v -8.96 h -3.76616 v -2.01847 z" id="path4607"/><path d="m 364.20365,147.96094 v -12.99693 h 2.37538 l 0.20923,1.68616 q 0.81231,-0.98462 1.92,-1.50154 1.1077,-0.52923 2.27693,-0.52923 1.82153,0 2.72,1.02154 0.91077,1.02154 0.91077,2.84307 v 9.47693 h -2.75693 v -8.11077 q 0,-1.68616 -0.34461,-2.4 -0.33231,-0.72616 -1.51385,-0.72616 -0.94769,0 -1.73538,0.59077 -0.77539,0.57847 -1.30462,1.31693 v 9.32923 z" id="path4609"/><path d="m 389.91441,133.31478 0.73846,2.28923 q -0.77538,0.25847 -1.71077,0.34462 -0.92307,0.0862 -2.06769,0.0862 1.16923,0.51693 1.76,1.32923 0.59077,0.8 0.59077,1.96924 0,1.26769 -0.61538,2.26461 -0.61539,0.99692 -1.77231,1.56308 -1.14462,0.56615 -2.73231,0.56615 -0.56615,0 -0.98461,-0.0492 -0.40616,-0.0492 -0.8,-0.16 -0.57847,0.38154 -0.57847,1.07077 0,0.39385 0.32,0.68923 0.33231,0.28308 1.30462,0.28308 h 2.26462 q 1.39076,0 2.44923,0.48 1.07077,0.46769 1.67384,1.29231 0.61539,0.8123 0.61539,1.84615 0,1.94461 -1.67385,3.01538 -1.67385,1.07077 -4.82461,1.07077 -2.24,0 -3.5077,-0.45538 -1.25538,-0.45539 -1.7723,-1.35385 -0.51693,-0.89846 -0.51693,-2.20307 h 2.47385 q 0,0.68923 0.25846,1.1323 0.27077,0.44308 0.99692,0.65231 0.72616,0.22154 2.09231,0.22154 2.03077,0 2.86769,-0.50462 0.83693,-0.4923 0.83693,-1.39077 0,-0.8 -0.68923,-1.23076 -0.68924,-0.41847 -1.84616,-0.41847 h -2.22769 q -1.84615,0 -2.70769,-0.75077 -0.84923,-0.75076 -0.84923,-1.74769 0,-1.40307 1.4523,-2.35077 -1.16923,-0.61538 -1.71077,-1.48923 -0.52923,-0.88615 -0.52923,-2.14154 0,-1.37846 0.68923,-2.4123 0.68924,-1.03385 1.9077,-1.61231 1.23077,-0.57846 2.83077,-0.57846 1.56307,0.0123 2.60923,-0.16 1.04615,-0.17231 1.82154,-0.4677 0.78769,-0.30769 1.56307,-0.68923 z m -5.96923,3.21231 q -1.31692,0 -1.98154,0.75077 -0.66461,0.73846 -0.66461,1.93231 0,1.23077 0.67692,1.98154 0.67692,0.73846 2.00615,0.73846 1.21847,0 1.85847,-0.71385 0.6523,-0.71384 0.6523,-2.03077 0,-2.65846 -2.54769,-2.65846 z" id="path4611"/><path d="m 397.23748,139.34555 q 0,2.36308 0.51693,4.1477 0.52923,1.78461 1.63692,3.34769 1.12,1.56307 2.88,3.24923 l -1.52615,1.47692 q -1.98154,-1.63692 -3.40923,-3.40923 -1.41539,-1.77231 -2.17847,-3.90154 -0.76307,-2.14154 -0.76307,-4.91077 0,-2.76923 0.76307,-4.89846 0.76308,-2.14154 2.17847,-3.91384 1.42769,-1.77231 3.40923,-3.40924 l 1.52615,1.47693 q -1.72308,1.66154 -2.84308,3.22461 -1.12,1.55077 -1.66153,3.3477 -0.52924,1.79692 -0.52924,4.1723 z" id="path4613"/><path d="m 410.44366,136.33017 -0.41846,-6.58462 h 3.00308 l -0.40615,6.58462 z m 4.34462,0 -0.41846,-6.58462 h 3.01538 l -0.41846,6.58462 z" id="path4615"/><path d="m 431.24369,147.96094 v -7.71693 h -5.53846 v 7.71693 h -2.85539 v -16.98462 h 2.85539 v 6.91693 h 5.53846 v -6.91693 h 2.85538 v 16.98462 z" id="path4617"/><path d="m 440.33907,142.34863 q 0.12308,2.00615 1.12,2.90462 1.00923,0.89846 2.42462,0.89846 0.94769,0 1.76,-0.29539 0.82461,-0.29538 1.64923,-0.83692 l 1.19384,1.64923 q -0.91077,0.73846 -2.12923,1.18154 -1.21846,0.44308 -2.60923,0.44308 -2.03077,0 -3.43385,-0.86154 -1.39076,-0.86154 -2.11692,-2.4 -0.71384,-1.53846 -0.71384,-3.55693 0,-1.95692 0.71384,-3.49538 0.71385,-1.55077 2.04308,-2.44923 1.32923,-0.91077 3.17538,-0.91077 2.58462,0 4.08616,1.73538 1.51384,1.73539 1.51384,4.76308 0,0.33231 -0.0246,0.66462 -0.0123,0.32 -0.0369,0.56615 z m 3.10154,-5.68615 q -1.29231,0 -2.14154,0.92307 -0.84923,0.92308 -0.97231,2.88 h 6.01846 q -0.0369,-1.83384 -0.78769,-2.81846 -0.73846,-0.98461 -2.11692,-0.98461 z" id="path4619"/><path d="m 458.52983,129.74555 v 14.67077 q 0,0.89846 0.54154,1.28 0.55385,0.36923 1.4277,0.36923 0.55384,0 1.05846,-0.11077 0.51692,-0.12307 0.99692,-0.32 l 0.70154,1.92 q -0.57846,0.29539 -1.42769,0.51693 -0.83693,0.22154 -1.92,0.22154 -1.95693,0 -3.05231,-1.1077 -1.08308,-1.10769 -1.08308,-3.01538 v -12.39385 h -3.92615 v -2.03077 z" id="path4621"/><path d="m 473.29909,129.74555 v 14.67077 q 0,0.89846 0.54154,1.28 0.55385,0.36923 1.42769,0.36923 0.55385,0 1.05846,-0.11077 0.51693,-0.12307 0.99693,-0.32 l 0.70153,1.92 q -0.57846,0.29539 -1.42769,0.51693 -0.83692,0.22154 -1.92,0.22154 -1.95692,0 -3.05231,-1.1077 -1.08307,-1.10769 -1.08307,-3.01538 v -12.39385 h -3.92616 v -2.03077 z" id="path4623"/><path d="m 487.56373,134.6194 q 2.85539,0 4.35693,1.85846 1.50153,1.85846 1.50153,4.96 0,2.06769 -0.68923,3.60615 -0.67692,1.53847 -1.99384,2.4 -1.30462,0.84924 -3.1877,0.84924 -2.84307,0 -4.35692,-1.83385 -1.51384,-1.84615 -1.51384,-4.99692 0,-2.01847 0.67692,-3.55693 0.68923,-1.55077 2.00615,-2.4123 1.31693,-0.87385 3.2,-0.87385 z m 0,2.14154 q -1.48923,0 -2.24,1.14461 -0.75077,1.13231 -0.75077,3.55693 0,2.42461 0.73846,3.56923 0.75077,1.1323 2.24,1.1323 1.48924,0 2.2277,-1.14461 0.75077,-1.14462 0.75077,-3.58154 0,-2.4 -0.73847,-3.53231 -0.73846,-1.14461 -2.22769,-1.14461 z" id="path4625"/><path d="m 499.05911,136.33017 -0.41846,-6.58462 h 3.00308 l -0.40616,6.58462 z m 4.34462,0 -0.41846,-6.58462 h 3.01538 l -0.41846,6.58462 z" id="path4627"/><path d="m 518.78834,139.34555 q 0,-2.37538 -0.54154,-4.1723 -0.52923,-1.79693 -1.64923,-3.3477 -1.12,-1.56307 -2.84308,-3.22461 l 1.52616,-1.47693 q 1.98153,1.63693 3.39692,3.40924 1.42769,1.7723 2.19077,3.91384 0.76308,2.12923 0.76308,4.89846 0,2.76923 -0.76308,4.91077 -0.76308,2.12923 -2.19077,3.90154 -1.41539,1.77231 -3.39692,3.40923 l -1.52616,-1.47692 q 1.76,-1.68616 2.86769,-3.24923 1.12,-1.56308 1.63693,-3.34769 0.52923,-1.78462 0.52923,-4.1477 z" id="path4629"/><path d="m 531.84683,135.12401 q 0.93538,0 1.57538,0.65231 0.64,0.64 0.64,1.55077 0,0.91077 -0.64,1.57539 -0.64,0.6523 -1.57538,0.6523 -0.93539,0 -1.57539,-0.6523 -0.64,-0.66462 -0.64,-1.57539 0,-0.91077 0.64,-1.55077 0.64,-0.65231 1.57539,-0.65231 z m 0,8.4677 q 0.94769,0 1.57538,0.64 0.64,0.64 0.64,1.56307 0,0.54154 -0.17231,1.09539 -0.16,0.55384 -0.51692,1.35384 l -1.88308,4.3077 h -2.11692 l 1.18154,-4.93539 q -0.92308,-0.64 -0.92308,-1.83384 0,-0.91077 0.64,-1.55077 0.64,-0.64 1.57539,-0.64 z" id="path4631"/><path d="m 84.917278,157.35786 q 1.710769,0 2.966154,0.36923 1.267692,0.36923 1.895384,1.26769 0.64,0.89847 0.467693,2.46154 l -0.455385,4.25846 q -0.135385,1.31693 0.726154,1.92 0.861538,0.60308 2.867692,0.60308 v 2.21539 q -1.993846,0 -2.867692,0.61538 -0.861539,0.61538 -0.726154,1.92 l 0.455385,4.23385 q 0.172307,1.57538 -0.467693,2.47384 -0.627692,0.89846 -1.895384,1.26769 -1.255385,0.36924 -2.966154,0.36924 v -2.03077 q 1.267692,0 2.08,-0.38154 0.812308,-0.36923 0.701538,-1.42769 l -0.455384,-4.51693 q -0.184616,-1.80923 0.603077,-2.58461 0.8,-0.7877 2.44923,-1.03385 -1.661538,-0.25846 -2.44923,-1.07077 -0.787693,-0.82461 -0.603077,-2.57231 l 0.455384,-4.51692 q 0.11077,-1.04615 -0.701538,-1.42769 -0.812308,-0.38154 -2.08,-0.38154 z" id="path4633"/><path d="m 25.840312,187.35786 q 1.71077,0 2.966154,0.36923 1.267693,0.36923 1.895385,1.26769 0.64,0.89847 0.467692,2.46154 l -0.455384,4.25846 q -0.135385,1.31693 0.726153,1.92 0.861539,0.60308 2.867693,0.60308 v 2.21539 q -1.993846,0 -2.867693,0.61538 -0.861538,0.61538 -0.726153,1.92 l 0.455384,4.23385 q 0.172308,1.57538 -0.467692,2.47384 -0.627692,0.89846 -1.895385,1.26769 -1.255384,0.36924 -2.966154,0.36924 v -2.03077 q 1.267693,0 2.080001,-0.38154 0.812307,-0.36923 0.701538,-1.42769 l -0.455385,-4.51693 q -0.184615,-1.80923 0.603077,-2.58461 0.8,-0.7877 2.449231,-1.03385 -1.661538,-0.25846 -2.449231,-1.07077 -0.787692,-0.82461 -0.603077,-2.57231 l 0.455385,-4.51692 q 0.110769,-1.04615 -0.701538,-1.42769 -0.812308,-0.38154 -2.080001,-0.38154 z" id="path4635"/></g></g></svg>