<?xml version="1.0" ?><svg xmlns:inkscape="http://www.inkscape.org/namespaces/inkscape" xmlns:sodipodi="http://sodipodi.sourceforge.net/DTD/sodipodi-0.dtd" xmlns="http://www.w3.org/2000/svg" xmlns:svg="http://www.w3.org/2000/svg" width="903.961" height="569.15997" viewBox="0 0 239.17329 150.59024" version="1.1" id="svg5" sodipodi:docname="anti-hooking-2.svg" xml:space="preserve"><sodipodi:namedview id="namedview7" pagecolor="#ffffff" bordercolor="#000000" borderopacity="0.25" showgrid="true"/><defs id="defs2"><rect x="22.32" y="66.96" width="848.16" height="479.88" id="rect42346"/><rect x="-558" y="-111.6" width="1116" height="613.8" id="rect41792"/><rect x="55.799999" y="55.799999" width="892.79999" height="502.20001" id="rect20415"/><rect x="22.319975" y="66.959999" width="848.159" height="479.88" id="rect2499"/></defs><g id="layer1"><g id="g26287" transform="matrix(0.26458333,0,0,0.26458333,151.03674,16.444252)"><g id="g26211" transform="translate(-559.68753,-50.991504)">
	<path style="fill:#20283c;fill-opacity:1" d="M 850.74201,546.84001 H 30.897 C 13.833,546.84001 0,533.00701 0,515.94301 V 42.057 C 0,24.993 13.833,11.16 30.897,11.16 h 819.84601 c 17.064,0 30.897,13.833 30.897,30.897 v 473.88601 c -10e-4,17.064 -13.834,30.897 -30.898,30.897 z" id="path26201" sodipodi:nodetypes="ssssssscs"/><g id="g34542" transform="matrix(0.22579297,0,0,0.22579297,19.537281,407.67356)" style="font-size:80px;font-family:'Brolink DEMO';-inkscape-font-specification:'Brolink DEMO, Normal';display:inline;opacity:1;stroke-width:8.85763;stroke-linecap:round;stroke-linejoin:round;stroke-miterlimit:2;stroke-dasharray:1.11949, 2.23898"><g id="g34508" style="stroke-width:8.85763"><path d="m 162.144,193.719 c 0,0 67.743,-16.576 50.853,-114.74 0,0 81.408,-135.816 257.901,-50.836 0,0 -114.839,23.251 -86.081,138.61 0,0 -77.272,-16.404 -96.43,49.396 0,0 -39.238,-26.305 -76.384,13.254 0.001,0 -31.497,4.809 -49.859,-35.684 z" fill="#5bc992" id="path34504" style="fill:#0d3758;fill-opacity:1;stroke-width:60.4005"/><path d="m 168.14,196.604 c -3.557,0 -6.756,-2.472 -7.539,-6.09 -0.898,-4.15 1.723,-8.243 5.861,-9.168 1.823,-0.428 42.24,-10.743 40.627,-79.558 -0.229,-9.782 -1.411,-20.039 -3.511,-30.485 l -2.197,-10.93 c -0.84,-4.18 1.868,-8.251 6.048,-9.092 4.184,-0.838 8.251,1.868 9.092,6.048 l 2.197,10.93 c 2.277,11.327 3.559,22.486 3.81,33.167 0.547,23.372 -3.317,55.876 -24.841,77.998 -13.361,13.732 -27.318,16.877 -27.906,17.004 -0.55,0.118 -1.1,0.176 -1.641,0.176 z" fill="#0bb494" id="path34506" style="fill:#59aae8;fill-opacity:0.992157;stroke-width:60.4005"/></g><g id="g34514" style="stroke-width:8.85763"><path d="m 230.826,252.7 c 40.616,-35.987 77.278,-6.195 77.278,-6.195 25.11,-63.766 100.553,-40.346 100.553,-40.346 -18.06,-117.51 98.427,-130.134 98.427,-130.134 -167.958,-100.804 -261.476,26.976 -261.476,26.976 7.818,99.299 -61.159,109.594 -61.159,109.594 0,0 10.647,24.683 46.377,40.105 z" fill="#6fd7a3" id="path34510" style="fill:#135587;fill-opacity:1;stroke-width:60.4005"/><path d="m 190.86,216.05 c -3.848,0 -7.177,-2.872 -7.655,-6.788 -0.514,-4.215 2.472,-8.051 6.676,-8.593 1.85,-0.258 43.048,-6.821 47.752,-75.499 0.668,-9.759 0.432,-20.08 -0.702,-30.678 l -1.186,-11.085 c -0.453,-4.24 2.616,-8.046 6.856,-8.499 4.242,-0.449 8.046,2.616 8.499,6.856 l 1.186,11.085 c 1.23,11.492 1.483,22.721 0.753,33.377 -1.598,23.324 -8.426,55.337 -31.888,75.392 -14.564,12.449 -28.751,14.301 -29.348,14.374 -0.316,0.039 -0.631,0.058 -0.943,0.058 z" fill="#0bb494" id="path34512" style="fill:#59aae8;fill-opacity:0.992157;stroke-width:60.4005"/></g><path d="m 99.22,32.25 c 54.02,-16.304 94.124,31.976 82.031,97.634 -11.942,64.843 13.555,101.705 49.575,122.816 34.936,20.476 92.97,61.763 97.24,138.002 7.207,128.69 -146.88,153.812 -189.774,79.616 -38.092,-65.889 25.07,-126.332 25.07,-126.332 l 15.768,13.085 c 0,0 -54.212,57.459 -6.717,98.644 41.377,35.88 119.62,4.994 94.473,-63.798 C 244.159,329.748 153.7,343.132 110.926,284.427 70.063,228.345 104.751,176.066 120.847,144.993 147.748,93.059 132.054,50.522 98.003,64.226 Z" fill="#c9f6b0" id="path34516" style="fill:#1b71af;fill-opacity:1;stroke-width:60.4005"/><g id="g34520" style="stroke-width:8.85763"><path d="M 328.066,390.702 C 323.797,314.463 265.762,273.176 230.826,252.7 194.806,231.589 169.309,194.727 181.251,129.884 193.344,64.227 153.24,15.946 99.22,32.25 l -0.016,0.427 c 31.181,11.593 49.582,49.885 40.867,97.207 -11.942,64.843 13.555,101.705 49.575,122.816 34.936,20.476 92.97,61.763 97.24,138.002 3.97,70.889 -41.004,110.348 -89.374,119.094 59.897,11.218 135.657,-27.974 130.554,-119.094 z" fill="#bbf49b" id="path34518" style="fill:#155d91;fill-opacity:1;stroke-width:60.4005"/></g><path d="M 86.13,29.061 146.528,0 c 0,0 -10.295,53.02 -52.157,74.817 L 75.834,69.492 Z" fill="#6fd7a3" id="path34522" style="fill:#00ccff;fill-opacity:1;stroke-width:60.4005"/><path d="m 108.988,0 -14.942,49.333 0.325,25.484 c 0.132,10.356 -5.648,19.894 -14.922,24.625 l -53.66,27.374 C 13.17,133.254 -0.159,119.45 6.856,107.202 15.165,92.695 24.711,75.556 34.101,57.672 41.851,42.911 53.79,30.729 68.409,22.59 Z" fill="#c9f6b0" id="path34524" style="fill:#2a95e1;fill-opacity:1;stroke-width:60.4005"/><path d="m 181.814,315.601 c 4.614,-3.907 11.558,0.252 10.29,6.164 l -6.293,29.354 -7.207,33.619 c -1.15,5.364 -8.11,6.832 -11.328,2.389 L 157.07,373.035 c -1.033,-1.427 -2.614,-2.359 -4.362,-2.573 l -16.799,-2.056 c -5.486,-0.672 -7.543,-7.554 -3.325,-11.126 l 26.177,-22.163 z" fill="#6fd7a3" id="path34526" style="fill:#2ad4ff;fill-opacity:0.992157;stroke-width:60.4005"/><path d="m 408.662,213.882 c -2.855,0 -5.599,-1.59 -6.939,-4.325 -0.083,-0.168 -8.514,-17.05 -27.948,-36.153 -17.846,-17.542 -48.949,-40.642 -95.775,-51.077 -4.162,-0.927 -6.784,-5.054 -5.857,-9.216 0.927,-4.162 5.05,-6.787 9.216,-5.857 50.722,11.302 84.422,36.5 103.761,55.648 21.095,20.887 30.105,39.107 30.478,39.872 1.869,3.833 0.277,8.455 -3.556,10.324 -1.091,0.533 -2.244,0.784 -3.38,0.784 z" fill="#0bb494" id="path34528" style="fill:#59aae8;fill-opacity:0.992157;stroke-width:60.4005"/><path d="m 308.106,254.226 c -0.035,0 -0.068,0 -0.103,-0.001 -4.254,-0.056 -7.66,-3.541 -7.62,-7.792 0,-0.459 -0.233,-27.156 -22.522,-73.746 -1.84,-3.847 -0.214,-8.457 3.633,-10.298 3.847,-1.841 8.457,-0.214 10.298,3.633 24.143,50.465 24.049,79.377 24.033,80.583 -0.056,4.231 -3.502,7.621 -7.719,7.621 z" fill="#0bb494" id="path34530" style="fill:#59aae8;fill-opacity:0.992157;stroke-width:60.4005"/><g fill="#6fd7a3" id="g34540" style="display:inline;stroke-width:60.4005"><path d="m 293.41,353.127 c -2.935,0 -5.74,-1.682 -7.034,-4.528 -1.765,-3.882 -0.048,-8.459 3.834,-10.224 6.955,-3.161 18.792,-10.715 18.911,-10.791 3.592,-2.297 8.368,-1.248 10.665,2.345 2.297,3.593 1.248,8.367 -2.345,10.665 -0.522,0.334 -12.881,8.222 -20.84,11.839 -1.036,0.47 -2.122,0.694 -3.191,0.694 z" id="path34532" style="fill:#2b97e2;fill-opacity:0.992157;stroke-width:8.85763"/><path d="m 308.098,407.232 c -4.104,0 -7.52,-3.231 -7.707,-7.372 -0.193,-4.26 3.104,-7.87 7.364,-8.063 l 20.207,-0.915 c 4.259,-0.189 7.87,3.104 8.063,7.364 0.193,4.26 -3.104,7.87 -7.364,8.063 l -20.207,0.915 c -0.119,0.005 -0.238,0.008 -0.356,0.008 z" id="path34534" style="fill:#2b97e2;fill-opacity:0.992157;stroke-width:8.85763"/><path d="m 310.641,470.991 c -1.381,0 -2.779,-0.37 -4.042,-1.148 l -14.183,-8.736 c -3.631,-2.236 -4.762,-6.993 -2.525,-10.623 2.236,-3.632 6.993,-4.762 10.623,-2.525 l 14.184,8.736 c 3.631,2.236 4.762,6.993 2.525,10.623 -1.459,2.368 -3.99,3.673 -6.582,3.673 z" id="path34536" style="fill:#2b97e2;fill-opacity:0.992157;stroke-width:8.85763"/><path d="m 258.788,512 c -2.901,0 -5.679,-1.642 -6.994,-4.441 l -7.245,-15.427 c -1.813,-3.86 -0.153,-8.458 3.707,-10.271 3.858,-1.813 8.458,-0.153 10.271,3.707 l 7.245,15.427 c 1.813,3.86 0.153,8.458 -3.707,10.271 -1.06,0.498 -2.177,0.734 -3.277,0.734 z" id="path34538" style="fill:#2b97e2;fill-opacity:0.992157;stroke-width:8.85763"/></g></g><g aria-label="MOV             X17, X17 MOV             X16, X16 STP             X29, X30, [SP,#-0x10+var_s0]! MOV             X29, SP ADRL            X0, aHookMe_0 ; &quot;hook_me()&quot; BL              .puts MOV             W0, #1 LDP             X29, X30, [SP+var_s0],#0x10" transform="matrix(1.0000012,0,0,1.0000012,-11.40444,-12.169992)" id="text2497" style="font-weight:500;font-size:28px;font-family:'Fira Code';-inkscape-font-specification:'Fira Code, Medium';white-space:pre;shape-inside:url(#rect2499);display:inline;fill:#2a96e2;stroke-width:2;stroke-linecap:round;stroke-miterlimit:2;paint-order:fill markers stroke"><path d="m 37.698774,71.645553 1.12,19.815384 h -3.044103 l -0.473846,-9.64923 q -0.100512,-2.168205 -0.08615,-4.049231 0.01436,-1.895385 0.07179,-3.187692 L 32.371595,87.971707 H 29.471082 L 26.340825,74.574784 q 0.08615,1.234871 0.114872,3.21641 0.04308,1.981538 -0.02872,4.049231 l -0.387692,9.620512 H 23.05262 l 1.12,-19.815384 h 3.991795 l 2.828718,13.282051 2.699487,-13.282051 z" id="path38122"/><path d="m 55.70494,81.553245 q 0,3.058462 -0.847179,5.384616 -0.84718,2.311794 -2.52718,3.618461 -1.68,1.292308 -4.164102,1.292308 -2.484103,0 -4.164103,-1.26359 -1.68,-1.26359 -2.527179,-3.575385 -0.84718,-2.311794 -0.84718,-5.427692 0,-3.058461 0.84718,-5.384615 0.847179,-2.326154 2.527179,-3.632821 1.68,-1.321025 4.164103,-1.321025 2.484102,0 4.164102,1.277948 1.68,1.277949 2.52718,3.604103 0.847179,2.311795 0.847179,5.427692 z m -3.446154,0 q 0,-3.848205 -0.947692,-5.772308 -0.947692,-1.938461 -3.144615,-1.938461 -2.196923,0 -3.144616,1.95282 -0.947692,1.938462 -0.947692,5.786667 0,3.833846 0.97641,5.757949 0.97641,1.909743 3.115898,1.909743 2.196923,0 3.144615,-1.924102 0.947692,-1.938462 0.947692,-5.772308 z" id="path38124"/><path d="m 65.469055,88.301963 4.738462,-16.65641 h 3.374359 L 67.307004,91.460937 H 63.487517 L 57.212645,71.645553 h 3.561025 z" id="path38126"/><path d="m 299.1041,71.645553 h 3.69026 l 3.83384,7.13641 3.87693,-7.13641 h 3.54666 l -5.48513,9.10359 6.08821,10.711794 h -3.69026 l -4.39384,-8.428717 -4.40821,8.428717 h -3.56102 l 6.00205,-10.553846 z" id="path38128"/><path d="m 330.4641,88.933758 v 2.527179 h -11.98974 v -2.527179 h 4.83897 V 74.948117 l -4.36512,2.685128 -1.37846,-2.254359 6.0882,-3.733333 h 2.84308 v 17.288205 z" id="path38130"/><path d="m 339.45283,91.805553 -3.02975,-0.933333 7.5959,-16.699488 h -9.07487 v -2.527179 h 12.33436 v 2.311795 z" id="path38132"/><path d="m 358.32055,86.291707 q 1.13436,0 1.88103,0.761025 0.74667,0.746667 0.74667,1.837949 0,0.646154 -0.20103,1.292308 -0.18667,0.646154 -0.61743,1.608205 l -2.22565,5.083077 h -2.49846 l 1.40718,-5.829744 q -1.09128,-0.732307 -1.09128,-2.168205 0,-1.076923 0.74667,-1.82359 0.74666,-0.761025 1.8523,-0.761025 z" id="path38134"/><path d="m 385.258,71.645553 h 3.69026 l 3.83384,7.13641 3.87693,-7.13641 h 3.54666 l -5.48513,9.10359 6.08821,10.711794 h -3.69026 l -4.39384,-8.428717 -4.40821,8.428717 h -3.56102 l 6.00205,-10.553846 z" id="path38136"/><path d="m 416.61803,88.933758 v 2.527179 h -11.98974 v -2.527179 h 4.83898 V 74.948117 l -4.36513,2.685128 -1.37846,-2.254359 6.0882,-3.733333 h 2.84308 v 17.288205 z" id="path38138"/><path d="m 425.60676,91.805553 -3.02975,-0.933333 7.5959,-16.699488 h -9.07487 v -2.527179 h 12.33436 v 2.311795 z" id="path38140"/><path d="m 37.698774,106.64555 1.12,19.81539 h -3.044103 l -0.473846,-9.64923 q -0.100512,-2.16821 -0.08615,-4.04923 0.01436,-1.89539 0.07179,-3.1877 l -2.914871,13.39693 h -2.900513 l -3.130257,-13.39693 q 0.08615,1.23488 0.114872,3.21641 0.04308,1.98154 -0.02872,4.04923 l -0.387692,9.62052 H 23.05262 l 1.12,-19.81539 h 3.991795 l 2.828718,13.28205 2.699487,-13.28205 z" id="path38142"/><path d="m 55.70494,116.55325 q 0,3.05846 -0.847179,5.38461 -0.84718,2.3118 -2.52718,3.61846 -1.68,1.29231 -4.164102,1.29231 -2.484103,0 -4.164103,-1.26359 -1.68,-1.26359 -2.527179,-3.57538 -0.84718,-2.3118 -0.84718,-5.4277 0,-3.05846 0.84718,-5.38461 0.847179,-2.32616 2.527179,-3.63282 1.68,-1.32103 4.164103,-1.32103 2.484102,0 4.164102,1.27795 1.68,1.27795 2.52718,3.6041 0.847179,2.3118 0.847179,5.4277 z m -3.446154,0 q 0,-3.84821 -0.947692,-5.77231 -0.947692,-1.93846 -3.144615,-1.93846 -2.196923,0 -3.144616,1.95282 -0.947692,1.93846 -0.947692,5.78666 0,3.83385 0.97641,5.75795 0.97641,1.90975 3.115898,1.90975 2.196923,0 3.144615,-1.92411 0.947692,-1.93846 0.947692,-5.7723 z" id="path38144"/><path d="m 65.469055,123.30196 4.738462,-16.65641 h 3.374359 l -6.274872,19.81539 h -3.819487 l -6.274872,-19.81539 h 3.561025 z" id="path38146"/><path d="m 299.1041,106.64555 h 3.69026 l 3.83384,7.13641 3.87693,-7.13641 h 3.54666 l -5.48513,9.10359 6.08821,10.7118 h -3.69026 l -4.39384,-8.42872 -4.40821,8.42872 h -3.56102 l 6.00205,-10.55385 z" id="path38148"/><path d="m 330.4641,123.93376 v 2.52718 h -11.98974 v -2.52718 h 4.83897 v -13.98564 l -4.36512,2.68513 -1.37846,-2.25436 6.0882,-3.73334 h 2.84308 v 17.28821 z" id="path38150"/><path d="m 342.26719,106.2435 q 1.20615,0 2.21128,0.33026 1.01948,0.3159 1.86666,0.8759 l -1.24923,2.06769 q -1.27795,-0.83282 -2.81436,-0.83282 -2.03897,0 -3.24512,1.89538 -1.20616,1.88103 -1.32103,5.16923 0.93333,-1.23487 2.08205,-1.78051 1.16308,-0.56 2.46975,-0.56 1.53641,0 2.8,0.71795 1.27794,0.70359 2.03897,2.12513 0.76103,1.40718 0.76103,3.51795 0,2.12512 -0.86154,3.71897 -0.84718,1.59385 -2.32616,2.4841 -1.47897,0.8759 -3.36,0.8759 -2.4841,0 -4.00615,-1.23487 -1.50769,-1.23487 -2.19692,-3.40308 -0.68923,-2.1682 -0.68923,-4.9682 0,-3.30257 0.93333,-5.77231 0.94769,-2.4841 2.69949,-3.84821 1.75179,-1.37846 4.20718,-1.37846 z m -0.67488,9.57744 q -1.17743,0 -2.1682,0.63179 -0.97641,0.6318 -1.68,1.68 0.0574,3.21641 0.8759,4.75282 0.83282,1.52205 2.71384,1.52205 1.65128,0 2.45539,-1.23487 0.81846,-1.24923 0.81846,-3.25948 0,-2.28308 -0.81846,-3.1877 -0.81846,-0.90461 -2.19693,-0.90461 z" id="path38152"/><path d="m 358.32055,121.29171 q 1.13436,0 1.88103,0.76102 0.74667,0.74667 0.74667,1.83795 0,0.64615 -0.20103,1.29231 -0.18667,0.64615 -0.61743,1.6082 l -2.22565,5.08308 h -2.49846 l 1.40718,-5.82974 q -1.09128,-0.73231 -1.09128,-2.16821 0,-1.07692 0.74667,-1.82359 0.74666,-0.76102 1.8523,-0.76102 z" id="path38154"/><path d="m 385.258,106.64555 h 3.69026 l 3.83384,7.13641 3.87693,-7.13641 h 3.54666 l -5.48513,9.10359 6.08821,10.7118 h -3.69026 l -4.39384,-8.42872 -4.40821,8.42872 h -3.56102 l 6.00205,-10.55385 z" id="path38156"/><path d="m 416.61803,123.93376 v 2.52718 h -11.98974 v -2.52718 h 4.83898 v -13.98564 l -4.36513,2.68513 -1.37846,-2.25436 6.0882,-3.73334 h 2.84308 v 17.28821 z" id="path38158"/><path d="m 428.42112,106.2435 q 1.20615,0 2.21128,0.33026 1.01949,0.3159 1.86667,0.8759 l -1.24924,2.06769 q -1.27794,-0.83282 -2.81435,-0.83282 -2.03898,0 -3.24513,1.89538 -1.20616,1.88103 -1.32103,5.16923 0.93333,-1.23487 2.08205,-1.78051 1.16308,-0.56 2.46975,-0.56 1.53641,0 2.8,0.71795 1.27795,0.70359 2.03897,2.12513 0.76103,1.40718 0.76103,3.51795 0,2.12512 -0.86154,3.71897 -0.84718,1.59385 -2.32616,2.4841 -1.47897,0.8759 -3.36,0.8759 -2.4841,0 -4.00615,-1.23487 -1.50769,-1.23487 -2.19692,-3.40308 -0.68923,-2.1682 -0.68923,-4.9682 0,-3.30257 0.93333,-5.77231 0.94769,-2.4841 2.69949,-3.84821 1.75179,-1.37846 4.20718,-1.37846 z m -0.67488,9.57744 q -1.17743,0 -2.1682,0.63179 -0.97641,0.6318 -1.68,1.68 0.0574,3.21641 0.8759,4.75282 0.83282,1.52205 2.71384,1.52205 1.65129,0 2.45539,-1.23487 0.81846,-1.24923 0.81846,-3.25948 0,-2.28308 -0.81846,-3.1877 -0.81846,-0.90461 -2.19693,-0.90461 z" id="path38160"/><path d="m 38.072107,155.86094 q 0,1.76615 -0.904615,3.11589 -0.890256,1.34975 -2.584615,2.11077 -1.68,0.76103 -4.06359,0.76103 -2.426667,0 -4.235898,-0.71795 -1.80923,-0.71795 -3.058461,-1.93846 l 1.82359,-2.03897 q 1.048205,0.97641 2.383589,1.52205 1.335385,0.54564 3.072821,0.54564 1.68,0 2.886154,-0.78975 1.220513,-0.8041 1.220513,-2.4123 0,-0.86154 -0.358975,-1.46462 -0.358974,-0.61744 -1.249231,-1.09128 -0.875897,-0.48821 -2.455384,-0.96205 -3.144616,-0.93334 -4.76718,-2.25436 -1.622564,-1.32103 -1.622564,-3.64718 0,-1.60821 0.875898,-2.81436 0.890256,-1.20615 2.426666,-1.86667 1.55077,-0.67487 3.50359,-0.67487 2.153846,0 3.762051,0.6318 1.608205,0.61743 2.871795,1.75179 l -1.751795,1.98154 q -1.048205,-0.90462 -2.254359,-1.32103 -1.191795,-0.43077 -2.426666,-0.43077 -1.522052,0 -2.555898,0.64616 -1.033846,0.63179 -1.033846,1.90974 0,0.77539 0.41641,1.32103 0.43077,0.53128 1.435898,1.00513 1.019487,0.45948 2.785641,0.99077 1.665641,0.4882 2.986667,1.20615 1.335384,0.71795 2.09641,1.89538 0.775384,1.16308 0.775384,3.02975 z" id="path38162"/><path d="m 49.789043,144.33068 v 17.13026 h -3.331282 v -17.13026 h -5.944616 v -2.68513 h 15.364103 l -0.344615,2.68513 z" id="path38164"/><path d="m 72.993158,147.86299 q 0,2.31179 -0.99077,3.76205 -0.990769,1.4359 -2.742564,2.11077 -1.737436,0.66051 -4.006154,0.66051 h -2.397948 v 7.06462 H 59.52444 v -19.81539 h 5.499487 q 3.733333,0 5.844102,1.53641 2.125129,1.52205 2.125129,4.68103 z m -3.50359,0.0287 q 0,-2.03898 -1.163077,-2.88616 -1.148718,-0.86154 -3.087179,-0.86154 h -2.38359 v 7.71077 h 2.426666 q 1.866667,0 3.029744,-0.86153 1.177436,-0.86154 1.177436,-3.10154 z" id="path38166"/><path d="m 299.1041,141.64555 h 3.69026 l 3.83384,7.13641 3.87693,-7.13641 h 3.54666 l -5.48513,9.10359 6.08821,10.7118 h -3.69026 l -4.39384,-8.42872 -4.40821,8.42872 h -3.56102 l 6.00205,-10.55385 z" id="path38168"/><path d="m 323.05487,141.2435 q 2.01026,0 3.41744,0.76103 1.40718,0.74666 2.13949,2.02461 0.74666,1.26359 0.74666,2.81436 0,1.30667 -0.45948,2.5559 -0.44513,1.23487 -1.45026,2.61333 -0.99077,1.3641 -2.62769,3.0441 -1.63693,1.66565 -4.00616,3.81949 h 9.00308 l -0.37333,2.58462 h -12.32 v -2.44103 q 2.67077,-2.57025 4.39384,-4.36513 1.73744,-1.79487 2.71385,-3.10153 0.99077,-1.30667 1.39282,-2.35488 0.40205,-1.06256 0.40205,-2.15384 0,-1.49334 -0.84718,-2.35487 -0.84718,-0.86154 -2.35487,-0.86154 -1.33538,0 -2.24,0.4882 -0.89026,0.48821 -1.76615,1.57949 l -2.09641,-1.59385 q 1.16307,-1.47897 2.67076,-2.26871 1.5077,-0.78975 3.66154,-0.78975 z" id="path38170"/><path d="m 340.86001,141.27222 q 3.38871,0 5.08307,2.19692 1.69436,2.18257 1.69436,5.82975 0,2.94359 -0.66051,5.06871 -0.64615,2.11077 -2.01026,3.58975 -1.34974,1.47897 -3.46051,2.4841 -2.09641,1.00513 -5.01128,1.72308 l -0.70359,-2.35487 q 3.90564,-1.04821 5.97333,-2.75693 2.06769,-1.72307 2.45539,-4.7959 -0.8759,0.9477 -1.95282,1.52206 -1.07693,0.57436 -2.48411,0.57436 -1.62256,0 -2.90051,-0.76103 -1.26359,-0.77539 -2.01026,-2.19692 -0.7323,-1.42154 -0.7323,-3.37436 0,-2.13949 0.89025,-3.64718 0.89026,-1.50769 2.41231,-2.29744 1.53641,-0.8041 3.41744,-0.8041 z m -3.44616,6.74872 q 0,2.09641 0.86154,3.01538 0.8759,0.91898 2.3118,0.91898 1.13435,0 2.02461,-0.53129 0.89026,-0.53128 1.69436,-1.47897 -0.0144,-3.31692 -0.8041,-4.76718 -0.77539,-1.46461 -2.65641,-1.46461 -1.66564,0 -2.5559,1.07692 -0.8759,1.07692 -0.8759,3.23077 z" id="path38172"/><path d="m 358.32055,156.29171 q 1.13436,0 1.88103,0.76102 0.74667,0.74667 0.74667,1.83795 0,0.64615 -0.20103,1.29231 -0.18667,0.64615 -0.61743,1.6082 l -2.22565,5.08308 h -2.49846 l 1.40718,-5.82974 q -1.09128,-0.73231 -1.09128,-2.16821 0,-1.07692 0.74667,-1.82359 0.74666,-0.76102 1.8523,-0.76102 z" id="path38174"/><path d="m 385.258,141.64555 h 3.69026 l 3.83384,7.13641 3.87693,-7.13641 h 3.54666 l -5.48513,9.10359 6.08821,10.7118 h -3.69026 l -4.39384,-8.42872 -4.40821,8.42872 h -3.56102 l 6.00205,-10.55385 z" id="path38176"/><path d="m 409.15137,141.2435 q 1.96718,0 3.38872,0.68923 1.42153,0.68923 2.18256,1.82359 0.76103,1.13436 0.76103,2.49846 0,1.83795 -1.13436,3.05847 -1.12,1.22051 -2.8,1.6082 1.23487,0.12923 2.26871,0.68923 1.04821,0.56 1.66565,1.59385 0.63179,1.03384 0.63179,2.59897 0,1.69436 -0.89026,3.07282 -0.89025,1.3641 -2.49846,2.16821 -1.6082,0.8041 -3.79077,0.8041 -1.86666,0 -3.56102,-0.68923 -1.68,-0.68923 -2.85744,-2.08205 l 1.96718,-1.72308 q 0.84718,0.99077 1.96718,1.46462 1.13436,0.47384 2.34051,0.47384 1.83795,0 2.91488,-0.94769 1.07692,-0.96205 1.07692,-2.65641 0,-1.9241 -1.06257,-2.68513 -1.06256,-0.77538 -2.75692,-0.77538 h -1.70872 l 0.37334,-2.36923 h 1.20615 q 1.39282,0 2.42667,-0.76103 1.0482,-0.77538 1.0482,-2.36923 0,-1.4359 -0.99077,-2.21128 -0.97641,-0.78975 -2.42666,-0.78975 -1.24923,0 -2.21129,0.45949 -0.96205,0.45949 -1.89538,1.32103 l -1.70872,-1.82359 q 1.30667,-1.23487 2.82872,-1.83795 1.52205,-0.60308 3.24513,-0.60308 z" id="path38178"/><path d="m 427.24368,141.2435 q 3.33128,0 5.04,2.68513 1.70872,2.68513 1.70872,7.5959 0,4.93948 -1.70872,7.63897 -1.70872,2.68513 -5.04,2.68513 -3.33128,0 -5.04,-2.68513 -1.70872,-2.69949 -1.70872,-7.63897 0,-4.91077 1.70872,-7.5959 1.70872,-2.68513 5.04,-2.68513 z m 0,2.45539 q -1.70872,0 -2.62769,1.82359 -0.91898,1.80923 -0.91898,6.00205 0,3.05846 0.37334,4.76718 l 5.6,-11.42975 q -0.41641,-0.61743 -1.01949,-0.89025 -0.60308,-0.27282 -1.40718,-0.27282 z m 3.54667,7.82564 q 0,-2.74257 -0.30154,-4.37949 l -5.52821,11.28615 q 0.77539,0.96206 2.28308,0.96206 1.72308,0 2.62769,-1.80924 0.91898,-1.80923 0.91898,-6.05948 z" id="path38180"/><path d="m 444.47445,156.29171 q 1.13436,0 1.88103,0.76102 0.74667,0.74667 0.74667,1.83795 0,0.64615 -0.20103,1.29231 -0.18667,0.64615 -0.61743,1.6082 l -2.22565,5.08308 h -2.49846 l 1.40718,-5.82974 q -1.09128,-0.73231 -1.09128,-2.16821 0,-1.07692 0.74667,-1.82359 0.74666,-0.76102 1.8523,-0.76102 z" id="path38182"/><path d="m 475.30318,164.84966 v -26.88 h 7.82564 v 2.57025 h -4.79589 v 21.76821 h 4.79589 v 2.54154 z" id="path38184"/><path d="m 503.30322,155.86094 q 0,1.76615 -0.90462,3.11589 -0.89025,1.34975 -2.58461,2.11077 -1.68,0.76103 -4.06359,0.76103 -2.42667,0 -4.2359,-0.71795 -1.80923,-0.71795 -3.05846,-1.93846 l 1.82359,-2.03897 q 1.0482,0.97641 2.38359,1.52205 1.33538,0.54564 3.07282,0.54564 1.68,0 2.88615,-0.78975 1.22051,-0.8041 1.22051,-2.4123 0,-0.86154 -0.35897,-1.46462 -0.35897,-0.61744 -1.24923,-1.09128 -0.8759,-0.48821 -2.45539,-0.96205 -3.14461,-0.93334 -4.76718,-2.25436 -1.62256,-1.32103 -1.62256,-3.64718 0,-1.60821 0.8759,-2.81436 0.89025,-1.20615 2.42666,-1.86667 1.55077,-0.67487 3.50359,-0.67487 2.15385,0 3.76206,0.6318 1.6082,0.61743 2.87179,1.75179 l -1.75179,1.98154 q -1.04821,-0.90462 -2.25436,-1.32103 -1.1918,-0.43077 -2.42667,-0.43077 -1.52205,0 -2.5559,0.64616 -1.03384,0.63179 -1.03384,1.90974 0,0.77539 0.41641,1.32103 0.43077,0.53128 1.43589,1.00513 1.01949,0.45948 2.78565,0.99077 1.66564,0.4882 2.98666,1.20615 1.33539,0.71795 2.09641,1.89538 0.77539,1.16308 0.77539,3.02975 z" id="path38186"/><path d="m 520.99348,147.86299 q 0,2.31179 -0.99077,3.76205 -0.99077,1.4359 -2.74257,2.11077 -1.73743,0.66051 -4.00615,0.66051 h -2.39795 v 7.06462 h -3.33128 v -19.81539 h 5.49949 q 3.73333,0 5.8441,1.53641 2.12513,1.52205 2.12513,4.68103 z m -3.50359,0.0287 q 0,-2.03898 -1.16308,-2.88616 -1.14872,-0.86154 -3.08718,-0.86154 h -2.38359 v 7.71077 h 2.42667 q 1.86667,0 3.02974,-0.86153 1.17744,-0.86154 1.17744,-3.10154 z" id="path38188"/><path d="m 530.62835,156.29171 q 1.13436,0 1.88103,0.76102 0.74667,0.74667 0.74667,1.83795 0,0.64615 -0.20103,1.29231 -0.18667,0.64615 -0.61743,1.6082 l -2.22565,5.08308 h -2.49846 l 1.40718,-5.82974 q -1.09128,-0.73231 -1.09128,-2.16821 0,-1.07692 0.74667,-1.82359 0.74666,-0.76102 1.8523,-0.76102 z" id="path38190"/><path d="m 552.76993,148.46607 -0.8041,6.10256 h 2.12512 v 2.29744 h -2.44102 l -0.58872,4.59487 h -2.69949 l 0.60308,-4.59487 h -3.63282 l -0.60308,4.59487 h -2.69948 l 0.60307,-4.59487 h -2.05333 v -2.29744 h 2.35487 l 0.83282,-6.10256 h -2.12513 v -2.3118 h 2.42667 l 0.58872,-4.50872 h 2.71384 l -0.63179,4.50872 h 3.64718 l 0.60308,-4.50872 h 2.69948 l -0.61743,4.50872 h 2.08205 v 2.3118 z m -7.13641,6.10256 h 3.63282 l 0.81846,-6.10256 h -3.64718 z" id="path38192"/><path d="m 559.15968,153.79325 v -2.64206 h 11.86051 v 2.64206 z" id="path38194"/><path d="m 582.32071,141.2435 q 3.33128,0 5.04,2.68513 1.70871,2.68513 1.70871,7.5959 0,4.93948 -1.70871,7.63897 -1.70872,2.68513 -5.04,2.68513 -3.33129,0 -5.04,-2.68513 -1.70872,-2.69949 -1.70872,-7.63897 0,-4.91077 1.70872,-7.5959 1.70871,-2.68513 5.04,-2.68513 z m 0,2.45539 q -1.70872,0 -2.6277,1.82359 -0.91897,1.80923 -0.91897,6.00205 0,3.05846 0.37333,4.76718 l 5.6,-11.42975 q -0.41641,-0.61743 -1.01948,-0.89025 -0.60308,-0.27282 -1.40718,-0.27282 z m 3.54666,7.82564 q 0,-2.74257 -0.30153,-4.37949 l -5.52821,11.28615 q 0.77538,0.96206 2.28308,0.96206 1.72307,0 2.62769,-1.80924 0.91897,-1.80923 0.91897,-6.05948 z" id="path38196"/><path d="m 603.62943,146.15427 1.89538,1.89539 -4.0923,4.06359 4.0923,4.13538 -1.89538,1.89538 -4.07795,-4.14974 -4.12102,4.14974 -1.89539,-1.89538 4.13539,-4.13538 -4.13539,-4.06359 1.89539,-1.89539 4.12102,4.07795 z" id="path38198"/><path d="m 623.38738,158.93376 v 2.52718 h -11.98974 v -2.52718 h 4.83897 v -13.98564 l -4.36512,2.68513 -1.37847,-2.25436 6.08821,-3.73334 h 2.84308 v 17.28821 z" id="path38200"/><path d="m 634.01303,141.2435 q 3.33128,0 5.04,2.68513 1.70872,2.68513 1.70872,7.5959 0,4.93948 -1.70872,7.63897 -1.70872,2.68513 -5.04,2.68513 -3.33128,0 -5.04,-2.68513 -1.70872,-2.69949 -1.70872,-7.63897 0,-4.91077 1.70872,-7.5959 1.70872,-2.68513 5.04,-2.68513 z m 0,2.45539 q -1.70872,0 -2.62769,1.82359 -0.91898,1.80923 -0.91898,6.00205 0,3.05846 0.37334,4.76718 l 5.6,-11.42975 q -0.41641,-0.61743 -1.01949,-0.89025 -0.60308,-0.27282 -1.40718,-0.27282 z m 3.54667,7.82564 q 0,-2.74257 -0.30154,-4.37949 l -5.52821,11.28615 q 0.77539,0.96206 2.28308,0.96206 1.72308,0 2.62769,-1.80924 0.91898,-1.80923 0.91898,-6.05948 z" id="path38202"/><path d="m 652.63662,145.43632 v 5.78667 h 5.70052 v 2.58461 h -5.70052 v 5.77231 h -2.82871 v -5.77231 h -5.65744 v -2.58461 h 5.65744 v -5.78667 z" id="path38204"/><path d="m 675.6972,146.29786 -5.34154,15.16308 h -3.76205 l -5.34154,-15.16308 h 3.44616 l 3.8482,12.49231 3.86257,-12.49231 z" id="path38206"/><path d="m 691.23362,157.74196 q 0,0.90462 0.27282,1.30667 0.27282,0.40205 0.87589,0.60308 l -0.71794,2.18256 q -1.12,-0.12923 -1.93847,-0.61744 -0.8041,-0.4882 -1.20615,-1.47897 -0.83282,1.06256 -2.11077,1.59385 -1.27795,0.51692 -2.7282,0.51692 -2.3118,0 -3.64718,-1.29231 -1.33539,-1.30666 -1.33539,-3.41743 0,-2.39795 1.86667,-3.69026 1.86667,-1.29231 5.34154,-1.29231 h 2.1682 v -0.99077 q 0,-1.47897 -0.89025,-2.11077 -0.89026,-0.64615 -2.48411,-0.64615 -0.74666,0 -1.80923,0.20103 -1.06256,0.18666 -2.22564,0.58871 l -0.78974,-2.26871 q 1.42154,-0.53129 2.78564,-0.77539 1.3641,-0.25846 2.52718,-0.25846 3.0441,0 4.53743,1.34974 1.5077,1.34975 1.5077,3.73334 z m -6.57641,1.73744 q 0.97641,0 1.90974,-0.51692 0.93333,-0.51693 1.50769,-1.45026 v -3.34564 h -1.78051 q -2.26872,0 -3.24513,0.76102 -0.97641,0.74667 -0.97641,2.0677 0,2.4841 2.58462,2.4841 z" id="path38208"/><path d="m 697.02029,161.46094 v -2.29744 h 2.22564 v -10.58256 h -2.22564 v -2.28308 h 4.68102 l 0.58872,3.51795 q 0.84718,-1.90974 2.09641,-2.90051 1.26359,-1.00513 3.24513,-1.00513 0.67487,0 1.20615,0.11487 0.54564,0.10051 1.07693,0.27282 l -0.54564,5.58564 h -2.29744 v -3.08718 q -1.60821,0.0574 -2.77128,1.29231 -1.16308,1.22051 -1.83795,3.44615 v 5.62872 h 3.05846 v 2.29744 z" id="path38210"/><path d="m 712.98747,166.71632 v -2.65641 h 14.35898 v 2.65641 z" id="path38212"/><path d="m 736.85209,159.37889 q 1.50769,0 2.39795,-0.53129 0.89026,-0.54564 0.89026,-1.49333 0,-0.61744 -0.25846,-1.0482 -0.25847,-0.43077 -1.03385,-0.80411 -0.77538,-0.37333 -2.35487,-0.77538 -1.49334,-0.38769 -2.62769,-0.91898 -1.12,-0.53128 -1.73744,-1.37846 -0.61744,-0.84718 -0.61744,-2.18256 0,-1.95282 1.62257,-3.14462 1.63692,-1.20615 4.43692,-1.20615 1.90974,0 3.33128,0.50256 1.42154,0.50257 2.42667,1.24923 l -1.34974,2.02462 q -0.89026,-0.58872 -1.95282,-0.96205 -1.04821,-0.37334 -2.36924,-0.37334 -1.53641,0 -2.21128,0.45949 -0.66051,0.45949 -0.66051,1.22051 0,0.57436 0.33026,0.9477 0.34461,0.37333 1.17743,0.70359 0.83282,0.33025 2.35487,0.74666 1.47898,0.40205 2.57026,0.9477 1.10564,0.54564 1.70872,1.45025 0.61743,0.89026 0.61743,2.32616 0,1.63692 -0.94769,2.68512 -0.94769,1.03385 -2.46974,1.53641 -1.52205,0.48821 -3.27385,0.48821 -2.11077,0 -3.64718,-0.60308 -1.53641,-0.61743 -2.58461,-1.53641 l 1.70872,-1.95282 q 0.89025,0.71795 2.03897,1.17744 1.14872,0.44513 2.4841,0.44513 z" id="path38214"/><path d="m 754.62851,141.2435 q 3.33128,0 5.04,2.68513 1.70872,2.68513 1.70872,7.5959 0,4.93948 -1.70872,7.63897 -1.70872,2.68513 -5.04,2.68513 -3.33128,0 -5.04,-2.68513 -1.70872,-2.69949 -1.70872,-7.63897 0,-4.91077 1.70872,-7.5959 1.70872,-2.68513 5.04,-2.68513 z m 0,2.45539 q -1.70872,0 -2.6277,1.82359 -0.91897,1.80923 -0.91897,6.00205 0,3.05846 0.37333,4.76718 l 5.6,-11.42975 q -0.41641,-0.61743 -1.01948,-0.89025 -0.60308,-0.27282 -1.40718,-0.27282 z m 3.54666,7.82564 q 0,-2.74257 -0.30153,-4.37949 l -5.52821,11.28615 q 0.77538,0.96206 2.28308,0.96206 1.72307,0 2.62769,-1.80924 0.91897,-1.80923 0.91897,-6.05948 z" id="path38216"/><path d="m 775.4921,137.96966 v 26.88 h -7.82564 v -2.54154 h 4.7959 v -21.76821 h -4.7959 v -2.57025 z" id="path38218"/><path d="m 790.79883,141.64555 -0.37333,12.99487 h -2.7282 l -0.40206,-12.99487 z m -1.72307,15.85231 q 0.91897,0 1.55077,0.64615 0.63179,0.6318 0.63179,1.52206 0,0.90461 -0.63179,1.55076 -0.6318,0.6318 -1.55077,0.6318 -0.91898,0 -1.55077,-0.6318 -0.61744,-0.64615 -0.61744,-1.55076 0,-0.89026 0.61744,-1.52206 0.63179,-0.64615 1.55077,-0.64615 z" id="path38220"/><path d="m 37.698774,176.64555 1.12,19.81539 h -3.044103 l -0.473846,-9.64923 q -0.100512,-2.16821 -0.08615,-4.04923 0.01436,-1.89539 0.07179,-3.1877 l -2.914871,13.39693 h -2.900513 l -3.130257,-13.39693 q 0.08615,1.23488 0.114872,3.21641 0.04308,1.98154 -0.02872,4.04923 l -0.387692,9.62052 H 23.05262 l 1.12,-19.81539 h 3.991795 l 2.828718,13.28205 2.699487,-13.28205 z" id="path38222"/><path d="m 55.70494,186.55325 q 0,3.05846 -0.847179,5.38461 -0.84718,2.3118 -2.52718,3.61846 -1.68,1.29231 -4.164102,1.29231 -2.484103,0 -4.164103,-1.26359 -1.68,-1.26359 -2.527179,-3.57538 -0.84718,-2.3118 -0.84718,-5.4277 0,-3.05846 0.84718,-5.38461 0.847179,-2.32616 2.527179,-3.63282 1.68,-1.32103 4.164103,-1.32103 2.484102,0 4.164102,1.27795 1.68,1.27795 2.52718,3.6041 0.847179,2.3118 0.847179,5.4277 z m -3.446154,0 q 0,-3.84821 -0.947692,-5.77231 -0.947692,-1.93846 -3.144615,-1.93846 -2.196923,0 -3.144616,1.95282 -0.947692,1.93846 -0.947692,5.78666 0,3.83385 0.97641,5.75795 0.97641,1.90975 3.115898,1.90975 2.196923,0 3.144615,-1.92411 0.947692,-1.93846 0.947692,-5.7723 z" id="path38224"/><path d="m 65.469055,193.30196 4.738462,-16.65641 h 3.374359 l -6.274872,19.81539 h -3.819487 l -6.274872,-19.81539 h 3.561025 z" id="path38226"/><path d="m 299.1041,176.64555 h 3.69026 l 3.83384,7.13641 3.87693,-7.13641 h 3.54666 l -5.48513,9.10359 6.08821,10.7118 h -3.69026 l -4.39384,-8.42872 -4.40821,8.42872 h -3.56102 l 6.00205,-10.55385 z" id="path38228"/><path d="m 323.05487,176.2435 q 2.01026,0 3.41744,0.76103 1.40718,0.74666 2.13949,2.02461 0.74666,1.26359 0.74666,2.81436 0,1.30667 -0.45948,2.5559 -0.44513,1.23487 -1.45026,2.61333 -0.99077,1.3641 -2.62769,3.0441 -1.63693,1.66565 -4.00616,3.81949 h 9.00308 l -0.37333,2.58462 h -12.32 v -2.44103 q 2.67077,-2.57025 4.39384,-4.36513 1.73744,-1.79487 2.71385,-3.10153 0.99077,-1.30667 1.39282,-2.35488 0.40205,-1.06256 0.40205,-2.15384 0,-1.49334 -0.84718,-2.35487 -0.84718,-0.86154 -2.35487,-0.86154 -1.33538,0 -2.24,0.4882 -0.89026,0.48821 -1.76615,1.57949 l -2.09641,-1.59385 q 1.16307,-1.47897 2.67076,-2.26871 1.5077,-0.78975 3.66154,-0.78975 z" id="path38230"/><path d="m 340.86001,176.27222 q 3.38871,0 5.08307,2.19692 1.69436,2.18257 1.69436,5.82975 0,2.94359 -0.66051,5.06871 -0.64615,2.11077 -2.01026,3.58975 -1.34974,1.47897 -3.46051,2.4841 -2.09641,1.00513 -5.01128,1.72308 l -0.70359,-2.35487 q 3.90564,-1.04821 5.97333,-2.75693 2.06769,-1.72307 2.45539,-4.7959 -0.8759,0.9477 -1.95282,1.52206 -1.07693,0.57436 -2.48411,0.57436 -1.62256,0 -2.90051,-0.76103 -1.26359,-0.77539 -2.01026,-2.19692 -0.7323,-1.42154 -0.7323,-3.37436 0,-2.13949 0.89025,-3.64718 0.89026,-1.50769 2.41231,-2.29744 1.53641,-0.8041 3.41744,-0.8041 z m -3.44616,6.74872 q 0,2.09641 0.86154,3.01538 0.8759,0.91898 2.3118,0.91898 1.13435,0 2.02461,-0.53129 0.89026,-0.53128 1.69436,-1.47897 -0.0144,-3.31692 -0.8041,-4.76718 -0.77539,-1.46461 -2.65641,-1.46461 -1.66564,0 -2.5559,1.07692 -0.8759,1.07692 -0.8759,3.23077 z" id="path38232"/><path d="m 358.32055,191.29171 q 1.13436,0 1.88103,0.76102 0.74667,0.74667 0.74667,1.83795 0,0.64615 -0.20103,1.29231 -0.18667,0.64615 -0.61743,1.6082 l -2.22565,5.08308 h -2.49846 l 1.40718,-5.82974 q -1.09128,-0.73231 -1.09128,-2.16821 0,-1.07692 0.74667,-1.82359 0.74666,-0.76102 1.8523,-0.76102 z" id="path38234"/><path d="m 399.91851,190.86094 q 0,1.76615 -0.90461,3.11589 -0.89026,1.34975 -2.58462,2.11077 -1.68,0.76103 -4.06359,0.76103 -2.42666,0 -4.2359,-0.71795 -1.80923,-0.71795 -3.05846,-1.93846 l 1.82359,-2.03897 q 1.04821,0.97641 2.38359,1.52205 1.33539,0.54564 3.07282,0.54564 1.68,0 2.88616,-0.78975 1.22051,-0.8041 1.22051,-2.4123 0,-0.86154 -0.35897,-1.46462 -0.35898,-0.61744 -1.24924,-1.09128 -0.87589,-0.48821 -2.45538,-0.96205 -3.14462,-0.93334 -4.76718,-2.25436 -1.62256,-1.32103 -1.62256,-3.64718 0,-1.60821 0.87589,-2.81436 0.89026,-1.20615 2.42667,-1.86667 1.55077,-0.67487 3.50359,-0.67487 2.15385,0 3.76205,0.6318 1.60821,0.61743 2.8718,1.75179 l -1.7518,1.98154 q -1.0482,-0.90462 -2.25436,-1.32103 -1.19179,-0.43077 -2.42666,-0.43077 -1.52206,0 -2.5559,0.64616 -1.03385,0.63179 -1.03385,1.90974 0,0.77539 0.41641,1.32103 0.43077,0.53128 1.4359,1.00513 1.01949,0.45948 2.78564,0.99077 1.66564,0.4882 2.98667,1.20615 1.33538,0.71795 2.09641,1.89538 0.77538,1.16308 0.77538,3.02975 z" id="path38236"/><path d="m 417.6088,182.86299 q 0,2.31179 -0.99077,3.76205 -0.99076,1.4359 -2.74256,2.11077 -1.73744,0.66051 -4.00615,0.66051 h -2.39795 v 7.06462 h -3.33128 v -19.81539 h 5.49948 q 3.73334,0 5.84411,1.53641 2.12512,1.52205 2.12512,4.68103 z m -3.50359,0.0287 q 0,-2.03898 -1.16307,-2.88616 -1.14872,-0.86154 -3.08718,-0.86154 h -2.38359 v 7.71077 h 2.42666 q 1.86667,0 3.02975,-0.86153 1.17743,-0.86154 1.17743,-3.10154 z" id="path38238"/><path d="m 34.410569,226.69376 h -7.078974 l -1.378462,4.76718 h -3.388718 l 6.30359,-19.81539 h 4.135384 l 6.317949,19.81539 H 35.78903 Z m -6.389744,-2.57026 h 5.686154 l -2.828718,-9.89333 z" id="path38240"/><path d="m 55.661863,221.45273 q 0,3.07282 -0.804102,5.04 -0.804103,1.96718 -2.139487,3.0441 -1.335385,1.07693 -2.972308,1.5077 -1.636923,0.41641 -3.288205,0.41641 h -4.853334 v -19.81539 h 4.523077 q 1.809231,0 3.50359,0.3877 1.708718,0.38769 3.058462,1.43589 1.364102,1.03385 2.168205,2.97231 0.804102,1.9241 0.804102,5.01128 z m -3.503589,0 q 0,-2.36923 -0.473847,-3.80513 -0.459487,-1.43589 -1.234871,-2.18256 -0.775385,-0.74667 -1.737436,-1.00513 -0.962052,-0.25846 -1.952821,-0.25846 h -1.82359 v 14.73231 h 1.837949 q 1.033846,0 1.995898,-0.33026 0.962051,-0.33025 1.723077,-1.14872 0.775384,-0.81846 1.220512,-2.26871 0.445129,-1.46462 0.445129,-3.73334 z" id="path38242"/><path d="m 72.476235,217.37478 q 0,2.19693 -1.306667,3.54667 -1.306667,1.34974 -3.202051,1.90974 l 5.614359,8.62975 h -3.876923 l -4.982565,-8.1559 h -2.168205 v 8.1559 h -3.331282 v -19.81539 h 5.528205 q 3.805129,0 5.757949,1.4359 1.96718,1.42154 1.96718,4.29333 z m -3.489231,0 q 0,-1.72307 -1.005128,-2.4841 -1.005129,-0.77538 -3.044103,-0.77538 h -2.38359 v 6.74871 h 2.455385 q 1.895385,0 2.929231,-0.8041 1.048205,-0.81846 1.048205,-2.68513 z" id="path38244"/><path d="m 77.444452,231.46094 v -19.81539 h 3.331282 v 17.02975 h 8.873846 l -0.358974,2.78564 z" id="path38246"/><path d="m 299.1041,211.64555 h 3.69026 l 3.83384,7.13641 3.87693,-7.13641 h 3.54666 l -5.48513,9.10359 6.08821,10.7118 h -3.69026 l -4.39384,-8.42872 -4.40821,8.42872 h -3.56102 l 6.00205,-10.55385 z" id="path38248"/><path d="m 323.85898,211.2435 q 3.33128,0 5.04,2.68513 1.70871,2.68513 1.70871,7.5959 0,4.93948 -1.70871,7.63897 -1.70872,2.68513 -5.04,2.68513 -3.33129,0 -5.04,-2.68513 -1.70872,-2.69949 -1.70872,-7.63897 0,-4.91077 1.70872,-7.5959 1.70871,-2.68513 5.04,-2.68513 z m 0,2.45539 q -1.70872,0 -2.6277,1.82359 -0.91897,1.80923 -0.91897,6.00205 0,3.05846 0.37333,4.76718 l 5.6,-11.42975 q -0.41641,-0.61743 -1.01948,-0.89025 -0.60308,-0.27282 -1.40718,-0.27282 z m 3.54666,7.82564 q 0,-2.74257 -0.30154,-4.37949 l -5.5282,11.28615 q 0.77538,0.96206 2.28308,0.96206 1.72307,0 2.62769,-1.80924 0.91897,-1.80923 0.91897,-6.05948 z" id="path38250"/><path d="m 341.08975,226.29171 q 1.13436,0 1.88103,0.76102 0.74666,0.74667 0.74666,1.83795 0,0.64615 -0.20102,1.29231 -0.18667,0.64615 -0.61744,1.6082 l -2.22564,5.08308 h -2.49846 l 1.40718,-5.82974 q -1.09128,-0.73231 -1.09128,-2.16821 0,-1.07692 0.74666,-1.82359 0.74667,-0.76102 1.85231,-0.76102 z" id="path38252"/><path d="m 381.07953,227.74196 q 0,0.90462 0.27282,1.30667 0.27282,0.40205 0.8759,0.60308 l -0.71795,2.18256 q -1.12,-0.12923 -1.93846,-0.61744 -0.8041,-0.4882 -1.20615,-1.47897 -0.83282,1.06256 -2.11077,1.59385 -1.27795,0.51692 -2.72821,0.51692 -2.31179,0 -3.64718,-1.29231 -1.33538,-1.30666 -1.33538,-3.41743 0,-2.39795 1.86667,-3.69026 1.86666,-1.29231 5.34153,-1.29231 h 2.16821 v -0.99077 q 0,-1.47897 -0.89026,-2.11077 -0.89025,-0.64615 -2.4841,-0.64615 -0.74667,0 -1.80923,0.20103 -1.06256,0.18666 -2.22564,0.58871 l -0.78975,-2.26871 q 1.42154,-0.53129 2.78565,-0.77539 1.3641,-0.25846 2.52718,-0.25846 3.0441,0 4.53743,1.34974 1.50769,1.34975 1.50769,3.73334 z m -6.57641,1.73744 q 0.97641,0 1.90975,-0.51692 0.93333,-0.51693 1.50769,-1.45026 v -3.34564 h -1.78051 q -2.26872,0 -3.24513,0.76102 -0.97641,0.74667 -0.97641,2.0677 0,2.4841 2.58461,2.4841 z" id="path38254"/><path d="m 396.01287,231.46094 v -9.00308 h -6.46154 v 9.00308 h -3.33128 v -19.81539 h 3.33128 v 8.06975 h 6.46154 v -8.06975 h 3.33128 v 19.81539 z" id="path38256"/><path d="m 410.02727,215.89581 q 3.33128,0 5.08307,2.1682 1.7518,2.16821 1.7518,5.78667 0,2.41231 -0.80411,4.20718 -0.78974,1.79487 -2.32615,2.8 -1.52205,0.99077 -3.71897,0.99077 -3.31693,0 -5.08308,-2.13949 -1.76615,-2.15384 -1.76615,-5.82974 0,-2.35487 0.78974,-4.14974 0.8041,-1.80924 2.34051,-2.81436 1.53641,-1.01949 3.73334,-1.01949 z m 0,2.49846 q -1.73744,0 -2.61334,1.33539 -0.8759,1.32102 -0.8759,4.14974 0,2.82872 0.86154,4.1641 0.8759,1.32103 2.61334,1.32103 1.73743,0 2.59897,-1.33539 0.8759,-1.33538 0.8759,-4.17846 0,-2.8 -0.86154,-4.12102 -0.86154,-1.33539 -2.59897,-1.33539 z" id="path38258"/><path d="m 427.25804,215.89581 q 3.33128,0 5.08308,2.1682 1.75179,2.16821 1.75179,5.78667 0,2.41231 -0.8041,4.20718 -0.78974,1.79487 -2.32616,2.8 -1.52205,0.99077 -3.71897,0.99077 -3.31692,0 -5.08308,-2.13949 -1.76615,-2.15384 -1.76615,-5.82974 0,-2.35487 0.78974,-4.14974 0.80411,-1.80924 2.34052,-2.81436 1.53641,-1.01949 3.73333,-1.01949 z m 0,2.49846 q -1.73744,0 -2.61333,1.33539 -0.8759,1.32102 -0.8759,4.14974 0,2.82872 0.86154,4.1641 0.87589,1.32103 2.61333,1.32103 1.73744,0 2.59897,-1.33539 0.8759,-1.33538 0.8759,-4.17846 0,-2.8 -0.86154,-4.12102 -0.86153,-1.33539 -2.59897,-1.33539 z" id="path38260"/><path d="m 441.73189,209.85068 v 21.61026 h -3.21641 v -21.25128 z m 10.03692,6.44718 -6.13128,6.77744 6.77744,8.38564 h -3.93436 l -6.51898,-8.29949 6.05949,-6.86359 z" id="path38262"/><path d="m 468.46831,211.64555 1.12,19.81539 h -3.04411 l -0.47384,-9.64923 q -0.10052,-2.16821 -0.0862,-4.04923 0.0144,-1.89539 0.0718,-3.1877 l -2.91487,13.39693 h -2.90052 l -3.13025,-13.39693 q 0.0861,1.23488 0.11487,3.21641 0.0431,1.98154 -0.0287,4.04923 l -0.38769,9.62052 h -2.98667 l 1.12,-19.81539 h 3.9918 l 2.82871,13.28205 2.69949,-13.28205 z" id="path38264"/><path d="m 475.54728,224.91325 q 0.14359,2.34051 1.30667,3.38871 1.17744,1.04821 2.82872,1.04821 1.10564,0 2.05333,-0.34462 0.96205,-0.34461 1.9241,-0.97641 l 1.39283,1.92411 q -1.06257,0.86153 -2.48411,1.37846 -1.42154,0.51692 -3.0441,0.51692 -2.36923,0 -4.00615,-1.00513 -1.62257,-1.00513 -2.46975,-2.8 -0.83282,-1.79487 -0.83282,-4.14974 0,-2.28308 0.83282,-4.07795 0.83282,-1.80923 2.38359,-2.85744 1.55077,-1.06256 3.70462,-1.06256 3.01538,0 4.76718,2.02461 1.76615,2.02462 1.76615,5.55693 0,0.38769 -0.0287,0.77538 -0.0144,0.37334 -0.0431,0.66052 z m 3.61847,-6.63385 q -1.5077,0 -2.49847,1.07692 -0.99076,1.07693 -1.13435,3.36 h 7.02153 q -0.0431,-2.13949 -0.91897,-3.2882 -0.86154,-1.14872 -2.46974,-1.14872 z" id="path38266"/><path d="m 488.98732,236.71632 v -2.65641 h 14.35897 v 2.65641 z" id="path38268"/><path d="m 513.39758,211.2435 q 3.33128,0 5.04,2.68513 1.70872,2.68513 1.70872,7.5959 0,4.93948 -1.70872,7.63897 -1.70872,2.68513 -5.04,2.68513 -3.33128,0 -5.04,-2.68513 -1.70872,-2.69949 -1.70872,-7.63897 0,-4.91077 1.70872,-7.5959 1.70872,-2.68513 5.04,-2.68513 z m 0,2.45539 q -1.70872,0 -2.62769,1.82359 -0.91898,1.80923 -0.91898,6.00205 0,3.05846 0.37334,4.76718 l 5.6,-11.42975 q -0.41641,-0.61743 -1.01949,-0.89025 -0.60308,-0.27282 -1.40718,-0.27282 z m 3.54667,7.82564 q 0,-2.74257 -0.30154,-4.37949 l -5.52821,11.28615 q 0.77539,0.96206 2.28308,0.96206 1.72308,0 2.62769,-1.80924 0.91898,-1.80923 0.91898,-6.05948 z" id="path38270"/><path d="m 547.8448,216.48453 q 1.09128,0 1.83795,0.76102 0.74667,0.74667 0.74667,1.80923 0,1.06257 -0.74667,1.83795 -0.74667,0.76103 -1.83795,0.76103 -1.09128,0 -1.83795,-0.76103 -0.74667,-0.77538 -0.74667,-1.83795 0,-1.06256 0.74667,-1.80923 0.74667,-0.76102 1.83795,-0.76102 z m 0,9.87897 q 1.10564,0 1.83795,0.74667 0.74667,0.74666 0.74667,1.82359 0,0.63179 -0.20103,1.27795 -0.18667,0.64615 -0.60308,1.57948 l -2.19692,5.02564 h -2.46974 l 1.37846,-5.75794 q -1.07693,-0.74667 -1.07693,-2.13949 0,-1.06257 0.74667,-1.80923 0.74667,-0.74667 1.83795,-0.74667 z" id="path38272"/><path d="m 578.51558,217.89171 -0.48821,-7.68205 h 3.50359 l -0.47384,7.68205 z m 5.06872,0 -0.48821,-7.68205 h 3.51795 l -0.4882,7.68205 z" id="path38274"/><path d="m 596.7084,209.89376 v 8.25641 q 0.91898,-1.12 2.13949,-1.68 1.23487,-0.57436 2.5559,-0.57436 2.13949,0 3.18769,1.19179 1.04821,1.1918 1.04821,3.31693 v 11.05641 h -3.21641 v -10.55385 q 0,-1.3641 -0.51693,-1.95282 -0.51692,-0.60308 -1.66564,-0.60308 -1.07692,0 -1.9959,0.70359 -0.91897,0.68923 -1.53641,1.56513 v 10.84103 h -3.21641 v -21.22257 z" id="path38276"/><path d="m 616.79661,215.89581 q 3.33129,0 5.08308,2.1682 1.7518,2.16821 1.7518,5.78667 0,2.41231 -0.80411,4.20718 -0.78974,1.79487 -2.32615,2.8 -1.52205,0.99077 -3.71898,0.99077 -3.31692,0 -5.08307,-2.13949 -1.76616,-2.15384 -1.76616,-5.82974 0,-2.35487 0.78975,-4.14974 0.8041,-1.80924 2.34051,-2.81436 1.53641,-1.01949 3.73333,-1.01949 z m 0,2.49846 q -1.73743,0 -2.61333,1.33539 -0.8759,1.32102 -0.8759,4.14974 0,2.82872 0.86154,4.1641 0.8759,1.32103 2.61333,1.32103 1.73744,0 2.59898,-1.33539 0.8759,-1.33538 0.8759,-4.17846 0,-2.8 -0.86154,-4.12102 -0.86154,-1.33539 -2.59898,-1.33539 z" id="path38278"/><path d="m 634.02739,215.89581 q 3.33128,0 5.08307,2.1682 1.7518,2.16821 1.7518,5.78667 0,2.41231 -0.8041,4.20718 -0.78975,1.79487 -2.32616,2.8 -1.52205,0.99077 -3.71897,0.99077 -3.31692,0 -5.08308,-2.13949 -1.76615,-2.15384 -1.76615,-5.82974 0,-2.35487 0.78974,-4.14974 0.8041,-1.80924 2.34051,-2.81436 1.53641,-1.01949 3.73334,-1.01949 z m 0,2.49846 q -1.73744,0 -2.61334,1.33539 -0.87589,1.32102 -0.87589,4.14974 0,2.82872 0.86154,4.1641 0.87589,1.32103 2.61333,1.32103 1.73743,0 2.59897,-1.33539 0.8759,-1.33538 0.8759,-4.17846 0,-2.8 -0.86154,-4.12102 -0.86154,-1.33539 -2.59897,-1.33539 z" id="path38280"/><path d="m 648.50124,209.85068 v 21.61026 h -3.21641 v -21.25128 z m 10.03692,6.44718 -6.13128,6.77744 6.77744,8.38564 h -3.93436 l -6.51898,-8.29949 6.05949,-6.86359 z" id="path38282"/><path d="m 661.29515,236.71632 v -2.65641 h 14.35897 v 2.65641 z" id="path38284"/><path d="m 690.09926,215.89581 q 0.86154,0 1.55077,0.37333 0.68923,0.37334 1.07692,1.32103 0.40205,0.93333 0.40205,2.59897 v 11.2718 h -2.85743 v -10.82667 q 0,-1.19179 -0.17231,-1.70872 -0.15795,-0.51692 -0.84718,-0.51692 -0.54564,0 -1.12,0.34462 -0.56,0.33025 -1.12,1.14871 v 11.55898 h -2.59898 v -10.82667 q 0,-1.19179 -0.1723,-1.70872 -0.15795,-0.51692 -0.84718,-0.51692 -0.56,0 -1.12,0.34462 -0.56,0.33025 -1.12,1.14871 v 11.55898 h -2.8718 v -15.16308 h 2.42667 l 0.21538,1.63692 q 0.64616,-0.90461 1.39282,-1.46461 0.76103,-0.57436 1.85231,-0.57436 0.86154,0 1.56513,0.43077 0.70359,0.41641 1.03385,1.50769 0.64615,-0.86154 1.43589,-1.39282 0.78975,-0.54564 1.89539,-0.54564 z" id="path38286"/><path d="m 699.54747,224.91325 q 0.14359,2.34051 1.30666,3.38871 1.17744,1.04821 2.82872,1.04821 1.10564,0 2.05334,-0.34462 0.96205,-0.34461 1.9241,-0.97641 l 1.39282,1.92411 q -1.06257,0.86153 -2.4841,1.37846 -1.42154,0.51692 -3.04411,0.51692 -2.36923,0 -4.00615,-1.00513 -1.62256,-1.00513 -2.46974,-2.8 -0.83282,-1.79487 -0.83282,-4.14974 0,-2.28308 0.83282,-4.07795 0.83282,-1.80923 2.38359,-2.85744 1.55076,-1.06256 3.70461,-1.06256 3.01539,0 4.76718,2.02461 1.76615,2.02462 1.76615,5.55693 0,0.38769 -0.0287,0.77538 -0.0144,0.37334 -0.0431,0.66052 z m 3.61846,-6.63385 q -1.50769,0 -2.49846,1.07692 -0.99077,1.07693 -1.13436,3.36 h 7.02154 q -0.0431,-2.13949 -0.91898,-3.2882 -0.86154,-1.14872 -2.46974,-1.14872 z" id="path38288"/><path d="m 718.18542,221.40966 q 0,2.75692 0.60308,4.83897 0.61743,2.08205 1.90974,3.90564 1.30667,1.82359 3.36,3.79077 l -1.78051,1.72308 q -2.3118,-1.90975 -3.97744,-3.97744 -1.65128,-2.06769 -2.54154,-4.55179 -0.89025,-2.49847 -0.89025,-5.72923 0,-3.23077 0.89025,-5.71488 0.89026,-2.49846 2.54154,-4.56615 1.66564,-2.06769 3.97744,-3.97744 l 1.78051,1.72308 q -2.01026,1.93846 -3.31692,3.76205 -1.30667,1.80923 -1.93846,3.90564 -0.61744,2.09641 -0.61744,4.8677 z" id="path38290"/><path d="m 739.37927,221.40966 q 0,-2.77129 -0.63179,-4.8677 -0.61744,-2.09641 -1.92411,-3.90564 -1.30666,-1.82359 -3.31692,-3.76205 l 1.78051,-1.72308 q 2.3118,1.90975 3.96308,3.97744 1.66564,2.06769 2.5559,4.56615 0.89025,2.48411 0.89025,5.71488 0,3.23076 -0.89025,5.72923 -0.89026,2.4841 -2.5559,4.55179 -1.65128,2.06769 -3.96308,3.97744 l -1.78051,-1.72308 q 2.05333,-1.96718 3.34564,-3.79077 1.30667,-1.82359 1.90975,-3.90564 0.61743,-2.08205 0.61743,-4.83897 z" id="path38292"/><path d="m 750.82338,217.89171 -0.48821,-7.68205 h 3.50359 l -0.47384,7.68205 z m 5.06872,0 -0.48821,-7.68205 h 3.51795 l -0.4882,7.68205 z" id="path38294"/><path d="m 38.158261,260.74607 q 0,1.65128 -0.646154,2.75692 -0.646153,1.10564 -1.751795,1.76615 -1.105641,0.64616 -2.484102,0.91898 -1.364103,0.27282 -2.828718,0.27282 H 24.646466 V 246.64555 H 30.0598 q 1.39282,0 2.685128,0.24411 1.292308,0.2441 2.311795,0.81846 1.033846,0.56 1.636923,1.53641 0.603077,0.96205 0.603077,2.4123 0,1.24924 -0.516923,2.12513 -0.516923,0.8759 -1.364103,1.42154 -0.83282,0.53128 -1.780513,0.76103 1.076923,0.18666 2.11077,0.68923 1.048205,0.4882 1.723076,1.47897 0.689231,0.97641 0.689231,2.61334 z m -4.235897,-8.81641 q 0,-1.49334 -0.933334,-2.13949 -0.933333,-0.64616 -2.627692,-0.64616 h -2.38359 v 5.72924 h 2.584616 q 1.665641,0 2.51282,-0.68924 0.84718,-0.70359 0.84718,-2.25435 z m 0.761025,8.80205 q 0,-1.32103 -0.516923,-2.05334 -0.516923,-0.74666 -1.39282,-1.03384 -0.875898,-0.30154 -1.96718,-0.30154 h -2.828718 v 6.53333 h 2.685129 q 0.947692,0 1.866666,-0.22974 0.933334,-0.2441 1.536411,-0.91898 0.617435,-0.67487 0.617435,-1.99589 z" id="path38296"/><path d="m 42.982889,266.46094 v -19.81539 h 3.331282 v 17.02975 h 8.873846 l -0.358974,2.78564 z" id="path38298"/><path d="m 303.84256,264.06299 q 0,-1.14872 0.78974,-1.95282 0.80411,-0.81846 1.98154,-0.81846 1.17744,0 1.98154,0.81846 0.8041,0.8041 0.8041,1.95282 0,1.14872 -0.8041,1.96718 -0.8041,0.81846 -1.98154,0.81846 -1.17743,0 -1.98154,-0.81846 -0.78974,-0.81846 -0.78974,-1.96718 z" id="path38300"/><path d="m 325.19436,250.89581 q 2.01026,0 3.21641,0.99077 1.20615,0.97641 1.7518,2.77128 0.54564,1.78051 0.54564,4.19282 0,2.3118 -0.66052,4.12103 -0.66051,1.80923 -1.96718,2.84307 -1.2923,1.03385 -3.21641,1.03385 -2.38359,0 -3.8482,-1.68 v 7.12205 l -3.21641,0.35898 v -21.3518 h 2.8 l 0.20102,1.95282 q 0.86154,-1.16308 1.9959,-1.75179 1.13436,-0.60308 2.39795,-0.60308 z m -0.89026,2.4841 q -1.07692,0 -1.90974,0.64616 -0.81846,0.64615 -1.37846,1.52205 v 7.09333 q 1.13436,1.69436 3.00102,1.69436 1.62257,0 2.46975,-1.30667 0.84718,-1.30666 0.84718,-4.1641 0,-2.91487 -0.76103,-4.19282 -0.74666,-1.29231 -2.26872,-1.29231 z" id="path38302"/><path d="m 338.24667,251.29786 v 10.59692 q 0,1.34975 0.53128,1.92411 0.54565,0.57436 1.63693,0.57436 1.03384,0 1.9959,-0.61744 0.96205,-0.61744 1.52205,-1.50769 v -10.97026 h 3.21641 v 15.16308 h -2.77129 l -0.20102,-1.93846 q -0.84718,1.13435 -2.13949,1.73743 -1.29231,0.58872 -2.64205,0.58872 -2.21128,0 -3.2882,-1.20615 -1.07693,-1.22052 -1.07693,-3.34565 v -10.99897 z" id="path38304"/><path d="m 364.92568,265.65683 q -0.83282,0.53129 -1.99589,0.86154 -1.16308,0.33026 -2.42667,0.33026 -2.64205,0 -4.02051,-1.3641 -1.36411,-1.37846 -1.36411,-3.61846 v -8.2277 h -3.37436 v -2.34051 h 3.37436 v -3.38872 l 3.21641,-0.38769 v 3.77641 h 5.1118 l -0.35898,2.34051 h -4.75282 v 8.19898 q 0,1.22051 0.60308,1.82359 0.61744,0.58872 2.01026,0.58872 0.83282,0 1.52205,-0.20103 0.70359,-0.20103 1.29231,-0.51692 z" id="path38306"/><path d="m 375.00569,264.37889 q 1.50769,0 2.39795,-0.53129 0.89025,-0.54564 0.89025,-1.49333 0,-0.61744 -0.25846,-1.0482 -0.25846,-0.43077 -1.03385,-0.80411 -0.77538,-0.37333 -2.35487,-0.77538 -1.49333,-0.38769 -2.62769,-0.91898 -1.12,-0.53128 -1.73744,-1.37846 -0.61743,-0.84718 -0.61743,-2.18256 0,-1.95282 1.62256,-3.14462 1.63693,-1.20615 4.43693,-1.20615 1.90974,0 3.33128,0.50256 1.42154,0.50257 2.42666,1.24923 l -1.34974,2.02462 q -0.89026,-0.58872 -1.95282,-0.96205 -1.0482,-0.37334 -2.36923,-0.37334 -1.53641,0 -2.21128,0.45949 -0.66052,0.45949 -0.66052,1.22051 0,0.57436 0.33026,0.9477 0.34462,0.37333 1.17744,0.70359 0.83282,0.33025 2.35487,0.74666 1.47897,0.40205 2.57026,0.9477 1.10564,0.54564 1.70871,1.45025 0.61744,0.89026 0.61744,2.32616 0,1.63692 -0.94769,2.68512 -0.9477,1.03385 -2.46975,1.53641 -1.52205,0.48821 -3.27384,0.48821 -2.11077,0 -3.64718,-0.60308 -1.53641,-0.61743 -2.58462,-1.53641 l 1.70872,-1.95282 q 0.89026,0.71795 2.03897,1.17744 1.14872,0.44513 2.48411,0.44513 z" id="path38308"/><path d="m 37.698774,281.64555 1.12,19.81539 h -3.044103 l -0.473846,-9.64923 q -0.100512,-2.16821 -0.08615,-4.04923 0.01436,-1.89539 0.07179,-3.1877 l -2.914871,13.39693 h -2.900513 l -3.130257,-13.39693 q 0.08615,1.23488 0.114872,3.21641 0.04308,1.98154 -0.02872,4.04923 l -0.387692,9.62052 H 23.05262 l 1.12,-19.81539 h 3.991795 l 2.828718,13.28205 2.699487,-13.28205 z" id="path38310"/><path d="m 55.70494,291.55325 q 0,3.05846 -0.847179,5.38461 -0.84718,2.3118 -2.52718,3.61846 -1.68,1.29231 -4.164102,1.29231 -2.484103,0 -4.164103,-1.26359 -1.68,-1.26359 -2.527179,-3.57538 -0.84718,-2.3118 -0.84718,-5.4277 0,-3.05846 0.84718,-5.38461 0.847179,-2.32616 2.527179,-3.63282 1.68,-1.32103 4.164103,-1.32103 2.484102,0 4.164102,1.27795 1.68,1.27795 2.52718,3.6041 0.847179,2.3118 0.847179,5.4277 z m -3.446154,0 q 0,-3.84821 -0.947692,-5.77231 -0.947692,-1.93846 -3.144615,-1.93846 -2.196923,0 -3.144616,1.95282 -0.947692,1.93846 -0.947692,5.78666 0,3.83385 0.97641,5.75795 0.97641,1.90975 3.115898,1.90975 2.196923,0 3.144615,-1.92411 0.947692,-1.93846 0.947692,-5.7723 z" id="path38312"/><path d="m 65.469055,298.30196 4.738462,-16.65641 h 3.374359 l -6.274872,19.81539 h -3.819487 l -6.274872,-19.81539 h 3.561025 z" id="path38314"/><path d="m 315.18615,281.64555 -2.74256,19.81539 h -3.89129 l -1.95282,-14.66052 -2.02461,14.66052 h -3.97744 l -2.52718,-19.81539 h 3.21641 l 1.56513,16.59898 2.09641,-14.30154 h 3.4318 l 1.98154,14.30154 1.8523,-16.59898 z" id="path38316"/><path d="m 323.85898,281.2435 q 3.33128,0 5.04,2.68513 1.70871,2.68513 1.70871,7.5959 0,4.93948 -1.70871,7.63897 -1.70872,2.68513 -5.04,2.68513 -3.33129,0 -5.04,-2.68513 -1.70872,-2.69949 -1.70872,-7.63897 0,-4.91077 1.70872,-7.5959 1.70871,-2.68513 5.04,-2.68513 z m 0,2.45539 q -1.70872,0 -2.6277,1.82359 -0.91897,1.80923 -0.91897,6.00205 0,3.05846 0.37333,4.76718 l 5.6,-11.42975 q -0.41641,-0.61743 -1.01948,-0.89025 -0.60308,-0.27282 -1.40718,-0.27282 z m 3.54666,7.82564 q 0,-2.74257 -0.30154,-4.37949 l -5.5282,11.28615 q 0.77538,0.96206 2.28308,0.96206 1.72307,0 2.62769,-1.80924 0.91897,-1.80923 0.91897,-6.05948 z" id="path38318"/><path d="m 341.08975,296.29171 q 1.13436,0 1.88103,0.76102 0.74666,0.74667 0.74666,1.83795 0,0.64615 -0.20102,1.29231 -0.18667,0.64615 -0.61744,1.6082 l -2.22564,5.08308 h -2.49846 l 1.40718,-5.82974 q -1.09128,-0.73231 -1.09128,-2.16821 0,-1.07692 0.74666,-1.82359 0.74667,-0.76102 1.85231,-0.76102 z" id="path38320"/><path d="m 380.4621,288.46607 -0.80411,6.10256 h 2.12513 v 2.29744 h -2.44102 l -0.58872,4.59487 h -2.69949 l 0.60308,-4.59487 h -3.63282 l -0.60308,4.59487 h -2.69949 l 0.60308,-4.59487 h -2.05333 v -2.29744 h 2.35487 l 0.83282,-6.10256 h -2.12513 v -2.3118 h 2.42667 l 0.58872,-4.50872 h 2.71384 l -0.63179,4.50872 h 3.64718 l 0.60307,-4.50872 h 2.69949 l -0.61743,4.50872 h 2.08205 v 2.3118 z m -7.13641,6.10256 h 3.63282 l 0.81846,-6.10256 h -3.64718 z" id="path38322"/><path d="m 399.38723,298.93376 v 2.52718 h -11.98974 v -2.52718 h 4.83897 v -13.98564 l -4.36513,2.68513 -1.37846,-2.25436 6.08821,-3.73334 h 2.84307 v 17.28821 z" id="path38324"/><path d="m 25.752107,336.46094 v -19.81539 h 3.331282 v 17.02975 h 8.873847 l -0.358975,2.78564 z" id="path38326"/><path d="m 55.661863,326.45273 q 0,3.07282 -0.804102,5.04 -0.804103,1.96718 -2.139487,3.0441 -1.335385,1.07693 -2.972308,1.5077 -1.636923,0.41641 -3.288205,0.41641 h -4.853334 v -19.81539 h 4.523077 q 1.809231,0 3.50359,0.3877 1.708718,0.38769 3.058462,1.43589 1.364102,1.03385 2.168205,2.97231 0.804102,1.9241 0.804102,5.01128 z m -3.503589,0 q 0,-2.36923 -0.473847,-3.80513 -0.459487,-1.43589 -1.234871,-2.18256 -0.775385,-0.74667 -1.737436,-1.00513 -0.962052,-0.25846 -1.952821,-0.25846 h -1.82359 v 14.73231 h 1.837949 q 1.033846,0 1.995898,-0.33026 0.962051,-0.33025 1.723077,-1.14872 0.775384,-0.81846 1.220512,-2.26871 0.445129,-1.46462 0.445129,-3.73334 z" id="path38328"/><path d="m 72.993158,322.86299 q 0,2.31179 -0.99077,3.76205 -0.990769,1.4359 -2.742564,2.11077 -1.737436,0.66051 -4.006154,0.66051 h -2.397948 v 7.06462 H 59.52444 v -19.81539 h 5.499487 q 3.733333,0 5.844102,1.53641 2.125129,1.52205 2.125129,4.68103 z m -3.50359,0.0287 q 0,-2.03898 -1.163077,-2.88616 -1.148718,-0.86154 -3.087179,-0.86154 h -2.38359 v 7.71077 h 2.426666 q 1.866667,0 3.029744,-0.86153 1.177436,-0.86154 1.177436,-3.10154 z" id="path38330"/><path d="m 299.1041,316.64555 h 3.69026 l 3.83384,7.13641 3.87693,-7.13641 h 3.54666 l -5.48513,9.10359 6.08821,10.7118 h -3.69026 l -4.39384,-8.42872 -4.40821,8.42872 h -3.56102 l 6.00205,-10.55385 z" id="path38332"/><path d="m 323.05487,316.2435 q 2.01026,0 3.41744,0.76103 1.40718,0.74666 2.13949,2.02461 0.74666,1.26359 0.74666,2.81436 0,1.30667 -0.45948,2.5559 -0.44513,1.23487 -1.45026,2.61333 -0.99077,1.3641 -2.62769,3.0441 -1.63693,1.66565 -4.00616,3.81949 h 9.00308 l -0.37333,2.58462 h -12.32 v -2.44103 q 2.67077,-2.57025 4.39384,-4.36513 1.73744,-1.79487 2.71385,-3.10153 0.99077,-1.30667 1.39282,-2.35488 0.40205,-1.06256 0.40205,-2.15384 0,-1.49334 -0.84718,-2.35487 -0.84718,-0.86154 -2.35487,-0.86154 -1.33538,0 -2.24,0.4882 -0.89026,0.48821 -1.76615,1.57949 l -2.09641,-1.59385 q 1.16307,-1.47897 2.67076,-2.26871 1.5077,-0.78975 3.66154,-0.78975 z" id="path38334"/><path d="m 340.86001,316.27222 q 3.38871,0 5.08307,2.19692 1.69436,2.18257 1.69436,5.82975 0,2.94359 -0.66051,5.06871 -0.64615,2.11077 -2.01026,3.58975 -1.34974,1.47897 -3.46051,2.4841 -2.09641,1.00513 -5.01128,1.72308 l -0.70359,-2.35487 q 3.90564,-1.04821 5.97333,-2.75693 2.06769,-1.72307 2.45539,-4.7959 -0.8759,0.9477 -1.95282,1.52206 -1.07693,0.57436 -2.48411,0.57436 -1.62256,0 -2.90051,-0.76103 -1.26359,-0.77539 -2.01026,-2.19692 -0.7323,-1.42154 -0.7323,-3.37436 0,-2.13949 0.89025,-3.64718 0.89026,-1.50769 2.41231,-2.29744 1.53641,-0.8041 3.41744,-0.8041 z m -3.44616,6.74872 q 0,2.09641 0.86154,3.01538 0.8759,0.91898 2.3118,0.91898 1.13435,0 2.02461,-0.53129 0.89026,-0.53128 1.69436,-1.47897 -0.0144,-3.31692 -0.8041,-4.76718 -0.77539,-1.46461 -2.65641,-1.46461 -1.66564,0 -2.5559,1.07692 -0.8759,1.07692 -0.8759,3.23077 z" id="path38336"/><path d="m 358.32055,331.29171 q 1.13436,0 1.88103,0.76102 0.74667,0.74667 0.74667,1.83795 0,0.64615 -0.20103,1.29231 -0.18667,0.64615 -0.61743,1.6082 l -2.22565,5.08308 h -2.49846 l 1.40718,-5.82974 q -1.09128,-0.73231 -1.09128,-2.16821 0,-1.07692 0.74667,-1.82359 0.74666,-0.76102 1.8523,-0.76102 z" id="path38338"/><path d="m 385.258,316.64555 h 3.69026 l 3.83384,7.13641 3.87693,-7.13641 h 3.54666 l -5.48513,9.10359 6.08821,10.7118 h -3.69026 l -4.39384,-8.42872 -4.40821,8.42872 h -3.56102 l 6.00205,-10.55385 z" id="path38340"/><path d="m 409.15137,316.2435 q 1.96718,0 3.38872,0.68923 1.42153,0.68923 2.18256,1.82359 0.76103,1.13436 0.76103,2.49846 0,1.83795 -1.13436,3.05847 -1.12,1.22051 -2.8,1.6082 1.23487,0.12923 2.26871,0.68923 1.04821,0.56 1.66565,1.59385 0.63179,1.03384 0.63179,2.59897 0,1.69436 -0.89026,3.07282 -0.89025,1.3641 -2.49846,2.16821 -1.6082,0.8041 -3.79077,0.8041 -1.86666,0 -3.56102,-0.68923 -1.68,-0.68923 -2.85744,-2.08205 l 1.96718,-1.72308 q 0.84718,0.99077 1.96718,1.46462 1.13436,0.47384 2.34051,0.47384 1.83795,0 2.91488,-0.94769 1.07692,-0.96205 1.07692,-2.65641 0,-1.9241 -1.06257,-2.68513 -1.06256,-0.77538 -2.75692,-0.77538 h -1.70872 l 0.37334,-2.36923 h 1.20615 q 1.39282,0 2.42667,-0.76103 1.0482,-0.77538 1.0482,-2.36923 0,-1.4359 -0.99077,-2.21128 -0.97641,-0.78975 -2.42666,-0.78975 -1.24923,0 -2.21129,0.45949 -0.96205,0.45949 -1.89538,1.32103 l -1.70872,-1.82359 q 1.30667,-1.23487 2.82872,-1.83795 1.52205,-0.60308 3.24513,-0.60308 z" id="path38342"/><path d="m 427.24368,316.2435 q 3.33128,0 5.04,2.68513 1.70872,2.68513 1.70872,7.5959 0,4.93948 -1.70872,7.63897 -1.70872,2.68513 -5.04,2.68513 -3.33128,0 -5.04,-2.68513 -1.70872,-2.69949 -1.70872,-7.63897 0,-4.91077 1.70872,-7.5959 1.70872,-2.68513 5.04,-2.68513 z m 0,2.45539 q -1.70872,0 -2.62769,1.82359 -0.91898,1.80923 -0.91898,6.00205 0,3.05846 0.37334,4.76718 l 5.6,-11.42975 q -0.41641,-0.61743 -1.01949,-0.89025 -0.60308,-0.27282 -1.40718,-0.27282 z m 3.54667,7.82564 q 0,-2.74257 -0.30154,-4.37949 l -5.52821,11.28615 q 0.77539,0.96206 2.28308,0.96206 1.72308,0 2.62769,-1.80924 0.91898,-1.80923 0.91898,-6.05948 z" id="path38344"/><path d="m 444.47445,331.29171 q 1.13436,0 1.88103,0.76102 0.74667,0.74667 0.74667,1.83795 0,0.64615 -0.20103,1.29231 -0.18667,0.64615 -0.61743,1.6082 l -2.22565,5.08308 h -2.49846 l 1.40718,-5.82974 q -1.09128,-0.73231 -1.09128,-2.16821 0,-1.07692 0.74667,-1.82359 0.74666,-0.76102 1.8523,-0.76102 z" id="path38346"/><path d="m 475.30318,339.84966 v -26.88 h 7.82564 v 2.57025 h -4.79589 v 21.76821 h 4.79589 v 2.54154 z" id="path38348"/><path d="m 503.30322,330.86094 q 0,1.76615 -0.90462,3.11589 -0.89025,1.34975 -2.58461,2.11077 -1.68,0.76103 -4.06359,0.76103 -2.42667,0 -4.2359,-0.71795 -1.80923,-0.71795 -3.05846,-1.93846 l 1.82359,-2.03897 q 1.0482,0.97641 2.38359,1.52205 1.33538,0.54564 3.07282,0.54564 1.68,0 2.88615,-0.78975 1.22051,-0.8041 1.22051,-2.4123 0,-0.86154 -0.35897,-1.46462 -0.35897,-0.61744 -1.24923,-1.09128 -0.8759,-0.48821 -2.45539,-0.96205 -3.14461,-0.93334 -4.76718,-2.25436 -1.62256,-1.32103 -1.62256,-3.64718 0,-1.60821 0.8759,-2.81436 0.89025,-1.20615 2.42666,-1.86667 1.55077,-0.67487 3.50359,-0.67487 2.15385,0 3.76206,0.6318 1.6082,0.61743 2.87179,1.75179 l -1.75179,1.98154 q -1.04821,-0.90462 -2.25436,-1.32103 -1.1918,-0.43077 -2.42667,-0.43077 -1.52205,0 -2.5559,0.64616 -1.03384,0.63179 -1.03384,1.90974 0,0.77539 0.41641,1.32103 0.43077,0.53128 1.43589,1.00513 1.01949,0.45948 2.78565,0.99077 1.66564,0.4882 2.98666,1.20615 1.33539,0.71795 2.09641,1.89538 0.77539,1.16308 0.77539,3.02975 z" id="path38350"/><path d="m 520.99348,322.86299 q 0,2.31179 -0.99077,3.76205 -0.99077,1.4359 -2.74257,2.11077 -1.73743,0.66051 -4.00615,0.66051 h -2.39795 v 7.06462 h -3.33128 v -19.81539 h 5.49949 q 3.73333,0 5.8441,1.53641 2.12513,1.52205 2.12513,4.68103 z m -3.50359,0.0287 q 0,-2.03898 -1.16308,-2.88616 -1.14872,-0.86154 -3.08718,-0.86154 h -2.38359 v 7.71077 h 2.42667 q 1.86667,0 3.02974,-0.86153 1.17744,-0.86154 1.17744,-3.10154 z" id="path38352"/><path d="m 532.02118,320.43632 v 5.78667 h 5.70051 v 2.58461 h -5.70051 v 5.77231 h -2.82872 v -5.77231 h -5.65744 v -2.58461 h 5.65744 v -5.78667 z" id="path38354"/><path d="m 555.08172,321.29786 -5.34154,15.16308 h -3.76205 l -5.34154,-15.16308 h 3.44616 l 3.8482,12.49231 3.86257,-12.49231 z" id="path38356"/><path d="m 570.61814,332.74196 q 0,0.90462 0.27282,1.30667 0.27282,0.40205 0.8759,0.60308 l -0.71795,2.18256 q -1.12,-0.12923 -1.93846,-0.61744 -0.80411,-0.4882 -1.20616,-1.47897 -0.83282,1.06256 -2.11077,1.59385 -1.27795,0.51692 -2.7282,0.51692 -2.3118,0 -3.64718,-1.29231 -1.33539,-1.30666 -1.33539,-3.41743 0,-2.39795 1.86667,-3.69026 1.86667,-1.29231 5.34154,-1.29231 h 2.1682 v -0.99077 q 0,-1.47897 -0.89025,-2.11077 -0.89026,-0.64615 -2.48411,-0.64615 -0.74666,0 -1.80923,0.20103 -1.06256,0.18666 -2.22564,0.58871 l -0.78974,-2.26871 q 1.42154,-0.53129 2.78564,-0.77539 1.3641,-0.25846 2.52718,-0.25846 3.0441,0 4.53744,1.34974 1.50769,1.34975 1.50769,3.73334 z m -6.57641,1.73744 q 0.97641,0 1.90974,-0.51692 0.93333,-0.51693 1.50769,-1.45026 v -3.34564 h -1.78051 q -2.26872,0 -3.24513,0.76102 -0.97641,0.74667 -0.97641,2.0677 0,2.4841 2.58462,2.4841 z" id="path38358"/><path d="m 576.40481,336.46094 v -2.29744 h 2.22564 v -10.58256 h -2.22564 v -2.28308 h 4.68103 l 0.58871,3.51795 q 0.84718,-1.90974 2.09641,-2.90051 1.26359,-1.00513 3.24513,-1.00513 0.67487,0 1.20616,0.11487 0.54564,0.10051 1.07692,0.27282 l -0.54564,5.58564 h -2.29744 v -3.08718 q -1.6082,0.0574 -2.77128,1.29231 -1.16308,1.22051 -1.83795,3.44615 v 5.62872 h 3.05846 v 2.29744 z" id="path38360"/><path d="m 592.37199,341.71632 v -2.65641 h 14.35898 v 2.65641 z" id="path38362"/><path d="m 616.23661,334.37889 q 1.5077,0 2.39795,-0.53129 0.89026,-0.54564 0.89026,-1.49333 0,-0.61744 -0.25846,-1.0482 -0.25846,-0.43077 -1.03385,-0.80411 -0.77538,-0.37333 -2.35487,-0.77538 -1.49333,-0.38769 -2.62769,-0.91898 -1.12,-0.53128 -1.73744,-1.37846 -0.61743,-0.84718 -0.61743,-2.18256 0,-1.95282 1.62256,-3.14462 1.63692,-1.20615 4.43692,-1.20615 1.90975,0 3.33128,0.50256 1.42154,0.50257 2.42667,1.24923 l -1.34974,2.02462 q -0.89026,-0.58872 -1.95282,-0.96205 -1.04821,-0.37334 -2.36923,-0.37334 -1.53641,0 -2.21129,0.45949 -0.66051,0.45949 -0.66051,1.22051 0,0.57436 0.33026,0.9477 0.34461,0.37333 1.17743,0.70359 0.83282,0.33025 2.35488,0.74666 1.47897,0.40205 2.57025,0.9477 1.10564,0.54564 1.70872,1.45025 0.61744,0.89026 0.61744,2.32616 0,1.63692 -0.9477,2.68512 -0.94769,1.03385 -2.46974,1.53641 -1.52205,0.48821 -3.27385,0.48821 -2.11077,0 -3.64718,-0.60308 -1.53641,-0.61743 -2.58461,-1.53641 l 1.70872,-1.95282 q 0.89025,0.71795 2.03897,1.17744 1.14872,0.44513 2.4841,0.44513 z" id="path38364"/><path d="m 634.01303,316.2435 q 3.33128,0 5.04,2.68513 1.70872,2.68513 1.70872,7.5959 0,4.93948 -1.70872,7.63897 -1.70872,2.68513 -5.04,2.68513 -3.33128,0 -5.04,-2.68513 -1.70872,-2.69949 -1.70872,-7.63897 0,-4.91077 1.70872,-7.5959 1.70872,-2.68513 5.04,-2.68513 z m 0,2.45539 q -1.70872,0 -2.62769,1.82359 -0.91898,1.80923 -0.91898,6.00205 0,3.05846 0.37334,4.76718 l 5.6,-11.42975 q -0.41641,-0.61743 -1.01949,-0.89025 -0.60308,-0.27282 -1.40718,-0.27282 z m 3.54667,7.82564 q 0,-2.74257 -0.30154,-4.37949 l -5.52821,11.28615 q 0.77539,0.96206 2.28308,0.96206 1.72308,0 2.62769,-1.80924 0.91898,-1.80923 0.91898,-6.05948 z" id="path38366"/><path d="m 654.87662,312.96966 v 26.88 h -7.82564 v -2.54154 h 4.7959 v -21.76821 h -4.7959 v -2.57025 z" id="path38368"/><path d="m 668.47464,331.29171 q 1.13436,0 1.88102,0.76102 0.74667,0.74667 0.74667,1.83795 0,0.64615 -0.20103,1.29231 -0.18666,0.64615 -0.61743,1.6082 l -2.22564,5.08308 h -2.49846 l 1.40718,-5.82974 q -1.09129,-0.73231 -1.09129,-2.16821 0,-1.07692 0.74667,-1.82359 0.74667,-0.76102 1.85231,-0.76102 z" id="path38370"/><path d="m 690.61618,323.46607 -0.8041,6.10256 h 2.12513 v 2.29744 h -2.44103 l -0.58872,4.59487 h -2.69948 l 0.60307,-4.59487 h -3.63282 l -0.60307,4.59487 h -2.69949 l 0.60307,-4.59487 h -2.05333 v -2.29744 h 2.35487 l 0.83282,-6.10256 h -2.12512 v -2.3118 h 2.42666 l 0.58872,-4.50872 h 2.71385 l -0.6318,4.50872 h 3.64718 l 0.60308,-4.50872 h 2.69949 l -0.61744,4.50872 h 2.08205 v 2.3118 z m -7.13641,6.10256 h 3.63282 l 0.81846,-6.10256 h -3.64718 z" id="path38372"/><path d="m 702.93619,316.2435 q 3.33128,0 5.04,2.68513 1.70871,2.68513 1.70871,7.5959 0,4.93948 -1.70871,7.63897 -1.70872,2.68513 -5.04,2.68513 -3.33129,0 -5.04,-2.68513 -1.70872,-2.69949 -1.70872,-7.63897 0,-4.91077 1.70872,-7.5959 1.70871,-2.68513 5.04,-2.68513 z m 0,2.45539 q -1.70872,0 -2.6277,1.82359 -0.91897,1.80923 -0.91897,6.00205 0,3.05846 0.37333,4.76718 l 5.6,-11.42975 q -0.41641,-0.61743 -1.01949,-0.89025 -0.60307,-0.27282 -1.40717,-0.27282 z m 3.54666,7.82564 q 0,-2.74257 -0.30154,-4.37949 l -5.5282,11.28615 q 0.77538,0.96206 2.28308,0.96206 1.72307,0 2.62769,-1.80924 0.91897,-1.80923 0.91897,-6.05948 z" id="path38374"/><path d="m 724.24491,321.15427 1.89538,1.89539 -4.09231,4.06359 4.09231,4.13538 -1.89538,1.89538 -4.07795,-4.14974 -4.12103,4.14974 -1.89538,-1.89538 4.13538,-4.13538 -4.13538,-4.06359 1.89538,-1.89539 4.12103,4.07795 z" id="path38376"/><path d="m 744.00286,333.93376 v 2.52718 h -11.98974 v -2.52718 h 4.83897 v -13.98564 l -4.36513,2.68513 -1.37846,-2.25436 6.08821,-3.73334 h 2.84307 v 17.28821 z" id="path38378"/><path d="m 754.62851,316.2435 q 3.33128,0 5.04,2.68513 1.70872,2.68513 1.70872,7.5959 0,4.93948 -1.70872,7.63897 -1.70872,2.68513 -5.04,2.68513 -3.33128,0 -5.04,-2.68513 -1.70872,-2.69949 -1.70872,-7.63897 0,-4.91077 1.70872,-7.5959 1.70872,-2.68513 5.04,-2.68513 z m 0,2.45539 q -1.70872,0 -2.6277,1.82359 -0.91897,1.80923 -0.91897,6.00205 0,3.05846 0.37333,4.76718 l 5.6,-11.42975 q -0.41641,-0.61743 -1.01948,-0.89025 -0.60308,-0.27282 -1.40718,-0.27282 z m 3.54666,7.82564 q 0,-2.74257 -0.30153,-4.37949 l -5.52821,11.28615 q 0.77538,0.96206 2.28308,0.96206 1.72307,0 2.62769,-1.80924 0.91897,-1.80923 0.91897,-6.05948 z" id="path38380"/></g>
	<g id="g41581"><path style="fill:#2686ca;fill-opacity:1" d="M 881.64001,44.64 H 0.0010028 L 0,30.897 C -0.00124512,13.833 13.833,0 30.897,0 h 819.84601 c 17.063,0 30.896,13.833 30.896,30.897 z" id="path26203" sodipodi:nodetypes="ccssssc"/><g id="g41563" style="stroke-width:13.8026" transform="matrix(0.50127704,0,0,0.50127704,818.45376,3.7727494)"><path d="M 37,72 A 1,1 0 0 1 36.578,71.907 C 19.185,63.811 8.8,49.853 8.8,34.57 V 13.46 A 1,1 0 0 1 9.127,12.72 0.992,0.992 0 0 1 9.896,12.464 C 20.887,13.518 29.508,10.209 36.24,2.35 A 1,1 0 0 1 37,2 1,1 0 0 1 37.76,2.352 c 6.586,7.733 15.213,11.048 26.357,10.111 a 1,1 0 0 1 1.083,1 V 34.57 a 29.339,29.339 0 0 1 -0.144,3 33.031,33.031 0 0 1 -1.475,7.2 31.017,31.017 0 0 1 -1.132,3.056 38.379,38.379 0 0 1 -4.011,7.183 c -0.2,0.3 -0.434,0.62 -0.669,0.939 A 53.361,53.361 0 0 1 37.422,71.907 1,1 0 0 1 37,72 Z M 10.8,14.547 V 34.57 c 0,14.362 9.785,27.539 26.2,35.33 A 51.137,51.137 0 0 0 56.149,54.781 c 0.226,-0.3 0.44,-0.592 0.635,-0.889 a 36.4,36.4 0 0 0 3.824,-6.841 29.481,29.481 0 0 0 1.067,-2.877 31.048,31.048 0 0 0 1.389,-6.793 A 26.935,26.935 0 0 0 63.2,34.57 V 14.535 C 52.3,15.2 43.707,11.91 37,4.513 30.158,12.029 21.567,15.319 10.8,14.547 Z" id="path35138" style="fill:#c11e2c;fill-opacity:1;stroke:#20283c;stroke-width:1.99491;stroke-dasharray:none;stroke-opacity:1"/><path d="m 58.031,38.47 a 0.884,0.884 0 0 1 -0.125,-0.008 1,1 0 0 1 -0.868,-1.116 22.223,22.223 0 0 0 0.162,-2.776 1.0000125,1.0000125 0 0 1 2,-0.01 v 0.01 a 24.073,24.073 0 0 1 -0.178,3.024 1,1 0 0 1 -0.991,0.876 z" id="path35140" style="fill:#c11e2c;fill-opacity:1;stroke:#20283c;stroke-width:1.99491;stroke-dasharray:none;stroke-opacity:1"/><path d="m 54.929,48.44 a 1,1 0 0 1 -0.884,-1.466 27.324,27.324 0 0 0 1.312,-2.864 1.0000445,1.0000445 0 1 1 1.866,0.72 29.149,29.149 0 0 1 -1.409,3.076 1,1 0 0 1 -0.885,0.534 z" id="path35142" style="fill:#c11e2c;fill-opacity:1;stroke:#20283c;stroke-width:1.99491;stroke-dasharray:none;stroke-opacity:1"/><path d="M 37,65.31 A 1.01,1.01 0 0 1 36.534,65.195 C 22.925,58.028 14.8,46.579 14.8,34.57 V 19.61 a 1,1 0 0 1 0.952,-1 33.729,33.729 0 0 0 20.6,-7.936 1,1 0 0 1 1.288,0 34.181,34.181 0 0 0 20.611,7.878 1,1 0 0 1 0.946,1 v 8.01 a 1,1 0 1 1 -2,0 V 20.487 A 36.02,36.02 0 0 1 37,12.734 35.561,35.561 0 0 1 16.8,20.552 V 34.57 c 0,11.285 7.354,21.688 20.2,28.607 A 45.135,45.135 0 0 0 49.247,53.771 1,1 0 1 1 50.733,55.109 47.372,47.372 0 0 1 37.466,65.195 1.01,1.01 0 0 1 37,65.31 Z" id="path35144" style="fill:#c11e2c;fill-opacity:1;stroke:#20283c;stroke-width:1.99491;stroke-dasharray:none;stroke-opacity:1"/></g></g>
	
	
	
</g></g></g></svg>