<?xml version="1.0" ?><svg xmlns:inkscape="http://www.inkscape.org/namespaces/inkscape" xmlns:sodipodi="http://sodipodi.sourceforge.net/DTD/sodipodi-0.dtd" xmlns="http://www.w3.org/2000/svg" xmlns:svg="http://www.w3.org/2000/svg" width="903.961" height="569.15997" viewBox="0 0 239.17329 150.59024" version="1.1" id="svg5" sodipodi:docname="anti-hooking-1.svg" xml:space="preserve"><sodipodi:namedview id="namedview7" pagecolor="#ffffff" bordercolor="#000000" borderopacity="0.25" showgrid="true"/><defs id="defs2"><rect x="22.319974" y="66.960001" width="848.15902" height="479.88001" id="rect2499"/><rect x="33.479961" y="89.280002" width="948.59887" height="435.23999" id="rect42149"/><rect x="55.799999" y="55.799999" width="892.79999" height="502.20001" id="rect20415"/></defs><g id="layer1"><g id="g26287" transform="matrix(0.26458333,0,0,0.26458333,151.03674,16.444252)"><g id="g26211" transform="translate(-559.68753,-50.991504)" style="display:inline">
	<path style="fill:#e6e6e6;fill-opacity:1" d="M 850.74201,546.84001 H 30.897 C 13.833,546.84001 0,533.00701 0,515.94301 V 42.057 C 0,24.993 13.833,11.16 30.897,11.16 h 819.84601 c 17.064,0 30.897,13.833 30.897,30.897 v 473.88601 c -10e-4,17.064 -13.834,30.897 -30.898,30.897 z" id="path26201" sodipodi:nodetypes="ssssssscs"/>
	<path style="fill:#434141;fill-opacity:1" d="M 881.64001,44.64 H 0.0010028 L 0,30.897 C -0.00124512,13.833 13.833,0 30.897,0 h 819.84601 c 17.063,0 30.896,13.833 30.896,30.897 z" id="path26203" sodipodi:nodetypes="ccssssc"/>
	
	
	
<g aria-label="STP             X29, X30, [SP,#-0x10+var_s0]! MOV             X29, SP ADRL            X0, aHookMe_0 ; &quot;hook_me()&quot; BL              .puts MOV             W0, #1 LDP             X29, X30, [SP+var_s0],#0x10" transform="matrix(1.0000012,0,0,1.0000012,-11.159998,-11.160334)" id="text2497" style="font-weight:500;font-size:26.6667px;font-family:'Fira Code';-inkscape-font-specification:'Fira Code, Medium';white-space:pre;shape-inside:url(#rect2499);opacity:1;fill:#434141;stroke-width:2;stroke-linecap:round;stroke-miterlimit:2;paint-order:fill markers stroke"><path d="m 37.322041,84.96096 q 0,1.682054 -0.86154,2.967525 -0.847864,1.285472 -2.461541,2.010259 -1.600002,0.724788 -3.870091,0.724788 -2.311114,0 -4.034193,-0.683762 -1.723079,-0.683762 -2.912824,-1.846156 l 1.736754,-1.941883 q 0.998292,0.929916 2.270089,1.449575 1.271796,0.519658 2.926499,0.519658 1.600002,0 2.748722,-0.752137 1.162394,-0.765813 1.162394,-2.297439 0,-0.820514 -0.341881,-1.394874 -0.34188,-0.588035 -1.189745,-1.039317 -0.834189,-0.464958 -2.338464,-0.916241 -2.994876,-0.88889 -4.540177,-2.147011 -1.545301,-1.258121 -1.545301,-3.473509 0,-1.531626 0.834189,-2.680345 0.847864,-1.148719 2.311114,-1.77778 1.476925,-0.642736 3.336757,-0.642736 2.051284,0 3.58291,0.60171 1.531626,0.588035 2.735046,1.668378 l -1.668378,1.887182 q -0.998292,-0.861539 -2.147011,-1.258121 -1.135044,-0.410257 -2.311114,-0.410257 -1.449575,0 -2.434191,0.615386 -0.984617,0.60171 -0.984617,1.818805 0,0.738463 0.396582,1.258122 0.410257,0.505983 1.367523,0.957266 0.970941,0.437607 2.652995,0.943591 1.586326,0.464957 2.844448,1.148719 1.271796,0.683762 1.996583,1.805131 0.738463,1.107693 0.738463,2.885473 z" id="path37250"/><path d="M 48.481042,73.97975 V 90.2943 H 45.308388 V 73.97975 H 39.646843 V 71.422482 H 54.27934 l -0.328206,2.557268 z" id="path37252"/><path d="m 70.580228,77.343857 q 0,2.201712 -0.943591,3.58291 -0.943591,1.367523 -2.611969,2.010259 -1.654703,0.629061 -3.81539,0.629061 H 60.925515 V 90.2943 H 57.752861 V 71.422482 h 5.237614 q 3.55556,0 5.565819,1.463249 2.023934,1.449575 2.023934,4.458126 z m -3.336757,0.02735 q 0,-1.941883 -1.107693,-2.748721 -1.094019,-0.820514 -2.940175,-0.820514 h -2.270088 v 7.343599 h 2.311114 q 1.77778,0 2.885473,-0.820514 1.121369,-0.820514 1.121369,-2.95385 z" id="path37254"/><path d="m 285.92427,71.422482 h 3.51453 l 3.65129,6.796589 3.69231,-6.796589 h 3.37778 l -5.22394,8.670096 5.7983,10.201722 h -3.51453 l -4.18462,-8.02736 -4.1983,8.02736 h -3.39146 l 5.71625,-10.051294 z" id="path37256"/><path d="m 308.73455,71.039575 q 1.91454,0 3.25471,0.724787 1.34017,0.711112 2.03761,1.928208 0.71111,1.20342 0.71111,2.680345 0,1.244446 -0.43761,2.434191 -0.42393,1.17607 -1.3812,2.488892 -0.94359,1.299147 -2.50256,2.899149 -1.55898,1.586327 -3.81539,3.637612 h 8.57437 l -0.35556,2.461541 h -11.73335 v -2.324789 q 2.5436,-2.447866 4.18462,-4.15727 1.65471,-1.709404 2.58462,-2.95385 0.94359,-1.244446 1.3265,-2.242738 0.38291,-1.011967 0.38291,-2.051285 0,-1.422224 -0.80684,-2.242737 -0.80684,-0.820514 -2.24274,-0.820514 -1.2718,0 -2.13334,0.464958 -0.84786,0.464957 -1.68205,1.504275 l -1.99658,-1.517951 q 1.10769,-1.408548 2.54359,-2.160686 1.4359,-0.752138 3.48718,-0.752138 z" id="path37258"/><path d="m 325.69187,71.066926 q 3.22736,0 4.84103,2.09231 1.61368,2.078635 1.61368,5.552144 0,2.803422 -0.62906,4.827356 -0.61539,2.010259 -1.91453,3.418808 -1.28547,1.408549 -3.29573,2.365815 -1.99659,0.957266 -4.77266,1.641028 l -0.67009,-2.242738 q 3.71967,-0.998292 5.6889,-2.625645 1.96923,-1.641027 2.33846,-4.567527 -0.83418,0.902566 -1.85983,1.449575 -1.02564,0.547009 -2.36581,0.547009 -1.5453,0 -2.7624,-0.724787 -1.20342,-0.738463 -1.91453,-2.092311 -0.69744,-1.353847 -0.69744,-3.213679 0,-2.037609 0.84787,-3.473509 0.84786,-1.435899 2.29744,-2.188036 1.46325,-0.765813 3.2547,-0.765813 z m -3.28205,6.427358 q 0,1.996584 0.82051,2.871799 0.83419,0.875214 2.20171,0.875214 1.08034,0 1.92821,-0.505983 0.84786,-0.505984 1.61368,-1.408549 -0.0137,-3.158978 -0.76582,-4.540177 -0.73846,-1.394873 -2.52991,-1.394873 -1.58633,0 -2.4342,1.025642 -0.83418,1.025643 -0.83418,3.076927 z" id="path37260"/><path d="m 342.32095,85.371217 q 1.08035,0 1.79146,0.724787 0.71111,0.711112 0.71111,1.75043 0,0.615385 -0.19145,1.230771 -0.17778,0.615385 -0.58804,1.531626 l -2.11966,4.841031 h -2.37949 l 1.34017,-5.552143 q -1.03931,-0.697437 -1.03931,-2.06496 0,-1.025643 0.71111,-1.736755 0.71111,-0.724787 1.7641,-0.724787 z" id="path37262"/><path d="m 367.97572,71.422482 h 3.51453 l 3.65129,6.796589 3.69231,-6.796589 h 3.37778 l -5.22393,8.670096 5.79829,10.201722 h -3.51453 l -4.18462,-8.02736 -4.1983,8.02736 h -3.39145 l 5.71624,-10.051294 z" id="path37264"/><path d="m 390.7313,71.039575 q 1.87351,0 3.22736,0.656411 1.35385,0.656411 2.07863,1.736755 0.72479,1.080343 0.72479,2.37949 0,1.750429 -1.08034,2.912824 -1.06667,1.162395 -2.66667,1.531626 1.17607,0.123077 2.16068,0.656411 0.9983,0.533334 1.58633,1.517951 0.60171,0.984616 0.60171,2.475216 0,1.613678 -0.84786,2.9265 -0.84787,1.299147 -2.37949,2.06496 -1.53163,0.765813 -3.61026,0.765813 -1.77778,0 -3.39146,-0.656412 -1.6,-0.656411 -2.72137,-1.982908 l 1.8735,-1.641028 q 0.80684,0.943591 1.87351,1.394874 1.08034,0.451282 2.22906,0.451282 1.75043,0 2.77608,-0.902565 1.02564,-0.91624 1.02564,-2.529918 0,-1.83248 -1.01197,-2.557268 -1.01197,-0.738462 -2.62564,-0.738462 h -1.62736 l 0.35556,-2.256413 h 1.14872 q 1.3265,0 2.31111,-0.724788 0.9983,-0.738462 0.9983,-2.256413 0,-1.367523 -0.9436,-2.105985 -0.92991,-0.752138 -2.31111,-0.752138 -1.18974,0 -2.10599,0.437607 -0.91624,0.437608 -1.80513,1.258122 l -1.62735,-1.736755 q 1.24445,-1.176069 2.69402,-1.750429 1.44958,-0.57436 3.0906,-0.57436 z" id="path37266"/><path d="m 407.96213,71.039575 q 3.17265,0 4.8,2.557268 1.62736,2.557269 1.62736,7.234197 0,4.70428 -1.62736,7.275223 -1.62735,2.557269 -4.8,2.557269 -3.17266,0 -4.80001,-2.557269 -1.62735,-2.570943 -1.62735,-7.275223 0,-4.676928 1.62735,-7.234197 1.62735,-2.557268 4.80001,-2.557268 z m 0,2.338465 q -1.62736,0 -2.50257,1.736754 -0.87521,1.723079 -0.87521,5.716246 0,2.912825 0.35555,4.540177 l 5.33334,-10.885484 q -0.39658,-0.588035 -0.97094,-0.847864 -0.57436,-0.259829 -1.34017,-0.259829 z m 3.37778,7.453 q 0,-2.611969 -0.28718,-4.170945 l -5.26496,10.748732 q 0.73846,0.91624 2.17436,0.91624 1.64102,0 2.50256,-1.723079 0.87522,-1.723079 0.87522,-5.770948 z" id="path37268"/><path d="m 424.37241,85.371217 q 1.08034,0 1.79145,0.724787 0.71111,0.711112 0.71111,1.75043 0,0.615385 -0.19145,1.230771 -0.17778,0.615385 -0.58804,1.531626 l -2.11966,4.841031 h -2.37949 l 1.34018,-5.552143 q -1.03932,-0.697437 -1.03932,-2.06496 0,-1.025643 0.71111,-1.736755 0.71111,-0.724787 1.76411,-0.724787 z" id="path37270"/><path d="M 453.73316,93.521655 V 67.921622 h 7.453 v 2.447867 h -4.56753 v 20.73165 h 4.56753 v 2.420516 z" id="path37272"/><path d="m 480.39986,84.96096 q 0,1.682054 -0.86154,2.967525 -0.84786,1.285472 -2.46154,2.010259 -1.6,0.724788 -3.87009,0.724788 -2.31111,0 -4.03419,-0.683762 -1.72308,-0.683762 -2.91283,-1.846156 l 1.73676,-1.941883 q 0.99829,0.929916 2.27008,1.449575 1.2718,0.519658 2.9265,0.519658 1.60001,0 2.74873,-0.752137 1.16239,-0.765813 1.16239,-2.297439 0,-0.820514 -0.34188,-1.394874 -0.34188,-0.588035 -1.18975,-1.039317 -0.83418,-0.464958 -2.33846,-0.916241 -2.99488,-0.88889 -4.54018,-2.147011 -1.5453,-1.258121 -1.5453,-3.473509 0,-1.531626 0.83419,-2.680345 0.84787,-1.148719 2.31112,-1.77778 1.47692,-0.642736 3.33675,-0.642736 2.05129,0 3.58291,0.60171 1.53163,0.588035 2.73505,1.668378 l -1.66838,1.887182 q -0.99829,-0.861539 -2.14701,-1.258121 -1.13505,-0.410257 -2.31112,-0.410257 -1.44957,0 -2.43419,0.615386 -0.98461,0.60171 -0.98461,1.818805 0,0.738463 0.39658,1.258122 0.41026,0.505983 1.36752,0.957266 0.97094,0.437607 2.653,0.943591 1.58632,0.464957 2.84444,1.148719 1.2718,0.683762 1.99659,1.805131 0.73846,1.107693 0.73846,2.885473 z" id="path37274"/><path d="m 497.24775,77.343857 q 0,2.201712 -0.94359,3.58291 -0.9436,1.367523 -2.61197,2.010259 -1.65471,0.629061 -3.81539,0.629061 h -2.28377 V 90.2943 h -3.17265 V 71.422482 h 5.23761 q 3.55556,0 5.56582,1.463249 2.02394,1.449575 2.02394,4.458126 z m -3.33676,0.02735 q 0,-1.941883 -1.10769,-2.748721 -1.09402,-0.820514 -2.94018,-0.820514 h -2.27009 v 7.343599 h 2.31112 q 1.77778,0 2.88547,-0.820514 1.12137,-0.820514 1.12137,-2.95385 z" id="path37276"/><path d="m 506.42386,85.371217 q 1.08034,0 1.79145,0.724787 0.71112,0.711112 0.71112,1.75043 0,0.615385 -0.19146,1.230771 -0.17778,0.615385 -0.58803,1.531626 l -2.11966,4.841031 h -2.37949 l 1.34017,-5.552143 q -1.03932,-0.697437 -1.03932,-2.06496 0,-1.025643 0.71111,-1.736755 0.71112,-0.724787 1.76411,-0.724787 z" id="path37278"/><path d="m 527.51107,77.918216 -0.76582,5.811973 h 2.02394 v 2.188037 h -2.32479 l -0.56069,4.376074 h -2.57094 l 0.57436,-4.376074 h -3.45983 l -0.57436,4.376074 h -2.57095 l 0.57436,-4.376074 h -1.95556 v -2.188037 h 2.24274 l 0.79317,-5.811973 h -2.02394 v -2.201712 h 2.31112 l 0.56068,-4.294022 h 2.58462 l -0.60171,4.294022 h 3.47351 l 0.57436,-4.294022 h 2.57094 l -0.58803,4.294022 h 1.9829 v 2.201712 z m -6.79659,5.811973 h 3.45983 l 0.77949,-5.811973 h -3.47351 z" id="path37280"/><path d="m 533.59657,82.991727 v -2.516243 h 11.29575 v 2.516243 z" id="path37282"/><path d="m 555.65472,71.039575 q 3.17266,0 4.80001,2.557268 1.62735,2.557269 1.62735,7.234197 0,4.70428 -1.62735,7.275223 -1.62735,2.557269 -4.80001,2.557269 -3.17265,0 -4.8,-2.557269 -1.62736,-2.570943 -1.62736,-7.275223 0,-4.676928 1.62736,-7.234197 1.62735,-2.557268 4.8,-2.557268 z m 0,2.338465 q -1.62735,0 -2.50256,1.736754 -0.87522,1.723079 -0.87522,5.716246 0,2.912825 0.35556,4.540177 l 5.33334,-10.885484 q -0.39658,-0.588035 -0.97094,-0.847864 -0.57436,-0.259829 -1.34018,-0.259829 z m 3.37779,7.453 q 0,-2.611969 -0.28718,-4.170945 l -5.26497,10.748732 q 0.73846,0.91624 2.17436,0.91624 1.64103,0 2.50257,-1.723079 0.87522,-1.723079 0.87522,-5.770948 z" id="path37284"/><path d="m 575.94877,75.716504 1.80513,1.805131 -3.89744,3.87009 3.89744,3.938466 -1.80513,1.805131 -3.88377,-3.952142 -3.92479,3.952142 -1.80513,-1.805131 3.93847,-3.938466 -3.93847,-3.87009 1.80513,-1.805131 3.92479,3.883766 z" id="path37286"/><path d="m 594.76589,87.88746 v 2.40684 h -11.41882 v -2.40684 h 4.60855 V 74.567785 l -4.15727,2.557268 -1.31282,-2.147011 5.7983,-3.55556 h 2.70769 V 87.88746 Z" id="path37288"/><path d="m 604.88562,71.039575 q 3.17265,0 4.80001,2.557268 1.62735,2.557269 1.62735,7.234197 0,4.70428 -1.62735,7.275223 -1.62736,2.557269 -4.80001,2.557269 -3.17265,0 -4.80001,-2.557269 -1.62735,-2.570943 -1.62735,-7.275223 0,-4.676928 1.62735,-7.234197 1.62736,-2.557268 4.80001,-2.557268 z m 0,2.338465 q -1.62735,0 -2.50257,1.736754 -0.87521,1.723079 -0.87521,5.716246 0,2.912825 0.35555,4.540177 l 5.33334,-10.885484 q -0.39658,-0.588035 -0.97094,-0.847864 -0.57436,-0.259829 -1.34017,-0.259829 z m 3.37778,7.453 q 0,-2.611969 -0.28718,-4.170945 l -5.26496,10.748732 q 0.73846,0.91624 2.17436,0.91624 1.64103,0 2.50257,-1.723079 0.87521,-1.723079 0.87521,-5.770948 z" id="path37290"/><path d="m 622.6224,75.032743 v 5.511118 h 5.42906 v 2.461541 h -5.42906 v 5.497443 h -2.69403 v -5.497443 h -5.38804 v -2.461541 h 5.38804 v -5.511118 z" id="path37292"/><path d="M 644.58482,75.853256 639.49763,90.2943 h -3.58291 l -5.08718,-14.441044 h 3.28205 l 3.66496,11.897451 3.67864,-11.897451 z" id="path37294"/><path d="m 659.38142,86.752416 q 0,0.861539 0.25983,1.244446 0.25983,0.382906 0.83419,0.574359 l -0.68376,2.078635 q -1.06667,-0.123077 -1.84616,-0.588035 -0.76581,-0.464957 -1.14872,-1.408548 -0.79316,1.011967 -2.01026,1.51795 -1.21709,0.492309 -2.59829,0.492309 -2.20172,0 -3.47351,-1.230771 -1.2718,-1.244446 -1.2718,-3.254705 0,-2.283764 1.77778,-3.514535 1.77778,-1.23077 5.08719,-1.23077 h 2.06496 V 80.48916 q 0,-1.408549 -0.84787,-2.010259 -0.84786,-0.615386 -2.36581,-0.615386 -0.71111,0 -1.72308,0.191454 -1.01197,0.177778 -2.11966,0.560684 l -0.75214,-2.160686 q 1.35385,-0.505984 2.653,-0.738463 1.29914,-0.246154 2.40684,-0.246154 2.89915,0 4.32137,1.285472 1.4359,1.285471 1.4359,3.55556 z m -6.26326,1.654702 q 0.92992,0 1.81881,-0.492308 0.88889,-0.492308 1.4359,-1.381198 v -3.186329 h -1.69573 q -2.16069,0 -3.0906,0.724787 -0.92992,0.711112 -0.92992,1.969233 0,2.365815 2.46154,2.365815 z" id="path37296"/><path d="m 664.89254,90.2943 v -2.188037 h 2.11966 V 78.027618 h -2.11966 v -2.174362 h 4.45812 l 0.56069,3.350432 q 0.80684,-1.818806 1.99658,-2.762397 1.20342,-0.957266 3.0906,-0.957266 0.64274,0 1.14872,0.109402 0.51966,0.09573 1.02565,0.259829 l -0.51966,5.319665 h -2.18804 v -2.940174 q -1.53163,0.0547 -2.63932,1.23077 -1.10769,1.162395 -1.75043,3.282056 v 5.36069 h 2.91282 V 90.2943 Z" id="path37298"/><path d="m 680.09946,95.299435 v -2.529918 h 13.67523 v 2.529918 z" id="path37300"/><path d="m 702.82769,88.311392 q 1.4359,0 2.28377,-0.505984 0.84786,-0.519658 0.84786,-1.422224 0,-0.588035 -0.24615,-0.998292 -0.24616,-0.410257 -0.98462,-0.765813 -0.73846,-0.355556 -2.24274,-0.738462 -1.42222,-0.369231 -2.50257,-0.875215 -1.06666,-0.505983 -1.6547,-1.312822 -0.58803,-0.806839 -0.58803,-2.078635 0,-1.859831 1.5453,-2.994876 1.55897,-1.148719 4.22564,-1.148719 1.81881,0 3.17266,0.478633 1.35384,0.478633 2.31111,1.189745 l -1.28547,1.928208 q -0.84787,-0.560685 -1.85983,-0.916241 -0.99829,-0.355556 -2.25642,-0.355556 -1.46325,0 -2.10598,0.437608 -0.62906,0.437607 -0.62906,1.162394 0,0.547009 0.31453,0.902565 0.3282,0.355556 1.12137,0.670087 0.79316,0.31453 2.24274,0.711112 1.40854,0.382906 2.44786,0.902565 1.05299,0.519659 1.62735,1.381198 0.58804,0.847865 0.58804,2.215388 0,1.558976 -0.90257,2.557268 -0.90256,0.984617 -2.35214,1.46325 -1.44957,0.464958 -3.11795,0.464958 -2.01026,0 -3.47351,-0.57436 -1.46325,-0.588035 -2.46154,-1.46325 l 1.62735,-1.859831 q 0.84787,0.683761 1.94189,1.121369 1.09402,0.423932 2.36581,0.423932 z" id="path37302"/><path d="m 719.75763,71.039575 q 3.17265,0 4.8,2.557268 1.62736,2.557269 1.62736,7.234197 0,4.70428 -1.62736,7.275223 -1.62735,2.557269 -4.8,2.557269 -3.17265,0 -4.80001,-2.557269 -1.62735,-2.570943 -1.62735,-7.275223 0,-4.676928 1.62735,-7.234197 1.62736,-2.557268 4.80001,-2.557268 z m 0,2.338465 q -1.62735,0 -2.50257,1.736754 -0.87521,1.723079 -0.87521,5.716246 0,2.912825 0.35555,4.540177 l 5.33334,-10.885484 q -0.39658,-0.588035 -0.97094,-0.847864 -0.57436,-0.259829 -1.34017,-0.259829 z m 3.37778,7.453 q 0,-2.611969 -0.28718,-4.170945 l -5.26496,10.748732 q 0.73846,0.91624 2.17436,0.91624 1.64103,0 2.50257,-1.723079 0.87521,-1.723079 0.87521,-5.770948 z" id="path37304"/><path d="m 739.62774,67.921622 v 25.600033 h -7.453 v -2.420516 h 4.56753 v -20.73165 h -4.56753 v -2.447867 z" id="path37306"/><path d="m 754.20554,71.422482 -0.35556,12.376084 h -2.59829 l -0.38291,-12.376084 z m -1.64103,15.097455 q 0.87521,0 1.47693,0.615385 0.60171,0.60171 0.60171,1.449574 0,0.86154 -0.60171,1.476925 -0.60172,0.601711 -1.47693,0.601711 -0.87521,0 -1.47692,-0.601711 -0.58804,-0.615385 -0.58804,-1.476925 0,-0.847864 0.58804,-1.449574 0.60171,-0.615385 1.47692,-0.615385 z" id="path37308"/><path d="m 36.966485,104.75586 1.066668,18.87181 h -2.899149 l -0.451283,-9.18975 q -0.09573,-2.06496 -0.08205,-3.85642 0.01367,-1.80513 0.06838,-3.0359 l -2.776072,12.75899 H 29.130578 L 26.149377,107.5456 q 0.08205,1.17607 0.109402,3.06325 0.04103,1.88719 -0.02735,3.85642 l -0.369232,9.1624 h -2.844448 l 1.066668,-18.87181 h 3.801714 l 2.694021,12.64958 2.570943,-12.64958 z" id="path37310"/><path d="m 54.115237,114.19176 q 0,2.91283 -0.806839,5.12822 -0.806838,2.20171 -2.40684,3.44615 -1.600002,1.23078 -3.965817,1.23078 -2.365815,0 -3.965817,-1.20342 -1.600002,-1.20343 -2.406841,-3.40514 -0.806838,-2.20171 -0.806838,-5.16923 0,-2.91283 0.806838,-5.12822 0.806839,-2.21538 2.406841,-3.45983 1.600002,-1.25812 3.965817,-1.25812 2.365815,0 3.965817,1.21709 1.600002,1.2171 2.40684,3.43249 0.806839,2.20171 0.806839,5.16923 z m -3.282055,0 q 0,-3.66496 -0.902566,-5.49744 -0.902565,-1.84615 -2.994875,-1.84615 -2.09231,0 -2.994876,1.85983 -0.902565,1.84615 -0.902565,5.51112 0,3.65128 0.929916,5.48376 0.929915,1.81881 2.967525,1.81881 2.09231,0 2.994875,-1.83248 0.902566,-1.84616 0.902566,-5.49745 z" id="path37312"/><path d="m 63.414407,120.61912 4.512826,-15.86326 h 3.213679 l -5.976076,18.87181 h -3.637611 l -5.976076,-18.87181 h 3.391457 z" id="path37314"/><path d="m 285.92427,104.75586 h 3.51453 l 3.65129,6.79659 3.69231,-6.79659 h 3.37778 l -5.22394,8.67009 5.7983,10.20172 h -3.51453 l -4.18462,-8.02736 -4.1983,8.02736 h -3.39146 l 5.71625,-10.05129 z" id="path37316"/><path d="m 308.73455,104.37295 q 1.91454,0 3.25471,0.72479 1.34017,0.71111 2.03761,1.9282 0.71111,1.20342 0.71111,2.68035 0,1.24445 -0.43761,2.43419 -0.42393,1.17607 -1.3812,2.48889 -0.94359,1.29915 -2.50256,2.89915 -1.55898,1.58633 -3.81539,3.63761 h 8.57437 l -0.35556,2.46154 h -11.73335 v -2.32478 q 2.5436,-2.44787 4.18462,-4.15728 1.65471,-1.7094 2.58462,-2.95385 0.94359,-1.24444 1.3265,-2.24273 0.38291,-1.01197 0.38291,-2.05129 0,-1.42222 -0.80684,-2.24274 -0.80684,-0.82051 -2.24274,-0.82051 -1.2718,0 -2.13334,0.46496 -0.84786,0.46496 -1.68205,1.50427 l -1.99658,-1.51795 q 1.10769,-1.40855 2.54359,-2.16068 1.4359,-0.75214 3.48718,-0.75214 z" id="path37318"/><path d="m 325.69187,104.4003 q 3.22736,0 4.84103,2.09231 1.61368,2.07864 1.61368,5.55214 0,2.80343 -0.62906,4.82736 -0.61539,2.01026 -1.91453,3.41881 -1.28547,1.40855 -3.29573,2.36581 -1.99659,0.95727 -4.77266,1.64103 l -0.67009,-2.24274 q 3.71967,-0.99829 5.6889,-2.62564 1.96923,-1.64103 2.33846,-4.56753 -0.83418,0.90257 -1.85983,1.44958 -1.02564,0.54701 -2.36581,0.54701 -1.5453,0 -2.7624,-0.72479 -1.20342,-0.73846 -1.91453,-2.09231 -0.69744,-1.35385 -0.69744,-3.21368 0,-2.03761 0.84787,-3.47351 0.84786,-1.4359 2.29744,-2.18804 1.46325,-0.76581 3.2547,-0.76581 z m -3.28205,6.42736 q 0,1.99658 0.82051,2.8718 0.83419,0.87521 2.20171,0.87521 1.08034,0 1.92821,-0.50598 0.84786,-0.50599 1.61368,-1.40855 -0.0137,-3.15898 -0.76582,-4.54018 -0.73846,-1.39487 -2.52991,-1.39487 -1.58633,0 -2.4342,1.02564 -0.83418,1.02564 -0.83418,3.07693 z" id="path37320"/><path d="m 342.32095,118.70459 q 1.08035,0 1.79146,0.72479 0.71111,0.71111 0.71111,1.75043 0,0.61538 -0.19145,1.23077 -0.17778,0.61538 -0.58804,1.53162 l -2.11966,4.84104 h -2.37949 l 1.34017,-5.55215 q -1.03931,-0.69743 -1.03931,-2.06496 0,-1.02564 0.71111,-1.73675 0.71111,-0.72479 1.7641,-0.72479 z" id="path37322"/><path d="m 381.93813,118.29433 q 0,1.68206 -0.86154,2.96753 -0.84786,1.28547 -2.46154,2.01026 -1.6,0.72479 -3.87009,0.72479 -2.31112,0 -4.03419,-0.68377 -1.72308,-0.68376 -2.91283,-1.84615 l 1.73676,-1.94188 q 0.99829,0.92991 2.27008,1.44957 1.2718,0.51966 2.9265,0.51966 1.60001,0 2.74872,-0.75214 1.1624,-0.76581 1.1624,-2.29744 0,-0.82051 -0.34188,-1.39487 -0.34188,-0.58804 -1.18975,-1.03932 -0.83419,-0.46496 -2.33846,-0.91624 -2.99488,-0.88889 -4.54018,-2.14701 -1.5453,-1.25812 -1.5453,-3.47351 0,-1.53163 0.83419,-2.68034 0.84786,-1.14872 2.31111,-1.77778 1.47693,-0.64274 3.33676,-0.64274 2.05129,0 3.58291,0.60171 1.53163,0.58803 2.73505,1.66838 l -1.66838,1.88718 q -0.99829,-0.86154 -2.14701,-1.25812 -1.13505,-0.41026 -2.31112,-0.41026 -1.44957,0 -2.43419,0.61539 -0.98461,0.60171 -0.98461,1.8188 0,0.73846 0.39658,1.25812 0.41025,0.50599 1.36752,0.95727 0.97094,0.43761 2.653,0.94359 1.58632,0.46496 2.84444,1.14872 1.2718,0.68376 1.99659,1.80513 0.73846,1.10769 0.73846,2.88547 z" id="path37324"/><path d="m 398.78602,110.67723 q 0,2.20171 -0.9436,3.58291 -0.94359,1.36752 -2.61196,2.01026 -1.65471,0.62906 -3.81539,0.62906 h -2.28377 v 6.72821 h -3.17265 v -18.87181 h 5.23761 q 3.55556,0 5.56582,1.46325 2.02394,1.44957 2.02394,4.45812 z m -3.33676,0.0274 q 0,-1.94188 -1.10769,-2.74872 -1.09402,-0.82051 -2.94018,-0.82051 h -2.27009 v 7.34359 h 2.31112 q 1.77778,0 2.88547,-0.82051 1.12137,-0.82051 1.12137,-2.95385 z" id="path37326"/><path d="m 33.834857,152.42087 h -6.741889 l -1.312822,4.54018 h -3.227355 l 6.003427,-18.87182 h 3.938466 l 6.017102,18.87182 h -3.364107 z m -6.085478,-2.44786 h 5.415392 l -2.694021,-9.42224 z" id="path37328"/><path d="m 54.074211,147.42941 q 0,2.9265 -0.765813,4.80001 -0.765812,1.87351 -2.037609,2.89915 -1.271796,1.02564 -2.830773,1.4359 -1.558976,0.39658 -3.131628,0.39658 H 40.68616 v -18.87182 h 4.307698 q 1.723079,0 3.336756,0.36923 1.627353,0.36923 2.912825,1.36752 1.299147,0.98462 2.064959,2.83078 0.765813,1.83248 0.765813,4.77265 z m -3.336756,0 q 0,-2.25641 -0.451283,-3.62393 -0.437607,-1.36753 -1.176069,-2.07864 -0.738463,-0.71111 -1.654703,-0.95727 -0.916241,-0.24615 -1.859832,-0.24615 h -1.736754 v 14.03079 h 1.750429 q 0.984617,0 1.900858,-0.31453 0.91624,-0.31453 1.641027,-1.09402 0.738463,-0.77949 1.162395,-2.16069 0.423932,-1.39487 0.423932,-3.55556 z" id="path37330"/><path d="m 70.087919,143.54565 q 0,2.09231 -1.244446,3.37778 -1.244446,1.28547 -3.049576,1.8188 l 5.347015,8.21882 H 67.4486 l -4.745305,-7.76753 h -2.06496 v 7.76753 h -3.172654 v -18.87182 h 5.264964 q 3.623936,0 5.483768,1.36752 1.873506,1.35385 1.873506,4.0889 z m -3.323081,0 q 0,-1.64103 -0.957266,-2.36582 -0.957266,-0.73846 -2.899149,-0.73846 h -2.270088 v 6.42736 h 2.338464 q 1.805131,0 2.789747,-0.76582 0.998292,-0.77948 0.998292,-2.55726 z" id="path37332"/><path d="m 74.819562,156.96105 v -18.87182 h 3.172654 v 16.21882 h 8.451292 l -0.34188,2.653 z" id="path37334"/><path d="m 285.92427,138.08923 h 3.51453 l 3.65129,6.79659 3.69231,-6.79659 h 3.37778 l -5.22394,8.6701 5.7983,10.20172 h -3.51453 l -4.18462,-8.02736 -4.1983,8.02736 h -3.39146 l 5.71625,-10.0513 z" id="path37336"/><path d="m 309.50037,137.70632 q 3.17265,0 4.8,2.55727 1.62735,2.55727 1.62735,7.2342 0,4.70428 -1.62735,7.27522 -1.62735,2.55727 -4.8,2.55727 -3.17266,0 -4.80001,-2.55727 -1.62735,-2.57094 -1.62735,-7.27522 0,-4.67693 1.62735,-7.2342 1.62735,-2.55727 4.80001,-2.55727 z m 0,2.33847 q -1.62736,0 -2.50257,1.73675 -0.87522,1.72308 -0.87522,5.71625 0,2.91282 0.35556,4.54018 l 5.33334,-10.88549 q -0.39658,-0.58803 -0.97094,-0.84786 -0.57436,-0.25983 -1.34017,-0.25983 z m 3.37778,7.453 q 0,-2.61197 -0.28718,-4.17095 l -5.26497,10.74873 q 0.73847,0.91625 2.17437,0.91625 1.64102,0 2.50256,-1.72308 0.87522,-1.72308 0.87522,-5.77095 z" id="path37338"/><path d="m 325.91067,152.03797 q 1.08035,0 1.79146,0.72478 0.71111,0.71111 0.71111,1.75043 0,0.61539 -0.19145,1.23077 -0.17778,0.61539 -0.58804,1.53163 l -2.11966,4.84103 h -2.37949 l 1.34018,-5.55214 q -1.03932,-0.69744 -1.03932,-2.06496 0,-1.02565 0.71111,-1.73676 0.71111,-0.72478 1.7641,-0.72478 z" id="path37340"/><path d="m 363.99623,153.41916 q 0,0.86154 0.25982,1.24445 0.25983,0.38291 0.83419,0.57436 l -0.68376,2.07863 q -1.06667,-0.12307 -1.84615,-0.58803 -0.76582,-0.46496 -1.14872,-1.40855 -0.79317,1.01197 -2.01026,1.51795 -1.2171,0.49231 -2.5983,0.49231 -2.20171,0 -3.4735,-1.23077 -1.2718,-1.24445 -1.2718,-3.25471 0,-2.28376 1.77778,-3.51453 1.77778,-1.23077 5.08718,-1.23077 h 2.06496 v -0.94359 q 0,-1.40855 -0.84786,-2.01026 -0.84786,-0.61539 -2.36581,-0.61539 -0.71112,0 -1.72308,0.19146 -1.01197,0.17777 -2.11966,0.56068 l -0.75214,-2.16069 q 1.35385,-0.50598 2.65299,-0.73846 1.29915,-0.24615 2.40684,-0.24615 2.89915,0 4.32138,1.28547 1.4359,1.28547 1.4359,3.55556 z m -6.26326,1.65471 q 0.92992,0 1.81881,-0.49231 0.88889,-0.49231 1.43589,-1.3812 v -3.18633 h -1.69572 q -2.16069,0 -3.09061,0.72479 -0.92991,0.71111 -0.92991,1.96923 0,2.36582 2.46154,2.36582 z" id="path37342"/><path d="m 378.21847,156.96105 v -8.57437 h -6.15386 v 8.57437 h -3.17265 v -18.87182 h 3.17265 v 7.68548 h 6.15386 v -7.68548 h 3.17265 v 18.87182 z" id="path37344"/><path d="m 391.56549,142.1371 q 3.17266,0 4.84104,2.06496 1.66837,2.06496 1.66837,5.51112 0,2.29743 -0.76581,4.00684 -0.75214,1.7094 -2.21539,2.66667 -1.44957,0.94359 -3.54188,0.94359 -3.15898,0 -4.84103,-2.03761 -1.68206,-2.05128 -1.68206,-5.55214 0,-2.24274 0.75214,-3.95215 0.76581,-1.72307 2.22906,-2.68034 1.46325,-0.97094 3.55556,-0.97094 z m 0,2.37949 q -1.6547,0 -2.48889,1.27179 -0.83419,1.25813 -0.83419,3.95215 0,2.69402 0.82052,3.96581 0.83419,1.25812 2.48889,1.25812 1.6547,0 2.47522,-1.27179 0.83418,-1.2718 0.83418,-3.97949 0,-2.66667 -0.82051,-3.9248 -0.82051,-1.27179 -2.47522,-1.27179 z" id="path37346"/><path d="m 407.9758,142.1371 q 3.17266,0 4.84103,2.06496 1.66838,2.06496 1.66838,5.51112 0,2.29743 -0.76581,4.00684 -0.75214,1.7094 -2.21539,2.66667 -1.44957,0.94359 -3.54188,0.94359 -3.15898,0 -4.84103,-2.03761 -1.68206,-2.05128 -1.68206,-5.55214 0,-2.24274 0.75214,-3.95215 0.76581,-1.72307 2.22906,-2.68034 1.46325,-0.97094 3.55556,-0.97094 z m 0,2.37949 q -1.6547,0 -2.48889,1.27179 -0.83419,1.25813 -0.83419,3.95215 0,2.69402 0.82052,3.96581 0.83418,1.25812 2.48889,1.25812 1.6547,0 2.47521,-1.27179 0.83419,-1.2718 0.83419,-3.97949 0,-2.66667 -0.82051,-3.9248 -0.82051,-1.27179 -2.47522,-1.27179 z" id="path37348"/><path d="m 421.76044,136.37983 v 20.58122 h -3.06326 v -20.23934 z m 9.55898,6.14017 -5.83932,6.45471 6.45471,7.98634 h -3.74702 l -6.20855,-7.90429 5.77095,-6.53676 z" id="path37350"/><path d="m 447.22372,138.08923 1.06667,18.87182 h -2.89915 l -0.45129,-9.18976 q -0.0957,-2.06496 -0.0821,-3.85641 0.0137,-1.80513 0.0684,-3.0359 l -2.77607,12.75899 h -2.7624 l -2.9812,-12.75899 q 0.082,1.17607 0.1094,3.06325 0.041,1.88718 -0.0274,3.85641 l -0.36923,9.16241 h -2.84445 l 1.06667,-18.87182 h 3.80171 l 2.69402,12.64959 2.57095,-12.64959 z" id="path37352"/><path d="m 453.96564,150.72514 q 0.13675,2.22907 1.24444,3.22736 1.12137,0.99829 2.69402,0.99829 1.053,0 1.95556,-0.32821 0.91624,-0.3282 1.83248,-0.92991 l 1.3265,1.83248 q -1.01197,0.82051 -2.36581,1.31282 -1.35385,0.49231 -2.89915,0.49231 -2.25642,0 -3.81539,-0.95727 -1.5453,-0.95726 -2.35214,-2.66667 -0.79317,-1.7094 -0.79317,-3.95214 0,-2.17436 0.79317,-3.88376 0.79316,-1.72308 2.27009,-2.72137 1.47692,-1.01197 3.52821,-1.01197 2.87179,0 4.54017,1.92821 1.68206,1.9282 1.68206,5.29231 0,0.36923 -0.0273,0.73846 -0.0137,0.35556 -0.041,0.62906 z m 3.44616,-6.31795 q -1.4359,0 -2.37949,1.02564 -0.94359,1.02564 -1.08035,3.2 h 6.68719 q -0.041,-2.03761 -0.87521,-3.13163 -0.82052,-1.09401 -2.35214,-1.09401 z" id="path37354"/><path d="m 466.76566,161.96618 v -2.52991 h 13.67523 v 2.52991 z" id="path37356"/><path d="m 490.01355,137.70632 q 3.17265,0 4.80001,2.55727 1.62735,2.55727 1.62735,7.2342 0,4.70428 -1.62735,7.27522 -1.62736,2.55727 -4.80001,2.55727 -3.17265,0 -4.80001,-2.55727 -1.62735,-2.57094 -1.62735,-7.27522 0,-4.67693 1.62735,-7.2342 1.62736,-2.55727 4.80001,-2.55727 z m 0,2.33847 q -1.62735,0 -2.50257,1.73675 -0.87521,1.72308 -0.87521,5.71625 0,2.91282 0.35555,4.54018 l 5.33334,-10.88549 q -0.39658,-0.58803 -0.97094,-0.84786 -0.57436,-0.25983 -1.34017,-0.25983 z m 3.37778,7.453 q 0,-2.61197 -0.28718,-4.17095 l -5.26496,10.74873 q 0.73846,0.91625 2.17436,0.91625 1.64103,0 2.50257,-1.72308 0.87521,-1.72308 0.87521,-5.77095 z" id="path37358"/><path d="m 522.82046,142.69778 q 1.03932,0 1.75043,0.72479 0.71111,0.71111 0.71111,1.72308 0,1.01197 -0.71111,1.75043 -0.71111,0.72479 -1.75043,0.72479 -1.03932,0 -1.75043,-0.72479 -0.71111,-0.73846 -0.71111,-1.75043 0,-1.01197 0.71111,-1.72308 0.71111,-0.72479 1.75043,-0.72479 z m 0,9.40856 q 1.05299,0 1.75043,0.71111 0.71111,0.71112 0.71111,1.73676 0,0.60171 -0.19145,1.21709 -0.17778,0.61539 -0.57436,1.50428 l -2.09231,4.78633 h -2.35214 l 1.31282,-5.48377 q -1.02564,-0.71111 -1.02564,-2.03761 0,-1.01196 0.71111,-1.72308 0.71111,-0.71111 1.75043,-0.71111 z" id="path37360"/><path d="m 552.03079,144.03796 -0.46496,-7.31625 h 3.33676 l -0.45129,7.31625 z m 4.82735,0 -0.46495,-7.31625 h 3.35043 l -0.46496,7.31625 z" id="path37362"/><path d="m 569.35731,136.42085 v 7.86326 q 0.87521,-1.06667 2.03761,-1.6 1.17607,-0.54701 2.43419,-0.54701 2.03761,0 3.0359,1.13504 0.99829,1.13505 0.99829,3.15898 v 10.52993 h -3.06325 v -10.0513 q 0,-1.29914 -0.49231,-1.85983 -0.49231,-0.57436 -1.58633,-0.57436 -1.02564,0 -1.90085,0.67009 -0.87522,0.65641 -1.46325,1.4906 v 10.3248 h -3.06326 v -20.21199 z" id="path37364"/><path d="m 588.48896,142.1371 q 3.17265,0 4.84103,2.06496 1.66838,2.06496 1.66838,5.51112 0,2.29743 -0.76582,4.00684 -0.75214,1.7094 -2.21539,2.66667 -1.44957,0.94359 -3.54188,0.94359 -3.15898,0 -4.84103,-2.03761 -1.68205,-2.05128 -1.68205,-5.55214 0,-2.24274 0.75213,-3.95215 0.76582,-1.72307 2.22907,-2.68034 1.46325,-0.97094 3.55556,-0.97094 z m 0,2.37949 q -1.65471,0 -2.4889,1.27179 -0.83419,1.25813 -0.83419,3.95215 0,2.69402 0.82052,3.96581 0.83419,1.25812 2.48889,1.25812 1.6547,0 2.47522,-1.27179 0.83419,-1.2718 0.83419,-3.97949 0,-2.66667 -0.82052,-3.9248 -0.82051,-1.27179 -2.47521,-1.27179 z" id="path37366"/><path d="m 604.89929,142.1371 q 3.17266,0 4.84104,2.06496 1.66837,2.06496 1.66837,5.51112 0,2.29743 -0.76581,4.00684 -0.75214,1.7094 -2.21539,2.66667 -1.44957,0.94359 -3.54188,0.94359 -3.15898,0 -4.84103,-2.03761 -1.68206,-2.05128 -1.68206,-5.55214 0,-2.24274 0.75214,-3.95215 0.76582,-1.72307 2.22906,-2.68034 1.46325,-0.97094 3.55556,-0.97094 z m 0,2.37949 q -1.6547,0 -2.48889,1.27179 -0.83419,1.25813 -0.83419,3.95215 0,2.69402 0.82052,3.96581 0.83419,1.25812 2.48889,1.25812 1.6547,0 2.47522,-1.27179 0.83419,-1.2718 0.83419,-3.97949 0,-2.66667 -0.82052,-3.9248 -0.82051,-1.27179 -2.47522,-1.27179 z" id="path37368"/><path d="m 618.68393,136.37983 v 20.58122 h -3.06325 v -20.23934 z m 9.55899,6.14017 -5.83933,6.45471 6.45471,7.98634 h -3.74701 l -6.20856,-7.90429 5.77095,-6.53676 z" id="path37370"/><path d="m 630.86856,161.96618 v -2.52991 h 13.67523 v 2.52991 z" id="path37372"/><path d="m 658.30108,142.1371 q 0.82051,0 1.47692,0.35555 0.65641,0.35556 1.02564,1.25813 0.38291,0.88889 0.38291,2.47521 v 10.73506 h -2.72137 v -10.31113 q 0,-1.13504 -0.1641,-1.62735 -0.15043,-0.49231 -0.80684,-0.49231 -0.51966,0 -1.06667,0.32821 -0.53334,0.31453 -1.06667,1.09402 v 11.00856 h -2.47522 v -10.31113 q 0,-1.13504 -0.1641,-1.62735 -0.15043,-0.49231 -0.80684,-0.49231 -0.53333,0 -1.06667,0.32821 -0.53333,0.31453 -1.06666,1.09402 v 11.00856 h -2.73505 V 142.52 h 2.31111 l 0.20513,1.55898 q 0.61539,-0.86154 1.3265,-1.39487 0.72479,-0.54701 1.7641,-0.54701 0.82052,0 1.4906,0.41025 0.67009,0.39659 0.98462,1.4359 0.61539,-0.82051 1.36752,-1.32649 0.75214,-0.51966 1.80514,-0.51966 z" id="path37374"/><path d="m 667.29938,150.72514 q 0.13675,2.22907 1.24444,3.22736 1.12137,0.99829 2.69402,0.99829 1.053,0 1.95556,-0.32821 0.91624,-0.3282 1.83248,-0.92991 l 1.3265,1.83248 q -1.01197,0.82051 -2.36581,1.31282 -1.35385,0.49231 -2.89915,0.49231 -2.25642,0 -3.81539,-0.95727 -1.5453,-0.95726 -2.35214,-2.66667 -0.79317,-1.7094 -0.79317,-3.95214 0,-2.17436 0.79317,-3.88376 0.79316,-1.72308 2.27009,-2.72137 1.47692,-1.01197 3.52821,-1.01197 2.87179,0 4.54017,1.92821 1.68206,1.9282 1.68206,5.29231 0,0.36923 -0.0274,0.73846 -0.0137,0.35556 -0.041,0.62906 z m 3.44616,-6.31795 q -1.4359,0 -2.37949,1.02564 -0.94359,1.02564 -1.08035,3.2 h 6.68719 q -0.041,-2.03761 -0.87521,-3.13163 -0.82052,-1.09401 -2.35214,-1.09401 z" id="path37376"/><path d="m 685.04989,147.38839 q 0,2.62564 0.57436,4.60855 0.58803,1.98291 1.81881,3.71966 1.24444,1.73676 3.2,3.61026 l -1.69573,1.64103 q -2.20171,-1.8188 -3.78804,-3.78804 -1.57265,-1.96923 -2.42051,-4.33505 -0.84787,-2.37949 -0.84787,-5.45641 0,-3.07693 0.84787,-5.44275 0.84786,-2.37949 2.42051,-4.34872 1.58633,-1.96923 3.78804,-3.78804 l 1.69573,1.64103 q -1.91453,1.84616 -3.15898,3.58291 -1.24444,1.72308 -1.84615,3.71966 -0.58804,1.99659 -0.58804,4.63591 z" id="path37378"/><path d="m 705.23453,147.38839 q 0,-2.63932 -0.60171,-4.63591 -0.58803,-1.99658 -1.83248,-3.71966 -1.24444,-1.73675 -3.15898,-3.58291 l 1.69573,-1.64103 q 2.20171,1.81881 3.77437,3.78804 1.58632,1.96923 2.43419,4.34872 0.84786,2.36582 0.84786,5.44275 0,3.07692 -0.84786,5.45641 -0.84787,2.36582 -2.43419,4.33505 -1.57266,1.96924 -3.77437,3.78804 l -1.69573,-1.64103 q 1.95556,-1.8735 3.18633,-3.61026 1.24445,-1.73675 1.81881,-3.71966 0.58803,-1.98291 0.58803,-4.60855 z" id="path37380"/><path d="m 716.13369,144.03796 -0.46496,-7.31625 h 3.33676 l -0.45128,7.31625 z m 4.82736,0 -0.46496,-7.31625 h 3.35043 l -0.46495,7.31625 z" id="path37382"/><path d="m 37.404092,184.85168 q 0,1.57265 -0.615385,2.62564 -0.615386,1.053 -1.668378,1.68206 -1.052993,0.61538 -2.365815,0.87521 -1.299147,0.25983 -2.694021,0.25983 H 24.5357 V 171.4226 h 5.155562 q 1.326497,0 2.557268,0.23248 1.230771,0.23248 2.201712,0.77949 0.984617,0.53333 1.558977,1.46325 0.574359,0.91624 0.574359,2.29744 0,1.18974 -0.492308,2.02393 -0.492308,0.83419 -1.299147,1.35385 -0.793163,0.50598 -1.695729,0.72479 1.025643,0.17778 2.010259,0.65641 0.998292,0.46496 1.641028,1.40855 0.656411,0.92991 0.656411,2.48889 z m -4.034193,-8.39659 q 0,-1.42223 -0.88889,-2.03761 -0.88889,-0.61539 -2.502567,-0.61539 h -2.270089 v 5.45642 h 2.461542 q 1.586327,0 2.393165,-0.65641 0.806839,-0.67009 0.806839,-2.14701 z m 0.724787,8.38292 q 0,-1.25813 -0.492308,-1.95556 -0.492308,-0.71111 -1.326497,-0.98462 -0.834189,-0.28718 -1.873507,-0.28718 h -2.694021 v 6.22223 h 2.557269 q 0.902565,0 1.77778,-0.2188 0.88889,-0.23248 1.463249,-0.87522 0.588035,-0.64273 0.588035,-1.90085 z" id="path37384"/><path d="M 41.998982,190.29442 V 171.4226 h 3.172654 v 16.21883 h 8.451293 l -0.341881,2.65299 z" id="path37386"/><path d="m 290.43709,188.01066 q 0,-1.09402 0.75214,-1.85983 0.76581,-0.77949 1.88718,-0.77949 1.12137,0 1.88718,0.77949 0.76582,0.76581 0.76582,1.85983 0,1.09402 -0.76582,1.87351 -0.76581,0.77948 -1.88718,0.77948 -1.12137,0 -1.88718,-0.77948 -0.75214,-0.77949 -0.75214,-1.87351 z" id="path37388"/><path d="m 310.77216,175.47047 q 1.91453,0 3.06325,0.94359 1.14872,0.92992 1.66838,2.63932 0.51966,1.69573 0.51966,3.99317 0,2.20171 -0.62906,3.92479 -0.62906,1.72308 -1.87351,2.7077 -1.23077,0.98461 -3.06325,0.98461 -2.27009,0 -3.66496,-1.6 v 6.78292 l -3.06325,0.34188 v -20.33507 h 2.66667 l 0.19145,1.85983 q 0.82052,-1.10769 1.90086,-1.66838 1.08034,-0.57436 2.28376,-0.57436 z m -0.84786,2.36582 q -1.02564,0 -1.81881,0.61538 -0.77949,0.61539 -1.31282,1.44958 v 6.75556 q 1.08034,1.61368 2.85812,1.61368 1.5453,0 2.35214,-1.24445 0.80684,-1.24444 0.80684,-3.96581 0,-2.77608 -0.72479,-3.99317 -0.71111,-1.23077 -2.16068,-1.23077 z" id="path37390"/><path d="m 323.20298,175.85338 v 10.09232 q 0,1.28547 0.50598,1.83248 0.51966,0.54701 1.55898,0.54701 0.98462,0 1.90086,-0.58804 0.91624,-0.58803 1.44957,-1.4359 v -10.44787 h 3.06325 v 14.44104 h -2.63932 l -0.19145,-1.84615 q -0.80684,1.08034 -2.03761,1.6547 -1.23077,0.56068 -2.51624,0.56068 -2.10599,0 -3.13163,-1.14872 -1.02564,-1.16239 -1.02564,-3.18632 v -10.47523 z" id="path37392"/><path d="m 348.61156,189.52861 q -0.79316,0.50598 -1.90086,0.82051 -1.10769,0.31453 -2.31111,0.31453 -2.51624,0 -3.82907,-1.29914 -1.29914,-1.31283 -1.29914,-3.44616 v -7.83591 h -3.21368 v -2.22906 h 3.21368 v -3.22736 l 3.06325,-0.36923 v 3.59659 h 4.86838 l -0.34188,2.22906 h -4.5265 v 7.80856 q 0,1.16239 0.57436,1.73675 0.58803,0.56069 1.91453,0.56069 0.79316,0 1.44957,-0.19146 0.67009,-0.19145 1.23078,-0.4923 z" id="path37394"/><path d="m 358.2116,188.31151 q 1.4359,0 2.28377,-0.50598 0.84786,-0.51966 0.84786,-1.42222 0,-0.58804 -0.24615,-0.9983 -0.24616,-0.41025 -0.98462,-0.76581 -0.73846,-0.35555 -2.24274,-0.73846 -1.42222,-0.36923 -2.50257,-0.87522 -1.06666,-0.50598 -1.6547,-1.31282 -0.58803,-0.80684 -0.58803,-2.07863 0,-1.85983 1.5453,-2.99488 1.55897,-1.14872 4.22564,-1.14872 1.81881,0 3.17266,0.47864 1.35385,0.47863 2.31111,1.18974 l -1.28547,1.92821 q -0.84786,-0.56069 -1.85983,-0.91624 -0.99829,-0.35556 -2.25641,-0.35556 -1.46325,0 -2.10599,0.43761 -0.62906,0.43761 -0.62906,1.16239 0,0.54701 0.31453,0.90257 0.32821,0.35555 1.12137,0.67008 0.79316,0.31454 2.24274,0.71112 1.40855,0.3829 2.44786,0.90256 1.053,0.51966 1.62736,1.3812 0.58803,0.84786 0.58803,2.21539 0,1.55897 -0.90256,2.55727 -0.90257,0.98461 -2.35214,1.46325 -1.44958,0.46495 -3.11796,0.46495 -2.01026,0 -3.47351,-0.57436 -1.46325,-0.58803 -2.46154,-1.46325 l 1.62736,-1.85983 q 0.84786,0.68376 1.94188,1.12137 1.09402,0.42393 2.36581,0.42393 z" id="path37396"/><path d="m 36.966485,204.75598 1.066668,18.87182 h -2.899149 l -0.451283,-9.18976 q -0.09573,-2.06496 -0.08205,-3.85641 0.01367,-1.80513 0.06838,-3.03591 l -2.776072,12.759 h -2.762396 l -2.981201,-12.759 q 0.08205,1.17607 0.109402,3.06326 0.04103,1.88718 -0.02735,3.85641 l -0.369232,9.16241 h -2.844448 l 1.066668,-18.87182 h 3.801714 l 2.694021,12.64959 2.570943,-12.64959 z" id="path37398"/><path d="m 54.115237,214.19189 q 0,2.91282 -0.806839,5.12821 -0.806838,2.20171 -2.40684,3.44616 -1.600002,1.23077 -3.965817,1.23077 -2.365815,0 -3.965817,-1.20342 -1.600002,-1.20342 -2.406841,-3.40514 -0.806838,-2.20171 -0.806838,-5.16923 0,-2.91283 0.806838,-5.12821 0.806839,-2.21539 2.406841,-3.45984 1.600002,-1.25812 3.965817,-1.25812 2.365815,0 3.965817,1.2171 1.600002,1.21709 2.40684,3.43248 0.806839,2.20171 0.806839,5.16924 z m -3.282055,0 q 0,-3.66496 -0.902566,-5.49745 -0.902565,-1.84615 -2.994875,-1.84615 -2.09231,0 -2.994876,1.85983 -0.902565,1.84616 -0.902565,5.51112 0,3.65128 0.929916,5.48377 0.929915,1.8188 2.967525,1.8188 2.09231,0 2.994875,-1.83248 0.902566,-1.84616 0.902566,-5.49744 z" id="path37400"/><path d="m 63.414407,220.61925 4.512826,-15.86327 h 3.213679 l -5.976076,18.87182 h -3.637611 l -5.976076,-18.87182 h 3.391457 z" id="path37402"/><path d="m 301.24052,204.75598 -2.61196,18.87182 h -3.70599 l -1.85983,-13.96241 -1.92821,13.96241 h -3.78804 l -2.40684,-18.87182 h 3.06325 l 1.4906,15.80856 1.99659,-13.62053 h 3.26838 l 1.88718,13.62053 1.7641,-15.80856 z" id="path37404"/><path d="m 309.50037,204.37307 q 3.17265,0 4.8,2.55727 1.62735,2.55727 1.62735,7.2342 0,4.70428 -1.62735,7.27522 -1.62735,2.55727 -4.8,2.55727 -3.17266,0 -4.80001,-2.55727 -1.62735,-2.57094 -1.62735,-7.27522 0,-4.67693 1.62735,-7.2342 1.62735,-2.55727 4.80001,-2.55727 z m 0,2.33847 q -1.62736,0 -2.50257,1.73675 -0.87522,1.72308 -0.87522,5.71625 0,2.91282 0.35556,4.54017 l 5.33334,-10.88548 q -0.39658,-0.58804 -0.97094,-0.84786 -0.57436,-0.25983 -1.34017,-0.25983 z m 3.37778,7.453 q 0,-2.61197 -0.28718,-4.17095 l -5.26497,10.74873 q 0.73847,0.91624 2.17437,0.91624 1.64102,0 2.50256,-1.72308 0.87522,-1.72308 0.87522,-5.77094 z" id="path37406"/><path d="m 325.91067,218.70471 q 1.08035,0 1.79146,0.72479 0.71111,0.71111 0.71111,1.75043 0,0.61539 -0.19145,1.23077 -0.17778,0.61539 -0.58804,1.53163 l -2.11966,4.84103 h -2.37949 l 1.34018,-5.55215 q -1.03932,-0.69743 -1.03932,-2.06496 0,-1.02564 0.71111,-1.73675 0.71111,-0.72479 1.7641,-0.72479 z" id="path37408"/><path d="m 363.40819,211.25171 -0.76581,5.81198 h 2.02393 v 2.18803 h -2.32479 l -0.56068,4.37608 h -2.57095 l 0.57436,-4.37608 h -3.45983 l -0.57436,4.37608 h -2.57094 l 0.57436,-4.37608 h -1.95556 v -2.18803 h 2.24274 l 0.79316,-5.81198 h -2.02393 V 209.05 h 2.31111 l 0.56069,-4.29402 h 2.58461 l -0.60171,4.29402 h 3.47351 l 0.57436,-4.29402 h 2.57095 l -0.58804,4.29402 h 1.98291 v 2.20171 z m -6.79659,5.81198 h 3.45983 l 0.77949,-5.81198 h -3.47351 z" id="path37410"/><path d="m 381.43215,221.22096 v 2.40684 h -11.41882 v -2.40684 h 4.60855 v -13.31968 l -4.15727,2.55727 -1.31282,-2.14701 5.7983,-3.55556 h 2.70769 v 16.46498 z" id="path37412"/><path d="m 25.588693,256.96117 v -18.87182 h 3.172653 v 16.21883 h 8.451293 l -0.341881,2.65299 z" id="path37414"/><path d="m 54.074211,247.42953 q 0,2.9265 -0.765813,4.80001 -0.765812,1.87351 -2.037609,2.89915 -1.271796,1.02564 -2.830773,1.4359 -1.558976,0.39658 -3.131628,0.39658 H 40.68616 v -18.87182 h 4.307698 q 1.723079,0 3.336756,0.36923 1.627353,0.36923 2.912825,1.36753 1.299147,0.98461 2.064959,2.83077 0.765813,1.83248 0.765813,4.77265 z m -3.336756,0 q 0,-2.25641 -0.451283,-3.62393 -0.437607,-1.36752 -1.176069,-2.07864 -0.738463,-0.71111 -1.654703,-0.95726 -0.916241,-0.24616 -1.859832,-0.24616 h -1.736754 v 14.03079 h 1.750429 q 0.984617,0 1.900858,-0.31453 0.91624,-0.31453 1.641027,-1.09402 0.738463,-0.77949 1.162395,-2.16069 0.423932,-1.39487 0.423932,-3.55556 z" id="path37416"/><path d="m 70.580228,244.01073 q 0,2.20171 -0.943591,3.58291 -0.943591,1.36752 -2.611969,2.01026 -1.654703,0.62906 -3.81539,0.62906 h -2.283763 v 6.72821 h -3.172654 v -18.87182 h 5.237614 q 3.55556,0 5.565819,1.46325 2.023934,1.44958 2.023934,4.45813 z m -3.336757,0.0274 q 0,-1.94189 -1.107693,-2.74872 -1.094019,-0.82052 -2.940175,-0.82052 h -2.270088 v 7.3436 h 2.311114 q 1.77778,0 2.885473,-0.82051 1.121369,-0.82052 1.121369,-2.95385 z" id="path37418"/><path d="m 285.92427,238.08935 h 3.51453 l 3.65129,6.79659 3.69231,-6.79659 h 3.37778 l -5.22394,8.6701 5.7983,10.20172 h -3.51453 l -4.18462,-8.02736 -4.1983,8.02736 h -3.39146 l 5.71625,-10.05129 z" id="path37420"/><path d="m 308.73455,237.70645 q 1.91454,0 3.25471,0.72478 1.34017,0.71111 2.03761,1.92821 0.71111,1.20342 0.71111,2.68035 0,1.24444 -0.43761,2.43419 -0.42393,1.17607 -1.3812,2.48889 -0.94359,1.29915 -2.50256,2.89915 -1.55898,1.58632 -3.81539,3.63761 h 8.57437 l -0.35556,2.46154 h -11.73335 v -2.32479 q 2.5436,-2.44787 4.18462,-4.15727 1.65471,-1.7094 2.58462,-2.95385 0.94359,-1.24444 1.3265,-2.24274 0.38291,-1.01196 0.38291,-2.05128 0,-1.42223 -0.80684,-2.24274 -0.80684,-0.82051 -2.24274,-0.82051 -1.2718,0 -2.13334,0.46495 -0.84786,0.46496 -1.68205,1.50428 l -1.99658,-1.51795 q 1.10769,-1.40855 2.54359,-2.16069 1.4359,-0.75213 3.48718,-0.75213 z" id="path37422"/><path d="m 325.69187,237.7338 q 3.22736,0 4.84103,2.09231 1.61368,2.07863 1.61368,5.55214 0,2.80342 -0.62906,4.82736 -0.61539,2.01026 -1.91453,3.4188 -1.28547,1.40855 -3.29573,2.36582 -1.99659,0.95727 -4.77266,1.64103 l -0.67009,-2.24274 q 3.71967,-0.99829 5.6889,-2.62565 1.96923,-1.64102 2.33846,-4.56752 -0.83418,0.90256 -1.85983,1.44957 -1.02564,0.54701 -2.36581,0.54701 -1.5453,0 -2.7624,-0.72479 -1.20342,-0.73846 -1.91453,-2.09231 -0.69744,-1.35384 -0.69744,-3.21368 0,-2.03761 0.84787,-3.4735 0.84786,-1.4359 2.29744,-2.18804 1.46325,-0.76581 3.2547,-0.76581 z m -3.28205,6.42735 q 0,1.99659 0.82051,2.8718 0.83419,0.87522 2.20171,0.87522 1.08034,0 1.92821,-0.50599 0.84786,-0.50598 1.61368,-1.40854 -0.0137,-3.15898 -0.76582,-4.54018 -0.73846,-1.39488 -2.52991,-1.39488 -1.58633,0 -2.4342,1.02565 -0.83418,1.02564 -0.83418,3.07692 z" id="path37424"/><path d="m 342.32095,252.03809 q 1.08035,0 1.79146,0.72478 0.71111,0.71112 0.71111,1.75043 0,0.61539 -0.19145,1.23077 -0.17778,0.61539 -0.58804,1.53163 l -2.11966,4.84103 h -2.37949 l 1.34017,-5.55214 q -1.03931,-0.69744 -1.03931,-2.06496 0,-1.02564 0.71111,-1.73676 0.71111,-0.72478 1.7641,-0.72478 z" id="path37426"/><path d="m 367.97572,238.08935 h 3.51453 l 3.65129,6.79659 3.69231,-6.79659 h 3.37778 l -5.22393,8.6701 5.79829,10.20172 h -3.51453 l -4.18462,-8.02736 -4.1983,8.02736 h -3.39145 l 5.71624,-10.05129 z" id="path37428"/><path d="m 390.7313,237.70645 q 1.87351,0 3.22736,0.65641 1.35385,0.65641 2.07863,1.73675 0.72479,1.08034 0.72479,2.37949 0,1.75043 -1.08034,2.91283 -1.06667,1.16239 -2.66667,1.53162 1.17607,0.12308 2.16068,0.65641 0.9983,0.53334 1.58633,1.51795 0.60171,0.98462 0.60171,2.47522 0,1.61368 -0.84786,2.9265 -0.84787,1.29915 -2.37949,2.06496 -1.53163,0.76581 -3.61026,0.76581 -1.77778,0 -3.39146,-0.65641 -1.6,-0.65641 -2.72137,-1.98291 l 1.8735,-1.64103 q 0.80684,0.9436 1.87351,1.39488 1.08034,0.45128 2.22906,0.45128 1.75043,0 2.77608,-0.90256 1.02564,-0.91625 1.02564,-2.52992 0,-1.83248 -1.01197,-2.55727 -1.01197,-0.73846 -2.62564,-0.73846 h -1.62736 l 0.35556,-2.25642 h 1.14872 q 1.3265,0 2.31111,-0.72478 0.9983,-0.73847 0.9983,-2.25642 0,-1.36752 -0.9436,-2.10598 -0.92991,-0.75214 -2.31111,-0.75214 -1.18974,0 -2.10599,0.43761 -0.91624,0.4376 -1.80513,1.25812 l -1.62735,-1.73676 q 1.24445,-1.17607 2.69402,-1.75043 1.44958,-0.57435 3.0906,-0.57435 z" id="path37430"/><path d="m 407.96213,237.70645 q 3.17265,0 4.8,2.55726 1.62736,2.55727 1.62736,7.2342 0,4.70428 -1.62736,7.27522 -1.62735,2.55727 -4.8,2.55727 -3.17266,0 -4.80001,-2.55727 -1.62735,-2.57094 -1.62735,-7.27522 0,-4.67693 1.62735,-7.2342 1.62735,-2.55726 4.80001,-2.55726 z m 0,2.33846 q -1.62736,0 -2.50257,1.73675 -0.87521,1.72308 -0.87521,5.71625 0,2.91282 0.35555,4.54018 l 5.33334,-10.88549 q -0.39658,-0.58803 -0.97094,-0.84786 -0.57436,-0.25983 -1.34017,-0.25983 z m 3.37778,7.453 q 0,-2.61197 -0.28718,-4.17094 l -5.26496,10.74873 q 0.73846,0.91624 2.17436,0.91624 1.64102,0 2.50256,-1.72308 0.87522,-1.72308 0.87522,-5.77095 z" id="path37432"/><path d="m 424.37241,252.03809 q 1.08034,0 1.79145,0.72478 0.71111,0.71112 0.71111,1.75043 0,0.61539 -0.19145,1.23077 -0.17778,0.61539 -0.58804,1.53163 l -2.11966,4.84103 h -2.37949 l 1.34018,-5.55214 q -1.03932,-0.69744 -1.03932,-2.06496 0,-1.02564 0.71111,-1.73676 0.71111,-0.72478 1.76411,-0.72478 z" id="path37434"/><path d="m 453.73316,260.18852 v -25.60003 h 7.453 v 2.44787 h -4.56753 v 20.73165 h 4.56753 v 2.42051 z" id="path37436"/><path d="m 480.39986,251.62783 q 0,1.68205 -0.86154,2.96753 -0.84786,1.28547 -2.46154,2.01025 -1.6,0.72479 -3.87009,0.72479 -2.31111,0 -4.03419,-0.68376 -1.72308,-0.68376 -2.91283,-1.84616 l 1.73676,-1.94188 q 0.99829,0.92992 2.27008,1.44958 1.2718,0.51965 2.9265,0.51965 1.60001,0 2.74873,-0.75213 1.16239,-0.76582 1.16239,-2.29744 0,-0.82052 -0.34188,-1.39488 -0.34188,-0.58803 -1.18975,-1.03931 -0.83418,-0.46496 -2.33846,-0.91624 -2.99488,-0.88889 -4.54018,-2.14701 -1.5453,-1.25813 -1.5453,-3.47351 0,-1.53163 0.83419,-2.68035 0.84787,-1.14872 2.31112,-1.77778 1.47692,-0.64273 3.33675,-0.64273 2.05129,0 3.58291,0.60171 1.53163,0.58803 2.73505,1.66837 l -1.66838,1.88719 q -0.99829,-0.86154 -2.14701,-1.25813 -1.13505,-0.41025 -2.31112,-0.41025 -1.44957,0 -2.43419,0.61538 -0.98461,0.60171 -0.98461,1.81881 0,0.73846 0.39658,1.25812 0.41026,0.50598 1.36752,0.95727 0.97094,0.4376 2.653,0.94359 1.58632,0.46495 2.84444,1.14872 1.2718,0.68376 1.99659,1.80513 0.73846,1.10769 0.73846,2.88547 z" id="path37438"/><path d="m 497.24775,244.01073 q 0,2.20171 -0.94359,3.58291 -0.9436,1.36752 -2.61197,2.01026 -1.65471,0.62906 -3.81539,0.62906 h -2.28377 v 6.72821 h -3.17265 v -18.87182 h 5.23761 q 3.55556,0 5.56582,1.46325 2.02394,1.44958 2.02394,4.45813 z m -3.33676,0.0274 q 0,-1.94189 -1.10769,-2.74872 -1.09402,-0.82052 -2.94018,-0.82052 h -2.27009 v 7.3436 h 2.31112 q 1.77778,0 2.88547,-0.82051 1.12137,-0.82052 1.12137,-2.95385 z" id="path37440"/><path d="m 507.75036,241.69961 v 5.51112 h 5.42906 v 2.46154 h -5.42906 v 5.49745 h -2.69403 v -5.49745 h -5.38804 v -2.46154 h 5.38804 v -5.51112 z" id="path37442"/><path d="m 529.71278,242.52013 -5.08719,14.44104 h -3.58291 l -5.08718,-14.44104 h 3.28205 l 3.66496,11.89745 3.67864,-11.89745 z" id="path37444"/><path d="m 544.50941,253.41929 q 0,0.86154 0.25983,1.24444 0.25983,0.38291 0.83419,0.57436 l -0.68376,2.07864 q -1.06667,-0.12308 -1.84616,-0.58804 -0.76581,-0.46496 -1.14872,-1.40855 -0.79316,1.01197 -2.01026,1.51795 -1.21709,0.49231 -2.59829,0.49231 -2.20171,0 -3.47351,-1.23077 -1.2718,-1.24445 -1.2718,-3.2547 0,-2.28377 1.77778,-3.51454 1.77778,-1.23077 5.08719,-1.23077 h 2.06496 v -0.94359 q 0,-1.40855 -0.84787,-2.01026 -0.84786,-0.61538 -2.36581,-0.61538 -0.71111,0 -1.72308,0.19145 -1.01197,0.17778 -2.11966,0.56068 l -0.75214,-2.16068 q 1.35385,-0.50599 2.653,-0.73847 1.29914,-0.24615 2.40684,-0.24615 2.89915,0 4.32137,1.28547 1.4359,1.28547 1.4359,3.55556 z m -6.26326,1.6547 q 0.92992,0 1.81881,-0.49231 0.88889,-0.49231 1.4359,-1.3812 v -3.18633 h -1.69573 q -2.16069,0 -3.0906,0.72479 -0.92992,0.71111 -0.92992,1.96923 0,2.36582 2.46154,2.36582 z" id="path37446"/><path d="m 550.02053,256.96117 v -2.18804 h 2.11966 v -10.07864 h -2.11966 v -2.17436 h 4.45812 l 0.56069,3.35043 q 0.80684,-1.81881 1.99658,-2.7624 1.20342,-0.95726 3.0906,-0.95726 0.64274,0 1.14872,0.1094 0.51966,0.0957 1.02565,0.25983 l -0.51966,5.31966 h -2.18804 v -2.94017 q -1.53163,0.0547 -2.63932,1.23077 -1.10769,1.16239 -1.75043,3.28205 v 5.36069 h 2.91283 v 2.18804 z" id="path37448"/><path d="m 565.22739,261.9663 v -2.52991 h 13.67523 v 2.52991 z" id="path37450"/><path d="m 587.95562,254.97826 q 1.4359,0 2.28376,-0.50598 0.84787,-0.51966 0.84787,-1.42223 0,-0.58803 -0.24615,-0.99829 -0.24616,-0.41025 -0.98462,-0.76581 -0.73846,-0.35556 -2.24274,-0.73846 -1.42222,-0.36923 -2.50257,-0.87522 -1.06666,-0.50598 -1.6547,-1.31282 -0.58803,-0.80684 -0.58803,-2.07863 0,-1.85984 1.5453,-2.99488 1.55897,-1.14872 4.22564,-1.14872 1.81881,0 3.17266,0.47863 1.35384,0.47864 2.31111,1.18975 l -1.28547,1.92821 q -0.84787,-0.56069 -1.85983,-0.91624 -0.99829,-0.35556 -2.25642,-0.35556 -1.46325,0 -2.10598,0.43761 -0.62906,0.4376 -0.62906,1.16239 0,0.54701 0.31453,0.90257 0.3282,0.35555 1.12137,0.67008 0.79316,0.31453 2.24274,0.71111 1.40854,0.38291 2.44786,0.90257 1.05299,0.51966 1.62735,1.3812 0.58804,0.84786 0.58804,2.21539 0,1.55897 -0.90257,2.55726 -0.90256,0.98462 -2.35214,1.46325 -1.44957,0.46496 -3.11795,0.46496 -2.01026,0 -3.47351,-0.57436 -1.46325,-0.58803 -2.46154,-1.46325 l 1.62735,-1.85983 q 0.84787,0.68376 1.94189,1.12137 1.09401,0.42393 2.36581,0.42393 z" id="path37452"/><path d="m 604.88562,237.70645 q 3.17265,0 4.80001,2.55726 1.62735,2.55727 1.62735,7.2342 0,4.70428 -1.62735,7.27522 -1.62736,2.55727 -4.80001,2.55727 -3.17265,0 -4.80001,-2.55727 -1.62735,-2.57094 -1.62735,-7.27522 0,-4.67693 1.62735,-7.2342 1.62736,-2.55726 4.80001,-2.55726 z m 0,2.33846 q -1.62735,0 -2.50257,1.73675 -0.87521,1.72308 -0.87521,5.71625 0,2.91282 0.35555,4.54018 l 5.33334,-10.88549 q -0.39658,-0.58803 -0.97094,-0.84786 -0.57436,-0.25983 -1.34017,-0.25983 z m 3.37778,7.453 q 0,-2.61197 -0.28718,-4.17094 l -5.26496,10.74873 q 0.73846,0.91624 2.17436,0.91624 1.64103,0 2.50257,-1.72308 0.87521,-1.72308 0.87521,-5.77095 z" id="path37454"/><path d="m 624.75573,234.58849 v 25.60003 h -7.453 v -2.42051 h 4.56753 v -20.73165 h -4.56753 v -2.44787 z" id="path37456"/><path d="m 637.70618,252.03809 q 1.08034,0 1.79145,0.72478 0.71111,0.71112 0.71111,1.75043 0,0.61539 -0.19145,1.23077 -0.17778,0.61539 -0.58803,1.53163 l -2.11967,4.84103 h -2.37949 l 1.34018,-5.55214 q -1.03932,-0.69744 -1.03932,-2.06496 0,-1.02564 0.71111,-1.73676 0.71111,-0.72478 1.76411,-0.72478 z" id="path37458"/><path d="m 658.79338,244.58509 -0.76581,5.81197 h 2.02393 v 2.18804 h -2.32478 l -0.56069,4.37607 h -2.57094 l 0.57436,-4.37607 h -3.45984 l -0.57436,4.37607 h -2.57094 l 0.57436,-4.37607 h -1.95556 v -2.18804 h 2.24274 l 0.79316,-5.81197 h -2.02393 v -2.20172 h 2.31111 l 0.56069,-4.29402 h 2.58462 l -0.60171,4.29402 h 3.47351 l 0.57435,-4.29402 h 2.57095 l -0.58804,4.29402 h 1.98291 v 2.20172 z m -6.79659,5.81197 h 3.45984 l 0.77949,-5.81197 h -3.47351 z" id="path37460"/><path d="m 670.52673,237.70645 q 3.17266,0 4.80001,2.55726 1.62735,2.55727 1.62735,7.2342 0,4.70428 -1.62735,7.27522 -1.62735,2.55727 -4.80001,2.55727 -3.17265,0 -4.8,-2.55727 -1.62736,-2.57094 -1.62736,-7.27522 0,-4.67693 1.62736,-7.2342 1.62735,-2.55726 4.8,-2.55726 z m 0,2.33846 q -1.62735,0 -2.50256,1.73675 -0.87522,1.72308 -0.87522,5.71625 0,2.91282 0.35556,4.54018 l 5.33334,-10.88549 q -0.39658,-0.58803 -0.97094,-0.84786 -0.57436,-0.25983 -1.34018,-0.25983 z m 3.37778,7.453 q 0,-2.61197 -0.28717,-4.17094 l -5.26497,10.74873 q 0.73846,0.91624 2.17436,0.91624 1.64103,0 2.50257,-1.72308 0.87521,-1.72308 0.87521,-5.77095 z" id="path37462"/><path d="m 690.82084,242.38337 1.80513,1.80513 -3.89744,3.8701 3.89744,3.93846 -1.80513,1.80513 -3.88377,-3.95214 -3.92479,3.95214 -1.80513,-1.80513 3.93847,-3.93846 -3.93847,-3.8701 1.80513,-1.80513 3.92479,3.88377 z" id="path37464"/><path d="m 709.63796,254.55433 v 2.40684 h -11.41882 v -2.40684 h 4.60855 v -13.31968 l -4.15727,2.55727 -1.31282,-2.14701 5.7983,-3.55556 h 2.70769 v 16.46498 z" id="path37466"/><path d="m 719.75763,237.70645 q 3.17265,0 4.8,2.55726 1.62736,2.55727 1.62736,7.2342 0,4.70428 -1.62736,7.27522 -1.62735,2.55727 -4.8,2.55727 -3.17265,0 -4.80001,-2.55727 -1.62735,-2.57094 -1.62735,-7.27522 0,-4.67693 1.62735,-7.2342 1.62736,-2.55726 4.80001,-2.55726 z m 0,2.33846 q -1.62735,0 -2.50257,1.73675 -0.87521,1.72308 -0.87521,5.71625 0,2.91282 0.35555,4.54018 l 5.33334,-10.88549 q -0.39658,-0.58803 -0.97094,-0.84786 -0.57436,-0.25983 -1.34017,-0.25983 z m 3.37778,7.453 q 0,-2.61197 -0.28718,-4.17094 l -5.26496,10.74873 q 0.73846,0.91624 2.17436,0.91624 1.64103,0 2.50257,-1.72308 0.87521,-1.72308 0.87521,-5.77095 z" id="path37468"/></g></g></g></g></svg>