<?xml version="1.0" ?><svg xmlns="http://www.w3.org/2000/svg" xmlns:svg="http://www.w3.org/2000/svg" width="881.63892" height="546.83942" viewBox="0 0 233.26723 144.68459" version="1.1" id="svg5" xml:space="preserve"><defs id="defs2"><rect x="33.479961" y="89.279999" width="948.59888" height="435.23999" id="rect42149"/><rect x="55.799999" y="55.799999" width="892.79999" height="502.20001" id="rect20415"/></defs><g id="layer1" transform="translate(-2.9527495,-2.9528383)"><text xml:space="preserve" transform="matrix(0.26458333,0,0,0.26458333,-8.4309777,38.188918)" id="text20413" style="font-weight:bold;font-size:37.3333px;font-family:Monda;-inkscape-font-specification:'Monda, Bold';white-space:pre;shape-inside:url(#rect20415);display:inline;fill:#030303;stroke:none;stroke-width:4;stroke-miterlimit:2;paint-order:fill markers stroke"><tspan x="55.800781" y="88.008588" id="tspan47841">    public static boolean test1(int x) {
</tspan><tspan x="55.800781" y="134.67521" id="tspan47843">        boolean True = x == 1;
</tspan><tspan x="55.800781" y="181.34184" id="tspan47845">        boolean False = x * x - 1 != (x - 1) * (x + 1);
</tspan><tspan x="55.800781" y="228.00847" id="tspan47847">        return x == 1 ? True : False;
</tspan><tspan x="55.800781" y="274.67509" id="tspan47849">    }</tspan></text><g id="g26287" transform="matrix(0.26458333,0,0,0.26458333,151.03674,16.444252)"><g id="g26211" transform="translate(-559.68753,-50.991504)">
	<path style="fill:#e6e6e6;fill-opacity:1" d="M 850.74201,546.84001 H 30.897 C 13.833,546.84001 0,533.00701 0,515.94301 V 42.057 C 0,24.993 13.833,11.16 30.897,11.16 h 819.84601 c 17.064,0 30.897,13.833 30.897,30.897 v 473.88601 c -10e-4,17.064 -13.834,30.897 -30.898,30.897 z" id="path26201"/>
	<path style="fill:#434141;fill-opacity:1" d="M 881.64001,44.64 H 0.0010028 L 0,30.897 C -0.00124512,13.833 13.833,0 30.897,0 h 819.84601 c 17.063,0 30.896,13.833 30.896,30.897 z" id="path26203"/>
	
	
	
<g aria-label="public class TestControlFlowObfuscation {     public static boolean test1(int x) {         boolean True = x == 1;         boolean False = x * x - 1 != (x - 1) * (x + 1);         return x == 1 ? True : False;     }" transform="matrix(1.0000012,0,0,1.0000012,-22.320507,-33.876582)" id="text42147" style="font-weight:500;font-size:24px;font-family:'Fira Code';-inkscape-font-specification:'Fira Code, Medium';white-space:pre;shape-inside:url(#rect42149);fill:#434141;stroke-width:4;stroke-miterlimit:2;paint-order:fill markers stroke"><path d="m 42.0097,96.937758 q 1.723076,0 2.756923,0.849231 1.033846,0.836923 1.501538,2.375381 0.467692,1.52616 0.467692,3.59385 0,1.98154 -0.566153,3.53231 -0.566154,1.55077 -1.686154,2.43692 -1.107693,0.88615 -2.756923,0.88615 -2.043077,0 -3.298462,-1.44 v 6.10462 l -2.756923,0.30769 V 97.282374 h 2.4 l 0.172308,1.673846 q 0.738461,-0.996923 1.710769,-1.501539 0.972308,-0.516923 2.055385,-0.516923 z m -0.763077,2.129231 q -0.923077,0 -1.636923,0.553846 -0.701539,0.553845 -1.181539,1.304615 v 6.08 q 0.972308,1.45231 2.572308,1.45231 1.390769,0 2.116923,-1.12 0.726154,-1.12 0.726154,-3.56923 0,-2.49846 -0.652308,-3.59385 -0.64,-1.107691 -1.944615,-1.107691 z" id="path46918"/><path d="m 53.197402,97.282374 v 9.083076 q 0,1.15692 0.455385,1.64923 0.467692,0.49231 1.403077,0.49231 0.886154,0 1.710769,-0.52923 0.824616,-0.52923 1.304616,-1.29231 v -9.403076 h 2.756923 V 110.2793 h -2.375385 l -0.172308,-1.66154 q -0.726154,0.97231 -1.833846,1.48923 -1.107692,0.50461 -2.264615,0.50461 -1.895385,0 -2.818462,-1.03384 -0.923077,-1.04616 -0.923077,-2.86769 v -9.427696 z" id="path46920"/><path d="m 67.966644,98.833143 q 0.664615,-0.886154 1.575384,-1.390769 0.91077,-0.504616 1.993846,-0.504616 1.71077,0 2.769231,0.849231 1.070769,0.836923 1.563077,2.375381 0.504616,1.52616 0.504616,3.59385 0,1.98154 -0.59077,3.53231 -0.590769,1.55077 -1.747692,2.43692 -1.144615,0.88615 -2.830769,0.88615 -2.178462,0 -3.421539,-1.6123 l -0.147692,1.28 H 65.209721 V 92.063912 l 2.756923,-0.307692 z m 2.547692,9.673847 q 1.403077,0 2.166154,-1.14462 0.775384,-1.14461 0.775384,-3.59384 0,-2.49846 -0.701538,-3.59385 -0.689231,-1.107691 -1.969231,-1.107691 -0.923077,0 -1.636923,0.553846 -0.701538,0.553845 -1.181538,1.304615 v 6.08 q 0.455384,0.70154 1.095384,1.10769 0.652308,0.39385 1.452308,0.39385 z" id="path46922"/><path d="m 85.689731,92.063912 v 14.670768 q 0,0.89846 0.541539,1.28 0.553846,0.36923 1.427692,0.36923 0.553846,0 1.058462,-0.11077 0.516923,-0.12307 0.996923,-0.32 l 0.701538,1.92 q -0.578461,0.29539 -1.427692,0.51693 -0.836923,0.22153 -1.92,0.22153 -1.956923,0 -3.052308,-1.10769 -1.083077,-1.10769 -1.083077,-3.01538 V 94.094681 h -3.926154 v -2.030769 z" id="path46924"/><path d="m 99.929742,90.919297 q 0.812308,0 1.304618,0.492308 0.50461,0.492307 0.50461,1.230769 0,0.738461 -0.50461,1.243077 -0.49231,0.504615 -1.304618,0.504615 -0.787693,0 -1.292308,-0.504615 -0.504615,-0.504616 -0.504615,-1.243077 0,-0.738462 0.504615,-1.230769 0.504615,-0.492308 1.292308,-0.492308 z m 1.919998,6.363077 v 10.978466 h 3.53231 v 2.01846 H 95.203588 v -2.01846 h 3.889231 v -8.960005 h -3.766154 v -2.018461 z" id="path46926"/><path d="m 115.78206,108.34699 q 0.91077,0 1.69846,-0.32 0.78769,-0.32 1.50154,-0.81231 l 1.28,1.77231 q -0.84923,0.72615 -2.06769,1.18154 -1.20616,0.44307 -2.49846,0.44307 -1.99385,0 -3.42154,-0.83692 -1.41539,-0.84923 -2.16616,-2.36308 -0.73846,-1.52615 -0.73846,-3.56923 0,-1.98153 0.75077,-3.5323 0.76308,-1.563081 2.19077,-2.461542 1.42769,-0.91077 3.43385,-0.91077 2.60923,0 4.50461,1.563077 l -1.26769,1.735385 q -0.76308,-0.529231 -1.56308,-0.8 -0.8,-0.283077 -1.62461,-0.283077 -1.55077,0 -2.52308,1.132307 -0.97231,1.13231 -0.97231,3.55692 0,2.43693 0.98462,3.47077 0.98461,1.03385 2.49846,1.03385 z" id="path46928"/><path d="m 145.32054,108.34699 q 0.91077,0 1.69846,-0.32 0.7877,-0.32 1.50154,-0.81231 l 1.28,1.77231 q -0.84923,0.72615 -2.06769,1.18154 -1.20615,0.44307 -2.49846,0.44307 -1.99385,0 -3.42154,-0.83692 -1.41538,-0.84923 -2.16615,-2.36308 -0.73846,-1.52615 -0.73846,-3.56923 0,-1.98153 0.75076,-3.5323 0.76308,-1.563081 2.19077,-2.461542 1.4277,-0.91077 3.43385,-0.91077 2.60923,0 4.50462,1.563077 l -1.2677,1.735385 q -0.76307,-0.529231 -1.56307,-0.8 -0.8,-0.283077 -1.62462,-0.283077 -1.55077,0 -2.52308,1.132307 -0.9723,1.13231 -0.9723,3.55692 0,2.43693 0.98461,3.47077 0.98462,1.03385 2.49846,1.03385 z" id="path46930"/><path d="m 159.53594,92.063912 v 14.670768 q 0,0.89846 0.54154,1.28 0.55384,0.36923 1.42769,0.36923 0.55384,0 1.05846,-0.11077 0.51692,-0.12307 0.99692,-0.32 l 0.70154,1.92 q -0.57846,0.29539 -1.42769,0.51693 -0.83692,0.22153 -1.92,0.22153 -1.95692,0 -3.05231,-1.10769 -1.08308,-1.10769 -1.08308,-3.01538 V 94.094681 h -3.92615 v -2.030769 z" id="path46932"/><path d="m 178.52672,107.0916 q 0,0.77539 0.23384,1.12 0.23385,0.34462 0.75077,0.51693 l -0.61538,1.87077 q -0.96,-0.11077 -1.66154,-0.52923 -0.68923,-0.41847 -1.03385,-1.2677 -0.71384,0.91077 -1.80923,1.36616 -1.09538,0.44307 -2.33846,0.44307 -1.98154,0 -3.12615,-1.10769 -1.14462,-1.12 -1.14462,-2.92923 0,-2.05538 1.6,-3.16308 1.6,-1.10769 4.57846,-1.10769 h 1.85847 v -0.84923 q 0,-1.26769 -0.76308,-1.809229 -0.76308,-0.553846 -2.12923,-0.553846 -0.64,0 -1.55077,0.172307 -0.91077,0.16 -1.90769,0.504616 l -0.67693,-1.944616 q 1.21846,-0.455384 2.3877,-0.664615 1.16923,-0.221539 2.16615,-0.221539 2.60923,0 3.88923,1.156923 1.29231,1.156924 1.29231,3.199999 z m -5.63693,1.48924 q 0.83693,0 1.63693,-0.44308 0.8,-0.44308 1.29231,-1.24308 v -2.86769 h -1.52616 q -1.94461,0 -2.78154,0.65231 -0.83692,0.64 -0.83692,1.7723 0,2.12924 2.21538,2.12924 z" id="path46934"/><path d="m 188.08981,108.49468 q 1.2923,0 2.05538,-0.45538 0.76308,-0.4677 0.76308,-1.28 0,-0.52923 -0.22154,-0.89846 -0.22154,-0.36924 -0.88616,-0.68924 -0.66461,-0.32 -2.01846,-0.66461 -1.28,-0.33231 -2.2523,-0.78769 -0.96,-0.45539 -1.48924,-1.18154 -0.52923,-0.72616 -0.52923,-1.87077 0,-1.673847 1.39077,-2.695385 1.40308,-1.033847 3.80308,-1.033847 1.63692,0 2.85538,0.43077 1.21847,0.430769 2.08,1.070769 l -1.15692,1.735383 q -0.76308,-0.504614 -1.67384,-0.824614 -0.89847,-0.32 -2.03077,-0.32 -1.31693,0 -1.89539,0.393846 -0.56615,0.393846 -0.56615,1.046158 0,0.4923 0.28307,0.8123 0.29539,0.32 1.00924,0.60308 0.71384,0.28308 2.01846,0.64 1.26769,0.34462 2.20307,0.81231 0.9477,0.46769 1.46462,1.24308 0.52923,0.76307 0.52923,1.99384 0,1.40308 -0.81231,2.30154 -0.81231,0.88615 -2.11692,1.31692 -1.30462,0.41846 -2.80615,0.41846 -1.80924,0 -3.12616,-0.51692 -1.31692,-0.52923 -2.21538,-1.31692 l 1.46461,-1.67385 q 0.76308,0.61539 1.74769,1.00923 0.98462,0.38154 2.12924,0.38154 z" id="path46936"/><path d="m 202.85905,108.49468 q 1.2923,0 2.05538,-0.45538 0.76308,-0.4677 0.76308,-1.28 0,-0.52923 -0.22154,-0.89846 -0.22154,-0.36924 -0.88615,-0.68924 -0.66462,-0.32 -2.01847,-0.66461 -1.28,-0.33231 -2.2523,-0.78769 -0.96,-0.45539 -1.48923,-1.18154 -0.52924,-0.72616 -0.52924,-1.87077 0,-1.673847 1.39077,-2.695385 1.40308,-1.033847 3.80308,-1.033847 1.63692,0 2.85539,0.43077 1.21846,0.430769 2.08,1.070769 l -1.15693,1.735383 q -0.76307,-0.504614 -1.67384,-0.824614 -0.89847,-0.32 -2.03077,-0.32 -1.31693,0 -1.89539,0.393846 -0.56615,0.393846 -0.56615,1.046158 0,0.4923 0.28308,0.8123 0.29538,0.32 1.00923,0.60308 0.71384,0.28308 2.01846,0.64 1.26769,0.34462 2.20307,0.81231 0.9477,0.46769 1.46462,1.24308 0.52923,0.76307 0.52923,1.99384 0,1.40308 -0.81231,2.30154 -0.8123,0.88615 -2.11692,1.31692 -1.30462,0.41846 -2.80615,0.41846 -1.80923,0 -3.12616,-0.51692 -1.31692,-0.52923 -2.21538,-1.31692 l 1.46461,-1.67385 q 0.76308,0.61539 1.7477,1.00923 0.98461,0.38154 2.12923,0.38154 z" id="path46938"/><path d="m 234.25599,95.59622 v 14.68308 h -2.85538 V 95.59622 h -5.09539 v -2.301539 h 13.16923 l -0.29538,2.301539 z" id="path46940"/><path d="m 244.72985,104.66699 q 0.12307,2.00615 1.12,2.90461 1.00923,0.89847 2.42461,0.89847 0.9477,0 1.76,-0.29539 0.82462,-0.29538 1.64923,-0.83692 l 1.19385,1.64923 q -0.91077,0.73846 -2.12923,1.18154 -1.21846,0.44307 -2.60923,0.44307 -2.03077,0 -3.43385,-0.86153 -1.39077,-0.86154 -2.11692,-2.4 -0.71385,-1.53847 -0.71385,-3.55693 0,-1.95692 0.71385,-3.49538 0.71385,-1.550771 2.04308,-2.449232 1.32923,-0.91077 3.17538,-0.91077 2.58462,0 4.08615,1.735385 1.51385,1.735387 1.51385,4.763077 0,0.33231 -0.0246,0.66462 -0.0123,0.32 -0.0369,0.56615 z m 3.10154,-5.686155 q -1.29231,0 -2.14154,0.923077 -0.84923,0.923078 -0.97231,2.879998 h 6.01846 q -0.0369,-1.83384 -0.78769,-2.818459 -0.73846,-0.984616 -2.11692,-0.984616 z" id="path46942"/><path d="m 261.93601,108.49468 q 1.29231,0 2.05539,-0.45538 0.76307,-0.4677 0.76307,-1.28 0,-0.52923 -0.22154,-0.89846 -0.22153,-0.36924 -0.88615,-0.68924 -0.66461,-0.32 -2.01846,-0.66461 -1.28,-0.33231 -2.25231,-0.78769 -0.96,-0.45539 -1.48923,-1.18154 -0.52923,-0.72616 -0.52923,-1.87077 0,-1.673847 1.39077,-2.695385 1.40308,-1.033847 3.80308,-1.033847 1.63692,0 2.85538,0.43077 1.21846,0.430769 2.08,1.070769 l -1.15692,1.735383 q -0.76308,-0.504614 -1.67385,-0.824614 -0.89846,-0.32 -2.03077,-0.32 -1.31692,0 -1.89538,0.393846 -0.56616,0.393846 -0.56616,1.046158 0,0.4923 0.28308,0.8123 0.29539,0.32 1.00923,0.60308 0.71385,0.28308 2.01846,0.64 1.2677,0.34462 2.20308,0.81231 0.94769,0.46769 1.46462,1.24308 0.52923,0.76307 0.52923,1.99384 0,1.40308 -0.81231,2.30154 -0.81231,0.88615 -2.11692,1.31692 -1.30462,0.41846 -2.80616,0.41846 -1.80923,0 -3.12615,-0.51692 -1.31693,-0.52923 -2.21539,-1.31692 l 1.46462,-1.67385 q 0.76308,0.61539 1.74769,1.00923 0.98462,0.38154 2.12923,0.38154 z" id="path46944"/><path d="m 282.83448,109.59007 q -0.71384,0.45538 -1.71077,0.73846 -0.99692,0.28307 -2.08,0.28307 -2.26461,0 -3.44615,-1.16923 -1.16923,-1.18153 -1.16923,-3.10153 v -7.052312 h -2.89231 v -2.006154 h 2.89231 v -2.904616 l 2.75692,-0.332307 v 3.236923 h 4.38154 l -0.30769,2.006154 h -4.07385 v 7.027692 q 0,1.04615 0.51693,1.56308 0.52923,0.50461 1.72307,0.50461 0.71385,0 1.30462,-0.17231 0.60308,-0.1723 1.10769,-0.44307 z" id="path46946"/><path d="m 293.36988,92.950066 q 1.72308,0 2.90461,0.455385 1.18154,0.443077 2.21539,1.28 l -1.48923,1.772307 q -1.51385,-1.255384 -3.49539,-1.255384 -1.26769,0 -2.33846,0.64 -1.07077,0.64 -1.72307,2.08 -0.64,1.44 -0.64,3.839996 0,2.35077 0.61538,3.79077 0.61538,1.44 1.67385,2.09231 1.07077,0.65231 2.4123,0.65231 1.36616,0 2.26462,-0.44308 0.89846,-0.45538 1.58769,-1.02154 l 1.37846,1.76 q -0.84923,0.82462 -2.15384,1.4277 -1.30462,0.59076 -3.17539,0.59076 -2.16615,0 -3.87692,-1.00923 -1.71077,-1.00923 -2.70769,-2.97846 -0.98462,-1.98154 -0.98462,-4.86154 0,-2.855381 1.02154,-4.812304 1.02154,-1.969231 2.72,-2.978461 1.71077,-1.021539 3.79077,-1.021539 z" id="path46948"/><path d="m 306.72374,96.937758 q 2.85538,0 4.35692,1.858462 1.50154,1.85846 1.50154,4.96 0,2.06769 -0.68923,3.60615 -0.67693,1.53847 -1.99385,2.4 -1.30461,0.84923 -3.18769,0.84923 -2.84308,0 -4.35692,-1.83384 -1.51385,-1.84616 -1.51385,-4.99692 0,-2.01847 0.67692,-3.55693 0.68923,-1.550767 2.00616,-2.412305 1.31692,-0.873847 3.2,-0.873847 z m 0,2.141539 q -1.48923,0 -2.24,1.144613 -0.75077,1.13231 -0.75077,3.55693 0,2.42461 0.73846,3.56923 0.75077,1.1323 2.24,1.1323 1.48923,0 2.22769,-1.14461 0.75077,-1.14462 0.75077,-3.58154 0,-2.4 -0.73846,-3.53231 -0.73846,-1.144613 -2.22769,-1.144613 z" id="path46950"/><path d="M 316.28684,110.2793 V 97.282374 h 2.37538 l 0.20923,1.686154 q 0.81231,-0.984616 1.92,-1.501539 1.1077,-0.529231 2.27693,-0.529231 1.82154,0 2.72,1.021539 0.91077,1.021538 0.91077,2.843073 v 9.47693 h -2.75693 v -8.11077 q 0,-1.68616 -0.34461,-2.400002 -0.33231,-0.726154 -1.51385,-0.726154 -0.94769,0 -1.73538,0.590769 -0.77539,0.578457 -1.30462,1.316927 v 9.32923 z" id="path46952"/><path d="m 341.91145,109.59007 q -0.71385,0.45538 -1.71077,0.73846 -0.99692,0.28307 -2.08,0.28307 -2.26462,0 -3.44615,-1.16923 -1.16923,-1.18153 -1.16923,-3.10153 v -7.052312 h -2.89231 v -2.006154 h 2.89231 v -2.904616 l 2.75692,-0.332307 v 3.236923 h 4.38154 l -0.3077,2.006154 h -4.07384 v 7.027692 q 0,1.04615 0.51692,1.56308 0.52923,0.50461 1.72308,0.50461 0.71384,0 1.30461,-0.17231 0.60308,-0.1723 1.1077,-0.44307 z" id="path46954"/><path d="m 345.94837,110.2793 v -1.96923 h 1.90769 v -9.070773 h -1.90769 v -1.956923 h 4.01231 l 0.50461,3.015386 q 0.72615,-1.636925 1.79692,-2.486155 1.08308,-0.861539 2.78154,-0.861539 0.57846,0 1.03385,0.09846 0.46769,0.08615 0.92308,0.233846 l -0.4677,4.787698 h -1.96923 v -2.64616 q -1.37846,0.04923 -2.37538,1.10769 -0.99693,1.04616 -1.57539,2.95385 v 4.82462 h 2.62154 v 1.96923 z" id="path46956"/><path d="m 365.8007,96.937758 q 2.85539,0 4.35692,1.858462 1.50154,1.85846 1.50154,4.96 0,2.06769 -0.68923,3.60615 -0.67692,1.53847 -1.99384,2.4 -1.30462,0.84923 -3.1877,0.84923 -2.84307,0 -4.35692,-1.83384 -1.51385,-1.84616 -1.51385,-4.99692 0,-2.01847 0.67693,-3.55693 0.68923,-1.550767 2.00615,-2.412305 1.31692,-0.873847 3.2,-0.873847 z m 0,2.141539 q -1.48923,0 -2.24,1.144613 -0.75077,1.13231 -0.75077,3.55693 0,2.42461 0.73846,3.56923 0.75077,1.1323 2.24,1.1323 1.48923,0 2.2277,-1.14461 0.75076,-1.14462 0.75076,-3.58154 0,-2.4 -0.73846,-3.53231 -0.73846,-1.144613 -2.22769,-1.144613 z" id="path46958"/><path d="m 381.07457,92.063912 v 14.670768 q 0,0.89846 0.54154,1.28 0.55385,0.36923 1.42769,0.36923 0.55385,0 1.05847,-0.11077 0.51692,-0.12307 0.99692,-0.32 l 0.70154,1.92 q -0.57846,0.29539 -1.4277,0.51693 -0.83692,0.22153 -1.92,0.22153 -1.95692,0 -3.0523,-1.10769 -1.08308,-1.10769 -1.08308,-3.01538 V 94.094681 h -3.92615 v -2.030769 z" id="path46960"/><path d="m 393.9238,95.460835 v 5.403075 h 6.38769 v 2.16616 h -6.38769 v 7.24923 h -2.85539 V 93.294681 h 10.44924 l -0.32,2.166154 z" id="path46962"/><path d="m 410.61303,93.294681 v 13.439999 q 0,0.89846 0.54153,1.28 0.55385,0.36923 1.4277,0.36923 0.55384,0 1.05846,-0.11077 0.51692,-0.12307 0.99692,-0.32 l 0.70154,1.92 q -0.57846,0.29539 -1.42769,0.51693 -0.83693,0.22153 -1.92,0.22153 -1.95693,0 -3.05231,-1.10769 -1.08308,-1.10769 -1.08308,-3.01538 V 95.59622 h -3.92615 v -2.301539 z" id="path46964"/><path d="m 424.87767,96.937758 q 2.85538,0 4.35692,1.858462 1.50154,1.85846 1.50154,4.96 0,2.06769 -0.68923,3.60615 -0.67693,1.53847 -1.99385,2.4 -1.30461,0.84923 -3.18769,0.84923 -2.84308,0 -4.35692,-1.83384 -1.51385,-1.84616 -1.51385,-4.99692 0,-2.01847 0.67692,-3.55693 0.68923,-1.550767 2.00616,-2.412305 1.31692,-0.873847 3.2,-0.873847 z m 0,2.141539 q -1.48923,0 -2.24,1.144613 -0.75077,1.13231 -0.75077,3.55693 0,2.42461 0.73846,3.56923 0.75077,1.1323 2.24,1.1323 1.48923,0 2.22769,-1.14461 0.75077,-1.14462 0.75077,-3.58154 0,-2.4 -0.73846,-3.53231 -0.73846,-1.144613 -2.22769,-1.144613 z" id="path46966"/><path d="m 444.60692,110.2793 h -3.44615 l -1.46462,-9.23077 -1.57538,9.23077 h -3.37231 l -2.20308,-12.996926 h 2.65847 l 1.35384,11.286156 1.80923,-9.636925 h 2.75693 l 1.68615,9.636925 1.35385,-11.286156 h 2.56 z" id="path46968"/><path d="m 460.86538,101.78699 q 0,2.62154 -0.72615,4.61538 -0.72616,1.98154 -2.16616,3.10154 -1.44,1.10769 -3.56923,1.10769 -2.12923,0 -3.56923,-1.08307 -1.44,-1.08308 -2.16615,-3.06462 -0.72616,-1.98154 -0.72616,-4.65231 0,-2.621534 0.72616,-4.61538 0.72615,-1.993846 2.16615,-3.113846 1.44,-1.132308 3.56923,-1.132308 2.12923,0 3.56923,1.095385 1.44,1.095384 2.16616,3.08923 0.72615,1.981539 0.72615,4.652309 z m -2.95385,0 q 0,-3.298462 -0.8123,-4.947693 -0.81231,-1.661539 -2.69539,-1.661539 -1.88308,0 -2.69538,1.673847 -0.81231,1.661538 -0.81231,4.959995 0,3.28616 0.83692,4.93539 0.83693,1.63692 2.67077,1.63692 1.88308,0 2.69539,-1.64923 0.8123,-1.66154 0.8123,-4.94769 z" id="path46970"/><path d="m 466.73614,98.833143 q 0.66462,-0.886154 1.57539,-1.390769 0.91077,-0.504616 1.99385,-0.504616 1.71076,0 2.76923,0.849231 1.07077,0.836923 1.56307,2.375381 0.50462,1.52616 0.50462,3.59385 0,1.98154 -0.59077,3.53231 -0.59077,1.55077 -1.74769,2.43692 -1.14462,0.88615 -2.83077,0.88615 -2.17846,0 -3.42154,-1.6123 l -0.14769,1.28 h -2.42462 V 92.063912 l 2.75692,-0.307692 z m 2.5477,9.673847 q 1.40307,0 2.16615,-1.14462 0.77539,-1.14461 0.77539,-3.59384 0,-2.49846 -0.70154,-3.59385 -0.68923,-1.107691 -1.96923,-1.107691 -0.92308,0 -1.63693,0.553846 -0.70154,0.553845 -1.18154,1.304615 v 6.08 q 0.45539,0.70154 1.09539,1.10769 0.65231,0.39385 1.45231,0.39385 z" id="path46972"/><path d="m 486.65002,91.75622 q 1.19384,0 2.12923,0.209231 0.94769,0.196923 1.74769,0.541538 l -0.81231,1.907692 q -0.65231,-0.270769 -1.36615,-0.393846 -0.70154,-0.123077 -1.42769,-0.123077 -2.51077,0 -2.51077,2.018462 v 2.301538 h 4.34461 l -0.29538,2.030772 h -4.04923 v 10.03077 h -2.74462 v -10.03077 h -2.95385 v -2.030772 h 2.95385 v -2.326153 q 0,-1.846154 1.36615,-2.99077 1.36616,-1.144615 3.61847,-1.144615 z" id="path46974"/><path d="m 496.27466,97.282374 v 9.083076 q 0,1.15692 0.45538,1.64923 0.46769,0.49231 1.40308,0.49231 0.88615,0 1.71077,-0.52923 0.82461,-0.52923 1.30461,-1.29231 v -9.403076 h 2.75693 V 110.2793 h -2.37539 l -0.17231,-1.66154 q -0.72615,0.97231 -1.83384,1.48923 -1.10769,0.50461 -2.26462,0.50461 -1.89538,0 -2.81846,-1.03384 -0.92308,-1.04616 -0.92308,-2.86769 v -9.427696 z" id="path46976"/><path d="m 513.01311,108.49468 q 1.29231,0 2.05539,-0.45538 0.76308,-0.4677 0.76308,-1.28 0,-0.52923 -0.22154,-0.89846 -0.22154,-0.36924 -0.88616,-0.68924 -0.66461,-0.32 -2.01846,-0.66461 -1.28,-0.33231 -2.25231,-0.78769 -0.96,-0.45539 -1.48923,-1.18154 -0.52923,-0.72616 -0.52923,-1.87077 0,-1.673847 1.39077,-2.695385 1.40308,-1.033847 3.80308,-1.033847 1.63692,0 2.85538,0.43077 1.21847,0.430769 2.08,1.070769 l -1.15692,1.735383 q -0.76308,-0.504614 -1.67385,-0.824614 -0.89846,-0.32 -2.03076,-0.32 -1.31693,0 -1.89539,0.393846 -0.56615,0.393846 -0.56615,1.046158 0,0.4923 0.28307,0.8123 0.29539,0.32 1.00923,0.60308 0.71385,0.28308 2.01847,0.64 1.26769,0.34462 2.20307,0.81231 0.9477,0.46769 1.46462,1.24308 0.52923,0.76307 0.52923,1.99384 0,1.40308 -0.81231,2.30154 -0.81231,0.88615 -2.11692,1.31692 -1.30462,0.41846 -2.80616,0.41846 -1.80923,0 -3.12615,-0.51692 -1.31692,-0.52923 -2.21538,-1.31692 l 1.46461,-1.67385 q 0.76308,0.61539 1.74769,1.00923 0.98462,0.38154 2.12923,0.38154 z" id="path46978"/><path d="m 529.3208,108.34699 q 0.91077,0 1.69846,-0.32 0.7877,-0.32 1.50154,-0.81231 l 1.28,1.77231 q -0.84923,0.72615 -2.06769,1.18154 -1.20615,0.44307 -2.49846,0.44307 -1.99385,0 -3.42154,-0.83692 -1.41538,-0.84923 -2.16615,-2.36308 -0.73847,-1.52615 -0.73847,-3.56923 0,-1.98153 0.75077,-3.5323 0.76308,-1.563081 2.19077,-2.461542 1.4277,-0.91077 3.43385,-0.91077 2.60923,0 4.50461,1.563077 l -1.26769,1.735385 q -0.76307,-0.529231 -1.56307,-0.8 -0.8,-0.283077 -1.62462,-0.283077 -1.55077,0 -2.52308,1.132307 -0.9723,1.13231 -0.9723,3.55692 0,2.43693 0.98461,3.47077 0.98462,1.03385 2.49846,1.03385 z" id="path46980"/><path d="m 547.75775,107.0916 q 0,0.77539 0.23385,1.12 0.23384,0.34462 0.75077,0.51693 l -0.61539,1.87077 q -0.96,-0.11077 -1.66154,-0.52923 -0.68923,-0.41847 -1.03384,-1.2677 -0.71385,0.91077 -1.80923,1.36616 -1.09539,0.44307 -2.33847,0.44307 -1.98153,0 -3.12615,-1.10769 -1.14461,-1.12 -1.14461,-2.92923 0,-2.05538 1.6,-3.16308 1.6,-1.10769 4.57846,-1.10769 h 1.85846 v -0.84923 q 0,-1.26769 -0.76308,-1.809229 -0.76308,-0.553846 -2.12923,-0.553846 -0.64,0 -1.55077,0.172307 -0.91077,0.16 -1.90769,0.504616 l -0.67692,-1.944616 q 1.21846,-0.455384 2.38769,-0.664615 1.16923,-0.221539 2.16615,-0.221539 2.60923,0 3.88923,1.156923 1.29231,1.156924 1.29231,3.199999 z m -5.63692,1.48924 q 0.83692,0 1.63692,-0.44308 0.8,-0.44308 1.29231,-1.24308 v -2.86769 h -1.52616 q -1.94461,0 -2.78153,0.65231 -0.83693,0.64 -0.83693,1.7723 0,2.12924 2.21539,2.12924 z" id="path46982"/><path d="m 563.45008,109.59007 q -0.71384,0.45538 -1.71076,0.73846 -0.99693,0.28307 -2.08,0.28307 -2.26462,0 -3.44616,-1.16923 -1.16923,-1.18153 -1.16923,-3.10153 v -7.052312 h -2.89231 v -2.006154 h 2.89231 v -2.904616 l 2.75692,-0.332307 v 3.236923 h 4.38154 l -0.30769,2.006154 h -4.07385 v 7.027692 q 0,1.04615 0.51693,1.56308 0.52923,0.50461 1.72307,0.50461 0.71385,0 1.30462,-0.17231 0.60308,-0.1723 1.10769,-0.44307 z" id="path46984"/><path d="m 572.54546,90.919297 q 0.81231,0 1.30462,0.492308 0.50462,0.492307 0.50462,1.230769 0,0.738461 -0.50462,1.243077 -0.49231,0.504615 -1.30462,0.504615 -0.78769,0 -1.2923,-0.504615 -0.50462,-0.504616 -0.50462,-1.243077 0,-0.738462 0.50462,-1.230769 0.50461,-0.492308 1.2923,-0.492308 z m 1.92,6.363077 v 10.978466 h 3.53231 v 2.01846 h -10.17846 v -2.01846 h 3.88923 v -8.960005 h -3.76615 v -2.018461 z" id="path46986"/><path d="m 587.33931,96.937758 q 2.85538,0 4.35692,1.858462 1.50154,1.85846 1.50154,4.96 0,2.06769 -0.68923,3.60615 -0.67693,1.53847 -1.99385,2.4 -1.30461,0.84923 -3.18769,0.84923 -2.84308,0 -4.35692,-1.83384 -1.51385,-1.84616 -1.51385,-4.99692 0,-2.01847 0.67692,-3.55693 0.68923,-1.550767 2.00616,-2.412305 1.31692,-0.873847 3.2,-0.873847 z m 0,2.141539 q -1.48923,0 -2.24,1.144613 -0.75077,1.13231 -0.75077,3.55693 0,2.42461 0.73846,3.56923 0.75077,1.1323 2.24,1.1323 1.48923,0 2.22769,-1.14461 0.75077,-1.14462 0.75077,-3.58154 0,-2.4 -0.73846,-3.53231 -0.73846,-1.144613 -2.22769,-1.144613 z" id="path46988"/><path d="M 596.90244,110.2793 V 97.282374 h 2.37538 l 0.20923,1.686154 q 0.81231,-0.984616 1.92,-1.501539 1.1077,-0.529231 2.27693,-0.529231 1.82154,0 2.72,1.021539 0.91077,1.021538 0.91077,2.843073 v 9.47693 h -2.75693 v -8.11077 q 0,-1.68616 -0.34461,-2.400002 -0.33231,-0.726154 -1.51385,-0.726154 -0.94769,0 -1.73538,0.590769 -0.77539,0.578457 -1.30462,1.316927 v 9.32923 z" id="path46990"/><path d="m 635.49935,89.67622 v 2.030769 q -1.26769,0 -2.08,0.381539 -0.8123,0.381538 -0.70154,1.427692 l 0.45539,4.516923 q 0.18461,1.747692 -0.60308,2.572307 -0.78769,0.81231 -2.27692,1.05846 1.55077,0.25846 2.30154,1.04616 0.76307,0.77538 0.57846,2.58461 l -0.45539,4.51692 q -0.11076,1.05847 0.70154,1.4277 0.81231,0.38154 2.08,0.38154 v 2.03076 q -1.71077,0 -2.97846,-0.36923 -1.25538,-0.36923 -1.89538,-1.26769 -0.6277,-0.89846 -0.45539,-2.46154 l 0.45539,-4.24615 q 0.13538,-1.30462 -0.66462,-1.92 -0.8,-0.61539 -2.92923,-0.61539 v -2.21538 q 2.12923,0 2.92923,-0.603077 0.8,-0.603077 0.66462,-1.92 l -0.45539,-4.246154 q -0.17231,-1.575384 0.45539,-2.473846 0.64,-0.898462 1.89538,-1.267692 1.26769,-0.369231 2.97846,-0.369231 z" id="path46992"/><path d="m 101.08666,126.93776 q 1.72308,0 2.75693,0.84923 1.03384,0.83692 1.50154,2.37538 0.46769,1.52616 0.46769,3.59385 0,1.98154 -0.56616,3.53231 -0.56615,1.55077 -1.68615,2.43692 -1.10769,0.88615 -2.75692,0.88615 -2.043079,0 -3.298464,-1.44 v 6.10462 l -2.756923,0.30769 v -18.30154 h 2.4 l 0.172308,1.67385 q 0.738462,-0.99692 1.710769,-1.50154 0.97231,-0.51692 2.05538,-0.51692 z m -0.76307,2.12923 q -0.923079,0 -1.636925,0.55385 -0.701539,0.55384 -1.181539,1.30461 v 6.08 q 0.972308,1.45231 2.572304,1.45231 1.39077,0 2.11693,-1.12 0.72615,-1.12 0.72615,-3.56923 0,-2.49846 -0.65231,-3.59385 -0.64,-1.10769 -1.94461,-1.10769 z" id="path46994"/><path d="m 112.27437,127.28237 v 9.08308 q 0,1.15692 0.45538,1.64923 0.46769,0.49231 1.40308,0.49231 0.88615,0 1.71077,-0.52923 0.82461,-0.52923 1.30461,-1.29231 v -9.40308 h 2.75693 v 12.99693 h -2.37539 l -0.17231,-1.66154 q -0.72615,0.97231 -1.83384,1.48923 -1.10769,0.50461 -2.26462,0.50461 -1.89538,0 -2.81846,-1.03384 -0.92308,-1.04616 -0.92308,-2.86769 v -9.4277 z" id="path46996"/><path d="m 127.04361,128.83314 q 0.66461,-0.88615 1.57538,-1.39077 0.91077,-0.50461 1.99385,-0.50461 1.71077,0 2.76923,0.84923 1.07077,0.83692 1.56308,2.37538 0.50461,1.52616 0.50461,3.59385 0,1.98154 -0.59077,3.53231 -0.59077,1.55077 -1.74769,2.43692 -1.14461,0.88615 -2.83077,0.88615 -2.17846,0 -3.42154,-1.6123 l -0.14769,1.28 h -2.42461 v -18.21539 l 2.75692,-0.30769 z m 2.54769,9.67385 q 1.40308,0 2.16616,-1.14462 0.77538,-1.14461 0.77538,-3.59384 0,-2.49846 -0.70154,-3.59385 -0.68923,-1.10769 -1.96923,-1.10769 -0.92308,0 -1.63692,0.55385 -0.70154,0.55384 -1.18154,1.30461 v 6.08 q 0.45538,0.70154 1.09538,1.10769 0.65231,0.39385 1.45231,0.39385 z" id="path46998"/><path d="m 144.7667,122.06391 v 14.67077 q 0,0.89846 0.54154,1.28 0.55384,0.36923 1.42769,0.36923 0.55384,0 1.05846,-0.11077 0.51692,-0.12307 0.99692,-0.32 l 0.70154,1.92 q -0.57846,0.29539 -1.42769,0.51693 -0.83692,0.22153 -1.92,0.22153 -1.95692,0 -3.05231,-1.10769 -1.08308,-1.10769 -1.08308,-3.01538 v -12.39385 h -3.92615 v -2.03077 z" id="path47000"/><path d="m 159.00671,120.9193 q 0.8123,0 1.30461,0.4923 0.50462,0.49231 0.50462,1.23077 0,0.73847 -0.50462,1.24308 -0.49231,0.50462 -1.30461,0.50462 -0.7877,0 -1.29231,-0.50462 -0.50462,-0.50461 -0.50462,-1.24308 0,-0.73846 0.50462,-1.23077 0.50461,-0.4923 1.29231,-0.4923 z m 1.92,6.36307 v 10.97847 h 3.5323 v 2.01846 h -10.17846 v -2.01846 h 3.88923 v -8.96 h -3.76615 v -2.01847 z" id="path47002"/><path d="m 174.85903,138.34699 q 0.91076,0 1.69846,-0.32 0.78769,-0.32 1.50154,-0.81231 l 1.28,1.77231 q -0.84924,0.72615 -2.0677,1.18154 -1.20615,0.44307 -2.49846,0.44307 -1.99384,0 -3.42154,-0.83692 -1.41538,-0.84923 -2.16615,-2.36308 -0.73846,-1.52615 -0.73846,-3.56923 0,-1.98153 0.75077,-3.5323 0.76307,-1.56308 2.19077,-2.46154 1.42769,-0.91077 3.43384,-0.91077 2.60923,0 4.50462,1.56308 l -1.26769,1.73538 q -0.76308,-0.52923 -1.56308,-0.8 -0.8,-0.28308 -1.62462,-0.28308 -1.55077,0 -2.52307,1.13231 -0.97231,1.13231 -0.97231,3.55692 0,2.43693 0.98461,3.47077 0.98462,1.03385 2.49847,1.03385 z" id="path47004"/><path d="m 202.85905,138.49468 q 1.2923,0 2.05538,-0.45538 0.76308,-0.4677 0.76308,-1.28 0,-0.52923 -0.22154,-0.89846 -0.22154,-0.36924 -0.88615,-0.68924 -0.66462,-0.32 -2.01847,-0.66461 -1.28,-0.33231 -2.2523,-0.78769 -0.96,-0.45539 -1.48923,-1.18154 -0.52924,-0.72616 -0.52924,-1.87077 0,-1.67385 1.39077,-2.69539 1.40308,-1.03384 3.80308,-1.03384 1.63692,0 2.85539,0.43077 1.21846,0.43077 2.08,1.07077 l -1.15693,1.73538 q -0.76307,-0.50461 -1.67384,-0.82461 -0.89847,-0.32 -2.03077,-0.32 -1.31693,0 -1.89539,0.39384 -0.56615,0.39385 -0.56615,1.04616 0,0.4923 0.28308,0.8123 0.29538,0.32 1.00923,0.60308 0.71384,0.28308 2.01846,0.64 1.26769,0.34462 2.20307,0.81231 0.9477,0.46769 1.46462,1.24308 0.52923,0.76307 0.52923,1.99384 0,1.40308 -0.81231,2.30154 -0.8123,0.88615 -2.11692,1.31692 -1.30462,0.41846 -2.80615,0.41846 -1.80923,0 -3.12616,-0.51692 -1.31692,-0.52923 -2.21538,-1.31692 l 1.46461,-1.67385 q 0.76308,0.61539 1.7477,1.00923 0.98461,0.38154 2.12923,0.38154 z" id="path47006"/><path d="m 223.75752,139.59007 q -0.71385,0.45538 -1.71077,0.73846 -0.99692,0.28307 -2.08,0.28307 -2.26462,0 -3.44615,-1.16923 -1.16924,-1.18153 -1.16924,-3.10153 v -7.05231 h -2.8923 v -2.00616 h 2.8923 v -2.90461 l 2.75693,-0.33231 v 3.23692 h 4.38154 l -0.3077,2.00616 h -4.07384 v 7.02769 q 0,1.04615 0.51692,1.56308 0.52923,0.50461 1.72308,0.50461 0.71384,0 1.30461,-0.17231 0.60308,-0.1723 1.1077,-0.44307 z" id="path47008"/><path d="m 237.60368,137.0916 q 0,0.77539 0.23385,1.12 0.23385,0.34462 0.75077,0.51693 l -0.61539,1.87077 q -0.96,-0.11077 -1.66153,-0.52923 -0.68924,-0.41847 -1.03385,-1.2677 -0.71385,0.91077 -1.80923,1.36616 -1.09539,0.44307 -2.33846,0.44307 -1.98154,0 -3.12616,-1.10769 -1.14461,-1.12 -1.14461,-2.92923 0,-2.05538 1.6,-3.16308 1.6,-1.10769 4.57846,-1.10769 h 1.85846 v -0.84923 q 0,-1.26769 -0.76308,-1.80923 -0.76307,-0.55385 -2.12923,-0.55385 -0.64,0 -1.55077,0.17231 -0.91077,0.16 -1.90769,0.50462 l -0.67692,-1.94462 q 1.21846,-0.45538 2.38769,-0.66461 1.16923,-0.22154 2.16615,-0.22154 2.60924,0 3.88924,1.15692 1.2923,1.15692 1.2923,3.2 z m -5.63692,1.48924 q 0.83692,0 1.63692,-0.44308 0.8,-0.44308 1.29231,-1.24308 v -2.86769 h -1.52615 q -1.94462,0 -2.78154,0.65231 -0.83692,0.64 -0.83692,1.7723 0,2.12924 2.21538,2.12924 z" id="path47010"/><path d="m 253.296,139.59007 q -0.71384,0.45538 -1.71077,0.73846 -0.99692,0.28307 -2.08,0.28307 -2.26461,0 -3.44615,-1.16923 -1.16923,-1.18153 -1.16923,-3.10153 v -7.05231 h -2.89231 v -2.00616 h 2.89231 v -2.90461 l 2.75692,-0.33231 v 3.23692 h 4.38154 l -0.30769,2.00616 h -4.07385 v 7.02769 q 0,1.04615 0.51692,1.56308 0.52923,0.50461 1.72308,0.50461 0.71385,0 1.30462,-0.17231 0.60307,-0.1723 1.10769,-0.44307 z" id="path47012"/><path d="m 262.3914,120.9193 q 0.8123,0 1.30461,0.4923 0.50462,0.49231 0.50462,1.23077 0,0.73847 -0.50462,1.24308 -0.49231,0.50462 -1.30461,0.50462 -0.7877,0 -1.29231,-0.50462 -0.50462,-0.50461 -0.50462,-1.24308 0,-0.73846 0.50462,-1.23077 0.50461,-0.4923 1.29231,-0.4923 z m 1.92,6.36307 v 10.97847 h 3.5323 v 2.01846 h -10.17846 v -2.01846 h 3.88923 v -8.96 h -3.76615 v -2.01847 z" id="path47014"/><path d="m 278.24371,138.34699 q 0.91077,0 1.69847,-0.32 0.78769,-0.32 1.50153,-0.81231 l 1.28,1.77231 q -0.84923,0.72615 -2.06769,1.18154 -1.20615,0.44307 -2.49846,0.44307 -1.99385,0 -3.42154,-0.83692 -1.41538,-0.84923 -2.16615,-2.36308 -0.73846,-1.52615 -0.73846,-3.56923 0,-1.98153 0.75077,-3.5323 0.76307,-1.56308 2.19077,-2.46154 1.42769,-0.91077 3.43384,-0.91077 2.60923,0 4.50462,1.56308 l -1.2677,1.73538 q -0.76307,-0.52923 -1.56307,-0.8 -0.8,-0.28308 -1.62462,-0.28308 -1.55077,0 -2.52307,1.13231 -0.97231,1.13231 -0.97231,3.55692 0,2.43693 0.98461,3.47077 0.98462,1.03385 2.49846,1.03385 z" id="path47016"/><path d="m 304.27451,128.83314 q 0.66461,-0.88615 1.57538,-1.39077 0.91077,-0.50461 1.99385,-0.50461 1.71077,0 2.76923,0.84923 1.07077,0.83692 1.56307,2.37538 0.50462,1.52616 0.50462,3.59385 0,1.98154 -0.59077,3.53231 -0.59077,1.55077 -1.74769,2.43692 -1.14462,0.88615 -2.83077,0.88615 -2.17846,0 -3.42154,-1.6123 l -0.14769,1.28 h -2.42462 v -18.21539 l 2.75693,-0.30769 z m 2.54769,9.67385 q 1.40307,0 2.16615,-1.14462 0.77539,-1.14461 0.77539,-3.59384 0,-2.49846 -0.70154,-3.59385 -0.68923,-1.10769 -1.96923,-1.10769 -0.92308,0 -1.63693,0.55385 -0.70153,0.55384 -1.18153,1.30461 v 6.08 q 0.45538,0.70154 1.09538,1.10769 0.65231,0.39385 1.45231,0.39385 z" id="path47018"/><path d="m 321.49299,126.93776 q 2.85539,0 4.35693,1.85846 1.50153,1.85846 1.50153,4.96 0,2.06769 -0.68923,3.60615 -0.67692,1.53847 -1.99384,2.4 -1.30462,0.84923 -3.1877,0.84923 -2.84307,0 -4.35692,-1.83384 -1.51384,-1.84616 -1.51384,-4.99692 0,-2.01847 0.67692,-3.55693 0.68923,-1.55077 2.00615,-2.41231 1.31693,-0.87384 3.2,-0.87384 z m 0,2.14154 q -1.48923,0 -2.24,1.14461 -0.75077,1.13231 -0.75077,3.55693 0,2.42461 0.73846,3.56923 0.75077,1.1323 2.24,1.1323 1.48924,0 2.2277,-1.14461 0.75077,-1.14462 0.75077,-3.58154 0,-2.4 -0.73847,-3.53231 -0.73846,-1.14461 -2.22769,-1.14461 z" id="path47020"/><path d="m 336.26222,126.93776 q 2.85538,0 4.35692,1.85846 1.50154,1.85846 1.50154,4.96 0,2.06769 -0.68923,3.60615 -0.67692,1.53847 -1.99385,2.4 -1.30461,0.84923 -3.18769,0.84923 -2.84308,0 -4.35692,-1.83384 -1.51385,-1.84616 -1.51385,-4.99692 0,-2.01847 0.67692,-3.55693 0.68924,-1.55077 2.00616,-2.41231 1.31692,-0.87384 3.2,-0.87384 z m 0,2.14154 q -1.48923,0 -2.24,1.14461 -0.75077,1.13231 -0.75077,3.55693 0,2.42461 0.73846,3.56923 0.75077,1.1323 2.24,1.1323 1.48923,0 2.22769,-1.14461 0.75077,-1.14462 0.75077,-3.58154 0,-2.4 -0.73846,-3.53231 -0.73846,-1.14461 -2.22769,-1.14461 z" id="path47022"/><path d="m 351.53606,122.06391 v 14.67077 q 0,0.89846 0.54154,1.28 0.55384,0.36923 1.42769,0.36923 0.55385,0 1.05846,-0.11077 0.51693,-0.12307 0.99693,-0.32 l 0.70153,1.92 q -0.57846,0.29539 -1.42769,0.51693 -0.83692,0.22153 -1.92,0.22153 -1.95692,0 -3.05231,-1.10769 -1.08307,-1.10769 -1.08307,-3.01538 v -12.39385 h -3.92616 v -2.03077 z" id="path47024"/><path d="m 362.88378,134.66699 q 0.12307,2.00615 1.12,2.90461 1.00923,0.89847 2.42461,0.89847 0.9477,0 1.76,-0.29539 0.82462,-0.29538 1.64923,-0.83692 l 1.19385,1.64923 q -0.91077,0.73846 -2.12923,1.18154 -1.21846,0.44307 -2.60923,0.44307 -2.03077,0 -3.43385,-0.86153 -1.39077,-0.86154 -2.11692,-2.4 -0.71385,-1.53847 -0.71385,-3.55693 0,-1.95692 0.71385,-3.49538 0.71385,-1.55077 2.04308,-2.44923 1.32923,-0.91077 3.17538,-0.91077 2.58462,0 4.08615,1.73538 1.51385,1.73539 1.51385,4.76308 0,0.33231 -0.0246,0.66462 -0.0123,0.32 -0.0369,0.56615 z m 3.10154,-5.68615 q -1.29231,0 -2.14154,0.92307 -0.84923,0.92308 -0.97231,2.88 h 6.01846 q -0.0369,-1.83384 -0.78769,-2.81846 -0.73846,-0.98461 -2.11692,-0.98461 z" id="path47026"/><path d="m 385.29611,137.0916 q 0,0.77539 0.23385,1.12 0.23384,0.34462 0.75077,0.51693 l -0.61539,1.87077 q -0.96,-0.11077 -1.66154,-0.52923 -0.68923,-0.41847 -1.03384,-1.2677 -0.71385,0.91077 -1.80923,1.36616 -1.09539,0.44307 -2.33846,0.44307 -1.98154,0 -3.12616,-1.10769 -1.14461,-1.12 -1.14461,-2.92923 0,-2.05538 1.6,-3.16308 1.6,-1.10769 4.57846,-1.10769 h 1.85846 v -0.84923 q 0,-1.26769 -0.76308,-1.80923 -0.76307,-0.55385 -2.12923,-0.55385 -0.64,0 -1.55077,0.17231 -0.91077,0.16 -1.90769,0.50462 l -0.67692,-1.94462 q 1.21846,-0.45538 2.38769,-0.66461 1.16923,-0.22154 2.16615,-0.22154 2.60923,0 3.88923,1.15692 1.29231,1.15692 1.29231,3.2 z m -5.63692,1.48924 q 0.83692,0 1.63692,-0.44308 0.8,-0.44308 1.29231,-1.24308 v -2.86769 h -1.52615 q -1.94462,0 -2.78154,0.65231 -0.83693,0.64 -0.83693,1.7723 0,2.12924 2.21539,2.12924 z" id="path47028"/><path d="m 390.13303,140.2793 v -12.99693 h 2.37538 l 0.20924,1.68616 q 0.8123,-0.98462 1.92,-1.50154 1.10769,-0.52923 2.27692,-0.52923 1.82154,0 2.72,1.02154 0.91077,1.02154 0.91077,2.84307 v 9.47693 h -2.75693 v -8.11077 q 0,-1.68616 -0.34461,-2.4 -0.33231,-0.72616 -1.51385,-0.72616 -0.94769,0 -1.73538,0.59077 -0.77539,0.57846 -1.30462,1.31693 v 9.32923 z" id="path47030"/><path d="m 430.5269,139.59007 q -0.71385,0.45538 -1.71077,0.73846 -0.99693,0.28307 -2.08,0.28307 -2.26462,0 -3.44616,-1.16923 -1.16923,-1.18153 -1.16923,-3.10153 v -7.05231 h -2.8923 v -2.00616 h 2.8923 v -2.90461 l 2.75693,-0.33231 v 3.23692 h 4.38153 l -0.30769,2.00616 h -4.07384 v 7.02769 q 0,1.04615 0.51692,1.56308 0.52923,0.50461 1.72308,0.50461 0.71384,0 1.30461,-0.17231 0.60308,-0.1723 1.10769,-0.44307 z" id="path47032"/><path d="m 436.73,134.66699 q 0.12308,2.00615 1.12,2.90461 1.00923,0.89847 2.42462,0.89847 0.94769,0 1.76,-0.29539 0.82461,-0.29538 1.64923,-0.83692 l 1.19384,1.64923 q -0.91077,0.73846 -2.12923,1.18154 -1.21846,0.44307 -2.60923,0.44307 -2.03077,0 -3.43385,-0.86153 -1.39076,-0.86154 -2.11692,-2.4 -0.71384,-1.53847 -0.71384,-3.55693 0,-1.95692 0.71384,-3.49538 0.71385,-1.55077 2.04308,-2.44923 1.32923,-0.91077 3.17538,-0.91077 2.58462,0 4.08616,1.73538 1.51384,1.73539 1.51384,4.76308 0,0.33231 -0.0246,0.66462 -0.0123,0.32 -0.0369,0.56615 z m 3.10154,-5.68615 q -1.29231,0 -2.14154,0.92307 -0.84923,0.92308 -0.97231,2.88 h 6.01846 q -0.0369,-1.83384 -0.78769,-2.81846 -0.73846,-0.98461 -2.11692,-0.98461 z" id="path47034"/><path d="m 453.93615,138.49468 q 1.29231,0 2.05538,-0.45538 0.76308,-0.4677 0.76308,-1.28 0,-0.52923 -0.22154,-0.89846 -0.22154,-0.36924 -0.88615,-0.68924 -0.66462,-0.32 -2.01846,-0.66461 -1.28,-0.33231 -2.25231,-0.78769 -0.96,-0.45539 -1.48923,-1.18154 -0.52923,-0.72616 -0.52923,-1.87077 0,-1.67385 1.39077,-2.69539 1.40307,-1.03384 3.80307,-1.03384 1.63693,0 2.85539,0.43077 1.21846,0.43077 2.08,1.07077 l -1.15692,1.73538 q -0.76308,-0.50461 -1.67385,-0.82461 -0.89846,-0.32 -2.03077,-0.32 -1.31692,0 -1.89538,0.39384 -0.56616,0.39385 -0.56616,1.04616 0,0.4923 0.28308,0.8123 0.29538,0.32 1.00923,0.60308 0.71385,0.28308 2.01846,0.64 1.26769,0.34462 2.20308,0.81231 0.94769,0.46769 1.46461,1.24308 0.52923,0.76307 0.52923,1.99384 0,1.40308 -0.8123,2.30154 -0.81231,0.88615 -2.11693,1.31692 -1.30461,0.41846 -2.80615,0.41846 -1.80923,0 -3.12615,-0.51692 -1.31693,-0.52923 -2.21539,-1.31692 l 1.46462,-1.67385 q 0.76307,0.61539 1.74769,1.00923 0.98461,0.38154 2.12923,0.38154 z" id="path47036"/><path d="m 474.83461,139.59007 q -0.71385,0.45538 -1.71077,0.73846 -0.99693,0.28307 -2.08,0.28307 -2.26462,0 -3.44616,-1.16923 -1.16923,-1.18153 -1.16923,-3.10153 v -7.05231 h -2.89231 v -2.00616 h 2.89231 v -2.90461 l 2.75693,-0.33231 v 3.23692 h 4.38153 l -0.30769,2.00616 h -4.07384 v 7.02769 q 0,1.04615 0.51692,1.56308 0.52923,0.50461 1.72308,0.50461 0.71384,0 1.30461,-0.17231 0.60308,-0.1723 1.10769,-0.44307 z" id="path47038"/><path d="m 489.60386,138.11314 v 2.16616 h -10.27692 v -2.16616 h 4.14769 v -11.98769 l -3.74154,2.30154 -1.18154,-1.93231 5.21847,-3.2 h 2.43692 v 14.81846 z" id="path47040"/><path d="m 497.01312,131.66391 q 0,2.36308 0.51692,4.14769 0.52923,1.78462 1.63693,3.3477 1.12,1.56307 2.88,3.24923 l -1.52616,1.47692 q -1.98154,-1.63692 -3.40923,-3.40923 -1.41538,-1.77231 -2.17846,-3.90154 -0.76308,-2.14154 -0.76308,-4.91077 0,-2.76923 0.76308,-4.89846 0.76308,-2.14154 2.17846,-3.91385 1.42769,-1.7723 3.40923,-3.40923 l 1.52616,1.47693 q -1.72308,1.66154 -2.84308,3.22461 -1.12,1.55077 -1.66154,3.34769 -0.52923,1.79693 -0.52923,4.17231 z" id="path47042"/><path d="m 513.4685,120.9193 q 0.81231,0 1.30461,0.4923 0.50462,0.49231 0.50462,1.23077 0,0.73847 -0.50462,1.24308 -0.4923,0.50462 -1.30461,0.50462 -0.78769,0 -1.29231,-0.50462 -0.50461,-0.50461 -0.50461,-1.24308 0,-0.73846 0.50461,-1.23077 0.50462,-0.4923 1.29231,-0.4923 z m 1.92,6.36307 v 10.97847 h 3.53231 v 2.01846 h -10.17846 v -2.01846 h 3.88923 v -8.96 h -3.76616 v -2.01847 z" id="path47044"/><path d="m 523.05619,140.2793 v -12.99693 h 2.37538 l 0.20923,1.68616 q 0.81231,-0.98462 1.92,-1.50154 1.10769,-0.52923 2.27693,-0.52923 1.82153,0 2.72,1.02154 0.91076,1.02154 0.91076,2.84307 v 9.47693 h -2.75692 v -8.11077 q 0,-1.68616 -0.34461,-2.4 -0.33231,-0.72616 -1.51385,-0.72616 -0.94769,0 -1.73538,0.59077 -0.77539,0.57846 -1.30462,1.31693 v 9.32923 z" id="path47046"/><path d="m 548.68083,139.59007 q -0.71385,0.45538 -1.71077,0.73846 -0.99692,0.28307 -2.08,0.28307 -2.26462,0 -3.44616,-1.16923 -1.16923,-1.18153 -1.16923,-3.10153 v -7.05231 h -2.8923 v -2.00616 h 2.8923 v -2.90461 l 2.75693,-0.33231 v 3.23692 h 4.38154 l -0.3077,2.00616 h -4.07384 v 7.02769 q 0,1.04615 0.51692,1.56308 0.52923,0.50461 1.72308,0.50461 0.71384,0 1.30461,-0.17231 0.60308,-0.1723 1.10769,-0.44307 z" id="path47048"/><path d="m 569.28393,140.2793 h -3.05231 l 4.66461,-6.85539 -4.14769,-6.14154 h 3.17539 l 2.65846,4.57847 2.65846,-4.57847 h 3.02769 l -4.06154,6.03077 4.67693,6.96616 H 575.647 l -3.18769,-5.30462 z" id="path47050"/><path d="m 589.02546,131.66391 q 0,-2.37538 -0.54154,-4.17231 -0.52923,-1.79692 -1.64923,-3.34769 -1.12,-1.56307 -2.84308,-3.22461 l 1.52616,-1.47693 q 1.98154,1.63693 3.39692,3.40923 1.42769,1.77231 2.19077,3.91385 0.76308,2.12923 0.76308,4.89846 0,2.76923 -0.76308,4.91077 -0.76308,2.12923 -2.19077,3.90154 -1.41538,1.77231 -3.39692,3.40923 l -1.52616,-1.47692 q 1.76,-1.68616 2.8677,-3.24923 1.12,-1.56308 1.63692,-3.3477 0.52923,-1.78461 0.52923,-4.14769 z" id="path47052"/><path d="m 620.73013,119.67622 v 2.03077 q -1.2677,0 -2.08,0.38154 -0.81231,0.38154 -0.70154,1.42769 l 0.45538,4.51692 q 0.18462,1.7477 -0.60307,2.57231 -0.7877,0.81231 -2.27693,1.05846 1.55077,0.25846 2.30154,1.04616 0.76308,0.77538 0.57846,2.58461 l -0.45538,4.51692 q -0.11077,1.05847 0.70154,1.4277 0.8123,0.38154 2.08,0.38154 v 2.03076 q -1.71077,0 -2.97846,-0.36923 -1.25539,-0.36923 -1.89539,-1.26769 -0.62769,-0.89846 -0.45538,-2.46154 l 0.45538,-4.24615 q 0.13539,-1.30462 -0.66461,-1.92 -0.8,-0.61539 -2.92924,-0.61539 v -2.21538 q 2.12924,0 2.92924,-0.60308 0.8,-0.60307 0.66461,-1.92 l -0.45538,-4.24615 q -0.17231,-1.57539 0.45538,-2.47385 0.64,-0.89846 1.89539,-1.26769 1.26769,-0.36923 2.97846,-0.36923 z" id="path47054"/><path d="m 156.58209,158.83314 q 0.66462,-0.88615 1.57539,-1.39077 0.91077,-0.50461 1.99384,-0.50461 1.71077,0 2.76923,0.84923 1.07077,0.83692 1.56308,2.37538 0.50462,1.52616 0.50462,3.59385 0,1.98154 -0.59077,3.53231 -0.59077,1.55077 -1.7477,2.43692 -1.14461,0.88615 -2.83077,0.88615 -2.17846,0 -3.42153,-1.6123 l -0.1477,1.28 h -2.42461 v -18.21539 l 2.75692,-0.30769 z m 2.54769,9.67385 q 1.40308,0 2.16616,-1.14462 0.77538,-1.14461 0.77538,-3.59384 0,-2.49846 -0.70154,-3.59385 -0.68923,-1.10769 -1.96923,-1.10769 -0.92307,0 -1.63692,0.55385 -0.70154,0.55384 -1.18154,1.30461 v 6.08 q 0.45539,0.70154 1.09539,1.10769 0.6523,0.39385 1.4523,0.39385 z" id="path47056"/><path d="m 173.80056,156.93776 q 2.85539,0 4.35693,1.85846 1.50154,1.85846 1.50154,4.96 0,2.06769 -0.68924,3.60615 -0.67692,1.53847 -1.99384,2.4 -1.30462,0.84923 -3.18769,0.84923 -2.84308,0 -4.35693,-1.83384 -1.51384,-1.84616 -1.51384,-4.99692 0,-2.01847 0.67692,-3.55693 0.68923,-1.55077 2.00615,-2.41231 1.31693,-0.87384 3.2,-0.87384 z m 0,2.14154 q -1.48923,0 -2.24,1.14461 -0.75077,1.13231 -0.75077,3.55693 0,2.42461 0.73847,3.56923 0.75077,1.1323 2.24,1.1323 1.48923,0 2.22769,-1.14461 0.75077,-1.14462 0.75077,-3.58154 0,-2.4 -0.73846,-3.53231 -0.73847,-1.14461 -2.2277,-1.14461 z" id="path47058"/><path d="m 188.56981,156.93776 q 2.85538,0 4.35692,1.85846 1.50154,1.85846 1.50154,4.96 0,2.06769 -0.68923,3.60615 -0.67693,1.53847 -1.99385,2.4 -1.30462,0.84923 -3.18769,0.84923 -2.84308,0 -4.35693,-1.83384 -1.51384,-1.84616 -1.51384,-4.99692 0,-2.01847 0.67692,-3.55693 0.68923,-1.55077 2.00616,-2.41231 1.31692,-0.87384 3.2,-0.87384 z m 0,2.14154 q -1.48924,0 -2.24,1.14461 -0.75077,1.13231 -0.75077,3.55693 0,2.42461 0.73846,3.56923 0.75077,1.1323 2.24,1.1323 1.48923,0 2.22769,-1.14461 0.75077,-1.14462 0.75077,-3.58154 0,-2.4 -0.73846,-3.53231 -0.73846,-1.14461 -2.22769,-1.14461 z" id="path47060"/><path d="m 203.84366,152.06391 v 14.67077 q 0,0.89846 0.54154,1.28 0.55385,0.36923 1.42769,0.36923 0.55385,0 1.05846,-0.11077 0.51693,-0.12307 0.99693,-0.32 l 0.70154,1.92 q -0.57847,0.29539 -1.4277,0.51693 -0.83692,0.22153 -1.92,0.22153 -1.95692,0 -3.0523,-1.10769 -1.08308,-1.10769 -1.08308,-3.01538 v -12.39385 h -3.92616 v -2.03077 z" id="path47062"/><path d="m 215.19136,164.66699 q 0.12308,2.00615 1.12,2.90461 1.00924,0.89847 2.42462,0.89847 0.94769,0 1.76,-0.29539 0.82462,-0.29538 1.64923,-0.83692 l 1.19385,1.64923 q -0.91077,0.73846 -2.12923,1.18154 -1.21847,0.44307 -2.60923,0.44307 -2.03077,0 -3.43385,-0.86153 -1.39077,-0.86154 -2.11692,-2.4 -0.71385,-1.53847 -0.71385,-3.55693 0,-1.95692 0.71385,-3.49538 0.71384,-1.55077 2.04307,-2.44923 1.32923,-0.91077 3.17539,-0.91077 2.58461,0 4.08615,1.73538 1.51385,1.73539 1.51385,4.76308 0,0.33231 -0.0246,0.66462 -0.0123,0.32 -0.0369,0.56615 z m 3.10154,-5.68615 q -1.2923,0 -2.14154,0.92307 -0.84923,0.92308 -0.9723,2.88 h 6.01846 q -0.0369,-1.83384 -0.78769,-2.81846 -0.73847,-0.98461 -2.11693,-0.98461 z" id="path47064"/><path d="m 237.60368,167.0916 q 0,0.77539 0.23385,1.12 0.23385,0.34462 0.75077,0.51693 l -0.61539,1.87077 q -0.96,-0.11077 -1.66153,-0.52923 -0.68924,-0.41847 -1.03385,-1.2677 -0.71385,0.91077 -1.80923,1.36616 -1.09539,0.44307 -2.33846,0.44307 -1.98154,0 -3.12616,-1.10769 -1.14461,-1.12 -1.14461,-2.92923 0,-2.05538 1.6,-3.16308 1.6,-1.10769 4.57846,-1.10769 h 1.85846 v -0.84923 q 0,-1.26769 -0.76308,-1.80923 -0.76307,-0.55385 -2.12923,-0.55385 -0.64,0 -1.55077,0.17231 -0.91077,0.16 -1.90769,0.50462 l -0.67692,-1.94462 q 1.21846,-0.45538 2.38769,-0.66461 1.16923,-0.22154 2.16615,-0.22154 2.60924,0 3.88924,1.15692 1.2923,1.15692 1.2923,3.2 z m -5.63692,1.48924 q 0.83692,0 1.63692,-0.44308 0.8,-0.44308 1.29231,-1.24308 v -2.86769 h -1.52615 q -1.94462,0 -2.78154,0.65231 -0.83692,0.64 -0.83692,1.7723 0,2.12924 2.21538,2.12924 z" id="path47066"/><path d="m 242.44062,170.2793 v -12.99693 h 2.37538 l 0.20923,1.68616 q 0.81231,-0.98462 1.92,-1.50154 1.10769,-0.52923 2.27693,-0.52923 1.82153,0 2.72,1.02154 0.91076,1.02154 0.91076,2.84307 v 9.47693 H 250.096 v -8.11077 q 0,-1.68616 -0.34461,-2.4 -0.33231,-0.72616 -1.51385,-0.72616 -0.94769,0 -1.73538,0.59077 -0.77539,0.57846 -1.30462,1.31693 v 9.32923 z" id="path47068"/><path d="m 278.56371,155.59622 v 14.68308 h -2.85538 v -14.68308 h -5.09538 v -2.30154 h 13.16923 l -0.29539,2.30154 z" id="path47070"/><path d="m 286.87142,170.2793 v -1.96923 h 1.90769 v -9.07077 h -1.90769 v -1.95693 h 4.01231 l 0.50461,3.01539 q 0.72615,-1.63692 1.79692,-2.48616 1.08308,-0.86153 2.78154,-0.86153 0.57846,0 1.03385,0.0985 0.46769,0.0862 0.92308,0.23384 l -0.4677,4.7877 h -1.96923 v -2.64616 q -1.37846,0.0492 -2.37538,1.10769 -0.99693,1.04616 -1.57539,2.95385 v 4.82462 h 2.62154 v 1.96923 z" id="path47072"/><path d="m 304.27451,157.28237 v 9.08308 q 0,1.15692 0.45538,1.64923 0.46769,0.49231 1.40308,0.49231 0.88615,0 1.71077,-0.52923 0.82461,-0.52923 1.30461,-1.29231 v -9.40308 h 2.75692 v 12.99693 h -2.37538 l -0.17231,-1.66154 q -0.72615,0.97231 -1.83384,1.48923 -1.1077,0.50461 -2.26462,0.50461 -1.89538,0 -2.81846,-1.03384 -0.92308,-1.04616 -0.92308,-2.86769 v -9.4277 z" id="path47074"/><path d="m 318.57607,164.66699 q 0.12308,2.00615 1.12,2.90461 1.00923,0.89847 2.42461,0.89847 0.9477,0 1.76,-0.29539 0.82462,-0.29538 1.64924,-0.83692 l 1.19384,1.64923 q -0.91077,0.73846 -2.12923,1.18154 -1.21846,0.44307 -2.60923,0.44307 -2.03077,0 -3.43385,-0.86153 -1.39077,-0.86154 -2.11692,-2.4 -0.71385,-1.53847 -0.71385,-3.55693 0,-1.95692 0.71385,-3.49538 0.71385,-1.55077 2.04308,-2.44923 1.32923,-0.91077 3.17538,-0.91077 2.58462,0 4.08616,1.73538 1.51384,1.73539 1.51384,4.76308 0,0.33231 -0.0246,0.66462 -0.0123,0.32 -0.0369,0.56615 z m 3.10154,-5.68615 q -1.29231,0 -2.14154,0.92307 -0.84923,0.92308 -0.97231,2.88 h 6.01846 q -0.0369,-1.83384 -0.78769,-2.81846 -0.73846,-0.98461 -2.11692,-0.98461 z" id="path47076"/><path d="m 356.11452,159.06699 v 2.25231 h -10.19077 v -2.25231 z m 0,4.86154 v 2.25231 h -10.19077 v -2.25231 z" id="path47078"/><path d="m 377.2838,170.2793 h -3.0523 l 4.66461,-6.85539 -4.14769,-6.14154 h 3.17538 l 2.65847,4.57847 2.65846,-4.57847 h 3.02769 l -4.06154,6.03077 4.67692,6.96616 h -3.23692 l -3.18769,-5.30462 z" id="path47080"/><path d="m 429.96074,159.06699 v 2.25231 h -24.96 v -2.25231 z m 0,4.86154 v 2.25231 h -24.96 v -2.25231 z" id="path47082"/><path d="m 460.06538,168.11314 v 2.16616 h -10.27692 v -2.16616 h 4.14769 v -11.98769 l -3.74154,2.30154 -1.18154,-1.93231 5.21846,-3.2 h 2.43693 v 14.81846 z" id="path47084"/><path d="m 469.16076,157.44237 q 0.93538,0 1.57538,0.65231 0.64,0.64 0.64,1.55077 0,0.91077 -0.64,1.57539 -0.64,0.6523 -1.57538,0.6523 -0.93538,0 -1.57538,-0.6523 -0.64,-0.66462 -0.64,-1.57539 0,-0.91077 0.64,-1.55077 0.64,-0.65231 1.57538,-0.65231 z m 0,8.4677 q 0.94769,0 1.57538,0.64 0.64,0.64 0.64,1.56307 0,0.54154 -0.1723,1.09539 -0.16,0.55384 -0.51693,1.35384 l -1.88307,4.3077 h -2.11693 l 1.18154,-4.93539 q -0.92307,-0.64 -0.92307,-1.83384 0,-0.91077 0.64,-1.55077 0.64,-0.64 1.57538,-0.64 z" id="path47086"/><path d="m 156.58209,188.83314 q 0.66462,-0.88615 1.57539,-1.39077 0.91077,-0.50461 1.99384,-0.50461 1.71077,0 2.76923,0.84923 1.07077,0.83692 1.56308,2.37538 0.50462,1.52616 0.50462,3.59385 0,1.98154 -0.59077,3.53231 -0.59077,1.55077 -1.7477,2.43692 -1.14461,0.88615 -2.83077,0.88615 -2.17846,0 -3.42153,-1.6123 l -0.1477,1.28 h -2.42461 v -18.21539 l 2.75692,-0.30769 z m 2.54769,9.67385 q 1.40308,0 2.16616,-1.14462 0.77538,-1.14461 0.77538,-3.59384 0,-2.49846 -0.70154,-3.59385 -0.68923,-1.10769 -1.96923,-1.10769 -0.92307,0 -1.63692,0.55385 -0.70154,0.55384 -1.18154,1.30461 v 6.08 q 0.45539,0.70154 1.09539,1.10769 0.6523,0.39385 1.4523,0.39385 z" id="path47088"/><path d="m 173.80056,186.93776 q 2.85539,0 4.35693,1.85846 1.50154,1.85846 1.50154,4.96 0,2.06769 -0.68924,3.60615 -0.67692,1.53847 -1.99384,2.4 -1.30462,0.84923 -3.18769,0.84923 -2.84308,0 -4.35693,-1.83384 -1.51384,-1.84616 -1.51384,-4.99692 0,-2.01847 0.67692,-3.55693 0.68923,-1.55077 2.00615,-2.41231 1.31693,-0.87384 3.2,-0.87384 z m 0,2.14154 q -1.48923,0 -2.24,1.14461 -0.75077,1.13231 -0.75077,3.55693 0,2.42461 0.73847,3.56923 0.75077,1.1323 2.24,1.1323 1.48923,0 2.22769,-1.14461 0.75077,-1.14462 0.75077,-3.58154 0,-2.4 -0.73846,-3.53231 -0.73847,-1.14461 -2.2277,-1.14461 z" id="path47090"/><path d="m 188.56981,186.93776 q 2.85538,0 4.35692,1.85846 1.50154,1.85846 1.50154,4.96 0,2.06769 -0.68923,3.60615 -0.67693,1.53847 -1.99385,2.4 -1.30462,0.84923 -3.18769,0.84923 -2.84308,0 -4.35693,-1.83384 -1.51384,-1.84616 -1.51384,-4.99692 0,-2.01847 0.67692,-3.55693 0.68923,-1.55077 2.00616,-2.41231 1.31692,-0.87384 3.2,-0.87384 z m 0,2.14154 q -1.48924,0 -2.24,1.14461 -0.75077,1.13231 -0.75077,3.55693 0,2.42461 0.73846,3.56923 0.75077,1.1323 2.24,1.1323 1.48923,0 2.22769,-1.14461 0.75077,-1.14462 0.75077,-3.58154 0,-2.4 -0.73846,-3.53231 -0.73846,-1.14461 -2.22769,-1.14461 z" id="path47092"/><path d="m 203.84366,182.06391 v 14.67077 q 0,0.89846 0.54154,1.28 0.55385,0.36923 1.42769,0.36923 0.55385,0 1.05846,-0.11077 0.51693,-0.12307 0.99693,-0.32 l 0.70154,1.92 q -0.57847,0.29539 -1.4277,0.51693 -0.83692,0.22153 -1.92,0.22153 -1.95692,0 -3.0523,-1.10769 -1.08308,-1.10769 -1.08308,-3.01538 v -12.39385 h -3.92616 v -2.03077 z" id="path47094"/><path d="m 215.19136,194.66699 q 0.12308,2.00615 1.12,2.90461 1.00924,0.89847 2.42462,0.89847 0.94769,0 1.76,-0.29539 0.82462,-0.29538 1.64923,-0.83692 l 1.19385,1.64923 q -0.91077,0.73846 -2.12923,1.18154 -1.21847,0.44307 -2.60923,0.44307 -2.03077,0 -3.43385,-0.86153 -1.39077,-0.86154 -2.11692,-2.4 -0.71385,-1.53847 -0.71385,-3.55693 0,-1.95692 0.71385,-3.49538 0.71384,-1.55077 2.04307,-2.44923 1.32923,-0.91077 3.17539,-0.91077 2.58461,0 4.08615,1.73538 1.51385,1.73539 1.51385,4.76308 0,0.33231 -0.0246,0.66462 -0.0123,0.32 -0.0369,0.56615 z m 3.10154,-5.68615 q -1.2923,0 -2.14154,0.92307 -0.84923,0.92308 -0.9723,2.88 h 6.01846 q -0.0369,-1.83384 -0.78769,-2.81846 -0.73847,-0.98461 -2.11693,-0.98461 z" id="path47096"/><path d="m 237.60368,197.0916 q 0,0.77539 0.23385,1.12 0.23385,0.34462 0.75077,0.51693 l -0.61539,1.87077 q -0.96,-0.11077 -1.66153,-0.52923 -0.68924,-0.41847 -1.03385,-1.2677 -0.71385,0.91077 -1.80923,1.36616 -1.09539,0.44307 -2.33846,0.44307 -1.98154,0 -3.12616,-1.10769 -1.14461,-1.12 -1.14461,-2.92923 0,-2.05538 1.6,-3.16308 1.6,-1.10769 4.57846,-1.10769 h 1.85846 v -0.84923 q 0,-1.26769 -0.76308,-1.80923 -0.76307,-0.55385 -2.12923,-0.55385 -0.64,0 -1.55077,0.17231 -0.91077,0.16 -1.90769,0.50462 l -0.67692,-1.94462 q 1.21846,-0.45538 2.38769,-0.66461 1.16923,-0.22154 2.16615,-0.22154 2.60924,0 3.88924,1.15692 1.2923,1.15692 1.2923,3.2 z m -5.63692,1.48924 q 0.83692,0 1.63692,-0.44308 0.8,-0.44308 1.29231,-1.24308 v -2.86769 h -1.52615 q -1.94462,0 -2.78154,0.65231 -0.83692,0.64 -0.83692,1.7723 0,2.12924 2.21538,2.12924 z" id="path47098"/><path d="m 242.44062,200.2793 v -12.99693 h 2.37538 l 0.20923,1.68616 q 0.81231,-0.98462 1.92,-1.50154 1.10769,-0.52923 2.27693,-0.52923 1.82153,0 2.72,1.02154 0.91076,1.02154 0.91076,2.84307 v 9.47693 H 250.096 v -8.11077 q 0,-1.68616 -0.34461,-2.4 -0.33231,-0.72616 -1.51385,-0.72616 -0.94769,0 -1.73538,0.59077 -0.77539,0.57846 -1.30462,1.31693 v 9.32923 z" id="path47100"/><path d="m 275.76987,185.46084 v 5.40307 h 6.38769 v 2.16616 h -6.38769 v 7.24923 h -2.85539 v -16.98462 h 10.44923 l -0.32,2.16616 z" id="path47102"/><path d="m 296.68065,197.0916 q 0,0.77539 0.23384,1.12 0.23385,0.34462 0.75077,0.51693 l -0.61538,1.87077 q -0.96,-0.11077 -1.66154,-0.52923 -0.68923,-0.41847 -1.03385,-1.2677 -0.71384,0.91077 -1.80923,1.36616 -1.09538,0.44307 -2.33846,0.44307 -1.98154,0 -3.12615,-1.10769 -1.14462,-1.12 -1.14462,-2.92923 0,-2.05538 1.6,-3.16308 1.6,-1.10769 4.57846,-1.10769 h 1.85847 v -0.84923 q 0,-1.26769 -0.76308,-1.80923 -0.76308,-0.55385 -2.12923,-0.55385 -0.64,0 -1.55077,0.17231 -0.91077,0.16 -1.90769,0.50462 l -0.67693,-1.94462 q 1.21847,-0.45538 2.3877,-0.66461 1.16923,-0.22154 2.16615,-0.22154 2.60923,0 3.88923,1.15692 1.29231,1.15692 1.29231,3.2 z m -5.63692,1.48924 q 0.83692,0 1.63692,-0.44308 0.8,-0.44308 1.29231,-1.24308 v -2.86769 h -1.52616 q -1.94461,0 -2.78154,0.65231 -0.83692,0.64 -0.83692,1.7723 0,2.12924 2.21539,2.12924 z" id="path47104"/><path d="m 307.22835,182.06391 v 14.67077 q 0,0.89846 0.54154,1.28 0.55385,0.36923 1.42769,0.36923 0.55385,0 1.05846,-0.11077 0.51693,-0.12307 0.99693,-0.32 l 0.70154,1.92 q -0.57847,0.29539 -1.4277,0.51693 -0.83692,0.22153 -1.92,0.22153 -1.95692,0 -3.0523,-1.10769 -1.08308,-1.10769 -1.08308,-3.01538 v -12.39385 h -3.92616 v -2.03077 z" id="path47106"/><path d="m 321.01299,198.49468 q 1.29231,0 2.05539,-0.45538 0.76307,-0.4677 0.76307,-1.28 0,-0.52923 -0.22153,-0.89846 -0.22154,-0.36924 -0.88616,-0.68924 -0.66461,-0.32 -2.01846,-0.66461 -1.28,-0.33231 -2.25231,-0.78769 -0.96,-0.45539 -1.48923,-1.18154 -0.52923,-0.72616 -0.52923,-1.87077 0,-1.67385 1.39077,-2.69539 1.40308,-1.03384 3.80308,-1.03384 1.63692,0 2.85538,0.43077 1.21846,0.43077 2.08,1.07077 l -1.15692,1.73538 q -0.76308,-0.50461 -1.67385,-0.82461 -0.89846,-0.32 -2.03077,-0.32 -1.31692,0 -1.89538,0.39384 -0.56616,0.39385 -0.56616,1.04616 0,0.4923 0.28308,0.8123 0.29539,0.32 1.00923,0.60308 0.71385,0.28308 2.01846,0.64 1.2677,0.34462 2.20308,0.81231 0.94769,0.46769 1.46462,1.24308 0.52923,0.76307 0.52923,1.99384 0,1.40308 -0.81231,2.30154 -0.81231,0.88615 -2.11692,1.31692 -1.30462,0.41846 -2.80616,0.41846 -1.80923,0 -3.12615,-0.51692 -1.31692,-0.52923 -2.21539,-1.31692 l 1.46462,-1.67385 q 0.76308,0.61539 1.74769,1.00923 0.98462,0.38154 2.12923,0.38154 z" id="path47108"/><path d="m 333.3453,194.66699 q 0.12307,2.00615 1.12,2.90461 1.00923,0.89847 2.42461,0.89847 0.94769,0 1.76,-0.29539 0.82462,-0.29538 1.64923,-0.83692 l 1.19385,1.64923 q -0.91077,0.73846 -2.12923,1.18154 -1.21846,0.44307 -2.60923,0.44307 -2.03077,0 -3.43385,-0.86153 -1.39077,-0.86154 -2.11692,-2.4 -0.71385,-1.53847 -0.71385,-3.55693 0,-1.95692 0.71385,-3.49538 0.71384,-1.55077 2.04307,-2.44923 1.32923,-0.91077 3.17539,-0.91077 2.58461,0 4.08615,1.73538 1.51385,1.73539 1.51385,4.76308 0,0.33231 -0.0246,0.66462 -0.0123,0.32 -0.0369,0.56615 z m 3.10153,-5.68615 q -1.2923,0 -2.14153,0.92307 -0.84924,0.92308 -0.97231,2.88 h 6.01846 q -0.0369,-1.83384 -0.78769,-2.81846 -0.73846,-0.98461 -2.11693,-0.98461 z" id="path47110"/><path d="m 370.88378,189.06699 v 2.25231 h -10.19077 v -2.25231 z m 0,4.86154 v 2.25231 h -10.19077 v -2.25231 z" id="path47112"/><path d="m 392.05303,200.2793 h -3.05231 l 4.66462,-6.85539 -4.14769,-6.14154 h 3.17538 l 2.65846,4.57847 2.65846,-4.57847 h 3.0277 l -4.06154,6.03077 4.67692,6.96616 h -3.23692 l -3.1877,-5.30462 z" id="path47114"/><path d="m 423.51151,185.90391 h 2.70769 l -0.30769,4.86154 4.51693,-1.77231 0.82461,2.53539 -4.70154,1.21846 3.08923,3.76615 -2.15384,1.55077 -2.62154,-4.08615 -2.62154,4.08615 -2.15385,-1.55077 3.08923,-3.76615 -4.70153,-1.21846 0.82461,-2.53539 4.51692,1.77231 z" id="path47116"/><path d="m 451.13,200.2793 h -3.05231 l 4.66461,-6.85539 -4.14769,-6.14154 H 451.77 l 2.65846,4.57847 2.65846,-4.57847 h 3.02769 l -4.06154,6.03077 4.67693,6.96616 h -3.23693 l -3.18769,-5.30462 z" id="path47118"/><path d="m 478.85925,193.70699 v -2.26462 h 10.16615 v 2.26462 z" id="path47120"/><path d="m 519.14235,198.11314 v 2.16616 h -10.27693 v -2.16616 h 4.14769 v -11.98769 l -3.74153,2.30154 -1.18154,-1.93231 5.21846,-3.2 h 2.43692 v 14.81846 z" id="path47122"/><path d="m 545.64085,202.87622 -2.10461,-1.04615 3.37231,-5.64923 h -8.98462 v -2.25231 h 10.33846 l 1.55077,-2.60923 h -11.88923 v -2.25231 h 13.24308 l 4.04923,-6.79385 2.05538,1.02154 -3.43384,5.77231 h 9.04615 v 2.25231 h -10.38769 l -1.53846,2.60923 h 11.92615 v 2.25231 h -13.26769 z" id="path47124"/><path d="m 585.62854,191.66391 q 0,2.36308 0.51692,4.14769 0.52923,1.78462 1.63692,3.3477 1.12,1.56307 2.88,3.24923 l -1.52615,1.47692 q -1.98154,-1.63692 -3.40923,-3.40923 -1.41539,-1.77231 -2.17846,-3.90154 -0.76308,-2.14154 -0.76308,-4.91077 0,-2.76923 0.76308,-4.89846 0.76307,-2.14154 2.17846,-3.91385 1.42769,-1.7723 3.40923,-3.40923 l 1.52615,1.47693 q -1.72307,1.66154 -2.84307,3.22461 -1.12,1.55077 -1.66154,3.34769 -0.52923,1.79693 -0.52923,4.17231 z" id="path47126"/><path d="m 598.82244,200.2793 h -3.05231 l 4.66462,-6.85539 -4.1477,-6.14154 h 3.17539 l 2.65846,4.57847 2.65846,-4.57847 h 3.02769 l -4.06153,6.03077 4.67692,6.96616 h -3.23692 l -3.1877,-5.30462 z" id="path47128"/><path d="m 626.55166,193.70699 v -2.26462 h 10.16615 v 2.26462 z" id="path47130"/><path d="m 666.83473,198.11314 v 2.16616 H 656.5578 v -2.16616 h 4.1477 v -11.98769 l -3.74154,2.30154 -1.18154,-1.93231 5.21846,-3.2 h 2.43692 v 14.81846 z" id="path47132"/><path d="m 677.64094,191.66391 q 0,-2.37538 -0.54154,-4.17231 -0.52923,-1.79692 -1.64923,-3.34769 -1.12,-1.56307 -2.84308,-3.22461 l 1.52616,-1.47693 q 1.98153,1.63693 3.39692,3.40923 1.42769,1.77231 2.19077,3.91385 0.76308,2.12923 0.76308,4.89846 0,2.76923 -0.76308,4.91077 -0.76308,2.12923 -2.19077,3.90154 -1.41539,1.77231 -3.39692,3.40923 l -1.52616,-1.47692 q 1.76,-1.68616 2.86769,-3.24923 1.12,-1.56308 1.63693,-3.3477 0.52923,-1.78461 0.52923,-4.14769 z" id="path47134"/><path d="m 704.12708,185.90391 h 2.7077 l -0.3077,4.86154 4.51693,-1.77231 0.82461,2.53539 -4.70154,1.21846 3.08923,3.76615 -2.15384,1.55077 -2.62154,-4.08615 -2.62154,4.08615 -2.15385,-1.55077 3.08924,-3.76615 -4.70154,-1.21846 0.82461,-2.53539 4.51693,1.77231 z" id="path47136"/><path d="m 733.32098,191.66391 q 0,2.36308 0.51692,4.14769 0.52923,1.78462 1.63693,3.3477 1.12,1.56307 2.88,3.24923 l -1.52616,1.47692 q -1.98154,-1.63692 -3.40923,-3.40923 -1.41538,-1.77231 -2.17846,-3.90154 -0.76308,-2.14154 -0.76308,-4.91077 0,-2.76923 0.76308,-4.89846 0.76308,-2.14154 2.17846,-3.91385 1.42769,-1.7723 3.40923,-3.40923 l 1.52616,1.47693 q -1.72308,1.66154 -2.84308,3.22461 -1.12,1.55077 -1.66154,3.34769 -0.52923,1.79693 -0.52923,4.17231 z" id="path47138"/><path d="m 746.51482,200.2793 h -3.05231 l 4.66462,-6.85539 -4.14769,-6.14154 h 3.17538 l 2.65846,4.57847 2.65847,-4.57847 h 3.02769 l -4.06154,6.03077 4.67692,6.96616 h -3.23692 l -3.18769,-5.30462 z" id="path47140"/><path d="m 780.52097,186.54391 v 4.96 h 4.88615 v 2.21539 h -4.88615 v 4.94769 h -2.42462 v -4.94769 h -4.84923 v -2.21539 h 4.84923 v -4.96 z" id="path47142"/><path d="m 814.52717,198.11314 v 2.16616 h -10.27692 v -2.16616 h 4.14769 v -11.98769 l -3.74154,2.30154 -1.18154,-1.93231 5.21847,-3.2 h 2.43692 v 14.81846 z" id="path47144"/><path d="m 825.33332,191.66391 q 0,-2.37538 -0.54154,-4.17231 -0.52923,-1.79692 -1.64923,-3.34769 -1.12,-1.56307 -2.84308,-3.22461 l 1.52616,-1.47693 q 1.98154,1.63693 3.39692,3.40923 1.42769,1.77231 2.19077,3.91385 0.76308,2.12923 0.76308,4.89846 0,2.76923 -0.76308,4.91077 -0.76308,2.12923 -2.19077,3.90154 -1.41538,1.77231 -3.39692,3.40923 l -1.52616,-1.47692 q 1.76,-1.68616 2.8677,-3.24923 1.12,-1.56308 1.63692,-3.3477 0.52923,-1.78461 0.52923,-4.14769 z" id="path47146"/><path d="m 838.39184,187.44237 q 0.93538,0 1.57538,0.65231 0.64,0.64 0.64,1.55077 0,0.91077 -0.64,1.57539 -0.64,0.6523 -1.57538,0.6523 -0.93539,0 -1.57539,-0.6523 -0.64,-0.66462 -0.64,-1.57539 0,-0.91077 0.64,-1.55077 0.64,-0.65231 1.57539,-0.65231 z m 0,8.4677 q 0.94769,0 1.57538,0.64 0.64,0.64 0.64,1.56307 0,0.54154 -0.1723,1.09539 -0.16,0.55384 -0.51693,1.35384 l -1.88307,4.3077 h -2.11693 l 1.18154,-4.93539 q -0.92308,-0.64 -0.92308,-1.83384 0,-0.91077 0.64,-1.55077 0.64,-0.64 1.57539,-0.64 z" id="path47148"/><path d="m 153.94825,230.2793 v -1.96923 h 1.90769 v -9.07077 h -1.90769 v -1.95693 h 4.0123 l 0.50462,3.01539 q 0.72615,-1.63692 1.79692,-2.48616 1.08308,-0.86153 2.78154,-0.86153 0.57846,0 1.03385,0.0985 0.46769,0.0862 0.92307,0.23384 l -0.46769,4.7877 h -1.96923 v -2.64616 q -1.37846,0.0492 -2.37538,1.10769 -0.99693,1.04616 -1.57539,2.95385 v 4.82462 h 2.62154 v 1.96923 z" id="path47150"/><path d="m 170.88364,224.66699 q 0.12308,2.00615 1.12,2.90461 1.00923,0.89847 2.42462,0.89847 0.94769,0 1.76,-0.29539 0.82461,-0.29538 1.64923,-0.83692 l 1.19384,1.64923 q -0.91077,0.73846 -2.12923,1.18154 -1.21846,0.44307 -2.60923,0.44307 -2.03077,0 -3.43384,-0.86153 -1.39077,-0.86154 -2.11693,-2.4 -0.71384,-1.53847 -0.71384,-3.55693 0,-1.95692 0.71384,-3.49538 0.71385,-1.55077 2.04308,-2.44923 1.32923,-0.91077 3.17538,-0.91077 2.58462,0 4.08616,1.73538 1.51384,1.73539 1.51384,4.76308 0,0.33231 -0.0246,0.66462 -0.0123,0.32 -0.0369,0.56615 z m 3.10154,-5.68615 q -1.29231,0 -2.14154,0.92307 -0.84923,0.92308 -0.97231,2.88 h 6.01846 q -0.0369,-1.83384 -0.78769,-2.81846 -0.73846,-0.98461 -2.11692,-0.98461 z" id="path47152"/><path d="m 194.21904,229.59007 q -0.71385,0.45538 -1.71077,0.73846 -0.99693,0.28307 -2.08,0.28307 -2.26462,0 -3.44616,-1.16923 -1.16923,-1.18153 -1.16923,-3.10153 v -7.05231 h -2.89231 v -2.00616 h 2.89231 v -2.90461 l 2.75693,-0.33231 v 3.23692 h 4.38153 l -0.30769,2.00616 h -4.07384 v 7.02769 q 0,1.04615 0.51692,1.56308 0.52923,0.50461 1.72308,0.50461 0.71384,0 1.30461,-0.17231 0.60308,-0.1723 1.10769,-0.44307 z" id="path47154"/><path d="m 200.88982,217.28237 v 9.08308 q 0,1.15692 0.45538,1.64923 0.46769,0.49231 1.40308,0.49231 0.88615,0 1.71077,-0.52923 0.82461,-0.52923 1.30461,-1.29231 v -9.40308 h 2.75692 v 12.99693 h -2.37538 l -0.17231,-1.66154 q -0.72615,0.97231 -1.83384,1.48923 -1.1077,0.50461 -2.26462,0.50461 -1.89538,0 -2.81846,-1.03384 -0.92308,-1.04616 -0.92308,-2.86769 v -9.4277 z" id="path47156"/><path d="m 213.02521,230.2793 v -1.96923 h 1.90769 v -9.07077 h -1.90769 v -1.95693 h 4.01231 l 0.50461,3.01539 q 0.72616,-1.63692 1.79693,-2.48616 1.08307,-0.86153 2.78154,-0.86153 0.57846,0 1.03384,0.0985 0.46769,0.0862 0.92308,0.23384 l -0.46769,4.7877 h -1.96923 v -2.64616 q -1.37847,0.0492 -2.37539,1.10769 -0.99692,1.04616 -1.57538,2.95385 v 4.82462 h 2.62153 v 1.96923 z" id="path47158"/><path d="m 227.67138,230.2793 v -12.99693 h 2.37538 l 0.20923,1.68616 q 0.81231,-0.98462 1.92,-1.50154 1.10769,-0.52923 2.27692,-0.52923 1.82154,0 2.72,1.02154 0.91077,1.02154 0.91077,2.84307 v 9.47693 h -2.75692 v -8.11077 q 0,-1.68616 -0.34462,-2.4 -0.3323,-0.72616 -1.51384,-0.72616 -0.94769,0 -1.73539,0.59077 -0.77538,0.57846 -1.30461,1.31693 v 9.32923 z" id="path47160"/><path d="m 259.12986,230.2793 h -3.05231 l 4.66462,-6.85539 -4.1477,-6.14154 h 3.17539 l 2.65846,4.57847 2.65846,-4.57847 h 3.02769 l -4.06154,6.03077 4.67693,6.96616 h -3.23693 l -3.18769,-5.30462 z" id="path47162"/><path d="m 311.80681,219.06699 v 2.25231 h -24.96 v -2.25231 z m 0,4.86154 v 2.25231 h -24.96 v -2.25231 z" id="path47164"/><path d="m 341.91145,228.11314 v 2.16616 h -10.27692 v -2.16616 h 4.14769 v -11.98769 l -3.74154,2.30154 -1.18154,-1.93231 5.21846,-3.2 h 2.43693 v 14.81846 z" id="path47166"/><path d="m 365.73916,212.95007 q 1.64923,0 2.80616,0.56615 1.15692,0.55385 1.76,1.45231 0.60307,0.88615 0.60307,1.90769 0,1.18154 -0.45538,1.93231 -0.45539,0.75077 -1.13231,1.26769 -0.66461,0.50462 -1.32923,0.97231 -0.66462,0.46769 -1.12,1.08307 -0.45538,0.61539 -0.45538,1.57539 v 0.72615 h -2.63385 v -0.84923 q 0,-1.21846 0.41846,-2.00615 0.43077,-0.8 1.05846,-1.34154 0.64,-0.54154 1.28,-0.98462 0.64,-0.44307 1.05846,-0.93538 0.43077,-0.50462 0.43077,-1.23077 0,-0.92308 -0.72615,-1.40308 -0.72615,-0.4923 -1.82154,-0.4923 -0.86154,0 -1.73538,0.40615 -0.87385,0.40615 -1.6,1.28 l -1.84616,-1.40308 q 2.14154,-2.52307 5.44,-2.52307 z m -0.59077,13.9323 q 0.8,0 1.34154,0.55385 0.54154,0.54154 0.54154,1.30462 0,0.77538 -0.54154,1.32923 -0.54154,0.54153 -1.34154,0.54153 -0.77538,0 -1.31692,-0.54153 -0.52923,-0.55385 -0.52923,-1.32923 0,-0.76308 0.52923,-1.30462 0.54154,-0.55385 1.31692,-0.55385 z" id="path47168"/><path d="m 396.71765,215.59622 v 14.68308 h -2.85539 v -14.68308 h -5.09538 v -2.30154 h 13.16923 l -0.29539,2.30154 z" id="path47170"/><path d="m 405.02533,230.2793 v -1.96923 h 1.9077 v -9.07077 h -1.9077 v -1.95693 h 4.01231 l 0.50462,3.01539 q 0.72615,-1.63692 1.79692,-2.48616 1.08308,-0.86153 2.78154,-0.86153 0.57846,0 1.03384,0.0985 0.4677,0.0862 0.92308,0.23384 l -0.46769,4.7877 h -1.96923 v -2.64616 q -1.37846,0.0492 -2.37539,1.10769 -0.99692,1.04616 -1.57538,2.95385 v 4.82462 h 2.62154 v 1.96923 z" id="path47172"/><path d="m 422.42844,217.28237 v 9.08308 q 0,1.15692 0.45538,1.64923 0.46769,0.49231 1.40308,0.49231 0.88615,0 1.71077,-0.52923 0.82461,-0.52923 1.30461,-1.29231 v -9.40308 h 2.75692 v 12.99693 h -2.37538 l -0.17231,-1.66154 q -0.72615,0.97231 -1.83384,1.48923 -1.1077,0.50461 -2.26462,0.50461 -1.89538,0 -2.81846,-1.03384 -0.92308,-1.04616 -0.92308,-2.86769 v -9.4277 z" id="path47174"/><path d="m 436.73,224.66699 q 0.12308,2.00615 1.12,2.90461 1.00923,0.89847 2.42462,0.89847 0.94769,0 1.76,-0.29539 0.82461,-0.29538 1.64923,-0.83692 l 1.19384,1.64923 q -0.91077,0.73846 -2.12923,1.18154 -1.21846,0.44307 -2.60923,0.44307 -2.03077,0 -3.43385,-0.86153 -1.39076,-0.86154 -2.11692,-2.4 -0.71384,-1.53847 -0.71384,-3.55693 0,-1.95692 0.71384,-3.49538 0.71385,-1.55077 2.04308,-2.44923 1.32923,-0.91077 3.17538,-0.91077 2.58462,0 4.08616,1.73538 1.51384,1.73539 1.51384,4.76308 0,0.33231 -0.0246,0.66462 -0.0123,0.32 -0.0369,0.56615 z m 3.10154,-5.68615 q -1.29231,0 -2.14154,0.92307 -0.84923,0.92308 -0.97231,2.88 h 6.01846 q -0.0369,-1.83384 -0.78769,-2.81846 -0.73846,-0.98461 -2.11692,-0.98461 z" id="path47176"/><path d="m 466.94538,219.64545 q 0,-0.91077 0.64,-1.55077 0.64,-0.65231 1.57538,-0.65231 0.93538,0 1.57538,0.65231 0.64,0.64 0.64,1.55077 0,0.91077 -0.64,1.57539 -0.64,0.6523 -1.57538,0.6523 -0.93538,0 -1.57538,-0.6523 -0.64,-0.66462 -0.64,-1.57539 z m 0,8.73846 q 0,-0.89846 0.64,-1.53846 0.64,-0.65231 1.57538,-0.65231 0.93538,0 1.57538,0.65231 0.64,0.64 0.64,1.53846 0,0.92308 -0.64,1.57539 -0.64,0.6523 -1.57538,0.6523 -0.93538,0 -1.57538,-0.6523 -0.64,-0.65231 -0.64,-1.57539 z" id="path47178"/><path d="m 497.3085,215.46084 v 5.40307 h 6.3877 v 2.16616 h -6.3877 v 7.24923 h -2.85538 v -16.98462 h 10.44923 l -0.32,2.16616 z" id="path47180"/><path d="m 518.21927,227.0916 q 0,0.77539 0.23384,1.12 0.23385,0.34462 0.75077,0.51693 l -0.61538,1.87077 q -0.96,-0.11077 -1.66154,-0.52923 -0.68923,-0.41847 -1.03385,-1.2677 -0.71384,0.91077 -1.80923,1.36616 -1.09538,0.44307 -2.33846,0.44307 -1.98154,0 -3.12615,-1.10769 -1.14462,-1.12 -1.14462,-2.92923 0,-2.05538 1.6,-3.16308 1.6,-1.10769 4.57846,-1.10769 h 1.85847 v -0.84923 q 0,-1.26769 -0.76308,-1.80923 -0.76308,-0.55385 -2.12923,-0.55385 -0.64,0 -1.55077,0.17231 -0.91077,0.16 -1.90769,0.50462 l -0.67693,-1.94462 q 1.21847,-0.45538 2.3877,-0.66461 1.16923,-0.22154 2.16615,-0.22154 2.60923,0 3.88923,1.15692 1.29231,1.15692 1.29231,3.2 z m -5.63692,1.48924 q 0.83692,0 1.63692,-0.44308 0.8,-0.44308 1.29231,-1.24308 v -2.86769 h -1.52616 q -1.94461,0 -2.78154,0.65231 -0.83692,0.64 -0.83692,1.7723 0,2.12924 2.21539,2.12924 z" id="path47182"/><path d="m 528.76696,212.06391 v 14.67077 q 0,0.89846 0.54153,1.28 0.55385,0.36923 1.4277,0.36923 0.55384,0 1.05846,-0.11077 0.51692,-0.12307 0.99692,-0.32 l 0.70154,1.92 q -0.57846,0.29539 -1.42769,0.51693 -0.83693,0.22153 -1.92,0.22153 -1.95693,0 -3.05231,-1.10769 -1.08308,-1.10769 -1.08308,-3.01538 v -12.39385 h -3.92615 v -2.03077 z" id="path47184"/><path d="m 542.5516,228.49468 q 1.2923,0 2.05538,-0.45538 0.76308,-0.4677 0.76308,-1.28 0,-0.52923 -0.22154,-0.89846 -0.22154,-0.36924 -0.88615,-0.68924 -0.66462,-0.32 -2.01847,-0.66461 -1.28,-0.33231 -2.2523,-0.78769 -0.96,-0.45539 -1.48923,-1.18154 -0.52923,-0.72616 -0.52923,-1.87077 0,-1.67385 1.39076,-2.69539 1.40308,-1.03384 3.80308,-1.03384 1.63692,0 2.85539,0.43077 1.21846,0.43077 2.08,1.07077 l -1.15693,1.73538 q -0.76307,-0.50461 -1.67384,-0.82461 -0.89846,-0.32 -2.03077,-0.32 -1.31693,0 -1.89539,0.39384 -0.56615,0.39385 -0.56615,1.04616 0,0.4923 0.28308,0.8123 0.29538,0.32 1.00923,0.60308 0.71384,0.28308 2.01846,0.64 1.26769,0.34462 2.20308,0.81231 0.94769,0.46769 1.46461,1.24308 0.52923,0.76307 0.52923,1.99384 0,1.40308 -0.81231,2.30154 -0.8123,0.88615 -2.11692,1.31692 -1.30461,0.41846 -2.80615,0.41846 -1.80923,0 -3.12616,-0.51692 -1.31692,-0.52923 -2.21538,-1.31692 l 1.46461,-1.67385 q 0.76308,0.61539 1.7477,1.00923 0.98461,0.38154 2.12923,0.38154 z" id="path47186"/><path d="m 554.88393,224.66699 q 0.12308,2.00615 1.12,2.90461 1.00923,0.89847 2.42462,0.89847 0.94769,0 1.76,-0.29539 0.82461,-0.29538 1.64923,-0.83692 l 1.19384,1.64923 q -0.91077,0.73846 -2.12923,1.18154 -1.21846,0.44307 -2.60923,0.44307 -2.03077,0 -3.43384,-0.86153 -1.39077,-0.86154 -2.11693,-2.4 -0.71384,-1.53847 -0.71384,-3.55693 0,-1.95692 0.71384,-3.49538 0.71385,-1.55077 2.04308,-2.44923 1.32923,-0.91077 3.17538,-0.91077 2.58462,0 4.08616,1.73538 1.51384,1.73539 1.51384,4.76308 0,0.33231 -0.0246,0.66462 -0.0123,0.32 -0.0369,0.56615 z m 3.10154,-5.68615 q -1.29231,0 -2.14154,0.92307 -0.84923,0.92308 -0.97231,2.88 h 6.01846 q -0.0369,-1.83384 -0.78769,-2.81846 -0.73846,-0.98461 -2.11692,-0.98461 z" id="path47188"/><path d="m 572.54546,217.44237 q 0.93539,0 1.57539,0.65231 0.64,0.64 0.64,1.55077 0,0.91077 -0.64,1.57539 -0.64,0.6523 -1.57539,0.6523 -0.93538,0 -1.57538,-0.6523 -0.64,-0.66462 -0.64,-1.57539 0,-0.91077 0.64,-1.55077 0.64,-0.65231 1.57538,-0.65231 z m 0,8.4677 q 0.9477,0 1.57539,0.64 0.64,0.64 0.64,1.56307 0,0.54154 -0.17231,1.09539 -0.16,0.55384 -0.51692,1.35384 l -1.88308,4.3077 h -2.11692 l 1.18154,-4.93539 q -0.92308,-0.64 -0.92308,-1.83384 0,-0.91077 0.64,-1.55077 0.64,-0.64 1.57538,-0.64 z" id="path47190"/><path d="m 96.077434,239.67622 q 1.710769,0 2.966154,0.36923 1.267692,0.36923 1.895382,1.26769 0.64,0.89846 0.46769,2.46154 l -0.45538,4.25846 q -0.13538,1.31693 0.72615,1.92 0.86154,0.60308 2.8677,0.60308 v 2.21538 q -1.99385,0 -2.8677,0.61539 -0.86153,0.61538 -0.72615,1.92 l 0.45538,4.23385 q 0.17231,1.57538 -0.46769,2.47384 -0.62769,0.89846 -1.895382,1.26769 -1.255385,0.36923 -2.966154,0.36923 v -2.03076 q 1.267692,0 2.08,-0.38154 0.812308,-0.36923 0.701539,-1.4277 l -0.455385,-4.51692 q -0.184615,-1.80923 0.603077,-2.58461 0.8,-0.7877 2.449235,-1.03385 -1.661543,-0.25846 -2.449235,-1.07077 -0.787692,-0.82461 -0.603077,-2.57231 l 0.455385,-4.51692 q 0.110769,-1.04615 -0.701539,-1.42769 -0.812308,-0.38154 -2.08,-0.38154 z" id="path47192"/></g></g></g></g></svg>