<?xml version="1.0" encoding="UTF-8" standalone="no"?>
<svg
   width="903.961"
   height="569.15997"
   viewBox="0 0 239.17329 150.59024"
   version="1.1"
   id="svg5"
   sodipodi:docname="function-outline-2.svg"
   xml:space="preserve"
   inkscape:version="1.4.2 (ebf0e94, 2025-05-08)"
   xmlns:inkscape="http://www.inkscape.org/namespaces/inkscape"
   xmlns:sodipodi="http://sodipodi.sourceforge.net/DTD/sodipodi-0.dtd"
   xmlns="http://www.w3.org/2000/svg"
   xmlns:svg="http://www.w3.org/2000/svg"><sodipodi:namedview
     id="namedview7"
     pagecolor="#ffffff"
     bordercolor="#000000"
     borderopacity="0.25"
     showgrid="true"
     inkscape:showpageshadow="2"
     inkscape:pageopacity="0.0"
     inkscape:pagecheckerboard="0"
     inkscape:deskcolor="#d1d1d1"
     inkscape:zoom="1.7246319"
     inkscape:cx="123.50462"
     inkscape:cy="225.26546"
     inkscape:window-width="3426"
     inkscape:window-height="1383"
     inkscape:window-x="4"
     inkscape:window-y="50"
     inkscape:window-maximized="1"
     inkscape:current-layer="g26211"><inkscape:grid
       id="grid1"
       units="px"
       originx="0"
       originy="0"
       spacingx="0.26458364"
       spacingy="0.26458333"
       empcolor="#0099e5"
       empopacity="0.30196078"
       color="#0099e5"
       opacity="0.14901961"
       empspacing="5"
       enabled="true"
       visible="true" /></sodipodi:namedview><defs
     id="defs2"><rect
       x="22.32"
       y="66.96"
       width="848.16"
       height="479.88"
       id="rect42346" /><rect
       x="-558"
       y="-111.6"
       width="1116"
       height="613.8"
       id="rect41792" /><rect
       x="55.799999"
       y="55.799999"
       width="892.79999"
       height="502.20001"
       id="rect20415" /><rect
       x="22.319975"
       y="66.959999"
       width="848.159"
       height="479.88"
       id="rect2499" /><rect
       x="11.160988"
       y="55.80027"
       width="2763.7878"
       height="827.84039"
       id="rect1" /><rect
       x="-10"
       y="610"
       width="1280"
       height="229.99998"
       id="rect2" /><rect
       x="-10"
       y="610"
       width="1280"
       height="229.99998"
       id="rect2-6" /></defs><g
     id="layer1"><g
       id="g26287"
       transform="matrix(0.26458333,0,0,0.26458333,151.03674,16.444252)"><g
         id="g26211"
         transform="translate(-559.68753,-50.991504)">
	<path
   style="fill:#20283c;fill-opacity:1"
   d="M 850.74201,546.84001 H 30.897 C 13.833,546.84001 0,533.00701 0,515.94301 V 42.057 C 0,24.993 13.833,11.16 30.897,11.16 h 819.84601 c 17.064,0 30.897,13.833 30.897,30.897 v 473.88601 c -10e-4,17.064 -13.834,30.897 -30.898,30.897 z"
   id="path26201"
   sodipodi:nodetypes="ssssssscs" /><g
   id="g34542"
   transform="matrix(0.22579297,0,0,0.22579297,19.537281,407.67356)"
   style="font-size:80px;font-family:'Brolink DEMO';-inkscape-font-specification:'Brolink DEMO, Normal';display:inline;opacity:1;stroke-width:8.85763;stroke-linecap:round;stroke-linejoin:round;stroke-miterlimit:2;stroke-dasharray:1.11949, 2.23898"><g
     id="g34508"
     style="stroke-width:8.85763"><path
       d="m 162.144,193.719 c 0,0 67.743,-16.576 50.853,-114.74 0,0 81.408,-135.816 257.901,-50.836 0,0 -114.839,23.251 -86.081,138.61 0,0 -77.272,-16.404 -96.43,49.396 0,0 -39.238,-26.305 -76.384,13.254 0.001,0 -31.497,4.809 -49.859,-35.684 z"
       fill="#5bc992"
       id="path34504"
       style="fill:#0d3758;fill-opacity:1;stroke-width:60.4005" /><path
       d="m 168.14,196.604 c -3.557,0 -6.756,-2.472 -7.539,-6.09 -0.898,-4.15 1.723,-8.243 5.861,-9.168 1.823,-0.428 42.24,-10.743 40.627,-79.558 -0.229,-9.782 -1.411,-20.039 -3.511,-30.485 l -2.197,-10.93 c -0.84,-4.18 1.868,-8.251 6.048,-9.092 4.184,-0.838 8.251,1.868 9.092,6.048 l 2.197,10.93 c 2.277,11.327 3.559,22.486 3.81,33.167 0.547,23.372 -3.317,55.876 -24.841,77.998 -13.361,13.732 -27.318,16.877 -27.906,17.004 -0.55,0.118 -1.1,0.176 -1.641,0.176 z"
       fill="#0bb494"
       id="path34506"
       style="fill:#59aae8;fill-opacity:0.992157;stroke-width:60.4005" /></g><g
     id="g34514"
     style="stroke-width:8.85763"><path
       d="m 230.826,252.7 c 40.616,-35.987 77.278,-6.195 77.278,-6.195 25.11,-63.766 100.553,-40.346 100.553,-40.346 -18.06,-117.51 98.427,-130.134 98.427,-130.134 -167.958,-100.804 -261.476,26.976 -261.476,26.976 7.818,99.299 -61.159,109.594 -61.159,109.594 0,0 10.647,24.683 46.377,40.105 z"
       fill="#6fd7a3"
       id="path34510"
       style="fill:#135587;fill-opacity:1;stroke-width:60.4005" /><path
       d="m 190.86,216.05 c -3.848,0 -7.177,-2.872 -7.655,-6.788 -0.514,-4.215 2.472,-8.051 6.676,-8.593 1.85,-0.258 43.048,-6.821 47.752,-75.499 0.668,-9.759 0.432,-20.08 -0.702,-30.678 l -1.186,-11.085 c -0.453,-4.24 2.616,-8.046 6.856,-8.499 4.242,-0.449 8.046,2.616 8.499,6.856 l 1.186,11.085 c 1.23,11.492 1.483,22.721 0.753,33.377 -1.598,23.324 -8.426,55.337 -31.888,75.392 -14.564,12.449 -28.751,14.301 -29.348,14.374 -0.316,0.039 -0.631,0.058 -0.943,0.058 z"
       fill="#0bb494"
       id="path34512"
       style="fill:#59aae8;fill-opacity:0.992157;stroke-width:60.4005" /></g><path
     d="m 99.22,32.25 c 54.02,-16.304 94.124,31.976 82.031,97.634 -11.942,64.843 13.555,101.705 49.575,122.816 34.936,20.476 92.97,61.763 97.24,138.002 7.207,128.69 -146.88,153.812 -189.774,79.616 -38.092,-65.889 25.07,-126.332 25.07,-126.332 l 15.768,13.085 c 0,0 -54.212,57.459 -6.717,98.644 41.377,35.88 119.62,4.994 94.473,-63.798 C 244.159,329.748 153.7,343.132 110.926,284.427 70.063,228.345 104.751,176.066 120.847,144.993 147.748,93.059 132.054,50.522 98.003,64.226 Z"
     fill="#c9f6b0"
     id="path34516"
     style="fill:#1b71af;fill-opacity:1;stroke-width:60.4005" /><g
     id="g34520"
     style="stroke-width:8.85763"><path
       d="M 328.066,390.702 C 323.797,314.463 265.762,273.176 230.826,252.7 194.806,231.589 169.309,194.727 181.251,129.884 193.344,64.227 153.24,15.946 99.22,32.25 l -0.016,0.427 c 31.181,11.593 49.582,49.885 40.867,97.207 -11.942,64.843 13.555,101.705 49.575,122.816 34.936,20.476 92.97,61.763 97.24,138.002 3.97,70.889 -41.004,110.348 -89.374,119.094 59.897,11.218 135.657,-27.974 130.554,-119.094 z"
       fill="#bbf49b"
       id="path34518"
       style="fill:#155d91;fill-opacity:1;stroke-width:60.4005" /></g><path
     d="M 86.13,29.061 146.528,0 c 0,0 -10.295,53.02 -52.157,74.817 L 75.834,69.492 Z"
     fill="#6fd7a3"
     id="path34522"
     style="fill:#00ccff;fill-opacity:1;stroke-width:60.4005" /><path
     d="m 108.988,0 -14.942,49.333 0.325,25.484 c 0.132,10.356 -5.648,19.894 -14.922,24.625 l -53.66,27.374 C 13.17,133.254 -0.159,119.45 6.856,107.202 15.165,92.695 24.711,75.556 34.101,57.672 41.851,42.911 53.79,30.729 68.409,22.59 Z"
     fill="#c9f6b0"
     id="path34524"
     style="fill:#2a95e1;fill-opacity:1;stroke-width:60.4005" /><path
     d="m 181.814,315.601 c 4.614,-3.907 11.558,0.252 10.29,6.164 l -6.293,29.354 -7.207,33.619 c -1.15,5.364 -8.11,6.832 -11.328,2.389 L 157.07,373.035 c -1.033,-1.427 -2.614,-2.359 -4.362,-2.573 l -16.799,-2.056 c -5.486,-0.672 -7.543,-7.554 -3.325,-11.126 l 26.177,-22.163 z"
     fill="#6fd7a3"
     id="path34526"
     style="fill:#2ad4ff;fill-opacity:0.992157;stroke-width:60.4005" /><path
     d="m 408.662,213.882 c -2.855,0 -5.599,-1.59 -6.939,-4.325 -0.083,-0.168 -8.514,-17.05 -27.948,-36.153 -17.846,-17.542 -48.949,-40.642 -95.775,-51.077 -4.162,-0.927 -6.784,-5.054 -5.857,-9.216 0.927,-4.162 5.05,-6.787 9.216,-5.857 50.722,11.302 84.422,36.5 103.761,55.648 21.095,20.887 30.105,39.107 30.478,39.872 1.869,3.833 0.277,8.455 -3.556,10.324 -1.091,0.533 -2.244,0.784 -3.38,0.784 z"
     fill="#0bb494"
     id="path34528"
     style="fill:#59aae8;fill-opacity:0.992157;stroke-width:60.4005" /><path
     d="m 308.106,254.226 c -0.035,0 -0.068,0 -0.103,-0.001 -4.254,-0.056 -7.66,-3.541 -7.62,-7.792 0,-0.459 -0.233,-27.156 -22.522,-73.746 -1.84,-3.847 -0.214,-8.457 3.633,-10.298 3.847,-1.841 8.457,-0.214 10.298,3.633 24.143,50.465 24.049,79.377 24.033,80.583 -0.056,4.231 -3.502,7.621 -7.719,7.621 z"
     fill="#0bb494"
     id="path34530"
     style="fill:#59aae8;fill-opacity:0.992157;stroke-width:60.4005" /><g
     fill="#6fd7a3"
     id="g34540"
     style="display:inline;stroke-width:60.4005"><path
       d="m 293.41,353.127 c -2.935,0 -5.74,-1.682 -7.034,-4.528 -1.765,-3.882 -0.048,-8.459 3.834,-10.224 6.955,-3.161 18.792,-10.715 18.911,-10.791 3.592,-2.297 8.368,-1.248 10.665,2.345 2.297,3.593 1.248,8.367 -2.345,10.665 -0.522,0.334 -12.881,8.222 -20.84,11.839 -1.036,0.47 -2.122,0.694 -3.191,0.694 z"
       id="path34532"
       style="fill:#2b97e2;fill-opacity:0.992157;stroke-width:8.85763" /><path
       d="m 308.098,407.232 c -4.104,0 -7.52,-3.231 -7.707,-7.372 -0.193,-4.26 3.104,-7.87 7.364,-8.063 l 20.207,-0.915 c 4.259,-0.189 7.87,3.104 8.063,7.364 0.193,4.26 -3.104,7.87 -7.364,8.063 l -20.207,0.915 c -0.119,0.005 -0.238,0.008 -0.356,0.008 z"
       id="path34534"
       style="fill:#2b97e2;fill-opacity:0.992157;stroke-width:8.85763" /><path
       d="m 310.641,470.991 c -1.381,0 -2.779,-0.37 -4.042,-1.148 l -14.183,-8.736 c -3.631,-2.236 -4.762,-6.993 -2.525,-10.623 2.236,-3.632 6.993,-4.762 10.623,-2.525 l 14.184,8.736 c 3.631,2.236 4.762,6.993 2.525,10.623 -1.459,2.368 -3.99,3.673 -6.582,3.673 z"
       id="path34536"
       style="fill:#2b97e2;fill-opacity:0.992157;stroke-width:8.85763" /><path
       d="m 258.788,512 c -2.901,0 -5.679,-1.642 -6.994,-4.441 l -7.245,-15.427 c -1.813,-3.86 -0.153,-8.458 3.707,-10.271 3.858,-1.813 8.458,-0.153 10.271,3.707 l 7.245,15.427 c 1.813,3.86 0.153,8.458 -3.707,10.271 -1.06,0.498 -2.177,0.734 -3.277,0.734 z"
       id="path34538"
       style="fill:#2b97e2;fill-opacity:0.992157;stroke-width:8.85763" /></g></g>
	<g
   id="g41581"><path
     style="fill:#2686ca;fill-opacity:1"
     d="M 881.64001,44.64 H 0.0010028 L 0,30.897 C -0.00124512,13.833 13.833,0 30.897,0 h 819.84601 c 17.063,0 30.896,13.833 30.896,30.897 z"
     id="path26203"
     sodipodi:nodetypes="ccssssc" /><g
     id="g41563"
     style="stroke-width:13.8026"
     transform="matrix(0.50127704,0,0,0.50127704,818.45376,3.7727494)"><path
       d="M 37,72 A 1,1 0 0 1 36.578,71.907 C 19.185,63.811 8.8,49.853 8.8,34.57 V 13.46 A 1,1 0 0 1 9.127,12.72 0.992,0.992 0 0 1 9.896,12.464 C 20.887,13.518 29.508,10.209 36.24,2.35 A 1,1 0 0 1 37,2 1,1 0 0 1 37.76,2.352 c 6.586,7.733 15.213,11.048 26.357,10.111 a 1,1 0 0 1 1.083,1 V 34.57 a 29.339,29.339 0 0 1 -0.144,3 33.031,33.031 0 0 1 -1.475,7.2 31.017,31.017 0 0 1 -1.132,3.056 38.379,38.379 0 0 1 -4.011,7.183 c -0.2,0.3 -0.434,0.62 -0.669,0.939 A 53.361,53.361 0 0 1 37.422,71.907 1,1 0 0 1 37,72 Z M 10.8,14.547 V 34.57 c 0,14.362 9.785,27.539 26.2,35.33 A 51.137,51.137 0 0 0 56.149,54.781 c 0.226,-0.3 0.44,-0.592 0.635,-0.889 a 36.4,36.4 0 0 0 3.824,-6.841 29.481,29.481 0 0 0 1.067,-2.877 31.048,31.048 0 0 0 1.389,-6.793 A 26.935,26.935 0 0 0 63.2,34.57 V 14.535 C 52.3,15.2 43.707,11.91 37,4.513 30.158,12.029 21.567,15.319 10.8,14.547 Z"
       id="path35138"
       style="fill:#c11e2c;fill-opacity:1;stroke:#20283c;stroke-width:1.99491;stroke-dasharray:none;stroke-opacity:1" /><path
       d="m 58.031,38.47 a 0.884,0.884 0 0 1 -0.125,-0.008 1,1 0 0 1 -0.868,-1.116 22.223,22.223 0 0 0 0.162,-2.776 1.0000125,1.0000125 0 0 1 2,-0.01 v 0.01 a 24.073,24.073 0 0 1 -0.178,3.024 1,1 0 0 1 -0.991,0.876 z"
       id="path35140"
       style="fill:#c11e2c;fill-opacity:1;stroke:#20283c;stroke-width:1.99491;stroke-dasharray:none;stroke-opacity:1" /><path
       d="m 54.929,48.44 a 1,1 0 0 1 -0.884,-1.466 27.324,27.324 0 0 0 1.312,-2.864 1.0000445,1.0000445 0 1 1 1.866,0.72 29.149,29.149 0 0 1 -1.409,3.076 1,1 0 0 1 -0.885,0.534 z"
       id="path35142"
       style="fill:#c11e2c;fill-opacity:1;stroke:#20283c;stroke-width:1.99491;stroke-dasharray:none;stroke-opacity:1" /><path
       d="M 37,65.31 A 1.01,1.01 0 0 1 36.534,65.195 C 22.925,58.028 14.8,46.579 14.8,34.57 V 19.61 a 1,1 0 0 1 0.952,-1 33.729,33.729 0 0 0 20.6,-7.936 1,1 0 0 1 1.288,0 34.181,34.181 0 0 0 20.611,7.878 1,1 0 0 1 0.946,1 v 8.01 a 1,1 0 1 1 -2,0 V 20.487 A 36.02,36.02 0 0 1 37,12.734 35.561,35.561 0 0 1 16.8,20.552 V 34.57 c 0,11.285 7.354,21.688 20.2,28.607 A 45.135,45.135 0 0 0 49.247,53.771 1,1 0 1 1 50.733,55.109 47.372,47.372 0 0 1 37.466,65.195 1.01,1.01 0 0 1 37,65.31 Z"
       id="path35144"
       style="fill:#c11e2c;fill-opacity:1;stroke:#20283c;stroke-width:1.99491;stroke-dasharray:none;stroke-opacity:1" /></g></g>
	
	
	
<path
   d="m -8.672,625.24119 v -1.44 h 3.088 v -5.92 h -2.768 v -1.44 H -4 v 7.36 h 2.896 v 1.44 z m 3.728,-10.352 q -0.544,0 -0.864,-0.272 -0.32,-0.288 -0.32,-0.768 0,-0.496 0.32,-0.784 0.32,-0.288 0.864,-0.288 0.544,0 0.864,0.288 0.32,0.288 0.32,0.784 0,0.48 -0.32,0.768 -0.32,0.272 -0.864,0.272 z m 5.9519756,10.352 v -8.8 h 1.568 v 1.68 h 0.016 q 0.112,-0.864 0.72,-1.344 0.624,-0.496 1.632,-0.496 1.312,0 2.096,0.832 0.784,0.832 0.784,2.24 v 5.888 h -1.584 v -5.632 q 0,-0.96 -0.48,-1.472 -0.48,-0.512 -1.312,-0.512 -0.864,0 -1.36,0.544 -0.496,0.528 -0.496,1.488 v 5.584 z m 13.8719754,0 q -1.136,0 -1.808,-0.656 -0.656,-0.656 -0.656,-1.744 v -4.96 H 9.9039512 v -1.44 h 2.5119998 v -2.48 h 1.584 v 2.48 h 3.568 v 1.44 h -3.568 v 4.944 q 0,0.432 0.24,0.704 0.256,0.272 0.672,0.272 h 2.576 v 1.44 z m 18.319951,0.128 q -1.616,0 -2.576,-0.928 -0.944,-0.928 -0.944,-2.592 v -2.016 q 0,-1.664 0.944,-2.592 0.96,-0.928 2.576,-0.928 1.616,0 2.56,0.928 0.96,0.928 0.96,2.592 v 2.016 q 0,1.664 -0.96,2.592 -0.944,0.928 -2.56,0.928 z m 0,-1.392 q 0.896,0 1.408,-0.496 0.528,-0.512 0.528,-1.488 v -2.304 q 0,-0.976 -0.528,-1.472 -0.512,-0.512 -1.408,-0.512 -0.896,0 -1.424,0.512 -0.512,0.496 -0.512,1.472 v 2.304 q 0,0.976 0.512,1.488 0.528,0.496 1.424,0.496 z m 5.711976,1.264 v -8.8 h 1.344 v 1.2 h 0.048 q 0.064,-0.608 0.448,-0.976 0.4,-0.384 1.008,-0.384 0.592,0 0.992,0.352 0.4,0.352 0.576,0.944 v 0 q 0.096,-0.608 0.496,-0.944 0.4,-0.352 1.008,-0.352 0.832,0 1.344,0.64 0.512,0.624 0.512,1.632 v 6.688 h -1.44 v -6.672 q 0,-0.496 -0.256,-0.784 -0.24,-0.304 -0.656,-0.304 -0.416,0 -0.656,0.288 -0.24,0.288 -0.24,0.8 v 6.672 h -1.28 v -6.672 q 0,-0.496 -0.24,-0.784 -0.24,-0.304 -0.656,-0.304 -0.416,0 -0.672,0.288 -0.24,0.288 -0.24,0.8 v 6.672 z m 12.463976,0 -2.976,-8.8 h 1.68 l 1.872,5.776 q 0.16,0.512 0.288,1.008 0.128,0.48 0.192,0.768 0.064,-0.288 0.176,-0.768 0.112,-0.496 0.272,-1.008 l 1.856,-5.776 h 1.68 l -2.992,8.8 z m 11.935975,0 q -1.2,0 -1.92,-0.704 -0.72,-0.704 -0.72,-1.872 v -7.664 h -3.008 v -1.44 h 4.592 v 9.088 q 0,0.528 0.288,0.848 0.304,0.304 0.816,0.304 h 2.672 v 1.44 z m 9.599976,0 q -1.2,0 -1.92,-0.704 -0.72,-0.704 -0.72,-1.872 v -7.664 h -3.008 v -1.44 h 4.592 v 9.088 q 0,0.528 0.288,0.848 0.304,0.304 0.816,0.304 h 2.672 v 1.44 z m 4.447975,1.76 v -1.36 h 7.68 v 1.36 z m 13.439976,-1.632 q -1.616,0 -2.576,-0.928 -0.944,-0.928 -0.944,-2.592 v -2.016 q 0,-1.664 0.944,-2.592 0.96,-0.928 2.576,-0.928 1.616,0 2.56,0.928 0.96,0.928 0.96,2.592 v 2.016 q 0,1.664 -0.96,2.592 -0.944,0.928 -2.56,0.928 z m 0,-1.392 q 0.896,0 1.408,-0.496 0.528,-0.512 0.528,-1.488 v -2.304 q 0,-0.976 -0.528,-1.472 -0.512,-0.512 -1.408,-0.512 -0.896,0 -1.424,0.512 -0.512,0.496 -0.512,1.472 v 2.304 q 0,0.976 0.512,1.488 0.528,0.496 1.424,0.496 z m 9.583974,1.424 q -1.551999,0 -2.479999,-0.912 -0.928,-0.912 -0.928,-2.48 v -5.568 h 1.584 v 5.568 q 0,0.928 0.48,1.472 0.496,0.528 1.343999,0.528 0.864,0 1.36,-0.528 0.496,-0.544 0.496,-1.472 v -5.568 h 1.584 v 5.568 q 0,1.568 -0.944,2.48 -0.928,0.912 -2.496,0.912 z m 10.49598,-0.16 q -1.136,0 -1.808,-0.656 -0.656,-0.656 -0.656,-1.744 v -4.96 h -2.512 v -1.44 h 2.512 v -2.48 h 1.584 v 2.48 h 3.568 v 1.44 h -3.568 v 4.944 q 0,0.432 0.24,0.704 0.256,0.272 0.672,0.272 h 2.576 v 1.44 z m 10.03197,0 q -1.2,0 -1.92,-0.704 -0.72,-0.704 -0.72,-1.872 v -7.664 h -3.008 v -1.44 h 4.592 v 9.088 q 0,0.528 0.288,0.848 0.304,0.304 0.816,0.304 h 2.672 v 1.44 z m 4.81598,0 v -1.44 h 3.088 v -5.92 h -2.768 v -1.44 h 4.352 v 7.36 h 2.896 v 1.44 z m 3.728,-10.352 q -0.544,0 -0.864,-0.272 -0.32,-0.288 -0.32,-0.768 0,-0.496 0.32,-0.784 0.32,-0.288 0.864,-0.288 0.544,0 0.864,0.288 0.32,0.288 0.32,0.784 0,0.48 -0.32,0.768 -0.32,0.272 -0.864,0.272 z m 5.95197,10.352 v -8.8 h 1.568 v 1.68 h 0.016 q 0.112,-0.864 0.72,-1.344 0.624,-0.496 1.632,-0.496 1.312,0 2.096,0.832 0.784,0.832 0.784,2.24 v 5.888 h -1.584 v -5.632 q 0,-0.96 -0.48,-1.472 -0.48,-0.512 -1.312,-0.512 -0.864,0 -1.36,0.544 -0.496,0.528 -0.496,1.488 v 5.584 z m 12.99198,0.16 q -1.584,0 -2.56,-0.944 -0.96,-0.944 -0.96,-2.576 v -2.08 q 0,-1.632 0.96,-2.576 0.976,-0.944 2.56,-0.944 1.056,0 1.84,0.432 0.8,0.416 1.232,1.184 0.448,0.752 0.448,1.76 v 1.584 h -5.488 v 0.768 q 0,0.96 0.528,1.504 0.528,0.544 1.44,0.544 0.768,0 1.264,-0.288 0.496,-0.288 0.592,-0.8 h 1.584 q -0.16,1.12 -1.104,1.776 -0.944,0.656 -2.336,0.656 z m -1.968,-5.744 v 0.416 h 3.936 v -0.416 q 0,-1.008 -0.512,-1.552 -0.512,-0.544 -1.456,-0.544 -0.944,0 -1.456,0.544 -0.512,0.544 -0.512,1.552 z m 10.99197,5.744 q -1.328,0 -2.112,-0.88 -0.784,-0.896 -0.784,-2.416 v -2.528 q 0,-1.52 0.784,-2.4 0.784,-0.896 2.112,-0.896 0.976,0 1.616,0.496 0.656,0.496 0.8,1.36 v 0 l -0.032,-2.048 v -2.528 h 1.584 v 11.68 h -1.568 v -1.712 0 q -0.144,0.88 -0.784,1.376 -0.64,0.496 -1.616,0.496 z m 0.544,-1.376 q 0.848,0 1.344,-0.528 0.496,-0.528 0.496,-1.488 v -2.336 q 0,-0.96 -0.496,-1.488 -0.496,-0.528 -1.344,-0.528 -0.88,0 -1.376,0.464 -0.48,0.448 -0.48,1.472 v 2.496 q 0,1.024 0.48,1.488 0.496,0.448 1.376,0.448 z m 12.59198,3.136 q -2.32,-0.528 -3.6,-2.16 -1.264,-1.632 -1.264,-4.08 v -2.88 q 0,-2.448 1.264,-4.08 1.28,-1.632 3.6,-2.16 v 1.536 q -1.008,0.24 -1.744,0.896 -0.736,0.64 -1.136,1.616 -0.4,0.976 -0.4,2.192 v 2.88 q 0,1.2 0.4,2.176 0.4,0.976 1.136,1.632 0.736,0.64 1.744,0.88 z m 3.16798,-1.92 v -1.44 h 3.088 v -5.92 h -2.768 v -1.44 h 4.352 v 7.36 h 2.896 v 1.44 z m 3.728,-10.352 q -0.544,0 -0.864,-0.272 -0.32,-0.288 -0.32,-0.768 0,-0.496 0.32,-0.784 0.32,-0.288 0.864,-0.288 0.544,0 0.864,0.288 0.32,0.288 0.32,0.784 0,0.48 -0.32,0.768 -0.32,0.272 -0.864,0.272 z m 5.95197,10.352 v -8.8 h 1.568 v 1.68 h 0.016 q 0.112,-0.864 0.72,-1.344 0.624,-0.496 1.632,-0.496 1.312,0 2.096,0.832 0.784,0.832 0.784,2.24 v 5.888 h -1.584 v -5.632 q 0,-0.96 -0.48,-1.472 -0.48,-0.512 -1.312,-0.512 -0.864,0 -1.36,0.544 -0.496,0.528 -0.496,1.488 v 5.584 z m 13.87198,0 q -1.136,0 -1.808,-0.656 -0.656,-0.656 -0.656,-1.744 v -4.96 h -2.512 v -1.44 h 2.512 v -2.48 h 1.584 v 2.48 h 3.568 v 1.44 h -3.568 v 4.944 q 0,0.432 0.24,0.704 0.256,0.272 0.672,0.272 h 2.576 v 1.44 z m 17.50395,0.16 q -1.36,0 -2.16,-0.752 -0.784,-0.768 -0.784,-2 0,-1.232 0.816,-1.984 0.832,-0.752 2.176,-0.752 h 2.576 v -0.672 q 0,-1.616 -1.792,-1.616 -0.8,0 -1.296,0.304 -0.48,0.288 -0.512,0.816 h -1.568 q 0.08,-1.072 0.976,-1.76 0.896,-0.704 2.4,-0.704 1.616,0 2.496,0.768 0.88,0.768 0.88,2.16 v 6.032 h -1.552 v -1.616 h -0.032 q -0.112,0.816 -0.816,1.296 -0.688,0.48 -1.808,0.48 z m 0.416,-1.328 q 1.008,0 1.6,-0.48 0.608,-0.496 0.608,-1.344 v -1.168 h -2.432 q -0.688,0 -1.12,0.416 -0.416,0.4 -0.416,1.072 0,0.688 0.464,1.104 0.464,0.4 1.296,0.4 z m 8.47997,3.728 0.864,-4.896 h 1.872 l -1.136,4.896 z m 17.24796,-2.56 v -1.44 h 3.088 v -5.92 h -2.768 v -1.44 h 4.352 v 7.36 h 2.896 v 1.44 z m 3.728,-10.352 q -0.544,0 -0.864,-0.272 -0.32,-0.288 -0.32,-0.768 0,-0.496 0.32,-0.784 0.32,-0.288 0.864,-0.288 0.544,0 0.864,0.288 0.32,0.288 0.32,0.784 0,0.48 -0.32,0.768 -0.32,0.272 -0.864,0.272 z m 5.95197,10.352 v -8.8 h 1.568 v 1.68 h 0.016 q 0.112,-0.864 0.72,-1.344 0.624,-0.496 1.632,-0.496 1.312,0 2.096,0.832 0.784,0.832 0.784,2.24 v 5.888 h -1.584 v -5.632 q 0,-0.96 -0.48,-1.472 -0.48,-0.512 -1.312,-0.512 -0.864,0 -1.36,0.544 -0.496,0.528 -0.496,1.488 v 5.584 z m 13.87198,0 q -1.136,0 -1.808,-0.656 -0.656,-0.656 -0.656,-1.744 v -4.96 h -2.512 v -1.44 h 2.512 v -2.48 h 1.584 v 2.48 h 3.568 v 1.44 h -3.568 v 4.944 q 0,0.432 0.24,0.704 0.256,0.272 0.672,0.272 h 2.576 v 1.44 z m 18.91195,0.16 q -0.992,0 -1.632,-0.496 -0.64,-0.496 -0.784,-1.376 v 0 1.712 h -1.568 v -11.68 h 1.584 v 2.528 l -0.032,2.048 v 0 q 0.144,-0.864 0.784,-1.36 0.656,-0.496 1.648,-0.496 1.312,0 2.096,0.896 0.784,0.88 0.784,2.4 v 2.528 q 0,1.52 -0.784,2.416 -0.784,0.88 -2.096,0.88 z m -0.56,-1.376 q 0.88,0 1.36,-0.448 0.496,-0.464 0.496,-1.488 v -2.496 q 0,-1.024 -0.496,-1.472 -0.48,-0.464 -1.36,-0.464 -0.848,0 -1.344,0.528 -0.496,0.528 -0.496,1.488 v 2.336 q 0,0.96 0.496,1.488 0.496,0.528 1.344,0.528 z m 6.60797,3.136 v -1.552 q 1.008,-0.24 1.744,-0.88 0.736,-0.656 1.136,-1.632 0.416,-0.976 0.416,-2.176 v -2.88 q 0,-1.216 -0.416,-2.192 -0.4,-0.976 -1.136,-1.616 -0.736,-0.656 -1.744,-0.896 v -1.536 q 2.32,0.528 3.6,2.16 1.28,1.632 1.28,4.08 v 2.88 q 0,2.448 -1.28,4.08 -1.28,1.632 -3.6,2.16 z m 24.65595,-0.16 q -1.424,0 -2.256,-0.72 -0.816,-0.704 -0.704,-1.984 l 0.24,-2.576 q 0.08,-0.8 -0.24,-1.152 -0.304,-0.368 -1.264,-0.368 h -1.888 v -1.424 h 1.888 q 0.96,0 1.264,-0.368 0.32,-0.368 0.24,-1.168 l -0.24,-2.592 q -0.112,-1.264 0.704,-1.968 0.832,-0.72 2.256,-0.72 h 0.816 v 1.424 h -0.752 q -0.72,0 -1.104,0.336 -0.384,0.336 -0.336,0.976 l 0.24,2.592 q 0.096,0.912 -0.432,1.472 -0.528,0.56 -1.664,0.672 1.136,0.128 1.664,0.736 0.528,0.608 0.432,1.504 l -0.24,2.592 q -0.048,0.64 0.336,0.976 0.384,0.336 1.104,0.336 h 0.752 v 1.424 z M 10.927951,646.99631 v -8.8 h 1.568 v 1.696 h 0.016 q 0.128,-0.864 0.736,-1.36 0.624,-0.496 1.648,-0.496 1.36,0 2.112,0.848 0.752,0.832 0.752,2.352 v 0.768 h -1.584 v -0.752 q 0,-1.84 -1.808,-1.84 -0.912,0 -1.392,0.528 -0.464,0.528 -0.464,1.504 v 5.552 z m 12.671976,0.16 q -1.584,0 -2.56,-0.944 -0.96,-0.944 -0.96,-2.576 v -2.08 q 0,-1.632 0.96,-2.576 0.976,-0.944 2.56,-0.944 1.056,0 1.84,0.432 0.8,0.416 1.232,1.184 0.448,0.752 0.448,1.76 v 1.584 h -5.488 v 0.768 q 0,0.96 0.528,1.504 0.528,0.544 1.44,0.544 0.768,0 1.264,-0.288 0.496,-0.288 0.592,-0.8 h 1.584 q -0.16,1.12 -1.104,1.776 -0.944,0.656 -2.336,0.656 z m -1.968,-5.744 v 0.416 h 3.936 v -0.416 q 0,-1.008 -0.512,-1.552 -0.512,-0.544 -1.456,-0.544 -0.944,0 -1.456,0.544 -0.512,0.544 -0.512,1.552 z m 12.447975,5.584 q -1.136,0 -1.808,-0.656 -0.656,-0.656 -0.656,-1.744 v -4.96 h -2.512 v -1.44 h 2.512 v -2.48 h 1.584 v 2.48 h 3.568 v 1.44 h -3.568 v 4.944 q 0,0.432 0.24,0.704 0.256,0.272 0.672,0.272 h 2.576 v 1.44 z m 8.703976,0.16 q -1.552,0 -2.48,-0.912 -0.928,-0.912 -0.928,-2.48 v -5.568 h 1.584 v 5.568 q 0,0.928 0.48,1.472 0.496,0.528 1.344,0.528 0.864,0 1.36,-0.528 0.496,-0.544 0.496,-1.472 v -5.568 h 1.584 v 5.568 q 0,1.568 -0.944,2.48 -0.928,0.912 -2.496,0.912 z m 6.543976,-0.16 v -8.8 h 1.568 v 1.696 h 0.016 q 0.128,-0.864 0.736,-1.36 0.624,-0.496 1.648,-0.496 1.36,0 2.112,0.848 0.752,0.832 0.752,2.352 v 0.768 h -1.584 v -0.752 q 0,-1.84 -1.808,-1.84 -0.912,0 -1.392,0.528 -0.464,0.528 -0.464,1.504 v 5.552 z m 9.279975,0 v -8.8 h 1.568 v 1.68 h 0.016 q 0.112,-0.864 0.72,-1.344 0.624,-0.496 1.632,-0.496 1.312,0 2.096,0.832 0.784,0.832 0.784,2.24 v 5.888 h -1.584 v -5.632 q 0,-0.96 -0.48,-1.472 -0.48,-0.512 -1.312,-0.512 -0.864,0 -1.36,0.544 -0.496,0.528 -0.496,1.488 v 5.584 z m 21.775951,0.16 q -1.36,0 -2.16,-0.752 -0.784,-0.768 -0.784,-2 0,-1.232 0.816,-1.984 0.832,-0.752 2.176,-0.752 h 2.576 v -0.672 q 0,-1.616 -1.792,-1.616 -0.8,0 -1.296,0.304 -0.48,0.288 -0.512,0.816 h -1.568 q 0.08,-1.072 0.976,-1.76 0.896,-0.704 2.4,-0.704 1.616,0 2.496,0.768 0.88,0.768 0.88,2.16 v 6.032 h -1.552 v -1.616 h -0.032 q -0.112,0.816 -0.816,1.296 -0.688,0.48 -1.808,0.48 z m 0.416,-1.328 q 1.008,0 1.6,-0.48 0.608,-0.496 0.608,-1.344 v -1.168 h -2.432 q -0.688,0 -1.12,0.416 -0.416,0.4 -0.416,1.072 0,0.688 0.464,1.104 0.464,0.4 1.296,0.4 z m 18.815951,-0.336 v -3.072 h -2.992 v -1.424 h 2.992 v -3.056 h 1.567999 v 3.056 h 3.008 v 1.424 h -3.008 v 3.072 z m 20.575949,1.664 q -0.992,0 -1.632,-0.496 -0.64,-0.496 -0.784,-1.376 v 0 1.712 h -1.568 v -11.68 h 1.584 v 2.528 l -0.032,2.048 v 0 q 0.144,-0.864 0.784,-1.36 0.656,-0.496 1.648,-0.496 1.312,0 2.096,0.896 0.784,0.88 0.784,2.4 v 2.528 q 0,1.52 -0.784,2.416 -0.784,0.88 -2.096,0.88 z m -0.56,-1.376 q 0.88,0 1.36,-0.448 0.496,-0.464 0.496,-1.488 v -2.496 q 0,-1.024 -0.496,-1.472 -0.48,-0.464 -1.36,-0.464 -0.848,0 -1.344,0.528 -0.496,0.528 -0.496,1.488 v 2.336 q 0,0.96 0.496,1.488 0.496,0.528 1.344,0.528 z m 9.40798,-5.28 q -0.544,0 -0.896,-0.336 -0.336,-0.352 -0.336,-0.896 0,-0.528 0.352,-0.88 0.352,-0.352 0.88,-0.352 h 0.32 q 0.528,0 0.88,0.352 0.352,0.352 0.352,0.88 0,0.544 -0.352,0.896 -0.336,0.336 -0.88,0.336 z m -1.44,9.056 0.864,-4.896 h 1.872 l -1.136,4.896 z M -8.496,670.51144 v -1.424 h 0.736 q 0.72,0 1.12,-0.336 0.416,-0.336 0.32,-0.976 l -0.384,-2.592 q -0.128,-0.88 0.336,-1.488 0.48,-0.624 1.296,-0.768 -0.832,-0.144 -1.296,-0.688 -0.464,-0.544 -0.336,-1.44 l 0.384,-2.592 q 0.096,-0.64 -0.32,-0.976 -0.4,-0.336 -1.12,-0.336 h -0.736 v -1.424 h 0.816 q 0.928,0 1.632,0.32 0.72,0.32 1.072,0.928 0.352,0.592 0.24,1.44 l -0.384,2.592 q -0.112,0.8 0.208,1.168 0.336,0.368 1.296,0.368 h 2.048 v 1.424 h -2.048 q -0.944,0 -1.28,0.368 -0.336,0.352 -0.224,1.152 l 0.384,2.576 q 0.112,0.848 -0.24,1.456 -0.352,0.608 -1.056,0.928 -0.704,0.32 -1.648,0.32 z m -0.176,41.75025 v -1.44 h 3.088 v -5.92 h -2.768 v -1.44 H -4 v 7.36 h 2.896 v 1.44 z m 3.728,-10.352 q -0.544,0 -0.864,-0.272 -0.32,-0.288 -0.32,-0.768 0,-0.496 0.32,-0.784 0.32,-0.288 0.864,-0.288 0.544,0 0.864,0.288 0.32,0.288 0.32,0.784 0,0.48 -0.32,0.768 -0.32,0.272 -0.864,0.272 z m 5.9519756,10.352 v -8.8 h 1.568 v 1.68 h 0.016 q 0.112,-0.864 0.72,-1.344 0.624,-0.496 1.632,-0.496 1.312,0 2.096,0.832 0.784,0.832 0.784,2.24 v 5.888 h -1.584 v -5.632 q 0,-0.96 -0.48,-1.472 -0.48,-0.512 -1.312,-0.512 -0.864,0 -1.36,0.544 -0.496,0.528 -0.496,1.488 v 5.584 z m 13.8719754,0 q -1.136,0 -1.808,-0.656 -0.656,-0.656 -0.656,-1.744 v -4.96 H 9.9039512 v -1.44 h 2.5119998 v -2.48 h 1.584 v 2.48 h 3.568 v 1.44 h -3.568 v 4.944 q 0,0.432 0.24,0.704 0.256,0.272 0.672,0.272 h 2.576 v 1.44 z m 14.431951,0 v -8.8 h 1.344 v 1.2 h 0.048 q 0.064,-0.608 0.448,-0.976 0.4,-0.384 1.008,-0.384 0.592,0 0.992,0.352 0.4,0.352 0.576,0.944 v 0 q 0.096,-0.608 0.496,-0.944 0.4,-0.352 1.008,-0.352 0.832,0 1.344,0.64 0.512,0.624 0.512,1.632 v 6.688 h -1.44 v -6.672 q 0,-0.496 -0.256,-0.784 -0.24,-0.304 -0.656,-0.304 -0.416,0 -0.656,0.288 -0.24,0.288 -0.24,0.8 v 6.672 h -1.28 v -6.672 q 0,-0.496 -0.24,-0.784 -0.24,-0.304 -0.656,-0.304 -0.416,0 -0.672,0.288 -0.24,0.288 -0.24,0.8 v 6.672 z m 11.487976,2.88 1.28,-3.408 -3.28,-8.272 h 1.68 l 1.984,5.2 q 0.128,0.336 0.256,0.72 0.128,0.384 0.176,0.672 0.048,-0.288 0.16,-0.672 0.112,-0.384 0.24,-0.72 l 1.84,-5.2 h 1.68 l -4.368,11.68 z m 7.759976,-1.12 v -1.36 h 7.68 v 1.36 z m 12.015975,-1.76 v -6.16 h -2.528 v -1.44 h 2.528 v -1.776 q 0,-1.056 0.688,-1.68 0.688,-0.624 1.872,-0.624 h 2.576 v 1.424 h -2.576 q -0.976,0 -0.976,0.896 v 1.76 h 3.552 v 1.44 h -3.552 v 6.16 z m 11.007976,0.16 q -1.552,0 -2.48,-0.912 -0.928,-0.912 -0.928,-2.48 v -5.568 h 1.584 v 5.568 q 0,0.928 0.48,1.472 0.496,0.528 1.344,0.528 0.864,0 1.36,-0.528 0.496,-0.544 0.496,-1.472 v -5.568 h 1.584 v 5.568 q 0,1.568 -0.944,2.48 -0.928,0.912 -2.496,0.912 z m 6.223975,-0.16 v -8.8 h 1.568 v 1.68 h 0.016 q 0.112,-0.864 0.72,-1.344 0.624,-0.496 1.632,-0.496 1.312,0 2.096,0.832 0.784,0.832 0.784,2.24 v 5.888 h -1.584 v -5.632 q 0,-0.96 -0.48,-1.472 -0.48,-0.512 -1.312,-0.512 -0.864,0 -1.36,0.544 -0.496,0.528 -0.496,1.488 v 5.584 z m 13.119976,0.16 q -1.616,0 -2.592,-0.896 -0.976,-0.912 -0.976,-2.496 v -2.352 q 0,-1.568 0.976,-2.464 0.976,-0.912 2.592,-0.912 1.552,0 2.496,0.832 0.96,0.816 1.008,2.24 h -1.568 q -0.048,-0.8 -0.576,-1.232 -0.512,-0.448 -1.36,-0.448 -0.912,0 -1.456,0.528 -0.528,0.512 -0.528,1.456 v 2.352 q 0,0.96 0.528,1.472 0.544,0.512 1.456,0.512 0.864,0 1.376,-0.432 0.512,-0.432 0.56,-1.232 h 1.568 q -0.048,1.424 -1.008,2.256 -0.944,0.816 -2.496,0.816 z m 10.351974,-0.16 q -1.136,0 -1.807999,-0.656 -0.656,-0.656 -0.656,-1.744 v -4.96 h -2.512 v -1.44 h 2.512 v -2.48 h 1.583999 v 2.48 h 3.568 v 1.44 h -3.568 v 4.944 q 0,0.432 0.24,0.704 0.256,0.272 0.672,0.272 h 2.576 v 1.44 z m 5.24798,0 v -1.44 h 3.088 v -5.92 h -2.768 v -1.44 h 4.352 v 7.36 h 2.896 v 1.44 z m 3.728,-10.352 q -0.544,0 -0.864,-0.272 -0.32,-0.288 -0.32,-0.768 0,-0.496 0.32,-0.784 0.32,-0.288 0.864,-0.288 0.544,0 0.864,0.288 0.32,0.288 0.32,0.784 0,0.48 -0.32,0.768 -0.32,0.272 -0.864,0.272 z m 9.34397,10.48 q -1.616,0 -2.576,-0.928 -0.944,-0.928 -0.944,-2.592 v -2.016 q 0,-1.664 0.944,-2.592 0.96,-0.928 2.576,-0.928 1.616,0 2.56,0.928 0.96,0.928 0.96,2.592 v 2.016 q 0,1.664 -0.96,2.592 -0.944,0.928 -2.56,0.928 z m 0,-1.392 q 0.896,0 1.408,-0.496 0.528,-0.512 0.528,-1.488 v -2.304 q 0,-0.976 -0.528,-1.472 -0.512,-0.512 -1.408,-0.512 -0.896,0 -1.424,0.512 -0.512,0.496 -0.512,1.472 v 2.304 q 0,0.976 0.512,1.488 0.528,0.496 1.424,0.496 z m 6.20798,1.264 v -8.8 h 1.568 v 1.68 h 0.016 q 0.112,-0.864 0.72,-1.344 0.624,-0.496 1.632,-0.496 1.312,0 2.096,0.832 0.784,0.832 0.784,2.24 v 5.888 h -1.584 v -5.632 q 0,-0.96 -0.48,-1.472 -0.48,-0.512 -1.312,-0.512 -0.864,0 -1.36,0.544 -0.496,0.528 -0.496,1.488 v 5.584 z m 15.95197,1.92 q -2.32,-0.528 -3.6,-2.16 -1.264,-1.632 -1.264,-4.08 v -2.88 q 0,-2.448 1.264,-4.08 1.28,-1.632 3.6,-2.16 v 1.536 q -1.008,0.24 -1.744,0.896 -0.736,0.64 -1.136,1.616 -0.4,0.976 -0.4,2.192 v 2.88 q 0,1.2 0.4,2.176 0.4,0.976 1.136,1.632 0.736,0.64 1.744,0.88 z m 3.16798,-1.92 v -1.44 h 3.088 v -5.92 h -2.768 v -1.44 h 4.352 v 7.36 h 2.896 v 1.44 z m 3.728,-10.352 q -0.544,0 -0.864,-0.272 -0.32,-0.288 -0.32,-0.768 0,-0.496 0.32,-0.784 0.32,-0.288 0.864,-0.288 0.544,0 0.864,0.288 0.32,0.288 0.32,0.784 0,0.48 -0.32,0.768 -0.32,0.272 -0.864,0.272 z m 5.95197,10.352 v -8.8 h 1.568 v 1.68 h 0.016 q 0.112,-0.864 0.72,-1.344 0.624,-0.496 1.632,-0.496 1.312,0 2.096,0.832 0.784,0.832 0.784,2.24 v 5.888 h -1.584 v -5.632 q 0,-0.96 -0.48,-1.472 -0.48,-0.512 -1.312,-0.512 -0.864,0 -1.36,0.544 -0.496,0.528 -0.496,1.488 v 5.584 z m 13.87198,0 q -1.136,0 -1.808,-0.656 -0.656,-0.656 -0.656,-1.744 v -4.96 h -2.512 v -1.44 h 2.512 v -2.48 h 1.584 v 2.48 h 3.568 v 1.44 h -3.568 v 4.944 q 0,0.432 0.24,0.704 0.256,0.272 0.672,0.272 h 2.576 v 1.44 z m 17.50395,0.16 q -1.36,0 -2.16,-0.752 -0.784,-0.768 -0.784,-2 0,-1.232 0.816,-1.984 0.832,-0.752 2.176,-0.752 h 2.576 v -0.672 q 0,-1.616 -1.792,-1.616 -0.8,0 -1.296,0.304 -0.48,0.288 -0.512,0.816 h -1.568 q 0.08,-1.072 0.976,-1.76 0.896,-0.704 2.4,-0.704 1.616,0 2.496,0.768 0.88,0.768 0.88,2.16 v 6.032 h -1.552 v -1.616 h -0.032 q -0.112,0.816 -0.816,1.296 -0.688,0.48 -1.808,0.48 z m 0.416,-1.328 q 1.008,0 1.6,-0.48 0.608,-0.496 0.608,-1.344 v -1.168 h -2.432 q -0.688,0 -1.12,0.416 -0.416,0.4 -0.416,1.072 0,0.688 0.464,1.104 0.464,0.4 1.296,0.4 z m 8.47998,3.728 0.864,-4.896 h 1.872 l -1.136,4.896 z m 17.24795,-2.56 v -1.44 h 3.088 v -5.92 h -2.768 v -1.44 h 4.352 v 7.36 h 2.896 v 1.44 z m 3.728,-10.352 q -0.544,0 -0.864,-0.272 -0.32,-0.288 -0.32,-0.768 0,-0.496 0.32,-0.784 0.32,-0.288 0.864,-0.288 0.544,0 0.864,0.288 0.32,0.288 0.32,0.784 0,0.48 -0.32,0.768 -0.32,0.272 -0.864,0.272 z m 5.95197,10.352 v -8.8 h 1.568 v 1.68 h 0.016 q 0.112,-0.864 0.72,-1.344 0.624,-0.496 1.632,-0.496 1.312,0 2.096,0.832 0.784,0.832 0.784,2.24 v 5.888 h -1.584 v -5.632 q 0,-0.96 -0.48,-1.472 -0.48,-0.512 -1.312,-0.512 -0.864,0 -1.36,0.544 -0.496,0.528 -0.496,1.488 v 5.584 z m 13.87198,0 q -1.136,0 -1.808,-0.656 -0.656,-0.656 -0.656,-1.744 v -4.96 h -2.512 v -1.44 h 2.512 v -2.48 h 1.584 v 2.48 h 3.568 v 1.44 h -3.568 v 4.944 q 0,0.432 0.24,0.704 0.256,0.272 0.672,0.272 h 2.576 v 1.44 z m 18.91195,0.16 q -0.992,0 -1.632,-0.496 -0.64,-0.496 -0.784,-1.376 v 0 1.712 h -1.568 v -11.68 h 1.584 v 2.528 l -0.032,2.048 v 0 q 0.144,-0.864 0.784,-1.36 0.656,-0.496 1.648,-0.496 1.312,0 2.096,0.896 0.784,0.88 0.784,2.4 v 2.528 q 0,1.52 -0.784,2.416 -0.784,0.88 -2.096,0.88 z m -0.56,-1.376 q 0.88,0 1.36,-0.448 0.496,-0.464 0.496,-1.488 v -2.496 q 0,-1.024 -0.496,-1.472 -0.48,-0.464 -1.36,-0.464 -0.848,0 -1.344,0.528 -0.496,0.528 -0.496,1.488 v 2.336 q 0,0.96 0.496,1.488 0.496,0.528 1.344,0.528 z m 6.60798,3.136 v -1.552 q 1.008,-0.24 1.744,-0.88 0.736,-0.656 1.136,-1.632 0.416,-0.976 0.416,-2.176 v -2.88 q 0,-1.216 -0.416,-2.192 -0.4,-0.976 -1.136,-1.616 -0.736,-0.656 -1.744,-0.896 v -1.536 q 2.32,0.528 3.6,2.16 1.28,1.632 1.28,4.08 v 2.88 q 0,2.448 -1.28,4.08 -1.28,1.632 -3.6,2.16 z m 24.65595,-0.16 q -1.424,0 -2.256,-0.72 -0.816,-0.704 -0.704,-1.984 l 0.24,-2.576 q 0.08,-0.8 -0.24,-1.152 -0.304,-0.368 -1.264,-0.368 h -1.888 v -1.424 h 1.888 q 0.96,0 1.264,-0.368 0.32,-0.368 0.24,-1.168 l -0.24,-2.592 q -0.112,-1.264 0.704,-1.968 0.832,-0.72 2.256,-0.72 h 0.816 v 1.424 h -0.752 q -0.72,0 -1.104,0.336 -0.384,0.336 -0.336,0.976 l 0.24,2.592 q 0.096,0.912 -0.432,1.472 -0.528,0.56 -1.664,0.672 1.136,0.128 1.664,0.736 0.528,0.608 0.432,1.504 l -0.24,2.592 q -0.048,0.64 0.336,0.976 0.384,0.336 1.104,0.336 h 0.752 v 1.424 z M 10.527951,734.01682 v -1.44 h 3.088 v -5.92 h -2.768 v -1.44 h 4.352 v 7.36 h 2.896 v 1.44 z m 3.728,-10.352 q -0.544,0 -0.864,-0.272 -0.32,-0.288 -0.32,-0.768 0,-0.496 0.32,-0.784 0.32,-0.288 0.864,-0.288 0.544,0 0.864,0.288 0.32,0.288 0.32,0.784 0,0.48 -0.32,0.768 -0.32,0.272 -0.864,0.272 z m 5.951976,10.352 v -8.8 h 1.568 v 1.68 h 0.016 q 0.112,-0.864 0.72,-1.344 0.624,-0.496 1.632,-0.496 1.312,0 2.096,0.832 0.784,0.832 0.784,2.24 v 5.888 h -1.584 v -5.632 q 0,-0.96 -0.48,-1.472 -0.48,-0.512 -1.312,-0.512 -0.864,0 -1.36,0.544 -0.496,0.528 -0.496,1.488 v 5.584 z m 13.871975,0 q -1.136,0 -1.808,-0.656 -0.656,-0.656 -0.656,-1.744 v -4.96 h -2.512 v -1.44 h 2.512 v -2.48 h 1.584 v 2.48 h 3.568 v 1.44 h -3.568 v 4.944 q 0,0.432 0.24,0.704 0.256,0.272 0.672,0.272 h 2.576 v 1.44 z m 14.255952,0 3.12,-4.528 -2.912,-4.272 h 1.84 l 1.648,2.576 q 0.112,0.192 0.208,0.4 0.112,0.208 0.176,0.336 0.048,-0.128 0.144,-0.336 0.112,-0.208 0.224,-0.4 l 1.648,-2.576 h 1.84 l -2.912,4.288 3.104,4.512 h -1.856 l -1.792,-2.768 q -0.112,-0.176 -0.224,-0.4 -0.112,-0.24 -0.176,-0.384 -0.08,0.144 -0.192,0.384 -0.112,0.224 -0.24,0.4 l -1.792,2.768 z m 19.807951,-6.496 v -1.424 h 6.912 v 1.424 z m 0,3.856 v -1.424 h 6.912 v 1.424 z m 22.655951,2.768 q -1.616,0 -2.576,-0.928 -0.944,-0.928 -0.944,-2.592 v -2.016 q 0,-1.664 0.944,-2.592 0.96,-0.928 2.576,-0.928 1.616,0 2.56,0.928 0.96,0.928 0.96,2.592 v 2.016 q 0,1.664 -0.96,2.592 -0.944,0.928 -2.56,0.928 z m 0,-1.392 q 0.896,0 1.408,-0.496 0.528,-0.512 0.528,-1.488 v -2.304 q 0,-0.976 -0.528,-1.472 -0.512,-0.512 -1.408,-0.512 -0.896,0 -1.424,0.512 -0.512,0.496 -0.512,1.472 v 2.304 q 0,0.976 0.512,1.488 0.528,0.496 1.424,0.496 z m 5.711975,1.264 v -8.8 h 1.344 v 1.2 h 0.048 q 0.064,-0.608 0.448,-0.976 0.4,-0.384 1.008,-0.384 0.592,0 0.991999,0.352 0.4,0.352 0.576,0.944 v 0 q 0.096,-0.608 0.496,-0.944 0.4,-0.352 1.008,-0.352 0.832,0 1.344,0.64 0.512,0.624 0.512,1.632 v 6.688 h -1.44 v -6.672 q 0,-0.496 -0.256,-0.784 -0.24,-0.304 -0.656,-0.304 -0.416,0 -0.656,0.288 -0.24,0.288 -0.24,0.8 v 6.672 h -1.279999 v -6.672 q 0,-0.496 -0.24,-0.784 -0.24,-0.304 -0.656,-0.304 -0.416,0 -0.672,0.288 -0.24,0.288 -0.24,0.8 v 6.672 z m 12.463979,0 -2.976,-8.8 h 1.68 l 1.872,5.776 q 0.16,0.512 0.288,1.008 0.128,0.48 0.192,0.768 0.064,-0.288 0.176,-0.768 0.112,-0.496 0.272,-1.008 l 1.856,-5.776 h 1.68 l -2.992,8.8 z m 11.93597,0 q -1.2,0 -1.92,-0.704 -0.72,-0.704 -0.72,-1.872 v -7.664 h -3.008 v -1.44 h 4.592 v 9.088 q 0,0.528 0.288,0.848 0.304,0.304 0.816,0.304 h 2.672 v 1.44 z m 9.59998,0 q -1.2,0 -1.92,-0.704 -0.72,-0.704 -0.72,-1.872 v -7.664 h -3.008 v -1.44 h 4.592 v 9.088 q 0,0.528 0.288,0.848 0.304,0.304 0.816,0.304 h 2.672 v 1.44 z m 4.44797,1.76 v -1.36 h 7.68 v 1.36 z m 13.43998,-1.632 q -1.616,0 -2.576,-0.928 -0.944,-0.928 -0.944,-2.592 v -2.016 q 0,-1.664 0.944,-2.592 0.96,-0.928 2.576,-0.928 1.616,0 2.56,0.928 0.96,0.928 0.96,2.592 v 2.016 q 0,1.664 -0.96,2.592 -0.944,0.928 -2.56,0.928 z m 0,-1.392 q 0.896,0 1.408,-0.496 0.528,-0.512 0.528,-1.488 v -2.304 q 0,-0.976 -0.528,-1.472 -0.512,-0.512 -1.408,-0.512 -0.896,0 -1.424,0.512 -0.512,0.496 -0.512,1.472 v 2.304 q 0,0.976 0.512,1.488 0.528,0.496 1.424,0.496 z m 9.58397,1.424 q -1.552,0 -2.48,-0.912 -0.928,-0.912 -0.928,-2.48 v -5.568 h 1.584 v 5.568 q 0,0.928 0.48,1.472 0.496,0.528 1.344,0.528 0.864,0 1.36,-0.528 0.496,-0.544 0.496,-1.472 v -5.568 h 1.584 v 5.568 q 0,1.568 -0.944,2.48 -0.928,0.912 -2.496,0.912 z m 10.49598,-0.16 q -1.136,0 -1.808,-0.656 -0.656,-0.656 -0.656,-1.744 v -4.96 h -2.512 v -1.44 h 2.512 v -2.48 h 1.584 v 2.48 h 3.568 v 1.44 h -3.568 v 4.944 q 0,0.432 0.24,0.704 0.256,0.272 0.672,0.272 h 2.576 v 1.44 z m 10.03198,0 q -1.2,0 -1.92,-0.704 -0.72,-0.704 -0.72,-1.872 v -7.664 h -3.008 v -1.44 h 4.592 v 9.088 q 0,0.528 0.288,0.848 0.304,0.304 0.816,0.304 h 2.672 v 1.44 z m 4.81597,0 v -1.44 h 3.088 v -5.92 h -2.768 v -1.44 h 4.352 v 7.36 h 2.896 v 1.44 z m 3.728,-10.352 q -0.544,0 -0.864,-0.272 -0.32,-0.288 -0.32,-0.768 0,-0.496 0.32,-0.784 0.32,-0.288 0.864,-0.288 0.544,0 0.864,0.288 0.32,0.288 0.32,0.784 0,0.48 -0.32,0.768 -0.32,0.272 -0.864,0.272 z m 5.95198,10.352 v -8.8 h 1.568 v 1.68 h 0.016 q 0.112,-0.864 0.72,-1.344 0.624,-0.496 1.632,-0.496 1.312,0 2.096,0.832 0.784,0.832 0.784,2.24 v 5.888 h -1.584 v -5.632 q 0,-0.96 -0.48,-1.472 -0.48,-0.512 -1.312,-0.512 -0.864,0 -1.36,0.544 -0.496,0.528 -0.496,1.488 v 5.584 z m 12.99197,0.16 q -1.584,0 -2.56,-0.944 -0.96,-0.944 -0.96,-2.576 v -2.08 q 0,-1.632 0.96,-2.576 0.976,-0.944 2.56,-0.944 1.056,0 1.84,0.432 0.8,0.416 1.232,1.184 0.448,0.752 0.448,1.76 v 1.584 h -5.488 v 0.768 q 0,0.96 0.528,1.504 0.528,0.544 1.44,0.544 0.768,0 1.264,-0.288 0.496,-0.288 0.592,-0.8 h 1.584 q -0.16,1.12 -1.104,1.776 -0.944,0.656 -2.336,0.656 z m -1.968,-5.744 v 0.416 h 3.936 v -0.416 q 0,-1.008 -0.512,-1.552 -0.512,-0.544 -1.456,-0.544 -0.944,0 -1.456,0.544 -0.512,0.544 -0.512,1.552 z m 10.99198,5.744 q -1.328,0 -2.112,-0.88 -0.784,-0.896 -0.784,-2.416 v -2.528 q 0,-1.52 0.784,-2.4 0.784,-0.896 2.112,-0.896 0.976,0 1.616,0.496 0.656,0.496 0.8,1.36 v 0 l -0.032,-2.048 v -2.528 h 1.584 v 11.68 h -1.568 v -1.712 0 q -0.144,0.88 -0.784,1.376 -0.64,0.496 -1.616,0.496 z m 0.544,-1.376 q 0.848,0 1.344,-0.528 0.496,-0.528 0.496,-1.488 v -2.336 q 0,-0.96 -0.496,-1.488 -0.496,-0.528 -1.344,-0.528 -0.88,0 -1.376,0.464 -0.48,0.448 -0.48,1.472 v 2.496 q 0,1.024 0.48,1.488 0.496,0.448 1.376,0.448 z m 12.59197,3.136 q -2.32,-0.528 -3.6,-2.16 -1.264,-1.632 -1.264,-4.08 v -2.88 q 0,-2.448 1.264,-4.08 1.28,-1.632 3.6,-2.16 v 1.536 q -1.008,0.24 -1.744,0.896 -0.736,0.64 -1.136,1.616 -0.4,0.976 -0.4,2.192 v 2.88 q 0,1.2 0.4,2.176 0.4,0.976 1.136,1.632 0.736,0.64 1.744,0.88 z m 5.82398,-1.76 q -1.36,0 -2.16,-0.752 -0.784,-0.768 -0.784,-2 0,-1.232 0.816,-1.984 0.832,-0.752 2.176,-0.752 h 2.576 v -0.672 q 0,-1.616 -1.792,-1.616 -0.8,0 -1.296,0.304 -0.48,0.288 -0.512,0.816 h -1.568 q 0.08,-1.072 0.976,-1.76 0.896,-0.704 2.4,-0.704 1.616,0 2.496,0.768 0.88,0.768 0.88,2.16 v 6.032 h -1.552 v -1.616 h -0.032 q -0.112,0.816 -0.816,1.296 -0.688,0.48 -1.808,0.48 z m 0.416,-1.328 q 1.008,0 1.6,-0.48 0.608,-0.496 0.608,-1.344 v -1.168 h -2.432 q -0.688,0 -1.12,0.416 -0.416,0.4 -0.416,1.072 0,0.688 0.464,1.104 0.464,0.4 1.296,0.4 z m 8.47998,3.728 0.864,-4.896 h 1.872 l -1.136,4.896 z m 21.31195,-2.4 q -0.992,0 -1.632,-0.496 -0.64,-0.496 -0.784,-1.376 v 0 1.712 h -1.568 v -11.68 h 1.584 v 2.528 l -0.032,2.048 v 0 q 0.144,-0.864 0.784,-1.36 0.656,-0.496 1.648,-0.496 1.312,0 2.096,0.896 0.784,0.88 0.784,2.4 v 2.528 q 0,1.52 -0.784,2.416 -0.784,0.88 -2.096,0.88 z m -0.56,-1.376 q 0.88,0 1.36,-0.448 0.496,-0.464 0.496,-1.488 v -2.496 q 0,-1.024 -0.496,-1.472 -0.48,-0.464 -1.36,-0.464 -0.848,0 -1.344,0.528 -0.496,0.528 -0.496,1.488 v 2.336 q 0,0.96 0.496,1.488 0.496,0.528 1.344,0.528 z m 6.60797,3.136 v -1.552 q 1.008,-0.24 1.744,-0.88 0.736,-0.656 1.136,-1.632 0.416,-0.976 0.416,-2.176 v -2.88 q 0,-1.216 -0.416,-2.192 -0.4,-0.976 -1.136,-1.616 -0.736,-0.656 -1.744,-0.896 v -1.536 q 2.32,0.528 3.6,2.16 1.28,1.632 1.28,4.08 v 2.88 q 0,2.448 -1.28,4.08 -1.28,1.632 -3.6,2.16 z m 12.39998,-8.416 q -0.544,0 -0.896,-0.336 -0.336,-0.352 -0.336,-0.896 0,-0.528 0.352,-0.88 0.352,-0.352 0.88,-0.352 h 0.32 q 0.528,0 0.88,0.352 0.352,0.352 0.352,0.88 0,0.544 -0.352,0.896 -0.336,0.336 -0.88,0.336 z m -1.44,9.056 0.864,-4.896 h 1.872 l -1.136,4.896 z M 10.927951,755.77195 v -8.8 h 1.568 v 1.696 h 0.016 q 0.128,-0.864 0.736,-1.36 0.624,-0.496 1.648,-0.496 1.36,0 2.112,0.848 0.752,0.832 0.752,2.352 v 0.768 h -1.584 v -0.752 q 0,-1.84 -1.808,-1.84 -0.912,0 -1.392,0.528 -0.464,0.528 -0.464,1.504 v 5.552 z m 12.671976,0.16 q -1.584,0 -2.56,-0.944 -0.96,-0.944 -0.96,-2.576 v -2.08 q 0,-1.632 0.96,-2.576 0.976,-0.944 2.56,-0.944 1.056,0 1.84,0.432 0.8,0.416 1.232,1.184 0.448,0.752 0.448,1.76 v 1.584 h -5.488 v 0.768 q 0,0.96 0.528,1.504 0.528,0.544 1.44,0.544 0.768,0 1.264,-0.288 0.496,-0.288 0.592,-0.8 h 1.584 q -0.16,1.12 -1.104,1.776 -0.944,0.656 -2.336,0.656 z m -1.968,-5.744 v 0.416 h 3.936 v -0.416 q 0,-1.008 -0.512,-1.552 -0.512,-0.544 -1.456,-0.544 -0.944,0 -1.456,0.544 -0.512,0.544 -0.512,1.552 z m 12.447975,5.584 q -1.136,0 -1.808,-0.656 -0.656,-0.656 -0.656,-1.744 v -4.96 h -2.512 v -1.44 h 2.512 v -2.48 h 1.584 v 2.48 h 3.568 v 1.44 h -3.568 v 4.944 q 0,0.432 0.24,0.704 0.256,0.272 0.672,0.272 h 2.576 v 1.44 z m 8.703976,0.16 q -1.552,0 -2.48,-0.912 -0.928,-0.912 -0.928,-2.48 v -5.568 h 1.584 v 5.568 q 0,0.928 0.48,1.472 0.496,0.528 1.344,0.528 0.864,0 1.36,-0.528 0.496,-0.544 0.496,-1.472 v -5.568 h 1.584 v 5.568 q 0,1.568 -0.944,2.48 -0.928,0.912 -2.496,0.912 z m 6.543976,-0.16 v -8.8 h 1.568 v 1.696 h 0.016 q 0.128,-0.864 0.736,-1.36 0.624,-0.496 1.648,-0.496 1.36,0 2.112,0.848 0.752,0.832 0.752,2.352 v 0.768 h -1.584 v -0.752 q 0,-1.84 -1.808,-1.84 -0.912,0 -1.392,0.528 -0.464,0.528 -0.464,1.504 v 5.552 z m 9.279975,0 v -8.8 h 1.568 v 1.68 h 0.016 q 0.112,-0.864 0.72,-1.344 0.624,-0.496 1.632,-0.496 1.312,0 2.096,0.832 0.784,0.832 0.784,2.24 v 5.888 h -1.584 v -5.632 q 0,-0.96 -0.48,-1.472 -0.48,-0.512 -1.312,-0.512 -0.864,0 -1.36,0.544 -0.496,0.528 -0.496,1.488 v 5.584 z m 18.527951,0 3.12,-4.528 -2.912,-4.272 h 1.84 l 1.648,2.576 q 0.112,0.192 0.208,0.4 0.112,0.208 0.176,0.336 0.048,-0.128 0.144,-0.336 0.112,-0.208 0.224,-0.4 l 1.648,-2.576 h 1.84 l -2.912,4.288 3.104,4.512 h -1.856 l -1.792,-2.768 q -0.112,-0.176 -0.224,-0.4 -0.112,-0.24 -0.176,-0.384 -0.08,0.144 -0.192,0.384 -0.112,0.224 -0.24,0.4 l -1.792,2.768 z m 13.503976,-6.496 q -0.544,0 -0.896,-0.336 -0.336,-0.352 -0.336,-0.896 0,-0.528 0.352,-0.88 0.352,-0.352 0.88,-0.352 h 0.32 q 0.528,0 0.88,0.352 0.352,0.352 0.352,0.88 0,0.544 -0.352,0.896 -0.336,0.336 -0.88,0.336 z m -1.44,9.056 0.864,-4.896 h 1.872 l -1.136,4.896 z M -8.496,779.28708 v -1.424 h 0.736 q 0.72,0 1.12,-0.336 0.416,-0.336 0.32,-0.976 l -0.384,-2.592 q -0.128,-0.88 0.336,-1.488 0.48,-0.624 1.296,-0.768 -0.832,-0.144 -1.296,-0.688 -0.464,-0.544 -0.336,-1.44 l 0.384,-2.592 q 0.096,-0.64 -0.32,-0.976 -0.4,-0.336 -1.12,-0.336 h -0.736 v -1.424 h 0.816 q 0.928,0 1.632,0.32 0.72,0.32 1.072,0.928 0.352,0.592 0.24,1.44 l -0.384,2.592 q -0.112,0.8 0.208,1.168 0.336,0.368 1.296,0.368 h 2.048 v 1.424 h -2.048 q -0.944,0 -1.28,0.368 -0.336,0.352 -0.224,1.152 l 0.384,2.576 q 0.112,0.848 -0.24,1.456 -0.352,0.608 -1.056,0.928 -0.704,0.32 -1.648,0.32 z"
   id="text2"
   style="font-weight:500;font-size:16px;line-height:21.7551px;font-family:'JetBrains Mono';-inkscape-font-specification:'JetBrains Mono, Medium';white-space:pre;fill:#2686ca;stroke-width:0.1;stroke-linecap:round;stroke-linejoin:round"
   transform="matrix(1.6660219,0,0,1.6660219,36.660242,-954.6342)"
   aria-label="int omvll_outlined(int a, int b) {&#10;  return a + b;&#10;}&#10;&#10;int my_function(int a, int b) {&#10;  int x = omvll_outlined(a, b);&#10;  return x;&#10;}" /></g></g></g></svg>
