<?xml version="1.0" encoding="UTF-8" standalone="no"?>
<svg
   width="903.961"
   height="569.15997"
   viewBox="0 0 239.17329 150.59024"
   version="1.1"
   id="svg5"
   sodipodi:docname="indirect-br-1.svg"
   xml:space="preserve"
   inkscape:version="1.4.2 (ebf0e94, 2025-05-08)"
   xmlns:inkscape="http://www.inkscape.org/namespaces/inkscape"
   xmlns:sodipodi="http://sodipodi.sourceforge.net/DTD/sodipodi-0.dtd"
   xmlns="http://www.w3.org/2000/svg"
   xmlns:svg="http://www.w3.org/2000/svg"><sodipodi:namedview
     id="namedview7"
     pagecolor="#ffffff"
     bordercolor="#000000"
     borderopacity="0.25"
     showgrid="true"
     inkscape:showpageshadow="2"
     inkscape:pageopacity="0.0"
     inkscape:pagecheckerboard="0"
     inkscape:deskcolor="#d1d1d1"
     inkscape:zoom="1.0224698"
     inkscape:cx="433.75364"
     inkscape:cy="25.917636"
     inkscape:window-width="3426"
     inkscape:window-height="1383"
     inkscape:window-x="4"
     inkscape:window-y="50"
     inkscape:window-maximized="1"
     inkscape:current-layer="g26211" /><defs
     id="defs2"><rect
       x="11.160988"
       y="55.800269"
       width="1436.9054"
       height="604.35813"
       id="rect1" /><rect
       x="22.319974"
       y="66.960001"
       width="848.15902"
       height="479.88001"
       id="rect2499" /><rect
       x="33.479961"
       y="89.280002"
       width="948.59887"
       height="435.23999"
       id="rect42149" /><rect
       x="55.799999"
       y="55.799999"
       width="892.79999"
       height="502.20001"
       id="rect20415" /></defs><g
     id="layer1"><g
       id="g26287"
       transform="matrix(0.26458333,0,0,0.26458333,151.03674,16.444252)"><g
         id="g26211"
         transform="translate(-559.68753,-50.991504)"
         style="display:inline">
	<path
   style="fill:#e6e6e6;fill-opacity:1"
   d="M 850.74201,546.84001 H 30.897 C 13.833,546.84001 0,533.00701 0,515.94301 V 42.057 C 0,24.993 13.833,11.16 30.897,11.16 h 819.84601 c 17.064,0 30.897,13.833 30.897,30.897 v 473.88601 c -10e-4,17.064 -13.834,30.897 -30.898,30.897 z"
   id="path26201"
   sodipodi:nodetypes="ssssssscs" />
	<path
   style="fill:#434141;fill-opacity:1"
   d="M 881.64001,44.64 H 0.0010028 L 0,30.897 C -0.00124512,13.833 13.833,0 30.897,0 h 819.84601 c 17.063,0 30.896,13.833 30.896,30.897 z"
   id="path26203"
   sodipodi:nodetypes="ccssssc" /><path
   d="M 24.299173,108.7798 13.943846,78.159206 h 5.845749 l 6.513835,20.098242 q 0.556738,1.781562 1.002129,3.507452 0.44539,1.67021 0.668085,2.67234 0.222695,-1.00213 0.612412,-2.67234 0.389717,-1.72589 0.946455,-3.507452 l 6.458161,-20.098242 h 5.845749 L 31.42542,108.7798 Z m 36.967321,0.44539 q -5.623054,0 -8.963482,-3.22908 -3.284754,-3.22908 -3.284754,-9.019159 v -7.014899 q 0,-5.790075 3.284754,-9.019156 3.340428,-3.22908 8.963482,-3.22908 5.623054,0 8.907809,3.22908 3.340428,3.229081 3.340428,9.019156 v 7.014899 q 0,5.790079 -3.340428,9.019159 -3.284755,3.22908 -8.907809,3.22908 z m 0,-4.84362 q 3.117733,0 4.899295,-1.72589 1.837235,-1.78156 1.837235,-5.177665 v -8.017027 q 0,-3.396102 -1.837235,-5.12199 -1.781562,-1.781562 -4.899295,-1.781562 -3.117733,0 -4.954968,1.781562 -1.781562,1.725888 -1.781562,5.12199 v 8.017027 q 0,3.396105 1.781562,5.177665 1.837235,1.72589 4.954968,1.72589 z m 21.322983,4.39823 v -5.01065 H 93.334521 V 83.169848 h -9.631568 v -5.010642 h 15.143274 v 25.609944 h 10.076963 v 5.01065 z M 95.561473,72.758847 q -1.892909,0 -3.006385,-0.946454 -1.113476,-1.002129 -1.113476,-2.672343 0,-1.725888 1.113476,-2.728016 1.113476,-1.002128 3.006385,-1.002128 1.892909,0 3.006385,1.002128 1.113476,1.002128 1.113476,2.728016 0,1.670214 -1.113476,2.672343 -1.113476,0.946454 -3.006385,0.946454 z m 30.509157,36.577683 q -4.62092,0 -7.34894,-3.06205 -2.72802,-3.11774 -2.72802,-8.406748 v -8.796461 q 0,-5.289011 2.72802,-8.35107 2.72802,-3.117733 7.34894,-3.117733 3.3961,0 5.62306,1.725888 2.28262,1.725888 2.78369,4.732273 v 0 l -0.11135,-7.126247 v -8.79646 h 5.51171 V 108.7798 h -5.45604 v -5.9571 0 q -0.50106,3.06206 -2.72801,4.78795 -2.22696,1.72588 -5.62306,1.72588 z m 1.89291,-4.78794 q 2.95071,0 4.6766,-1.83724 1.72589,-1.83723 1.72589,-5.177661 v -8.128375 q 0,-3.340428 -1.72589,-5.177664 -1.72589,-1.837235 -4.6766,-1.837235 -3.06206,0 -4.78794,1.61454 -1.67022,1.558867 -1.67022,5.12199 v 8.685113 q 0,3.563122 1.67022,5.177662 1.72588,1.55887 4.78794,1.55887 z m 53.39102,4.23121 V 78.159206 h 4.6766 v 4.175535 h 0.16702 q 0.22269,-2.115604 1.55887,-3.396102 1.39184,-1.336171 3.50745,-1.336171 2.05993,0 3.45177,1.224824 1.39185,1.224823 2.00426,3.284754 v 0 q 0.33404,-2.115604 1.72589,-3.284754 1.39184,-1.224824 3.50745,-1.224824 2.89503,0 4.67659,2.226952 1.78157,2.171278 1.78157,5.678728 V 108.7798 h -5.01065 V 85.563822 q 0,-1.725888 -0.89078,-2.728017 -0.8351,-1.057802 -2.28262,-1.057802 -1.44752,0 -2.28263,1.002129 -0.83511,1.002128 -0.83511,2.78369 V 108.7798 h -4.4539 V 85.563822 q 0,-1.725888 -0.83511,-2.728017 -0.8351,-1.057802 -2.28262,-1.057802 -1.44752,0 -2.3383,1.002129 -0.83511,1.002128 -0.83511,2.78369 V 108.7798 Z m 39.9737,10.02128 4.4539,-11.85852 -11.41313,-28.783354 h 5.84575 l 6.90355,18.093986 q 0.44539,1.169149 0.89078,2.505321 0.44539,1.336167 0.61242,2.338297 0.16702,-1.00213 0.55673,-2.338297 0.38972,-1.336172 0.83511,-2.505321 l 6.40249,-18.093986 h 5.84575 l -15.19895,40.641874 z m 27.0017,-3.89716 v -4.73228 h 26.72343 v 4.73228 z m 41.81095,-6.12412 V 87.345383 h -8.79646 v -5.010642 h 8.79646 v -6.179792 q 0,-3.674471 2.39397,-5.845749 2.39398,-2.171278 6.51384,-2.171278 h 8.96348 v 4.954968 h -8.96348 q -3.3961,0 -3.3961,3.117733 v 6.124118 h 12.35958 v 5.010642 H 295.65262 V 108.7798 Z m 38.3035,0.55673 q -5.40036,0 -8.62944,-3.1734 -3.22908,-3.17341 -3.22908,-8.629441 V 78.159206 h 5.51171 v 19.374483 q 0,3.229081 1.67021,5.121991 1.72589,1.83723 4.6766,1.83723 3.00639,0 4.73227,-1.83723 1.72589,-1.89291 1.72589,-5.121991 V 78.159206 h 5.51171 v 19.374483 q 0,5.456031 -3.28476,8.629441 -3.22908,3.1734 -8.68511,3.1734 z m 21.65703,-0.55673 V 78.159206 h 5.45604 v 5.845749 h 0.0557 q 0.38972,-3.006385 2.50532,-4.676599 2.17128,-1.725888 5.67873,-1.725888 4.56525,0 7.29327,2.895038 2.72801,2.895037 2.72801,7.794332 V 108.7798 h -5.5117 V 89.182619 q 0,-3.340428 -1.67022,-5.12199 -1.67021,-1.781562 -4.56525,-1.781562 -3.00639,0 -4.73227,1.89291 -1.72589,1.837235 -1.72589,5.177663 v 19.43016 z m 45.65241,0.55673 q -5.62305,0 -9.01915,-3.11773 -3.3961,-3.1734 -3.3961,-8.685111 V 89.34964 q 0,-5.456032 3.3961,-8.573765 3.3961,-3.173407 9.01915,-3.173407 5.40036,0 8.68512,2.895038 3.34043,2.839364 3.50745,7.794332 h -5.45604 q -0.16702,-2.78369 -2.00425,-4.286883 -1.78156,-1.558866 -4.73228,-1.558866 -3.1734,0 -5.06631,1.837235 -1.83724,1.781562 -1.83724,5.066316 v 8.184049 q 0,3.340431 1.83724,5.121991 1.89291,1.78156 5.06631,1.78156 3.00639,0 4.78795,-1.50319 1.78156,-1.50319 1.94858,-4.286885 h 5.45604 q -0.16702,4.954965 -3.50745,7.850005 -3.28476,2.83936 -8.68512,2.83936 z m 36.02088,-0.55673 q -3.95284,0 -6.29114,-2.28263 -2.28263,-2.28262 -2.28263,-6.06844 V 83.169848 h -8.74078 v -5.010642 h 8.74078 v -8.629439 h 5.51171 v 8.629439 h 12.41526 v 5.010642 h -12.41526 v 17.203202 q 0,1.5032 0.83511,2.44965 0.89078,0.94645 2.3383,0.94645 h 8.96348 v 5.01065 z m 18.26093,0 v -5.01065 H 460.7807 V 83.169848 h -9.63156 v -5.010642 h 15.14327 v 25.609944 h 10.07696 v 5.01065 z m 12.972,-36.020953 q -1.89291,0 -3.00639,-0.946454 -1.11348,-1.002129 -1.11348,-2.672343 0,-1.725888 1.11348,-2.728016 1.11348,-1.002128 3.00639,-1.002128 1.8929,0 3.00638,1.002128 1.11348,1.002128 1.11348,2.728016 0,1.670214 -1.11348,2.672343 -1.11348,0.946454 -3.00638,0.946454 z m 32.51339,36.466343 q -5.62305,0 -8.96348,-3.22908 -3.28476,-3.22908 -3.28476,-9.019159 v -7.014899 q 0,-5.790075 3.28476,-9.019156 3.34043,-3.22908 8.96348,-3.22908 5.62305,0 8.90781,3.22908 3.34043,3.229081 3.34043,9.019156 v 7.014899 q 0,5.790079 -3.34043,9.019159 -3.28476,3.22908 -8.90781,3.22908 z m 0,-4.84362 q 3.11773,0 4.89929,-1.72589 1.83724,-1.78156 1.83724,-5.177665 v -8.017027 q 0,-3.396102 -1.83724,-5.12199 -1.78156,-1.781562 -4.89929,-1.781562 -3.11773,0 -4.95497,1.781562 -1.78156,1.725888 -1.78156,5.12199 v 8.017027 q 0,3.396105 1.78156,5.177665 1.83724,1.72589 4.95497,1.72589 z m 21.60136,4.39823 V 78.159206 h 5.45603 v 5.845749 h 0.0557 q 0.38972,-3.006385 2.50533,-4.676599 2.17127,-1.725888 5.67872,-1.725888 4.56526,0 7.29327,2.895038 2.72802,2.895037 2.72802,7.794332 V 108.7798 h -5.51171 V 89.182619 q 0,-3.340428 -1.67021,-5.12199 -1.67022,-1.781562 -4.56525,-1.781562 -3.00639,0 -4.73228,1.89291 -1.72589,1.837235 -1.72589,5.177663 v 19.43016 z m 55.5067,6.68085 q -8.0727,-1.83723 -12.5266,-7.51596 -4.39823,-5.67873 -4.39823,-14.19682 V 83.726586 q 0,-8.518091 4.39823,-14.196819 4.4539,-5.678728 12.5266,-7.515963 v 5.344685 q -3.50745,0.835107 -6.06844,3.117732 -2.561,2.226953 -3.95284,5.623054 -1.39185,3.396102 -1.39185,7.627311 V 93.74787 q 0,4.175536 1.39185,7.57164 1.39184,3.3961 3.95284,5.67873 2.56099,2.22695 6.06844,3.06205 z m 25.16446,-6.12412 q -3.45178,0 -5.67873,-1.72588 -2.22695,-1.72589 -2.72802,-4.78795 v 0 5.9571 h -5.45603 V 68.137922 h 5.51171 v 8.79646 l -0.11135,7.126247 v 0 q 0.50106,-3.006385 2.72801,-4.732273 2.28263,-1.725888 5.73441,-1.725888 4.56525,0 7.29326,3.117733 2.72802,3.062059 2.72802,8.35107 v 8.796461 q 0,5.289008 -2.72802,8.406748 -2.72801,3.06205 -7.29326,3.06205 z m -1.94859,-4.78794 q 3.06206,0 4.73228,-1.55887 1.72588,-1.61454 1.72588,-5.177662 v -8.685113 q 0,-3.563123 -1.72588,-5.12199 -1.67022,-1.61454 -4.73228,-1.61454 -2.95071,0 -4.6766,1.837235 -1.72588,1.837236 -1.72588,5.177664 v 8.128375 q 0,3.340431 1.72588,5.177661 1.72589,1.83724 4.6766,1.83724 z m 33.29289,4.6766 q -5.62305,0 -8.96348,-3.22908 -3.28476,-3.22908 -3.28476,-9.019159 v -7.014899 q 0,-5.790075 3.28476,-9.019156 3.34043,-3.22908 8.96348,-3.22908 5.62305,0 8.90781,3.22908 3.34043,3.229081 3.34043,9.019156 v 7.014899 q 0,5.790079 -3.34043,9.019159 -3.28476,3.22908 -8.90781,3.22908 z m 0,-4.84362 q 3.11773,0 4.89929,-1.72589 1.83724,-1.78156 1.83724,-5.177665 v -8.017027 q 0,-3.396102 -1.83724,-5.12199 -1.78156,-1.781562 -4.89929,-1.781562 -3.11773,0 -4.95497,1.781562 -1.78156,1.725888 -1.78156,5.12199 v 8.017027 q 0,3.396105 1.78156,5.177665 1.83724,1.72589 4.95497,1.72589 z m 33.40418,4.84362 q -5.62306,0 -8.96349,-3.22908 -3.28475,-3.22908 -3.28475,-9.019159 v -7.014899 q 0,-5.790075 3.28475,-9.019156 3.34043,-3.22908 8.96349,-3.22908 5.62305,0 8.9078,3.22908 3.34043,3.229081 3.34043,9.019156 v 7.014899 q 0,5.790079 -3.34043,9.019159 -3.28475,3.22908 -8.9078,3.22908 z m 0,-4.84362 q 3.11773,0 4.89929,-1.72589 1.83724,-1.78156 1.83724,-5.177665 v -8.017027 q 0,-3.396102 -1.83724,-5.12199 -1.78156,-1.781562 -4.89929,-1.781562 -3.11774,0 -4.95497,1.781562 -1.78156,1.725888 -1.78156,5.12199 v 8.017027 q 0,3.396105 1.78156,5.177665 1.83723,1.72589 4.95497,1.72589 z m 37.96948,4.39823 q -4.17553,0 -6.68085,-2.44965 -2.50532,-2.44965 -2.50532,-6.513835 V 73.148564 h -10.46668 v -5.010642 h 15.97838 v 31.622719 q 0,1.837239 1.00213,2.950709 1.0578,1.0578 2.83936,1.0578 h 9.29753 v 5.01065 z m 62.68849,0.55673 q -5.62305,0 -9.01915,-3.11773 -3.39611,-3.1734 -3.39611,-8.685111 V 89.34964 q 0,-5.456032 3.39611,-8.573765 3.3961,-3.173407 9.01915,-3.173407 5.40036,0 8.68511,2.895038 3.34043,2.839364 3.50745,7.794332 h -5.45603 q -0.16702,-2.78369 -2.00426,-4.286883 -1.78156,-1.558866 -4.73227,-1.558866 -3.17341,0 -5.06631,1.837235 -1.83724,1.781562 -1.83724,5.066316 v 8.184049 q 0,3.340431 1.83724,5.121991 1.8929,1.78156 5.06631,1.78156 3.00639,0 4.78795,-1.50319 1.78156,-1.50319 1.94858,-4.286885 h 5.45603 q -0.16702,4.954965 -3.50745,7.850005 -3.28475,2.83936 -8.68511,2.83936 z m 32.95885,-0.11134 q -5.62306,0 -8.96349,-3.22908 -3.28475,-3.22908 -3.28475,-9.019159 v -7.014899 q 0,-5.790075 3.28475,-9.019156 3.34043,-3.22908 8.96349,-3.22908 5.62305,0 8.9078,3.22908 3.34043,3.229081 3.34043,9.019156 v 7.014899 q 0,5.790079 -3.34043,9.019159 -3.28475,3.22908 -8.9078,3.22908 z m 0,-4.84362 q 3.11773,0 4.89929,-1.72589 1.83724,-1.78156 1.83724,-5.177665 v -8.017027 q 0,-3.396102 -1.83724,-5.12199 -1.78156,-1.781562 -4.89929,-1.781562 -3.11774,0 -4.95497,1.781562 -1.78156,1.725888 -1.78156,5.12199 v 8.017027 q 0,3.396105 1.78156,5.177665 1.83723,1.72589 4.95497,1.72589 z m 21.60133,4.39823 V 78.159206 h 5.45603 v 5.845749 h 0.0557 q 0.38972,-3.006385 2.50532,-4.676599 2.17128,-1.725888 5.67873,-1.725888 4.56525,0 7.29327,2.895038 2.72801,2.895037 2.72801,7.794332 V 108.7798 h -5.5117 V 89.182619 q 0,-3.340428 -1.67022,-5.12199 -1.67021,-1.781562 -4.56525,-1.781562 -3.00638,0 -4.73227,1.89291 -1.72589,1.837235 -1.72589,5.177663 v 19.43016 z m 43.20276,0.55673 q -4.62093,0 -7.34894,-3.06205 -2.72802,-3.11774 -2.72802,-8.406748 v -8.796461 q 0,-5.289011 2.72802,-8.35107 2.72801,-3.117733 7.34894,-3.117733 3.3961,0 5.62305,1.725888 2.28263,1.725888 2.78369,4.732273 v 0 l -0.11134,-7.126247 v -8.79646 h 5.5117 V 108.7798 h -5.45603 v -5.9571 0 q -0.50106,3.06206 -2.72802,4.78795 -2.22695,1.72588 -5.62305,1.72588 z m 1.89291,-4.78794 q 2.95071,0 4.6766,-1.83724 1.72589,-1.83723 1.72589,-5.177661 v -8.128375 q 0,-3.340428 -1.72589,-5.177664 -1.72589,-1.837235 -4.6766,-1.837235 -3.06206,0 -4.78795,1.61454 -1.67021,1.558867 -1.67021,5.12199 v 8.685113 q 0,3.563122 1.67021,5.177662 1.72589,1.55887 4.78795,1.55887 z m 23.21593,10.91206 v -5.40036 q 3.50745,-0.8351 6.06844,-3.06205 2.561,-2.28263 3.95284,-5.67873 1.44752,-3.396104 1.44752,-7.57164 V 83.726586 q 0,-4.231209 -1.44752,-7.627311 -1.39184,-3.396101 -3.95284,-5.623054 -2.56099,-2.282625 -6.06844,-3.117732 v -5.344685 q 8.0727,1.837235 12.5266,7.515963 4.45391,5.678728 4.45391,14.196819 V 93.74787 q 0,8.51809 -4.45391,14.19682 -4.4539,5.67873 -12.5266,7.51596 z m 85.79311,-0.55673 q -4.95496,0 -7.85,-2.50533 -2.83937,-2.44964 -2.44965,-6.90355 l 0.83511,-8.963479 q 0.27837,-2.783691 -0.83511,-4.008514 -1.0578,-1.280498 -4.39823,-1.280498 h -6.56951 v -4.954968 h 6.56951 q 3.34043,0 4.39823,-1.280497 1.11348,-1.280498 0.83511,-4.064188 l -0.83511,-9.019156 q -0.38972,-4.39823 2.44965,-6.847877 2.89504,-2.505321 7.85,-2.505321 h 2.83937 v 4.954968 h -2.61667 q -2.50532,0 -3.84149,1.16915 -1.33617,1.16915 -1.16915,3.396102 l 0.8351,9.019156 q 0.33405,3.173406 -1.50319,5.121989 -1.83723,1.948583 -5.79007,2.3383 3.95284,0.44539 5.79007,2.560995 1.83724,2.115604 1.50319,5.233337 l -0.8351,9.019151 q -0.16702,2.22696 1.16915,3.39611 1.33617,1.16915 3.84149,1.16915 h 2.61667 v 4.95497 z M 82.589477,184.3703 v -5.01065 h 10.745044 v -20.5993 h -9.631568 v -5.01064 h 15.143274 v 25.60994 h 10.076963 v 5.01065 z m 12.971996,-36.02095 q -1.892909,0 -3.006385,-0.94646 -1.113476,-1.00213 -1.113476,-2.67234 0,-1.72589 1.113476,-2.72802 1.113476,-1.00212 3.006385,-1.00212 1.892909,0 3.006385,1.00212 1.113476,1.00213 1.113476,2.72802 0,1.67021 -1.113476,2.67234 -1.113476,0.94646 -3.006385,0.94646 z m 27.558447,36.02095 v -21.43442 h -8.79646 v -5.01064 h 8.79646 v -6.17979 q 0,-3.67447 2.39397,-5.84575 2.39398,-2.17128 6.51384,-2.17128 h 8.96348 v 4.95497 h -8.96348 q -3.3961,0 -3.3961,3.11773 v 6.12412 h 12.35958 v 5.01064 h -12.35958 v 21.43442 z m 82.06303,6.68085 q -8.07271,-1.83723 -12.52661,-7.51596 -4.39823,-5.67873 -4.39823,-14.19682 v -10.02128 q 0,-8.5181 4.39823,-14.19682 4.4539,-5.67873 12.52661,-7.51597 v 5.34469 q -3.50745,0.83511 -6.06845,3.11773 -2.56099,2.22695 -3.95284,5.62306 -1.39184,3.3961 -1.39184,7.62731 v 10.02128 q 0,4.17554 1.39184,7.57164 1.39185,3.3961 3.95284,5.67873 2.561,2.22695 6.06845,3.06205 z m 23.54992,-6.12412 q -5.62305,0 -9.01915,-3.11773 -3.3961,-3.1734 -3.3961,-8.68511 v -8.18405 q 0,-5.45603 3.3961,-8.57377 3.3961,-3.1734 9.01915,-3.1734 5.40036,0 8.68512,2.89504 3.34042,2.83936 3.50745,7.79433 h -5.45604 q -0.16702,-2.78369 -2.00425,-4.28688 -1.78157,-1.55887 -4.73228,-1.55887 -3.1734,0 -5.06631,1.83723 -1.83724,1.78157 -1.83724,5.06632 v 8.18405 q 0,3.34043 1.83724,5.12199 1.89291,1.78156 5.06631,1.78156 3.00639,0 4.78795,-1.50319 1.78156,-1.5032 1.94858,-4.28689 h 5.45604 q -0.16703,4.95497 -3.50745,7.85001 -3.28476,2.83936 -8.68512,2.83936 z m 32.9588,-0.11134 q -5.62305,0 -8.96348,-3.22908 -3.28475,-3.22908 -3.28475,-9.01916 v -7.0149 q 0,-5.79007 3.28475,-9.01915 3.34043,-3.22908 8.96348,-3.22908 5.62306,0 8.90781,3.22908 3.34043,3.22908 3.34043,9.01915 v 7.0149 q 0,5.79008 -3.34043,9.01916 -3.28475,3.22908 -8.90781,3.22908 z m 0,-4.84362 q 3.11774,0 4.8993,-1.72589 1.83723,-1.78156 1.83723,-5.17766 v -8.01703 q 0,-3.3961 -1.83723,-5.12199 -1.78156,-1.78156 -4.8993,-1.78156 -3.11773,0 -4.95497,1.78156 -1.78156,1.72589 -1.78156,5.12199 v 8.01703 q 0,3.3961 1.78156,5.17766 1.83724,1.72589 4.95497,1.72589 z m 21.60136,4.39823 v -30.62059 h 5.45603 v 5.84575 h 0.0557 q 0.38972,-3.00639 2.50532,-4.6766 2.17128,-1.72589 5.67873,-1.72589 4.56525,0 7.29327,2.89504 2.72801,2.89503 2.72801,7.79433 v 20.48796 h -5.5117 v -19.59718 q 0,-3.34043 -1.67022,-5.12199 -1.67021,-1.78156 -4.56525,-1.78156 -3.00639,0 -4.73227,1.89291 -1.72589,1.83723 -1.72589,5.17766 v 19.43016 z m 43.2028,0.55673 q -4.62093,0 -7.34895,-3.06205 -2.72801,-3.11774 -2.72801,-8.40675 v -8.79646 q 0,-5.28901 2.72801,-8.35107 2.72802,-3.11773 7.34895,-3.11773 3.3961,0 5.62305,1.72589 2.28263,1.72588 2.78369,4.73227 v 0 l -0.11135,-7.12625 v -8.79646 h 5.51171 v 40.64188 h -5.45603 v -5.9571 0 q -0.50107,3.06206 -2.72802,4.78795 -2.22695,1.72588 -5.62305,1.72588 z m 1.89291,-4.78794 q 2.95071,0 4.6766,-1.83724 1.72588,-1.83723 1.72588,-5.17766 v -8.12838 q 0,-3.34042 -1.72588,-5.17766 -1.72589,-1.83724 -4.6766,-1.83724 -3.06206,0 -4.78795,1.61455 -1.67022,1.55886 -1.67022,5.12198 v 8.68512 q 0,3.56312 1.67022,5.17766 1.72589,1.55887 4.78795,1.55887 z m 23.2159,10.91206 v -5.40036 q 3.50745,-0.8351 6.06844,-3.06205 2.56099,-2.28263 3.95284,-5.67873 1.44752,-3.3961 1.44752,-7.57164 v -10.02128 q 0,-4.23121 -1.44752,-7.62731 -1.39185,-3.39611 -3.95284,-5.62306 -2.56099,-2.28262 -6.06844,-3.11773 v -5.34469 q 8.0727,1.83724 12.5266,7.51597 4.45391,5.67872 4.45391,14.19682 v 10.02128 q 0,8.51809 -4.45391,14.19682 -4.4539,5.67873 -12.5266,7.51596 z m 85.79314,-0.55674 q -4.95497,0 -7.85,-2.50532 -2.83937,-2.44964 -2.44965,-6.90355 l 0.83511,-8.96348 q 0.27836,-2.78369 -0.83511,-4.00851 -1.0578,-1.2805 -4.39823,-1.2805 h -6.56951 v -4.95497 h 6.56951 q 3.34043,0 4.39823,-1.2805 1.11347,-1.28049 0.83511,-4.06418 l -0.83511,-9.01916 q -0.38972,-4.39823 2.44965,-6.84788 2.89503,-2.50532 7.85,-2.50532 h 2.83937 v 4.95497 h -2.61667 q -2.50532,0 -3.8415,1.16915 -1.33617,1.16915 -1.16914,3.3961 l 0.8351,9.01916 q 0.33404,3.1734 -1.50319,5.12199 -1.83724,1.94858 -5.79008,2.3383 3.95284,0.44539 5.79008,2.56099 1.83723,2.11561 1.50319,5.23334 l -0.8351,9.01915 q -0.16703,2.22696 1.16914,3.39611 1.33618,1.16915 3.8415,1.16915 h 2.61667 v 4.95496 z m -287.72154,79.48767 v -40.64187 h 5.45603 v 5.90142 h 0.0557 q 0.44539,-3.00639 2.67234,-4.73227 2.22695,-1.72589 5.67873,-1.72589 4.56525,0 7.29327,3.11773 2.72801,3.06206 2.72801,8.35107 v 8.74079 q 0,5.34468 -2.72801,8.46242 -2.72802,3.06205 -7.29327,3.06205 -3.3961,0 -5.62306,-1.72588 -2.22695,-1.72589 -2.72801,-4.73228 h -0.11135 l 0.11135,7.07058 v 8.85213 z m 11.9142,-14.25249 q 3.06205,0 4.73227,-1.55887 1.72589,-1.61454 1.72589,-5.17766 v -8.68512 q 0,-3.56312 -1.72589,-5.12199 -1.67022,-1.61454 -4.73227,-1.61454 -2.95072,0 -4.6766,1.83724 -1.72589,1.83724 -1.72589,5.17766 v 8.12838 q 0,3.34043 1.72589,5.17766 1.72588,1.83724 4.6766,1.83724 z m 22.60348,4.23121 v -30.62059 h 5.45604 v 5.90142 h 0.0557 q 0.44539,-3.00639 2.56099,-4.73227 2.17128,-1.72589 5.73441,-1.72589 4.73227,0 7.34894,2.95071 2.61667,2.89504 2.61667,8.18405 v 2.67234 h -5.51171 v -2.61667 q 0,-6.40249 -6.29114,-6.40249 -3.17341,0 -4.84362,1.83724 -1.61454,1.83724 -1.61454,5.23334 v 19.31881 z m 32.01235,0 v -5.01065 h 10.74504 v -20.5993 h -9.63157 v -5.01064 h 15.14328 v 25.60994 h 10.07696 v 5.01065 z m 12.97199,-36.02095 q -1.89291,0 -3.00638,-0.94646 -1.11348,-1.00213 -1.11348,-2.67234 0,-1.72589 1.11348,-2.72802 1.11347,-1.00212 3.00638,-1.00212 1.89291,0 3.00639,1.00212 1.11347,1.00213 1.11347,2.72802 0,1.67021 -1.11347,2.67234 -1.11348,0.94646 -3.00639,0.94646 z m 20.71057,36.02095 v -30.62059 h 5.45603 v 5.84574 h 0.0557 q 0.38972,-3.00638 2.50532,-4.67659 2.17128,-1.72589 5.67873,-1.72589 4.56525,0 7.29327,2.89504 2.72802,2.89503 2.72802,7.79433 v 20.48796 h -5.51171 v -19.59718 q 0,-3.34043 -1.67021,-5.12199 -1.67022,-1.78156 -4.56526,-1.78156 -3.00638,0 -4.73227,1.89291 -1.72589,1.83723 -1.72589,5.17766 v 19.43016 z m 48.26911,0 q -3.95284,0 -6.29114,-2.28263 -2.28263,-2.28263 -2.28263,-6.06844 v -17.25888 h -8.74078 v -5.01064 h 8.74078 v -8.62944 h 5.51171 v 8.62944 h 12.41526 v 5.01064 h -12.41526 v 17.2032 q 0,1.5032 0.83511,2.44965 0.89078,0.94645 2.33829,0.94645 h 8.96349 v 5.01065 z m 25.38718,0 v -21.43442 h -8.79647 v -5.01064 h 8.79647 v -6.17979 q 0,-3.67447 2.39397,-5.84575 2.39397,-2.17128 6.51383,-2.17128 h 8.96349 v 4.95497 h -8.96349 q -3.3961,0 -3.3961,3.11773 v 6.12412 h 12.35959 v 5.01064 h -12.35959 v 21.43442 z m 48.65882,6.68085 q -8.0727,-1.83723 -12.5266,-7.51596 -4.39823,-5.67873 -4.39823,-14.19682 v -10.02128 q 0,-8.5181 4.39823,-14.19682 4.4539,-5.67873 12.5266,-7.51597 v 5.34469 q -3.50745,0.83511 -6.06844,3.11773 -2.561,2.22695 -3.95284,5.62306 -1.39185,3.3961 -1.39185,7.62731 v 10.02128 q 0,4.17554 1.39185,7.57164 1.39184,3.3961 3.95284,5.67872 2.56099,2.22696 6.06844,3.06206 z m 14.41941,-30.62059 -0.44539,-16.70214 h 6.12412 l -0.38972,16.70214 z m 12.13689,0 -0.44539,-16.70214 h 6.12412 l -0.38972,16.70214 z m 29.95243,24.38513 q -5.62305,0 -8.96348,-3.22908 -3.28476,-3.22908 -3.28476,-9.01916 v -7.0149 q 0,-5.79007 3.28476,-9.01915 3.34043,-3.22908 8.96348,-3.22908 5.62305,0 8.90781,3.22908 3.34043,3.22908 3.34043,9.01915 v 7.0149 q 0,5.79008 -3.34043,9.01916 -3.28476,3.22908 -8.90781,3.22908 z m 0,-4.84362 q 3.11773,0 4.89929,-1.72589 1.83724,-1.78156 1.83724,-5.17767 v -8.01702 q 0,-3.3961 -1.83724,-5.12199 -1.78156,-1.78156 -4.89929,-1.78156 -3.11773,0 -4.95497,1.78156 -1.78156,1.72589 -1.78156,5.12199 v 8.01702 q 0,3.39611 1.78156,5.17767 1.83724,1.72589 4.95497,1.72589 z m 21.87973,4.39823 v -40.64188 h 5.5117 v 22.49222 h 5.62306 l 8.23972,-12.47093 h 6.23547 l -9.63157,14.64221 10.13263,15.97838 h -6.34681 l -8.57377,-13.41739 h -5.67873 v 13.41739 z m 51.88787,6.12411 -19.70852,-52.33337 h 5.79007 l 19.70853,52.33337 z m 14.64214,-6.12411 v -30.62059 h 5.45603 v 5.84574 h 0.0557 q 0.38972,-3.00638 2.50533,-4.67659 2.17127,-1.72589 5.67872,-1.72589 4.56526,0 7.29327,2.89504 2.72802,2.89503 2.72802,7.79433 v 20.48796 h -5.51171 v -19.59718 q 0,-3.34043 -1.67021,-5.12199 -1.67022,-1.78156 -4.56525,-1.78156 -3.00639,0 -4.73228,1.89291 -1.72589,1.83723 -1.72589,5.17766 v 19.43016 z m 36.52194,-23.93974 -0.44539,-16.70214 h 6.12411 l -0.38971,16.70214 z m 12.13689,0 -0.44539,-16.70214 h 6.12411 l -0.38971,16.70214 z m 19.65274,30.62059 v -5.40036 q 3.50745,-0.8351 6.06845,-3.06206 2.56099,-2.28262 3.95284,-5.67872 1.44751,-3.3961 1.44751,-7.57164 v -10.02128 q 0,-4.23121 -1.44751,-7.62731 -1.39185,-3.39611 -3.95284,-5.62306 -2.561,-2.28262 -6.06845,-3.11773 v -5.34469 q 8.0727,1.83724 12.52661,7.51597 4.4539,5.67872 4.4539,14.19682 v 10.02128 q 0,8.51809 -4.4539,14.19682 -4.45391,5.67873 -12.52661,7.51596 z m 43.14715,-29.28442 q -1.89291,0 -3.11773,-1.16915 -1.16915,-1.22482 -1.16915,-3.11773 0,-1.83723 1.22482,-3.06206 1.22483,-1.22482 3.06206,-1.22482 h 1.11348 q 1.83723,0 3.06206,1.22482 1.22482,1.22483 1.22482,3.06206 0,1.89291 -1.22482,3.11773 -1.16915,1.16915 -3.06206,1.16915 z m -5.01064,31.51137 3.00639,-17.03618 h 6.51383 l -3.95284,17.03618 z M 83.201889,341.6754 v -4.95497 h 2.560995 q 2.505321,0 3.897166,-1.16915 1.447519,-1.16915 1.113476,-3.3961 l -1.336171,-9.01916 q -0.445391,-3.06206 1.16915,-5.17766 1.670214,-2.17128 4.509577,-2.67234 -2.895037,-0.50107 -4.509577,-2.39398 -1.614541,-1.89291 -1.16915,-5.01064 l 1.336171,-9.01915 q 0.334043,-2.22696 -1.113476,-3.39611 -1.391845,-1.16915 -3.897166,-1.16915 h -2.560995 v -4.95496 h 2.839364 q 3.22908,0 5.678728,1.11347 2.505321,1.11348 3.730144,3.22908 1.224824,2.05993 0.835107,5.01064 l -1.336171,9.01916 q -0.389717,2.78369 0.723759,4.06419 1.16915,1.2805 4.50958,1.2805 h 7.12624 v 4.95496 h -7.12624 q -3.284756,0 -4.453906,1.2805 -1.16915,1.22482 -0.779433,4.00851 l 1.336171,8.96349 q 0.389717,2.95071 -0.835107,5.06631 -1.224823,2.11561 -3.674471,3.22908 -2.449647,1.11348 -5.734401,1.11348 z m 78.277201,-5.56738 q -5.51171,0 -8.90781,-3.28476 -3.34043,-3.28475 -3.34043,-8.96348 v -7.23759 q 0,-5.67873 3.34043,-8.96348 3.3961,-3.28476 8.90781,-3.28476 3.67447,0 6.40248,1.5032 2.78369,1.44751 4.28689,4.11986 1.55886,2.61667 1.55886,6.12411 v 5.51171 h -19.09611 v 2.67234 q 0,3.34043 1.83724,5.23334 1.83723,1.89291 5.01064,1.89291 2.67234,0 4.39823,-1.00213 1.72589,-1.00213 2.05993,-2.78369 h 5.5117 q -0.55673,3.89717 -3.84149,6.17979 -3.28475,2.28263 -8.12837,2.28263 z m -6.84788,-19.9869 v 1.44752 h 13.69576 v -1.44752 q 0,-3.50744 -1.78157,-5.40035 -1.78156,-1.89291 -5.06631,-1.89291 -3.28476,0 -5.06632,1.89291 -1.78156,1.89291 -1.78156,5.40035 z m 44.81733,19.43016 q -4.17553,0 -6.68085,-2.44965 -2.50532,-2.44964 -2.50532,-6.51383 v -26.66775 h -10.46668 v -5.01064 h 15.97838 v 31.62272 q 0,1.83723 1.00213,2.95071 1.0578,1.0578 2.83937,1.0578 h 9.29752 v 5.01064 z m 27.61412,0.44539 q -5.23334,0 -8.12838,-2.3383 -2.89503,-2.3383 -2.89503,-6.56951 h 5.45603 q 0,2.00426 1.44752,3.17341 1.50319,1.11348 4.11986,1.11348 h 2.44965 q 2.72801,0 4.17553,-1.16915 1.50319,-1.16915 1.50319,-3.28476 0,-3.73014 -3.67447,-4.17553 l -8.23972,-1.16915 q -3.28475,-0.50107 -5.06632,-2.67235 -1.78156,-2.22695 -1.78156,-5.7344 0,-4.11986 2.78369,-6.40248 2.78369,-2.28263 7.79434,-2.28263 h 2.44964 q 4.6766,0 7.57164,2.22695 2.89504,2.22695 3.06206,5.90143 h -5.56738 q -0.11135,-1.55887 -1.44752,-2.561 -1.33617,-1.0578 -3.6188,-1.0578 h -2.44964 q -2.50533,0 -3.89717,1.11347 -1.33617,1.11348 -1.33617,3.00639 0,3.06206 3.06206,3.45177 l 7.73866,1.11348 q 7.96135,1.0578 7.96135,9.24185 0,4.34256 -2.89504,6.73653 -2.83936,2.3383 -8.12837,2.3383 z m 34.62901,0.11135 q -5.5117,0 -8.90781,-3.28476 -3.34042,-3.28475 -3.34042,-8.96348 v -7.23759 q 0,-5.67873 3.34042,-8.96348 3.39611,-3.28476 8.90781,-3.28476 3.67447,0 6.40249,1.5032 2.78369,1.44751 4.28688,4.11986 1.55887,2.61667 1.55887,6.12411 v 5.51171 H 254.8438 v 2.67234 q 0,3.34043 1.83723,5.23334 1.83724,1.89291 5.01064,1.89291 2.67235,0 4.39823,-1.00213 1.72589,-1.00213 2.05993,-2.78369 h 5.51171 q -0.55674,3.89717 -3.84149,6.17979 -3.28476,2.28263 -8.12838,2.28263 z m -6.84787,-19.9869 v 1.44752 h 13.69575 v -1.44752 q 0,-3.50744 -1.78156,-5.40035 -1.78156,-1.89291 -5.06632,-1.89291 -3.28475,0 -5.06631,1.89291 -1.78156,1.89291 -1.78156,5.40035 z m 82.3414,25.55428 q -4.95497,0 -7.85001,-2.50532 -2.83936,-2.44965 -2.44965,-6.90355 l 0.83511,-8.96349 q 0.27837,-2.78369 -0.83511,-4.00851 -1.0578,-1.2805 -4.39823,-1.2805 h -6.56951 v -4.95496 h 6.56951 q 3.34043,0 4.39823,-1.2805 1.11348,-1.2805 0.83511,-4.06419 l -0.83511,-9.01916 q -0.38971,-4.39823 2.44965,-6.84787 2.89504,-2.50532 7.85001,-2.50532 h 2.83936 v 4.95496 h -2.61667 q -2.50532,0 -3.84149,1.16915 -1.33617,1.16915 -1.16915,3.39611 l 0.83511,9.01915 q 0.33404,3.17341 -1.5032,5.12199 -1.83723,1.94858 -5.79007,2.3383 3.95284,0.44539 5.79007,2.561 1.83724,2.1156 1.5032,5.23333 l -0.83511,9.01916 q -0.16702,2.22695 1.16915,3.3961 1.33617,1.16915 3.84149,1.16915 h 2.61667 v 4.95497 z m -187.50896,79.48768 v -40.64187 h 5.45603 v 5.90142 h 0.0557 q 0.44539,-3.00639 2.67234,-4.73227 2.22695,-1.72589 5.67873,-1.72589 4.56525,0 7.29327,3.11773 2.72801,3.06206 2.72801,8.35107 v 8.74079 q 0,5.34468 -2.72801,8.46242 -2.72802,3.06205 -7.29327,3.06205 -3.3961,0 -5.62306,-1.72588 -2.22695,-1.72589 -2.72801,-4.73228 h -0.11135 l 0.11135,7.07058 v 8.85213 z m 11.9142,-14.25249 q 3.06205,0 4.73227,-1.55887 1.72589,-1.61454 1.72589,-5.17766 v -8.68512 q 0,-3.56312 -1.72589,-5.12199 -1.67022,-1.61454 -4.73227,-1.61454 -2.95072,0 -4.6766,1.83724 -1.72589,1.83724 -1.72589,5.17766 v 8.12838 q 0,3.34043 1.72589,5.17766 1.72588,1.83724 4.6766,1.83724 z m 22.60348,4.23121 v -30.62059 h 5.45604 v 5.90142 h 0.0557 q 0.44539,-3.00639 2.56099,-4.73227 2.17128,-1.72589 5.73441,-1.72589 4.73227,0 7.34894,2.95071 2.61667,2.89504 2.61667,8.18405 v 2.67234 h -5.51171 v -2.61667 q 0,-6.40249 -6.29114,-6.40249 -3.17341,0 -4.84362,1.83724 -1.61454,1.83724 -1.61454,5.23334 v 19.31881 z m 32.01235,0 v -5.01065 h 10.74504 v -20.5993 h -9.63157 v -5.01064 h 15.14328 v 25.60994 h 10.07696 v 5.01065 z m 12.97199,-36.02095 q -1.89291,0 -3.00638,-0.94646 -1.11348,-1.00213 -1.11348,-2.67234 0,-1.72589 1.11348,-2.72802 1.11347,-1.00212 3.00638,-1.00212 1.89291,0 3.00639,1.00212 1.11347,1.00213 1.11347,2.72802 0,1.67021 -1.11347,2.67234 -1.11348,0.94646 -3.00639,0.94646 z m 20.71057,36.02095 v -30.62059 h 5.45603 v 5.84574 h 0.0557 q 0.38972,-3.00638 2.50532,-4.67659 2.17128,-1.72589 5.67873,-1.72589 4.56525,0 7.29327,2.89504 2.72802,2.89503 2.72802,7.79433 v 20.48796 h -5.51171 v -19.59718 q 0,-3.34043 -1.67021,-5.12199 -1.67022,-1.78156 -4.56526,-1.78156 -3.00638,0 -4.73227,1.89291 -1.72589,1.83723 -1.72589,5.17766 v 19.43016 z m 48.26911,0 q -3.95284,0 -6.29114,-2.28263 -2.28263,-2.28263 -2.28263,-6.06844 v -17.25888 h -8.74078 v -5.01064 h 8.74078 v -8.62944 h 5.51171 v 8.62944 h 12.41526 v 5.01064 h -12.41526 v 17.2032 q 0,1.50319 0.83511,2.44965 0.89078,0.94645 2.33829,0.94645 h 8.96349 v 5.01065 z m 25.38718,0 v -21.43442 h -8.79647 v -5.01064 h 8.79647 v -6.17979 q 0,-3.67447 2.39397,-5.84575 2.39397,-2.17128 6.51383,-2.17128 h 8.96349 v 4.95497 h -8.96349 q -3.3961,0 -3.3961,3.11773 v 6.12412 h 12.35959 v 5.01064 h -12.35959 v 21.43442 z m 48.65882,6.68085 q -8.0727,-1.83723 -12.5266,-7.51596 -4.39823,-5.67873 -4.39823,-14.19682 v -10.02128 q 0,-8.5181 4.39823,-14.19682 4.4539,-5.67873 12.5266,-7.51597 v 5.34469 q -3.50745,0.83511 -6.06844,3.11773 -2.561,2.22695 -3.95284,5.62305 -1.39185,3.39611 -1.39185,7.62732 v 10.02128 q 0,4.17554 1.39185,7.57164 1.39184,3.3961 3.95284,5.67872 2.56099,2.22696 6.06844,3.06206 z m 14.41941,-30.62059 -0.44539,-16.70214 h 6.12412 l -0.38972,16.70214 z m 12.13689,0 -0.44539,-16.70214 h 6.12412 l -0.38972,16.70214 z m 18.14958,23.93974 v -30.62059 h 5.45604 v 5.84574 h 0.0557 q 0.38972,-3.00638 2.50532,-4.67659 2.17128,-1.72589 5.67873,-1.72589 4.56525,0 7.29327,2.89504 2.72801,2.89503 2.72801,7.79433 v 20.48796 h -5.5117 v -19.59718 q 0,-3.34043 -1.67022,-5.12199 -1.67021,-1.78156 -4.56525,-1.78156 -3.00638,0 -4.73227,1.89291 -1.72589,1.83723 -1.72589,5.17766 v 19.43016 z m 45.20705,0.44539 q -5.62305,0 -8.96348,-3.22908 -3.28475,-3.22908 -3.28475,-9.01916 v -7.0149 q 0,-5.79007 3.28475,-9.01915 3.34043,-3.22908 8.96348,-3.22908 5.62306,0 8.90781,3.22908 3.34043,3.22908 3.34043,9.01915 v 7.0149 q 0,5.79008 -3.34043,9.01916 -3.28475,3.22908 -8.90781,3.22908 z m 0,-4.84362 q 3.11774,0 4.8993,-1.72589 1.83723,-1.78156 1.83723,-5.17767 v -8.01702 q 0,-3.3961 -1.83723,-5.12199 -1.78156,-1.78156 -4.8993,-1.78156 -3.11773,0 -4.95496,1.78156 -1.78157,1.72589 -1.78157,5.12199 v 8.01702 q 0,3.39611 1.78157,5.17767 1.83723,1.72589 4.95496,1.72589 z m 21.60133,14.41951 v -40.64187 h 5.45604 v 5.90142 h 0.0557 q 0.44539,-3.00639 2.67234,-4.73227 2.22695,-1.72589 5.67873,-1.72589 4.56525,0 7.29327,3.11773 2.72801,3.06206 2.72801,8.35107 v 8.74079 q 0,5.34468 -2.72801,8.46242 -2.72802,3.06205 -7.29327,3.06205 -3.3961,0 -5.62305,-1.72588 -2.22696,-1.72589 -2.72802,-4.73228 h -0.11135 l 0.11135,7.07058 v 8.85213 z m 11.9142,-14.25249 q 3.06206,0 4.73227,-1.55887 1.72589,-1.61454 1.72589,-5.17766 v -8.68512 q 0,-3.56312 -1.72589,-5.12199 -1.67021,-1.61454 -4.73227,-1.61454 -2.95071,0 -4.6766,1.83724 -1.72589,1.83724 -1.72589,5.17766 v 8.12838 q 0,3.34043 1.72589,5.17766 1.72589,1.83724 4.6766,1.83724 z m 24.60774,-19.70853 -0.44539,-16.70214 h 6.12412 l -0.38972,16.70214 z m 12.13689,0 -0.44539,-16.70214 h 6.12412 l -0.38972,16.70214 z m 19.65278,30.62059 v -5.40036 q 3.50745,-0.8351 6.06844,-3.06206 2.561,-2.28262 3.95284,-5.67872 1.44752,-3.3961 1.44752,-7.57164 v -10.02128 q 0,-4.23121 -1.44752,-7.62732 -1.39184,-3.3961 -3.95284,-5.62305 -2.56099,-2.28262 -6.06844,-3.11773 v -5.34469 q 8.0727,1.83724 12.5266,7.51597 4.45391,5.67872 4.45391,14.19682 v 10.02128 q 0,8.51809 -4.45391,14.19682 -4.4539,5.67873 -12.5266,7.51596 z m 43.14709,-29.28442 q -1.89291,0 -3.11774,-1.16915 -1.16915,-1.22482 -1.16915,-3.11773 0,-1.83724 1.22483,-3.06206 1.22482,-1.22482 3.06206,-1.22482 h 1.11347 q 1.83724,0 3.06206,1.22482 1.22483,1.22482 1.22483,3.06206 0,1.89291 -1.22483,3.11773 -1.16915,1.16915 -3.06206,1.16915 z m -5.01065,31.51137 3.00639,-17.03618 h 6.51383 l -3.95284,17.03618 z M 83.201889,492.85643 v -4.95497 h 2.560995 q 2.505321,0 3.897166,-1.16915 1.447519,-1.16915 1.113476,-3.3961 l -1.336171,-9.01916 q -0.445391,-3.06206 1.16915,-5.17766 1.670214,-2.17128 4.509577,-2.67234 -2.895037,-0.50107 -4.509577,-2.39398 -1.614541,-1.8929 -1.16915,-5.01064 l 1.336171,-9.01915 q 0.334043,-2.22696 -1.113476,-3.39611 -1.391845,-1.16915 -3.897166,-1.16915 h -2.560995 v -4.95496 h 2.839364 q 3.22908,0 5.678728,1.11347 2.505321,1.11348 3.730144,3.22908 1.224824,2.05993 0.835107,5.01064 l -1.336171,9.01916 q -0.389717,2.78369 0.723759,4.06419 1.16915,1.2805 4.50958,1.2805 h 7.12624 v 4.95496 h -7.12624 q -3.284756,0 -4.453906,1.2805 -1.16915,1.22483 -0.779433,4.00852 l 1.336171,8.96348 q 0.389717,2.95071 -0.835107,5.06631 -1.224823,2.11561 -3.674471,3.22908 -2.449647,1.11348 -5.734401,1.11348 z m -66.808395,75.59051 v -4.95496 h 2.560994 q 2.505322,0 3.897167,-1.16915 1.447518,-1.16915 1.113476,-3.39611 l -1.336172,-9.01915 q -0.44539,-3.06206 1.16915,-5.17766 1.670214,-2.17128 4.509578,-2.67235 -2.895038,-0.50106 -4.509578,-2.39397 -1.61454,-1.89291 -1.16915,-5.01064 l 1.336172,-9.01916 q 0.334042,-2.22695 -1.113476,-3.3961 -1.391845,-1.16915 -3.897167,-1.16915 h -2.560994 v -4.95497 h 2.839363 q 3.229081,0 5.678728,1.11348 2.505321,1.11347 3.730145,3.22908 1.224824,2.05993 0.835107,5.01064 l -1.336171,9.01916 q -0.389717,2.78369 0.723759,4.06418 1.16915,1.2805 4.509578,1.2805 h 7.126247 v 4.95497 h -7.126247 q -3.284754,0 -4.453904,1.2805 -1.16915,1.22482 -0.779433,4.00851 l 1.336171,8.96348 q 0.389717,2.95071 -0.835107,5.06632 -1.224824,2.1156 -3.674471,3.22908 -2.449647,1.11347 -5.734402,1.11347 z"
   id="text1"
   style="font-weight:500;font-size:55.6738px;line-height:75.5905px;font-family:'JetBrains Mono';-inkscape-font-specification:'JetBrains Mono, Medium';white-space:pre;fill:#434141;stroke-width:3;stroke-linecap:round;stroke-linejoin:round"
   transform="matrix(0.65765999,0,0,0.65765999,12.660435,23.855962)"
   aria-label="void my_function(bool cond) {&#10;  if (cond) {&#10;    printf(&quot;ok\n&quot;);&#10;  } else {&#10;    printf(&quot;nop&quot;);&#10;  }&#10;}" />
	
	
	
</g></g></g></svg>
