<?xml version="1.0" encoding="UTF-8" standalone="no"?>
<svg
   width="903.961"
   height="569.15997"
   viewBox="0 0 239.17329 150.59024"
   version="1.1"
   id="svg5"
   sodipodi:docname="indirect-br-2.svg"
   xml:space="preserve"
   inkscape:version="1.4.2 (ebf0e94, 2025-05-08)"
   xmlns:inkscape="http://www.inkscape.org/namespaces/inkscape"
   xmlns:sodipodi="http://sodipodi.sourceforge.net/DTD/sodipodi-0.dtd"
   xmlns="http://www.w3.org/2000/svg"
   xmlns:svg="http://www.w3.org/2000/svg"><sodipodi:namedview
     id="namedview7"
     pagecolor="#ffffff"
     bordercolor="#000000"
     borderopacity="0.25"
     showgrid="true"
     inkscape:showpageshadow="2"
     inkscape:pageopacity="0.0"
     inkscape:pagecheckerboard="0"
     inkscape:deskcolor="#d1d1d1"
     inkscape:zoom="1.2194989"
     inkscape:cx="597.78651"
     inkscape:cy="239.0326"
     inkscape:window-width="3426"
     inkscape:window-height="1383"
     inkscape:window-x="4"
     inkscape:window-y="50"
     inkscape:window-maximized="1"
     inkscape:current-layer="g26211" /><defs
     id="defs2"><rect
       x="11.160988"
       y="55.800269"
       width="856.85032"
       height="368.63813"
       id="rect2" /><rect
       x="22.32"
       y="66.96"
       width="848.16"
       height="479.88"
       id="rect42346" /><rect
       x="-558"
       y="-111.6"
       width="1116"
       height="613.8"
       id="rect41792" /><rect
       x="55.799999"
       y="55.799999"
       width="892.79999"
       height="502.20001"
       id="rect20415" /><rect
       x="22.319975"
       y="66.959999"
       width="848.159"
       height="479.88"
       id="rect2499" /><rect
       x="11.160988"
       y="55.80027"
       width="2763.7878"
       height="827.84039"
       id="rect1" /></defs><g
     id="layer1"><g
       id="g26287"
       transform="matrix(0.26458333,0,0,0.26458333,151.03674,16.444252)"><g
         id="g26211"
         transform="translate(-559.68753,-50.991504)">
	<path
   style="fill:#20283c;fill-opacity:1"
   d="M 850.74201,546.84001 H 30.897 C 13.833,546.84001 0,533.00701 0,515.94301 V 42.057 C 0,24.993 13.833,11.16 30.897,11.16 h 819.84601 c 17.064,0 30.897,13.833 30.897,30.897 v 473.88601 c -10e-4,17.064 -13.834,30.897 -30.898,30.897 z"
   id="path26201"
   sodipodi:nodetypes="ssssssscs" /><g
   id="g34542"
   transform="matrix(0.22579297,0,0,0.22579297,19.537281,407.67356)"
   style="font-size:80px;font-family:'Brolink DEMO';-inkscape-font-specification:'Brolink DEMO, Normal';display:inline;opacity:1;stroke-width:8.85763;stroke-linecap:round;stroke-linejoin:round;stroke-miterlimit:2;stroke-dasharray:1.11949, 2.23898"><g
     id="g34508"
     style="stroke-width:8.85763"><path
       d="m 162.144,193.719 c 0,0 67.743,-16.576 50.853,-114.74 0,0 81.408,-135.816 257.901,-50.836 0,0 -114.839,23.251 -86.081,138.61 0,0 -77.272,-16.404 -96.43,49.396 0,0 -39.238,-26.305 -76.384,13.254 0.001,0 -31.497,4.809 -49.859,-35.684 z"
       fill="#5bc992"
       id="path34504"
       style="fill:#0d3758;fill-opacity:1;stroke-width:60.4005" /><path
       d="m 168.14,196.604 c -3.557,0 -6.756,-2.472 -7.539,-6.09 -0.898,-4.15 1.723,-8.243 5.861,-9.168 1.823,-0.428 42.24,-10.743 40.627,-79.558 -0.229,-9.782 -1.411,-20.039 -3.511,-30.485 l -2.197,-10.93 c -0.84,-4.18 1.868,-8.251 6.048,-9.092 4.184,-0.838 8.251,1.868 9.092,6.048 l 2.197,10.93 c 2.277,11.327 3.559,22.486 3.81,33.167 0.547,23.372 -3.317,55.876 -24.841,77.998 -13.361,13.732 -27.318,16.877 -27.906,17.004 -0.55,0.118 -1.1,0.176 -1.641,0.176 z"
       fill="#0bb494"
       id="path34506"
       style="fill:#59aae8;fill-opacity:0.992157;stroke-width:60.4005" /></g><g
     id="g34514"
     style="stroke-width:8.85763"><path
       d="m 230.826,252.7 c 40.616,-35.987 77.278,-6.195 77.278,-6.195 25.11,-63.766 100.553,-40.346 100.553,-40.346 -18.06,-117.51 98.427,-130.134 98.427,-130.134 -167.958,-100.804 -261.476,26.976 -261.476,26.976 7.818,99.299 -61.159,109.594 -61.159,109.594 0,0 10.647,24.683 46.377,40.105 z"
       fill="#6fd7a3"
       id="path34510"
       style="fill:#135587;fill-opacity:1;stroke-width:60.4005" /><path
       d="m 190.86,216.05 c -3.848,0 -7.177,-2.872 -7.655,-6.788 -0.514,-4.215 2.472,-8.051 6.676,-8.593 1.85,-0.258 43.048,-6.821 47.752,-75.499 0.668,-9.759 0.432,-20.08 -0.702,-30.678 l -1.186,-11.085 c -0.453,-4.24 2.616,-8.046 6.856,-8.499 4.242,-0.449 8.046,2.616 8.499,6.856 l 1.186,11.085 c 1.23,11.492 1.483,22.721 0.753,33.377 -1.598,23.324 -8.426,55.337 -31.888,75.392 -14.564,12.449 -28.751,14.301 -29.348,14.374 -0.316,0.039 -0.631,0.058 -0.943,0.058 z"
       fill="#0bb494"
       id="path34512"
       style="fill:#59aae8;fill-opacity:0.992157;stroke-width:60.4005" /></g><path
     d="m 99.22,32.25 c 54.02,-16.304 94.124,31.976 82.031,97.634 -11.942,64.843 13.555,101.705 49.575,122.816 34.936,20.476 92.97,61.763 97.24,138.002 7.207,128.69 -146.88,153.812 -189.774,79.616 -38.092,-65.889 25.07,-126.332 25.07,-126.332 l 15.768,13.085 c 0,0 -54.212,57.459 -6.717,98.644 41.377,35.88 119.62,4.994 94.473,-63.798 C 244.159,329.748 153.7,343.132 110.926,284.427 70.063,228.345 104.751,176.066 120.847,144.993 147.748,93.059 132.054,50.522 98.003,64.226 Z"
     fill="#c9f6b0"
     id="path34516"
     style="fill:#1b71af;fill-opacity:1;stroke-width:60.4005" /><g
     id="g34520"
     style="stroke-width:8.85763"><path
       d="M 328.066,390.702 C 323.797,314.463 265.762,273.176 230.826,252.7 194.806,231.589 169.309,194.727 181.251,129.884 193.344,64.227 153.24,15.946 99.22,32.25 l -0.016,0.427 c 31.181,11.593 49.582,49.885 40.867,97.207 -11.942,64.843 13.555,101.705 49.575,122.816 34.936,20.476 92.97,61.763 97.24,138.002 3.97,70.889 -41.004,110.348 -89.374,119.094 59.897,11.218 135.657,-27.974 130.554,-119.094 z"
       fill="#bbf49b"
       id="path34518"
       style="fill:#155d91;fill-opacity:1;stroke-width:60.4005" /></g><path
     d="M 86.13,29.061 146.528,0 c 0,0 -10.295,53.02 -52.157,74.817 L 75.834,69.492 Z"
     fill="#6fd7a3"
     id="path34522"
     style="fill:#00ccff;fill-opacity:1;stroke-width:60.4005" /><path
     d="m 108.988,0 -14.942,49.333 0.325,25.484 c 0.132,10.356 -5.648,19.894 -14.922,24.625 l -53.66,27.374 C 13.17,133.254 -0.159,119.45 6.856,107.202 15.165,92.695 24.711,75.556 34.101,57.672 41.851,42.911 53.79,30.729 68.409,22.59 Z"
     fill="#c9f6b0"
     id="path34524"
     style="fill:#2a95e1;fill-opacity:1;stroke-width:60.4005" /><path
     d="m 181.814,315.601 c 4.614,-3.907 11.558,0.252 10.29,6.164 l -6.293,29.354 -7.207,33.619 c -1.15,5.364 -8.11,6.832 -11.328,2.389 L 157.07,373.035 c -1.033,-1.427 -2.614,-2.359 -4.362,-2.573 l -16.799,-2.056 c -5.486,-0.672 -7.543,-7.554 -3.325,-11.126 l 26.177,-22.163 z"
     fill="#6fd7a3"
     id="path34526"
     style="fill:#2ad4ff;fill-opacity:0.992157;stroke-width:60.4005" /><path
     d="m 408.662,213.882 c -2.855,0 -5.599,-1.59 -6.939,-4.325 -0.083,-0.168 -8.514,-17.05 -27.948,-36.153 -17.846,-17.542 -48.949,-40.642 -95.775,-51.077 -4.162,-0.927 -6.784,-5.054 -5.857,-9.216 0.927,-4.162 5.05,-6.787 9.216,-5.857 50.722,11.302 84.422,36.5 103.761,55.648 21.095,20.887 30.105,39.107 30.478,39.872 1.869,3.833 0.277,8.455 -3.556,10.324 -1.091,0.533 -2.244,0.784 -3.38,0.784 z"
     fill="#0bb494"
     id="path34528"
     style="fill:#59aae8;fill-opacity:0.992157;stroke-width:60.4005" /><path
     d="m 308.106,254.226 c -0.035,0 -0.068,0 -0.103,-0.001 -4.254,-0.056 -7.66,-3.541 -7.62,-7.792 0,-0.459 -0.233,-27.156 -22.522,-73.746 -1.84,-3.847 -0.214,-8.457 3.633,-10.298 3.847,-1.841 8.457,-0.214 10.298,3.633 24.143,50.465 24.049,79.377 24.033,80.583 -0.056,4.231 -3.502,7.621 -7.719,7.621 z"
     fill="#0bb494"
     id="path34530"
     style="fill:#59aae8;fill-opacity:0.992157;stroke-width:60.4005" /><g
     fill="#6fd7a3"
     id="g34540"
     style="display:inline;stroke-width:60.4005"><path
       d="m 293.41,353.127 c -2.935,0 -5.74,-1.682 -7.034,-4.528 -1.765,-3.882 -0.048,-8.459 3.834,-10.224 6.955,-3.161 18.792,-10.715 18.911,-10.791 3.592,-2.297 8.368,-1.248 10.665,2.345 2.297,3.593 1.248,8.367 -2.345,10.665 -0.522,0.334 -12.881,8.222 -20.84,11.839 -1.036,0.47 -2.122,0.694 -3.191,0.694 z"
       id="path34532"
       style="fill:#2b97e2;fill-opacity:0.992157;stroke-width:8.85763" /><path
       d="m 308.098,407.232 c -4.104,0 -7.52,-3.231 -7.707,-7.372 -0.193,-4.26 3.104,-7.87 7.364,-8.063 l 20.207,-0.915 c 4.259,-0.189 7.87,3.104 8.063,7.364 0.193,4.26 -3.104,7.87 -7.364,8.063 l -20.207,0.915 c -0.119,0.005 -0.238,0.008 -0.356,0.008 z"
       id="path34534"
       style="fill:#2b97e2;fill-opacity:0.992157;stroke-width:8.85763" /><path
       d="m 310.641,470.991 c -1.381,0 -2.779,-0.37 -4.042,-1.148 l -14.183,-8.736 c -3.631,-2.236 -4.762,-6.993 -2.525,-10.623 2.236,-3.632 6.993,-4.762 10.623,-2.525 l 14.184,8.736 c 3.631,2.236 4.762,6.993 2.525,10.623 -1.459,2.368 -3.99,3.673 -6.582,3.673 z"
       id="path34536"
       style="fill:#2b97e2;fill-opacity:0.992157;stroke-width:8.85763" /><path
       d="m 258.788,512 c -2.901,0 -5.679,-1.642 -6.994,-4.441 l -7.245,-15.427 c -1.813,-3.86 -0.153,-8.458 3.707,-10.271 3.858,-1.813 8.458,-0.153 10.271,3.707 l 7.245,15.427 c 1.813,3.86 0.153,8.458 -3.707,10.271 -1.06,0.498 -2.177,0.734 -3.277,0.734 z"
       id="path34538"
       style="fill:#2b97e2;fill-opacity:0.992157;stroke-width:8.85763" /></g></g>
	<g
   id="g41581"><path
     style="fill:#2686ca;fill-opacity:1"
     d="M 881.64001,44.64 H 0.0010028 L 0,30.897 C -0.00124512,13.833 13.833,0 30.897,0 h 819.84601 c 17.063,0 30.896,13.833 30.896,30.897 z"
     id="path26203"
     sodipodi:nodetypes="ccssssc" /><g
     id="g41563"
     style="stroke-width:13.8026"
     transform="matrix(0.50127704,0,0,0.50127704,818.45376,3.7727494)"><path
       d="M 37,72 A 1,1 0 0 1 36.578,71.907 C 19.185,63.811 8.8,49.853 8.8,34.57 V 13.46 A 1,1 0 0 1 9.127,12.72 0.992,0.992 0 0 1 9.896,12.464 C 20.887,13.518 29.508,10.209 36.24,2.35 A 1,1 0 0 1 37,2 1,1 0 0 1 37.76,2.352 c 6.586,7.733 15.213,11.048 26.357,10.111 a 1,1 0 0 1 1.083,1 V 34.57 a 29.339,29.339 0 0 1 -0.144,3 33.031,33.031 0 0 1 -1.475,7.2 31.017,31.017 0 0 1 -1.132,3.056 38.379,38.379 0 0 1 -4.011,7.183 c -0.2,0.3 -0.434,0.62 -0.669,0.939 A 53.361,53.361 0 0 1 37.422,71.907 1,1 0 0 1 37,72 Z M 10.8,14.547 V 34.57 c 0,14.362 9.785,27.539 26.2,35.33 A 51.137,51.137 0 0 0 56.149,54.781 c 0.226,-0.3 0.44,-0.592 0.635,-0.889 a 36.4,36.4 0 0 0 3.824,-6.841 29.481,29.481 0 0 0 1.067,-2.877 31.048,31.048 0 0 0 1.389,-6.793 A 26.935,26.935 0 0 0 63.2,34.57 V 14.535 C 52.3,15.2 43.707,11.91 37,4.513 30.158,12.029 21.567,15.319 10.8,14.547 Z"
       id="path35138"
       style="fill:#c11e2c;fill-opacity:1;stroke:#20283c;stroke-width:1.99491;stroke-dasharray:none;stroke-opacity:1" /><path
       d="m 58.031,38.47 a 0.884,0.884 0 0 1 -0.125,-0.008 1,1 0 0 1 -0.868,-1.116 22.223,22.223 0 0 0 0.162,-2.776 1.0000125,1.0000125 0 0 1 2,-0.01 v 0.01 a 24.073,24.073 0 0 1 -0.178,3.024 1,1 0 0 1 -0.991,0.876 z"
       id="path35140"
       style="fill:#c11e2c;fill-opacity:1;stroke:#20283c;stroke-width:1.99491;stroke-dasharray:none;stroke-opacity:1" /><path
       d="m 54.929,48.44 a 1,1 0 0 1 -0.884,-1.466 27.324,27.324 0 0 0 1.312,-2.864 1.0000445,1.0000445 0 1 1 1.866,0.72 29.149,29.149 0 0 1 -1.409,3.076 1,1 0 0 1 -0.885,0.534 z"
       id="path35142"
       style="fill:#c11e2c;fill-opacity:1;stroke:#20283c;stroke-width:1.99491;stroke-dasharray:none;stroke-opacity:1" /><path
       d="M 37,65.31 A 1.01,1.01 0 0 1 36.534,65.195 C 22.925,58.028 14.8,46.579 14.8,34.57 V 19.61 a 1,1 0 0 1 0.952,-1 33.729,33.729 0 0 0 20.6,-7.936 1,1 0 0 1 1.288,0 34.181,34.181 0 0 0 20.611,7.878 1,1 0 0 1 0.946,1 v 8.01 a 1,1 0 1 1 -2,0 V 20.487 A 36.02,36.02 0 0 1 37,12.734 35.561,35.561 0 0 1 16.8,20.552 V 34.57 c 0,11.285 7.354,21.688 20.2,28.607 A 45.135,45.135 0 0 0 49.247,53.771 1,1 0 1 1 50.733,55.109 47.372,47.372 0 0 1 37.466,65.195 1.01,1.01 0 0 1 37,65.31 Z"
       id="path35144"
       style="fill:#c11e2c;fill-opacity:1;stroke:#20283c;stroke-width:1.99491;stroke-dasharray:none;stroke-opacity:1" /></g></g>
	
	
	
<path
   d="m 16.946059,80.561908 q -1.977197,0 -3.101077,-0.894942 -1.123881,-0.894941 -1.123881,-2.497512 h 2.226948 q 0,0.728441 0.520315,1.144693 0.520315,0.39544 1.477695,0.39544 h 0.915754 q 0.978192,0 1.51932,-0.39544 0.541128,-0.416252 0.541128,-1.165505 0,-1.311194 -1.394445,-1.498507 l -3.017827,-0.416252 q -1.269568,-0.166501 -1.956384,-0.999005 -0.686816,-0.853317 -0.686816,-2.206136 0,-1.560944 1.04063,-2.414261 1.061443,-0.874129 2.997015,-0.874129 h 0.936567 q 1.789883,0 2.892951,0.853316 1.12388,0.853317 1.186318,2.247761 h -2.247761 q -0.04163,-0.56194 -0.541127,-0.915754 -0.47869,-0.374627 -1.290381,-0.374627 h -0.936567 q -0.894942,0 -1.394445,0.395439 -0.478689,0.39544 -0.478689,1.04063 0,1.082255 1.186318,1.248756 l 2.830513,0.374627 q 3.059452,0.416252 3.059452,3.517329 0,1.644196 -1.103067,2.539137 -1.103068,0.894942 -3.142703,0.894942 z m 14.090098,-0.187313 q -1.51932,0 -2.414262,-0.874129 -0.894941,-0.87413 -0.894941,-2.372637 V 70.9673 h -3.225953 v -2.039635 h 3.225953 v -3.225953 h 2.24776 v 3.225953 h 4.620397 V 70.9673 h -4.620397 v 6.139717 q 0,0.541127 0.312189,0.894941 0.312189,0.333002 0.853317,0.333002 h 3.350828 v 2.039635 z m 10.198142,0.208126 q -1.748259,0 -2.788889,-0.978192 -1.019817,-0.999005 -1.019817,-2.601575 0,-1.623383 1.103068,-2.601575 1.103068,-0.999005 2.934576,-0.999005 h 3.163515 V 72.56987 q 0,-1.977197 -2.226948,-1.977197 -0.999004,0 -1.60257,0.374627 -0.603565,0.374627 -0.64519,1.04063 h -2.206136 q 0.104063,-1.436069 1.290381,-2.351824 1.186318,-0.936567 3.184328,-0.936567 2.122885,0 3.288391,1.019818 1.165505,0.999004 1.165505,2.8097 v 7.825538 h -2.206135 v -2.143698 h -0.02081 q -0.145688,1.103068 -1.04063,1.727446 -0.894942,0.624378 -2.372636,0.624378 z m 0.64519,-1.852322 q 1.269569,0 1.99801,-0.603565 0.749253,-0.624378 0.749253,-1.665008 v -1.477694 h -2.997014 q -0.894942,0 -1.436069,0.520315 -0.520315,0.520315 -0.520315,1.332006 0,0.874129 0.582753,1.394444 0.582752,0.499502 1.623382,0.499502 z m 14.131725,1.644196 q -1.519319,0 -2.414261,-0.874129 -0.894942,-0.87413 -0.894942,-2.372637 V 70.9673 h -3.225953 v -2.039635 h 3.225953 v -3.225953 h 2.247761 v 3.225953 h 4.620397 V 70.9673 h -4.620397 v 6.139717 q 0,0.541127 0.312189,0.894941 0.312189,0.333002 0.853316,0.333002 h 3.350829 v 2.039635 z m 6.784874,0 V 78.33496 h 3.975207 V 70.9673 H 63.21234 v -2.039635 h 5.806715 v 9.407295 h 3.68383 v 2.039635 z m 4.911774,-13.424127 q -0.728441,0 -1.165506,-0.374626 -0.437065,-0.39544 -0.437065,-1.04063 0,-0.666004 0.437065,-1.04063 0.437065,-0.39544 1.165506,-0.39544 0.728441,0 1.165505,0.39544 0.437065,0.374626 0.437065,1.04063 0,0.64519 -0.437065,1.04063 -0.437064,0.374626 -1.165505,0.374626 z m 12.300212,13.632253 q -2.143698,0 -3.434079,-1.186318 -1.290381,-1.186319 -1.290381,-3.246766 v -2.997014 q 0,-2.060447 1.290381,-3.246766 1.290381,-1.186318 3.434079,-1.186318 2.08126,0 3.330016,1.082255 1.248756,1.082256 1.332006,2.955389 h -2.226948 q -0.06244,-0.978192 -0.728441,-1.519319 -0.64519,-0.541128 -1.706633,-0.541128 -1.144693,0 -1.810696,0.645191 -0.666003,0.624378 -0.666003,1.789883 v 3.017827 q 0,1.186318 0.666003,1.831509 0.666003,0.624378 1.810696,0.624378 1.082255,0 1.727446,-0.541128 0.64519,-0.541127 0.707628,-1.540132 h 2.226948 q -0.08325,1.873134 -1.332006,2.976202 -1.248756,1.082255 -3.330016,1.082255 z m 23.663866,0 q -1.74826,0 -2.78889,-0.978192 -1.019816,-0.999005 -1.019816,-2.601575 0,-1.623383 1.103066,-2.601575 1.10307,-0.999005 2.93458,-0.999005 h 3.16351 V 72.56987 q 0,-1.977197 -2.22694,-1.977197 -0.99901,0 -1.60257,0.374627 -0.60357,0.374627 -0.6452,1.04063 h -2.20613 q 0.10406,-1.436069 1.29038,-2.351824 1.18632,-0.936567 3.18433,-0.936567 2.12288,0 3.28839,1.019818 1.1655,0.999004 1.1655,2.8097 v 7.825538 h -2.20613 v -2.143698 h -0.0208 q -0.14569,1.103068 -1.04063,1.727446 -0.89495,0.624378 -2.37264,0.624378 z m 0.64519,-1.852322 q 1.26957,0 1.99801,-0.603565 0.74925,-0.624378 0.74925,-1.665008 v -1.477694 h -2.99701 q -0.89494,0 -1.43607,0.520315 -0.52032,0.520315 -0.52032,1.332006 0,0.874129 0.58276,1.394444 0.58275,0.499502 1.62338,0.499502 z m 12.96622,1.852322 q -2.08126,0 -3.30921,-1.186318 -1.20713,-1.207131 -1.20713,-3.267578 v -7.20116 h 2.24776 v 7.180347 q 0,1.165505 0.60357,1.852321 0.60356,0.666003 1.66501,0.666003 1.08225,0 1.68582,-0.666003 0.62437,-0.686816 0.62437,-1.852321 v -7.180347 h 2.24777 v 7.20116 q 0,2.060447 -1.24876,3.267578 -1.22794,1.186318 -3.3092,1.186318 z m 13.65303,-0.208126 q -1.51932,0 -2.41426,-0.874129 -0.89495,-0.87413 -0.89495,-2.372637 V 70.9673 h -3.22595 v -2.039635 h 3.22595 v -3.225953 h 2.24777 v 3.225953 h 4.62039 V 70.9673 h -4.62039 v 6.139717 q 0,0.541127 0.31218,0.894941 0.31219,0.333002 0.85332,0.333002 h 3.35083 v 2.039635 z m 11.34283,0.187313 q -2.12288,0 -3.39245,-1.227943 -1.24876,-1.227944 -1.24876,-3.350829 v -2.664012 q 0,-2.143698 1.24876,-3.350829 1.24875,-1.227943 3.39245,-1.227943 2.1437,0 3.39245,1.227943 1.24876,1.207131 1.24876,3.350829 v 2.664012 q 0,2.122885 -1.26957,3.350829 -1.24875,1.227943 -3.37164,1.227943 z m 0,-1.977197 q 1.12388,0 1.74826,-0.624378 0.64519,-0.64519 0.64519,-1.831508 v -2.95539 q 0,-1.186318 -0.64519,-1.810696 -0.62438,-0.64519 -1.74826,-0.64519 -1.12388,0 -1.76907,0.64519 -0.62438,0.624378 -0.62438,1.810696 v 2.95539 q 0,1.186318 0.62438,1.831508 0.64519,0.624378 1.76907,0.624378 z m 20.50036,1.789884 V 65.181397 h 4.47471 q 2.1437,0 3.37164,1.061443 1.24875,1.04063 1.24875,2.872139 0,1.20713 -0.72844,2.122885 -0.72844,0.894941 -1.89394,1.103067 v 0.06244 q 0.87413,0.104063 1.54013,0.624378 0.68682,0.520315 1.06144,1.311194 0.37463,0.790879 0.37463,1.769071 0,1.956384 -1.26957,3.12189 -1.26957,1.144693 -3.41327,1.144693 z m 2.18532,-8.824542 h 2.26858 q 1.10306,0 1.74825,-0.582753 0.66601,-0.603565 0.66601,-1.644195 0,-1.019818 -0.64519,-1.602571 -0.64519,-0.603565 -1.74826,-0.603565 h -2.28939 z m 0,6.88897 h 2.39345 q 1.22794,0 1.93557,-0.645191 0.70763,-0.666003 0.70763,-1.789883 0,-1.165506 -0.70763,-1.873134 -0.70763,-0.707628 -1.93557,-0.707628 h -2.39345 z m 11.15551,1.935572 V 65.181397 h 2.24776 V 78.33496 h 6.63922 v 2.039635 z m 16.10893,0.208126 q -2.12289,0 -3.35083,-1.207131 -1.22794,-1.227943 -1.22794,-3.434079 v -6.32703 q 0,-2.206136 1.22794,-3.413266 1.22794,-1.227944 3.35083,-1.227944 2.12288,0 3.35083,1.227944 1.22794,1.20713 1.22794,3.392453 v 6.347843 q 0,2.206136 -1.22794,3.434079 -1.22795,1.207131 -3.35083,1.207131 z m 0,-1.99801 q 1.12388,0 1.72745,-0.624378 0.60356,-0.624378 0.60356,-1.810696 v -6.743282 q 0,-1.186318 -0.60356,-1.810696 -0.58276,-0.624378 -1.72745,-0.624378 -1.14469,0 -1.74826,0.624378 -0.58275,0.624378 -0.58275,1.810696 v 6.743282 q 0,1.186318 0.60356,1.810696 0.60357,0.624378 1.72745,0.624378 z m 12.65402,1.99801 q -2.1437,0 -3.41327,-1.186318 -1.24875,-1.207131 -1.24875,-3.246766 v -6.743282 q 0,-2.060447 1.24875,-3.246765 1.26957,-1.186319 3.41327,-1.186319 2.12288,0 3.37164,1.207131 1.26957,1.186318 1.26957,3.225953 h -2.24776 q 0,-1.186318 -0.64519,-1.810696 -0.62438,-0.624378 -1.74826,-0.624378 -1.14469,0 -1.78988,0.624378 -0.62438,0.624378 -0.62438,1.810696 v 6.743282 q 0,1.186318 0.62438,1.810696 0.64519,0.624378 1.78988,0.624378 1.12388,0 1.74826,-0.624378 0.64519,-0.624378 0.64519,-1.810696 h 2.24776 q 0,2.039635 -1.26957,3.246766 -1.24876,1.186318 -3.37164,1.186318 z m 7.82551,-0.208126 V 65.181397 h 2.24776 v 6.368656 h 2.01882 l 3.12189,-6.368656 h 2.43508 l -3.60058,7.28441 3.78789,7.908788 h -2.53914 l -3.24676,-6.868158 h -1.9772 v 6.868158 z m 17.04549,0.208126 q -2.24776,0 -3.60058,-1.186318 -1.35282,-1.186319 -1.35282,-3.246766 h 2.20614 q 0,1.144693 0.74925,1.810696 0.74926,0.645191 1.99801,0.645191 1.22795,0 1.93557,-0.666003 0.70763,-0.666004 0.70763,-1.769071 0,-0.832504 -0.45787,-1.456882 -0.45788,-0.624378 -1.3112,-0.853317 l -2.18532,-0.582753 q -1.54013,-0.416252 -2.43507,-1.519319 -0.87413,-1.103068 -0.87413,-2.6432 0,-1.248756 0.54112,-2.164511 0.56194,-0.936567 1.58176,-1.456882 1.01982,-0.520315 2.37264,-0.520315 1.35282,0 2.37263,0.520315 1.04063,0.520315 1.60257,1.456882 0.58276,0.915755 0.58276,2.143698 h -2.20614 q 0,-0.978192 -0.666,-1.560945 -0.64519,-0.603565 -1.68582,-0.603565 -1.04063,0 -1.68582,0.603565 -0.62438,0.582753 -0.62438,1.540132 0,0.770067 0.41625,1.290382 0.43707,0.520315 1.20713,0.728441 l 2.24776,0.603565 q 1.58176,0.416252 2.49751,1.623383 0.91576,1.20713 0.91576,2.851326 0,1.352819 -0.60357,2.351823 -0.60356,0.978193 -1.68582,1.51932 -1.08225,0.541128 -2.55995,0.541128 z m 20.4171,-8.595604 v -2.039634 h 9.01185 v 2.039634 z m 0,5.057462 v -2.039635 h 9.01185 v 2.039635 z m 32.61329,5.619402 q -1.85232,0 -2.91377,-0.95738 -1.06144,-0.957379 -0.89494,-2.601575 l 0.31219,-3.309203 q 0.0832,-0.95738 -0.31219,-1.415257 -0.39544,-0.47869 -1.51932,-0.47869 h -2.55995 v -2.039634 h 2.55995 q 1.12388,0 1.51932,-0.457877 0.39544,-0.457878 0.31219,-1.43607 l -0.31219,-3.330016 q -0.1665,-1.644195 0.89494,-2.580762 1.08226,-0.95738 2.91377,-0.95738 h 1.18631 v 2.039635 h -0.999 q -0.87413,0 -1.35282,0.416252 -0.47869,0.416252 -0.39544,1.207131 l 0.31219,3.330016 q 0.10406,1.144693 -0.58275,1.873134 -0.66601,0.707628 -2.08126,0.874129 1.41525,0.166501 2.08126,0.936567 0.68681,0.770066 0.58275,1.893946 l -0.31219,3.330016 q -0.0833,0.790879 0.39544,1.207131 0.47869,0.416252 1.35282,0.416252 h 0.999 v 2.039635 z M 37.550439,120.45928 44.876474,100.89544 h 2.351824 l -7.326035,19.56384 z m 14.818571,-7.09709 -1.581758,-1.10307 1.415257,-1.99801 q 0.603565,-0.87413 1.519319,-1.70663 -0.56194,-0.0832 -1.12388,-0.20813 -0.56194,-0.14569 -0.978192,-0.29138 l -2.289386,-0.85331 0.666003,-1.8107 2.289386,0.85332 q 0.39544,0.12487 0.894942,0.37463 0.520315,0.24975 0.978192,0.54112 -0.249751,-1.08225 -0.249751,-2.03963 v -2.55995 h 1.935572 l -0.02081,2.55995 q 0.02081,0.97819 -0.249751,2.03963 0.457877,-0.29137 0.957379,-0.52031 0.520315,-0.24975 0.915755,-0.39544 l 2.310198,-0.85332 0.645191,1.8107 -2.289386,0.85331 q -0.416252,0.14569 -0.978192,0.29138 -0.56194,0.12488 -1.123881,0.20813 0.416252,0.37462 0.832504,0.85331 0.416252,0.45788 0.707629,0.85332 l 1.394444,1.99801 -1.581758,1.10307 -1.415256,-1.99801 q -0.270564,-0.39544 -0.561941,-0.93657 -0.291376,-0.54113 -0.520315,-1.06144 -0.228938,0.52031 -0.520315,1.06144 -0.291376,0.54113 -0.56194,0.93657 z m 27.472563,5.01583 q -2.16451,0 -3.434079,-1.22794 -1.269568,-1.22794 -1.269568,-3.28839 v -6.59759 q 0,-2.03964 1.269568,-3.26758 1.269569,-1.22795 3.434079,-1.22795 2.164511,0 3.434079,1.22795 1.269569,1.22794 1.269569,3.26758 v 6.59759 q 0,1.37363 -0.582753,2.39345 -0.582753,0.999 -1.644195,1.56094 -1.04063,0.56194 -2.4767,0.56194 z m 0,-1.93557 q 1.165506,0 1.852322,-0.70763 0.707628,-0.70762 0.707628,-1.87313 v -6.59759 q 0,-1.1447 -0.707628,-1.85233 -0.686816,-0.70762 -1.852322,-0.70762 -1.165505,0 -1.873134,0.70762 -0.686815,0.70763 -0.686815,1.85233 v 6.59759 q 0,1.16551 0.686815,1.87313 0.707629,0.70763 1.873134,0.70763 z m 0,-4.66202 q -0.582752,0 -0.957379,-0.333 -0.353814,-0.333 -0.353814,-0.93657 0,-0.58275 0.353814,-0.89494 0.374627,-0.333 0.957379,-0.333 0.582753,0 0.936567,0.333 0.374627,0.31219 0.374627,0.89494 0,0.60357 -0.374627,0.93657 -0.353814,0.333 -0.936567,0.333 z m 22.477517,5.9524 -1.58176,-1.10306 1.41526,-1.99801 q 0.60356,-0.87413 1.51932,-1.70664 -0.56194,-0.0833 -1.12388,-0.20812 -0.56194,-0.14569 -0.9782,-0.29138 l -2.289382,-0.85332 0.666003,-1.81069 2.289389,0.85331 q 0.39544,0.12488 0.91575,0.37463 0.4995,0.24975 0.95738,0.54113 -0.24975,-1.08226 -0.24975,-2.03964 v -2.55995 h 1.93557 l -0.0208,2.55995 q 0.0208,0.9782 -0.24975,2.03964 0.45787,-0.29138 0.97819,-0.52032 0.4995,-0.24975 0.89494,-0.39544 l 2.3102,-0.85331 0.64519,1.81069 -2.28939,0.85332 q -0.41625,0.14569 -0.97819,0.29138 -0.56194,0.12487 -1.12388,0.20812 0.41625,0.37463 0.83251,0.85332 0.41625,0.45788 0.70762,0.85332 l 1.39445,1.99801 -1.58176,1.10306 -1.41526,-1.99801 q -0.27056,-0.39544 -0.56194,-0.93656 -0.29137,-0.54113 -0.52031,-1.06145 -0.22894,0.52032 -0.52032,1.06145 -0.29137,0.54112 -0.56194,0.93656 z m 10.15655,2.72645 7.32603,-19.56384 h 2.35182 l -7.32603,19.56384 z m 27.61825,0 v -19.56384 h 5.47371 v 2.03964 h -3.22595 v 15.48457 h 3.22595 v 2.03963 z m 11.40528,0 v -2.03963 h 3.22595 v -15.48457 h -3.22595 v -2.03964 h 5.47371 v 19.56384 z m 32.09296,0.20813 q -3.08027,-0.70763 -4.76609,-2.83051 -1.66501,-2.12289 -1.66501,-5.30722 v -3.72545 q 0,-3.16352 1.66501,-5.2864 1.68582,-2.12289 4.76609,-2.83052 v 2.20614 q -1.93557,0.43706 -3.05946,2.03964 -1.12388,1.58175 -1.12388,3.87114 v 3.72545 q 0,2.28939 1.12388,3.89196 1.12389,1.58176 3.05946,2.01882 z m 4.78687,0 v -2.22695 q 1.93557,-0.43706 3.05945,-2.01882 1.12388,-1.60257 1.12388,-3.89196 v -3.72545 q 0,-2.28939 -1.12388,-3.87114 -1.12388,-1.60258 -3.05945,-2.03964 v -2.20614 q 3.08026,0.70763 4.74527,2.83052 1.68582,2.12288 1.68582,5.2864 v 3.72545 q 0,3.18433 -1.68582,5.30722 -1.66501,2.12288 -4.74527,2.83051 z m 31.96808,-0.20813 q -1.85232,0 -2.91376,-0.95738 -1.06144,-0.95738 -0.89494,-2.60157 l 0.31219,-3.3092 q 0.0832,-0.95738 -0.31219,-1.41526 -0.39544,-0.47869 -1.51932,-0.47869 h -2.55995 v -2.03963 h 2.55995 q 1.12388,0 1.51932,-0.45788 0.39544,-0.45788 0.31219,-1.43607 l -0.31219,-3.33002 q -0.1665,-1.64419 0.89494,-2.58076 1.08226,-0.95738 2.91376,-0.95738 h 1.18632 v 2.03964 h -0.999 q -0.87413,0 -1.35282,0.41625 -0.47869,0.41625 -0.39544,1.20713 l 0.31219,3.33001 q 0.10406,1.1447 -0.58275,1.87314 -0.66601,0.70763 -2.08126,0.87413 1.41525,0.1665 2.08126,0.93656 0.68681,0.77007 0.58275,1.89395 l -0.31219,3.33002 q -0.0832,0.79088 0.39544,1.20713 0.47869,0.41625 1.35282,0.41625 h 0.999 v 2.03963 z m 17.33683,1.45689 v -15.1932 h 2.22695 v 2.16451 q 0.22894,-1.12388 1.04063,-1.74826 0.8325,-0.62438 2.08126,-0.62438 1.70663,0 2.72645,1.18632 1.01982,1.16551 1.01982,3.12189 v 3.22595 q 0,1.9772 -1.01982,3.16352 -1.01982,1.1655 -2.72645,1.1655 -1.24876,0 -2.08126,-0.64519 -0.8325,-0.666 -1.06144,-1.81069 h -0.0208 l 0.0624,2.72645 v 3.26758 z m 4.55796,-5.49453 q 1.08226,0 1.68582,-0.56194 0.60357,-0.58275 0.60357,-1.85232 v -3.1427 q 0,-1.24876 -0.60357,-1.8107 -0.60356,-0.58275 -1.68582,-0.58275 -1.08225,0 -1.70663,0.666 -0.60357,0.64519 -0.60357,1.83151 v 2.93458 q 0,1.20713 0.60357,1.87313 0.62438,0.64519 1.70663,0.64519 z m 8.34583,1.74826 v -11.44693 h 2.22695 v 2.24776 0 q 0.1665,-1.14469 0.97819,-1.78988 0.81169,-0.66601 2.1437,-0.66601 1.76907,0 2.74726,1.10307 0.97819,1.10307 0.97819,3.10108 v 1.01981 h -2.24776 v -0.95737 q 0,-2.3102 -2.26857,-2.3102 -1.12388,0 -1.72745,0.666 -0.58275,0.64519 -0.58275,1.89395 v 7.13872 z m 12.00883,0 v -2.03964 h 3.9752 v -7.36766 h -3.55895 v -2.03963 h 5.80671 v 9.40729 h 3.68383 v 2.03964 z m 4.91177,-13.42413 q -0.72844,0 -1.16551,-0.37463 -0.43706,-0.39543 -0.43706,-1.04063 0,-0.666 0.43706,-1.04063 0.43707,-0.39543 1.16551,-0.39543 0.72844,0 1.16551,0.39543 0.43706,0.37463 0.43706,1.04063 0,0.6452 -0.43706,1.04063 -0.43707,0.37463 -1.16551,0.37463 z m 7.63821,13.42413 v -11.44693 h 2.22695 v 2.18532 0 q 0.1665,-1.12388 0.95738,-1.74826 0.81169,-0.64519 2.10207,-0.64519 1.70664,0 2.72645,1.10307 1.01982,1.08226 1.01982,2.93458 v 7.61741 h -2.24776 v -7.28441 q 0,-1.18632 -0.60357,-1.8107 -0.60356,-0.64519 -1.64419,-0.64519 -1.06144,0 -1.68582,0.666 -0.60357,0.66601 -0.60357,1.85233 v 7.22197 z m 18.12774,0 q -1.51932,0 -2.41427,-0.87413 -0.89494,-0.87413 -0.89494,-2.37264 v -6.16053 h -3.22595 v -2.03963 h 3.22595 v -3.22595 h 2.24776 v 3.22595 h 4.6204 v 2.03963 h -4.6204 v 6.13972 q 0,0.54113 0.31219,0.89494 0.31219,0.333 0.85332,0.333 h 3.35083 v 2.03964 z m 9.42806,0 v -7.84635 h -3.24676 v -2.03964 h 3.24676 v -2.20613 q 0,-1.43607 0.91576,-2.26858 0.91575,-0.8325 2.49751,-0.8325 h 3.35083 v 1.99801 h -3.30921 q -1.20713,0 -1.20713,1.12388 v 2.18532 h 4.51634 v 2.03964 h -4.51634 v 7.84635 z m 18.25264,2.49751 q -3.08026,-0.70763 -4.76608,-2.83051 -1.66501,-2.12289 -1.66501,-5.30722 v -3.72545 q 0,-3.16352 1.66501,-5.2864 1.68582,-2.12289 4.76608,-2.83052 v 2.20614 q -1.93557,0.43706 -3.05945,2.03964 -1.12388,1.58175 -1.12388,3.87114 v 3.72545 q 0,2.28939 1.12388,3.89196 1.12388,1.58176 3.05945,2.01882 z m 5.24473,-11.44693 -0.1665,-6.24378 h 2.45589 l -0.14569,6.24378 z m 4.66203,0 -0.1665,-6.24378 h 2.45588 l -0.14569,6.24378 z m 11.21795,9.13673 q -2.12289,0 -3.39246,-1.22794 -1.24875,-1.22795 -1.24875,-3.35083 v -2.66401 q 0,-2.1437 1.24875,-3.35083 1.24876,-1.22794 3.39246,-1.22794 2.14369,0 3.39245,1.22794 1.24876,1.20713 1.24876,3.35083 v 2.66401 q 0,2.12288 -1.26957,3.35083 -1.24876,1.22794 -3.37164,1.22794 z m 0,-1.9772 q 1.12388,0 1.74825,-0.62437 0.6452,-0.64519 0.6452,-1.83151 v -2.95539 q 0,-1.18632 -0.6452,-1.8107 -0.62437,-0.64519 -1.74825,-0.64519 -1.12388,0 -1.76907,0.64519 -0.62438,0.62438 -0.62438,1.8107 v 2.95539 q 0,1.18632 0.62438,1.83151 0.64519,0.62437 1.76907,0.62437 z m 8.09606,1.78989 v -15.1932 h 2.24776 v 8.34585 h 2.01882 l 2.95539,-4.59958 h 2.51832 l -3.51733,5.49452 3.68383,5.95241 h -2.58076 l -3.03864,-4.91178 h -2.03963 v 4.91178 z m 19.3557,2.28938 -7.32603,-19.56384 h 2.35182 l 7.32604,19.56384 z m 5.5153,-2.28938 v -11.44693 h 2.22695 v 2.18532 0 q 0.1665,-1.12388 0.95738,-1.74826 0.81169,-0.64519 2.10207,-0.64519 1.70663,0 2.72645,1.10307 1.01982,1.08226 1.01982,2.93458 v 7.61741 h -2.24776 v -7.28441 q 0,-1.18632 -0.60357,-1.8107 -0.60356,-0.64519 -1.64419,-0.64519 -1.06145,0 -1.68582,0.666 -0.60357,0.66601 -0.60357,1.85233 v 7.22197 z m 13.59059,-8.94942 -0.1665,-6.24378 h 2.45588 l -0.14569,6.24378 z m 4.66202,0 -0.1665,-6.24378 h 2.45588 l -0.14568,6.24378 z m 7.36765,11.44693 v -2.22695 q 1.93557,-0.43706 3.05945,-2.01882 1.12388,-1.60257 1.12388,-3.89196 v -3.72545 q 0,-2.28939 -1.12388,-3.87114 -1.12388,-1.60258 -3.05945,-2.03964 v -2.20614 q 3.08026,0.70763 4.74527,2.83052 1.68582,2.12288 1.68582,5.2864 v 3.72545 q 0,3.18433 -1.68582,5.30722 -1.66501,2.12288 -4.74527,2.83051 z m 16.12972,-10.84336 q -0.72844,0 -1.18632,-0.45788 -0.45787,-0.47869 -0.45787,-1.20713 0,-0.70763 0.45787,-1.16551 0.47869,-0.47869 1.18632,-0.47869 h 0.41625 q 0.70763,0 1.18632,0.47869 0.47869,0.45788 0.47869,1.16551 0,0.72844 -0.47869,1.20713 -0.45788,0.45788 -1.18632,0.45788 z m -1.9772,11.67586 1.12388,-6.36865 h 2.62239 l -1.51932,6.36865 z m 22.83137,-1.04063 v -2.03963 h 0.99901 q 0.87413,0 1.37363,-0.41625 0.4995,-0.41625 0.39544,-1.20713 l -0.45788,-3.33002 q -0.1665,-1.10307 0.43707,-1.87313 0.62437,-0.79088 1.70663,-0.99901 -1.08226,-0.1665 -1.70663,-0.87413 -0.60357,-0.70763 -0.43707,-1.83151 l 0.45788,-3.33001 q 0.10406,-0.79088 -0.39544,-1.20713 -0.4995,-0.41625 -1.37363,-0.41625 h -0.99901 v -2.03964 h 1.18632 q 1.22795,0 2.1437,0.43707 0.91575,0.41625 1.37363,1.20713 0.45788,0.79087 0.31219,1.89394 l -0.45788,3.33002 q -0.14569,0.97819 0.27057,1.43607 0.41625,0.45788 1.56094,0.45788 h 2.68483 v 2.03963 h -2.68483 q -1.14469,0 -1.56094,0.47869 -0.41626,0.45788 -0.27057,1.41526 l 0.45788,3.3092 q 0.14569,1.10307 -0.31219,1.89395 -0.45788,0.81169 -1.37363,1.22794 -0.91575,0.43706 -2.1437,0.43706 z m 14.73528,1.04063 1.12388,-6.36865 h 2.62239 l -1.51932,6.36865 z m -414.835711,36.75468 7.326035,-19.56385 h 2.351824 l -7.326035,19.56385 z m 14.818571,-7.0971 -1.581758,-1.10307 1.415257,-1.99801 q 0.603565,-0.87413 1.519319,-1.70663 -0.56194,-0.0833 -1.12388,-0.20813 -0.56194,-0.14568 -0.978192,-0.29137 l -2.289386,-0.85332 0.666003,-1.81069 2.289386,0.85331 q 0.39544,0.12488 0.894942,0.37463 0.520315,0.24975 0.978192,0.54113 -0.249751,-1.08226 -0.249751,-2.03964 v -2.55995 h 1.935572 l -0.02081,2.55995 q 0.02081,0.97819 -0.249751,2.03964 0.457877,-0.29138 0.957379,-0.52032 0.520315,-0.24975 0.915755,-0.39544 l 2.310198,-0.85331 0.645191,1.81069 -2.289386,0.85332 q -0.416252,0.14569 -0.978192,0.29137 -0.56194,0.12488 -1.123881,0.20813 0.416252,0.37463 0.832504,0.85332 0.416252,0.45787 0.707629,0.85331 l 1.394444,1.99801 -1.581758,1.10307 -1.415256,-1.99801 q -0.270564,-0.39544 -0.561941,-0.93657 -0.291376,-0.54112 -0.520315,-1.06144 -0.228938,0.52032 -0.520315,1.06144 -0.291376,0.54113 -0.56194,0.93657 z m 23.03948,4.80771 v -2.03963 h 4.037644 v -11.07231 l -4.058457,2.99702 v -2.53914 l 3.475704,-2.53914 h 2.830514 v 13.15357 h 3.267578 v 2.03963 z m 26.9106,-0.43706 -1.58176,-1.10307 1.41526,-1.99801 q 0.60356,-0.87413 1.51932,-1.70663 -0.56194,-0.0832 -1.12388,-0.20813 -0.56194,-0.14569 -0.9782,-0.29138 l -2.289382,-0.85331 0.666003,-1.8107 2.289389,0.85332 q 0.39544,0.12487 0.91575,0.37462 0.4995,0.24976 0.95738,0.54113 -0.24975,-1.08225 -0.24975,-2.03963 v -2.55995 h 1.93557 l -0.0208,2.55995 q 0.0208,0.97819 -0.24975,2.03963 0.45787,-0.29137 0.97819,-0.52031 0.4995,-0.24975 0.89494,-0.39544 l 2.3102,-0.85332 0.64519,1.8107 -2.28939,0.85331 q -0.41625,0.14569 -0.97819,0.29138 -0.56194,0.12488 -1.12388,0.20813 0.41625,0.37462 0.83251,0.85331 0.41625,0.45788 0.70762,0.85332 l 1.39445,1.99801 -1.58176,1.10307 -1.41526,-1.99801 q -0.27056,-0.39544 -0.56194,-0.93657 -0.29137,-0.54113 -0.52031,-1.06144 -0.22894,0.52031 -0.52032,1.06144 -0.29137,0.54113 -0.56194,0.93657 z m 10.15655,2.72645 7.32603,-19.56385 h 2.35182 l -7.32603,19.56385 z m 27.61825,0 v -19.56385 h 5.47371 v 2.03964 h -3.22595 v 15.48457 h 3.22595 v 2.03964 z m 11.40528,0 v -2.03964 h 3.22595 v -15.48457 h -3.22595 v -2.03964 h 5.47371 v 19.56385 z m 32.09296,0.20812 q -3.08027,-0.70763 -4.76609,-2.83051 -1.66501,-2.12289 -1.66501,-5.30721 v -3.72546 q 0,-3.16351 1.66501,-5.2864 1.68582,-2.12288 4.76609,-2.83051 v 2.20613 q -1.93557,0.43707 -3.05946,2.03964 -1.12388,1.58176 -1.12388,3.87114 v 3.72546 q 0,2.28938 1.12388,3.89195 1.12389,1.58176 3.05946,2.01883 z m 4.78687,0 v -2.22694 q 1.93557,-0.43707 3.05945,-2.01883 1.12388,-1.60257 1.12388,-3.89195 v -3.72546 q 0,-2.28938 -1.12388,-3.87114 -1.12388,-1.60257 -3.05945,-2.03964 v -2.20613 q 3.08026,0.70763 4.74527,2.83051 1.68582,2.12289 1.68582,5.2864 v 3.72546 q 0,3.18432 -1.68582,5.30721 -1.66501,2.12288 -4.74527,2.83051 z m 31.96808,-0.20812 q -1.85232,0 -2.91376,-0.95738 -1.06144,-0.95738 -0.89494,-2.60158 l 0.31219,-3.3092 q 0.0832,-0.95738 -0.31219,-1.41526 -0.39544,-0.47869 -1.51932,-0.47869 h -2.55995 v -2.03963 h 2.55995 q 1.12388,0 1.51932,-0.45788 0.39544,-0.45788 0.31219,-1.43607 l -0.31219,-3.33001 q -0.1665,-1.6442 0.89494,-2.58077 1.08226,-0.95738 2.91376,-0.95738 h 1.18632 v 2.03964 h -0.999 q -0.87413,0 -1.35282,0.41625 -0.47869,0.41625 -0.39544,1.20713 l 0.31219,3.33002 q 0.10406,1.14469 -0.58275,1.87313 -0.66601,0.70763 -2.08126,0.87413 1.41525,0.1665 2.08126,0.93657 0.68681,0.77006 0.58275,1.89394 l -0.31219,3.33002 q -0.0832,0.79088 0.39544,1.20713 0.47869,0.41625 1.35282,0.41625 h 0.999 v 2.03964 z m 17.33683,1.45688 v -15.1932 h 2.22695 v 2.16451 q 0.22894,-1.12388 1.04063,-1.74826 0.8325,-0.62437 2.08126,-0.62437 1.70663,0 2.72645,1.18631 1.01982,1.16551 1.01982,3.12189 v 3.22596 q 0,1.97719 -1.01982,3.16351 -1.01982,1.16551 -2.72645,1.16551 -1.24876,0 -2.08126,-0.64519 -0.8325,-0.66601 -1.06144,-1.8107 h -0.0208 l 0.0624,2.72645 v 3.26758 z m 4.55796,-5.49453 q 1.08226,0 1.68582,-0.56194 0.60357,-0.58275 0.60357,-1.85232 v -3.1427 q 0,-1.24876 -0.60357,-1.8107 -0.60356,-0.58275 -1.68582,-0.58275 -1.08225,0 -1.70663,0.666 -0.60357,0.64519 -0.60357,1.83151 v 2.93458 q 0,1.20713 0.60357,1.87313 0.62438,0.64519 1.70663,0.64519 z m 8.34583,1.74826 v -11.44693 h 2.22695 v 2.24776 0 q 0.1665,-1.14469 0.97819,-1.78988 0.81169,-0.666 2.1437,-0.666 1.76907,0 2.74726,1.10306 0.97819,1.10307 0.97819,3.10108 v 1.01982 h -2.24776 v -0.95738 q 0,-2.3102 -2.26857,-2.3102 -1.12388,0 -1.72745,0.666 -0.58275,0.64519 -0.58275,1.89395 v 7.13872 z m 12.00883,0 v -2.03963 h 3.9752 v -7.36766 h -3.55895 v -2.03964 h 5.80671 v 9.4073 h 3.68383 v 2.03963 z m 4.91177,-13.42413 q -0.72844,0 -1.16551,-0.37462 -0.43706,-0.39544 -0.43706,-1.04063 0,-0.666 0.43706,-1.04063 0.43707,-0.39544 1.16551,-0.39544 0.72844,0 1.16551,0.39544 0.43706,0.37463 0.43706,1.04063 0,0.64519 -0.43706,1.04063 -0.43707,0.37462 -1.16551,0.37462 z m 7.63821,13.42413 v -11.44693 h 2.22695 v 2.18532 0 q 0.1665,-1.12388 0.95738,-1.74825 0.81169,-0.64519 2.10207,-0.64519 1.70664,0 2.72645,1.10306 1.01982,1.08226 1.01982,2.93458 v 7.61741 h -2.24776 v -7.28441 q 0,-1.18632 -0.60357,-1.81069 -0.60356,-0.64519 -1.64419,-0.64519 -1.06144,0 -1.68582,0.666 -0.60357,0.666 -0.60357,1.85232 v 7.22197 z m 18.12774,0 q -1.51932,0 -2.41427,-0.87413 -0.89494,-0.87413 -0.89494,-2.37263 v -6.16053 h -3.22595 v -2.03964 h 3.22595 v -3.22595 h 2.24776 v 3.22595 h 4.6204 v 2.03964 h -4.6204 v 6.13971 q 0,0.54113 0.31219,0.89495 0.31219,0.333 0.85332,0.333 h 3.35083 v 2.03963 z m 9.42806,0 v -7.84635 h -3.24676 v -2.03963 h 3.24676 v -2.20614 q 0,-1.43607 0.91576,-2.26857 0.91575,-0.83251 2.49751,-0.83251 h 3.35083 v 1.99801 h -3.30921 q -1.20713,0 -1.20713,1.12388 v 2.18533 h 4.51634 v 2.03963 h -4.51634 v 7.84635 z m 18.25264,2.49751 q -3.08026,-0.70763 -4.76608,-2.83051 -1.66501,-2.12289 -1.66501,-5.30721 v -3.72546 q 0,-3.16351 1.66501,-5.2864 1.68582,-2.12288 4.76608,-2.83051 v 2.20613 q -1.93557,0.43707 -3.05945,2.03964 -1.12388,1.58176 -1.12388,3.87114 v 3.72546 q 0,2.28938 1.12388,3.89195 1.12388,1.58176 3.05945,2.01883 z m 5.24473,-11.44693 -0.1665,-6.24378 h 2.45589 l -0.14569,6.24378 z m 4.66203,0 -0.1665,-6.24378 h 2.45588 l -0.14569,6.24378 z m 6.72242,8.94942 v -11.44693 h 2.22695 v 2.18532 0 q 0.1665,-1.12388 0.95738,-1.74825 0.81169,-0.64519 2.10207,-0.64519 1.70664,0 2.72646,1.10306 1.01981,1.08226 1.01981,2.93458 v 7.61741 h -2.24776 v -7.28441 q 0,-1.18632 -0.60356,-1.81069 -0.60357,-0.64519 -1.6442,-0.64519 -1.06144,0 -1.68582,0.666 -0.60356,0.666 -0.60356,1.85232 v 7.22197 z m 16.98304,0.18731 q -2.12288,0 -3.39245,-1.22794 -1.24876,-1.22794 -1.24876,-3.35083 v -2.66401 q 0,-2.1437 1.24876,-3.35083 1.24876,-1.22794 3.39245,-1.22794 2.1437,0 3.39246,1.22794 1.24875,1.20713 1.24875,3.35083 v 2.66401 q 0,2.12289 -1.26956,3.35083 -1.24876,1.22794 -3.37165,1.22794 z m 0,-1.97719 q 1.12388,0 1.74826,-0.62438 0.64519,-0.64519 0.64519,-1.83151 v -2.95539 q 0,-1.18632 -0.64519,-1.81069 -0.62438,-0.64519 -1.74826,-0.64519 -1.12388,0 -1.76907,0.64519 -0.62437,0.62437 -0.62437,1.81069 v 2.95539 q 0,1.18632 0.62437,1.83151 0.64519,0.62438 1.76907,0.62438 z m 7.99203,5.53615 v -15.1932 h 2.22695 v 2.16451 q 0.22894,-1.12388 1.04063,-1.74826 0.8325,-0.62437 2.08126,-0.62437 1.70663,0 2.72645,1.18631 1.01982,1.16551 1.01982,3.12189 v 3.22596 q 0,1.97719 -1.01982,3.16351 -1.01982,1.16551 -2.72645,1.16551 -1.24876,0 -2.08126,-0.64519 -0.8325,-0.66601 -1.06144,-1.8107 h -0.0208 l 0.0624,2.72645 v 3.26758 z m 4.55796,-5.49453 q 1.08226,0 1.68582,-0.56194 0.60357,-0.58275 0.60357,-1.85232 v -3.1427 q 0,-1.24876 -0.60357,-1.8107 -0.60356,-0.58275 -1.68582,-0.58275 -1.08225,0 -1.70663,0.666 -0.60357,0.64519 -0.60357,1.83151 v 2.93458 q 0,1.20713 0.60357,1.87313 0.62438,0.64519 1.70663,0.64519 z m 14.90178,4.03765 -7.32603,-19.56385 h 2.35182 l 7.32603,19.56385 z m 5.5153,-2.28939 v -11.44693 h 2.22695 v 2.18532 0 q 0.1665,-1.12388 0.95738,-1.74825 0.81169,-0.64519 2.10207,-0.64519 1.70663,0 2.72645,1.10306 1.01982,1.08226 1.01982,2.93458 v 7.61741 h -2.24776 v -7.28441 q 0,-1.18632 -0.60357,-1.81069 -0.60356,-0.64519 -1.64419,-0.64519 -1.06145,0 -1.68583,0.666 -0.60356,0.666 -0.60356,1.85232 v 7.22197 z m 13.59062,-8.94942 -0.16651,-6.24378 h 2.45589 l -0.14569,6.24378 z m 4.66202,0 -0.1665,-6.24378 h 2.45588 l -0.14568,6.24378 z m 7.36762,11.44693 v -2.22694 q 1.93557,-0.43707 3.05945,-2.01883 1.12388,-1.60257 1.12388,-3.89195 v -3.72546 q 0,-2.28938 -1.12388,-3.87114 -1.12388,-1.60257 -3.05945,-2.03964 v -2.20613 q 3.08026,0.70763 4.74527,2.83051 1.68582,2.12289 1.68582,5.2864 v 3.72546 q 0,3.18432 -1.68582,5.30721 -1.66501,2.12288 -4.74527,2.83051 z m 16.12972,-10.84336 q -0.72844,0 -1.18632,-0.45788 -0.45788,-0.47869 -0.45788,-1.20713 0,-0.70763 0.45788,-1.1655 0.47869,-0.47869 1.18632,-0.47869 h 0.41625 q 0.70763,0 1.18632,0.47869 0.47869,0.45787 0.47869,1.1655 0,0.72844 -0.47869,1.20713 -0.45788,0.45788 -1.18632,0.45788 z m -1.9772,11.67587 1.12388,-6.36866 h 2.62239 l -1.51932,6.36866 z m 22.83137,-1.04063 v -2.03964 h 0.99901 q 0.87413,0 1.37363,-0.41625 0.4995,-0.41625 0.39544,-1.20713 l -0.45788,-3.33002 q -0.1665,-1.10306 0.43707,-1.87313 0.62437,-0.79088 1.70663,-0.999 -1.08226,-0.16651 -1.70663,-0.87413 -0.60357,-0.70763 -0.43707,-1.83151 l 0.45788,-3.33002 q 0.10406,-0.79088 -0.39544,-1.20713 -0.4995,-0.41625 -1.37363,-0.41625 h -0.99901 v -2.03964 h 1.18632 q 1.22794,0 2.1437,0.43707 0.91575,0.41625 1.37363,1.20713 0.45788,0.79088 0.31219,1.89395 l -0.45788,3.33001 q -0.14569,0.97819 0.27056,1.43607 0.41626,0.45788 1.56095,0.45788 h 2.68483 v 2.03963 h -2.68483 q -1.14469,0 -1.56095,0.47869 -0.41625,0.45788 -0.27056,1.41526 l 0.45788,3.3092 q 0.14569,1.10307 -0.31219,1.89395 -0.45788,0.81169 -1.37363,1.22794 -0.91576,0.43707 -2.1437,0.43707 z m 14.73528,1.04063 1.12388,-6.36866 h 2.62239 l -1.51932,6.36866 z M 13.074915,196.04989 v -2.03963 h 0.999005 q 0.874129,0 1.373632,-0.41626 0.499502,-0.41625 0.395439,-1.20713 l -0.457877,-3.33001 q -0.166501,-1.10307 0.437064,-1.87314 0.624378,-0.79088 1.706634,-0.999 -1.082256,-0.1665 -1.706634,-0.87413 -0.603565,-0.70763 -0.437064,-1.83151 l 0.457877,-3.33002 q 0.104063,-0.79087 -0.395439,-1.20713 -0.499503,-0.41625 -1.373632,-0.41625 h -0.999005 v -2.03963 h 1.186319 q 1.227943,0 2.143697,0.43706 0.915755,0.41625 1.373632,1.20713 0.457877,0.79088 0.312189,1.89395 l -0.457877,3.33002 q -0.145689,0.97819 0.270563,1.43606 0.416252,0.45788 1.560945,0.45788 h 2.684826 v 2.03964 h -2.684826 q -1.144693,0 -1.560945,0.47869 -0.416252,0.45787 -0.270563,1.41525 l 0.457877,3.30921 q 0.145688,1.10306 -0.312189,1.89394 -0.457877,0.81169 -1.373632,1.22795 -0.915754,0.43706 -2.143697,0.43706 z m 2.892952,35.50592 -3.871144,-11.44693 h 2.372637 l 2.351823,7.32603 q 0.208126,0.64519 0.374627,1.29038 0.166501,0.62438 0.249751,1.04063 0.08325,-0.41625 0.208126,-1.04063 0.145688,-0.64519 0.353814,-1.29038 l 2.331011,-7.32603 h 2.372637 l -3.850331,11.44693 z m 13.923597,0.18731 q -2.122885,0 -3.392454,-1.22794 -1.248756,-1.22795 -1.248756,-3.35083 v -2.66401 q 0,-2.1437 1.248756,-3.35083 1.248756,-1.22794 3.392454,-1.22794 2.143698,0 3.392454,1.22794 1.248755,1.20713 1.248755,3.35083 v 2.66401 q 0,2.12288 -1.269568,3.35083 -1.248756,1.22794 -3.371641,1.22794 z m 0,-1.9772 q 1.12388,0 1.748258,-0.62437 0.645191,-0.64519 0.645191,-1.83151 v -2.95539 q 0,-1.18632 -0.645191,-1.8107 -0.624378,-0.64519 -1.748258,-0.64519 -1.123881,0 -1.769071,0.64519 -0.624378,0.62438 -0.624378,1.8107 v 2.95539 q 0,1.18632 0.624378,1.83151 0.64519,0.62437 1.769071,0.62437 z m 7.929568,1.78989 v -2.03964 h 3.975207 v -7.36766 h -3.558955 v -2.03963 H 44.044 v 9.40729 h 3.68383 v 2.03964 z m 4.911774,-13.42413 q -0.728441,0 -1.165506,-0.37463 -0.437064,-0.39543 -0.437064,-1.04063 0,-0.666 0.437064,-1.04063 0.437065,-0.39543 1.165506,-0.39543 0.728441,0 1.165505,0.39543 0.437065,0.37463 0.437065,1.04063 0,0.6452 -0.437065,1.04063 -0.437064,0.37463 -1.165505,0.37463 z m 11.280399,13.63225 q -1.706633,0 -2.726451,-1.1655 -1.019817,-1.16551 -1.019817,-3.1427 v -3.22596 q 0,-1.99801 1.019817,-3.16351 1.019818,-1.16551 2.726451,-1.16551 1.227943,0 2.060447,0.62438 0.853317,0.62438 1.103068,1.74826 l -0.06244,-2.6432 v -3.26758 h 2.247761 v 15.1932 h -2.226948 v -2.16451 q -0.228939,1.12388 -1.061443,1.74826 -0.811691,0.62437 -2.060447,0.62437 z m 0.790879,-1.95638 q 1.082255,0 1.68582,-0.64519 0.624378,-0.666 0.624378,-1.87313 v -2.93458 q 0,-1.18632 -0.624378,-1.83151 -0.603565,-0.666 -1.68582,-0.666 -1.082256,0 -1.685821,0.58275 -0.603565,0.56194 -0.603565,1.8107 v 3.1427 q 0,1.26957 0.603565,1.85232 0.603565,0.56194 1.685821,0.56194 z m 19.896777,1.74826 v -11.44693 h 1.914759 v 1.60257 h 0.04163 q 0.08325,-0.81169 0.603565,-1.3112 0.520315,-0.4995 1.311194,-0.4995 0.749253,0 1.269568,0.47869 0.541128,0.45788 0.749254,1.24876 v 0 q 0.124875,-0.79088 0.64519,-1.24876 0.520315,-0.47869 1.332007,-0.47869 1.061442,0 1.727446,0.83251 0.686815,0.81169 0.686815,2.10207 v 8.72048 h -2.039634 v -8.61642 q 0,-0.62438 -0.291377,-0.97819 -0.291376,-0.37463 -0.811691,-0.37463 -0.520315,0 -0.811692,0.35382 -0.270563,0.35381 -0.270563,0.97819 v 8.63723 h -1.831509 v -8.61642 q 0,-0.62438 -0.291376,-0.97819 -0.270564,-0.37463 -0.790879,-0.37463 -0.520315,0 -0.811692,0.35382 -0.291376,0.35381 -0.291376,0.97819 v 8.63723 z m 14.943421,3.74627 1.665008,-4.41228 -4.287396,-10.78092 h 2.393449 l 2.435074,6.4519 q 0.187314,0.45788 0.353814,0.99901 0.166501,0.54113 0.228939,0.95738 0.08325,-0.41625 0.228938,-0.95738 0.166501,-0.54113 0.333002,-0.99901 l 2.268573,-6.4519 h 2.372637 l -5.640215,15.1932 z m 10.177327,-1.26957 v -1.95639 h 9.990051 v 1.95639 z m 15.567791,-2.4767 v -7.84635 h -3.24677 v -2.03964 h 3.24677 v -2.20613 q 0,-1.43607 0.91575,-2.26858 0.91576,-0.8325 2.49752,-0.8325 h 3.35082 v 1.99801 h -3.3092 q -1.20713,0 -1.20713,1.12388 v 2.18532 h 4.51633 v 2.03964 h -4.51633 v 7.84635 z m 14.38147,0.20812 q -2.08126,0 -3.3092,-1.18631 -1.20713,-1.20713 -1.20713,-3.26758 v -7.20116 h 2.24776 v 7.18035 q 0,1.1655 0.60356,1.85232 0.60357,0.666 1.66501,0.666 1.08226,0 1.68582,-0.666 0.62438,-0.68682 0.62438,-1.85232 v -7.18035 h 2.24776 v 7.20116 q 0,2.06045 -1.24875,3.26758 -1.22795,1.18631 -3.30921,1.18631 z m 8.01282,-0.20812 v -11.44693 h 2.22695 v 2.18532 0 q 0.1665,-1.12388 0.95738,-1.74826 0.81169,-0.64519 2.10207,-0.64519 1.70663,0 2.72645,1.10307 1.01982,1.08226 1.01982,2.93458 v 7.61741 h -2.24776 v -7.28441 q 0,-1.18632 -0.60357,-1.8107 -0.60356,-0.64519 -1.64419,-0.64519 -1.06145,0 -1.68582,0.666 -0.60357,0.66601 -0.60357,1.85233 v 7.22197 z m 17.14956,0.20812 q -2.1437,0 -3.43408,-1.18631 -1.29038,-1.18632 -1.29038,-3.24677 v -2.99701 q 0,-2.06045 1.29038,-3.24677 1.29038,-1.18632 3.43408,-1.18632 2.08125,0 3.33001,1.08226 1.24876,1.08225 1.33201,2.95539 h -2.22695 q -0.0624,-0.9782 -0.72844,-1.51932 -0.64519,-0.54113 -1.70663,-0.54113 -1.1447,0 -1.8107,0.64519 -0.666,0.62438 -0.666,1.78988 v 3.01783 q 0,1.18632 0.666,1.83151 0.666,0.62438 1.8107,0.62438 1.08225,0 1.72744,-0.54113 0.64519,-0.54113 0.70763,-1.54013 h 2.22695 q -0.0832,1.87313 -1.33201,2.9762 -1.24876,1.08225 -3.33001,1.08225 z m 13.46572,-0.20812 q -1.51932,0 -2.41426,-0.87413 -0.89494,-0.87413 -0.89494,-2.37264 v -6.16053 h -3.22596 v -2.03963 h 3.22596 v -3.22595 h 2.24776 v 3.22595 h 4.6204 v 2.03963 h -4.6204 v 6.13972 q 0,0.54113 0.31219,0.89494 0.31219,0.333 0.85331,0.333 h 3.35083 v 2.03964 z m 6.78487,0 v -2.03964 h 3.9752 v -7.36766 h -3.55895 v -2.03963 h 5.80671 v 9.40729 h 3.68383 v 2.03964 z m 4.91177,-13.42413 q -0.72844,0 -1.16551,-0.37463 -0.43706,-0.39543 -0.43706,-1.04063 0,-0.666 0.43706,-1.04063 0.43707,-0.39543 1.16551,-0.39543 0.72844,0 1.16551,0.39543 0.43706,0.37463 0.43706,1.04063 0,0.6452 -0.43706,1.04063 -0.43707,0.37463 -1.16551,0.37463 z m 12.13372,13.61144 q -2.12289,0 -3.39245,-1.22794 -1.24876,-1.22795 -1.24876,-3.35083 v -2.66401 q 0,-2.1437 1.24876,-3.35083 1.24875,-1.22794 3.39245,-1.22794 2.1437,0 3.39245,1.22794 1.24876,1.20713 1.24876,3.35083 v 2.66401 q 0,2.12288 -1.26957,3.35083 -1.24876,1.22794 -3.37164,1.22794 z m 0,-1.9772 q 1.12388,0 1.74826,-0.62437 0.64519,-0.64519 0.64519,-1.83151 v -2.95539 q 0,-1.18632 -0.64519,-1.8107 -0.62438,-0.64519 -1.74826,-0.64519 -1.12388,0 -1.76907,0.64519 -0.62438,0.62438 -0.62438,1.8107 v 2.95539 q 0,1.18632 0.62438,1.83151 0.64519,0.62437 1.76907,0.62437 z m 7.992,1.78989 v -11.44693 h 2.22694 v 2.18532 0 q 0.16651,-1.12388 0.95738,-1.74826 0.8117,-0.64519 2.10208,-0.64519 1.70663,0 2.72645,1.10307 1.01981,1.08226 1.01981,2.93458 v 7.61741 h -2.24776 v -7.28441 q 0,-1.18632 -0.60356,-1.8107 -0.60357,-0.64519 -1.6442,-0.64519 -1.06144,0 -1.68582,0.666 -0.60356,0.66601 -0.60356,1.85233 v 7.22197 z m 20.83338,2.49751 q -3.08026,-0.70763 -4.76608,-2.83051 -1.66501,-2.12289 -1.66501,-5.30722 v -3.72545 q 0,-3.16352 1.66501,-5.2864 1.68582,-2.12289 4.76608,-2.83052 v 2.20614 q -1.93557,0.43706 -3.05945,2.03964 -1.12388,1.58175 -1.12388,3.87114 v 3.72545 q 0,2.28939 1.12388,3.89196 1.12388,1.58176 3.05945,2.01882 z m 9.49052,-2.28939 q -1.24875,0 -2.08126,-0.62437 -0.81169,-0.62438 -1.04063,-1.74826 v 2.16451 h -2.22695 v -15.1932 h 2.24776 v 3.26758 l -0.0624,2.6432 q 0.24975,-1.10307 1.08225,-1.72745 0.85332,-0.64519 2.08126,-0.64519 1.70663,0 2.72645,1.16551 1.01982,1.1655 1.01982,3.16351 v 3.22596 q 0,1.97719 -1.01982,3.1427 -1.01982,1.1655 -2.72645,1.1655 z m -0.79088,-1.95638 q 1.08226,0 1.68582,-0.56194 0.60357,-0.58275 0.60357,-1.85232 v -3.1427 q 0,-1.24876 -0.60357,-1.8107 -0.60356,-0.58275 -1.68582,-0.58275 -1.08225,0 -1.70663,0.666 -0.60357,0.64519 -0.60357,1.83151 v 2.93458 q 0,1.20713 0.60357,1.87313 0.62438,0.64519 1.70663,0.64519 z m 12.42508,1.93557 q -2.12288,0 -3.39245,-1.22794 -1.24876,-1.22795 -1.24876,-3.35083 v -2.66401 q 0,-2.1437 1.24876,-3.35083 1.24876,-1.22794 3.39245,-1.22794 2.1437,0 3.39246,1.22794 1.24875,1.20713 1.24875,3.35083 v 2.66401 q 0,2.12288 -1.26957,3.35083 -1.24875,1.22794 -3.37164,1.22794 z m 0,-1.9772 q 1.12388,0 1.74826,-0.62437 0.64519,-0.64519 0.64519,-1.83151 v -2.95539 q 0,-1.18632 -0.64519,-1.8107 -0.62438,-0.64519 -1.74826,-0.64519 -1.12388,0 -1.76907,0.64519 -0.62438,0.62438 -0.62438,1.8107 v 2.95539 q 0,1.18632 0.62438,1.83151 0.64519,0.62437 1.76907,0.62437 z m 12.48754,1.9772 q -2.12289,0 -3.39246,-1.22794 -1.24875,-1.22795 -1.24875,-3.35083 v -2.66401 q 0,-2.1437 1.24875,-3.35083 1.24876,-1.22794 3.39246,-1.22794 2.14369,0 3.39245,1.22794 1.24876,1.20713 1.24876,3.35083 v 2.66401 q 0,2.12288 -1.26957,3.35083 -1.24876,1.22794 -3.37164,1.22794 z m 0,-1.9772 q 1.12388,0 1.74826,-0.62437 0.64519,-0.64519 0.64519,-1.83151 v -2.95539 q 0,-1.18632 -0.64519,-1.8107 -0.62438,-0.64519 -1.74826,-0.64519 -1.12388,0 -1.76907,0.64519 -0.62438,0.62438 -0.62438,1.8107 v 2.95539 q 0,1.18632 0.62438,1.83151 0.64519,0.62437 1.76907,0.62437 z m 14.25659,1.78989 q -1.62339,0 -2.60158,-0.93657 -0.95738,-0.95738 -0.95738,-2.53914 v -9.67785 h -3.85033 v -2.03964 h 6.09809 v 11.67587 q 0,0.68681 0.37463,1.08225 0.37463,0.39544 1.01982,0.39544 h 3.45489 v 2.03964 z m 23.37249,0.20812 q -2.14369,0 -3.43408,-1.18631 -1.29038,-1.18632 -1.29038,-3.24677 v -2.99701 q 0,-2.06045 1.29038,-3.24677 1.29039,-1.18632 3.43408,-1.18632 2.08126,0 3.33002,1.08226 1.24876,1.08225 1.33201,2.95539 h -2.22695 q -0.0624,-0.9782 -0.72844,-1.51932 -0.64519,-0.54113 -1.70664,-0.54113 -1.14469,0 -1.81069,0.64519 -0.66601,0.62438 -0.66601,1.78988 v 3.01783 q 0,1.18632 0.66601,1.83151 0.666,0.62438 1.81069,0.62438 1.08226,0 1.72745,-0.54113 0.64519,-0.54113 0.70763,-1.54013 h 2.22695 q -0.0833,1.87313 -1.33201,2.9762 -1.24876,1.08225 -3.33002,1.08225 z m 12.32102,-0.0208 q -2.12288,0 -3.39245,-1.22794 -1.24876,-1.22795 -1.24876,-3.35083 v -2.66401 q 0,-2.1437 1.24876,-3.35083 1.24875,-1.22794 3.39245,-1.22794 2.1437,0 3.39245,1.22794 1.24876,1.20713 1.24876,3.35083 v 2.66401 q 0,2.12288 -1.26957,3.35083 -1.24875,1.22794 -3.37164,1.22794 z m 0,-1.9772 q 1.12388,0 1.74826,-0.62437 0.64519,-0.64519 0.64519,-1.83151 v -2.95539 q 0,-1.18632 -0.64519,-1.8107 -0.62438,-0.64519 -1.74826,-0.64519 -1.12388,0 -1.76907,0.64519 -0.62438,0.62438 -0.62438,1.8107 v 2.95539 q 0,1.18632 0.62438,1.83151 0.64519,0.62437 1.76907,0.62437 z m 7.99203,1.78989 v -11.44693 h 2.22695 v 2.18532 0 q 0.1665,-1.12388 0.95738,-1.74826 0.81169,-0.64519 2.10207,-0.64519 1.70663,0 2.72645,1.10307 1.01982,1.08226 1.01982,2.93458 v 7.61741 h -2.24776 v -7.28441 q 0,-1.18632 -0.60357,-1.8107 -0.60357,-0.64519 -1.6442,-0.64519 -1.06144,0 -1.68582,0.666 -0.60356,0.66601 -0.60356,1.85233 v 7.22197 z m 16.12972,0.20812 q -1.70663,0 -2.72645,-1.1655 -1.01982,-1.16551 -1.01982,-3.1427 v -3.22596 q 0,-1.99801 1.01982,-3.16351 1.01982,-1.16551 2.72645,-1.16551 1.22794,0 2.06045,0.62438 0.85332,0.62438 1.10307,1.74826 l -0.0624,-2.6432 v -3.26758 h 2.24776 v 15.1932 h -2.22695 v -2.16451 q -0.22894,1.12388 -1.06144,1.74826 -0.81169,0.62437 -2.06045,0.62437 z m 0.79088,-1.95638 q 1.08226,0 1.68582,-0.64519 0.62438,-0.666 0.62438,-1.87313 v -2.93458 q 0,-1.18632 -0.62438,-1.83151 -0.60356,-0.666 -1.68582,-0.666 -1.08226,0 -1.68582,0.58275 -0.60357,0.56194 -0.60357,1.8107 v 3.1427 q 0,1.26957 0.60357,1.85232 0.60356,0.56194 1.68582,0.56194 z m 8.69963,4.24577 v -2.22695 q 1.93557,-0.43706 3.05945,-2.01882 1.12388,-1.60257 1.12388,-3.89196 v -3.72545 q 0,-2.28939 -1.12388,-3.87114 -1.12388,-1.60258 -3.05945,-2.03964 v -2.20614 q 3.08026,0.70763 4.74527,2.83052 1.68582,2.12288 1.68582,5.2864 v 3.72545 q 0,3.18433 -1.68582,5.30722 -1.66501,2.12288 -4.74527,2.83051 z m 31.9681,-0.20813 q -1.85233,0 -2.91377,-0.95738 -1.06144,-0.95738 -0.89494,-2.60157 l 0.31219,-3.3092 q 0.0832,-0.95738 -0.31219,-1.41526 -0.39544,-0.47869 -1.51932,-0.47869 h -2.55995 v -2.03963 h 2.55995 q 1.12388,0 1.51932,-0.45788 0.39544,-0.45788 0.31219,-1.43607 l -0.31219,-3.33002 q -0.1665,-1.64419 0.89494,-2.58076 1.08226,-0.95738 2.91377,-0.95738 h 1.18631 v 2.03964 h -0.999 q -0.87413,0 -1.35282,0.41625 -0.47869,0.41625 -0.39544,1.20713 l 0.31219,3.33001 q 0.10406,1.1447 -0.58275,1.87314 -0.66601,0.70763 -2.08126,0.87413 1.41525,0.1665 2.08126,0.93656 0.68681,0.77007 0.58275,1.89395 l -0.31219,3.33002 q -0.0833,0.79088 0.39544,1.20713 0.47869,0.41625 1.35282,0.41625 h 0.999 v 2.03963 z M 37.904283,269.35111 v -15.1932 h 4.474709 q 2.143697,0 3.371641,1.06145 1.248756,1.04063 1.248756,2.87214 0,1.20713 -0.728441,2.12288 -0.728441,0.89494 -1.893947,1.10307 v 0.0624 q 0.874129,0.10406 1.540133,0.62437 0.686815,0.52032 1.061442,1.3112 0.374627,0.79088 0.374627,1.76907 0,1.95638 -1.269569,3.12189 -1.269568,1.14469 -3.413266,1.14469 z m 2.185323,-8.82454 h 2.268573 q 1.103068,0 1.748258,-0.58275 0.666004,-0.60357 0.666004,-1.6442 0,-1.01982 -0.645191,-1.60257 -0.645191,-0.60356 -1.748258,-0.60356 h -2.289386 z m 0,6.88897 h 2.393449 q 1.227943,0 1.935571,-0.64519 0.707629,-0.666 0.707629,-1.78988 0,-1.16551 -0.707629,-1.87314 -0.707628,-0.70763 -1.935571,-0.70763 h -2.393449 z m 11.155523,1.93557 v -15.1932 h 2.247761 v 13.15357 h 6.639219 v 2.03963 z m 16.108918,0.20813 q -2.122885,0 -3.350828,-1.20713 -1.227943,-1.22795 -1.227943,-3.43408 V 258.591 q 0,-2.20614 1.227943,-3.41327 1.227943,-1.22794 3.350828,-1.22794 2.122886,0 3.350829,1.22794 1.227943,1.20713 1.227943,3.39246 v 6.34784 q 0,2.20613 -1.227943,3.43408 -1.227943,1.20713 -3.350829,1.20713 z m 0,-1.99801 q 1.123881,0 1.727446,-0.62438 0.603566,-0.62438 0.603566,-1.8107 v -6.74328 q 0,-1.18632 -0.603566,-1.81069 -0.582753,-0.62438 -1.727446,-0.62438 -1.144693,0 -1.748258,0.62438 -0.582753,0.62437 -0.582753,1.81069 v 6.74328 q 0,1.18632 0.603566,1.8107 0.603565,0.62438 1.727445,0.62438 z m 12.654027,1.99801 q -2.143698,0 -3.413266,-1.18632 -1.248756,-1.20713 -1.248756,-3.24677 v -6.74328 q 0,-2.06045 1.248756,-3.24676 1.269568,-1.18632 3.413266,-1.18632 2.122885,0 3.371641,1.20713 1.269569,1.18632 1.269569,3.22595 h -2.247761 q 0,-1.18632 -0.645191,-1.81069 -0.624378,-0.62438 -1.748258,-0.62438 -1.144693,0 -1.789883,0.62438 -0.624378,0.62437 -0.624378,1.81069 v 6.74328 q 0,1.18632 0.624378,1.8107 0.64519,0.62438 1.789883,0.62438 1.12388,0 1.748258,-0.62438 0.645191,-0.62438 0.645191,-1.8107 h 2.247761 q 0,2.03964 -1.269569,3.24677 -1.248756,1.18632 -3.371641,1.18632 z m 7.825511,-0.20813 v -15.1932 h 2.247761 v 6.36866 h 2.018822 l 3.12189,-6.36866 h 2.435074 l -3.600579,7.28441 3.787893,7.90879 h -2.539137 l -3.246766,-6.86816 h -1.977197 v 6.86816 z m 14.797725,2.28939 v -19.56385 h 5.47371 v 2.03964 h -3.22595 v 15.48457 h 3.22595 v 2.03964 z m 14.83935,-2.08126 q -2.1437,0 -3.43408,-1.18632 -1.29038,-1.18632 -1.29038,-3.24677 v -2.99701 q 0,-2.06045 1.29038,-3.24677 1.29038,-1.18631 3.43408,-1.18631 2.08126,0 3.33002,1.08225 1.24875,1.08226 1.332,2.95539 h -2.22695 q -0.0624,-0.97819 -0.72844,-1.51932 -0.64519,-0.54113 -1.70663,-0.54113 -1.14469,0 -1.8107,0.64519 -0.666,0.62438 -0.666,1.78989 v 3.01782 q 0,1.18632 0.666,1.83151 0.66601,0.62438 1.8107,0.62438 1.08225,0 1.72745,-0.54113 0.64519,-0.54112 0.70762,-1.54013 h 2.22695 q -0.0832,1.87313 -1.332,2.9762 -1.24876,1.08226 -3.33002,1.08226 z m 12.32102,-0.0208 q -2.12288,0 -3.39245,-1.22794 -1.24875,-1.22794 -1.24875,-3.35083 v -2.66401 q 0,-2.1437 1.24875,-3.35083 1.24876,-1.22794 3.39245,-1.22794 2.1437,0 3.39246,1.22794 1.24875,1.20713 1.24875,3.35083 v 2.66401 q 0,2.12289 -1.26956,3.35083 -1.24876,1.22794 -3.37165,1.22794 z m 0,-1.97719 q 1.12389,0 1.74826,-0.62438 0.64519,-0.64519 0.64519,-1.83151 v -2.95539 q 0,-1.18632 -0.64519,-1.81069 -0.62437,-0.64519 -1.74826,-0.64519 -1.12388,0 -1.76907,0.64519 -0.62437,0.62437 -0.62437,1.81069 v 2.95539 q 0,1.18632 0.62437,1.83151 0.64519,0.62438 1.76907,0.62438 z m 7.99201,1.78988 v -11.44693 h 2.22695 v 2.18532 0 q 0.1665,-1.12388 0.95738,-1.74825 0.81169,-0.64519 2.10207,-0.64519 1.70663,0 2.72645,1.10306 1.01982,1.08226 1.01982,2.93458 v 7.61741 h -2.24776 v -7.28441 q 0,-1.18632 -0.60357,-1.81069 -0.60356,-0.64519 -1.64419,-0.64519 -1.06145,0 -1.68582,0.666 -0.60357,0.666 -0.60357,1.85232 v 7.22197 z m 16.12974,0.20813 q -1.70664,0 -2.72645,-1.16551 -1.01982,-1.1655 -1.01982,-3.1427 v -3.22595 q 0,-1.99801 1.01982,-3.16352 1.01981,-1.1655 2.72645,-1.1655 1.22794,0 2.06044,0.62437 0.85332,0.62438 1.10307,1.74826 l -0.0624,-2.6432 v -3.26758 h 2.24777 v 15.1932 h -2.22695 v -2.16451 q -0.22894,1.12388 -1.06145,1.74826 -0.81169,0.62438 -2.06044,0.62438 z m 0.79088,-1.95639 q 1.08225,0 1.68582,-0.64519 0.62437,-0.666 0.62437,-1.87313 v -2.93458 q 0,-1.18632 -0.62437,-1.83151 -0.60357,-0.666 -1.68582,-0.666 -1.08226,0 -1.68582,0.58275 -0.60357,0.56194 -0.60357,1.8107 v 3.1427 q 0,1.26957 0.60357,1.85232 0.60356,0.56194 1.68582,0.56194 z m 22.89379,-2.85132 -0.0208,-3.76708 h 1.35281 q 1.16551,0 1.87314,-0.62438 0.70763,-0.64519 0.70763,-1.72745 0,-1.08225 -0.70763,-1.72744 -0.70763,-0.64519 -1.89395,-0.64519 h -2.85132 v -2.10208 h 2.78888 q 1.4777,0 2.58077,0.56194 1.10306,0.54113 1.70663,1.54014 0.62438,0.999 0.62438,2.37263 0,1.22795 -0.52032,2.18533 -0.52031,0.95738 -1.43607,1.51932 -0.89494,0.54112 -2.10207,0.58275 v 1.83151 z m 0.72844,4.70364 q -0.60357,0 -0.97819,-0.35381 -0.37463,-0.37463 -0.37463,-0.95738 0,-0.58275 0.37463,-0.93657 0.37462,-0.37462 0.97819,-0.37462 h 0.62438 q 0.62438,0 0.97819,0.37462 0.35381,0.35382 0.35381,0.91576 0,0.58275 -0.37462,0.95738 -0.37463,0.37462 -0.9782,0.37462 z m 26.39031,0.10407 q -2.16451,0 -3.43408,-1.22795 -1.26957,-1.22794 -1.26957,-3.28839 v -6.59759 q 0,-2.03964 1.26957,-3.26758 1.26957,-1.22794 3.43408,-1.22794 2.16451,0 3.43408,1.22794 1.26957,1.22794 1.26957,3.26758 v 6.59759 q 0,1.37364 -0.58276,2.39345 -0.58275,0.99901 -1.64419,1.56095 -1.04063,0.56194 -2.4767,0.56194 z m 0,-1.93557 q 1.1655,0 1.85232,-0.70763 0.70763,-0.70763 0.70763,-1.87314 v -6.59759 q 0,-1.14469 -0.70763,-1.85232 -0.68682,-0.70763 -1.85232,-0.70763 -1.16551,0 -1.87314,0.70763 -0.68681,0.70763 -0.68681,1.85232 v 6.59759 q 0,1.16551 0.68681,1.87314 0.70763,0.70763 1.87314,0.70763 z m 0,-4.66203 q -0.58275,0 -0.95738,-0.333 -0.35382,-0.333 -0.35382,-0.93657 0,-0.58275 0.35382,-0.89494 0.37463,-0.333 0.95738,-0.333 0.58275,0 0.93656,0.333 0.37463,0.31219 0.37463,0.89494 0,0.60357 -0.37463,0.93657 -0.35381,0.333 -0.93656,0.333 z m 24.97507,-1.97719 q -0.87413,0 -1.35282,-0.43707 -0.47869,-0.45788 -0.47869,-1.20713 0,-0.74925 0.47869,-1.18632 0.47869,-0.45787 1.35282,-0.45787 0.87412,0 1.35281,0.45787 0.47869,0.43707 0.47869,1.18632 0,0.74925 -0.47869,1.20713 -0.47869,0.43707 -1.35281,0.43707 z m 0,8.57479 q -0.87413,0 -1.35282,-0.43707 -0.47869,-0.45787 -0.47869,-1.20713 0,-0.74925 0.47869,-1.18632 0.47869,-0.45787 1.35282,-0.45787 0.87412,0 1.35281,0.45787 0.47869,0.43707 0.47869,1.18632 0,0.74926 -0.47869,1.20713 -0.47869,0.43707 -1.35281,0.43707 z m 20.54196,-0.20813 v -2.03963 h 4.03765 v -11.07231 l -4.05846,2.99702 v -2.53914 l 3.4757,-2.53914 h 2.83052 v 13.15357 h 3.26758 v 2.03963 z m 13.65303,2.28939 v -2.03964 h 3.22595 v -15.48457 h -3.22595 v -2.03964 h 5.47371 v 19.56385 z m 19.60545,0.20812 q -3.08026,-0.70762 -4.76608,-2.83051 -1.66501,-2.12289 -1.66501,-5.30721 v -3.72546 q 0,-3.16351 1.66501,-5.2864 1.68582,-2.12288 4.76608,-2.83051 v 2.20613 q -1.93557,0.43707 -3.05945,2.03964 -1.12388,1.58176 -1.12388,3.87114 v 3.72546 q 0,2.28938 1.12388,3.89195 1.12388,1.58176 3.05945,2.01883 z m 4.78686,0 v -2.22694 q 1.93557,-0.43707 3.05945,-2.01883 1.12388,-1.60257 1.12388,-3.89195 v -3.72546 q 0,-2.28938 -1.12388,-3.87114 -1.12388,-1.60257 -3.05945,-2.03964 v -2.20613 q 3.08027,0.70763 4.74527,2.83051 1.68582,2.12289 1.68582,5.2864 v 3.72546 q 0,3.18432 -1.68582,5.30721 -1.665,2.12289 -4.74527,2.83051 z M 13.074915,309.4358 v -2.03963 h 0.999005 q 0.874129,0 1.373632,-0.41626 0.499502,-0.41625 0.395439,-1.20713 l -0.457877,-3.33001 q -0.166501,-1.10307 0.437064,-1.87314 0.624378,-0.79088 1.706634,-0.999 -1.082256,-0.1665 -1.706634,-0.87413 -0.603565,-0.70763 -0.437064,-1.83151 l 0.457877,-3.33002 q 0.104063,-0.79087 -0.395439,-1.20713 -0.499503,-0.41625 -1.373632,-0.41625 h -0.999005 v -2.03963 h 1.186319 q 1.227943,0 2.143697,0.43706 0.915755,0.41625 1.373632,1.20713 0.457877,0.79088 0.312189,1.89395 l -0.457877,3.33002 q -0.145689,0.97819 0.270563,1.43606 0.416252,0.45788 1.560945,0.45788 h 2.684826 v 2.03964 h -2.684826 q -1.144693,0 -1.560945,0.47869 -0.416252,0.45787 -0.270563,1.41525 l 0.457877,3.30921 q 0.145688,1.10306 -0.312189,1.89394 -0.457877,0.81169 -1.373632,1.22795 -0.915754,0.43706 -2.143697,0.43706 z"
   id="text1"
   style="font-weight:600;font-size:20.8126px;line-height:37.7953px;font-family:'JetBrains Mono';-inkscape-font-specification:'JetBrains Mono, Semi-Bold';white-space:pre;fill:#3e91ca;stroke-width:1.121;stroke-linecap:round;stroke-linejoin:round"
   transform="matrix(1.2496635,0,0,1.2496635,6.0535833,-14.213918)"
   aria-label="static auto BLOCKS = {&#10;  /* 0 */ [] () { printf(&quot;ok\n&quot;); },&#10;  /* 1 */ [] () { printf(&quot;nop\n&quot;); },&#10;}&#10;void my_function(bool cond) {&#10;  BLOCK[cond ? 0 : 1]()&#10;}" /></g></g></g></svg>
