<?xml version="1.0" ?><svg xmlns:inkscape="http://www.inkscape.org/namespaces/inkscape" xmlns:sodipodi="http://sodipodi.sourceforge.net/DTD/sodipodi-0.dtd" xmlns="http://www.w3.org/2000/svg" xmlns:svg="http://www.w3.org/2000/svg" width="903.961" height="569.15997" viewBox="0 0 239.17329 150.59024" version="1.1" id="svg5" sodipodi:docname="opaque-cst-2.svg" xml:space="preserve"><sodipodi:namedview id="namedview7" pagecolor="#ffffff" bordercolor="#000000" borderopacity="0.25" showgrid="true"/><defs id="defs2"><rect x="22.319975" y="66.959999" width="848.159" height="479.88" id="rect2499"/></defs><g id="layer1"><g id="g26287" transform="matrix(0.26458333,0,0,0.26458333,151.03674,16.444252)"><g id="g26211" transform="translate(-559.68753,-50.991504)">
	<path style="fill:#20283c;fill-opacity:1" d="M 850.74201,546.84001 H 30.897 C 13.833,546.84001 0,533.00701 0,515.94301 V 42.057 C 0,24.993 13.833,11.16 30.897,11.16 h 819.84601 c 17.064,0 30.897,13.833 30.897,30.897 v 473.88601 c -10e-4,17.064 -13.834,30.897 -30.898,30.897 z" id="path26201" sodipodi:nodetypes="ssssssscs"/><g id="g34542" transform="matrix(0.22579297,0,0,0.22579297,19.537281,407.67356)" style="font-size:80px;font-family:'Brolink DEMO';-inkscape-font-specification:'Brolink DEMO, Normal';display:inline;opacity:1;stroke-width:8.85763;stroke-linecap:round;stroke-linejoin:round;stroke-miterlimit:2;stroke-dasharray:1.11949, 2.23898"><g id="g34508" style="stroke-width:8.85763"><path d="m 162.144,193.719 c 0,0 67.743,-16.576 50.853,-114.74 0,0 81.408,-135.816 257.901,-50.836 0,0 -114.839,23.251 -86.081,138.61 0,0 -77.272,-16.404 -96.43,49.396 0,0 -39.238,-26.305 -76.384,13.254 0.001,0 -31.497,4.809 -49.859,-35.684 z" fill="#5bc992" id="path34504" style="fill:#0d3758;fill-opacity:1;stroke-width:60.4005"/><path d="m 168.14,196.604 c -3.557,0 -6.756,-2.472 -7.539,-6.09 -0.898,-4.15 1.723,-8.243 5.861,-9.168 1.823,-0.428 42.24,-10.743 40.627,-79.558 -0.229,-9.782 -1.411,-20.039 -3.511,-30.485 l -2.197,-10.93 c -0.84,-4.18 1.868,-8.251 6.048,-9.092 4.184,-0.838 8.251,1.868 9.092,6.048 l 2.197,10.93 c 2.277,11.327 3.559,22.486 3.81,33.167 0.547,23.372 -3.317,55.876 -24.841,77.998 -13.361,13.732 -27.318,16.877 -27.906,17.004 -0.55,0.118 -1.1,0.176 -1.641,0.176 z" fill="#0bb494" id="path34506" style="fill:#59aae8;fill-opacity:0.992157;stroke-width:60.4005"/></g><g id="g34514" style="stroke-width:8.85763"><path d="m 230.826,252.7 c 40.616,-35.987 77.278,-6.195 77.278,-6.195 25.11,-63.766 100.553,-40.346 100.553,-40.346 -18.06,-117.51 98.427,-130.134 98.427,-130.134 -167.958,-100.804 -261.476,26.976 -261.476,26.976 7.818,99.299 -61.159,109.594 -61.159,109.594 0,0 10.647,24.683 46.377,40.105 z" fill="#6fd7a3" id="path34510" style="fill:#135587;fill-opacity:1;stroke-width:60.4005"/><path d="m 190.86,216.05 c -3.848,0 -7.177,-2.872 -7.655,-6.788 -0.514,-4.215 2.472,-8.051 6.676,-8.593 1.85,-0.258 43.048,-6.821 47.752,-75.499 0.668,-9.759 0.432,-20.08 -0.702,-30.678 l -1.186,-11.085 c -0.453,-4.24 2.616,-8.046 6.856,-8.499 4.242,-0.449 8.046,2.616 8.499,6.856 l 1.186,11.085 c 1.23,11.492 1.483,22.721 0.753,33.377 -1.598,23.324 -8.426,55.337 -31.888,75.392 -14.564,12.449 -28.751,14.301 -29.348,14.374 -0.316,0.039 -0.631,0.058 -0.943,0.058 z" fill="#0bb494" id="path34512" style="fill:#59aae8;fill-opacity:0.992157;stroke-width:60.4005"/></g><path d="m 99.22,32.25 c 54.02,-16.304 94.124,31.976 82.031,97.634 -11.942,64.843 13.555,101.705 49.575,122.816 34.936,20.476 92.97,61.763 97.24,138.002 7.207,128.69 -146.88,153.812 -189.774,79.616 -38.092,-65.889 25.07,-126.332 25.07,-126.332 l 15.768,13.085 c 0,0 -54.212,57.459 -6.717,98.644 41.377,35.88 119.62,4.994 94.473,-63.798 C 244.159,329.748 153.7,343.132 110.926,284.427 70.063,228.345 104.751,176.066 120.847,144.993 147.748,93.059 132.054,50.522 98.003,64.226 Z" fill="#c9f6b0" id="path34516" style="fill:#1b71af;fill-opacity:1;stroke-width:60.4005"/><g id="g34520" style="stroke-width:8.85763"><path d="M 328.066,390.702 C 323.797,314.463 265.762,273.176 230.826,252.7 194.806,231.589 169.309,194.727 181.251,129.884 193.344,64.227 153.24,15.946 99.22,32.25 l -0.016,0.427 c 31.181,11.593 49.582,49.885 40.867,97.207 -11.942,64.843 13.555,101.705 49.575,122.816 34.936,20.476 92.97,61.763 97.24,138.002 3.97,70.889 -41.004,110.348 -89.374,119.094 59.897,11.218 135.657,-27.974 130.554,-119.094 z" fill="#bbf49b" id="path34518" style="fill:#155d91;fill-opacity:1;stroke-width:60.4005"/></g><path d="M 86.13,29.061 146.528,0 c 0,0 -10.295,53.02 -52.157,74.817 L 75.834,69.492 Z" fill="#6fd7a3" id="path34522" style="fill:#00ccff;fill-opacity:1;stroke-width:60.4005"/><path d="m 108.988,0 -14.942,49.333 0.325,25.484 c 0.132,10.356 -5.648,19.894 -14.922,24.625 l -53.66,27.374 C 13.17,133.254 -0.159,119.45 6.856,107.202 15.165,92.695 24.711,75.556 34.101,57.672 41.851,42.911 53.79,30.729 68.409,22.59 Z" fill="#c9f6b0" id="path34524" style="fill:#2a95e1;fill-opacity:1;stroke-width:60.4005"/><path d="m 181.814,315.601 c 4.614,-3.907 11.558,0.252 10.29,6.164 l -6.293,29.354 -7.207,33.619 c -1.15,5.364 -8.11,6.832 -11.328,2.389 L 157.07,373.035 c -1.033,-1.427 -2.614,-2.359 -4.362,-2.573 l -16.799,-2.056 c -5.486,-0.672 -7.543,-7.554 -3.325,-11.126 l 26.177,-22.163 z" fill="#6fd7a3" id="path34526" style="fill:#2ad4ff;fill-opacity:0.992157;stroke-width:60.4005"/><path d="m 408.662,213.882 c -2.855,0 -5.599,-1.59 -6.939,-4.325 -0.083,-0.168 -8.514,-17.05 -27.948,-36.153 -17.846,-17.542 -48.949,-40.642 -95.775,-51.077 -4.162,-0.927 -6.784,-5.054 -5.857,-9.216 0.927,-4.162 5.05,-6.787 9.216,-5.857 50.722,11.302 84.422,36.5 103.761,55.648 21.095,20.887 30.105,39.107 30.478,39.872 1.869,3.833 0.277,8.455 -3.556,10.324 -1.091,0.533 -2.244,0.784 -3.38,0.784 z" fill="#0bb494" id="path34528" style="fill:#59aae8;fill-opacity:0.992157;stroke-width:60.4005"/><path d="m 308.106,254.226 c -0.035,0 -0.068,0 -0.103,-0.001 -4.254,-0.056 -7.66,-3.541 -7.62,-7.792 0,-0.459 -0.233,-27.156 -22.522,-73.746 -1.84,-3.847 -0.214,-8.457 3.633,-10.298 3.847,-1.841 8.457,-0.214 10.298,3.633 24.143,50.465 24.049,79.377 24.033,80.583 -0.056,4.231 -3.502,7.621 -7.719,7.621 z" fill="#0bb494" id="path34530" style="fill:#59aae8;fill-opacity:0.992157;stroke-width:60.4005"/><g fill="#6fd7a3" id="g34540" style="display:inline;stroke-width:60.4005"><path d="m 293.41,353.127 c -2.935,0 -5.74,-1.682 -7.034,-4.528 -1.765,-3.882 -0.048,-8.459 3.834,-10.224 6.955,-3.161 18.792,-10.715 18.911,-10.791 3.592,-2.297 8.368,-1.248 10.665,2.345 2.297,3.593 1.248,8.367 -2.345,10.665 -0.522,0.334 -12.881,8.222 -20.84,11.839 -1.036,0.47 -2.122,0.694 -3.191,0.694 z" id="path34532" style="fill:#2b97e2;fill-opacity:0.992157;stroke-width:8.85763"/><path d="m 308.098,407.232 c -4.104,0 -7.52,-3.231 -7.707,-7.372 -0.193,-4.26 3.104,-7.87 7.364,-8.063 l 20.207,-0.915 c 4.259,-0.189 7.87,3.104 8.063,7.364 0.193,4.26 -3.104,7.87 -7.364,8.063 l -20.207,0.915 c -0.119,0.005 -0.238,0.008 -0.356,0.008 z" id="path34534" style="fill:#2b97e2;fill-opacity:0.992157;stroke-width:8.85763"/><path d="m 310.641,470.991 c -1.381,0 -2.779,-0.37 -4.042,-1.148 l -14.183,-8.736 c -3.631,-2.236 -4.762,-6.993 -2.525,-10.623 2.236,-3.632 6.993,-4.762 10.623,-2.525 l 14.184,8.736 c 3.631,2.236 4.762,6.993 2.525,10.623 -1.459,2.368 -3.99,3.673 -6.582,3.673 z" id="path34536" style="fill:#2b97e2;fill-opacity:0.992157;stroke-width:8.85763"/><path d="m 258.788,512 c -2.901,0 -5.679,-1.642 -6.994,-4.441 l -7.245,-15.427 c -1.813,-3.86 -0.153,-8.458 3.707,-10.271 3.858,-1.813 8.458,-0.153 10.271,3.707 l 7.245,15.427 c 1.813,3.86 0.153,8.458 -3.707,10.271 -1.06,0.498 -2.177,0.734 -3.277,0.734 z" id="path34538" style="fill:#2b97e2;fill-opacity:0.992157;stroke-width:8.85763"/></g></g><g aria-label="qword_5108 = 0x34583 v1 = 0x4286ea15 v2 = (v1 &amp; qword_5108) + (v1 | qword_5108) int res = f(v2) if (res == (&amp;stack_var &amp; 0x0F)) {   return true; }" transform="matrix(1.0000012,0,0,1.0000012,-11.40444,-12.169992)" id="text2497" style="font-weight:500;font-size:28px;font-family:'Fira Code';-inkscape-font-specification:'Fira Code, Medium';white-space:pre;shape-inside:url(#rect2499);display:inline;fill:#2a96e2;stroke-width:2;stroke-linecap:round;stroke-miterlimit:2;paint-order:fill markers stroke"><path d="m 29.973646,75.895809 q 2.527179,0 4.049231,1.881026 l 0.201025,-1.478974 h 2.771282 v 21.351794 l -3.21641,-0.358974 v -7.495385 q -1.565128,2.053334 -4.121026,2.053334 -2.010256,0 -3.230769,-0.990769 -1.220513,-0.99077 -1.780513,-2.785641 -0.56,-1.794872 -0.56,-4.192821 0,-2.311795 0.674872,-4.106667 0.689231,-1.80923 1.995898,-2.843077 1.321025,-1.033846 3.21641,-1.033846 z m 0.83282,2.469744 q -1.651282,0 -2.498461,1.349743 -0.84718,1.335385 -0.84718,4.164103 0,2.900513 0.775385,4.178462 0.789744,1.277948 2.283077,1.277948 1.076923,0 1.881025,-0.603077 0.818462,-0.617436 1.378462,-1.507692 v -7.179487 q -0.531282,-0.804103 -1.292308,-1.234872 -0.761025,-0.445128 -1.68,-0.445128 z" id="path47493"/><path d="m 53.967504,91.460937 h -4.020513 l -1.708717,-10.76923 -1.837949,10.76923 H 42.465966 L 39.895709,76.297861 h 3.101539 l 1.579487,13.167179 2.110769,-11.243077 h 3.216411 l 1.967179,11.243077 1.579487,-13.167179 h 2.986667 z" id="path47495"/><path d="m 65.411619,75.895809 q 3.331282,0 5.083077,2.168205 1.751795,2.168206 1.751795,5.786667 0,2.412308 -0.804103,4.20718 -0.789743,1.794871 -2.326153,2.8 -1.522052,0.990769 -3.718975,0.990769 -3.316923,0 -5.083077,-2.139487 -1.766154,-2.153847 -1.766154,-5.829744 0,-2.354872 0.789744,-4.149744 0.804103,-1.80923 2.340513,-2.814359 1.53641,-1.019487 3.733333,-1.019487 z m 0,2.498462 q -1.737436,0 -2.613333,1.335384 -0.875898,1.321026 -0.875898,4.149744 0,2.828718 0.861539,4.164103 0.875897,1.321025 2.613333,1.321025 1.737436,0 2.598975,-1.335384 0.875897,-1.335385 0.875897,-4.178462 0,-2.8 -0.861538,-4.121026 -0.861539,-1.335384 -2.598975,-1.335384 z" id="path47497"/><path d="m 76.712144,91.460937 v -2.297435 h 2.225641 V 78.580938 h -2.225641 v -2.283077 h 4.681026 l 0.588718,3.517948 q 0.847179,-1.909743 2.09641,-2.900513 1.26359,-1.005128 3.245128,-1.005128 0.674872,0 1.206154,0.114872 0.545641,0.100513 1.076923,0.272821 l -0.545641,5.585641 h -2.297436 v -3.08718 q -1.608205,0.05744 -2.771282,1.292308 -1.163077,1.220513 -1.837948,3.446154 v 5.628718 h 3.058461 v 2.297435 z" id="path47499"/><path d="m 102.7019,69.850681 3.21641,0.358974 v 21.251282 h -2.82872 l -0.22974,-1.866666 q -0.77539,1.076923 -1.85231,1.665641 -1.076922,0.588718 -2.412306,0.588718 -1.952821,0 -3.216411,-0.990769 -1.24923,-1.005129 -1.866666,-2.8 -0.617436,-1.794872 -0.617436,-4.178462 0,-2.311795 0.717948,-4.106667 0.717949,-1.80923 2.053334,-2.843077 1.335384,-1.033846 3.21641,-1.033846 2.340517,0 3.819487,1.651282 z m -2.972307,8.514872 q -1.622565,0 -2.52718,1.349743 -0.904615,1.335385 -0.904615,4.164103 0,2.900513 0.818461,4.20718 0.832821,1.292307 2.326154,1.292307 1.091287,0 1.895387,-0.631795 0.8041,-0.631795 1.3641,-1.522051 v -7.179487 q -0.56,-0.804103 -1.30667,-1.234872 -0.74666,-0.445128 -1.665637,-0.445128 z" id="path47501"/><path d="m 109.91012,96.716322 v -2.65641 h 14.35897 v 2.65641 z" id="path47503"/><path d="m 139.99218,71.645553 -0.41641,2.412308 h -7.61026 v 5.513846 q 0.84718,-0.445128 1.63693,-0.603077 0.8041,-0.172308 1.6082,-0.172308 1.57949,0 2.81436,0.746667 1.23487,0.746666 1.93846,2.153846 0.71795,1.407179 0.71795,3.403077 0,1.995897 -0.89025,3.517949 -0.8759,1.522051 -2.48411,2.383589 -1.59384,0.84718 -3.73333,0.84718 -1.93846,0 -3.44615,-0.689231 -1.49334,-0.70359 -2.6277,-1.909744 l 1.92411,-1.80923 q 1.65128,1.852307 4.02051,1.852307 1.80923,0 2.84308,-1.091282 1.0482,-1.105641 1.0482,-3.115897 0,-2.182564 -0.91897,-3.044103 -0.91898,-0.875897 -2.3118,-0.875897 -0.74666,0 -1.40718,0.172308 -0.64615,0.157948 -1.4359,0.488205 h -2.36923 V 71.645553 Z" id="path47505"/><path d="m 158.1563,88.933758 v 2.527179 h -11.98975 v -2.527179 h 4.83898 V 74.948117 l -4.36513,2.685128 -1.37846,-2.254359 6.0882,-3.733333 h 2.84308 v 17.288205 z" id="path47507"/><path d="m 168.78195,71.243502 q 3.33128,0 5.04,2.685128 1.70872,2.685128 1.70872,7.595897 0,4.939487 -1.70872,7.638975 -1.70872,2.685128 -5.04,2.685128 -3.33128,0 -5.04,-2.685128 -1.70872,-2.699488 -1.70872,-7.638975 0,-4.910769 1.70872,-7.595897 1.70872,-2.685128 5.04,-2.685128 z m 0,2.455384 q -1.70872,0 -2.62769,1.82359 -0.91898,1.809231 -0.91898,6.002051 0,3.058462 0.37334,4.76718 l 5.6,-11.429744 q -0.41641,-0.617436 -1.01949,-0.890256 -0.60308,-0.272821 -1.40718,-0.272821 z m 3.54667,7.825641 q 0,-2.742564 -0.30154,-4.379487 l -5.52821,11.286154 q 0.77539,0.962051 2.28308,0.962051 1.72308,0 2.62769,-1.809231 0.91898,-1.80923 0.91898,-6.059487 z" id="path47509"/><path d="m 192.20144,76.369655 q 0,1.435898 -0.83282,2.469744 -0.83282,1.033846 -2.46974,1.938462 1.96718,0.875897 3.02974,2.225641 1.06257,1.349743 1.06257,3.115897 0,1.593846 -0.83283,2.900513 -0.83282,1.292308 -2.4123,2.067692 -1.56513,0.761026 -3.80513,0.761026 -2.22564,0 -3.77641,-0.761026 -1.53641,-0.761025 -2.34051,-2.038974 -0.78975,-1.292308 -0.78975,-2.857436 0,-1.766154 1.04821,-3.029744 1.0482,-1.263589 2.8,-2.053333 -1.56513,-0.832821 -2.3118,-1.866667 -0.74666,-1.048205 -0.74666,-2.699487 0,-1.766154 0.90461,-2.94359 0.91898,-1.177436 2.34051,-1.766153 1.42154,-0.588718 2.95795,-0.588718 1.62257,0 3.02975,0.574359 1.40718,0.574359 2.26871,1.708718 0.8759,1.134359 0.8759,2.843076 z m -9.26154,0.186667 q 0,0.97641 0.44513,1.579487 0.44513,0.603077 1.29231,1.019487 0.84718,0.416411 2.05333,0.818462 1.23487,-0.746667 1.79487,-1.522051 0.56,-0.775385 0.56,-1.924103 0,-1.335384 -0.78974,-2.139487 -0.78974,-0.804103 -2.26872,-0.804103 -1.46461,0 -2.28307,0.775385 -0.80411,0.775385 -0.80411,2.196923 z m 6.76308,9.577436 q 0,-1.206154 -0.57436,-1.924103 -0.56,-0.717948 -1.62256,-1.206153 -1.06257,-0.488206 -2.54154,-1.005129 -1.09128,0.56 -1.86667,1.522052 -0.77538,0.962051 -0.77538,2.570256 0,1.522051 0.91897,2.426667 0.91898,0.890256 2.74257,0.890256 1.83794,0 2.77128,-0.947692 0.94769,-0.947692 0.94769,-2.326154 z" id="path47511"/><path d="m 226.41892,78.379912 v 2.627692 h -11.88923 v -2.627692 z m 0,5.671795 v 2.627692 h -11.88923 v -2.627692 z" id="path47513"/><path d="m 254.93585,71.243502 q 3.33128,0 5.04,2.685128 1.70872,2.685128 1.70872,7.595897 0,4.939487 -1.70872,7.638975 -1.70872,2.685128 -5.04,2.685128 -3.33128,0 -5.04,-2.685128 -1.70872,-2.699488 -1.70872,-7.638975 0,-4.910769 1.70872,-7.595897 1.70872,-2.685128 5.04,-2.685128 z m 0,2.455384 q -1.70872,0 -2.62769,1.82359 -0.91898,1.809231 -0.91898,6.002051 0,3.058462 0.37334,4.76718 l 5.6,-11.429744 q -0.41641,-0.617436 -1.01949,-0.890256 -0.60308,-0.272821 -1.40718,-0.272821 z m 3.54667,7.825641 q 0,-2.742564 -0.30154,-4.379487 l -5.52821,11.286154 q 0.77539,0.962051 2.28308,0.962051 1.72308,0 2.62769,-1.809231 0.91898,-1.80923 0.91898,-6.059487 z" id="path47515"/><path d="m 276.24459,76.154271 1.89538,1.895384 -4.09231,4.06359 4.09231,4.135385 -1.89538,1.895384 -4.07795,-4.149743 -4.12103,4.149743 -1.89538,-1.895384 4.13538,-4.135385 -4.13538,-4.06359 1.89538,-1.895384 4.12103,4.077949 z" id="path47517"/><path d="m 288.53589,71.243502 q 1.96718,0 3.38872,0.68923 1.42154,0.689231 2.18256,1.82359 0.76103,1.134359 0.76103,2.498462 0,1.837948 -1.13436,3.058461 -1.12,1.220513 -2.8,1.608205 1.23487,0.129231 2.26872,0.689231 1.0482,0.56 1.66564,1.593846 0.63179,1.033846 0.63179,2.598975 0,1.694359 -0.89025,3.07282 -0.89026,1.364103 -2.49847,2.168205 -1.6082,0.804103 -3.79077,0.804103 -1.86666,0 -3.56102,-0.689231 -1.68,-0.689231 -2.85744,-2.082051 l 1.96718,-1.723077 q 0.84718,0.990769 1.96718,1.464615 1.13436,0.473846 2.34052,0.473846 1.83794,0 2.91487,-0.947692 1.07692,-0.962051 1.07692,-2.65641 0,-1.924103 -1.06256,-2.685128 -1.06257,-0.775385 -2.75693,-0.775385 h -1.70872 l 0.37334,-2.369231 h 1.20615 q 1.39282,0 2.42667,-0.761025 1.0482,-0.775385 1.0482,-2.369231 0,-1.435898 -0.99077,-2.211282 -0.97641,-0.789744 -2.42666,-0.789744 -1.24923,0 -2.21128,0.459487 -0.96206,0.459488 -1.89539,1.321026 l -1.70872,-1.82359 q 1.30667,-1.234872 2.82872,-1.837948 1.52205,-0.603077 3.24513,-0.603077 z" id="path47519"/><path d="m 311.1082,79.097861 v 5.298461 h 2.35487 v 2.498462 h -2.35487 v 4.566153 h -3.08718 l -0.0144,-4.566153 h -8.22769 v -2.24 l 5.70051,-13.411282 2.71385,1.076923 -5.05436,12.075897 h 4.88205 l 0.38769,-5.298461 z" id="path47521"/><path d="m 329.53077,71.645553 -0.41641,2.412308 h -7.61026 v 5.513846 q 0.84718,-0.445128 1.63693,-0.603077 0.8041,-0.172308 1.6082,-0.172308 1.57949,0 2.81436,0.746667 1.23487,0.746666 1.93846,2.153846 0.71795,1.407179 0.71795,3.403077 0,1.995897 -0.89025,3.517949 -0.8759,1.522051 -2.48411,2.383589 -1.59384,0.84718 -3.73333,0.84718 -1.93846,0 -3.44615,-0.689231 -1.49334,-0.70359 -2.6277,-1.909744 l 1.92411,-1.80923 q 1.65128,1.852307 4.02051,1.852307 1.80923,0 2.84308,-1.091282 1.0482,-1.105641 1.0482,-3.115897 0,-2.182564 -0.91897,-3.044103 -0.91898,-0.875897 -2.3118,-0.875897 -0.74667,0 -1.40718,0.172308 -0.64615,0.157948 -1.4359,0.488205 h -2.36923 V 71.645553 Z" id="path47523"/><path d="m 347.27847,76.369655 q 0,1.435898 -0.83282,2.469744 -0.83282,1.033846 -2.46975,1.938462 1.96718,0.875897 3.02975,2.225641 1.06256,1.349743 1.06256,3.115897 0,1.593846 -0.83282,2.900513 -0.83282,1.292308 -2.41231,2.067692 -1.56513,0.761026 -3.80513,0.761026 -2.22564,0 -3.77641,-0.761026 -1.53641,-0.761025 -2.34051,-2.038974 -0.78974,-1.292308 -0.78974,-2.857436 0,-1.766154 1.0482,-3.029744 1.04821,-1.263589 2.8,-2.053333 -1.56512,-0.832821 -2.31179,-1.866667 -0.74667,-1.048205 -0.74667,-2.699487 0,-1.766154 0.90462,-2.94359 0.91897,-1.177436 2.34051,-1.766153 1.42154,-0.588718 2.95795,-0.588718 1.62256,0 3.02974,0.574359 1.40718,0.574359 2.26872,1.708718 0.8759,1.134359 0.8759,2.843076 z m -9.26154,0.186667 q 0,0.97641 0.44513,1.579487 0.44513,0.603077 1.29231,1.019487 0.84717,0.416411 2.05333,0.818462 1.23487,-0.746667 1.79487,-1.522051 0.56,-0.775385 0.56,-1.924103 0,-1.335384 -0.78974,-2.139487 -0.78975,-0.804103 -2.26872,-0.804103 -1.46462,0 -2.28308,0.775385 -0.8041,0.775385 -0.8041,2.196923 z m 6.76308,9.577436 q 0,-1.206154 -0.57436,-1.924103 -0.56,-0.717948 -1.62257,-1.206153 -1.06256,-0.488206 -2.54154,-1.005129 -1.09128,0.56 -1.86666,1.522052 -0.77539,0.962051 -0.77539,2.570256 0,1.522051 0.91898,2.426667 0.91897,0.890256 2.74256,0.890256 1.83795,0 2.77128,-0.947692 0.9477,-0.947692 0.9477,-2.326154 z" id="path47525"/><path d="m 357.45902,71.243502 q 1.96718,0 3.38871,0.68923 1.42154,0.689231 2.18257,1.82359 0.76102,1.134359 0.76102,2.498462 0,1.837948 -1.13436,3.058461 -1.12,1.220513 -2.8,1.608205 1.23488,0.129231 2.26872,0.689231 1.04821,0.56 1.66564,1.593846 0.6318,1.033846 0.6318,2.598975 0,1.694359 -0.89026,3.07282 -0.89025,1.364103 -2.49846,2.168205 -1.6082,0.804103 -3.79077,0.804103 -1.86667,0 -3.56102,-0.689231 -1.68,-0.689231 -2.85744,-2.082051 l 1.96718,-1.723077 q 0.84718,0.990769 1.96718,1.464615 1.13436,0.473846 2.34051,0.473846 1.83795,0 2.91487,-0.947692 1.07693,-0.962051 1.07693,-2.65641 0,-1.924103 -1.06257,-2.685128 -1.06256,-0.775385 -2.75692,-0.775385 h -1.70872 l 0.37333,-2.369231 h 1.20616 q 1.39282,0 2.42667,-0.761025 1.0482,-0.775385 1.0482,-2.369231 0,-1.435898 -0.99077,-2.211282 -0.97641,-0.789744 -2.42667,-0.789744 -1.24923,0 -2.21128,0.459487 -0.96205,0.459488 -1.89538,1.321026 l -1.70872,-1.82359 q 1.30667,-1.234872 2.82872,-1.837948 1.52205,-0.603077 3.24513,-0.603077 z" id="path47527"/><path d="m 38.158261,111.29786 -5.341538,15.16308 h -3.762052 l -5.341538,-15.16308 h 3.446154 l 3.848205,12.49231 3.862564,-12.49231 z" id="path47529"/><path d="m 54.771607,123.93376 v 2.52718 H 42.781863 v -2.52718 h 4.838975 v -13.98564 l -4.365129,2.68513 -1.378461,-2.25436 6.088205,-3.73334 h 2.843077 v 17.28821 z" id="path47531"/><path d="m 88.572657,113.37991 v 2.62769 H 76.683426 v -2.62769 z m 0,5.6718 v 2.62769 H 76.683426 v -2.62769 z" id="path47533"/><path d="m 117.0896,106.2435 q 3.33129,0 5.04,2.68513 1.70872,2.68513 1.70872,7.5959 0,4.93948 -1.70872,7.63897 -1.70871,2.68513 -5.04,2.68513 -3.33128,0 -5.04,-2.68513 -1.70871,-2.69949 -1.70871,-7.63897 0,-4.91077 1.70871,-7.5959 1.70872,-2.68513 5.04,-2.68513 z m 0,2.45539 q -1.70871,0 -2.62769,1.82359 -0.91897,1.80923 -0.91897,6.00205 0,3.05846 0.37333,4.76718 l 5.6,-11.42975 q -0.41641,-0.61743 -1.01949,-0.89025 -0.60307,-0.27282 -1.40718,-0.27282 z m 3.54667,7.82564 q 0,-2.74257 -0.30154,-4.37949 l -5.5282,11.28615 q 0.77538,0.96206 2.28307,0.96206 1.72308,0 2.6277,-1.80924 0.91897,-1.80923 0.91897,-6.05948 z" id="path47535"/><path d="m 138.39834,111.15427 1.89538,1.89539 -4.09231,4.06359 4.09231,4.13538 -1.89538,1.89538 -4.07795,-4.14974 -4.12103,4.14974 -1.89538,-1.89538 4.13538,-4.13538 -4.13538,-4.06359 1.89538,-1.89539 4.12103,4.07795 z" id="path47537"/><path d="m 156.03117,114.09786 v 5.29846 h 2.35487 v 2.49846 h -2.35487 v 4.56616 h -3.08718 l -0.0144,-4.56616 h -8.22769 v -2.24 l 5.70051,-13.41128 2.71385,1.07692 -5.05436,12.0759 h 4.88205 l 0.38769,-5.29846 z" id="path47539"/><path d="m 167.97785,106.2435 q 2.01025,0 3.41743,0.76103 1.40718,0.74666 2.13949,2.02461 0.74667,1.26359 0.74667,2.81436 0,1.30667 -0.45949,2.5559 -0.44513,1.23487 -1.45026,2.61333 -0.99077,1.3641 -2.62769,3.0441 -1.63692,1.66565 -4.00615,3.81949 h 9.00307 l -0.37333,2.58462 h -12.32 v -2.44103 q 2.67077,-2.57025 4.39385,-4.36513 1.73743,-1.79487 2.71384,-3.10153 0.99077,-1.30667 1.39282,-2.35488 0.40205,-1.06256 0.40205,-2.15384 0,-1.49334 -0.84717,-2.35487 -0.84718,-0.86154 -2.35488,-0.86154 -1.33538,0 -2.24,0.4882 -0.89025,0.48821 -1.76615,1.57949 l -2.09641,-1.59385 q 1.16308,-1.47897 2.67077,-2.26871 1.50769,-0.78975 3.66154,-0.78975 z" id="path47541"/><path d="m 192.20144,111.36966 q 0,1.43589 -0.83282,2.46974 -0.83282,1.03385 -2.46974,1.93846 1.96718,0.8759 3.02974,2.22564 1.06257,1.34975 1.06257,3.1159 0,1.59385 -0.83283,2.90051 -0.83282,1.29231 -2.4123,2.06769 -1.56513,0.76103 -3.80513,0.76103 -2.22564,0 -3.77641,-0.76103 -1.53641,-0.76102 -2.34051,-2.03897 -0.78975,-1.29231 -0.78975,-2.85744 0,-1.76615 1.04821,-3.02974 1.0482,-1.26359 2.8,-2.05333 -1.56513,-0.83282 -2.3118,-1.86667 -0.74666,-1.0482 -0.74666,-2.69949 0,-1.76615 0.90461,-2.94359 0.91898,-1.17743 2.34051,-1.76615 1.42154,-0.58872 2.95795,-0.58872 1.62257,0 3.02975,0.57436 1.40718,0.57436 2.26871,1.70872 0.8759,1.13436 0.8759,2.84308 z m -9.26154,0.18666 q 0,0.97641 0.44513,1.57949 0.44513,0.60308 1.29231,1.01949 0.84718,0.41641 2.05333,0.81846 1.23487,-0.74667 1.79487,-1.52205 0.56,-0.77539 0.56,-1.92411 0,-1.33538 -0.78974,-2.13948 -0.78974,-0.80411 -2.26872,-0.80411 -1.46461,0 -2.28307,0.77539 -0.80411,0.77538 -0.80411,2.19692 z m 6.76308,9.57744 q 0,-1.20616 -0.57436,-1.9241 -0.56,-0.71795 -1.62256,-1.20616 -1.06257,-0.4882 -2.54154,-1.00513 -1.09128,0.56 -1.86667,1.52205 -0.77538,0.96206 -0.77538,2.57026 0,1.52205 0.91897,2.42667 0.91898,0.89025 2.74257,0.89025 1.83794,0 2.77128,-0.94769 0.94769,-0.94769 0.94769,-2.32615 z" id="path47543"/><path d="m 204.42095,106.2435 q 1.20615,0 2.21128,0.33026 1.01949,0.3159 1.86667,0.8759 l -1.24923,2.06769 q -1.27795,-0.83282 -2.81436,-0.83282 -2.03898,0 -3.24513,1.89538 -1.20615,1.88103 -1.32103,5.16923 0.93334,-1.23487 2.08205,-1.78051 1.16308,-0.56 2.46975,-0.56 1.53641,0 2.8,0.71795 1.27795,0.70359 2.03897,2.12513 0.76103,1.40718 0.76103,3.51795 0,2.12512 -0.86154,3.71897 -0.84718,1.59385 -2.32615,2.4841 -1.47898,0.8759 -3.36,0.8759 -2.48411,0 -4.00616,-1.23487 -1.50769,-1.23487 -2.19692,-3.40308 -0.68923,-2.1682 -0.68923,-4.9682 0,-3.30257 0.93333,-5.77231 0.94769,-2.4841 2.69949,-3.84821 1.75179,-1.37846 4.20718,-1.37846 z m -0.67487,9.57744 q -1.17744,0 -2.16821,0.63179 -0.97641,0.6318 -1.68,1.68 0.0574,3.21641 0.8759,4.75282 0.83282,1.52205 2.71385,1.52205 1.65128,0 2.45538,-1.23487 0.81846,-1.24923 0.81846,-3.25948 0,-2.28308 -0.81846,-3.1877 -0.81846,-0.90461 -2.19692,-0.90461 z" id="path47545"/><path d="m 217.08558,119.91325 q 0.14359,2.34051 1.30667,3.38871 1.17744,1.04821 2.82872,1.04821 1.10564,0 2.05333,-0.34462 0.96205,-0.34461 1.9241,-0.97641 l 1.39282,1.92411 q -1.06256,0.86153 -2.4841,1.37846 -1.42154,0.51692 -3.0441,0.51692 -2.36923,0 -4.00615,-1.00513 -1.62257,-1.00513 -2.46975,-2.8 -0.83282,-1.79487 -0.83282,-4.14974 0,-2.28308 0.83282,-4.07795 0.83282,-1.80923 2.38359,-2.85744 1.55077,-1.06256 3.70462,-1.06256 3.01538,0 4.76718,2.02461 1.76615,2.02462 1.76615,5.55693 0,0.38769 -0.0287,0.77538 -0.0144,0.37334 -0.0431,0.66052 z m 3.61847,-6.63385 q -1.5077,0 -2.49847,1.07692 -0.99077,1.07693 -1.13436,3.36 h 7.02154 q -0.0431,-2.13949 -0.91897,-3.2882 -0.86154,-1.14872 -2.46974,-1.14872 z" id="path47547"/><path d="m 243.23328,122.74196 q 0,0.90462 0.27282,1.30667 0.27282,0.40205 0.8759,0.60308 l -0.71795,2.18256 q -1.12,-0.12923 -1.93846,-0.61744 -0.8041,-0.4882 -1.20616,-1.47897 -0.83282,1.06256 -2.11076,1.59385 -1.27795,0.51692 -2.72821,0.51692 -2.31179,0 -3.64718,-1.29231 -1.33538,-1.30666 -1.33538,-3.41743 0,-2.39795 1.86666,-3.69026 1.86667,-1.29231 5.34154,-1.29231 h 2.16821 v -0.99077 q 0,-1.47897 -0.89026,-2.11077 -0.89026,-0.64615 -2.4841,-0.64615 -0.74667,0 -1.80923,0.20103 -1.06257,0.18666 -2.22564,0.58871 l -0.78975,-2.26871 q 1.42154,-0.53129 2.78564,-0.77539 1.36411,-0.25846 2.52718,-0.25846 3.04411,0 4.53744,1.34974 1.50769,1.34975 1.50769,3.73334 z m -6.57641,1.73744 q 0.97641,0 1.90974,-0.51692 0.93334,-0.51693 1.5077,-1.45026 v -3.34564 h -1.78052 q -2.26871,0 -3.24512,0.76102 -0.97641,0.74667 -0.97641,2.0677 0,2.4841 2.58461,2.4841 z" id="path47549"/><path d="m 261.54098,123.93376 v 2.52718 h -11.98975 v -2.52718 h 4.83898 v -13.98564 l -4.36513,2.68513 -1.37846,-2.25436 6.0882,-3.73334 h 2.84308 v 17.28821 z" id="path47551"/><path d="m 277.83843,106.64555 -0.41641,2.41231 h -7.61025 v 5.51385 q 0.84718,-0.44513 1.63692,-0.60308 0.8041,-0.17231 1.60821,-0.17231 1.57948,0 2.81435,0.74667 1.23488,0.74667 1.93847,2.15384 0.71794,1.40718 0.71794,3.40308 0,1.9959 -0.89025,3.51795 -0.8759,1.52205 -2.4841,2.38359 -1.59385,0.84718 -3.73334,0.84718 -1.93846,0 -3.44615,-0.68923 -1.49333,-0.70359 -2.62769,-1.90974 l 1.9241,-1.80924 q 1.65128,1.85231 4.02051,1.85231 1.80923,0 2.84308,-1.09128 1.0482,-1.10564 1.0482,-3.1159 0,-2.18256 -0.91897,-3.0441 -0.91898,-0.8759 -2.3118,-0.8759 -0.74666,0 -1.40718,0.17231 -0.64615,0.15795 -1.43589,0.48821 h -2.36923 v -10.18052 z" id="path47553"/><path d="m 38.158261,146.29786 -5.341538,15.16308 h -3.762052 l -5.341538,-15.16308 h 3.446154 l 3.848205,12.49231 3.862564,-12.49231 z" id="path47555"/><path d="m 47.362376,141.2435 q 2.010257,0 3.417436,0.76103 1.407179,0.74666 2.139487,2.02461 0.746667,1.26359 0.746667,2.81436 0,1.30667 -0.459487,2.5559 -0.445129,1.23487 -1.450257,2.61333 -0.990769,1.3641 -2.627692,3.0441 -1.636923,1.66565 -4.006154,3.81949 h 9.003077 l -0.373333,2.58462 h -12.32 v -2.44103 q 2.670769,-2.57025 4.393846,-4.36513 1.737436,-1.79487 2.713846,-3.10153 0.990769,-1.30667 1.392821,-2.35488 0.402051,-1.06256 0.402051,-2.15384 0,-1.49334 -0.84718,-2.35487 -0.847179,-0.86154 -2.354871,-0.86154 -1.335385,0 -2.24,0.4882 -0.890257,0.48821 -1.766154,1.57949 l -2.096411,-1.59385 q 1.163077,-1.47897 2.67077,-2.26871 1.507692,-0.78975 3.661538,-0.78975 z" id="path47557"/><path d="m 88.572657,148.37991 v 2.62769 H 76.683426 v -2.62769 z m 0,5.6718 v 2.62769 H 76.683426 v -2.62769 z" id="path47559"/><path d="m 115.10807,151.40966 q 0,2.75692 0.60307,4.83897 0.61744,2.08205 1.90975,3.90564 1.30666,1.82359 3.36,3.79077 l -1.78052,1.72308 q -2.31179,-1.90975 -3.97743,-3.97744 -1.65128,-2.06769 -2.54154,-4.55179 -0.89026,-2.49847 -0.89026,-5.72923 0,-3.23077 0.89026,-5.71488 0.89026,-2.49846 2.54154,-4.56615 1.66564,-2.06769 3.97743,-3.97744 l 1.78052,1.72308 q -2.01026,1.93846 -3.31693,3.76205 -1.30666,1.80923 -1.93846,3.90564 -0.61743,2.09641 -0.61743,4.8677 z" id="path47561"/><path d="m 141.54295,146.29786 -5.34154,15.16308 h -3.76205 l -5.34154,-15.16308 h 3.44616 l 3.8482,12.49231 3.86257,-12.49231 z" id="path47563"/><path d="m 158.1563,158.93376 v 2.52718 h -11.98975 v -2.52718 h 4.83898 v -13.98564 l -4.36513,2.68513 -1.37846,-2.25436 6.0882,-3.73334 h 2.84308 v 17.28821 z" id="path47565"/><path d="m 185.40965,141.27222 q 1.46461,0 2.68512,0.45949 1.23488,0.44512 2.41231,1.72307 l -1.82359,1.62257 q -0.70359,-0.77539 -1.40718,-1.13436 -0.70359,-0.37333 -1.68,-0.37333 -1.33538,0 -2.01025,0.74666 -0.67487,0.73231 -0.67487,1.9241 0,1.23488 0.90461,2.13949 0.91897,0.89026 2.29744,0.89026 h 7.79692 v 2.28308 h -2.3118 v 7.69641 q -0.4882,0.57435 -1.30666,1.17743 -0.8041,0.60308 -2.02462,1.01949 -1.20615,0.40205 -2.88615,0.40205 -2.24,0 -3.71898,-0.83282 -1.46461,-0.84718 -2.18256,-2.21128 -0.71795,-1.37846 -0.71795,-2.97231 0,-2.28308 1.16308,-3.66154 1.16308,-1.37846 3.2882,-1.83795 v -0.10051 q -1.8523,-0.44513 -2.64205,-1.57949 -0.78974,-1.14872 -0.78974,-2.62769 0,-1.30667 0.70359,-2.38359 0.70359,-1.07692 1.96718,-1.72308 1.26359,-0.64615 2.95795,-0.64615 z m 3.24512,10.28103 h -2.85743 q -1.3641,0 -2.22564,0.61743 -0.84718,0.61744 -1.26359,1.56513 -0.40205,0.94769 -0.40205,1.9241 0,1.50769 0.86154,2.62769 0.87589,1.10565 2.75692,1.10565 2.08205,0 3.13025,-1.24924 z" id="path47567"/><path d="m 219.51225,145.89581 q 2.52718,0 4.04923,1.88102 l 0.20103,-1.47897 h 2.77128 v 21.3518 l -3.21641,-0.35898 v -7.49538 q -1.56513,2.05333 -4.12103,2.05333 -2.01025,0 -3.23077,-0.99077 -1.22051,-0.99077 -1.78051,-2.78564 -0.56,-1.79487 -0.56,-4.19282 0,-2.3118 0.67487,-4.10667 0.68923,-1.80923 1.9959,-2.84307 1.32103,-1.03385 3.21641,-1.03385 z m 0.83282,2.46974 q -1.65128,0 -2.49846,1.34975 -0.84718,1.33538 -0.84718,4.1641 0,2.90051 0.77538,4.17846 0.78975,1.27795 2.28308,1.27795 1.07692,0 1.88103,-0.60308 0.81846,-0.61743 1.37846,-1.50769 v -7.17949 q -0.53128,-0.8041 -1.29231,-1.23487 -0.76102,-0.44513 -1.68,-0.44513 z" id="path47569"/><path d="m 243.5061,161.46094 h -4.02051 l -1.70872,-10.76923 -1.83795,10.76923 h -3.93436 l -2.57025,-15.16308 h 3.10154 l 1.57948,13.16718 2.11077,-11.24308 h 3.21641 l 1.96718,11.24308 1.57949,-13.16718 h 2.98667 z" id="path47571"/><path d="m 254.95021,145.89581 q 3.33128,0 5.08308,2.1682 1.75179,2.16821 1.75179,5.78667 0,2.41231 -0.8041,4.20718 -0.78975,1.79487 -2.32616,2.8 -1.52205,0.99077 -3.71897,0.99077 -3.31692,0 -5.08308,-2.13949 -1.76615,-2.15384 -1.76615,-5.82974 0,-2.35487 0.78974,-4.14974 0.80411,-1.80924 2.34052,-2.81436 1.53641,-1.01949 3.73333,-1.01949 z m 0,2.49846 q -1.73744,0 -2.61333,1.33539 -0.8759,1.32102 -0.8759,4.14974 0,2.82872 0.86154,4.1641 0.87589,1.32103 2.61333,1.32103 1.73744,0 2.59897,-1.33539 0.8759,-1.33538 0.8759,-4.17846 0,-2.8 -0.86154,-4.12102 -0.86154,-1.33539 -2.59897,-1.33539 z" id="path47573"/><path d="m 266.25074,161.46094 v -2.29744 h 2.22564 v -10.58256 h -2.22564 v -2.28308 h 4.68103 l 0.58872,3.51795 q 0.84717,-1.90974 2.09641,-2.90051 1.26359,-1.00513 3.24512,-1.00513 0.67488,0 1.20616,0.11487 0.54564,0.10051 1.07692,0.27282 l -0.54564,5.58564 h -2.29744 v -3.08718 q -1.6082,0.0574 -2.77128,1.29231 -1.16308,1.22051 -1.83795,3.44615 v 5.62872 h 3.05846 v 2.29744 z" id="path47575"/><path d="m 292.2405,139.85068 3.21642,0.35898 v 21.25128 h -2.82872 l -0.22975,-1.86667 q -0.77538,1.07692 -1.8523,1.66564 -1.07693,0.58872 -2.41231,0.58872 -1.95282,0 -3.21641,-0.99077 -1.24923,-1.00513 -1.86667,-2.8 -0.61743,-1.79487 -0.61743,-4.17846 0,-2.3118 0.71794,-4.10667 0.71795,-1.80923 2.05334,-2.84307 1.33538,-1.03385 3.21641,-1.03385 2.34051,0 3.81948,1.65128 z m -2.9723,8.51487 q -1.62257,0 -2.52718,1.34975 -0.90462,1.33538 -0.90462,4.1641 0,2.90051 0.81846,4.20718 0.83282,1.29231 2.32616,1.29231 1.09128,0 1.89538,-0.6318 0.8041,-0.63179 1.3641,-1.52205 v -7.17949 q -0.56,-0.8041 -1.30666,-1.23487 -0.74667,-0.44513 -1.66564,-0.44513 z" id="path47577"/><path d="m 299.44871,166.71632 v -2.65641 h 14.35898 v 2.65641 z" id="path47579"/><path d="m 329.53077,141.64555 -0.41641,2.41231 h -7.61026 v 5.51385 q 0.84718,-0.44513 1.63693,-0.60308 0.8041,-0.17231 1.6082,-0.17231 1.57949,0 2.81436,0.74667 1.23487,0.74667 1.93846,2.15384 0.71795,1.40718 0.71795,3.40308 0,1.9959 -0.89025,3.51795 -0.8759,1.52205 -2.48411,2.38359 -1.59384,0.84718 -3.73333,0.84718 -1.93846,0 -3.44615,-0.68923 -1.49334,-0.70359 -2.6277,-1.90974 l 1.92411,-1.80924 q 1.65128,1.85231 4.02051,1.85231 1.80923,0 2.84308,-1.09128 1.0482,-1.10564 1.0482,-3.1159 0,-2.18256 -0.91897,-3.0441 -0.91898,-0.8759 -2.3118,-0.8759 -0.74667,0 -1.40718,0.17231 -0.64615,0.15795 -1.4359,0.48821 h -2.36923 v -10.18052 z" id="path47581"/><path d="m 347.69488,158.93376 v 2.52718 h -11.98975 v -2.52718 h 4.83898 v -13.98564 l -4.36513,2.68513 -1.37846,-2.25436 6.0882,-3.73334 h 2.84308 v 17.28821 z" id="path47583"/><path d="m 358.32055,141.2435 q 3.33129,0 5.04,2.68513 1.70872,2.68513 1.70872,7.5959 0,4.93948 -1.70872,7.63897 -1.70871,2.68513 -5.04,2.68513 -3.33128,0 -5.04,-2.68513 -1.70871,-2.69949 -1.70871,-7.63897 0,-4.91077 1.70871,-7.5959 1.70872,-2.68513 5.04,-2.68513 z m 0,2.45539 q -1.70871,0 -2.62769,1.82359 -0.91897,1.80923 -0.91897,6.00205 0,3.05846 0.37333,4.76718 l 5.6,-11.42975 q -0.41641,-0.61743 -1.01949,-0.89025 -0.60307,-0.27282 -1.40718,-0.27282 z m 3.54667,7.82564 q 0,-2.74257 -0.30154,-4.37949 l -5.5282,11.28615 q 0.77538,0.96206 2.28307,0.96206 1.72308,0 2.6277,-1.80924 0.91897,-1.80923 0.91897,-6.05948 z" id="path47585"/><path d="m 381.74005,146.36966 q 0,1.43589 -0.83282,2.46974 -0.83282,1.03385 -2.46975,1.93846 1.96718,0.8759 3.02975,2.22564 1.06256,1.34975 1.06256,3.1159 0,1.59385 -0.83282,2.90051 -0.83282,1.29231 -2.41231,2.06769 -1.56513,0.76103 -3.80513,0.76103 -2.22564,0 -3.77641,-0.76103 -1.53641,-0.76102 -2.34051,-2.03897 -0.78974,-1.29231 -0.78974,-2.85744 0,-1.76615 1.0482,-3.02974 1.04821,-1.26359 2.8,-2.05333 -1.56513,-0.83282 -2.31179,-1.86667 -0.74667,-1.0482 -0.74667,-2.69949 0,-1.76615 0.90462,-2.94359 0.91897,-1.17743 2.34051,-1.76615 1.42154,-0.58872 2.95795,-0.58872 1.62256,0 3.02974,0.57436 1.40718,0.57436 2.26872,1.70872 0.8759,1.13436 0.8759,2.84308 z m -9.26154,0.18666 q 0,0.97641 0.44513,1.57949 0.44512,0.60308 1.2923,1.01949 0.84718,0.41641 2.05334,0.81846 1.23487,-0.74667 1.79487,-1.52205 0.56,-0.77539 0.56,-1.92411 0,-1.33538 -0.78974,-2.13948 -0.78975,-0.80411 -2.26872,-0.80411 -1.46462,0 -2.28308,0.77539 -0.8041,0.77538 -0.8041,2.19692 z m 6.76307,9.57744 q 0,-1.20616 -0.57435,-1.9241 -0.56,-0.71795 -1.62257,-1.20616 -1.06256,-0.4882 -2.54154,-1.00513 -1.09128,0.56 -1.86666,1.52205 -0.77539,0.96206 -0.77539,2.57026 0,1.52205 0.91898,2.42667 0.91897,0.89025 2.74256,0.89025 1.83795,0 2.77128,-0.94769 0.94769,-0.94769 0.94769,-2.32615 z" id="path47587"/><path d="m 394.76364,151.40966 q 0,-2.77129 -0.63179,-4.8677 -0.61744,-2.09641 -1.92411,-3.90564 -1.30666,-1.82359 -3.31692,-3.76205 l 1.78051,-1.72308 q 2.3118,1.90975 3.96308,3.97744 1.66564,2.06769 2.5559,4.56615 0.89025,2.48411 0.89025,5.71488 0,3.23076 -0.89025,5.72923 -0.89026,2.4841 -2.5559,4.55179 -1.65128,2.06769 -3.96308,3.97744 l -1.78051,-1.72308 q 2.05333,-1.96718 3.34564,-3.79077 1.30667,-1.82359 1.90974,-3.90564 0.61744,-2.08205 0.61744,-4.83897 z" id="path47589"/><path d="m 428.6365,145.43632 v 5.78667 h 5.70051 v 2.58461 h -5.70051 v 5.77231 h -2.82872 v -5.77231 h -5.65743 v -2.58461 h 5.65743 v -5.78667 z" id="path47591"/><path d="m 459.72369,151.40966 q 0,2.75692 0.60308,4.83897 0.61743,2.08205 1.90974,3.90564 1.30667,1.82359 3.36,3.79077 l -1.78051,1.72308 q -2.3118,-1.90975 -3.97744,-3.97744 -1.65128,-2.06769 -2.54154,-4.55179 -0.89025,-2.49847 -0.89025,-5.72923 0,-3.23077 0.89025,-5.71488 0.89026,-2.49846 2.54154,-4.56615 1.66564,-2.06769 3.97744,-3.97744 l 1.78051,1.72308 q -2.01026,1.93846 -3.31692,3.76205 -1.30667,1.80923 -1.93846,3.90564 -0.61744,2.09641 -0.61744,4.8677 z" id="path47593"/><path d="m 486.15857,146.29786 -5.34154,15.16308 h -3.76205 l -5.34154,-15.16308 h 3.44615 l 3.84821,12.49231 3.86256,-12.49231 z" id="path47595"/><path d="m 502.77193,158.93376 v 2.52718 h -11.98974 v -2.52718 h 4.83898 v -13.98564 l -4.36513,2.68513 -1.37846,-2.25436 6.0882,-3.73334 h 2.84308 v 17.28821 z" id="path47597"/><path d="m 532.07861,138.25683 v 26.16206 h -2.92923 v -26.16206 z" id="path47599"/><path d="m 564.12788,145.89581 q 2.52718,0 4.04923,1.88102 l 0.20103,-1.47897 h 2.77128 v 21.3518 l -3.21641,-0.35898 v -7.49538 q -1.56513,2.05333 -4.12103,2.05333 -2.01025,0 -3.23076,-0.99077 -1.22052,-0.99077 -1.78052,-2.78564 -0.56,-1.79487 -0.56,-4.19282 0,-2.3118 0.67487,-4.10667 0.68923,-1.80923 1.9959,-2.84307 1.32103,-1.03385 3.21641,-1.03385 z m 0.83282,2.46974 q -1.65128,0 -2.49846,1.34975 -0.84718,1.33538 -0.84718,4.1641 0,2.90051 0.77539,4.17846 0.78974,1.27795 2.28307,1.27795 1.07693,0 1.88103,-0.60308 0.81846,-0.61743 1.37846,-1.50769 v -7.17949 q -0.53128,-0.8041 -1.29231,-1.23487 -0.76102,-0.44513 -1.68,-0.44513 z" id="path47601"/><path d="m 588.12173,161.46094 h -4.02051 l -1.70872,-10.76923 -1.83795,10.76923 h -3.93436 l -2.57025,-15.16308 h 3.10154 l 1.57948,13.16718 2.11077,-11.24308 h 3.21641 l 1.96718,11.24308 1.57949,-13.16718 h 2.98667 z" id="path47603"/><path d="m 599.56584,145.89581 q 3.33128,0 5.08308,2.1682 1.75179,2.16821 1.75179,5.78667 0,2.41231 -0.8041,4.20718 -0.78974,1.79487 -2.32615,2.8 -1.52206,0.99077 -3.71898,0.99077 -3.31692,0 -5.08308,-2.13949 -1.76615,-2.15384 -1.76615,-5.82974 0,-2.35487 0.78974,-4.14974 0.80411,-1.80924 2.34052,-2.81436 1.53641,-1.01949 3.73333,-1.01949 z m 0,2.49846 q -1.73744,0 -2.61333,1.33539 -0.8759,1.32102 -0.8759,4.14974 0,2.82872 0.86154,4.1641 0.87589,1.32103 2.61333,1.32103 1.73744,0 2.59898,-1.33539 0.87589,-1.33538 0.87589,-4.17846 0,-2.8 -0.86154,-4.12102 -0.86153,-1.33539 -2.59897,-1.33539 z" id="path47605"/><path d="m 610.86636,161.46094 v -2.29744 h 2.22564 v -10.58256 h -2.22564 v -2.28308 h 4.68102 l 0.58872,3.51795 q 0.84718,-1.90974 2.09641,-2.90051 1.26359,-1.00513 3.24513,-1.00513 0.67487,0 1.20615,0.11487 0.54564,0.10051 1.07693,0.27282 l -0.54564,5.58564 h -2.29744 v -3.08718 q -1.60821,0.0574 -2.77128,1.29231 -1.16308,1.22051 -1.83795,3.44615 v 5.62872 h 3.05846 v 2.29744 z" id="path47607"/><path d="m 636.85611,139.85068 3.21641,0.35898 v 21.25128 h -2.82872 l -0.22975,-1.86667 q -0.77538,1.07692 -1.8523,1.66564 -1.07693,0.58872 -2.41231,0.58872 -1.95282,0 -3.21641,-0.99077 -1.24923,-1.00513 -1.86667,-2.8 -0.61743,-1.79487 -0.61743,-4.17846 0,-2.3118 0.71794,-4.10667 0.71795,-1.80923 2.05334,-2.84307 1.33538,-1.03385 3.21641,-1.03385 2.34051,0 3.81949,1.65128 z m -2.97231,8.51487 q -1.62257,0 -2.52718,1.34975 -0.90462,1.33538 -0.90462,4.1641 0,2.90051 0.81846,4.20718 0.83283,1.29231 2.32616,1.29231 1.09128,0 1.89538,-0.6318 0.80411,-0.63179 1.36411,-1.52205 v -7.17949 q -0.56,-0.8041 -1.30667,-1.23487 -0.74667,-0.44513 -1.66564,-0.44513 z" id="path47609"/><path d="m 644.06432,166.71632 v -2.65641 h 14.35897 v 2.65641 z" id="path47611"/><path d="m 674.14643,141.64555 -0.41641,2.41231 h -7.61025 v 5.51385 q 0.84718,-0.44513 1.63692,-0.60308 0.8041,-0.17231 1.6082,-0.17231 1.57949,0 2.81436,0.74667 1.23487,0.74667 1.93846,2.15384 0.71795,1.40718 0.71795,3.40308 0,1.9959 -0.89025,3.51795 -0.8759,1.52205 -2.48411,2.38359 -1.59384,0.84718 -3.73333,0.84718 -1.93846,0 -3.44615,-0.68923 -1.49334,-0.70359 -2.6277,-1.90974 l 1.92411,-1.80924 q 1.65128,1.85231 4.02051,1.85231 1.80923,0 2.84308,-1.09128 1.0482,-1.10564 1.0482,-3.1159 0,-2.18256 -0.91897,-3.0441 -0.91898,-0.8759 -2.3118,-0.8759 -0.74666,0 -1.40718,0.17231 -0.64615,0.15795 -1.43589,0.48821 h -2.36923 v -10.18052 z" id="path47613"/><path d="m 692.31054,158.93376 v 2.52718 H 680.3208 v -2.52718 h 4.83897 v -13.98564 l -4.36513,2.68513 -1.37846,-2.25436 6.08821,-3.73334 h 2.84307 v 17.28821 z" id="path47615"/><path d="m 702.93619,141.2435 q 3.33128,0 5.04,2.68513 1.70871,2.68513 1.70871,7.5959 0,4.93948 -1.70871,7.63897 -1.70872,2.68513 -5.04,2.68513 -3.33129,0 -5.04,-2.68513 -1.70872,-2.69949 -1.70872,-7.63897 0,-4.91077 1.70872,-7.5959 1.70871,-2.68513 5.04,-2.68513 z m 0,2.45539 q -1.70872,0 -2.6277,1.82359 -0.91897,1.80923 -0.91897,6.00205 0,3.05846 0.37333,4.76718 l 5.6,-11.42975 q -0.41641,-0.61743 -1.01949,-0.89025 -0.60307,-0.27282 -1.40717,-0.27282 z m 3.54666,7.82564 q 0,-2.74257 -0.30154,-4.37949 l -5.5282,11.28615 q 0.77538,0.96206 2.28308,0.96206 1.72307,0 2.62769,-1.80924 0.91897,-1.80923 0.91897,-6.05948 z" id="path47617"/><path d="m 726.35568,146.36966 q 0,1.43589 -0.83282,2.46974 -0.83282,1.03385 -2.46975,1.93846 1.96718,0.8759 3.02975,2.22564 1.06256,1.34975 1.06256,3.1159 0,1.59385 -0.83282,2.90051 -0.83282,1.29231 -2.41231,2.06769 -1.56513,0.76103 -3.80513,0.76103 -2.22564,0 -3.77641,-0.76103 -1.53641,-0.76102 -2.34051,-2.03897 -0.78974,-1.29231 -0.78974,-2.85744 0,-1.76615 1.0482,-3.02974 1.04821,-1.26359 2.8,-2.05333 -1.56513,-0.83282 -2.31179,-1.86667 -0.74667,-1.0482 -0.74667,-2.69949 0,-1.76615 0.90462,-2.94359 0.91897,-1.17743 2.34051,-1.76615 1.42154,-0.58872 2.95795,-0.58872 1.62256,0 3.02974,0.57436 1.40718,0.57436 2.26872,1.70872 0.8759,1.13436 0.8759,2.84308 z m -9.26154,0.18666 q 0,0.97641 0.44513,1.57949 0.44513,0.60308 1.2923,1.01949 0.84718,0.41641 2.05334,0.81846 1.23487,-0.74667 1.79487,-1.52205 0.56,-0.77539 0.56,-1.92411 0,-1.33538 -0.78974,-2.13948 -0.78975,-0.80411 -2.26872,-0.80411 -1.46462,0 -2.28308,0.77539 -0.8041,0.77538 -0.8041,2.19692 z m 6.76308,9.57744 q 0,-1.20616 -0.57436,-1.9241 -0.56,-0.71795 -1.62257,-1.20616 -1.06256,-0.4882 -2.54154,-1.00513 -1.09128,0.56 -1.86666,1.52205 -0.77539,0.96206 -0.77539,2.57026 0,1.52205 0.91898,2.42667 0.91897,0.89025 2.74256,0.89025 1.83795,0 2.77128,-0.94769 0.9477,-0.94769 0.9477,-2.32615 z" id="path47619"/><path d="m 739.37927,151.40966 q 0,-2.77129 -0.63179,-4.8677 -0.61744,-2.09641 -1.92411,-3.90564 -1.30666,-1.82359 -3.31692,-3.76205 l 1.78051,-1.72308 q 2.3118,1.90975 3.96308,3.97744 1.66564,2.06769 2.5559,4.56615 0.89025,2.48411 0.89025,5.71488 0,3.23076 -0.89025,5.72923 -0.89026,2.4841 -2.5559,4.55179 -1.65128,2.06769 -3.96308,3.97744 l -1.78051,-1.72308 q 2.05333,-1.96718 3.34564,-3.79077 1.30667,-1.82359 1.90975,-3.90564 0.61743,-2.08205 0.61743,-4.83897 z" id="path47621"/><path d="m 30.921338,173.87427 q 0.947692,0 1.522051,0.57436 0.588718,0.57436 0.588718,1.4359 0,0.86154 -0.588718,1.45025 -0.574359,0.58872 -1.522051,0.58872 -0.918974,0 -1.507692,-0.58872 -0.588718,-0.58871 -0.588718,-1.45025 0,-0.86154 0.588718,-1.4359 0.588718,-0.57436 1.507692,-0.57436 z m 2.24,7.42359 v 12.80821 h 4.121026 v 2.35487 H 25.407492 v -2.35487 h 4.537436 v -10.45334 h -4.393846 v -2.35487 z" id="path47623"/><path d="m 42.106991,196.46094 v -15.16308 h 2.771283 l 0.244102,1.96718 q 0.947692,-1.14872 2.24,-1.75179 1.292308,-0.61744 2.65641,-0.61744 2.125129,0 3.173334,1.19179 1.062564,1.1918 1.062564,3.31693 v 11.05641 h -3.21641 v -9.46257 q 0,-1.96718 -0.402052,-2.8 -0.387692,-0.84718 -1.766154,-0.84718 -1.105641,0 -2.024615,0.68923 -0.904615,0.67488 -1.522051,1.53641 v 10.88411 z" id="path47625"/><path d="m 72.002388,195.65683 q -0.83282,0.53129 -1.995897,0.86154 -1.163077,0.33026 -2.426667,0.33026 -2.642051,0 -4.020512,-1.3641 -1.364103,-1.37846 -1.364103,-3.61846 v -8.2277 H 58.82085 v -2.34051 h 3.374359 v -3.38872 l 3.21641,-0.38769 v 3.77641 h 5.111795 l -0.358974,2.34051 h -4.752821 v 8.19898 q 0,1.22051 0.603077,1.82359 0.617436,0.58872 2.010257,0.58872 0.83282,0 1.522051,-0.20103 0.70359,-0.20103 1.292308,-0.51692 z" id="path47627"/><path d="m 93.942926,196.46094 v -2.29744 h 2.225641 v -10.58256 h -2.225641 v -2.28308 h 4.681026 l 0.588717,3.51795 q 0.847181,-1.90974 2.096411,-2.90051 1.26359,-1.00513 3.24513,-1.00513 0.67487,0 1.20615,0.11487 0.54564,0.10051 1.07692,0.27282 l -0.54564,5.58564 h -2.29743 v -3.08718 q -1.60821,0.0574 -2.77128,1.29231 -1.16308,1.22051 -1.837953,3.44615 v 5.62872 h 3.058463 v 2.29744 z" id="path47629"/><path d="m 113.70089,189.91325 q 0.14359,2.34051 1.30666,3.38871 1.17744,1.04821 2.82872,1.04821 1.10564,0 2.05333,-0.34462 0.96206,-0.34461 1.92411,-0.97641 l 1.39282,1.92411 q -1.06257,0.86153 -2.4841,1.37846 -1.42154,0.51692 -3.04411,0.51692 -2.36923,0 -4.00615,-1.00513 -1.62257,-1.00513 -2.46974,-2.8 -0.83283,-1.79487 -0.83283,-4.14974 0,-2.28308 0.83283,-4.07795 0.83282,-1.80923 2.38359,-2.85744 1.55076,-1.06256 3.70461,-1.06256 3.01539,0 4.76718,2.02461 1.76615,2.02462 1.76615,5.55693 0,0.38769 -0.0287,0.77538 -0.0144,0.37334 -0.0431,0.66052 z m 3.61846,-6.63385 q -1.50769,0 -2.49846,1.07692 -0.99077,1.07693 -1.13436,3.36 h 7.02154 q -0.0431,-2.13949 -0.91898,-3.2882 -0.86154,-1.14872 -2.46974,-1.14872 z" id="path47631"/><path d="m 133.77475,194.37889 q 1.50769,0 2.39794,-0.53129 0.89026,-0.54564 0.89026,-1.49333 0,-0.61744 -0.25846,-1.0482 -0.25846,-0.43077 -1.03385,-0.80411 -0.77538,-0.37333 -2.35487,-0.77538 -1.49333,-0.38769 -2.62769,-0.91898 -1.12,-0.53128 -1.73744,-1.37846 -0.61743,-0.84718 -0.61743,-2.18256 0,-1.95282 1.62256,-3.14462 1.63692,-1.20615 4.43692,-1.20615 1.90975,0 3.33129,0.50256 1.42153,0.50257 2.42666,1.24923 l -1.34974,2.02462 q -0.89026,-0.58872 -1.95282,-0.96205 -1.04821,-0.37334 -2.36923,-0.37334 -1.53641,0 -2.21128,0.45949 -0.66052,0.45949 -0.66052,1.22051 0,0.57436 0.33026,0.9477 0.34461,0.37333 1.17744,0.70359 0.83282,0.33025 2.35487,0.74666 1.47897,0.40205 2.57025,0.9477 1.10564,0.54564 1.70872,1.45025 0.61744,0.89026 0.61744,2.32616 0,1.63692 -0.94769,2.68512 -0.9477,1.03385 -2.46975,1.53641 -1.52205,0.48821 -3.27384,0.48821 -2.11077,0 -3.64718,-0.60308 -1.53641,-0.61743 -2.58462,-1.53641 l 1.70872,-1.95282 q 0.89025,0.71795 2.03897,1.17744 1.14872,0.44513 2.48411,0.44513 z" id="path47633"/><path d="m 174.72656,183.37991 v 2.62769 h -11.88923 v -2.62769 z m 0,5.6718 v 2.62769 h -11.88923 v -2.62769 z" id="path47635"/><path d="m 206.40249,174.85068 q 1.39282,0 2.4841,0.2441 1.10564,0.22975 2.03897,0.6318 l -0.94769,2.22564 q -0.76102,-0.3159 -1.59384,-0.45949 -0.81847,-0.14359 -1.66565,-0.14359 -2.92923,0 -2.92923,2.35487 v 2.68513 h 5.06872 l -0.34461,2.36923 h -4.72411 v 11.70257 h -3.20205 v -11.70257 h -3.44615 v -2.36923 h 3.44615 v -2.71384 q 0,-2.15385 1.59385,-3.48923 1.59384,-1.33539 4.22154,-1.33539 z" id="path47637"/><path d="m 218.49276,186.40966 q 0,2.75692 0.60308,4.83897 0.61744,2.08205 1.90974,3.90564 1.30667,1.82359 3.36,3.79077 l -1.78051,1.72308 q -2.31179,-1.90975 -3.97743,-3.97744 -1.65129,-2.06769 -2.54154,-4.55179 -0.89026,-2.49847 -0.89026,-5.72923 0,-3.23077 0.89026,-5.71488 0.89025,-2.49846 2.54154,-4.56615 1.66564,-2.06769 3.97743,-3.97744 l 1.78051,1.72308 q -2.01025,1.93846 -3.31692,3.76205 -1.30667,1.80923 -1.93846,3.90564 -0.61744,2.09641 -0.61744,4.8677 z" id="path47639"/><path d="m 244.92764,181.29786 -5.34154,15.16308 h -3.76205 l -5.34154,-15.16308 h 3.44616 l 3.8482,12.49231 3.86256,-12.49231 z" id="path47641"/><path d="m 254.13175,176.2435 q 2.01025,0 3.41743,0.76103 1.40718,0.74666 2.13949,2.02461 0.74667,1.26359 0.74667,2.81436 0,1.30667 -0.45949,2.5559 -0.44513,1.23487 -1.45026,2.61333 -0.99077,1.3641 -2.62769,3.0441 -1.63692,1.66565 -4.00615,3.81949 h 9.00307 l -0.37333,2.58462 h -12.32 v -2.44103 q 2.67077,-2.57025 4.39385,-4.36513 1.73743,-1.79487 2.71384,-3.10153 0.99077,-1.30667 1.39282,-2.35488 0.40205,-1.06256 0.40205,-2.15384 0,-1.49334 -0.84717,-2.35487 -0.84718,-0.86154 -2.35488,-0.86154 -1.33538,0 -2.24,0.4882 -0.89025,0.48821 -1.76615,1.57949 l -2.09641,-1.59385 q 1.16308,-1.47897 2.67077,-2.26871 1.50769,-0.78975 3.66154,-0.78975 z" id="path47643"/><path d="m 274.14818,186.40966 q 0,-2.77129 -0.6318,-4.8677 -0.61743,-2.09641 -1.9241,-3.90564 -1.30667,-1.82359 -3.31692,-3.76205 l 1.78051,-1.72308 q 2.31179,1.90975 3.96308,3.97744 1.66564,2.06769 2.55589,4.56615 0.89026,2.48411 0.89026,5.71488 0,3.23076 -0.89026,5.72923 -0.89025,2.4841 -2.55589,4.55179 -1.65129,2.06769 -3.96308,3.97744 l -1.78051,-1.72308 q 2.05333,-1.96718 3.34564,-3.79077 1.30666,-1.82359 1.90974,-3.90564 0.61744,-2.08205 0.61744,-4.83897 z" id="path47645"/><path d="m 30.921338,208.87427 q 0.947692,0 1.522051,0.57436 0.588718,0.57436 0.588718,1.4359 0,0.86154 -0.588718,1.45025 -0.574359,0.58872 -1.522051,0.58872 -0.918974,0 -1.507692,-0.58872 -0.588718,-0.58871 -0.588718,-1.45025 0,-0.86154 0.588718,-1.4359 0.588718,-0.57436 1.507692,-0.57436 z m 2.24,7.42359 v 12.80821 h 4.121026 v 2.35487 H 25.407492 v -2.35487 h 4.537436 v -10.45334 h -4.393846 v -2.35487 z" id="path47647"/><path d="m 51.325453,209.85068 q 1.392821,0 2.484103,0.2441 1.105641,0.22975 2.038974,0.6318 l -0.947692,2.22564 q -0.761026,-0.3159 -1.593847,-0.45949 -0.818461,-0.14359 -1.665641,-0.14359 -2.92923,0 -2.92923,2.35487 v 2.68513 h 5.068718 l -0.344616,2.36923 H 48.71212 v 11.70257 h -3.202052 v -11.70257 h -3.446153 v -2.36923 h 3.446153 v -2.71384 q 0,-2.15385 1.593847,-3.48923 1.593846,-1.33539 4.221538,-1.33539 z" id="path47649"/><path d="m 80.646503,221.40966 q 0,2.75692 0.603077,4.83897 0.617436,2.08205 1.909744,3.90564 1.306666,1.82359 3.36,3.79077 l -1.780513,1.72308 q -2.311795,-1.90975 -3.977436,-3.97744 -1.651282,-2.06769 -2.541538,-4.55179 -0.890257,-2.49847 -0.890257,-5.72923 0,-3.23077 0.890257,-5.71488 0.890256,-2.49846 2.541538,-4.56615 1.665641,-2.06769 3.977436,-3.97744 l 1.780513,1.72308 q -2.010257,1.93846 -3.316923,3.76205 -1.306667,1.80923 -1.938462,3.90564 -0.617436,2.09641 -0.617436,4.8677 z" id="path47651"/><path d="m 93.942926,231.46094 v -2.29744 h 2.225641 v -10.58256 h -2.225641 v -2.28308 h 4.681026 l 0.588717,3.51795 q 0.847181,-1.90974 2.096411,-2.90051 1.26359,-1.00513 3.24513,-1.00513 0.67487,0 1.20615,0.11487 0.54564,0.10051 1.07692,0.27282 l -0.54564,5.58564 h -2.29743 v -3.08718 q -1.60821,0.0574 -2.77128,1.29231 -1.16308,1.22051 -1.837953,3.44615 v 5.62872 h 3.058463 v 2.29744 z" id="path47653"/><path d="m 113.70089,224.91325 q 0.14359,2.34051 1.30666,3.38871 1.17744,1.04821 2.82872,1.04821 1.10564,0 2.05333,-0.34462 0.96206,-0.34461 1.92411,-0.97641 l 1.39282,1.92411 q -1.06257,0.86153 -2.4841,1.37846 -1.42154,0.51692 -3.04411,0.51692 -2.36923,0 -4.00615,-1.00513 -1.62257,-1.00513 -2.46974,-2.8 -0.83283,-1.79487 -0.83283,-4.14974 0,-2.28308 0.83283,-4.07795 0.83282,-1.80923 2.38359,-2.85744 1.55076,-1.06256 3.70461,-1.06256 3.01539,0 4.76718,2.02461 1.76615,2.02462 1.76615,5.55693 0,0.38769 -0.0287,0.77538 -0.0144,0.37334 -0.0431,0.66052 z m 3.61846,-6.63385 q -1.50769,0 -2.49846,1.07692 -0.99077,1.07693 -1.13436,3.36 h 7.02154 q -0.0431,-2.13949 -0.91898,-3.2882 -0.86154,-1.14872 -2.46974,-1.14872 z" id="path47655"/><path d="m 133.77475,229.37889 q 1.50769,0 2.39794,-0.53129 0.89026,-0.54564 0.89026,-1.49333 0,-0.61744 -0.25846,-1.0482 -0.25846,-0.43077 -1.03385,-0.80411 -0.77538,-0.37333 -2.35487,-0.77538 -1.49333,-0.38769 -2.62769,-0.91898 -1.12,-0.53128 -1.73744,-1.37846 -0.61743,-0.84718 -0.61743,-2.18256 0,-1.95282 1.62256,-3.14462 1.63692,-1.20615 4.43692,-1.20615 1.90975,0 3.33129,0.50256 1.42153,0.50257 2.42666,1.24923 l -1.34974,2.02462 q -0.89026,-0.58872 -1.95282,-0.96205 -1.04821,-0.37334 -2.36923,-0.37334 -1.53641,0 -2.21128,0.45949 -0.66052,0.45949 -0.66052,1.22051 0,0.57436 0.33026,0.9477 0.34461,0.37333 1.17744,0.70359 0.83282,0.33025 2.35487,0.74666 1.47897,0.40205 2.57025,0.9477 1.10564,0.54564 1.70872,1.45025 0.61744,0.89026 0.61744,2.32616 0,1.63692 -0.94769,2.68512 -0.9477,1.03385 -2.46975,1.53641 -1.52205,0.48821 -3.27384,0.48821 -2.11077,0 -3.64718,-0.60308 -1.53641,-0.61743 -2.58462,-1.53641 l 1.70872,-1.95282 q 0.89025,0.71795 2.03897,1.17744 1.14872,0.44513 2.48411,0.44513 z" id="path47657"/><path d="m 191.95734,218.37991 v 2.62769 h -29.12 v -2.62769 z m 0,5.6718 v 2.62769 h -29.12 v -2.62769 z" id="path47659"/><path d="m 218.49276,221.40966 q 0,2.75692 0.60308,4.83897 0.61744,2.08205 1.90974,3.90564 1.30667,1.82359 3.36,3.79077 l -1.78051,1.72308 q -2.31179,-1.90975 -3.97743,-3.97744 -1.65129,-2.06769 -2.54154,-4.55179 -0.89026,-2.49847 -0.89026,-5.72923 0,-3.23077 0.89026,-5.71488 0.89025,-2.49846 2.54154,-4.56615 1.66564,-2.06769 3.97743,-3.97744 l 1.78051,1.72308 q -2.01025,1.93846 -3.31692,3.76205 -1.30667,1.80923 -1.93846,3.90564 -0.61744,2.09641 -0.61744,4.8677 z" id="path47661"/><path d="m 237.102,211.27222 q 1.46461,0 2.68513,0.45949 1.23487,0.44512 2.4123,1.72307 l -1.82358,1.62257 q -0.70359,-0.77539 -1.40718,-1.13436 -0.70359,-0.37333 -1.68,-0.37333 -1.33539,0 -2.01026,0.74666 -0.67487,0.73231 -0.67487,1.9241 0,1.23488 0.90461,2.13949 0.91898,0.89026 2.29744,0.89026 h 7.79692 v 2.28308 h -2.31179 v 7.69641 q -0.48821,0.57435 -1.30667,1.17743 -0.8041,0.60308 -2.02462,1.01949 -1.20615,0.40205 -2.88615,0.40205 -2.24,0 -3.71897,-0.83282 -1.46462,-0.84718 -2.18257,-2.21128 -0.71795,-1.37846 -0.71795,-2.97231 0,-2.28308 1.16308,-3.66154 1.16308,-1.37846 3.28821,-1.83795 v -0.10051 q -1.85231,-0.44513 -2.64206,-1.57949 -0.78974,-1.14872 -0.78974,-2.62769 0,-1.30667 0.70359,-2.38359 0.70359,-1.07692 1.96718,-1.72308 1.26359,-0.64615 2.95795,-0.64615 z m 3.24513,10.28103 h -2.85744 q -1.3641,0 -2.22564,0.61743 -0.84718,0.61744 -1.26359,1.56513 -0.40205,0.94769 -0.40205,1.9241 0,1.50769 0.86154,2.62769 0.8759,1.10565 2.75692,1.10565 2.08205,0 3.13026,-1.24924 z" id="path47663"/><path d="m 254.39021,229.37889 q 1.50769,0 2.39795,-0.53129 0.89025,-0.54564 0.89025,-1.49333 0,-0.61744 -0.25846,-1.0482 -0.25846,-0.43077 -1.03384,-0.80411 -0.77539,-0.37333 -2.35488,-0.77538 -1.49333,-0.38769 -2.62769,-0.91898 -1.12,-0.53128 -1.73743,-1.37846 -0.61744,-0.84718 -0.61744,-2.18256 0,-1.95282 1.62256,-3.14462 1.63693,-1.20615 4.43693,-1.20615 1.90974,0 3.33128,0.50256 1.42154,0.50257 2.42667,1.24923 l -1.34975,2.02462 q -0.89025,-0.58872 -1.95282,-0.96205 -1.0482,-0.37334 -2.36923,-0.37334 -1.53641,0 -2.21128,0.45949 -0.66051,0.45949 -0.66051,1.22051 0,0.57436 0.33025,0.9477 0.34462,0.37333 1.17744,0.70359 0.83282,0.33025 2.35487,0.74666 1.47897,0.40205 2.57026,0.9477 1.10564,0.54564 1.70871,1.45025 0.61744,0.89026 0.61744,2.32616 0,1.63692 -0.94769,2.68512 -0.94769,1.03385 -2.46975,1.53641 -1.52205,0.48821 -3.27384,0.48821 -2.11077,0 -3.64718,-0.60308 -1.53641,-0.61743 -2.58462,-1.53641 l 1.70872,-1.95282 q 0.89026,0.71795 2.03898,1.17744 1.14871,0.44513 2.4841,0.44513 z" id="path47665"/><path d="m 278.77177,230.65683 q -0.83282,0.53129 -1.9959,0.86154 -1.16308,0.33026 -2.42667,0.33026 -2.64205,0 -4.02051,-1.3641 -1.3641,-1.37846 -1.3641,-3.61846 v -8.2277 h -3.37436 v -2.34051 h 3.37436 v -3.38872 l 3.21641,-0.38769 v 3.77641 h 5.11179 l -0.35897,2.34051 H 272.181 v 8.19898 q 0,1.22051 0.60307,1.82359 0.61744,0.58872 2.01026,0.58872 0.83282,0 1.52205,-0.20103 0.70359,-0.20103 1.29231,-0.51692 z" id="path47667"/><path d="m 294.92563,227.74196 q 0,0.90462 0.27282,1.30667 0.27282,0.40205 0.8759,0.60308 l -0.71795,2.18256 q -1.12,-0.12923 -1.93846,-0.61744 -0.8041,-0.4882 -1.20615,-1.47897 -0.83282,1.06256 -2.11077,1.59385 -1.27795,0.51692 -2.72821,0.51692 -2.31179,0 -3.64718,-1.29231 -1.33538,-1.30666 -1.33538,-3.41743 0,-2.39795 1.86667,-3.69026 1.86666,-1.29231 5.34153,-1.29231 h 2.16821 v -0.99077 q 0,-1.47897 -0.89026,-2.11077 -0.89025,-0.64615 -2.4841,-0.64615 -0.74667,0 -1.80923,0.20103 -1.06257,0.18666 -2.22564,0.58871 l -0.78975,-2.26871 q 1.42154,-0.53129 2.78565,-0.77539 1.3641,-0.25846 2.52717,-0.25846 3.04411,0 4.53744,1.34974 1.50769,1.34975 1.50769,3.73334 z m -6.57641,1.73744 q 0.97641,0 1.90975,-0.51692 0.93333,-0.51693 1.50769,-1.45026 v -3.34564 h -1.78051 q -2.26872,0 -3.24513,0.76102 -0.97641,0.74667 -0.97641,2.0677 0,2.4841 2.58461,2.4841 z" id="path47669"/><path d="m 307.87743,229.20658 q 1.06257,0 1.98154,-0.37333 0.91898,-0.37334 1.7518,-0.9477 l 1.49333,2.0677 q -0.99077,0.84717 -2.41231,1.37846 -1.40718,0.51692 -2.91487,0.51692 -2.32615,0 -3.99179,-0.97641 -1.65129,-0.99077 -2.52718,-2.75692 -0.86154,-1.78052 -0.86154,-4.16411 0,-2.31179 0.87589,-4.12102 0.89026,-1.82359 2.5559,-2.8718 1.66564,-1.06256 4.00616,-1.06256 3.0441,0 5.25538,1.82359 l -1.47897,2.02461 q -0.89026,-0.61743 -1.82359,-0.93333 -0.93334,-0.33026 -1.89539,-0.33026 -1.80923,0 -2.94359,1.32103 -1.13436,1.32103 -1.13436,4.14974 0,2.84308 1.14872,4.04923 1.14872,1.20616 2.91487,1.20616 z" id="path47671"/><path d="m 321.11641,209.85068 v 21.61026 H 317.9 v -21.25128 z m 10.03692,6.44718 -6.13128,6.77744 6.77744,8.38564 h -3.93436 l -6.51897,-8.29949 6.05948,-6.86359 z" id="path47673"/><path d="m 333.91026,236.71632 v -2.65641 h 14.35898 v 2.65641 z" id="path47675"/><path d="m 365.54312,216.29786 -5.34154,15.16308 h -3.76205 l -5.34154,-15.16308 h 3.44615 l 3.84821,12.49231 3.86256,-12.49231 z" id="path47677"/><path d="m 381.07953,227.74196 q 0,0.90462 0.27282,1.30667 0.27282,0.40205 0.8759,0.60308 l -0.71795,2.18256 q -1.12,-0.12923 -1.93846,-0.61744 -0.8041,-0.4882 -1.20615,-1.47897 -0.83282,1.06256 -2.11077,1.59385 -1.27795,0.51692 -2.72821,0.51692 -2.31179,0 -3.64718,-1.29231 -1.33538,-1.30666 -1.33538,-3.41743 0,-2.39795 1.86667,-3.69026 1.86666,-1.29231 5.34153,-1.29231 h 2.16821 v -0.99077 q 0,-1.47897 -0.89026,-2.11077 -0.89025,-0.64615 -2.4841,-0.64615 -0.74667,0 -1.80923,0.20103 -1.06256,0.18666 -2.22564,0.58871 l -0.78975,-2.26871 q 1.42154,-0.53129 2.78565,-0.77539 1.3641,-0.25846 2.52718,-0.25846 3.0441,0 4.53743,1.34974 1.50769,1.34975 1.50769,3.73334 z m -6.57641,1.73744 q 0.97641,0 1.90975,-0.51692 0.93333,-0.51693 1.50769,-1.45026 v -3.34564 h -1.78051 q -2.26872,0 -3.24513,0.76102 -0.97641,0.74667 -0.97641,2.0677 0,2.4841 2.58461,2.4841 z" id="path47679"/><path d="m 386.8662,231.46094 v -2.29744 h 2.22565 v -10.58256 h -2.22565 v -2.28308 h 4.68103 l 0.58872,3.51795 q 0.84718,-1.90974 2.09641,-2.90051 1.26359,-1.00513 3.24513,-1.00513 0.67487,0 1.20615,0.11487 0.54564,0.10051 1.07692,0.27282 l -0.54564,5.58564 h -2.29743 v -3.08718 q -1.60821,0.0574 -2.77129,1.29231 -1.16307,1.22051 -1.83794,3.44615 v 5.62872 h 3.05846 v 2.29744 z" id="path47681"/><path d="m 426.6406,211.27222 q 1.46462,0 2.68513,0.45949 1.23487,0.44512 2.41231,1.72307 l -1.82359,1.62257 q -0.70359,-0.77539 -1.40718,-1.13436 -0.70359,-0.37333 -1.68,-0.37333 -1.33538,0 -2.01026,0.74666 -0.67487,0.73231 -0.67487,1.9241 0,1.23488 0.90462,2.13949 0.91897,0.89026 2.29743,0.89026 h 7.79693 v 2.28308 h -2.3118 v 7.69641 q -0.4882,0.57435 -1.30667,1.17743 -0.8041,0.60308 -2.02461,1.01949 -1.20615,0.40205 -2.88615,0.40205 -2.24,0 -3.71898,-0.83282 -1.46461,-0.84718 -2.18256,-2.21128 -0.71795,-1.37846 -0.71795,-2.97231 0,-2.28308 1.16308,-3.66154 1.16307,-1.37846 3.2882,-1.83795 v -0.10051 q -1.85231,-0.44513 -2.64205,-1.57949 -0.78974,-1.14872 -0.78974,-2.62769 0,-1.30667 0.70359,-2.38359 0.70359,-1.07692 1.96717,-1.72308 1.26359,-0.64615 2.95795,-0.64615 z m 3.24513,10.28103 h -2.85743 q -1.36411,0 -2.22565,0.61743 -0.84717,0.61744 -1.26358,1.56513 -0.40206,0.94769 -0.40206,1.9241 0,1.50769 0.86154,2.62769 0.8759,1.10565 2.75693,1.10565 2.08205,0 3.13025,-1.24924 z" id="path47683"/><path d="m 461.70523,211.2435 q 3.33128,0 5.04,2.68513 1.70872,2.68513 1.70872,7.5959 0,4.93948 -1.70872,7.63897 -1.70872,2.68513 -5.04,2.68513 -3.33128,0 -5.04,-2.68513 -1.70872,-2.69949 -1.70872,-7.63897 0,-4.91077 1.70872,-7.5959 1.70872,-2.68513 5.04,-2.68513 z m 0,2.45539 q -1.70872,0 -2.62769,1.82359 -0.91898,1.80923 -0.91898,6.00205 0,3.05846 0.37334,4.76718 l 5.6,-11.42975 q -0.41642,-0.61743 -1.01949,-0.89025 -0.60308,-0.27282 -1.40718,-0.27282 z m 3.54667,7.82564 q 0,-2.74257 -0.30154,-4.37949 l -5.52821,11.28615 q 0.77539,0.96206 2.28308,0.96206 1.72308,0 2.62769,-1.80924 0.91898,-1.80923 0.91898,-6.05948 z" id="path47685"/><path d="m 483.01395,216.15427 1.89539,1.89539 -4.09231,4.06359 4.09231,4.13538 -1.89539,1.89538 -4.07795,-4.14974 -4.12102,4.14974 -1.89539,-1.89538 4.13539,-4.13538 -4.13539,-4.06359 1.89539,-1.89539 4.12102,4.07795 z" id="path47687"/><path d="m 496.16681,211.2435 q 3.33128,0 5.04,2.68513 1.70871,2.68513 1.70871,7.5959 0,4.93948 -1.70871,7.63897 -1.70872,2.68513 -5.04,2.68513 -3.33129,0 -5.04,-2.68513 -1.70872,-2.69949 -1.70872,-7.63897 0,-4.91077 1.70872,-7.5959 1.70871,-2.68513 5.04,-2.68513 z m 0,2.45539 q -1.70872,0 -2.6277,1.82359 -0.91897,1.80923 -0.91897,6.00205 0,3.05846 0.37333,4.76718 l 5.6,-11.42975 q -0.41641,-0.61743 -1.01948,-0.89025 -0.60308,-0.27282 -1.40718,-0.27282 z m 3.54666,7.82564 q 0,-2.74257 -0.30154,-4.37949 l -5.5282,11.28615 q 0.77538,0.96206 2.28308,0.96206 1.72307,0 2.62769,-1.80924 0.91897,-1.80923 0.91897,-6.05948 z" id="path47689"/><path d="m 511.76066,214.17273 v 6.30359 h 7.45231 v 2.52718 h -7.45231 v 8.45744 h -3.33128 v -19.81539 h 12.19076 l -0.37333,2.52718 z" id="path47691"/><path d="m 532.60989,221.40966 q 0,-2.77129 -0.63179,-4.8677 -0.61744,-2.09641 -1.9241,-3.90564 -1.30667,-1.82359 -3.31693,-3.76205 l 1.78052,-1.72308 q 2.31179,1.90975 3.96307,3.97744 1.66564,2.06769 2.5559,4.56615 0.89026,2.48411 0.89026,5.71488 0,3.23076 -0.89026,5.72923 -0.89026,2.4841 -2.5559,4.55179 -1.65128,2.06769 -3.96307,3.97744 l -1.78052,-1.72308 q 2.05334,-1.96718 3.34564,-3.79077 1.30667,-1.82359 1.90975,-3.90564 0.61743,-2.08205 0.61743,-4.83897 z" id="path47693"/><path d="m 549.8407,221.40966 q 0,-2.77129 -0.6318,-4.8677 -0.61743,-2.09641 -1.9241,-3.90564 -1.30667,-1.82359 -3.31692,-3.76205 l 1.78051,-1.72308 q 2.31179,1.90975 3.96308,3.97744 1.66564,2.06769 2.55589,4.56615 0.89026,2.48411 0.89026,5.71488 0,3.23076 -0.89026,5.72923 -0.89025,2.4841 -2.55589,4.55179 -1.65129,2.06769 -3.96308,3.97744 l -1.78051,-1.72308 q 2.05333,-1.96718 3.34564,-3.79077 1.30666,-1.82359 1.90974,-3.90564 0.61744,-2.08205 0.61744,-4.83897 z" id="path47695"/><path d="m 586.82942,207.42401 v 2.36924 q -1.47897,0 -2.42666,0.44512 -0.94769,0.44513 -0.81846,1.66564 l 0.53128,5.26975 q 0.21538,2.03897 -0.70359,3.00102 -0.91898,0.9477 -2.65641,1.23488 1.80923,0.30153 2.68513,1.22051 0.89025,0.90461 0.67487,3.01538 l -0.53128,5.26975 q -0.12923,1.23487 0.81846,1.66564 0.94769,0.44513 2.42666,0.44513 v 2.36923 q -1.99589,0 -3.47487,-0.43077 -1.46461,-0.43077 -2.21128,-1.47898 -0.73231,-1.0482 -0.53128,-2.87179 l 0.53128,-4.95385 q 0.15795,-1.52205 -0.77538,-2.24 -0.93334,-0.71795 -3.41744,-0.71795 v -2.58461 q 2.4841,0 3.41744,-0.70359 0.93333,-0.70359 0.77538,-2.24 l -0.53128,-4.95385 q -0.20103,-1.83795 0.53128,-2.88615 0.74667,-1.04821 2.21128,-1.47898 1.47898,-0.43077 3.47487,-0.43077 z" id="path47697"/><path d="m 59.481363,266.46094 v -2.29744 h 2.225641 v -10.58256 h -2.225641 v -2.28308 h 4.681025 l 0.588718,3.51795 q 0.84718,-1.90974 2.096411,-2.90051 1.263589,-1.00513 3.245128,-1.00513 0.674872,0 1.206154,0.11487 0.545641,0.10051 1.076923,0.27282 l -0.545641,5.58564 h -2.297436 v -3.08718 q -1.608205,0.0574 -2.771282,1.29231 -1.163077,1.22051 -1.837949,3.44615 v 5.62872 h 3.058462 v 2.29744 z" id="path47699"/><path d="m 79.239324,259.91325 q 0.14359,2.34051 1.306666,3.38871 1.177436,1.04821 2.828718,1.04821 1.105641,0 2.053334,-0.34462 0.962051,-0.34461 1.924102,-0.97641 l 1.392821,1.92411 q -1.062564,0.86153 -2.484103,1.37846 -1.421538,0.51692 -3.044102,0.51692 -2.369231,0 -4.006154,-1.00513 -1.622564,-1.00513 -2.469744,-2.8 -0.83282,-1.79487 -0.83282,-4.14974 0,-2.28308 0.83282,-4.07795 0.832821,-1.80923 2.38359,-2.85744 1.550769,-1.06256 3.704615,-1.06256 3.015385,0 4.76718,2.02461 1.766154,2.02462 1.766154,5.55693 0,0.38769 -0.02872,0.77538 -0.01436,0.37334 -0.04308,0.66052 z m 3.618461,-6.63385 q -1.507692,0 -2.498461,1.07692 -0.990769,1.07693 -1.134359,3.36 h 7.021538 q -0.04308,-2.13949 -0.918974,-3.2882 -0.861539,-1.14872 -2.469744,-1.14872 z" id="path47701"/><path d="m 106.46395,265.65683 q -0.83282,0.53129 -1.9959,0.86154 -1.16307,0.33026 -2.42666,0.33026 -2.642054,0 -4.020515,-1.3641 -1.364103,-1.37846 -1.364103,-3.61846 v -8.2277 h -3.374359 v -2.34051 h 3.374359 v -3.38872 l 3.21641,-0.38769 v 3.77641 h 5.111798 l -0.35898,2.34051 h -4.752818 v 8.19898 q 0,1.22051 0.603078,1.82359 0.61744,0.58872 2.01026,0.58872 0.83282,0 1.52205,-0.20103 0.70359,-0.20103 1.2923,-0.51692 z" id="path47703"/><path d="m 114.24653,251.29786 v 10.59692 q 0,1.34975 0.53128,1.92411 0.54564,0.57436 1.63692,0.57436 1.03385,0 1.9959,-0.61744 0.96205,-0.61744 1.52205,-1.50769 v -10.97026 h 3.21641 v 15.16308 h -2.77128 l -0.20103,-1.93846 q -0.84718,1.13435 -2.13948,1.73743 -1.29231,0.58872 -2.64205,0.58872 -2.21129,0 -3.28821,-1.20615 -1.07692,-1.22052 -1.07692,-3.34565 v -10.99897 z" id="path47705"/><path d="m 128.40449,266.46094 v -2.29744 h 2.22564 v -10.58256 h -2.22564 v -2.28308 h 4.68102 l 0.58872,3.51795 q 0.84718,-1.90974 2.09641,-2.90051 1.26359,-1.00513 3.24513,-1.00513 0.67487,0 1.20615,0.11487 0.54565,0.10051 1.07693,0.27282 l -0.54564,5.58564 h -2.29744 v -3.08718 q -1.6082,0.0574 -2.77128,1.29231 -1.16308,1.22051 -1.83795,3.44615 v 5.62872 h 3.05846 v 2.29744 z" id="path47707"/><path d="m 145.49168,266.46094 v -15.16308 h 2.77128 l 0.24411,1.96718 q 0.94769,-1.14872 2.24,-1.75179 1.2923,-0.61744 2.65641,-0.61744 2.12512,0 3.17333,1.19179 1.06256,1.1918 1.06256,3.31693 v 11.05641 h -3.21641 v -9.46257 q 0,-1.96718 -0.40205,-2.8 -0.38769,-0.84718 -1.76615,-0.84718 -1.10564,0 -2.02462,0.68923 -0.90461,0.67488 -1.52205,1.53641 v 10.88411 z" id="path47709"/><path d="m 192.61785,265.65683 q -0.83282,0.53129 -1.9959,0.86154 -1.16307,0.33026 -2.42666,0.33026 -2.64205,0 -4.02052,-1.3641 -1.3641,-1.37846 -1.3641,-3.61846 v -8.2277 h -3.37436 v -2.34051 h 3.37436 v -3.38872 l 3.21641,-0.38769 v 3.77641 h 5.1118 l -0.35898,2.34051 h -4.75282 v 8.19898 q 0,1.22051 0.60308,1.82359 0.61744,0.58872 2.01026,0.58872 0.83282,0 1.52205,-0.20103 0.70359,-0.20103 1.2923,-0.51692 z" id="path47711"/><path d="m 197.32762,266.46094 v -2.29744 h 2.22564 v -10.58256 h -2.22564 v -2.28308 h 4.68102 l 0.58872,3.51795 q 0.84718,-1.90974 2.09641,-2.90051 1.26359,-1.00513 3.24513,-1.00513 0.67487,0 1.20615,0.11487 0.54564,0.10051 1.07692,0.27282 l -0.54564,5.58564 h -2.29743 v -3.08718 q -1.60821,0.0574 -2.77128,1.29231 -1.16308,1.22051 -1.83795,3.44615 v 5.62872 h 3.05846 v 2.29744 z" id="path47713"/><path d="m 217.63122,251.29786 v 10.59692 q 0,1.34975 0.53129,1.92411 0.54564,0.57436 1.63692,0.57436 1.03385,0 1.9959,-0.61744 0.96205,-0.61744 1.52205,-1.50769 v -10.97026 h 3.21641 v 15.16308 h -2.77128 l -0.20103,-1.93846 q -0.84718,1.13435 -2.13949,1.73743 -1.2923,0.58872 -2.64205,0.58872 -2.21128,0 -3.2882,-1.20615 -1.07693,-1.22052 -1.07693,-3.34565 v -10.99897 z" id="path47715"/><path d="m 234.31636,259.91325 q 0.14359,2.34051 1.30666,3.38871 1.17744,1.04821 2.82872,1.04821 1.10564,0 2.05334,-0.34462 0.96205,-0.34461 1.9241,-0.97641 l 1.39282,1.92411 q -1.06257,0.86153 -2.4841,1.37846 -1.42154,0.51692 -3.04411,0.51692 -2.36923,0 -4.00615,-1.00513 -1.62256,-1.00513 -2.46974,-2.8 -0.83282,-1.79487 -0.83282,-4.14974 0,-2.28308 0.83282,-4.07795 0.83282,-1.80923 2.38359,-2.85744 1.55077,-1.06256 3.70461,-1.06256 3.01539,0 4.76718,2.02461 1.76615,2.02462 1.76615,5.55693 0,0.38769 -0.0287,0.77538 -0.0144,0.37334 -0.0431,0.66052 z m 3.61846,-6.63385 q -1.50769,0 -2.49846,1.07692 -0.99077,1.07693 -1.13436,3.36 h 7.02154 q -0.0431,-2.13949 -0.91898,-3.2882 -0.86154,-1.14872 -2.46974,-1.14872 z" id="path47717"/><path d="m 254.92149,251.48453 q 1.09128,0 1.83795,0.76102 0.74667,0.74667 0.74667,1.80923 0,1.06257 -0.74667,1.83795 -0.74667,0.76103 -1.83795,0.76103 -1.09128,0 -1.83795,-0.76103 -0.74666,-0.77538 -0.74666,-1.83795 0,-1.06256 0.74666,-1.80923 0.74667,-0.76102 1.83795,-0.76102 z m 0,9.87897 q 1.10564,0 1.83795,0.74667 0.74667,0.74666 0.74667,1.82359 0,0.63179 -0.20103,1.27795 -0.18667,0.64615 -0.60308,1.57948 l -2.19692,5.02564 h -2.46974 l 1.37846,-5.75794 q -1.07692,-0.74667 -1.07692,-2.13949 0,-1.06257 0.74666,-1.80923 0.74667,-0.74667 1.83795,-0.74667 z" id="path47719"/><path d="m 26.426979,277.42401 q 1.995898,0 3.460513,0.43077 1.478974,0.43077 2.211282,1.47898 0.746667,1.0482 0.545641,2.87179 l -0.531282,4.96821 q -0.157949,1.53641 0.847179,2.24 1.005129,0.70359 3.345642,0.70359 v 2.58461 q -2.326154,0 -3.345642,0.71795 -1.005128,0.71795 -0.847179,2.24 l 0.531282,4.93949 q 0.201026,1.83795 -0.545641,2.88615 -0.732308,1.04821 -2.211282,1.47898 -1.464615,0.43077 -3.460513,0.43077 v -2.36923 q 1.478975,0 2.426667,-0.44513 0.947692,-0.43077 0.818461,-1.66564 l -0.531282,-5.26975 q -0.215384,-2.11077 0.70359,-3.01538 0.933333,-0.91898 2.857436,-1.20616 -1.938462,-0.30153 -2.857436,-1.24923 -0.918974,-0.96205 -0.70359,-3.00102 l 0.531282,-5.26975 q 0.129231,-1.22051 -0.818461,-1.66564 -0.947692,-0.44512 -2.426667,-0.44512 z" id="path47721"/></g>
	<g id="g41581"><path style="fill:#2686ca;fill-opacity:1" d="M 881.64001,44.64 H 0.0010028 L 0,30.897 C -0.00124512,13.833 13.833,0 30.897,0 h 819.84601 c 17.063,0 30.896,13.833 30.896,30.897 z" id="path26203" sodipodi:nodetypes="ccssssc"/><g id="g41563" style="stroke-width:13.8026" transform="matrix(0.50127704,0,0,0.50127704,818.45376,3.7727494)"><path d="M 37,72 A 1,1 0 0 1 36.578,71.907 C 19.185,63.811 8.8,49.853 8.8,34.57 V 13.46 A 1,1 0 0 1 9.127,12.72 0.992,0.992 0 0 1 9.896,12.464 C 20.887,13.518 29.508,10.209 36.24,2.35 A 1,1 0 0 1 37,2 1,1 0 0 1 37.76,2.352 c 6.586,7.733 15.213,11.048 26.357,10.111 a 1,1 0 0 1 1.083,1 V 34.57 a 29.339,29.339 0 0 1 -0.144,3 33.031,33.031 0 0 1 -1.475,7.2 31.017,31.017 0 0 1 -1.132,3.056 38.379,38.379 0 0 1 -4.011,7.183 c -0.2,0.3 -0.434,0.62 -0.669,0.939 A 53.361,53.361 0 0 1 37.422,71.907 1,1 0 0 1 37,72 Z M 10.8,14.547 V 34.57 c 0,14.362 9.785,27.539 26.2,35.33 A 51.137,51.137 0 0 0 56.149,54.781 c 0.226,-0.3 0.44,-0.592 0.635,-0.889 a 36.4,36.4 0 0 0 3.824,-6.841 29.481,29.481 0 0 0 1.067,-2.877 31.048,31.048 0 0 0 1.389,-6.793 A 26.935,26.935 0 0 0 63.2,34.57 V 14.535 C 52.3,15.2 43.707,11.91 37,4.513 30.158,12.029 21.567,15.319 10.8,14.547 Z" id="path35138" style="fill:#c11e2c;fill-opacity:1;stroke:#20283c;stroke-width:1.99491;stroke-dasharray:none;stroke-opacity:1"/><path d="m 58.031,38.47 a 0.884,0.884 0 0 1 -0.125,-0.008 1,1 0 0 1 -0.868,-1.116 22.223,22.223 0 0 0 0.162,-2.776 1.0000125,1.0000125 0 0 1 2,-0.01 v 0.01 a 24.073,24.073 0 0 1 -0.178,3.024 1,1 0 0 1 -0.991,0.876 z" id="path35140" style="fill:#c11e2c;fill-opacity:1;stroke:#20283c;stroke-width:1.99491;stroke-dasharray:none;stroke-opacity:1"/><path d="m 54.929,48.44 a 1,1 0 0 1 -0.884,-1.466 27.324,27.324 0 0 0 1.312,-2.864 1.0000445,1.0000445 0 1 1 1.866,0.72 29.149,29.149 0 0 1 -1.409,3.076 1,1 0 0 1 -0.885,0.534 z" id="path35142" style="fill:#c11e2c;fill-opacity:1;stroke:#20283c;stroke-width:1.99491;stroke-dasharray:none;stroke-opacity:1"/><path d="M 37,65.31 A 1.01,1.01 0 0 1 36.534,65.195 C 22.925,58.028 14.8,46.579 14.8,34.57 V 19.61 a 1,1 0 0 1 0.952,-1 33.729,33.729 0 0 0 20.6,-7.936 1,1 0 0 1 1.288,0 34.181,34.181 0 0 0 20.611,7.878 1,1 0 0 1 0.946,1 v 8.01 a 1,1 0 1 1 -2,0 V 20.487 A 36.02,36.02 0 0 1 37,12.734 35.561,35.561 0 0 1 16.8,20.552 V 34.57 c 0,11.285 7.354,21.688 20.2,28.607 A 45.135,45.135 0 0 0 49.247,53.771 1,1 0 1 1 50.733,55.109 47.372,47.372 0 0 1 37.466,65.195 1.01,1.01 0 0 1 37,65.31 Z" id="path35144" style="fill:#c11e2c;fill-opacity:1;stroke:#20283c;stroke-width:1.99491;stroke-dasharray:none;stroke-opacity:1"/></g></g>
	
	
	
</g></g></g></svg>