<?xml version="1.0" ?><svg xmlns:inkscape="http://www.inkscape.org/namespaces/inkscape" xmlns:sodipodi="http://sodipodi.sourceforge.net/DTD/sodipodi-0.dtd" xmlns="http://www.w3.org/2000/svg" xmlns:svg="http://www.w3.org/2000/svg" width="903.961" height="569.15997" viewBox="0 0 239.17329 150.59024" version="1.1" id="svg5" sodipodi:docname="opaque-cst-1.svg" xml:space="preserve"><sodipodi:namedview id="namedview7" pagecolor="#ffffff" bordercolor="#000000" borderopacity="0.25" showgrid="true"/><defs id="defs2"><rect x="22.319975" y="66.959999" width="848.159" height="479.88" id="rect2499"/></defs><g id="layer1"><g id="g26287" transform="matrix(0.26458333,0,0,0.26458333,151.03674,16.444252)"><g id="g26211" transform="translate(-559.68753,-50.991504)" style="display:inline">
	<path style="fill:#e6e6e6;fill-opacity:1" d="M 850.74201,546.84001 H 30.897 C 13.833,546.84001 0,533.00701 0,515.94301 V 42.057 C 0,24.993 13.833,11.16 30.897,11.16 h 819.84601 c 17.064,0 30.897,13.833 30.897,30.897 v 473.88601 c -10e-4,17.064 -13.834,30.897 -30.898,30.897 z" id="path26201" sodipodi:nodetypes="ssssssscs"/>
	<path style="fill:#434141;fill-opacity:1" d="M 881.64001,44.64 H 0.0010028 L 0,30.897 C -0.00124512,13.833 13.833,0 30.897,0 h 819.84601 c 17.063,0 30.896,13.833 30.896,30.897 z" id="path26203" sodipodi:nodetypes="ccssssc"/>
	
	
	
<g aria-label="   int res = f(0x428a2f98) if (res == 0) {   return true; }" transform="matrix(1.0000012,0,0,1.0000012,-11.159998,-11.160334)" id="text2497" style="font-weight:500;font-size:28px;font-family:'Fira Code';-inkscape-font-specification:'Fira Code, Medium';white-space:pre;shape-inside:url(#rect2499);display:inline;opacity:1;fill:#434141;stroke-width:2;stroke-linecap:round;stroke-miterlimit:2;paint-order:fill markers stroke"><path d="m 30.921338,173.87427 q 0.947692,0 1.522051,0.57436 0.588718,0.57436 0.588718,1.4359 0,0.86154 -0.588718,1.45025 -0.574359,0.58872 -1.522051,0.58872 -0.918974,0 -1.507692,-0.58872 -0.588718,-0.58871 -0.588718,-1.45025 0,-0.86154 0.588718,-1.4359 0.588718,-0.57436 1.507692,-0.57436 z m 2.24,7.42359 v 12.80821 h 4.121026 v 2.35487 H 25.407492 v -2.35487 h 4.537436 v -10.45334 h -4.393846 v -2.35487 z" id="path47879"/><path d="m 42.106991,196.46094 v -15.16308 h 2.771283 l 0.244102,1.96718 q 0.947692,-1.14872 2.24,-1.75179 1.292308,-0.61744 2.65641,-0.61744 2.125129,0 3.173334,1.19179 1.062564,1.1918 1.062564,3.31693 v 11.05641 h -3.21641 v -9.46257 q 0,-1.96718 -0.402052,-2.8 -0.387692,-0.84718 -1.766154,-0.84718 -1.105641,0 -2.024615,0.68923 -0.904615,0.67488 -1.522051,1.53641 v 10.88411 z" id="path47881"/><path d="m 72.002388,195.65683 q -0.83282,0.53129 -1.995897,0.86154 -1.163077,0.33026 -2.426667,0.33026 -2.642051,0 -4.020512,-1.3641 -1.364103,-1.37846 -1.364103,-3.61846 v -8.2277 H 58.82085 v -2.34051 h 3.374359 v -3.38872 l 3.21641,-0.38769 v 3.77641 h 5.111795 l -0.358974,2.34051 h -4.752821 v 8.19898 q 0,1.22051 0.603077,1.82359 0.617436,0.58872 2.010257,0.58872 0.83282,0 1.522051,-0.20103 0.70359,-0.20103 1.292308,-0.51692 z" id="path47883"/><path d="m 93.942926,196.46094 v -2.29744 h 2.225641 v -10.58256 h -2.225641 v -2.28308 h 4.681026 l 0.588717,3.51795 q 0.847181,-1.90974 2.096411,-2.90051 1.26359,-1.00513 3.24513,-1.00513 0.67487,0 1.20615,0.11487 0.54564,0.10051 1.07692,0.27282 l -0.54564,5.58564 h -2.29743 v -3.08718 q -1.60821,0.0574 -2.77128,1.29231 -1.16308,1.22051 -1.837953,3.44615 v 5.62872 h 3.058463 v 2.29744 z" id="path47885"/><path d="m 113.70089,189.91325 q 0.14359,2.34051 1.30666,3.38871 1.17744,1.04821 2.82872,1.04821 1.10564,0 2.05333,-0.34462 0.96206,-0.34461 1.92411,-0.97641 l 1.39282,1.92411 q -1.06257,0.86153 -2.4841,1.37846 -1.42154,0.51692 -3.04411,0.51692 -2.36923,0 -4.00615,-1.00513 -1.62257,-1.00513 -2.46974,-2.8 -0.83283,-1.79487 -0.83283,-4.14974 0,-2.28308 0.83283,-4.07795 0.83282,-1.80923 2.38359,-2.85744 1.55076,-1.06256 3.70461,-1.06256 3.01539,0 4.76718,2.02461 1.76615,2.02462 1.76615,5.55693 0,0.38769 -0.0287,0.77538 -0.0144,0.37334 -0.0431,0.66052 z m 3.61846,-6.63385 q -1.50769,0 -2.49846,1.07692 -0.99077,1.07693 -1.13436,3.36 h 7.02154 q -0.0431,-2.13949 -0.91898,-3.2882 -0.86154,-1.14872 -2.46974,-1.14872 z" id="path47887"/><path d="m 133.77475,194.37889 q 1.50769,0 2.39794,-0.53129 0.89026,-0.54564 0.89026,-1.49333 0,-0.61744 -0.25846,-1.0482 -0.25846,-0.43077 -1.03385,-0.80411 -0.77538,-0.37333 -2.35487,-0.77538 -1.49333,-0.38769 -2.62769,-0.91898 -1.12,-0.53128 -1.73744,-1.37846 -0.61743,-0.84718 -0.61743,-2.18256 0,-1.95282 1.62256,-3.14462 1.63692,-1.20615 4.43692,-1.20615 1.90975,0 3.33129,0.50256 1.42153,0.50257 2.42666,1.24923 l -1.34974,2.02462 q -0.89026,-0.58872 -1.95282,-0.96205 -1.04821,-0.37334 -2.36923,-0.37334 -1.53641,0 -2.21128,0.45949 -0.66052,0.45949 -0.66052,1.22051 0,0.57436 0.33026,0.9477 0.34461,0.37333 1.17744,0.70359 0.83282,0.33025 2.35487,0.74666 1.47897,0.40205 2.57025,0.9477 1.10564,0.54564 1.70872,1.45025 0.61744,0.89026 0.61744,2.32616 0,1.63692 -0.94769,2.68512 -0.9477,1.03385 -2.46975,1.53641 -1.52205,0.48821 -3.27384,0.48821 -2.11077,0 -3.64718,-0.60308 -1.53641,-0.61743 -2.58462,-1.53641 l 1.70872,-1.95282 q 0.89025,0.71795 2.03897,1.17744 1.14872,0.44513 2.48411,0.44513 z" id="path47889"/><path d="m 174.72656,183.37991 v 2.62769 h -11.88923 v -2.62769 z m 0,5.6718 v 2.62769 h -11.88923 v -2.62769 z" id="path47891"/><path d="m 206.40249,174.85068 q 1.39282,0 2.4841,0.2441 1.10564,0.22975 2.03897,0.6318 l -0.94769,2.22564 q -0.76102,-0.3159 -1.59384,-0.45949 -0.81847,-0.14359 -1.66565,-0.14359 -2.92923,0 -2.92923,2.35487 v 2.68513 h 5.06872 l -0.34461,2.36923 h -4.72411 v 11.70257 h -3.20205 v -11.70257 h -3.44615 v -2.36923 h 3.44615 v -2.71384 q 0,-2.15385 1.59385,-3.48923 1.59384,-1.33539 4.22154,-1.33539 z" id="path47893"/><path d="m 218.49276,186.40966 q 0,2.75692 0.60308,4.83897 0.61744,2.08205 1.90974,3.90564 1.30667,1.82359 3.36,3.79077 l -1.78051,1.72308 q -2.31179,-1.90975 -3.97743,-3.97744 -1.65129,-2.06769 -2.54154,-4.55179 -0.89026,-2.49847 -0.89026,-5.72923 0,-3.23077 0.89026,-5.71488 0.89025,-2.49846 2.54154,-4.56615 1.66564,-2.06769 3.97743,-3.97744 l 1.78051,1.72308 q -2.01025,1.93846 -3.31692,3.76205 -1.30667,1.80923 -1.93846,3.90564 -0.61744,2.09641 -0.61744,4.8677 z" id="path47895"/><path d="m 237.70508,176.2435 q 3.33128,0 5.04,2.68513 1.70871,2.68513 1.70871,7.5959 0,4.93948 -1.70871,7.63897 -1.70872,2.68513 -5.04,2.68513 -3.33129,0 -5.04,-2.68513 -1.70872,-2.69949 -1.70872,-7.63897 0,-4.91077 1.70872,-7.5959 1.70871,-2.68513 5.04,-2.68513 z m 0,2.45539 q -1.70872,0 -2.6277,1.82359 -0.91897,1.80923 -0.91897,6.00205 0,3.05846 0.37333,4.76718 l 5.6,-11.42975 q -0.41641,-0.61743 -1.01948,-0.89025 -0.60308,-0.27282 -1.40718,-0.27282 z m 3.54666,7.82564 q 0,-2.74257 -0.30154,-4.37949 l -5.5282,11.28615 q 0.77538,0.96206 2.28308,0.96206 1.72307,0 2.62769,-1.80924 0.91897,-1.80923 0.91897,-6.05948 z" id="path47897"/><path d="m 259.0138,181.15427 1.89538,1.89539 -4.0923,4.06359 4.0923,4.13538 -1.89538,1.89538 -4.07795,-4.14974 -4.12103,4.14974 -1.89538,-1.89538 4.13538,-4.13538 -4.13538,-4.06359 1.89538,-1.89539 4.12103,4.07795 z" id="path47899"/><path d="m 276.64664,184.09786 v 5.29846 h 2.35487 v 2.49846 h -2.35487 v 4.56616 h -3.08718 l -0.0144,-4.56616 h -8.22769 v -2.24 l 5.70051,-13.41128 2.71385,1.07692 -5.05436,12.0759 h 4.88205 l 0.38769,-5.29846 z" id="path47901"/><path d="m 288.59333,176.2435 q 2.01025,0 3.41743,0.76103 1.40718,0.74666 2.13949,2.02461 0.74667,1.26359 0.74667,2.81436 0,1.30667 -0.45949,2.5559 -0.44513,1.23487 -1.45026,2.61333 -0.99077,1.3641 -2.62769,3.0441 -1.63692,1.66565 -4.00615,3.81949 h 9.00307 l -0.37333,2.58462 h -12.32 v -2.44103 q 2.67077,-2.57025 4.39385,-4.36513 1.73743,-1.79487 2.71384,-3.10153 0.99077,-1.30667 1.39282,-2.35488 0.40205,-1.06256 0.40205,-2.15384 0,-1.49334 -0.84718,-2.35487 -0.84718,-0.86154 -2.35487,-0.86154 -1.33538,0 -2.24,0.4882 -0.89025,0.48821 -1.76615,1.57949 l -2.09641,-1.59385 q 1.16307,-1.47897 2.67077,-2.26871 1.50769,-0.78975 3.66154,-0.78975 z" id="path47903"/><path d="m 312.81692,181.36966 q 0,1.43589 -0.83282,2.46974 -0.83282,1.03385 -2.46974,1.93846 1.96718,0.8759 3.02974,2.22564 1.06256,1.34975 1.06256,3.1159 0,1.59385 -0.83282,2.90051 -0.83282,1.29231 -2.4123,2.06769 -1.56513,0.76103 -3.80513,0.76103 -2.22564,0 -3.77641,-0.76103 -1.53641,-0.76102 -2.34052,-2.03897 -0.78974,-1.29231 -0.78974,-2.85744 0,-1.76615 1.04821,-3.02974 1.0482,-1.26359 2.8,-2.05333 -1.56513,-0.83282 -2.3118,-1.86667 -0.74667,-1.0482 -0.74667,-2.69949 0,-1.76615 0.90462,-2.94359 0.91897,-1.17743 2.34051,-1.76615 1.42154,-0.58872 2.95795,-0.58872 1.62257,0 3.02974,0.57436 1.40718,0.57436 2.26872,1.70872 0.8759,1.13436 0.8759,2.84308 z m -9.26154,0.18666 q 0,0.97641 0.44513,1.57949 0.44513,0.60308 1.29231,1.01949 0.84718,0.41641 2.05333,0.81846 1.23487,-0.74667 1.79487,-1.52205 0.56,-0.77539 0.56,-1.92411 0,-1.33538 -0.78974,-2.13948 -0.78974,-0.80411 -2.26872,-0.80411 -1.46461,0 -2.28308,0.77539 -0.8041,0.77538 -0.8041,2.19692 z m 6.76308,9.57744 q 0,-1.20616 -0.57436,-1.9241 -0.56,-0.71795 -1.62256,-1.20616 -1.06257,-0.4882 -2.54154,-1.00513 -1.09129,0.56 -1.86667,1.52205 -0.77538,0.96206 -0.77538,2.57026 0,1.52205 0.91897,2.42667 0.91897,0.89025 2.74256,0.89025 1.83795,0 2.77129,-0.94769 0.94769,-0.94769 0.94769,-2.32615 z" id="path47905"/><path d="m 329.38718,192.74196 q 0,0.90462 0.27282,1.30667 0.27282,0.40205 0.8759,0.60308 l -0.71795,2.18256 q -1.12,-0.12923 -1.93846,-0.61744 -0.8041,-0.4882 -1.20616,-1.47897 -0.83282,1.06256 -2.11076,1.59385 -1.27795,0.51692 -2.72821,0.51692 -2.31179,0 -3.64718,-1.29231 -1.33538,-1.30666 -1.33538,-3.41743 0,-2.39795 1.86666,-3.69026 1.86667,-1.29231 5.34154,-1.29231 h 2.16821 v -0.99077 q 0,-1.47897 -0.89026,-2.11077 -0.89026,-0.64615 -2.4841,-0.64615 -0.74667,0 -1.80923,0.20103 -1.06257,0.18666 -2.22564,0.58871 l -0.78975,-2.26871 q 1.42154,-0.53129 2.78564,-0.77539 1.36411,-0.25846 2.52718,-0.25846 3.04411,0 4.53744,1.34974 1.50769,1.34975 1.50769,3.73334 z m -6.57641,1.73744 q 0.97641,0 1.90974,-0.51692 0.93334,-0.51693 1.5077,-1.45026 v -3.34564 h -1.78052 q -2.26871,0 -3.24512,0.76102 -0.97641,0.74667 -0.97641,2.0677 0,2.4841 2.58461,2.4841 z" id="path47907"/><path d="m 340.28565,176.2435 q 2.01025,0 3.41743,0.76103 1.40718,0.74666 2.13949,2.02461 0.74667,1.26359 0.74667,2.81436 0,1.30667 -0.45949,2.5559 -0.44513,1.23487 -1.45026,2.61333 -0.99077,1.3641 -2.62769,3.0441 -1.63692,1.66565 -4.00615,3.81949 h 9.00307 l -0.37333,2.58462 h -12.32 v -2.44103 q 2.67077,-2.57025 4.39385,-4.36513 1.73743,-1.79487 2.71384,-3.10153 0.99077,-1.30667 1.39282,-2.35488 0.40205,-1.06256 0.40205,-2.15384 0,-1.49334 -0.84717,-2.35487 -0.84718,-0.86154 -2.35488,-0.86154 -1.33538,0 -2.24,0.4882 -0.89025,0.48821 -1.76615,1.57949 l -2.09641,-1.59385 q 1.16308,-1.47897 2.67077,-2.26871 1.50769,-0.78975 3.66154,-0.78975 z" id="path47909"/><path d="m 361.47953,174.85068 q 1.39282,0 2.4841,0.2441 1.10564,0.22975 2.03898,0.6318 l -0.9477,2.22564 q -0.76102,-0.3159 -1.59384,-0.45949 -0.81846,-0.14359 -1.66564,-0.14359 -2.92923,0 -2.92923,2.35487 v 2.68513 h 5.06871 l -0.34461,2.36923 h -4.7241 v 11.70257 h -3.20206 v -11.70257 h -3.44615 v -2.36923 h 3.44615 v -2.71384 q 0,-2.15385 1.59385,-3.48923 1.59385,-1.33539 4.22154,-1.33539 z" id="path47911"/><path d="m 375.32158,176.27222 q 3.38872,0 5.08308,2.19692 1.69436,2.18257 1.69436,5.82975 0,2.94359 -0.66051,5.06871 -0.64616,2.11077 -2.01026,3.58975 -1.34974,1.47897 -3.46051,2.4841 -2.09641,1.00513 -5.01128,1.72308 l -0.70359,-2.35487 q 3.90564,-1.04821 5.97333,-2.75693 2.06769,-1.72307 2.45538,-4.7959 -0.87589,0.9477 -1.95282,1.52206 -1.07692,0.57436 -2.4841,0.57436 -1.62256,0 -2.90051,-0.76103 -1.26359,-0.77539 -2.01026,-2.19692 -0.73231,-1.42154 -0.73231,-3.37436 0,-2.13949 0.89026,-3.64718 0.89026,-1.50769 2.41231,-2.29744 1.53641,-0.8041 3.41743,-0.8041 z m -3.44615,6.74872 q 0,2.09641 0.86154,3.01538 0.8759,0.91898 2.31179,0.91898 1.13436,0 2.02462,-0.53129 0.89026,-0.53128 1.69436,-1.47897 -0.0144,-3.31692 -0.8041,-4.76718 -0.77539,-1.46461 -2.65641,-1.46461 -1.66565,0 -2.5559,1.07692 -0.8759,1.07692 -0.8759,3.23077 z" id="path47913"/><path d="m 398.97082,181.36966 q 0,1.43589 -0.83282,2.46974 -0.83282,1.03385 -2.46974,1.93846 1.96718,0.8759 3.02974,2.22564 1.06256,1.34975 1.06256,3.1159 0,1.59385 -0.83282,2.90051 -0.83282,1.29231 -2.4123,2.06769 -1.56513,0.76103 -3.80513,0.76103 -2.22564,0 -3.77641,-0.76103 -1.53641,-0.76102 -2.34052,-2.03897 -0.78974,-1.29231 -0.78974,-2.85744 0,-1.76615 1.04821,-3.02974 1.0482,-1.26359 2.8,-2.05333 -1.56513,-0.83282 -2.3118,-1.86667 -0.74667,-1.0482 -0.74667,-2.69949 0,-1.76615 0.90462,-2.94359 0.91897,-1.17743 2.34051,-1.76615 1.42154,-0.58872 2.95795,-0.58872 1.62257,0 3.02974,0.57436 1.40718,0.57436 2.26872,1.70872 0.8759,1.13436 0.8759,2.84308 z m -9.26154,0.18666 q 0,0.97641 0.44513,1.57949 0.44513,0.60308 1.29231,1.01949 0.84718,0.41641 2.05333,0.81846 1.23487,-0.74667 1.79487,-1.52205 0.56,-0.77539 0.56,-1.92411 0,-1.33538 -0.78974,-2.13948 -0.78974,-0.80411 -2.26872,-0.80411 -1.46461,0 -2.28308,0.77539 -0.8041,0.77538 -0.8041,2.19692 z m 6.76308,9.57744 q 0,-1.20616 -0.57436,-1.9241 -0.56,-0.71795 -1.62256,-1.20616 -1.06257,-0.4882 -2.54154,-1.00513 -1.09129,0.56 -1.86667,1.52205 -0.77538,0.96206 -0.77538,2.57026 0,1.52205 0.91897,2.42667 0.91897,0.89025 2.74256,0.89025 1.83795,0 2.77129,-0.94769 0.94769,-0.94769 0.94769,-2.32615 z" id="path47915"/><path d="m 411.99445,186.40966 q 0,-2.77129 -0.6318,-4.8677 -0.61744,-2.09641 -1.9241,-3.90564 -1.30667,-1.82359 -3.31693,-3.76205 l 1.78052,-1.72308 q 2.31179,1.90975 3.96307,3.97744 1.66565,2.06769 2.5559,4.56615 0.89026,2.48411 0.89026,5.71488 0,3.23076 -0.89026,5.72923 -0.89025,2.4841 -2.5559,4.55179 -1.65128,2.06769 -3.96307,3.97744 l -1.78052,-1.72308 q 2.05334,-1.96718 3.34565,-3.79077 1.30666,-1.82359 1.90974,-3.90564 0.61744,-2.08205 0.61744,-4.83897 z" id="path47917"/><path d="m 30.921338,208.87427 q 0.947692,0 1.522051,0.57436 0.588718,0.57436 0.588718,1.4359 0,0.86154 -0.588718,1.45025 -0.574359,0.58872 -1.522051,0.58872 -0.918974,0 -1.507692,-0.58872 -0.588718,-0.58871 -0.588718,-1.45025 0,-0.86154 0.588718,-1.4359 0.588718,-0.57436 1.507692,-0.57436 z m 2.24,7.42359 v 12.80821 h 4.121026 v 2.35487 H 25.407492 v -2.35487 h 4.537436 v -10.45334 h -4.393846 v -2.35487 z" id="path47919"/><path d="m 51.325453,209.85068 q 1.392821,0 2.484103,0.2441 1.105641,0.22975 2.038974,0.6318 l -0.947692,2.22564 q -0.761026,-0.3159 -1.593847,-0.45949 -0.818461,-0.14359 -1.665641,-0.14359 -2.92923,0 -2.92923,2.35487 v 2.68513 h 5.068718 l -0.344616,2.36923 H 48.71212 v 11.70257 h -3.202052 v -11.70257 h -3.446153 v -2.36923 h 3.446153 v -2.71384 q 0,-2.15385 1.593847,-3.48923 1.593846,-1.33539 4.221538,-1.33539 z" id="path47921"/><path d="m 80.646503,221.40966 q 0,2.75692 0.603077,4.83897 0.617436,2.08205 1.909744,3.90564 1.306666,1.82359 3.36,3.79077 l -1.780513,1.72308 q -2.311795,-1.90975 -3.977436,-3.97744 -1.651282,-2.06769 -2.541538,-4.55179 -0.890257,-2.49847 -0.890257,-5.72923 0,-3.23077 0.890257,-5.71488 0.890256,-2.49846 2.541538,-4.56615 1.665641,-2.06769 3.977436,-3.97744 l 1.780513,1.72308 q -2.010257,1.93846 -3.316923,3.76205 -1.306667,1.80923 -1.938462,3.90564 -0.617436,2.09641 -0.617436,4.8677 z" id="path47923"/><path d="m 93.942926,231.46094 v -2.29744 h 2.225641 v -10.58256 h -2.225641 v -2.28308 h 4.681026 l 0.588717,3.51795 q 0.847181,-1.90974 2.096411,-2.90051 1.26359,-1.00513 3.24513,-1.00513 0.67487,0 1.20615,0.11487 0.54564,0.10051 1.07692,0.27282 l -0.54564,5.58564 h -2.29743 v -3.08718 q -1.60821,0.0574 -2.77128,1.29231 -1.16308,1.22051 -1.837953,3.44615 v 5.62872 h 3.058463 v 2.29744 z" id="path47925"/><path d="m 113.70089,224.91325 q 0.14359,2.34051 1.30666,3.38871 1.17744,1.04821 2.82872,1.04821 1.10564,0 2.05333,-0.34462 0.96206,-0.34461 1.92411,-0.97641 l 1.39282,1.92411 q -1.06257,0.86153 -2.4841,1.37846 -1.42154,0.51692 -3.04411,0.51692 -2.36923,0 -4.00615,-1.00513 -1.62257,-1.00513 -2.46974,-2.8 -0.83283,-1.79487 -0.83283,-4.14974 0,-2.28308 0.83283,-4.07795 0.83282,-1.80923 2.38359,-2.85744 1.55076,-1.06256 3.70461,-1.06256 3.01539,0 4.76718,2.02461 1.76615,2.02462 1.76615,5.55693 0,0.38769 -0.0287,0.77538 -0.0144,0.37334 -0.0431,0.66052 z m 3.61846,-6.63385 q -1.50769,0 -2.49846,1.07692 -0.99077,1.07693 -1.13436,3.36 h 7.02154 q -0.0431,-2.13949 -0.91898,-3.2882 -0.86154,-1.14872 -2.46974,-1.14872 z" id="path47927"/><path d="m 133.77475,229.37889 q 1.50769,0 2.39794,-0.53129 0.89026,-0.54564 0.89026,-1.49333 0,-0.61744 -0.25846,-1.0482 -0.25846,-0.43077 -1.03385,-0.80411 -0.77538,-0.37333 -2.35487,-0.77538 -1.49333,-0.38769 -2.62769,-0.91898 -1.12,-0.53128 -1.73744,-1.37846 -0.61743,-0.84718 -0.61743,-2.18256 0,-1.95282 1.62256,-3.14462 1.63692,-1.20615 4.43692,-1.20615 1.90975,0 3.33129,0.50256 1.42153,0.50257 2.42666,1.24923 l -1.34974,2.02462 q -0.89026,-0.58872 -1.95282,-0.96205 -1.04821,-0.37334 -2.36923,-0.37334 -1.53641,0 -2.21128,0.45949 -0.66052,0.45949 -0.66052,1.22051 0,0.57436 0.33026,0.9477 0.34461,0.37333 1.17744,0.70359 0.83282,0.33025 2.35487,0.74666 1.47897,0.40205 2.57025,0.9477 1.10564,0.54564 1.70872,1.45025 0.61744,0.89026 0.61744,2.32616 0,1.63692 -0.94769,2.68512 -0.9477,1.03385 -2.46975,1.53641 -1.52205,0.48821 -3.27384,0.48821 -2.11077,0 -3.64718,-0.60308 -1.53641,-0.61743 -2.58462,-1.53641 l 1.70872,-1.95282 q 0.89025,0.71795 2.03897,1.17744 1.14872,0.44513 2.48411,0.44513 z" id="path47929"/><path d="m 191.95734,218.37991 v 2.62769 h -29.12 v -2.62769 z m 0,5.6718 v 2.62769 h -29.12 v -2.62769 z" id="path47931"/><path d="m 220.4743,211.2435 q 3.33128,0 5.04,2.68513 1.70872,2.68513 1.70872,7.5959 0,4.93948 -1.70872,7.63897 -1.70872,2.68513 -5.04,2.68513 -3.33128,0 -5.04,-2.68513 -1.70872,-2.69949 -1.70872,-7.63897 0,-4.91077 1.70872,-7.5959 1.70872,-2.68513 5.04,-2.68513 z m 0,2.45539 q -1.70872,0 -2.62769,1.82359 -0.91897,1.80923 -0.91897,6.00205 0,3.05846 0.37333,4.76718 l 5.6,-11.42975 q -0.41641,-0.61743 -1.01949,-0.89025 -0.60308,-0.27282 -1.40718,-0.27282 z m 3.54667,7.82564 q 0,-2.74257 -0.30154,-4.37949 l -5.52821,11.28615 q 0.77539,0.96206 2.28308,0.96206 1.72308,0 2.62769,-1.80924 0.91898,-1.80923 0.91898,-6.05948 z" id="path47933"/><path d="m 239.68661,221.40966 q 0,-2.77129 -0.63179,-4.8677 -0.61744,-2.09641 -1.9241,-3.90564 -1.30667,-1.82359 -3.31693,-3.76205 l 1.78052,-1.72308 q 2.31179,1.90975 3.96307,3.97744 1.66564,2.06769 2.5559,4.56615 0.89026,2.48411 0.89026,5.71488 0,3.23076 -0.89026,5.72923 -0.89026,2.4841 -2.5559,4.55179 -1.65128,2.06769 -3.96307,3.97744 l -1.78052,-1.72308 q 2.05334,-1.96718 3.34564,-3.79077 1.30667,-1.82359 1.90975,-3.90564 0.61743,-2.08205 0.61743,-4.83897 z" id="path47935"/><path d="m 276.67536,207.42401 v 2.36924 q -1.47898,0 -2.42667,0.44512 -0.94769,0.44513 -0.81846,1.66564 l 0.53128,5.26975 q 0.21539,2.03897 -0.70359,3.00102 -0.91897,0.9477 -2.65641,1.23488 1.80923,0.30153 2.68513,1.22051 0.89026,0.90461 0.67487,3.01538 l -0.53128,5.26975 q -0.12923,1.23487 0.81846,1.66564 0.94769,0.44513 2.42667,0.44513 v 2.36923 q -1.9959,0 -3.47487,-0.43077 -1.46462,-0.43077 -2.21129,-1.47898 -0.7323,-1.0482 -0.53128,-2.87179 l 0.53128,-4.95385 q 0.15795,-1.52205 -0.77538,-2.24 -0.93333,-0.71795 -3.41744,-0.71795 v -2.58461 q 2.48411,0 3.41744,-0.70359 0.93333,-0.70359 0.77538,-2.24 l -0.53128,-4.95385 q -0.20102,-1.83795 0.53128,-2.88615 0.74667,-1.04821 2.21129,-1.47898 1.47897,-0.43077 3.47487,-0.43077 z" id="path47937"/><path d="m 59.481363,266.46094 v -2.29744 h 2.225641 v -10.58256 h -2.225641 v -2.28308 h 4.681025 l 0.588718,3.51795 q 0.84718,-1.90974 2.096411,-2.90051 1.263589,-1.00513 3.245128,-1.00513 0.674872,0 1.206154,0.11487 0.545641,0.10051 1.076923,0.27282 l -0.545641,5.58564 h -2.297436 v -3.08718 q -1.608205,0.0574 -2.771282,1.29231 -1.163077,1.22051 -1.837949,3.44615 v 5.62872 h 3.058462 v 2.29744 z" id="path47939"/><path d="m 79.239324,259.91325 q 0.14359,2.34051 1.306666,3.38871 1.177436,1.04821 2.828718,1.04821 1.105641,0 2.053334,-0.34462 0.962051,-0.34461 1.924102,-0.97641 l 1.392821,1.92411 q -1.062564,0.86153 -2.484103,1.37846 -1.421538,0.51692 -3.044102,0.51692 -2.369231,0 -4.006154,-1.00513 -1.622564,-1.00513 -2.469744,-2.8 -0.83282,-1.79487 -0.83282,-4.14974 0,-2.28308 0.83282,-4.07795 0.832821,-1.80923 2.38359,-2.85744 1.550769,-1.06256 3.704615,-1.06256 3.015385,0 4.76718,2.02461 1.766154,2.02462 1.766154,5.55693 0,0.38769 -0.02872,0.77538 -0.01436,0.37334 -0.04308,0.66052 z m 3.618461,-6.63385 q -1.507692,0 -2.498461,1.07692 -0.990769,1.07693 -1.134359,3.36 h 7.021538 q -0.04308,-2.13949 -0.918974,-3.2882 -0.861539,-1.14872 -2.469744,-1.14872 z" id="path47941"/><path d="m 106.46395,265.65683 q -0.83282,0.53129 -1.9959,0.86154 -1.16307,0.33026 -2.42666,0.33026 -2.642054,0 -4.020515,-1.3641 -1.364103,-1.37846 -1.364103,-3.61846 v -8.2277 h -3.374359 v -2.34051 h 3.374359 v -3.38872 l 3.21641,-0.38769 v 3.77641 h 5.111798 l -0.35898,2.34051 h -4.752818 v 8.19898 q 0,1.22051 0.603078,1.82359 0.61744,0.58872 2.01026,0.58872 0.83282,0 1.52205,-0.20103 0.70359,-0.20103 1.2923,-0.51692 z" id="path47943"/><path d="m 114.24653,251.29786 v 10.59692 q 0,1.34975 0.53128,1.92411 0.54564,0.57436 1.63692,0.57436 1.03385,0 1.9959,-0.61744 0.96205,-0.61744 1.52205,-1.50769 v -10.97026 h 3.21641 v 15.16308 h -2.77128 l -0.20103,-1.93846 q -0.84718,1.13435 -2.13948,1.73743 -1.29231,0.58872 -2.64205,0.58872 -2.21129,0 -3.28821,-1.20615 -1.07692,-1.22052 -1.07692,-3.34565 v -10.99897 z" id="path47945"/><path d="m 128.40449,266.46094 v -2.29744 h 2.22564 v -10.58256 h -2.22564 v -2.28308 h 4.68102 l 0.58872,3.51795 q 0.84718,-1.90974 2.09641,-2.90051 1.26359,-1.00513 3.24513,-1.00513 0.67487,0 1.20615,0.11487 0.54565,0.10051 1.07693,0.27282 l -0.54564,5.58564 h -2.29744 v -3.08718 q -1.6082,0.0574 -2.77128,1.29231 -1.16308,1.22051 -1.83795,3.44615 v 5.62872 h 3.05846 v 2.29744 z" id="path47947"/><path d="m 145.49168,266.46094 v -15.16308 h 2.77128 l 0.24411,1.96718 q 0.94769,-1.14872 2.24,-1.75179 1.2923,-0.61744 2.65641,-0.61744 2.12512,0 3.17333,1.19179 1.06256,1.1918 1.06256,3.31693 v 11.05641 h -3.21641 v -9.46257 q 0,-1.96718 -0.40205,-2.8 -0.38769,-0.84718 -1.76615,-0.84718 -1.10564,0 -2.02462,0.68923 -0.90461,0.67488 -1.52205,1.53641 v 10.88411 z" id="path47949"/><path d="m 192.61785,265.65683 q -0.83282,0.53129 -1.9959,0.86154 -1.16307,0.33026 -2.42666,0.33026 -2.64205,0 -4.02052,-1.3641 -1.3641,-1.37846 -1.3641,-3.61846 v -8.2277 h -3.37436 v -2.34051 h 3.37436 v -3.38872 l 3.21641,-0.38769 v 3.77641 h 5.1118 l -0.35898,2.34051 h -4.75282 v 8.19898 q 0,1.22051 0.60308,1.82359 0.61744,0.58872 2.01026,0.58872 0.83282,0 1.52205,-0.20103 0.70359,-0.20103 1.2923,-0.51692 z" id="path47951"/><path d="m 197.32762,266.46094 v -2.29744 h 2.22564 v -10.58256 h -2.22564 v -2.28308 h 4.68102 l 0.58872,3.51795 q 0.84718,-1.90974 2.09641,-2.90051 1.26359,-1.00513 3.24513,-1.00513 0.67487,0 1.20615,0.11487 0.54564,0.10051 1.07692,0.27282 l -0.54564,5.58564 h -2.29743 v -3.08718 q -1.60821,0.0574 -2.77128,1.29231 -1.16308,1.22051 -1.83795,3.44615 v 5.62872 h 3.05846 v 2.29744 z" id="path47953"/><path d="m 217.63122,251.29786 v 10.59692 q 0,1.34975 0.53129,1.92411 0.54564,0.57436 1.63692,0.57436 1.03385,0 1.9959,-0.61744 0.96205,-0.61744 1.52205,-1.50769 v -10.97026 h 3.21641 v 15.16308 h -2.77128 l -0.20103,-1.93846 q -0.84718,1.13435 -2.13949,1.73743 -1.2923,0.58872 -2.64205,0.58872 -2.21128,0 -3.2882,-1.20615 -1.07693,-1.22052 -1.07693,-3.34565 v -10.99897 z" id="path47955"/><path d="m 234.31636,259.91325 q 0.14359,2.34051 1.30666,3.38871 1.17744,1.04821 2.82872,1.04821 1.10564,0 2.05334,-0.34462 0.96205,-0.34461 1.9241,-0.97641 l 1.39282,1.92411 q -1.06257,0.86153 -2.4841,1.37846 -1.42154,0.51692 -3.04411,0.51692 -2.36923,0 -4.00615,-1.00513 -1.62256,-1.00513 -2.46974,-2.8 -0.83282,-1.79487 -0.83282,-4.14974 0,-2.28308 0.83282,-4.07795 0.83282,-1.80923 2.38359,-2.85744 1.55077,-1.06256 3.70461,-1.06256 3.01539,0 4.76718,2.02461 1.76615,2.02462 1.76615,5.55693 0,0.38769 -0.0287,0.77538 -0.0144,0.37334 -0.0431,0.66052 z m 3.61846,-6.63385 q -1.50769,0 -2.49846,1.07692 -0.99077,1.07693 -1.13436,3.36 h 7.02154 q -0.0431,-2.13949 -0.91898,-3.2882 -0.86154,-1.14872 -2.46974,-1.14872 z" id="path47957"/><path d="m 254.92149,251.48453 q 1.09128,0 1.83795,0.76102 0.74667,0.74667 0.74667,1.80923 0,1.06257 -0.74667,1.83795 -0.74667,0.76103 -1.83795,0.76103 -1.09128,0 -1.83795,-0.76103 -0.74666,-0.77538 -0.74666,-1.83795 0,-1.06256 0.74666,-1.80923 0.74667,-0.76102 1.83795,-0.76102 z m 0,9.87897 q 1.10564,0 1.83795,0.74667 0.74667,0.74666 0.74667,1.82359 0,0.63179 -0.20103,1.27795 -0.18667,0.64615 -0.60308,1.57948 l -2.19692,5.02564 h -2.46974 l 1.37846,-5.75794 q -1.07692,-0.74667 -1.07692,-2.13949 0,-1.06257 0.74666,-1.80923 0.74667,-0.74667 1.83795,-0.74667 z" id="path47959"/><path d="m 26.426979,277.42401 q 1.995898,0 3.460513,0.43077 1.478974,0.43077 2.211282,1.47898 0.746667,1.0482 0.545641,2.87179 l -0.531282,4.96821 q -0.157949,1.53641 0.847179,2.24 1.005129,0.70359 3.345642,0.70359 v 2.58461 q -2.326154,0 -3.345642,0.71795 -1.005128,0.71795 -0.847179,2.24 l 0.531282,4.93949 q 0.201026,1.83795 -0.545641,2.88615 -0.732308,1.04821 -2.211282,1.47898 -1.464615,0.43077 -3.460513,0.43077 v -2.36923 q 1.478975,0 2.426667,-0.44513 0.947692,-0.43077 0.818461,-1.66564 l -0.531282,-5.26975 q -0.215384,-2.11077 0.70359,-3.01538 0.933333,-0.91898 2.857436,-1.20616 -1.938462,-0.30153 -2.857436,-1.24923 -0.918974,-0.96205 -0.70359,-3.00102 l 0.531282,-5.26975 q 0.129231,-1.22051 -0.818461,-1.66564 -0.947692,-0.44512 -2.426667,-0.44512 z" id="path47961"/></g></g></g></g></svg>