<?xml version="1.0" encoding="UTF-8" standalone="no"?>
<svg
   width="903.961"
   height="569.15997"
   viewBox="0 0 239.17329 150.59024"
   version="1.1"
   id="svg5"
   sodipodi:docname="basic-block-duplicate-1.svg"
   xml:space="preserve"
   inkscape:version="1.4.2 (ebf0e94, 2025-05-08)"
   xmlns:inkscape="http://www.inkscape.org/namespaces/inkscape"
   xmlns:sodipodi="http://sodipodi.sourceforge.net/DTD/sodipodi-0.dtd"
   xmlns="http://www.w3.org/2000/svg"
   xmlns:svg="http://www.w3.org/2000/svg"><sodipodi:namedview
     id="namedview7"
     pagecolor="#ffffff"
     bordercolor="#000000"
     borderopacity="0.25"
     showgrid="true"
     inkscape:showpageshadow="2"
     inkscape:pageopacity="0.0"
     inkscape:pagecheckerboard="0"
     inkscape:deskcolor="#d1d1d1"
     inkscape:zoom="1.4459907"
     inkscape:cx="475.45259"
     inkscape:cy="182.91958"
     inkscape:window-width="3426"
     inkscape:window-height="1383"
     inkscape:window-x="4"
     inkscape:window-y="50"
     inkscape:window-maximized="1"
     inkscape:current-layer="g26287"><inkscape:grid
       id="grid1"
       units="px"
       originx="0"
       originy="0"
       spacingx="0.26458364"
       spacingy="0.26458333"
       empcolor="#0099e5"
       empopacity="0.30196078"
       color="#0099e5"
       opacity="0.14901961"
       empspacing="5"
       enabled="true"
       visible="true" /></sodipodi:namedview><defs
     id="defs2"><rect
       x="-10"
       y="609.99998"
       width="1280"
       height="229.99999"
       id="rect2" /><rect
       x="11.160988"
       y="55.800269"
       width="881.63798"
       height="360.52331"
       id="rect1" /><rect
       x="22.319974"
       y="66.960001"
       width="848.15902"
       height="479.88001"
       id="rect2499" /><rect
       x="33.479961"
       y="89.280002"
       width="948.59887"
       height="435.23999"
       id="rect42149" /><rect
       x="55.799999"
       y="55.799999"
       width="892.79999"
       height="502.20001"
       id="rect20415" /></defs><g
     id="layer1"><g
       id="g26287"
       transform="matrix(0.26458333,0,0,0.26458333,151.03674,16.444252)"><g
         id="g26211"
         transform="translate(-559.68753,-50.991504)"
         style="display:inline">
	<path
   style="fill:#e6e6e6;fill-opacity:1"
   d="M 850.74201,546.84001 H 30.897 C 13.833,546.84001 0,533.00701 0,515.94301 V 42.057 C 0,24.993 13.833,11.16 30.897,11.16 h 819.84601 c 17.064,0 30.897,13.833 30.897,30.897 v 473.88601 c -10e-4,17.064 -13.834,30.897 -30.898,30.897 z"
   id="path26201"
   sodipodi:nodetypes="ssssssscs" />
	<path
   style="fill:#434141;fill-opacity:1"
   d="M 881.64001,44.64 H 0.0010028 L 0,30.897 C -0.00124512,13.833 13.833,0 30.897,0 h 819.84601 c 17.063,0 30.896,13.833 30.896,30.897 z"
   id="path26203"
   sodipodi:nodetypes="ccssssc" />
	
	
	
<path
   d="m -8.672,625.24119 v -1.44 h 3.088 v -5.92 h -2.768 v -1.44 H -4 v 7.36 h 2.896 v 1.44 z m 3.728,-10.352 q -0.544,0 -0.864,-0.272 -0.32,-0.288 -0.32,-0.768 0,-0.496 0.32,-0.784 0.32,-0.288 0.864,-0.288 0.544,0 0.864,0.288 0.32,0.288 0.32,0.784 0,0.48 -0.32,0.768 -0.32,0.272 -0.864,0.272 z m 5.9519756,10.352 v -8.8 h 1.568 v 1.68 h 0.016 q 0.112,-0.864 0.72,-1.344 0.624,-0.496 1.632,-0.496 1.312,0 2.096,0.832 0.784,0.832 0.784,2.24 v 5.888 h -1.584 v -5.632 q 0,-0.96 -0.48,-1.472 -0.48,-0.512 -1.312,-0.512 -0.864,0 -1.36,0.544 -0.496,0.528 -0.496,1.488 v 5.584 z m 13.8719754,0 q -1.136,0 -1.808,-0.656 -0.656,-0.656 -0.656,-1.744 v -4.96 H 9.9039512 v -1.44 h 2.5119998 v -2.48 h 1.584 v 2.48 h 3.568 v 1.44 h -3.568 v 4.944 q 0,0.432 0.24,0.704 0.256,0.272 0.672,0.272 h 2.576 v 1.44 z m 14.431951,0 v -8.8 h 1.344 v 1.2 h 0.048 q 0.064,-0.608 0.448,-0.976 0.4,-0.384 1.008,-0.384 0.592,0 0.992,0.352 0.4,0.352 0.576,0.944 v 0 q 0.096,-0.608 0.496,-0.944 0.4,-0.352 1.008,-0.352 0.832,0 1.344,0.64 0.512,0.624 0.512,1.632 v 6.688 h -1.44 v -6.672 q 0,-0.496 -0.256,-0.784 -0.24,-0.304 -0.656,-0.304 -0.416,0 -0.656,0.288 -0.24,0.288 -0.24,0.8 v 6.672 h -1.28 v -6.672 q 0,-0.496 -0.24,-0.784 -0.24,-0.304 -0.656,-0.304 -0.416,0 -0.672,0.288 -0.24,0.288 -0.24,0.8 v 6.672 z m 11.487976,2.88 1.28,-3.408 -3.28,-8.272 h 1.68 l 1.984,5.2 q 0.128,0.336 0.256,0.72 0.128,0.384 0.176,0.672 0.048,-0.288 0.16,-0.672 0.112,-0.384 0.24,-0.72 l 1.84,-5.2 h 1.68 l -4.368,11.68 z m 7.759976,-1.12 v -1.36 h 7.68 v 1.36 z m 12.015975,-1.76 v -6.16 h -2.528 v -1.44 h 2.528 v -1.776 q 0,-1.056 0.688,-1.68 0.688,-0.624 1.872,-0.624 h 2.576 v 1.424 h -2.576 q -0.976,0 -0.976,0.896 v 1.76 h 3.552 v 1.44 h -3.552 v 6.16 z m 11.007976,0.16 q -1.552,0 -2.48,-0.912 -0.928,-0.912 -0.928,-2.48 v -5.568 h 1.584 v 5.568 q 0,0.928 0.48,1.472 0.496,0.528 1.344,0.528 0.864,0 1.36,-0.528 0.496,-0.544 0.496,-1.472 v -5.568 h 1.584 v 5.568 q 0,1.568 -0.944,2.48 -0.928,0.912 -2.496,0.912 z m 6.223975,-0.16 v -8.8 h 1.568 v 1.68 h 0.016 q 0.112,-0.864 0.72,-1.344 0.624,-0.496 1.632,-0.496 1.312,0 2.096,0.832 0.784,0.832 0.784,2.24 v 5.888 h -1.584 v -5.632 q 0,-0.96 -0.48,-1.472 -0.48,-0.512 -1.312,-0.512 -0.864,0 -1.36,0.544 -0.496,0.528 -0.496,1.488 v 5.584 z m 13.119976,0.16 q -1.616,0 -2.592,-0.896 -0.976,-0.912 -0.976,-2.496 v -2.352 q 0,-1.568 0.976,-2.464 0.976,-0.912 2.592,-0.912 1.552,0 2.496,0.832 0.96,0.816 1.008,2.24 h -1.568 q -0.048,-0.8 -0.576,-1.232 -0.512,-0.448 -1.36,-0.448 -0.912,0 -1.456,0.528 -0.528,0.512 -0.528,1.456 v 2.352 q 0,0.96 0.528,1.472 0.544,0.512 1.456,0.512 0.864,0 1.376,-0.432 0.512,-0.432 0.56,-1.232 h 1.568 q -0.048,1.424 -1.008,2.256 -0.944,0.816 -2.496,0.816 z m 10.351974,-0.16 q -1.136,0 -1.807999,-0.656 -0.656,-0.656 -0.656,-1.744 v -4.96 h -2.512 v -1.44 h 2.512 v -2.48 h 1.583999 v 2.48 h 3.568 v 1.44 h -3.568 v 4.944 q 0,0.432 0.24,0.704 0.256,0.272 0.672,0.272 h 2.576 v 1.44 z m 5.24798,0 v -1.44 h 3.088 v -5.92 h -2.768 v -1.44 h 4.352 v 7.36 h 2.896 v 1.44 z m 3.728,-10.352 q -0.544,0 -0.864,-0.272 -0.32,-0.288 -0.32,-0.768 0,-0.496 0.32,-0.784 0.32,-0.288 0.864,-0.288 0.544,0 0.864,0.288 0.32,0.288 0.32,0.784 0,0.48 -0.32,0.768 -0.32,0.272 -0.864,0.272 z m 9.34397,10.48 q -1.616,0 -2.576,-0.928 -0.944,-0.928 -0.944,-2.592 v -2.016 q 0,-1.664 0.944,-2.592 0.96,-0.928 2.576,-0.928 1.616,0 2.56,0.928 0.96,0.928 0.96,2.592 v 2.016 q 0,1.664 -0.96,2.592 -0.944,0.928 -2.56,0.928 z m 0,-1.392 q 0.896,0 1.408,-0.496 0.528,-0.512 0.528,-1.488 v -2.304 q 0,-0.976 -0.528,-1.472 -0.512,-0.512 -1.408,-0.512 -0.896,0 -1.424,0.512 -0.512,0.496 -0.512,1.472 v 2.304 q 0,0.976 0.512,1.488 0.528,0.496 1.424,0.496 z m 6.20798,1.264 v -8.8 h 1.568 v 1.68 h 0.016 q 0.112,-0.864 0.72,-1.344 0.624,-0.496 1.632,-0.496 1.312,0 2.096,0.832 0.784,0.832 0.784,2.24 v 5.888 h -1.584 v -5.632 q 0,-0.96 -0.48,-1.472 -0.48,-0.512 -1.312,-0.512 -0.864,0 -1.36,0.544 -0.496,0.528 -0.496,1.488 v 5.584 z m 15.95197,1.92 q -2.32,-0.528 -3.6,-2.16 -1.264,-1.632 -1.264,-4.08 v -2.88 q 0,-2.448 1.264,-4.08 1.28,-1.632 3.6,-2.16 v 1.536 q -1.008,0.24 -1.744,0.896 -0.736,0.64 -1.136,1.616 -0.4,0.976 -0.4,2.192 v 2.88 q 0,1.2 0.4,2.176 0.4,0.976 1.136,1.632 0.736,0.64 1.744,0.88 z m 3.16798,-1.92 v -1.44 h 3.088 v -5.92 h -2.768 v -1.44 h 4.352 v 7.36 h 2.896 v 1.44 z m 3.728,-10.352 q -0.544,0 -0.864,-0.272 -0.32,-0.288 -0.32,-0.768 0,-0.496 0.32,-0.784 0.32,-0.288 0.864,-0.288 0.544,0 0.864,0.288 0.32,0.288 0.32,0.784 0,0.48 -0.32,0.768 -0.32,0.272 -0.864,0.272 z m 5.95197,10.352 v -8.8 h 1.568 v 1.68 h 0.016 q 0.112,-0.864 0.72,-1.344 0.624,-0.496 1.632,-0.496 1.312,0 2.096,0.832 0.784,0.832 0.784,2.24 v 5.888 h -1.584 v -5.632 q 0,-0.96 -0.48,-1.472 -0.48,-0.512 -1.312,-0.512 -0.864,0 -1.36,0.544 -0.496,0.528 -0.496,1.488 v 5.584 z m 13.87198,0 q -1.136,0 -1.808,-0.656 -0.656,-0.656 -0.656,-1.744 v -4.96 h -2.512 v -1.44 h 2.512 v -2.48 h 1.584 v 2.48 h 3.568 v 1.44 h -3.568 v 4.944 q 0,0.432 0.24,0.704 0.256,0.272 0.672,0.272 h 2.576 v 1.44 z m 17.50395,0.16 q -1.36,0 -2.16,-0.752 -0.784,-0.768 -0.784,-2 0,-1.232 0.816,-1.984 0.832,-0.752 2.176,-0.752 h 2.576 v -0.672 q 0,-1.616 -1.792,-1.616 -0.8,0 -1.296,0.304 -0.48,0.288 -0.512,0.816 h -1.568 q 0.08,-1.072 0.976,-1.76 0.896,-0.704 2.4,-0.704 1.616,0 2.496,0.768 0.88,0.768 0.88,2.16 v 6.032 h -1.552 v -1.616 h -0.032 q -0.112,0.816 -0.816,1.296 -0.688,0.48 -1.808,0.48 z m 0.416,-1.328 q 1.008,0 1.6,-0.48 0.608,-0.496 0.608,-1.344 v -1.168 h -2.432 q -0.688,0 -1.12,0.416 -0.416,0.4 -0.416,1.072 0,0.688 0.464,1.104 0.464,0.4 1.296,0.4 z m 8.47998,3.728 0.864,-4.896 h 1.872 l -1.136,4.896 z m 17.24795,-2.56 v -1.44 h 3.088 v -5.92 h -2.768 v -1.44 h 4.352 v 7.36 h 2.896 v 1.44 z m 3.728,-10.352 q -0.544,0 -0.864,-0.272 -0.32,-0.288 -0.32,-0.768 0,-0.496 0.32,-0.784 0.32,-0.288 0.864,-0.288 0.544,0 0.864,0.288 0.32,0.288 0.32,0.784 0,0.48 -0.32,0.768 -0.32,0.272 -0.864,0.272 z m 5.95197,10.352 v -8.8 h 1.568 v 1.68 h 0.016 q 0.112,-0.864 0.72,-1.344 0.624,-0.496 1.632,-0.496 1.312,0 2.096,0.832 0.784,0.832 0.784,2.24 v 5.888 h -1.584 v -5.632 q 0,-0.96 -0.48,-1.472 -0.48,-0.512 -1.312,-0.512 -0.864,0 -1.36,0.544 -0.496,0.528 -0.496,1.488 v 5.584 z m 13.87198,0 q -1.136,0 -1.808,-0.656 -0.656,-0.656 -0.656,-1.744 v -4.96 h -2.512 v -1.44 h 2.512 v -2.48 h 1.584 v 2.48 h 3.568 v 1.44 h -3.568 v 4.944 q 0,0.432 0.24,0.704 0.256,0.272 0.672,0.272 h 2.576 v 1.44 z m 18.91195,0.16 q -0.992,0 -1.632,-0.496 -0.64,-0.496 -0.784,-1.376 v 0 1.712 h -1.568 v -11.68 h 1.584 v 2.528 l -0.032,2.048 v 0 q 0.144,-0.864 0.784,-1.36 0.656,-0.496 1.648,-0.496 1.312,0 2.096,0.896 0.784,0.88 0.784,2.4 v 2.528 q 0,1.52 -0.784,2.416 -0.784,0.88 -2.096,0.88 z m -0.56,-1.376 q 0.88,0 1.36,-0.448 0.496,-0.464 0.496,-1.488 v -2.496 q 0,-1.024 -0.496,-1.472 -0.48,-0.464 -1.36,-0.464 -0.848,0 -1.344,0.528 -0.496,0.528 -0.496,1.488 v 2.336 q 0,0.96 0.496,1.488 0.496,0.528 1.344,0.528 z m 6.60798,3.136 v -1.552 q 1.008,-0.24 1.744,-0.88 0.736,-0.656 1.136,-1.632 0.416,-0.976 0.416,-2.176 v -2.88 q 0,-1.216 -0.416,-2.192 -0.4,-0.976 -1.136,-1.616 -0.736,-0.656 -1.744,-0.896 v -1.536 q 2.32,0.528 3.6,2.16 1.28,1.632 1.28,4.08 v 2.88 q 0,2.448 -1.28,4.08 -1.28,1.632 -3.6,2.16 z m 24.65595,-0.16 q -1.424,0 -2.256,-0.72 -0.816,-0.704 -0.704,-1.984 l 0.24,-2.576 q 0.08,-0.8 -0.24,-1.152 -0.304,-0.368 -1.264,-0.368 h -1.888 v -1.424 h 1.888 q 0.96,0 1.264,-0.368 0.32,-0.368 0.24,-1.168 l -0.24,-2.592 q -0.112,-1.264 0.704,-1.968 0.832,-0.72 2.256,-0.72 h 0.816 v 1.424 h -0.752 q -0.72,0 -1.104,0.336 -0.384,0.336 -0.336,0.976 l 0.24,2.592 q 0.096,0.912 -0.432,1.472 -0.528,0.56 -1.664,0.672 1.136,0.128 1.664,0.736 0.528,0.608 0.432,1.504 l -0.24,2.592 q -0.048,0.64 0.336,0.976 0.384,0.336 1.104,0.336 h 0.752 v 1.424 z M 10.527951,646.99631 v -1.44 h 3.088 v -5.92 h -2.768 v -1.44 h 4.352 v 7.36 h 2.896 v 1.44 z m 3.728,-10.352 q -0.544,0 -0.864,-0.272 -0.32,-0.288 -0.32,-0.768 0,-0.496 0.32,-0.784 0.32,-0.288 0.864,-0.288 0.544,0 0.864,0.288 0.32,0.288 0.32,0.784 0,0.48 -0.32,0.768 -0.32,0.272 -0.864,0.272 z m 5.951976,10.352 v -8.8 h 1.568 v 1.68 h 0.016 q 0.112,-0.864 0.72,-1.344 0.624,-0.496 1.632,-0.496 1.312,0 2.096,0.832 0.784,0.832 0.784,2.24 v 5.888 h -1.584 v -5.632 q 0,-0.96 -0.48,-1.472 -0.48,-0.512 -1.312,-0.512 -0.864,0 -1.36,0.544 -0.496,0.528 -0.496,1.488 v 5.584 z m 13.871975,0 q -1.136,0 -1.808,-0.656 -0.656,-0.656 -0.656,-1.744 v -4.96 h -2.512 v -1.44 h 2.512 v -2.48 h 1.584 v 2.48 h 3.568 v 1.44 h -3.568 v 4.944 q 0,0.432 0.24,0.704 0.256,0.272 0.672,0.272 h 2.576 v 1.44 z m 14.255952,0 3.12,-4.528 -2.912,-4.272 h 1.84 l 1.648,2.576 q 0.112,0.192 0.208,0.4 0.112,0.208 0.176,0.336 0.048,-0.128 0.144,-0.336 0.112,-0.208 0.224,-0.4 l 1.648,-2.576 h 1.84 l -2.912,4.288 3.104,4.512 h -1.856 l -1.792,-2.768 q -0.112,-0.176 -0.224,-0.4 -0.112,-0.24 -0.176,-0.384 -0.08,0.144 -0.192,0.384 -0.112,0.224 -0.24,0.4 l -1.792,2.768 z m 19.807951,-6.496 v -1.424 h 6.912 v 1.424 z m 0,3.856 v -1.424 h 6.912 v 1.424 z m 21.839951,2.8 q -1.36,0 -2.16,-0.752 -0.784,-0.768 -0.784,-2 0,-1.232 0.816,-1.984 0.832,-0.752 2.176,-0.752 h 2.576 v -0.672 q 0,-1.616 -1.792,-1.616 -0.8,0 -1.296,0.304 -0.48,0.288 -0.512,0.816 h -1.568 q 0.08,-1.072 0.976,-1.76 0.896,-0.704 2.4,-0.704 1.616,0 2.496,0.768 0.88,0.768 0.88,2.16 v 6.032 h -1.552 v -1.616 h -0.032 q -0.112,0.816 -0.816,1.296 -0.688,0.48 -1.808,0.48 z m 0.416,-1.328 q 1.008,0 1.6,-0.48 0.608,-0.496 0.608,-1.344 v -1.168 h -2.432 q -0.688,0 -1.12,0.416 -0.416,0.4 -0.416,1.072 0,0.688 0.464,1.104 0.464,0.4 1.296,0.4 z m 18.815954,-0.336 v -3.072 h -2.992 v -1.424 h 2.992 v -3.056 h 1.568 v 3.056 h 3.008 v 1.424 h -3.008 v 3.072 z m 20.57595,1.664 q -0.992,0 -1.632,-0.496 -0.64,-0.496 -0.784,-1.376 v 0 1.712 h -1.568 v -11.68 h 1.584 v 2.528 l -0.032,2.048 v 0 q 0.144,-0.864 0.784,-1.36 0.656,-0.496 1.648,-0.496 1.312,0 2.096,0.896 0.784,0.88 0.784,2.4 v 2.528 q 0,1.52 -0.784,2.416 -0.784,0.88 -2.096,0.88 z m -0.56,-1.376 q 0.88,0 1.36,-0.448 0.496,-0.464 0.496,-1.488 v -2.496 q 0,-1.024 -0.496,-1.472 -0.48,-0.464 -1.36,-0.464 -0.848,0 -1.344,0.528 -0.496,0.528 -0.496,1.488 v 2.336 q 0,0.96 0.496,1.488 0.496,0.528 1.344,0.528 z m 9.40797,-5.28 q -0.544,0 -0.896,-0.336 -0.336,-0.352 -0.336,-0.896 0,-0.528 0.352,-0.88 0.352,-0.352 0.88,-0.352 h 0.32 q 0.528,0 0.88,0.352 0.352,0.352 0.352,0.88 0,0.544 -0.352,0.896 -0.336,0.336 -0.88,0.336 z m -1.44,9.056 0.864,-4.896 h 1.872 l -1.136,4.896 z M 10.927951,668.75144 v -8.8 h 1.568 v 1.696 h 0.016 q 0.128,-0.864 0.736,-1.36 0.624,-0.496 1.648,-0.496 1.36,0 2.112,0.848 0.752,0.832 0.752,2.352 v 0.768 h -1.584 v -0.752 q 0,-1.84 -1.808,-1.84 -0.912,0 -1.392,0.528 -0.464,0.528 -0.464,1.504 v 5.552 z m 12.671976,0.16 q -1.584,0 -2.56,-0.944 -0.96,-0.944 -0.96,-2.576 v -2.08 q 0,-1.632 0.96,-2.576 0.976,-0.944 2.56,-0.944 1.056,0 1.84,0.432 0.8,0.416 1.232,1.184 0.448,0.752 0.448,1.76 v 1.584 h -5.488 v 0.768 q 0,0.96 0.528,1.504 0.528,0.544 1.44,0.544 0.768,0 1.264,-0.288 0.496,-0.288 0.592,-0.8 h 1.584 q -0.16,1.12 -1.104,1.776 -0.944,0.656 -2.336,0.656 z m -1.968,-5.744 v 0.416 h 3.936 v -0.416 q 0,-1.008 -0.512,-1.552 -0.512,-0.544 -1.456,-0.544 -0.944,0 -1.456,0.544 -0.512,0.544 -0.512,1.552 z m 12.447975,5.584 q -1.136,0 -1.808,-0.656 -0.656,-0.656 -0.656,-1.744 v -4.96 h -2.512 v -1.44 h 2.512 v -2.48 h 1.584 v 2.48 h 3.568 v 1.44 h -3.568 v 4.944 q 0,0.432 0.24,0.704 0.256,0.272 0.672,0.272 h 2.576 v 1.44 z m 8.703976,0.16 q -1.552,0 -2.48,-0.912 -0.928,-0.912 -0.928,-2.48 v -5.568 h 1.584 v 5.568 q 0,0.928 0.48,1.472 0.496,0.528 1.344,0.528 0.864,0 1.36,-0.528 0.496,-0.544 0.496,-1.472 v -5.568 h 1.584 v 5.568 q 0,1.568 -0.944,2.48 -0.928,0.912 -2.496,0.912 z m 6.543976,-0.16 v -8.8 h 1.568 v 1.696 h 0.016 q 0.128,-0.864 0.736,-1.36 0.624,-0.496 1.648,-0.496 1.36,0 2.112,0.848 0.752,0.832 0.752,2.352 v 0.768 h -1.584 v -0.752 q 0,-1.84 -1.808,-1.84 -0.912,0 -1.392,0.528 -0.464,0.528 -0.464,1.504 v 5.552 z m 9.279975,0 v -8.8 h 1.568 v 1.68 h 0.016 q 0.112,-0.864 0.72,-1.344 0.624,-0.496 1.632,-0.496 1.312,0 2.096,0.832 0.784,0.832 0.784,2.24 v 5.888 h -1.584 v -5.632 q 0,-0.96 -0.48,-1.472 -0.48,-0.512 -1.312,-0.512 -0.864,0 -1.36,0.544 -0.496,0.528 -0.496,1.488 v 5.584 z m 18.527951,0 3.12,-4.528 -2.912,-4.272 h 1.84 l 1.648,2.576 q 0.112,0.192 0.208,0.4 0.112,0.208 0.176,0.336 0.048,-0.128 0.144,-0.336 0.112,-0.208 0.224,-0.4 l 1.648,-2.576 h 1.84 l -2.912,4.288 3.104,4.512 h -1.856 l -1.792,-2.768 q -0.112,-0.176 -0.224,-0.4 -0.112,-0.24 -0.176,-0.384 -0.08,0.144 -0.192,0.384 -0.112,0.224 -0.24,0.4 l -1.792,2.768 z m 13.503976,-6.496 q -0.544,0 -0.896,-0.336 -0.336,-0.352 -0.336,-0.896 0,-0.528 0.352,-0.88 0.352,-0.352 0.88,-0.352 h 0.32 q 0.528,0 0.88,0.352 0.352,0.352 0.352,0.88 0,0.544 -0.352,0.896 -0.336,0.336 -0.88,0.336 z m -1.44,9.056 0.864,-4.896 h 1.872 l -1.136,4.896 z M -8.496,692.26657 v -1.424 h 0.736 q 0.72,0 1.12,-0.336 0.416,-0.336 0.32,-0.976 l -0.384,-2.592 q -0.128,-0.88 0.336,-1.488 0.48,-0.624 1.296,-0.768 -0.832,-0.144 -1.296,-0.688 -0.464,-0.544 -0.336,-1.44 l 0.384,-2.592 q 0.096,-0.64 -0.32,-0.976 -0.4,-0.336 -1.12,-0.336 h -0.736 v -1.424 h 0.816 q 0.928,0 1.632,0.32 0.72,0.32 1.072,0.928 0.352,0.592 0.24,1.44 l -0.384,2.592 q -0.112,0.8 0.208,1.168 0.336,0.368 1.296,0.368 h 2.048 v 1.424 h -2.048 q -0.944,0 -1.28,0.368 -0.336,0.352 -0.224,1.152 l 0.384,2.576 q 0.112,0.848 -0.24,1.456 -0.352,0.608 -1.056,0.928 -0.704,0.32 -1.648,0.32 z"
   id="text2"
   style="font-weight:500;font-size:16px;line-height:21.7551px;font-family:'JetBrains Mono';-inkscape-font-specification:'JetBrains Mono, Medium';white-space:pre;fill:#434141;stroke-width:0.1;stroke-linecap:round;stroke-linejoin:round"
   transform="matrix(2.757976,0,0,2.757976,46.419798,-1618.4933)"
   aria-label="int my_function(int a, int b) {&#10;  int x = a + b;&#10;  return x;&#10;}" /></g></g></g></svg>
