<?xml version="1.0" ?><svg xmlns="http://www.w3.org/2000/svg" xmlns:svg="http://www.w3.org/2000/svg" width="903.961" height="569.15997" viewBox="0 0 239.17329 150.59024" version="1.1" id="svg5" xml:space="preserve"><defs id="defs2"><rect x="22.319975" y="66.959999" width="1260.6188" height="467.43851" id="rect2499"/></defs><g id="layer1"><g id="g26287" transform="matrix(0.26458333,0,0,0.26458333,151.03674,16.444252)"><g id="g26211" transform="translate(-559.68753,-50.991504)" style="display:inline">
	<path style="fill:#e6e6e6;fill-opacity:1" d="M 850.74201,546.84001 H 30.897 C 13.833,546.84001 0,533.00701 0,515.94301 V 42.057 C 0,24.993 13.833,11.16 30.897,11.16 h 819.84601 c 17.064,0 30.897,13.833 30.897,30.897 v 473.88601 c -10e-4,17.064 -13.834,30.897 -30.898,30.897 z" id="path26201"/>
	<path style="fill:#434141;fill-opacity:1" d="M 881.64001,44.64 H 0.0010028 L 0,30.897 C -0.00124512,13.833 13.833,0 30.897,0 h 819.84601 c 17.063,0 30.896,13.833 30.896,30.897 z" id="path26203"/>
	
	
	
<g id="g6257"><g aria-label="void AddRoundKey() {   for (uint8_t i = 0; i &lt; 4; ++i) {     for (uint8_t j = 0; j &lt; 4; ++j) {       (*state)[i][j] ^= RoundKey[(round * Nb * 4) + (i * Nb) + j];     }   } }" transform="matrix(1.0000012,0,0,1.0000012,-11.159998,-11.160334)" id="text2497" style="font-weight:500;font-size:21.3333px;line-height:2.1;font-family:'Fira Code';-inkscape-font-specification:'Fira Code, Medium';white-space:pre;shape-inside:url(#rect2499);display:inline;opacity:1;fill:#434141;stroke-width:2;stroke-linecap:round;stroke-miterlimit:2;paint-order:fill markers stroke"><path d="m 34.387302,83.141424 -4.069737,11.552802 h -2.86632 L 23.381507,83.141424 h 2.625637 l 2.931961,9.517933 2.942902,-9.517933 z" id="path6259"/><path d="m 42.023539,82.835099 q 2.538115,0 3.872814,1.651964 1.334699,1.651963 1.334699,4.408882 0,1.837945 -0.612649,3.205465 -0.601708,1.367519 -1.772305,2.13333 -1.159656,0.75487 -2.833499,0.75487 -2.527176,0 -3.872815,-1.630083 -1.345639,-1.641023 -1.345639,-4.441702 0,-1.794185 0.601709,-3.161705 0.612648,-1.378459 1.783245,-2.14427 1.170596,-0.776751 2.84444,-0.776751 z m 0,1.903587 q -1.323759,0 -1.991108,1.017434 -0.66735,1.006495 -0.66735,3.161705 0,2.15521 0.65641,3.172644 0.667349,1.006495 1.991108,1.006495 1.323758,0 1.980167,-1.017435 0.66735,-1.017434 0.66735,-3.183584 0,-2.13333 -0.656409,-3.139825 -0.65641,-1.017434 -1.980168,-1.017434 z" id="path6261"/><path d="m 55.129852,77.485364 q 0.72205,0 1.159657,0.437606 0.448546,0.437607 0.448546,1.094016 0,0.656409 -0.448546,1.104955 -0.437607,0.448547 -1.159657,0.448547 -0.70017,0 -1.148716,-0.448547 -0.448546,-0.448546 -0.448546,-1.104955 0,-0.656409 0.448546,-1.094016 0.448546,-0.437606 1.148716,-0.437606 z m 1.706664,5.65606 v 9.758617 h 3.139824 v 1.794185 h -9.047507 v -1.794185 h 3.457089 v -7.964432 h -3.347687 v -1.794185 z" id="path6263"/><path d="m 70.435138,78.229295 2.450594,0.273504 v 16.191427 h -2.15521 l -0.175043,-1.42222 q -0.590768,0.820512 -1.411279,1.269058 -0.820512,0.448546 -1.837946,0.448546 -1.487861,0 -2.450595,-0.75487 -0.951793,-0.765811 -1.42222,-2.13333 -0.470426,-1.36752 -0.470426,-3.183585 0,-1.761365 0.547007,-3.128884 0.547008,-1.378459 1.564442,-2.16615 1.017435,-0.787692 2.450595,-0.787692 1.783245,0 2.910081,1.258118 z m -2.264612,6.487511 q -1.236238,0 -1.925467,1.028374 -0.68923,1.017435 -0.68923,3.172645 0,2.209911 0.623589,3.205465 0.634529,0.984614 1.772305,0.984614 0.831451,0 1.4441,-0.481367 0.612649,-0.481367 1.039315,-1.159656 v -5.470077 q -0.426666,-0.612649 -0.995554,-0.940853 -0.568888,-0.339145 -1.269058,-0.339145 z" id="path6265"/><path d="m 97.17289,91.062095 h -5.393496 l -1.050254,3.632131 h -2.581877 l 4.802728,-15.097412 h 3.150764 l 4.813665,15.097412 h -2.691275 z m -4.868368,-1.958288 h 4.332301 l -2.155211,-7.537765 z" id="path6267"/><path d="m 109.81972,78.229295 2.45059,0.273504 v 16.191427 h -2.15521 l -0.17504,-1.42222 q -0.59077,0.820512 -1.41128,1.269058 -0.82051,0.448546 -1.83794,0.448546 -1.48786,0 -2.4506,-0.75487 -0.95179,-0.765811 -1.42222,-2.13333 -0.47042,-1.36752 -0.47042,-3.183585 0,-1.761365 0.547,-3.128884 0.54701,-1.378459 1.56444,-2.16615 1.01744,-0.787692 2.4506,-0.787692 1.78324,0 2.91008,1.258118 z m -2.26461,6.487511 q -1.23624,0 -1.92547,1.028374 -0.68923,1.017435 -0.68923,3.172645 0,2.209911 0.62359,3.205465 0.63453,0.984614 1.77231,0.984614 0.83145,0 1.4441,-0.481367 0.61264,-0.481367 1.03931,-1.159656 v -5.470077 q -0.42667,-0.612649 -0.99555,-0.940853 -0.56889,-0.339145 -1.26906,-0.339145 z" id="path6269"/><path d="m 122.94791,78.229295 2.45059,0.273504 v 16.191427 h -2.15521 l -0.17504,-1.42222 q -0.59077,0.820512 -1.41128,1.269058 -0.82051,0.448546 -1.83794,0.448546 -1.48787,0 -2.4506,-0.75487 -0.95179,-0.765811 -1.42222,-2.13333 -0.47043,-1.36752 -0.47043,-3.183585 0,-1.761365 0.54701,-3.128884 0.54701,-1.378459 1.56444,-2.16615 1.01744,-0.787692 2.4506,-0.787692 1.78324,0 2.91008,1.258118 z m -2.26461,6.487511 q -1.23624,0 -1.92547,1.028374 -0.68923,1.017435 -0.68923,3.172645 0,2.209911 0.62359,3.205465 0.63453,0.984614 1.7723,0.984614 0.83146,0 1.4441,-0.481367 0.61265,-0.481367 1.03932,-1.159656 v -5.470077 q -0.42667,-0.612649 -0.99555,-0.940853 -0.56889,-0.339145 -1.26906,-0.339145 z" id="path6271"/><path d="m 139.30345,83.961935 q 0,1.673844 -0.99555,2.702218 -0.99556,1.028375 -2.43966,1.455041 l 4.2776,6.575032 H 137.192 l -3.79623,-6.214007 h -1.65196 v 6.214007 h -2.53812 V 79.596814 h 4.21196 q 2.89914,0 4.387,1.094015 1.4988,1.083076 1.4988,3.271106 z m -2.65846,0 q 0,-1.312818 -0.76581,-1.892646 -0.76581,-0.590769 -2.31931,-0.590769 h -1.81606 v 5.141873 h 1.87076 q 1.4441,0 2.23179,-0.612649 0.79863,-0.623589 0.79863,-2.045809 z" id="path6273"/><path d="m 147.04909,82.835099 q 2.53812,0 3.87282,1.651964 1.3347,1.651963 1.3347,4.408882 0,1.837945 -0.61265,3.205465 -0.60171,1.367519 -1.77231,2.13333 -1.15965,0.75487 -2.8335,0.75487 -2.52717,0 -3.87281,-1.630083 -1.34564,-1.641023 -1.34564,-4.441702 0,-1.794185 0.60171,-3.161705 0.61265,-1.378459 1.78324,-2.14427 1.1706,-0.776751 2.84444,-0.776751 z m 0,1.903587 q -1.32376,0 -1.99111,1.017434 -0.66734,1.006495 -0.66734,3.161705 0,2.15521 0.6564,3.172644 0.66735,1.006495 1.99111,1.006495 1.32376,0 1.98017,-1.017435 0.66735,-1.017434 0.66735,-3.183584 0,-2.13333 -0.65641,-3.139825 -0.65641,-1.017434 -1.98017,-1.017434 z" id="path6275"/><path d="m 158.00019,83.141424 v 8.073833 q 0,1.028375 0.40479,1.465981 0.41572,0.437606 1.24717,0.437606 0.7877,0 1.52069,-0.470427 0.73299,-0.470426 1.15965,-1.148716 v -8.358277 h 2.4506 v 11.552802 h -2.11145 l -0.15317,-1.476921 q -0.64546,0.864272 -1.63008,1.323759 -0.98461,0.448546 -2.01299,0.448546 -1.68478,0 -2.50529,-0.918973 -0.82051,-0.929913 -0.82051,-2.549056 v -8.380157 z" id="path6277"/><path d="M 168.67779,94.694226 V 83.141424 h 2.11145 l 0.18598,1.498801 q 0.72205,-0.875212 1.70666,-1.334699 0.98462,-0.470427 2.02393,-0.470427 1.61914,0 2.41777,0.908033 0.80958,0.908033 0.80958,2.527176 v 8.423918 h -2.4506 v -7.209561 q 0,-1.498801 -0.30632,-2.13333 -0.29539,-0.645469 -1.34564,-0.645469 -0.84239,0 -1.54256,0.525127 -0.68923,0.514187 -1.15966,1.170597 v 8.292636 z" id="path6279"/><path d="m 188.58889,78.229295 2.45059,0.273504 v 16.191427 h -2.15521 l -0.17504,-1.42222 q -0.59077,0.820512 -1.41128,1.269058 -0.82051,0.448546 -1.83795,0.448546 -1.48786,0 -2.45059,-0.75487 -0.9518,-0.765811 -1.42222,-2.13333 -0.47043,-1.36752 -0.47043,-3.183585 0,-1.761365 0.54701,-3.128884 0.54701,-1.378459 1.56444,-2.16615 1.01743,-0.787692 2.45059,-0.787692 1.78325,0 2.91009,1.258118 z m -2.26462,6.487511 q -1.23623,0 -1.92546,1.028374 -0.68923,1.017435 -0.68923,3.172645 0,2.209911 0.62359,3.205465 0.63452,0.984614 1.7723,0.984614 0.83145,0 1.4441,-0.481367 0.61265,-0.481367 1.03932,-1.159656 v -5.470077 q -0.42667,-0.612649 -0.99556,-0.940853 -0.56889,-0.339145 -1.26906,-0.339145 z" id="path6281"/><path d="m 197.43947,94.694226 h -2.53811 V 79.596814 h 2.53811 z m 0.10941,-8.062893 5.25127,-7.034519 h 2.78974 l -5.2841,6.859476 5.69982,8.237936 h -3.04136 z" id="path6283"/><path d="m 210.09724,89.705516 q 0.1094,1.783245 0.99555,2.581876 0.89709,0.798631 2.15521,0.798631 0.84239,0 1.56444,-0.262563 0.73299,-0.262564 1.46598,-0.743931 l 1.0612,1.465981 q -0.80957,0.656409 -1.89265,1.050255 -1.08307,0.393845 -2.31931,0.393845 -1.80513,0 -3.0523,-0.765811 -1.23624,-0.76581 -1.88171,-2.13333 -0.63453,-1.367519 -0.63453,-3.161704 0,-1.739484 0.63453,-3.107004 0.63453,-1.378459 1.81607,-2.17709 1.18153,-0.809572 2.82256,-0.809572 2.29743,0 3.63213,1.542562 1.34564,1.542562 1.34564,4.23384 0,0.295384 -0.0219,0.590768 -0.0109,0.284444 -0.0328,0.503247 z m 2.75692,-5.054351 q -1.14872,0 -1.90359,0.820511 -0.75487,0.820512 -0.86427,2.559996 h 5.34973 q -0.0328,-1.630082 -0.70017,-2.505295 -0.65641,-0.875212 -1.8817,-0.875212 z" id="path6285"/><path d="m 231.29927,83.141424 -3.98221,11.596563 q -0.44855,1.312818 -1.14872,2.319312 -0.70017,1.006494 -1.79418,1.608203 -1.09402,0.612648 -2.71316,0.75487 l -0.31727,-1.837945 q 1.1706,-0.185983 1.85983,-0.547008 0.70017,-0.350085 1.10496,-0.929913 0.41572,-0.568888 0.73299,-1.41128 h -0.83146 l -3.89469,-11.552802 h 2.60376 l 2.91008,9.846138 2.95384,-9.846138 z" id="path6287"/><path d="m 237.42577,87.036118 q 0,2.10051 0.45948,3.686832 0.47043,1.586323 1.45504,2.975722 0.99556,1.3894 2.56,2.888201 l -1.35658,1.312818 q -1.76137,-1.45504 -3.03042,-3.030423 -1.25812,-1.575382 -1.93641,-3.468028 -0.67829,-1.903587 -0.67829,-4.365122 0,-2.461534 0.67829,-4.354181 0.67829,-1.903586 1.93641,-3.478969 1.26905,-1.575382 3.03042,-3.030422 l 1.35658,1.312818 q -1.53162,1.476921 -2.52718,2.866321 -0.99555,1.378459 -1.47692,2.975721 -0.47042,1.597263 -0.47042,3.708712 z" id="path6289"/><path d="m 253.57344,87.036118 q 0,-2.111449 -0.48137,-3.708712 -0.47043,-1.597262 -1.46598,-2.975721 -0.99555,-1.3894 -2.52718,-2.866321 l 1.35658,-1.312818 q 1.76137,1.45504 3.01949,3.030422 1.26905,1.575383 1.94734,3.478969 0.67829,1.892647 0.67829,4.354181 0,2.461535 -0.67829,4.365122 -0.67829,1.892646 -1.94734,3.468028 -1.25812,1.575383 -3.01949,3.030423 l -1.35658,-1.312818 q 1.56445,-1.498801 2.54906,-2.888201 0.99555,-1.389399 1.45504,-2.975722 0.47043,-1.586322 0.47043,-3.686832 z" id="path6291"/><path d="m 281.7553,76.380409 v 1.805125 q -1.12684,0 -1.84889,0.339145 -0.72205,0.339145 -0.62359,1.269058 l 0.40479,4.015036 q 0.1641,1.553502 -0.53607,2.286492 -0.70017,0.72205 -2.02393,0.940853 1.37846,0.229744 2.04581,0.929914 0.67829,0.689229 0.51419,2.297432 l -0.40479,4.015036 q -0.0985,0.940853 0.62359,1.269058 0.72205,0.339145 1.84889,0.339145 v 1.805125 q -1.52068,0 -2.64752,-0.328204 -1.1159,-0.328205 -1.68478,-1.126836 -0.55795,-0.798632 -0.40479,-2.188031 l 0.40479,-3.774353 q 0.12034,-1.159656 -0.59077,-1.706664 -0.71111,-0.547008 -2.60376,-0.547008 v -1.969227 q 1.89265,0 2.60376,-0.536068 0.71111,-0.536067 0.59077,-1.706664 l -0.40479,-3.774353 q -0.15316,-1.40034 0.40479,-2.198971 0.56888,-0.798631 1.68478,-1.126836 1.12684,-0.328204 2.64752,-0.328204 z" id="path6293"/><path d="m 57.547626,123.02922 q 1.061195,0 1.892647,0.18598 0.842392,0.17505 1.553502,0.48137 l -0.722051,1.69572 q -0.579828,-0.24068 -1.214357,-0.35008 -0.623588,-0.1094 -1.269057,-0.1094 -2.231792,0 -2.231792,1.79418 v 2.04581 h 3.861874 l -0.262563,1.80513 h -3.599311 v 8.91622 h -2.439654 v -8.91622 h -2.625637 v -1.80513 h 2.625637 v -2.06769 q 0,-1.64102 1.214357,-2.65845 1.214357,-1.01744 3.216405,-1.01744 z" id="path6295"/><path d="m 68.279927,127.63503 q 2.538116,0 3.872815,1.65196 1.334699,1.65196 1.334699,4.40888 0,1.83795 -0.612649,3.20547 -0.601709,1.36752 -1.772305,2.13333 -1.159656,0.75487 -2.8335,0.75487 -2.527175,0 -3.872814,-1.63009 -1.345639,-1.64102 -1.345639,-4.4417 0,-1.79418 0.601708,-3.1617 0.612649,-1.37846 1.783245,-2.14427 1.170597,-0.77675 2.84444,-0.77675 z m 0,1.90358 q -1.323758,0 -1.991108,1.01744 -0.667349,1.00649 -0.667349,3.1617 0,2.15521 0.656409,3.17265 0.66735,1.00649 1.991108,1.00649 1.323759,0 1.980168,-1.01743 0.667349,-1.01744 0.667349,-3.18359 0,-2.13333 -0.656409,-3.13982 -0.656409,-1.01744 -1.980168,-1.01744 z" id="path6297"/><path d="m 76.889837,139.49415 v -1.75042 h 1.695724 v -8.0629 h -1.695724 v -1.73948 h 3.56649 l 0.448546,2.68034 q 0.645469,-1.45504 1.597263,-2.20991 0.962733,-0.76581 2.472474,-0.76581 0.514188,0 0.918973,0.0875 0.415726,0.0766 0.820512,0.20786 l -0.415726,4.25572 h -1.750425 v -2.35213 q -1.225297,0.0438 -2.111449,0.98461 -0.886153,0.92991 -1.40034,2.62564 v 4.28854 h 2.330253 v 1.75042 z" id="path6299"/><path d="m 106.14383,131.83605 q 0,2.1005 0.45948,3.68683 0.47043,1.58632 1.45505,2.97572 0.99555,1.3894 2.55999,2.8882 l -1.35658,1.31282 q -1.76136,-1.45504 -3.03042,-3.03042 -1.25812,-1.57539 -1.93641,-3.46803 -0.67829,-1.90359 -0.67829,-4.36512 0,-2.46154 0.67829,-4.35419 0.67829,-1.90358 1.93641,-3.47896 1.26906,-1.57539 3.03042,-3.03043 l 1.35658,1.31282 q -1.53162,1.47692 -2.52717,2.86632 -0.99556,1.37846 -1.47692,2.97572 -0.47043,1.59727 -0.47043,3.70872 z" id="path6301"/><path d="m 118.61561,127.94135 v 8.07383 q 0,1.02838 0.40478,1.46598 0.41573,0.43761 1.24718,0.43761 0.78769,0 1.52068,-0.47043 0.73299,-0.47042 1.15966,-1.14871 v -8.35828 h 2.45059 v 11.5528 h -2.11145 l -0.15316,-1.47692 q -0.64547,0.86427 -1.63008,1.32376 -0.98461,0.44855 -2.01299,0.44855 -1.68478,0 -2.50529,-0.91898 -0.82052,-0.92991 -0.82052,-2.54905 v -8.38016 z" id="path6303"/><path d="m 133.89902,122.28529 q 0.72205,0 1.15965,0.43761 0.44855,0.4376 0.44855,1.09401 0,0.65641 -0.44855,1.10496 -0.4376,0.44854 -1.15965,0.44854 -0.70017,0 -1.14872,-0.44854 -0.44855,-0.44855 -0.44855,-1.10496 0,-0.65641 0.44855,-1.09401 0.44855,-0.43761 1.14872,-0.43761 z m 1.70666,5.65606 v 9.75862 h 3.13982 v 1.79418 h -9.0475 v -1.79418 h 3.45708 v -7.96443 h -3.34768 v -1.79419 z" id="path6305"/><path d="m 142.42141,139.49415 v -11.5528 h 2.11145 l 0.18598,1.4988 q 0.72205,-0.87521 1.70666,-1.3347 0.98462,-0.47042 2.02393,-0.47042 1.61914,0 2.41778,0.90803 0.80957,0.90803 0.80957,2.52717 v 8.42392 h -2.4506 v -7.20956 q 0,-1.4988 -0.30632,-2.13333 -0.29539,-0.64547 -1.34564,-0.64547 -0.84239,0 -1.54256,0.52513 -0.68923,0.51419 -1.15966,1.1706 v 8.29263 z" id="path6307"/><path d="m 165.19881,138.8815 q -0.63453,0.40479 -1.52068,0.65641 -0.88615,0.25163 -1.84889,0.25163 -2.01298,0 -3.06324,-1.03932 -1.03931,-1.05025 -1.03931,-2.75692 v -6.2687 h -2.57094 v -1.78325 h 2.57094 v -2.58188 l 2.45059,-0.29538 v 2.87726 h 3.8947 l -0.27351,1.78325 h -3.62119 v 6.24682 q 0,0.92992 0.45949,1.3894 0.47042,0.44855 1.53162,0.44855 0.63453,0 1.15966,-0.15316 0.53606,-0.15317 0.98461,-0.39385 z" id="path6309"/><path d="m 178.00974,127.99605 q 0,1.09402 -0.63453,1.88171 -0.63453,0.78769 -1.88171,1.47692 1.4988,0.66735 2.30837,1.69572 0.80958,1.02838 0.80958,2.37402 0,1.21435 -0.63453,2.20991 -0.63453,0.98461 -1.83795,1.57538 -1.19248,0.57983 -2.89914,0.57983 -1.69572,0 -2.87726,-0.57983 -1.1706,-0.57983 -1.78325,-1.5535 -0.6017,-0.98462 -0.6017,-2.17709 0,-1.34564 0.79863,-2.30838 0.79863,-0.96273 2.13333,-1.56444 -1.19248,-0.63453 -1.76137,-1.42222 -0.56889,-0.79863 -0.56889,-2.05675 0,-1.34564 0.68923,-2.24273 0.70017,-0.89709 1.78325,-1.34564 1.08307,-0.44854 2.25367,-0.44854 1.23624,0 2.30837,0.4376 1.07214,0.43761 1.72855,1.30188 0.66735,0.86427 0.66735,2.16615 z m -7.0564,0.14222 q 0,0.74393 0.33914,1.20342 0.33915,0.45949 0.98462,0.77675 0.64547,0.31727 1.56444,0.62359 0.94085,-0.56889 1.36752,-1.15966 0.42666,-0.59076 0.42666,-1.46598 0,-1.01743 -0.60171,-1.63008 -0.6017,-0.61265 -1.72854,-0.61265 -1.1159,0 -1.73948,0.59077 -0.61265,0.59077 -0.61265,1.67384 z m 5.15281,7.29709 q 0,-0.91898 -0.43761,-1.46598 -0.42666,-0.54701 -1.23623,-0.91898 -0.80957,-0.37196 -1.93641,-0.76581 -0.83145,0.42667 -1.42222,1.15966 -0.59077,0.73299 -0.59077,1.95829 0,1.15965 0.70017,1.84888 0.70017,0.67829 2.08957,0.67829 1.40034,0 2.11145,-0.72205 0.72205,-0.72205 0.72205,-1.7723 z" id="path6311"/><path d="m 180.95266,143.49825 v -2.02393 h 10.94015 v 2.02393 z" id="path6313"/><path d="m 204.58339,138.8815 q -0.63452,0.40479 -1.52068,0.65641 -0.88615,0.25163 -1.84888,0.25163 -2.01299,0 -3.06325,-1.03932 -1.03931,-1.05025 -1.03931,-2.75692 v -6.2687 h -2.57094 v -1.78325 h 2.57094 v -2.58188 l 2.45059,-0.29538 v 2.87726 h 3.8947 l -0.27351,1.78325 h -3.62119 v 6.24682 q 0,0.92992 0.45949,1.3894 0.47043,0.44855 1.53162,0.44855 0.63453,0 1.15966,-0.15316 0.53607,-0.15317 0.98461,-0.39385 z" id="path6315"/><path d="m 225.79638,122.28529 q 0.72205,0 1.15965,0.43761 0.44855,0.4376 0.44855,1.09401 0,0.65641 -0.44855,1.10496 -0.4376,0.44854 -1.15965,0.44854 -0.70017,0 -1.14872,-0.44854 -0.44855,-0.44855 -0.44855,-1.10496 0,-0.65641 0.44855,-1.09401 0.44855,-0.43761 1.14872,-0.43761 z m 1.70666,5.65606 v 9.75862 h 3.13983 v 1.79418 h -9.04751 v -1.79418 h 3.45709 v -7.96443 h -3.34769 v -1.79419 z" id="path6317"/><path d="m 256.59292,129.52767 v 2.00205 h -9.05845 v -2.00205 z m 0,4.32136 v 2.00205 h -9.05845 v -2.00205 z" id="path6319"/><path d="m 278.32009,124.09042 q 2.53811,0 3.83999,2.04581 1.30188,2.0458 1.30188,5.78734 0,3.76341 -1.30188,5.82016 -1.30188,2.04581 -3.83999,2.04581 -2.53812,0 -3.84,-2.04581 -1.30187,-2.05675 -1.30187,-5.82016 0,-3.74154 1.30187,-5.78734 1.30188,-2.04581 3.84,-2.04581 z m 0,1.87076 q -1.30188,0 -2.00205,1.3894 -0.70017,1.37846 -0.70017,4.57299 0,2.33025 0.28444,3.63213 l 4.26666,-8.70836 q -0.31726,-0.47043 -0.77675,-0.67829 -0.45948,-0.20787 -1.07213,-0.20787 z m 2.70222,5.96239 q 0,-2.08957 -0.22975,-3.33675 l -4.21196,8.59896 q 0.59077,0.73299 1.73949,0.73299 1.31282,0 2.00205,-1.37846 0.70017,-1.37846 0.70017,-4.61674 z" id="path6321"/><path d="m 291.43734,128.08357 q 0.83145,0 1.40034,0.57983 0.56889,0.56889 0.56889,1.37846 0,0.80957 -0.56889,1.40034 -0.56889,0.57983 -1.40034,0.57983 -0.83145,0 -1.40034,-0.57983 -0.56889,-0.59077 -0.56889,-1.40034 0,-0.80957 0.56889,-1.37846 0.56889,-0.57983 1.40034,-0.57983 z m 0,7.52683 q 0.84239,0 1.40034,0.56889 0.56889,0.56888 0.56889,1.3894 0,0.48136 -0.15317,0.97367 -0.14222,0.49231 -0.45948,1.20342 l -1.67385,3.82905 h -1.8817 l 1.05025,-4.387 q -0.82051,-0.56889 -0.82051,-1.63008 0,-0.80958 0.56889,-1.37846 0.56889,-0.56889 1.40034,-0.56889 z" id="path6323"/><path d="m 317.69372,122.28529 q 0.72205,0 1.15965,0.43761 0.44855,0.4376 0.44855,1.09401 0,0.65641 -0.44855,1.10496 -0.4376,0.44854 -1.15965,0.44854 -0.70017,0 -1.14872,-0.44854 -0.44855,-0.44855 -0.44855,-1.10496 0,-0.65641 0.44855,-1.09401 0.44855,-0.43761 1.14872,-0.43761 z m 1.70666,5.65606 v 9.75862 h 3.13982 v 1.79418 h -9.0475 v -1.79418 h 3.45709 v -7.96443 h -3.34769 v -1.79419 z" id="path6325"/><path d="m 347.63696,126.34409 1.12683,1.7723 -7.48306,4.51829 7.48306,4.51828 -1.20341,1.76136 -8.3911,-5.22939 v -2.10051 z" id="path6327"/><path d="m 373.63077,130.07468 v 4.03692 h 1.79419 v 1.90358 h -1.79419 v 3.47897 h -2.35213 l -0.0109,-3.47897 h -6.26871 v -1.70666 l 4.34324,-10.2181 2.06769,0.82051 -3.85093,9.20067 h 3.71965 l 0.29538,-4.03692 z" id="path6329"/><path d="m 383.33471,128.08357 q 0.83145,0 1.40034,0.57983 0.56888,0.56889 0.56888,1.37846 0,0.80957 -0.56888,1.40034 -0.56889,0.57983 -1.40034,0.57983 -0.83145,0 -1.40034,-0.57983 -0.56889,-0.59077 -0.56889,-1.40034 0,-0.80957 0.56889,-1.37846 0.56889,-0.57983 1.40034,-0.57983 z m 0,7.52683 q 0.84239,0 1.40034,0.56889 0.56888,0.56888 0.56888,1.3894 0,0.48136 -0.15316,0.97367 -0.14222,0.49231 -0.45948,1.20342 l -1.67385,3.82905 h -1.8817 l 1.05025,-4.387 q -0.82051,-0.56889 -0.82051,-1.63008 0,-0.80958 0.56889,-1.37846 0.56889,-0.56889 1.40034,-0.56889 z" id="path6331"/><path d="m 411.75726,133.66305 v 4.39794 h -2.15521 v -4.39794 h -4.31043 v -1.96923 h 4.31043 v -4.40888 h 2.15521 v 4.40888 h 8.78494 v -4.40888 h 2.15521 v 4.40888 h 4.34324 v 1.96923 h -4.34324 v 4.39794 h -2.15521 v -4.39794 z" id="path6333"/><path d="m 435.84746,122.28529 q 0.72205,0 1.15966,0.43761 0.44855,0.4376 0.44855,1.09401 0,0.65641 -0.44855,1.10496 -0.43761,0.44854 -1.15966,0.44854 -0.70017,0 -1.14871,-0.44854 -0.44855,-0.44855 -0.44855,-1.10496 0,-0.65641 0.44855,-1.09401 0.44854,-0.43761 1.14871,-0.43761 z m 1.70667,5.65606 v 9.75862 h 3.13982 v 1.79418 h -9.04751 v -1.79418 h 3.45709 v -7.96443 h -3.34768 v -1.79419 z" id="path6335"/><path d="m 450.49635,131.83605 q 0,-2.11145 -0.48137,-3.70872 -0.47042,-1.59726 -1.46598,-2.97572 -0.99555,-1.3894 -2.52717,-2.86632 l 1.35658,-1.31282 q 1.76136,1.45504 3.01948,3.03043 1.26906,1.57538 1.94735,3.47896 0.67828,1.89265 0.67828,4.35419 0,2.46153 -0.67828,4.36512 -0.67829,1.89264 -1.94735,3.46803 -1.25812,1.57538 -3.01948,3.03042 l -1.35658,-1.31282 q 1.56444,-1.4988 2.54905,-2.8882 0.99556,-1.3894 1.45504,-2.97572 0.47043,-1.58633 0.47043,-3.68683 z" id="path6337"/><path d="m 478.67819,121.18034 v 1.80512 q -1.12683,0 -1.84888,0.33915 -0.72205,0.33914 -0.62359,1.26905 l 0.40479,4.01504 q 0.1641,1.5535 -0.53607,2.28649 -0.70017,0.72205 -2.02393,0.94086 1.37846,0.22974 2.04581,0.92991 0.67829,0.68923 0.51419,2.29743 l -0.40479,4.01504 q -0.0985,0.94085 0.62359,1.26905 0.72205,0.33915 1.84888,0.33915 v 1.80512 q -1.52068,0 -2.64751,-0.3282 -1.1159,-0.3282 -1.68479,-1.12684 -0.55794,-0.79863 -0.40478,-2.18803 l 0.40478,-3.77435 q 0.12035,-1.15966 -0.59076,-1.70666 -0.71111,-0.54701 -2.60376,-0.54701 v -1.96923 q 1.89265,0 2.60376,-0.53607 0.71111,-0.53606 0.59076,-1.70666 l -0.40478,-3.77435 q -0.15316,-1.40034 0.40478,-2.19897 0.56889,-0.79864 1.68479,-1.12684 1.12683,-0.3282 2.64751,-0.3282 z" id="path6339"/><path d="m 83.804014,167.82915 q 1.061195,0 1.892647,0.18598 0.842391,0.17504 1.553501,0.48137 l -0.72205,1.69572 q -0.579828,-0.24068 -1.214357,-0.35008 -0.623589,-0.1094 -1.269058,-0.1094 -2.231791,0 -2.231791,1.79418 v 2.04581 h 3.861874 l -0.262563,1.80512 h -3.599311 v 8.91623 h -2.439654 v -8.91623 h -2.625637 v -1.80512 h 2.625637 v -2.06769 q 0,-1.64102 1.214357,-2.65846 1.214357,-1.01743 3.216405,-1.01743 z" id="path6341"/><path d="m 94.536313,172.43495 q 2.538116,0 3.872815,1.65197 1.334698,1.65196 1.334698,4.40888 0,1.83794 -0.612648,3.20546 -0.601709,1.36752 -1.772305,2.13333 -1.159656,0.75487 -2.8335,0.75487 -2.527175,0 -3.872814,-1.63008 -1.345639,-1.64102 -1.345639,-4.4417 0,-1.79419 0.601708,-3.16171 0.612649,-1.37846 1.783245,-2.14427 1.170597,-0.77675 2.84444,-0.77675 z m 0,1.90359 q -1.323758,0 -1.991108,1.01743 -0.667349,1.0065 -0.667349,3.16171 0,2.15521 0.656409,3.17264 0.667349,1.0065 1.991108,1.0065 1.323759,0 1.980168,-1.01744 0.667349,-1.01743 0.667349,-3.18358 0,-2.13333 -0.656409,-3.13983 -0.656409,-1.01743 -1.980168,-1.01743 z" id="path6343"/><path d="m 103.14623,184.29408 v -1.75043 h 1.69572 v -8.06289 h -1.69572 v -1.73948 h 3.56649 l 0.44854,2.68033 q 0.64547,-1.45504 1.59727,-2.20991 0.96273,-0.76581 2.47247,-0.76581 0.51419,0 0.91897,0.0875 0.41573,0.0766 0.82051,0.20787 l -0.41572,4.25572 h -1.75043 v -2.35214 q -1.22529,0.0438 -2.11145,0.98462 -0.88615,0.92991 -1.40034,2.62563 v 4.28854 h 2.33026 v 1.75043 z" id="path6345"/><path d="m 132.40021,176.63597 q 0,2.10051 0.45949,3.68683 0.47043,1.58633 1.45504,2.97573 0.99556,1.3894 2.56,2.8882 l -1.35658,1.31281 q -1.76137,-1.45504 -3.03042,-3.03042 -1.25812,-1.57538 -1.93641,-3.46803 -0.67829,-1.90358 -0.67829,-4.36512 0,-2.46153 0.67829,-4.35418 0.67829,-1.90359 1.93641,-3.47897 1.26905,-1.57538 3.03042,-3.03042 l 1.35658,1.31282 q -1.53162,1.47692 -2.52718,2.86632 -0.99555,1.37846 -1.47692,2.97572 -0.47043,1.59726 -0.47043,3.70871 z" id="path6347"/><path d="m 144.872,172.74128 v 8.07383 q 0,1.02838 0.40479,1.46598 0.41572,0.43761 1.24718,0.43761 0.78769,0 1.52068,-0.47043 0.73299,-0.47043 1.15965,-1.14872 v -8.35827 h 2.4506 v 11.5528 h -2.11145 l -0.15316,-1.47692 q -0.64547,0.86427 -1.63009,1.32376 -0.98461,0.44854 -2.01299,0.44854 -1.68478,0 -2.50529,-0.91897 -0.82051,-0.92991 -0.82051,-2.54906 v -8.38015 z" id="path6349"/><path d="m 160.1554,167.08522 q 0.72205,0 1.15966,0.4376 0.44854,0.43761 0.44854,1.09402 0,0.65641 -0.44854,1.10495 -0.43761,0.44855 -1.15966,0.44855 -0.70017,0 -1.14871,-0.44855 -0.44855,-0.44854 -0.44855,-1.10495 0,-0.65641 0.44855,-1.09402 0.44854,-0.4376 1.14871,-0.4376 z m 1.70667,5.65606 v 9.75861 h 3.13982 v 1.79419 h -9.04751 v -1.79419 h 3.45709 v -7.96443 h -3.34769 v -1.79418 z" id="path6351"/><path d="m 168.67779,184.29408 v -11.5528 h 2.11145 l 0.18598,1.4988 q 0.72205,-0.87521 1.70666,-1.3347 0.98462,-0.47043 2.02393,-0.47043 1.61914,0 2.41777,0.90804 0.80958,0.90803 0.80958,2.52717 v 8.42392 h -2.4506 v -7.20956 q 0,-1.4988 -0.30632,-2.13333 -0.29539,-0.64547 -1.34564,-0.64547 -0.84239,0 -1.54256,0.52513 -0.68923,0.51418 -1.15966,1.17059 v 8.29264 z" id="path6353"/><path d="m 191.45521,183.68143 q -0.63453,0.40479 -1.52069,0.65641 -0.88615,0.25162 -1.84888,0.25162 -2.01299,0 -3.06324,-1.03931 -1.03932,-1.05026 -1.03932,-2.75692 v -6.26871 h -2.57094 v -1.78324 h 2.57094 v -2.58188 l 2.45059,-0.29538 v 2.87726 h 3.8947 l -0.2735,1.78324 h -3.6212 v 6.24683 q 0,0.92991 0.45949,1.3894 0.47043,0.44855 1.53162,0.44855 0.63453,0 1.15966,-0.15317 0.53607,-0.15316 0.98461,-0.39384 z" id="path6355"/><path d="m 204.26613,172.79598 q 0,1.09401 -0.63453,1.8817 -0.63453,0.7877 -1.88171,1.47693 1.49881,0.66734 2.30838,1.69572 0.80957,1.02837 0.80957,2.37401 0,1.21436 -0.63453,2.20991 -0.63453,0.98462 -1.83795,1.57539 -1.19247,0.57982 -2.89914,0.57982 -1.69572,0 -2.87726,-0.57982 -1.17059,-0.57983 -1.78324,-1.55351 -0.60171,-0.98461 -0.60171,-2.17709 0,-1.34564 0.79863,-2.30837 0.79863,-0.96273 2.13333,-1.56444 -1.19248,-0.63453 -1.76136,-1.42222 -0.56889,-0.79863 -0.56889,-2.05675 0,-1.34564 0.68923,-2.24273 0.70017,-0.89709 1.78324,-1.34564 1.08308,-0.44855 2.25367,-0.44855 1.23624,0 2.30838,0.43761 1.07213,0.43761 1.72854,1.30188 0.66735,0.86427 0.66735,2.16615 z m -7.0564,0.14222 q 0,0.74393 0.33915,1.20342 0.33914,0.45948 0.98461,0.77675 0.64547,0.31726 1.56444,0.62359 0.94085,-0.56889 1.36752,-1.15966 0.42667,-0.59077 0.42667,-1.46598 0,-1.01743 -0.60171,-1.63008 -0.60171,-0.61265 -1.72855,-0.61265 -1.11589,0 -1.73948,0.59077 -0.61265,0.59076 -0.61265,1.67384 z m 5.15281,7.29708 q 0,-0.91897 -0.4376,-1.46598 -0.42667,-0.54701 -1.23624,-0.91897 -0.80957,-0.37197 -1.93641,-0.76581 -0.83145,0.42666 -1.42222,1.15965 -0.59077,0.73299 -0.59077,1.95829 0,1.15966 0.70017,1.84889 0.70017,0.67829 2.08957,0.67829 1.40034,0 2.11145,-0.72205 0.72205,-0.72205 0.72205,-1.77231 z" id="path6357"/><path d="m 207.20904,188.29818 v -2.02393 h 10.94015 v 2.02393 z" id="path6359"/><path d="m 230.83979,183.68143 q -0.63453,0.40479 -1.52068,0.65641 -0.88616,0.25162 -1.84889,0.25162 -2.01299,0 -3.06324,-1.03931 -1.03932,-1.05026 -1.03932,-2.75692 v -6.26871 h -2.57093 v -1.78324 h 2.57093 v -2.58188 l 2.4506,-0.29538 v 2.87726 h 3.89469 l -0.2735,1.78324 h -3.62119 v 6.24683 q 0,0.92991 0.45948,1.3894 0.47043,0.44855 1.53163,0.44855 0.63452,0 1.15965,-0.15317 0.53607,-0.15316 0.98462,-0.39384 z" id="path6361"/><path d="m 253.55156,167.08522 q 0.71111,0 1.15965,0.4376 0.44855,0.43761 0.44855,1.09402 0,0.65641 -0.44855,1.10495 -0.44854,0.44855 -1.15965,0.44855 -0.71111,0 -1.15966,-0.44855 -0.43761,-0.44854 -0.43761,-1.10495 0,-0.65641 0.43761,-1.09402 0.44855,-0.4376 1.15966,-0.4376 z m 1.91452,5.65606 v 9.12409 q 0,2.15521 -0.89709,3.57743 -0.89709,1.42222 -2.6147,2.27555 -1.7176,0.85333 -4.17913,1.29094 l -0.39385,-1.88171 q 1.7176,-0.32821 2.98666,-0.90803 1.26906,-0.57983 1.95829,-1.58633 0.68923,-1.00649 0.68923,-2.60375 v -7.49401 h -4.56205 v -1.79418 z" id="path6363"/><path d="m 282.84931,174.3276 v 2.00205 h -9.05844 v -2.00205 z m 0,4.32136 v 2.00205 h -9.05844 v -2.00205 z" id="path6365"/><path d="m 304.57648,168.89034 q 2.53812,0 3.84,2.04581 1.30187,2.04581 1.30187,5.78734 0,3.76342 -1.30187,5.82016 -1.30188,2.04581 -3.84,2.04581 -2.53811,0 -3.83999,-2.04581 -1.30188,-2.05674 -1.30188,-5.82016 0,-3.74153 1.30188,-5.78734 1.30188,-2.04581 3.83999,-2.04581 z m 0,1.87077 q -1.30188,0 -2.00205,1.3894 -0.70017,1.37846 -0.70017,4.57298 0,2.33026 0.28445,3.63213 l 4.26666,-8.70836 q -0.31727,-0.47042 -0.77675,-0.67829 -0.45949,-0.20786 -1.07214,-0.20786 z m 2.70222,5.96238 q 0,-2.08957 -0.22974,-3.33674 l -4.21196,8.59896 q 0.59077,0.73299 1.73948,0.73299 1.31282,0 2.00205,-1.37846 0.70017,-1.37846 0.70017,-4.61675 z" id="path6367"/><path d="m 317.69372,172.8835 q 0.83145,0 1.40034,0.57983 0.56888,0.56889 0.56888,1.37846 0,0.80957 -0.56888,1.40034 -0.56889,0.57982 -1.40034,0.57982 -0.83146,0 -1.40034,-0.57982 -0.56889,-0.59077 -0.56889,-1.40034 0,-0.80957 0.56889,-1.37846 0.56888,-0.57983 1.40034,-0.57983 z m 0,7.52682 q 0.84239,0 1.40034,0.56889 0.56888,0.56889 0.56888,1.3894 0,0.48137 -0.15316,0.97368 -0.14222,0.4923 -0.45948,1.20341 l -1.67385,3.82906 h -1.8817 l 1.05025,-4.387 q -0.82051,-0.56889 -0.82051,-1.63009 0,-0.80957 0.56889,-1.37846 0.56888,-0.56889 1.40034,-0.56889 z" id="path6369"/><path d="m 345.44893,167.08522 q 0.71111,0 1.15965,0.4376 0.44855,0.43761 0.44855,1.09402 0,0.65641 -0.44855,1.10495 -0.44854,0.44855 -1.15965,0.44855 -0.71111,0 -1.15966,-0.44855 -0.43761,-0.44854 -0.43761,-1.10495 0,-0.65641 0.43761,-1.09402 0.44855,-0.4376 1.15966,-0.4376 z m 1.91452,5.65606 v 9.12409 q 0,2.15521 -0.89709,3.57743 -0.89709,1.42222 -2.6147,2.27555 -1.7176,0.85333 -4.17914,1.29094 l -0.39384,-1.88171 q 1.7176,-0.32821 2.98666,-0.90803 1.26906,-0.57983 1.95829,-1.58633 0.68923,-1.00649 0.68923,-2.60375 v -7.49401 h -4.56205 v -1.79418 z" id="path6371"/><path d="m 373.89333,171.14401 1.12684,1.77231 -7.48306,4.51828 7.48306,4.51829 -1.20342,1.76136 -8.39109,-5.22939 v -2.10051 z" id="path6373"/><path d="m 399.88715,174.87461 v 4.03691 h 1.79418 v 1.90359 h -1.79418 v 3.47897 h -2.35213 l -0.0109,-3.47897 h -6.26871 v -1.70666 l 4.34324,-10.21811 2.06769,0.82051 -3.85094,9.20067 h 3.71966 l 0.29538,-4.03691 z" id="path6375"/><path d="m 409.59109,172.8835 q 0.83145,0 1.40034,0.57983 0.56888,0.56889 0.56888,1.37846 0,0.80957 -0.56888,1.40034 -0.56889,0.57982 -1.40034,0.57982 -0.83146,0 -1.40034,-0.57982 -0.56889,-0.59077 -0.56889,-1.40034 0,-0.80957 0.56889,-1.37846 0.56888,-0.57983 1.40034,-0.57983 z m 0,7.52682 q 0.84239,0 1.40034,0.56889 0.56888,0.56889 0.56888,1.3894 0,0.48137 -0.15316,0.97368 -0.14222,0.4923 -0.45949,1.20341 l -1.67384,3.82906 h -1.88171 l 1.05026,-4.387 q -0.82051,-0.56889 -0.82051,-1.63009 0,-0.80957 0.56889,-1.37846 0.56888,-0.56889 1.40034,-0.56889 z" id="path6377"/><path d="m 438.01363,178.46298 v 4.39794 h -2.15521 v -4.39794 H 431.548 v -1.96923 h 4.31042 v -4.40888 h 2.15521 v 4.40888 h 8.78495 v -4.40888 h 2.15521 v 4.40888 h 4.34324 v 1.96923 h -4.34324 v 4.39794 h -2.15521 v -4.39794 z" id="path6379"/><path d="m 463.60267,167.08522 q 0.71111,0 1.15966,0.4376 0.44855,0.43761 0.44855,1.09402 0,0.65641 -0.44855,1.10495 -0.44855,0.44855 -1.15966,0.44855 -0.71111,0 -1.15965,-0.44855 -0.43761,-0.44854 -0.43761,-1.10495 0,-0.65641 0.43761,-1.09402 0.44854,-0.4376 1.15965,-0.4376 z m 1.91453,5.65606 v 9.12409 q 0,2.15521 -0.89709,3.57743 -0.8971,1.42222 -2.6147,2.27555 -1.7176,0.85333 -4.17914,1.29094 l -0.39384,-1.88171 q 1.7176,-0.32821 2.98666,-0.90803 1.26906,-0.57983 1.95829,-1.58633 0.68923,-1.00649 0.68923,-2.60375 v -7.49401 h -4.56205 v -1.79418 z" id="path6381"/><path d="m 476.75273,176.63597 q 0,-2.11145 -0.48137,-3.70871 -0.47043,-1.59726 -1.46598,-2.97572 -0.99555,-1.3894 -2.52718,-2.86632 l 1.35658,-1.31282 q 1.76137,1.45504 3.01949,3.03042 1.26905,1.57538 1.94734,3.47897 0.67829,1.89265 0.67829,4.35418 0,2.46154 -0.67829,4.36512 -0.67829,1.89265 -1.94734,3.46803 -1.25812,1.57538 -3.01949,3.03042 l -1.35658,-1.31281 q 1.56445,-1.4988 2.54906,-2.8882 0.99555,-1.3894 1.45504,-2.97573 0.47043,-1.58632 0.47043,-3.68683 z" id="path6383"/><path d="m 504.9346,165.98026 v 1.80513 q -1.12683,0 -1.84888,0.33914 -0.72205,0.33915 -0.62359,1.26906 l 0.40478,4.01504 q 0.16411,1.5535 -0.53606,2.28649 -0.70017,0.72205 -2.02393,0.94085 1.37846,0.22975 2.04581,0.92992 0.67829,0.68922 0.51418,2.29743 l -0.40478,4.01503 q -0.0985,0.94086 0.62359,1.26906 0.72205,0.33915 1.84888,0.33915 v 1.80512 q -1.52068,0 -2.64751,-0.3282 -1.1159,-0.32821 -1.68479,-1.12684 -0.55795,-0.79863 -0.40478,-2.18803 l 0.40478,-3.77435 q 0.12034,-1.15966 -0.59077,-1.70667 -0.71111,-0.547 -2.60375,-0.547 v -1.96923 q 1.89264,0 2.60375,-0.53607 0.71111,-0.53607 0.59077,-1.70666 l -0.40478,-3.77436 q -0.15317,-1.40034 0.40478,-2.19897 0.56889,-0.79863 1.68479,-1.12683 1.12683,-0.32821 2.64751,-0.32821 z" id="path6385"/><path d="m 106.14383,221.4359 q 0,2.10051 0.45948,3.68683 0.47043,1.58632 1.45505,2.97572 0.99555,1.3894 2.55999,2.8882 l -1.35658,1.31282 q -1.76136,-1.45504 -3.03042,-3.03042 -1.25812,-1.57538 -1.93641,-3.46803 -0.67829,-1.90359 -0.67829,-4.36512 0,-2.46154 0.67829,-4.35418 0.67829,-1.90359 1.93641,-3.47897 1.26906,-1.57538 3.03042,-3.03042 l 1.35658,1.31281 q -1.53162,1.47693 -2.52717,2.86632 -0.99556,1.37846 -1.47692,2.97573 -0.47043,1.59726 -0.47043,3.70871 z" id="path6387"/><path d="m 119.57834,216.31591 h 2.40684 l -0.27351,4.32136 4.01504,-1.57538 0.73299,2.25367 -4.17914,1.08307 2.74598,3.34769 -1.91453,1.37846 -2.33025,-3.63213 -2.33025,3.63213 -1.91453,-1.37846 2.74598,-3.34769 -4.17914,-1.08307 0.73299,-2.25367 4.01504,1.57538 z" id="path6389"/><path d="m 133.49423,227.50768 q 1.14872,0 1.82701,-0.40478 0.67828,-0.41573 0.67828,-1.13778 0,-0.47042 -0.19692,-0.79863 -0.19692,-0.3282 -0.78769,-0.61265 -0.59077,-0.28444 -1.79418,-0.59077 -1.13778,-0.29538 -2.00205,-0.70017 -0.85333,-0.40478 -1.32376,-1.05025 -0.47043,-0.64547 -0.47043,-1.6629 0,-1.48786 1.23624,-2.3959 1.24718,-0.91897 3.38051,-0.91897 1.45504,0 2.53811,0.38291 1.08308,0.3829 1.84889,0.95179 l -1.02838,1.54256 q -0.67828,-0.44855 -1.48786,-0.73299 -0.79863,-0.28444 -1.80512,-0.28444 -1.1706,0 -1.68479,0.35008 -0.50324,0.35009 -0.50324,0.92991 0,0.43761 0.25162,0.72205 0.26256,0.28445 0.89709,0.53607 0.63453,0.25163 1.79419,0.56889 1.12683,0.30632 1.95829,0.72205 0.84239,0.41573 1.30187,1.10496 0.47043,0.67828 0.47043,1.7723 0,1.24718 -0.72205,2.04581 -0.72205,0.78769 -1.88171,1.1706 -1.15965,0.37196 -2.49435,0.37196 -1.6082,0 -2.7788,-0.45949 -1.1706,-0.47042 -1.96923,-1.17059 l 1.30188,-1.48786 q 0.67829,0.547 1.5535,0.89709 0.87522,0.33914 1.89265,0.33914 z" id="path6391"/><path d="m 152.07062,228.48136 q -0.63453,0.40478 -1.52068,0.65641 -0.88615,0.25162 -1.84888,0.25162 -2.01299,0 -3.06325,-1.03931 -1.03931,-1.05026 -1.03931,-2.75692 v -6.26871 h -2.57094 v -1.78325 h 2.57094 v -2.58187 l 2.45059,-0.29539 v 2.87726 h 3.8947 l -0.27351,1.78325 h -3.62119 v 6.24683 q 0,0.92991 0.45949,1.3894 0.47043,0.44854 1.53162,0.44854 0.63453,0 1.15966,-0.15316 0.53606,-0.15316 0.98461,-0.39385 z" id="path6393"/><path d="m 164.3783,226.26051 q 0,0.68923 0.20786,0.99555 0.20787,0.30632 0.66735,0.45949 l -0.547,1.6629 q -0.85334,-0.0985 -1.47693,-0.47043 -0.61264,-0.37196 -0.91897,-1.12683 -0.63453,0.80957 -1.6082,1.21435 -0.97367,0.39385 -2.07863,0.39385 -1.76137,0 -2.7788,-0.98461 -1.01743,-0.99556 -1.01743,-2.60376 0,-1.82701 1.42222,-2.81162 1.42222,-0.98461 4.06973,-0.98461 h 1.65197 v -0.75487 q 0,-1.12684 -0.67829,-1.60821 -0.67829,-0.4923 -1.89265,-0.4923 -0.56889,0 -1.37846,0.15316 -0.80957,0.14222 -1.69572,0.44855 l -0.60171,-1.72855 q 1.08307,-0.40478 2.12239,-0.59077 1.03931,-0.19692 1.92547,-0.19692 2.31931,0 3.45708,1.02837 1.14872,1.02838 1.14872,2.84444 z m -5.01059,1.32376 q 0.74393,0 1.45504,-0.39385 0.71111,-0.39385 1.14872,-1.10496 v -2.54905 h -1.35658 q -1.72855,0 -2.47248,0.57983 -0.74393,0.56888 -0.74393,1.57538 0,1.89265 1.96923,1.89265 z" id="path6395"/><path d="m 178.327,228.48136 q -0.63453,0.40478 -1.52068,0.65641 -0.88615,0.25162 -1.84889,0.25162 -2.01298,0 -3.06324,-1.03931 -1.03931,-1.05026 -1.03931,-2.75692 v -6.26871 h -2.57094 v -1.78325 h 2.57094 v -2.58187 l 2.45059,-0.29539 v 2.87726 h 3.8947 l -0.27351,1.78325 h -3.62119 v 6.24683 q 0,0.92991 0.45949,1.3894 0.47042,0.44854 1.53162,0.44854 0.63453,0 1.15965,-0.15316 0.53607,-0.15316 0.98462,-0.39385 z" id="path6397"/><path d="m 183.84086,224.1053 q 0.1094,1.78324 0.99555,2.58187 0.8971,0.79863 2.15521,0.79863 0.84239,0 1.56444,-0.26256 0.733,-0.26256 1.46599,-0.74393 l 1.06119,1.46598 q -0.80957,0.65641 -1.89265,1.05025 -1.08307,0.39385 -2.31931,0.39385 -1.80512,0 -3.0523,-0.76581 -1.23624,-0.76581 -1.88171,-2.13333 -0.63453,-1.36752 -0.63453,-3.1617 0,-1.73949 0.63453,-3.10701 0.63453,-1.37846 1.81607,-2.17709 1.18153,-0.80957 2.82256,-0.80957 2.29743,0 3.63213,1.54256 1.34564,1.54256 1.34564,4.23384 0,0.29538 -0.0219,0.59077 -0.0109,0.28444 -0.0328,0.50325 z m 2.75692,-5.05435 q -1.14872,0 -1.90359,0.82051 -0.75487,0.82051 -0.86427,2.55999 h 5.34973 q -0.0328,-1.63008 -0.70017,-2.50529 -0.65641,-0.87521 -1.8817,-0.87521 z" id="path6399"/><path d="m 201.06067,221.4359 q 0,-2.11145 -0.48137,-3.70871 -0.47043,-1.59727 -1.46598,-2.97573 -0.99556,-1.38939 -2.52718,-2.86632 l 1.35658,-1.31281 q 1.76137,1.45504 3.01948,3.03042 1.26906,1.57538 1.94735,3.47897 0.67829,1.89264 0.67829,4.35418 0,2.46153 -0.67829,4.36512 -0.67829,1.89265 -1.94735,3.46803 -1.25811,1.57538 -3.01948,3.03042 l -1.35658,-1.31282 q 1.56444,-1.4988 2.54906,-2.8882 0.99555,-1.3894 1.45504,-2.97572 0.47043,-1.58632 0.47043,-3.68683 z" id="path6401"/><path d="m 209.91125,231.67588 v -20.47997 h 5.96239 v 1.95829 h -3.65401 v 16.58528 h 3.65401 v 1.9364 z" id="path6403"/><path d="m 225.79638,211.88514 q 0.72205,0 1.15965,0.43761 0.44855,0.43761 0.44855,1.09402 0,0.65641 -0.44855,1.10495 -0.4376,0.44855 -1.15965,0.44855 -0.70017,0 -1.14872,-0.44855 -0.44855,-0.44854 -0.44855,-1.10495 0,-0.65641 0.44855,-1.09402 0.44855,-0.43761 1.14872,-0.43761 z m 1.70666,5.65606 v 9.75862 h 3.13983 v 1.79419 h -9.04751 v -1.79419 h 3.45709 v -7.96443 h -3.34769 v -1.79419 z" id="path6405"/><path d="m 241.70337,211.19591 v 20.47997 h -5.96239 v -1.9364 h 3.65401 V 213.1542 h -3.65401 v -1.95829 z" id="path6407"/><path d="m 249.29584,231.67588 v -20.47997 h 5.96238 v 1.95829 h -3.65401 v 16.58528 h 3.65401 v 1.9364 z" id="path6409"/><path d="m 266.67976,211.88514 q 0.71111,0 1.15966,0.43761 0.44854,0.43761 0.44854,1.09402 0,0.65641 -0.44854,1.10495 -0.44855,0.44855 -1.15966,0.44855 -0.71111,0 -1.15966,-0.44855 -0.4376,-0.44854 -0.4376,-1.10495 0,-0.65641 0.4376,-1.09402 0.44855,-0.43761 1.15966,-0.43761 z m 1.91453,5.65606 v 9.12409 q 0,2.15521 -0.89709,3.57743 -0.8971,1.42222 -2.6147,2.27555 -1.71761,0.85334 -4.17914,1.29094 l -0.39385,-1.8817 q 1.71761,-0.32821 2.98667,-0.90804 1.26905,-0.57982 1.95828,-1.58632 0.68923,-1.00649 0.68923,-2.60376 v -7.494 h -4.56204 v -1.79419 z" id="path6411"/><path d="m 281.08795,211.19591 v 20.47997 h -5.96239 v -1.9364 h 3.65402 V 213.1542 h -3.65402 v -1.95829 z" id="path6413"/><path d="m 310.79048,219.12753 h 10.34938 v 2.00204 h -11.72784 l -3.76341,-6.68443 -2.70222,4.86837 h -2.51624 l 4.13538,-6.87042 h 2.20991 z m -1.37846,6.32341 v -2.00205 h 11.72784 v 2.00205 z" id="path6415"/><path d="m 349.35456,218.36172 q 0,1.67384 -0.99555,2.70221 -0.99556,1.02838 -2.43966,1.45504 l 4.2776,6.57504 h -2.95384 L 343.44688,222.88 h -1.65197 v 6.21401 h -2.53811 v -15.09742 h 4.21196 q 2.89914,0 4.387,1.09402 1.4988,1.08307 1.4988,3.27111 z m -2.65846,0 q 0,-1.31282 -0.76581,-1.89265 -0.76581,-0.59077 -2.31931,-0.59077 h -1.81607 v 5.14187 h 1.87077 q 1.4441,0 2.23179,-0.61265 0.79863,-0.62358 0.79863,-2.0458 z" id="path6417"/><path d="m 357.10018,217.23488 q 2.53811,0 3.87281,1.65196 1.3347,1.65197 1.3347,4.40888 0,1.83795 -0.61265,3.20547 -0.60171,1.36752 -1.7723,2.13333 -1.15966,0.75487 -2.8335,0.75487 -2.52718,0 -3.87282,-1.63008 -1.34563,-1.64103 -1.34563,-4.4417 0,-1.79419 0.6017,-3.16171 0.61265,-1.37846 1.78325,-2.14427 1.1706,-0.77675 2.84444,-0.77675 z m 0,1.90359 q -1.32376,0 -1.99111,1.01743 -0.66735,1.00649 -0.66735,3.16171 0,2.15521 0.65641,3.17264 0.66735,1.00649 1.99111,1.00649 1.32376,0 1.98017,-1.01743 0.66735,-1.01743 0.66735,-3.18359 0,-2.13333 -0.65641,-3.13982 -0.65641,-1.01743 -1.98017,-1.01743 z" id="path6419"/><path d="m 368.05129,217.5412 v 8.07384 q 0,1.02837 0.40479,1.46598 0.41572,0.4376 1.24718,0.4376 0.78769,0 1.52068,-0.47042 0.73299,-0.47043 1.15965,-1.14872 v -8.35828 h 2.4506 v 11.55281 h -2.11145 l -0.15316,-1.47692 q -0.64547,0.86427 -1.63009,1.32375 -0.98461,0.44855 -2.01299,0.44855 -1.68478,0 -2.50529,-0.91897 -0.82051,-0.92992 -0.82051,-2.54906 v -8.38016 z" id="path6421"/><path d="M 378.7289,229.09401 V 217.5412 h 2.11145 l 0.18598,1.49881 q 0.72205,-0.87522 1.70667,-1.3347 0.98461,-0.47043 2.02393,-0.47043 1.61914,0 2.41777,0.90803 0.80957,0.90804 0.80957,2.52718 v 8.42392 h -2.45059 v -7.20956 q 0,-1.49881 -0.30633,-2.13333 -0.29538,-0.64547 -1.34564,-0.64547 -0.84239,0 -1.54256,0.52512 -0.68923,0.51419 -1.15965,1.1706 v 8.29264 z" id="path6423"/><path d="m 398.63997,212.62908 2.4506,0.2735 v 16.19143 h -2.15521 l -0.17505,-1.42222 q -0.59076,0.82051 -1.41128,1.26905 -0.82051,0.44855 -1.83794,0.44855 -1.48786,0 -2.4506,-0.75487 -0.95179,-0.76581 -1.42222,-2.13333 -0.47042,-1.36752 -0.47042,-3.18358 0,-1.76137 0.547,-3.12889 0.54701,-1.37846 1.56445,-2.16615 1.01743,-0.78769 2.45059,-0.78769 1.78325,0 2.91008,1.25812 z m -2.26461,6.48751 q -1.23624,0 -1.92547,1.02837 -0.68923,1.01743 -0.68923,3.17265 0,2.20991 0.62359,3.20546 0.63453,0.98461 1.77231,0.98461 0.83145,0 1.4441,-0.48136 0.61265,-0.48137 1.03931,-1.15966 v -5.47008 q -0.42666,-0.61264 -0.99555,-0.94085 -0.56889,-0.33914 -1.26906,-0.33914 z" id="path6425"/><path d="m 407.49058,229.09401 h -2.53812 v -15.09742 h 2.53812 z m 0.1094,-8.0629 5.25127,-7.03452 h 2.78974 l -5.28409,6.85948 5.69982,8.23794 h -3.04137 z" id="path6427"/><path d="m 420.14835,224.1053 q 0.10941,1.78324 0.99556,2.58187 0.89709,0.79863 2.15521,0.79863 0.84239,0 1.56444,-0.26256 0.73299,-0.26256 1.46598,-0.74393 l 1.0612,1.46598 q -0.80958,0.65641 -1.89265,1.05025 -1.08308,0.39385 -2.31931,0.39385 -1.80513,0 -3.05231,-0.76581 -1.23623,-0.76581 -1.8817,-2.13333 -0.63453,-1.36752 -0.63453,-3.1617 0,-1.73949 0.63453,-3.10701 0.63453,-1.37846 1.81606,-2.17709 1.18154,-0.80957 2.82256,-0.80957 2.29743,0 3.63213,1.54256 1.34564,1.54256 1.34564,4.23384 0,0.29538 -0.0219,0.59077 -0.0109,0.28444 -0.0328,0.50325 z m 2.75692,-5.05435 q -1.14871,0 -1.90358,0.82051 -0.75487,0.82051 -0.86428,2.55999 h 5.34974 q -0.0328,-1.63008 -0.70017,-2.50529 -0.65641,-0.87521 -1.88171,-0.87521 z" id="path6429"/><path d="m 441.35036,217.5412 -3.98222,11.59657 q -0.44854,1.31282 -1.14871,2.31931 -0.70017,1.00649 -1.79419,1.6082 -1.09401,0.61265 -2.71315,0.75487 l -0.31727,-1.83794 q 1.1706,-0.18599 1.85983,-0.54701 0.70017,-0.35009 1.10495,-0.92991 0.41573,-0.56889 0.73299,-1.41128 h -0.83145 l -3.89469,-11.55281 h 2.60375 l 2.91008,9.84614 2.95385,-9.84614 z" id="path6431"/><path d="m 446.21875,231.67588 v -20.47997 h 5.96238 v 1.95829 h -3.65401 v 16.58528 h 3.65401 v 1.9364 z" id="path6433"/><path d="m 460.60507,221.4359 q 0,2.10051 0.45949,3.68683 0.47042,1.58632 1.45504,2.97572 0.99555,1.3894 2.55999,2.8882 l -1.35658,1.31282 q -1.76136,-1.45504 -3.03042,-3.03042 -1.25812,-1.57538 -1.9364,-3.46803 -0.67829,-1.90359 -0.67829,-4.36512 0,-2.46154 0.67829,-4.35418 0.67828,-1.90359 1.9364,-3.47897 1.26906,-1.57538 3.03042,-3.03042 l 1.35658,1.31281 q -1.53162,1.47693 -2.52717,2.86632 -0.99556,1.37846 -1.47692,2.97573 -0.47043,1.59726 -0.47043,3.70871 z" id="path6435"/><path d="m 470.73564,229.09401 v -1.75043 h 1.69573 v -8.06289 h -1.69573 v -1.73949 h 3.56649 l 0.44855,2.68034 q 0.64547,-1.45504 1.59726,-2.20991 0.96274,-0.76581 2.47248,-0.76581 0.51418,0 0.91897,0.0875 0.41573,0.0766 0.82051,0.20786 l -0.41572,4.25572 h -1.75043 v -2.35213 q -1.2253,0.0438 -2.11145,0.98461 -0.88615,0.92992 -1.40034,2.62564 v 4.28854 h 2.33025 v 1.75043 z" id="path6437"/><path d="m 488.38213,217.23488 q 2.53812,0 3.87282,1.65196 1.33469,1.65197 1.33469,4.40888 0,1.83795 -0.61264,3.20547 -0.60171,1.36752 -1.77231,2.13333 -1.15966,0.75487 -2.8335,0.75487 -2.52717,0 -3.87281,-1.63008 -1.34564,-1.64103 -1.34564,-4.4417 0,-1.79419 0.60171,-3.16171 0.61264,-1.37846 1.78324,-2.14427 1.1706,-0.77675 2.84444,-0.77675 z m 0,1.90359 q -1.32376,0 -1.99111,1.01743 -0.66735,1.00649 -0.66735,3.16171 0,2.15521 0.65641,3.17264 0.66735,1.00649 1.99111,1.00649 1.32376,0 1.98017,-1.01743 0.66735,-1.01743 0.66735,-3.18359 0,-2.13333 -0.65641,-3.13982 -0.65641,-1.01743 -1.98017,-1.01743 z" id="path6439"/><path d="m 499.33324,217.5412 v 8.07384 q 0,1.02837 0.40479,1.46598 0.41573,0.4376 1.24718,0.4376 0.78769,0 1.52068,-0.47042 0.73299,-0.47043 1.15966,-1.14872 v -8.35828 h 2.45059 v 11.55281 h -2.11145 l -0.15316,-1.47692 q -0.64547,0.86427 -1.63008,1.32375 -0.98462,0.44855 -2.01299,0.44855 -1.68479,0 -2.5053,-0.91897 -0.82051,-0.92992 -0.82051,-2.54906 v -8.38016 z" id="path6441"/><path d="M 510.01082,229.09401 V 217.5412 h 2.11145 l 0.18599,1.49881 q 0.72205,-0.87522 1.70666,-1.3347 0.98461,-0.47043 2.02393,-0.47043 1.61914,0 2.41777,0.90803 0.80957,0.90804 0.80957,2.52718 v 8.42392 h -2.45059 v -7.20956 q 0,-1.49881 -0.30632,-2.13333 -0.29539,-0.64547 -1.34564,-0.64547 -0.8424,0 -1.54257,0.52512 -0.68923,0.51419 -1.15965,1.1706 v 8.29264 z" id="path6443"/><path d="m 529.92192,212.62908 2.4506,0.2735 v 16.19143 h -2.15521 l -0.17504,-1.42222 q -0.59077,0.82051 -1.41128,1.26905 -0.82052,0.44855 -1.83795,0.44855 -1.48786,0 -2.45059,-0.75487 -0.9518,-0.76581 -1.42222,-2.13333 -0.47043,-1.36752 -0.47043,-3.18358 0,-1.76137 0.54701,-3.12889 0.547,-1.37846 1.56444,-2.16615 1.01743,-0.78769 2.45059,-0.78769 1.78325,0 2.91008,1.25812 z m -2.26461,6.48751 q -1.23624,0 -1.92547,1.02837 -0.68923,1.01743 -0.68923,3.17265 0,2.20991 0.62359,3.20546 0.63453,0.98461 1.77231,0.98461 0.83145,0 1.4441,-0.48136 0.61265,-0.48137 1.03931,-1.15966 v -5.47008 q -0.42666,-0.61264 -0.99555,-0.94085 -0.56889,-0.33914 -1.26906,-0.33914 z" id="path6445"/><path d="m 552.80873,216.31591 h 2.40684 l -0.27351,4.32136 4.01504,-1.57538 0.73299,2.25367 -4.17914,1.08307 2.74598,3.34769 -1.91453,1.37846 -2.33025,-3.63213 -2.33025,3.63213 -1.91453,-1.37846 2.74598,-3.34769 -4.17914,-1.08307 0.73299,-2.25367 4.01504,1.57538 z" id="path6447"/><path d="m 581.96428,229.09401 -4.80272,-12.84374 q 0.0438,0.44854 0.13128,1.40034 0.0875,0.94085 0.15316,2.15521 0.0766,1.20341 0.0766,2.42871 v 6.85948 h -2.25367 v -15.09742 h 3.29299 l 4.81366,12.85468 q -0.0547,-0.45948 -0.14222,-1.34563 -0.0766,-0.88616 -0.15316,-2.07863 -0.0656,-1.19248 -0.0656,-2.54906 v -6.88136 h 2.25367 v 15.09742 z" id="path6449"/><path d="m 591.23058,218.91966 q 0.59077,-0.78769 1.40034,-1.23623 0.80957,-0.44855 1.77231,-0.44855 1.52068,0 2.46153,0.75487 0.9518,0.74393 1.3894,2.11145 0.44855,1.35658 0.44855,3.19452 0,1.76137 -0.52513,3.13983 -0.52513,1.37846 -1.5535,2.16615 -1.01744,0.78769 -2.51624,0.78769 -1.9364,0 -3.04136,-1.43316 l -0.13128,1.13778 h -2.15521 v -16.19143 l 2.45059,-0.2735 z m 2.26462,8.59896 q 1.24717,0 1.92546,-1.01743 0.68923,-1.01743 0.68923,-3.19453 0,-2.22085 -0.62359,-3.19452 -0.61265,-0.98461 -1.75042,-0.98461 -0.82051,0 -1.45504,0.4923 -0.62359,0.49231 -1.05026,1.15966 v 5.40444 q 0.40479,0.62358 0.97368,0.98461 0.57983,0.35008 1.29094,0.35008 z" id="path6451"/><path d="m 618.44973,216.31591 h 2.40683 l -0.2735,4.32136 4.01503,-1.57538 0.73299,2.25367 -4.17914,1.08307 2.74598,3.34769 -1.91452,1.37846 -2.33026,-3.63213 -2.33025,3.63213 -1.91453,-1.37846 2.74598,-3.34769 -4.17914,-1.08307 0.73299,-2.25367 4.01504,1.57538 z" id="path6453"/><path d="m 649.32282,219.67453 v 4.03692 h 1.79418 v 1.90359 h -1.79418 v 3.47897 h -2.35213 l -0.0109,-3.47897 h -6.2687 v -1.70667 l 4.34324,-10.2181 2.06769,0.82051 -3.85094,9.20067 h 3.71966 l 0.29538,-4.03692 z" id="path6455"/><path d="m 660.54747,221.4359 q 0,-2.11145 -0.48137,-3.70871 -0.47043,-1.59727 -1.46598,-2.97573 -0.99556,-1.38939 -2.52718,-2.86632 l 1.35658,-1.31281 q 1.76137,1.45504 3.01948,3.03042 1.26906,1.57538 1.94735,3.47897 0.67829,1.89264 0.67829,4.35418 0,2.46153 -0.67829,4.36512 -0.67829,1.89265 -1.94735,3.46803 -1.25811,1.57538 -3.01948,3.03042 l -1.35658,-1.31282 q 1.56445,-1.4988 2.54906,-2.8882 0.99555,-1.3894 1.45504,-2.97572 0.47043,-1.58632 0.47043,-3.68683 z" id="path6457"/><path d="m 686.35527,216.88479 v 4.40889 h 4.34324 v 1.96922 h -4.34324 v 4.39795 h -2.15521 v -4.39795 h -4.31042 v -1.96922 h 4.31042 v -4.40889 z" id="path6459"/><path d="m 710.04074,221.4359 q 0,2.10051 0.45949,3.68683 0.47042,1.58632 1.45504,2.97572 0.99555,1.3894 2.55999,2.8882 l -1.35658,1.31282 q -1.76136,-1.45504 -3.03042,-3.03042 -1.25812,-1.57538 -1.93641,-3.46803 -0.67829,-1.90359 -0.67829,-4.36512 0,-2.46154 0.67829,-4.35418 0.67829,-1.90359 1.93641,-3.47897 1.26906,-1.57538 3.03042,-3.03042 l 1.35658,1.31281 q -1.53162,1.47693 -2.52717,2.86632 -0.99556,1.37846 -1.47692,2.97573 -0.47043,1.59726 -0.47043,3.70871 z" id="path6461"/><path d="m 724.66772,211.88514 q 0.72205,0 1.15965,0.43761 0.44855,0.43761 0.44855,1.09402 0,0.65641 -0.44855,1.10495 -0.4376,0.44855 -1.15965,0.44855 -0.70017,0 -1.14872,-0.44855 -0.44855,-0.44854 -0.44855,-1.10495 0,-0.65641 0.44855,-1.09402 0.44855,-0.43761 1.14872,-0.43761 z m 1.70666,5.65606 v 9.75862 h 3.13982 v 1.79419 h -9.0475 v -1.79419 h 3.45708 v -7.96443 h -3.34768 v -1.79419 z" id="path6463"/><path d="m 749.73165,216.31591 h 2.40683 l -0.2735,4.32136 4.01503,-1.57538 0.73299,2.25367 -4.17914,1.08307 2.74598,3.34769 -1.91452,1.37846 -2.33026,-3.63213 -2.33025,3.63213 -1.91453,-1.37846 2.74598,-3.34769 -4.17914,-1.08307 0.73299,-2.25367 4.01504,1.57538 z" id="path6465"/><path d="m 778.8872,229.09401 -4.80273,-12.84374 q 0.0438,0.44854 0.13128,1.40034 0.0875,0.94085 0.15316,2.15521 0.0766,1.20341 0.0766,2.42871 v 6.85948 h -2.25367 v -15.09742 h 3.29299 l 4.81367,12.85468 q -0.0547,-0.45948 -0.14223,-1.34563 -0.0766,-0.88616 -0.15316,-2.07863 -0.0656,-1.19248 -0.0656,-2.54906 v -6.88136 h 2.25367 v 15.09742 z" id="path6467"/><path d="m 788.1535,218.91966 q 0.59076,-0.78769 1.40034,-1.23623 0.80957,-0.44855 1.7723,-0.44855 1.52068,0 2.46154,0.75487 0.95179,0.74393 1.38939,2.11145 0.44855,1.35658 0.44855,3.19452 0,1.76137 -0.52513,3.13983 -0.52512,1.37846 -1.5535,2.16615 -1.01743,0.78769 -2.51623,0.78769 -1.93641,0 -3.04137,-1.43316 l -0.13128,1.13778 h -2.15521 v -16.19143 l 2.4506,-0.2735 z m 2.26461,8.59896 q 1.24718,0 1.92546,-1.01743 0.68923,-1.01743 0.68923,-3.19453 0,-2.22085 -0.62358,-3.19452 -0.61265,-0.98461 -1.75043,-0.98461 -0.82051,0 -1.45504,0.4923 -0.62359,0.49231 -1.05025,1.15966 v 5.40444 q 0.40478,0.62358 0.97367,0.98461 0.57983,0.35008 1.29094,0.35008 z" id="path6469"/><path d="m 804.95756,221.4359 q 0,-2.11145 -0.48137,-3.70871 -0.47042,-1.59727 -1.46598,-2.97573 -0.99555,-1.38939 -2.52717,-2.86632 l 1.35658,-1.31281 q 1.76136,1.45504 3.01948,3.03042 1.26906,1.57538 1.94735,3.47897 0.67829,1.89264 0.67829,4.35418 0,2.46153 -0.67829,4.36512 -0.67829,1.89265 -1.94735,3.46803 -1.25812,1.57538 -3.01948,3.03042 l -1.35658,-1.31282 q 1.56444,-1.4988 2.54905,-2.8882 0.99556,-1.3894 1.45504,-2.97572 0.47043,-1.58632 0.47043,-3.68683 z" id="path6471"/><path d="m 830.76542,216.88479 v 4.40889 h 4.34324 v 1.96922 h -4.34324 v 4.39795 h -2.15521 v -4.39795 h -4.31042 v -1.96922 h 4.31042 v -4.40889 z" id="path6473"/><path d="m 857.4485,211.88514 q 0.71111,0 1.15965,0.43761 0.44855,0.43761 0.44855,1.09402 0,0.65641 -0.44855,1.10495 -0.44854,0.44855 -1.15965,0.44855 -0.71111,0 -1.15966,-0.44855 -0.4376,-0.44854 -0.4376,-1.10495 0,-0.65641 0.4376,-1.09402 0.44855,-0.43761 1.15966,-0.43761 z m 1.91453,5.65606 v 9.12409 q 0,2.15521 -0.8971,3.57743 -0.89709,1.42222 -2.61469,2.27555 -1.71761,0.85334 -4.17914,1.29094 l -0.39385,-1.8817 q 1.71761,-0.32821 2.98666,-0.90804 1.26906,-0.57982 1.95829,-1.58632 0.68923,-1.00649 0.68923,-2.60376 v -7.494 h -4.56204 v -1.79419 z" id="path6475"/><path d="m 871.85667,211.19591 v 20.47997 h -5.96238 v -1.9364 h 3.65401 V 213.1542 h -3.65401 v -1.95829 z" id="path6477"/><path d="m 882.20605,217.68343 q 0.83145,0 1.40033,0.57982 0.56889,0.56889 0.56889,1.37846 0,0.80957 -0.56889,1.40034 -0.56888,0.57983 -1.40033,0.57983 -0.83146,0 -1.40034,-0.57983 -0.56889,-0.59077 -0.56889,-1.40034 0,-0.80957 0.56889,-1.37846 0.56888,-0.57982 1.40034,-0.57982 z m 0,7.52682 q 0.84239,0 1.40033,0.56889 0.56889,0.56889 0.56889,1.3894 0,0.48137 -0.15316,0.97367 -0.14222,0.49231 -0.45949,1.20342 l -1.67384,3.82905 h -1.88171 l 1.05026,-4.387 q -0.82051,-0.56889 -0.82051,-1.63008 0,-0.80957 0.56889,-1.37846 0.56888,-0.56889 1.40034,-0.56889 z" id="path6479"/><path d="m 77.961972,255.58012 q 1.520681,0 2.636577,0.3282 1.126836,0.32821 1.684784,1.12684 0.568888,0.79863 0.415725,2.18803 l -0.404785,3.78529 q -0.120342,1.1706 0.645469,1.70666 0.765811,0.53607 2.549056,0.53607 v 1.96923 q -1.772305,0 -2.549056,0.54701 -0.765811,0.547 -0.645469,1.70666 l 0.404785,3.76341 q 0.153163,1.40034 -0.415725,2.19897 -0.557948,0.79864 -1.684784,1.12684 -1.115896,0.32821 -2.636577,0.32821 v -1.80513 q 1.126836,0 1.848886,-0.33914 0.72205,-0.32821 0.623589,-1.26906 l -0.404786,-4.01504 q -0.164102,-1.6082 0.536067,-2.29743 0.71111,-0.70017 2.177091,-0.91897 -1.476921,-0.22975 -2.177091,-0.9518 -0.700169,-0.73299 -0.536067,-2.28649 l 0.404786,-4.01504 q 0.09846,-0.92991 -0.623589,-1.26905 -0.72205,-0.33915 -1.848886,-0.33915 z" id="path6481"/><path d="m 51.705584,300.38004 q 1.520682,0 2.636577,0.32821 1.126836,0.3282 1.684784,1.12683 0.568888,0.79863 0.415726,2.18803 l -0.404786,3.7853 q -0.120342,1.17059 0.645469,1.70666 0.765811,0.53607 2.549056,0.53607 v 1.96923 q -1.772305,0 -2.549056,0.547 -0.765811,0.54701 -0.645469,1.70667 l 0.404786,3.76341 q 0.153162,1.40034 -0.415726,2.19897 -0.557948,0.79863 -1.684784,1.12684 -1.115895,0.3282 -2.636577,0.3282 v -1.80512 q 1.126836,0 1.848886,-0.33915 0.72205,-0.3282 0.623589,-1.26906 l -0.404786,-4.01503 q -0.164102,-1.60821 0.536068,-2.29743 0.71111,-0.70017 2.17709,-0.91898 -1.47692,-0.22974 -2.17709,-0.95179 -0.70017,-0.73299 -0.536068,-2.28649 l 0.404786,-4.01504 q 0.09846,-0.92991 -0.623589,-1.26906 -0.72205,-0.33914 -1.848886,-0.33914 z" id="path6483"/><path d="m 25.449196,345.17997 q 1.520682,0 2.636577,0.3282 1.126836,0.32821 1.684784,1.12684 0.568888,0.79863 0.415726,2.18803 l -0.404786,3.78529 q -0.120341,1.1706 0.645469,1.70667 0.765811,0.53607 2.549056,0.53607 v 1.96922 q -1.772305,0 -2.549056,0.54701 -0.76581,0.54701 -0.645469,1.70666 l 0.404786,3.76342 q 0.153162,1.40034 -0.415726,2.19897 -0.557948,0.79863 -1.684784,1.12683 -1.115895,0.32821 -2.636577,0.32821 v -1.80513 q 1.126836,0 1.848886,-0.33914 0.722051,-0.32821 0.623589,-1.26906 l -0.404786,-4.01504 q -0.164102,-1.6082 0.536068,-2.29743 0.71111,-0.70017 2.177091,-0.91897 -1.476921,-0.22974 -2.177091,-0.95179 -0.70017,-0.73299 -0.536068,-2.2865 l 0.404786,-4.01503 q 0.09846,-0.92992 -0.623589,-1.26906 -0.72205,-0.33915 -1.848886,-0.33915 z" id="path6485"/></g></g></g></g></g></svg>