<?xml version="1.0" encoding="UTF-8" standalone="no"?>
<svg
   width="56"
   height="56"
   viewBox="0 0 14.816666 14.816667"
   version="1.1"
   id="svg5"
   xml:space="preserve"
   xmlns="http://www.w3.org/2000/svg"
   xmlns:svg="http://www.w3.org/2000/svg"><defs
     id="defs2" /><g
     id="layer1"><g
       id="g4110"
       transform="matrix(0.01019056,0,0,0.01019056,0.0874417,-0.28132992)"
       style="opacity:0.813693;stroke-width:25.9635">
    <g
   id="g4108"
   style="stroke-width:25.9635">


        <path
   fill="#fdfdfc"
   d="M 386.381,1345.265 C 225.406,1253.244 114.496,1121.115 57.369,945.701 12.261,807.191 12.128,667.35 55.623,528.479 145.91,240.206 407.603,49.928 695.459,40.938 c 312.813,-9.77 577.753,186.65 675.275,456.981 57.999,160.773 57.257,322.353 -3.493,482.245 -60.656,159.644 -167.609,280.277 -317.127,365.118 8.002,0.496 14.84,1.012 21.688,1.329 45.767,2.117 91.475,5.136 136.998,10.332 29.749,3.395 59.539,6.927 88.063,16.855 6.158,2.143 12.083,4.862 17.147,9.025 13.702,11.262 10.692,35.995 -5.453,45.173 -12.194,6.931 -25.681,10.085 -39.235,12.704 -36.018,6.959 -72.511,10.089 -109.01,13.258 -69.741,6.055 -139.649,8.794 -209.583,11.039 -34.472,1.107 -68.953,2.043 -103.438,2.577 -85.98,1.332 -171.967,1.36 -257.947,0.01 -65.142,-1.023 -130.264,-3.012 -195.346,-5.975 -46.757,-2.129 -93.472,-5.105 -140.072,-9.611 -33.3,-3.22 -66.64,-6.239 -99.261,-14.192 -8.571,-2.09 -16.904,-4.865 -24.845,-8.863 -11.569,-5.824 -15.616,-15.197 -15.325,-27.796 0.274,-11.879 6.632,-18.627 16.373,-23.447 13.264,-6.562 27.546,-9.824 41.922,-12.611 32.243,-6.251 64.876,-9.517 97.566,-12.295 37.684,-3.203 75.427,-5.459 113.206,-7.152 0.598,-0.027 1.192,-0.155 2.819,-0.376 z m 563.156,20.188 c 51.355,-19.996 99.965,-45.006 145.412,-75.996 45.624,-31.111 86.871,-67.279 123.609,-108.542 36.693,-41.214 67.972,-86.175 93.618,-135.06 25.601,-48.797 44.885,-99.933 57.853,-153.504 12.995,-53.685 19.113,-108.126 18.701,-163.311 -0.412,-55.193 -7.399,-109.595 -21.455,-162.958 C 1292.1,280.679 1042.234,79.998 752.97,65.203 461.246,50.282 193.241,224.855 90.687,500.461 c -64.466,173.247 -58.311,346.103 19.005,514.165 77.331,168.096 205.776,283.238 378.791,350.85 -76.221,2.57 -151.102,5.774 -225.79,12.379 -32.67,2.889 -65.299,6.262 -97.424,13.136 -7.592,1.625 -15.306,3.325 -22.199,7.232 -6.078,3.445 -6.011,6.934 0.114,10.431 3.341,1.908 6.973,3.09 10.659,4.134 27.518,7.785 55.859,10.707 84.125,13.801 51.35,5.62 102.931,8.425 154.497,11 65.068,3.25 130.198,5.17 195.342,6.084 161.48,2.265 322.912,1.104 484.221,-7.722 55.387,-3.03 110.731,-6.501 165.711,-14.204 17.292,-2.423 34.575,-5.066 51.11,-10.983 3.786,-1.355 9.029,-2.501 9.07,-7.341 0.042,-4.883 -5.259,-6.022 -9,-7.391 -12.695,-4.646 -25.959,-7.092 -39.264,-9.191 -34.4,-5.425 -69.035,-8.722 -103.75,-11.294 -44.859,-3.324 -89.755,-5.971 -134.704,-7.719 -20.554,-0.8 -41.109,-1.584 -61.664,-2.375 z"
   id="path4098"
   style="stroke-width:172.512" />
        <path
   fill="#231f20"
   d="m 949.537,1365.453 c 20.555,0.791 41.11,1.575 61.665,2.375 44.948,1.748 89.845,4.395 134.704,7.719 34.715,2.572 69.35,5.869 103.75,11.294 13.305,2.098 26.569,4.545 39.264,9.191 3.74,1.369 9.042,2.507 9,7.391 -0.042,4.841 -5.284,5.986 -9.07,7.341 -16.535,5.917 -33.817,8.561 -51.11,10.983 -54.98,7.703 -110.324,11.174 -165.711,14.204 -161.309,8.825 -322.74,9.987 -484.221,7.722 -65.144,-0.914 -130.274,-2.834 -195.342,-6.084 -51.566,-2.575 -103.147,-5.38 -154.497,-11 -28.266,-3.094 -56.607,-6.016 -84.125,-13.801 -3.687,-1.043 -7.318,-2.225 -10.659,-4.134 -6.124,-3.498 -6.191,-6.987 -0.114,-10.431 6.894,-3.907 14.607,-5.608 22.199,-7.232 32.125,-6.875 64.754,-10.247 97.424,-13.136 74.688,-6.605 149.569,-9.809 225.79,-12.379 C 315.469,1297.865 187.024,1182.722 109.693,1014.626 32.378,846.564 26.223,673.708 90.688,500.461 193.241,224.855 461.246,50.282 752.97,65.203 c 289.263,14.795 539.129,215.476 614.304,500.878 14.056,53.362 21.042,107.764 21.455,162.958 0.412,55.185 -5.706,109.627 -18.701,163.311 -12.968,53.572 -32.252,104.707 -57.853,153.504 -25.646,48.885 -56.925,93.846 -93.618,135.06 -36.737,41.263 -77.984,77.431 -123.609,108.542 -45.446,30.991 -94.057,56.001 -145.411,75.997 z m -222.933,-72.692 c 307.326,-4.299 560.164,-260.764 549.137,-578.055 -10.315,-296.783 -255.643,-539.46 -561.086,-537.616 -311.441,1.88 -564.443,261.031 -553.678,577.556 10.126,297.753 257.398,542.127 565.627,538.115 z"
   id="path4100"
   style="stroke-width:172.512" />
        <path
   fill="#d53826"
   d="M 726.604,1292.761 C 418.375,1296.773 171.103,1052.399 160.976,754.647 150.212,438.122 403.214,178.97 714.655,177.09 c 305.443,-1.844 550.771,240.833 561.086,537.616 11.027,317.291 -241.81,573.756 -549.137,578.055 z m -4.339,-703.694 c -152.141,0 -304.283,0.02 -456.424,-0.097 -4.626,-0.004 -6.248,0.891 -6.234,5.927 0.177,66.155 0.147,132.311 0.108,198.467 -0.021,34.733 3.959,68.75 17.306,101.199 12.721,30.928 33.156,55.176 62.141,72.032 30.12,17.515 63.264,24.482 97.485,25.943 36.619,1.564 73.315,0.998 109.965,0.25 24.384,-0.498 48.409,-4.086 71.662,-11.845 34.971,-11.67 62.121,-32.769 79.605,-65.703 3.813,-7.183 5.991,-15.206 11.311,-21.622 3.592,-4.332 17.503,-7.785 22.614,-5.421 1.174,0.543 1.526,1.695 2.125,2.668 3.238,5.265 5.608,10.95 8.167,16.557 15.181,33.264 39.929,56.468 73.859,69.977 26.658,10.614 54.568,14.842 83.012,15.409 29.151,0.581 58.32,0.249 87.482,0.319 27.096,0.065 53.81,-2.652 79.932,-10.308 44.051,-12.912 77.296,-38.87 97.136,-80.71 13.175,-27.783 19.607,-57.519 19.967,-88.011 0.856,-72.478 0.492,-144.971 0.593,-217.457 0.012,-8.443 0.9,-7.563 -7.386,-7.563 -151.477,-0.014 -302.952,-0.011 -454.426,-0.011 z"
   id="path4102"
   style="stroke-width:172.512" />
        <path
   fill="#231f20"
   d="m 722.265,589.067 c 151.475,0 302.949,-0.004 454.424,0.01 8.286,10e-4 7.398,-0.88 7.386,7.563 -0.101,72.487 0.262,144.979 -0.593,217.457 -0.36,30.492 -6.792,60.228 -19.967,88.011 -19.841,41.841 -53.085,67.798 -97.136,80.71 -26.122,7.657 -52.836,10.373 -79.932,10.308 -29.161,-0.07 -58.331,0.262 -87.482,-0.319 -28.444,-0.567 -56.354,-4.795 -83.012,-15.409 -33.93,-13.51 -58.679,-36.713 -73.859,-69.977 -2.559,-5.606 -4.928,-11.292 -8.167,-16.557 -0.598,-0.973 -0.951,-2.125 -2.125,-2.668 -5.111,-2.364 -19.022,1.089 -22.614,5.421 -5.319,6.415 -7.497,14.439 -11.311,21.622 -17.484,32.934 -44.634,54.033 -79.605,65.703 -23.253,7.76 -47.278,11.348 -71.662,11.845 -36.651,0.748 -73.346,1.314 -109.965,-0.25 -34.221,-1.461 -67.365,-8.428 -97.485,-25.943 -28.986,-16.856 -49.42,-41.104 -62.141,-72.032 -13.347,-32.449 -17.327,-66.466 -17.306,-101.199 0.04,-66.156 0.069,-132.311 -0.108,-198.467 -0.013,-5.035 1.608,-5.93 6.234,-5.927 152.143,0.119 304.284,0.098 456.426,0.098 z m -0.075,125.079 c -114.983,0 -229.965,0.024 -344.948,-0.096 -4.255,-0.004 -5.609,0.787 -5.538,5.365 0.3,19.492 0.059,38.992 0.154,58.489 0.054,11.152 -0.491,22.315 0.956,33.445 3.292,25.327 16.267,42.668 40.997,50.653 11.831,3.82 23.981,5.743 36.329,5.863 29.326,0.286 58.656,0.291 87.984,0.246 19.182,-0.029 38.308,-1.013 56.902,-6.301 22.075,-6.278 38.725,-18.801 46.455,-41.278 4.866,-14.149 14.013,-25.041 26.673,-32.519 29.427,-17.382 60.571,-18.698 92.295,-7.525 19.893,7.006 34.792,19.988 42.065,40.415 6.029,16.934 17.255,28.843 33.591,36.226 16.563,7.486 34.21,9.873 52.02,10.481 33.976,1.159 67.98,0.559 101.974,0.38 11.366,-0.06 22.602,-1.313 33.62,-4.127 15.073,-3.849 28.363,-10.625 37.299,-23.983 7.651,-11.438 10.558,-24.422 10.73,-37.892 0.35,-27.325 0.056,-54.658 0.355,-81.984 0.053,-4.813 -1.122,-5.983 -5.964,-5.977 -114.65,0.153 -229.3,0.119 -343.949,0.119 z"
   id="path4104"
   style="stroke-width:172.512" />
        <path
   fill="#fdfdfd"
   d="m 722.19,714.146 c 114.649,0 229.299,0.034 343.948,-0.118 4.842,-0.006 6.017,1.163 5.964,5.977 -0.299,27.326 -0.01,54.659 -0.355,81.984 -0.173,13.47 -3.079,26.453 -10.73,37.892 -8.936,13.358 -22.226,20.134 -37.299,23.983 -11.018,2.814 -22.254,4.067 -33.62,4.127 -33.993,0.18 -67.998,0.779 -101.974,-0.38 -17.81,-0.607 -35.456,-2.995 -52.02,-10.481 -16.336,-7.383 -27.562,-19.292 -33.591,-36.226 -7.273,-20.427 -22.172,-33.409 -42.065,-40.415 -31.723,-11.173 -62.868,-9.857 -92.295,7.525 -12.659,7.478 -21.806,18.37 -26.673,32.519 -7.73,22.476 -24.38,35 -46.455,41.278 -18.594,5.288 -37.72,6.271 -56.902,6.301 -29.328,0.045 -58.658,0.04 -87.984,-0.246 -12.348,-0.12 -24.497,-2.043 -36.329,-5.863 -24.73,-7.985 -37.704,-25.326 -40.997,-50.653 -1.447,-11.13 -0.902,-22.293 -0.956,-33.445 -0.095,-19.497 0.146,-38.997 -0.154,-58.489 -0.07,-4.578 1.283,-5.369 5.538,-5.365 114.984,0.12 229.967,0.095 344.949,0.095 z"
   id="path4106"
   style="stroke-width:172.512" />
    </g>
</g></g></svg>
