<?xml version="1.0" encoding="UTF-8" standalone="no"?>
<!-- Generator: Adobe Illustrator 26.5.0, SVG Export Plug-In . SVG Version: 6.00 Build 0)  -->

<svg
   version="1.1"
   id="svg10"
   x="0px"
   y="0px"
   viewBox="0 0 154.00001 55.999999"
   xml:space="preserve"
   width="154"
   height="56"
   xmlns="http://www.w3.org/2000/svg"
   xmlns:svg="http://www.w3.org/2000/svg"><defs
   id="defs1216" />
<style
   type="text/css"
   id="style1177">
	.st0{fill:#FFFFFF;}
	.st1{fill:#FFF41E;}
	.st2{fill:none;}
	.st3{font-family:'Verdana';}
	.st4{font-size:37.3333px;}
	.st5{fill:#0C2342;}
</style>


<g
   id="g4711"
   transform="matrix(0.1847248,0,0,0.1847248,-26.571498,-44.40228)"
   style="stroke-width:5.41345"><g
     id="g1211"
     style="stroke-width:5.41345">
	
		<g
   id="g18_00000110441534471971741090000009528338930920614331_"
   transform="matrix(1.3333333,0,0,-1.3333333,0,794.66667)"
   style="stroke-width:5.41345">
		<g
   id="g20_00000145776798277634785410000008292704954504907650_"
   transform="scale(0.1)"
   style="stroke-width:5.41345">
			<path
   id="path22_00000168104526288278541120000006437060522972682401_"
   class="st0"
   d="m 3551,3478.8 c 0,68 -14.4,136 -98.9,136 -84.5,0 -98.9,-68 -98.9,-136 V 2904 l -290.5,-183.4 c -18.5,-12.4 -39.1,-18.5 -61.8,-18.5 H 2935 c -47.4,0 -98.9,12.4 -115.4,41.2 -16.5,28.9 -18.5,82.4 -20.6,127.7 l 0.7,607.7 c -2.1,63.9 -12.4,136 -96.8,136 -90.6,0 -100.9,-76.2 -98.9,-148.3 l -0.7,-622.1 c 4.1,-107.1 2.1,-191.6 90.6,-267.8 65.9,-55.6 127.7,-72.1 183.4,-72.1 h 146.3 c 53.6,0 107.1,24.7 171,65.9 l 160.7,105.1 v -33 c 0,-68 14.4,-138 98.9,-138 105.1,0 96.8,100.9 96.8,146.3 v 828.1"
   style="stroke-width:5.41345" />
			<path
   id="path24_00000073695769310818575110000010023495994283866795_"
   class="st0"
   d="m 5626.1,3884.6 c 0,117.4 -33,138 -146.3,138 h -208.1 c -65.9,0 -136,-14.4 -136,-98.9 0,-86.5 78.3,-98.9 136,-98.9 h 156.6 V 2702.1 h -156.6 c -65.9,0 -136,-14.4 -136,-98.9 0,-86.5 78.3,-98.9 136,-98.9 h 502.7 c 57.7,0 136,12.4 136,98.9 0,84.5 -70,98.9 -136,98.9 h -148.3 v 1182.5"
   style="stroke-width:5.41345" />
			<path
   id="path26_00000005977646746429594320000010664826039070186670_"
   class="st0"
   d="m 6459.2,3614.8 c -82.4,0 -127.7,-16.5 -189.5,-70 l -68,-57.7 c -82.4,-70 -109.2,-123.6 -109.2,-228.7 v -397.6 c 0,-105.1 26.8,-158.6 109.2,-228.7 l 68,-57.7 c 28.9,-24.7 103,-70 168.9,-70 h 191.6 c 59.7,0 127.7,43.3 189.5,100.9 l 43.3,43.3 v -12.4 c 0,-65.9 20.6,-131.8 98.9,-131.8 84.5,0 98.9,70 98.9,138 v 1244.3 c 0,68 -14.4,136 -98.9,136 -84.5,0 -98.9,-68 -98.9,-136 v -416.1 l -33,35 c -72.1,72.1 -127.7,109.2 -195.7,109.2 z m -168.9,-434.7 c 0,55.6 0,125.7 30.9,150.4 l 59.7,47.4 c 24.7,20.6 49.4,39.1 74.2,39.1 h 140.1 c 24.7,0 59.7,-16.5 96.8,-49.4 l 113.3,-96.8 c 28.8,-24.7 57.7,-49.4 57.7,-86.5 V 2935 c 0,-37.1 -28.8,-61.8 -57.7,-86.5 L 6692,2751.7 c -37.1,-33 -72.1,-49.4 -96.8,-49.4 h -140.1 c -24.7,0 -49.4,18.5 -74.2,39.1 l -59.7,47.4 c -30.9,24.7 -30.9,94.8 -30.9,150.4 v 240.9"
   style="stroke-width:5.41345" />
			<path
   id="path28_00000023967297117740624530000014708390312708796058_"
   class="st0"
   d="m 1951,3614.8 c 82.4,0 127.7,-16.5 189.5,-70 l 68,-57.7 c 82.4,-70 109.2,-123.6 109.2,-228.7 v -397.6 c 0,-105.1 -26.8,-158.6 -109.2,-228.7 l -68,-57.7 c -28.8,-24.7 -103,-70 -168.9,-70 H 1780 c -59.7,0 -127.7,43.3 -189.5,100.9 l -43.3,43.3 v -12.4 c 0,-65.9 -20.6,-131.8 -98.9,-131.8 -84.5,0 -98.9,70 -98.9,138 v 1244.3 c 0,68 14.4,136 98.9,136 84.5,0 98.9,-68 98.9,-136 v -416.1 l 33,35 c 72.1,72.1 127.7,109.2 195.7,109.2 z m 169,-434.7 c 0,55.6 0,125.7 -30.9,150.4 l -59.7,47.4 c -24.7,20.6 -49.4,39.1 -74.2,39.1 h -140.1 c -24.7,0 -59.7,-16.5 -96.8,-49.4 L 1605,3270.8 c -28.8,-24.7 -57.7,-49.4 -57.7,-86.5 V 2935 c 0,-37.1 28.8,-61.8 57.7,-86.5 l 113.3,-96.8 c 37.1,-33 72.1,-49.4 96.8,-49.4 h 140.1 c 24.7,0 49.4,18.5 74.2,39.1 l 59.7,47.4 c 30.9,24.7 30.9,94.8 30.9,150.4 v 240.9"
   style="stroke-width:5.41345" />
			<g
   id="g1190"
   style="stroke-width:5.41345">
				<polygon
   class="st0"
   points="4361.9,3505.6 4528.3,3505.6 4528.3,3846.3 4193.7,3846.3 4193.7,3505.6 4360.2,3505.6 "
   id="polygon1184"
   style="stroke-width:5.41345" />
				<path
   class="st1"
   d="m 4798.3,3560.5 h -27.6 v 397.2 c 0,0 0,115.6 -103.6,115.6 H 4055 c 0,0 -103.6,-12 -103.6,-115.6 v -397.2 h -27.6 c 0,0 -148,-28.4 -148,-176.4 v -825.5 c 0,0 14.2,-204.7 162.2,-204.7 l 65.5,56.2 c -97.3,6.5 -156.3,68.8 -156.3,163.6 v 766 c 0,50.9 15.6,92 46.8,119.9 31.2,27.9 72.8,46 126.5,46 v 422.9 c 0,42.7 27.7,82.1 86.6,82.1 h 253.1 1.7 253 c 58.9,0 86.6,-39.4 86.6,-82.1 v -422.9 c 53.7,0 95.3,-18.1 126.5,-46 31.2,-27.9 46.8,-69 46.8,-119.9 v -766 c 0,-21 -3,-40.3 -8.6,-57.8 48.6,-2.2 80,9.3 80,42.8 v 825.5 c 0.1,0 0.1,176.3 -147.9,176.3 z"
   id="path1186"
   style="stroke-width:5.41345" />
				<path
   class="st2"
   d="m 4874.9,3339.7 c 0,50.9 -15.6,92 -46.8,119.9 -31.2,27.9 -72.8,46 -126.5,46 v 422.9 c 0,42.7 -27.7,82.1 -86.6,82.1 h -253 -1.7 -253.1 c -58.9,0 -86.6,-39.4 -86.6,-82.1 v -422.9 c -53.7,0 -95.3,-18.1 -126.5,-46 -31.2,-27.9 -46.8,-69 -46.8,-119.9 v -766 c 0,-94.8 59,-157.1 156.3,-163.6 l 198,169.7 h -181 v 703.7 h 681.1 v -703.7 0 0 h -92 c 93.6,-32.9 190.9,-61 256.7,-63.9 5.5,17.6 8.6,36.8 8.6,57.8 z M 4562,3478.6 h -406.8 v 391.2 H 4562 Z"
   id="path1188"
   style="stroke-width:5.41345" />
			</g>
			<path
   id="path36_00000159432543684605991580000013483992493287101846_"
   class="st2"
   d="M 3984.5,3318.3 V 2525.4 H 4734 v 792.9 h -749.5"
   style="stroke-width:5.41345" />
			<g
   id="g1203"
   style="stroke-width:5.41345">
				<path
   class="st2"
   d="m 4504.6,3017.7 v 0.8 c -1.9,-0.3 -3.9,-0.6 -6,-0.8 z"
   id="path1193"
   style="stroke-width:5.41345" />
				<path
   class="st2"
   d="m 4504.6,3177.4 h -3.5 c 1.1,-0.2 2.3,-0.4 3.5,-0.7 z"
   id="path1195"
   style="stroke-width:5.41345" />
				<path
   class="st0"
   d="m 4685.1,2667 v 573.6 c 0,0 0,64.6 -61.6,64.6 h -107.3 -11.6 -398.3 c 0,0 -61.6,0 -61.6,-48.5 v -30.8 c 0,0 0.1,-40.8 47.8,-47.4 h 398.7 c 0,0 4,0 9.9,-1 h 3.5 v -0.7 c 18.1,-3.9 48.2,-17 48.2,-60.6 v -36.6 c 0,0 -0.1,-52.7 -48.2,-61.1 v -0.8 h -6 c -2.4,-0.2 -4.8,-0.5 -7.5,-0.5 H 4099 c -16.2,-1.7 -54.5,-9.7 -54.5,-48 v -30.9 c 0,0 0,-36.7 40.6,-46.2 H 4491 c 0,0 61.6,0 61.6,-62.3 v -39 c 0,0 0,-62.3 -61.6,-62.3 h -398.3 v 0.3 c -18.1,-3.1 -48.2,-13.2 -48.2,-47.1 v -30.8 c 0,0 0,-48.5 61.6,-48.5 h 517.2 c 0.2,0.1 61.8,0.1 61.8,64.6 z"
   id="path1197"
   style="stroke-width:5.41345" />
				<path
   class="st0"
   d="m 4498.6,3017.7 h -392.4 c 0,0 -2.8,0 -7.1,-0.5 h 392.1 c 2.6,0 5,0.3 7.4,0.5 z"
   id="path1199"
   style="stroke-width:5.41345" />
				<path
   class="st0"
   d="m 4501.1,3177.4 c -5.9,1 -9.9,1 -9.9,1 h -398.7 c 4.3,-0.6 8.7,-1 13.8,-1 z"
   id="path1201"
   style="stroke-width:5.41345" />
			</g>
		</g>
	</g>
	<g
   id="g1209"
   style="stroke-width:5.41345">
		<g
   aria-label="build38.com"
   transform="translate(617.9897,531.8481)"
   id="text1207"
   class="st0 st3 st4"
   style="font-size:37.3333px;font-family:Verdana;fill:#ffffff;stroke-width:5.41345"><path
     d="m 5.7493284,-16.687986 q 0.5599996,-0.336 1.605332,-0.671999 1.0826657,-0.373333 2.3893313,-0.373333 1.7546653,0 3.1359973,0.671999 1.381332,0.672 2.314665,1.866665 0.970666,1.194666 1.455998,2.874664 0.522667,1.642666 0.522667,3.658664 0,2.0906649 -0.597333,3.7706635 -0.597333,1.6799986 -1.679999,2.8746642 -1.082665,1.15733236 -2.613331,1.79199849 -1.530665,0.63466613 -3.3973302,0.63466613 -2.0533316,0 -3.6586636,-0.29866642 -1.605332,-0.29866641 -2.5759978,-0.59733282 V -25.349312 l 3.098664,-0.522666 z m 0,13.9999883 q 0.7093328,0.1866665 1.4186655,0.2986664 0.7093327,0.074667 1.3439989,0.074667 2.5759982,0 4.0319962,-1.5679987 1.455999,-1.6053319 1.455999,-4.7786626 0,-1.3439994 -0.261333,-2.5013314 -0.261333,-1.194666 -0.821333,-2.015998 -0.559999,-0.858666 -1.455998,-1.343999 -0.858666,-0.485333 -2.0906653,-0.485333 -1.0826658,0 -2.0906649,0.447999 -1.0079991,0.410667 -1.5306654,0.896 z"
     id="path3204"
     style="stroke-width:5.41345" /><path
     d="m 34.682637,-0.48533292 q -1.007999,0.26133311 -2.687998,0.55999952 -1.642665,0.29866642 -3.882663,0.29866642 -1.978665,0 -3.28533,-0.55999953 -1.306666,-0.59733282 -2.127999,-1.64266529 -0.821332,-1.0826657 -1.157332,-2.5386645 -0.336,-1.4559987 -0.336,-3.2106639 v -9.7439918 h 3.061331 v 9.0719924 q 0,3.2106639 0.933333,4.5546627 0.970665,1.3439989 3.210663,1.3439989 0.485333,0 0.970666,-0.037333 0.522667,-0.037333 0.970666,-0.074667 0.448,-0.074667 0.783999,-0.1119999 0.336,-0.074667 0.448,-0.1119999 V -17.322652 h 3.098664 z"
     id="path3206"
     style="stroke-width:5.41345" /><path
     d="m 45.135962,-20.01065 q -0.970666,0 -1.679999,-0.671999 -0.709333,-0.671999 -0.709333,-1.829332 0,-1.157332 0.709333,-1.829332 0.709333,-0.671999 1.679999,-0.671999 1.007999,0 1.679998,0.671999 0.709333,0.672 0.709333,1.829332 0,1.157333 -0.709333,1.829332 -0.671999,0.671999 -1.679998,0.671999 z m -0.784,5.263996 H 39.3493 v -2.575998 h 8.063993 v 10.639991 q 0,2.5759978 0.709333,3.4719971 0.709332,0.8586659 2.127998,0.8586659 1.082666,0 1.978665,-0.2613331 0.933332,-0.2613331 1.455999,-0.5599995 l 0.447999,2.61333108 q -0.224,0.1119999 -0.634666,0.29866641 -0.410666,0.14933321 -0.970666,0.29866641 -0.522666,0.14933321 -1.194665,0.26133311 -0.634667,0.11199991 -1.343999,0.11199991 -1.642666,0 -2.725331,-0.44799962 -1.082666,-0.44799962 -1.754665,-1.3439989 -0.634667,-0.8959992 -0.896,-2.2026647 -0.261333,-1.3439989 -0.261333,-3.0986641 z"
     id="path3208"
     style="stroke-width:5.41345" /><path
     d="m 68.61861,0.41066632 q -1.642665,0 -2.725331,-0.44799962 -1.082666,-0.44799962 -1.717332,-1.3439989 -0.634666,-0.8959992 -0.895999,-2.2026647 -0.261333,-1.3439989 -0.261333,-3.0986641 V -23.07198 h -5.002662 v -2.613331 h 8.063993 v 19.00265 q 0,1.3066656 0.149333,2.1279982 0.186666,0.8213326 0.522666,1.3439989 0.373333,0.4853329 0.895999,0.6719994 0.522667,0.1866665 1.231999,0.1866665 1.082666,0 2.015999,-0.2613331 0.933332,-0.2613331 1.455998,-0.5599995 l 0.448,2.61333108 q -0.224,0.1119999 -0.634666,0.29866641 -0.410667,0.14933321 -0.970666,0.29866641 -0.56,0.14933321 -1.231999,0.26133311 -0.634666,0.11199991 -1.343999,0.11199991 z"
     id="path3210"
     style="stroke-width:5.41345" /><path
     d="m 87.583925,-13.663988 q -0.522666,-0.485333 -1.530665,-0.896 -1.007999,-0.447999 -2.090665,-0.447999 -1.231999,0 -2.127998,0.485333 -0.858666,0.485333 -1.418665,1.343999 -0.56,0.821332 -0.821333,2.015998 -0.261333,1.157332 -0.261333,2.501331 0,3.0239975 1.418665,4.6666627 1.418666,1.6426653 3.695997,1.6426653 1.157332,0 1.941332,-0.1119999 0.821332,-0.1119999 1.194665,-0.2239998 z m 0,-11.685324 3.098664,-0.522666 v 25.38664508 q -1.007999,0.29866641 -2.575997,0.59733282 -1.567999,0.29866642 -3.658664,0.29866642 -1.866665,0 -3.39733,-0.63466613 -1.530666,-0.63466613 -2.613331,-1.79199849 -1.082666,-1.1946656 -1.679999,-2.8746642 -0.597333,-1.6799986 -0.597333,-3.7706635 0,-2.015998 0.485333,-3.658664 0.522666,-1.679998 1.493332,-2.874664 0.970666,-1.194665 2.314665,-1.866665 1.381332,-0.671999 3.135997,-0.671999 1.381332,0 2.426665,0.335999 1.045332,0.336 1.567998,0.709333 z"
     id="path3212"
     style="stroke-width:5.41345" /><path
     d="m 101.24791,-2.2399981 q 2.94933,0 4.18133,-1.1573323 1.26933,-1.1946657 1.26933,-3.1733307 0,-1.2693322 -0.52266,-2.1279982 -0.52267,-0.8586659 -1.38133,-1.3813317 -0.85867,-0.522667 -1.97867,-0.746666 -1.12,-0.224 -2.352,-0.224 h -0.783997 v -2.501331 h 1.082667 q 0.82133,0 1.68,-0.149334 0.896,-0.186666 1.60533,-0.597332 0.74667,-0.448 1.19467,-1.194666 0.44799,-0.746666 0.44799,-1.903999 0,-1.903998 -1.19466,-2.687997 -1.15733,-0.821333 -2.72533,-0.821333 -1.60533,0 -2.725333,0.485333 -1.119999,0.448 -1.866665,0.933333 l -1.194666,-2.351998 q 0.784,-0.56 2.351998,-1.157333 1.605332,-0.634666 3.546666,-0.634666 1.82933,0 3.136,0.448 1.30666,0.447999 2.12799,1.269332 0.85867,0.821333 1.26934,1.941332 0.41066,1.082665 0.41066,2.389331 0,1.829332 -0.97066,3.098664 -0.93334,1.269332 -2.42667,1.941332 1.792,0.522666 3.09867,2.053331 1.30666,1.4933323 1.30666,3.9946635 0,1.4933321 -0.52266,2.7999976 -0.48534,1.2693323 -1.53067,2.2026648 -1.008,0.93333258 -2.65066,1.4559988 -1.60534,0.52266622 -3.84533,0.52266622 -0.85867,0 -1.792003,-0.14933321 Q 98.597247,0.22399981 97.813248,0 97.029249,-0.18666651 96.394583,-0.37333302 95.79725,-0.59733282 95.535917,-0.70933273 L 96.13325,-3.3599971 q 0.597332,0.2986664 1.903998,0.7093327 1.306666,0.4106663 3.210662,0.4106663 z"
     id="path3214"
     style="stroke-width:5.41345" /><path
     d="m 128.76256,-6.0106615 q 0,2.9119975 -1.86666,4.7039959 -1.82934,1.79199852 -5.6,1.79199852 -2.16533,0 -3.584,-0.55999952 -1.41866,-0.59733283 -2.27733,-1.4933321 -0.82133,-0.9333325 -1.19466,-2.0533315 -0.336,-1.1199991 -0.336,-2.2026648 0,-1.978665 1.08266,-3.5093304 1.08267,-1.5306656 2.576,-2.4639976 -3.17333,-1.791999 -3.17333,-5.487996 0,-1.269332 0.48533,-2.426664 0.48534,-1.157333 1.38133,-2.015998 0.896,-0.858666 2.16534,-1.381333 1.30666,-0.522666 2.91199,-0.522666 1.86667,0 3.17333,0.56 1.344,0.559999 2.16534,1.455998 0.82133,0.858666 1.19466,1.941332 0.37333,1.045333 0.37333,2.053332 0,1.978665 -1.00799,3.434663 -1.008,1.418666 -2.31467,2.277332 3.84533,1.829332 3.84533,5.8986615 z m -11.87199,0.2239998 q 0,0.5973328 0.224,1.2693322 0.224,0.6346661 0.74667,1.1946657 0.52266,0.5599995 1.38133,0.9333325 0.85866,0.3359997 2.09066,0.3359997 1.15734,0 1.97867,-0.2986664 0.85866,-0.3359997 1.38133,-0.8586659 0.56,-0.5599996 0.82133,-1.231999 0.26134,-0.6719994 0.26134,-1.3439988 0,-2.1279982 -1.53067,-3.2479973 -1.53066,-1.157332 -4.21866,-1.754665 -1.49333,0.8213325 -2.31467,2.0533314 -0.82133,1.231999 -0.82133,2.9493309 z m 8.36266,-11.8346563 q 0,-0.485333 -0.224,-1.082666 -0.224,-0.634666 -0.70933,-1.119999 -0.448,-0.522666 -1.19467,-0.858666 -0.74666,-0.373333 -1.792,-0.373333 -1.08266,0 -1.82933,0.336 -0.70933,0.335999 -1.19466,0.858666 -0.48534,0.485332 -0.70934,1.119999 -0.18666,0.597332 -0.18666,1.194665 0,1.530666 1.08266,2.874664 1.12,1.306666 3.65867,1.903999 1.41866,-0.821333 2.23999,-1.941332 0.85867,-1.119999 0.85867,-2.911997 z"
     id="path3216"
     style="stroke-width:5.41345" /><path
     d="m 142.76254,-2.3893313 q 0,1.119999 -0.74667,1.97866498 -0.74666,0.85866594 -1.97866,0.85866594 -1.26933,0 -2.016,-0.85866594 -0.74667,-0.85866598 -0.74667,-1.97866498 0,-1.1573323 0.74667,-2.0159983 0.74667,-0.8586659 2.016,-0.8586659 1.232,0 1.97866,0.8586659 0.74667,0.858666 0.74667,2.0159983 z"
     id="path3218"
     style="stroke-width:5.41345" /><path
     d="m 151.16254,-8.6239927 q 0,-2.3519983 0.74666,-4.0693303 0.74667,-1.717331 2.05334,-2.83733 1.30666,-1.119999 3.02399,-1.642666 1.75467,-0.559999 3.73333,-0.559999 1.26934,0 2.50133,0.186666 1.26934,0.149333 2.688,0.597333 l -0.70933,2.650665 q -1.232,-0.448 -2.27733,-0.56 -1.008,-0.149333 -2.05333,-0.149333 -1.344,0 -2.53867,0.373333 -1.19466,0.336 -2.09066,1.119999 -0.85867,0.746666 -1.38134,1.978665 -0.52266,1.194665 -0.52266,2.9119973 0,1.6426653 0.48533,2.837331 0.48533,1.1573323 1.344,1.9413316 0.896,0.7466661 2.128,1.1199991 1.232,0.373333 2.72533,0.373333 1.19467,0 2.27733,-0.1119999 1.12,-0.1493332 2.42667,-0.5973328 l 0.448,2.57599778 Q 164.86386,0 163.51986,0.18666651 q -1.344,0.22399981 -2.912,0.22399981 -2.09066,0 -3.84533,-0.55999953 -1.71733,-0.59733282 -2.98666,-1.71733189 -1.232,-1.119999 -1.94133,-2.7999976 -0.672,-1.7173319 -0.672,-3.95733 z"
     id="path3220"
     style="stroke-width:5.41345" /><path
     d="m 185.17318,-8.661326 q 0,2.0533316 -0.59733,3.7333302 -0.56,1.6426653 -1.60533,2.8373309 -1.04534,1.19466566 -2.50133,1.86666509 -1.456,0.63466613 -3.17334,0.63466613 -1.67999,0 -3.13599,-0.63466613 -1.41867,-0.67199943 -2.464,-1.86666509 -1.04533,-1.1946656 -1.64267,-2.8373309 -0.56,-1.6799986 -0.56,-3.7333302 0,-2.053332 0.56,-3.73333 0.59734,-1.679999 1.64267,-2.837331 1.04533,-1.194666 2.464,-1.829332 1.456,-0.671999 3.13599,-0.671999 1.71734,0 3.17334,0.671999 1.45599,0.634666 2.50133,1.829332 1.04533,1.157332 1.60533,2.837331 0.59733,1.679998 0.59733,3.73333 z m -3.17333,0 q 0,-2.949331 -1.26933,-4.629329 -1.26933,-1.717332 -3.43467,-1.717332 -2.12799,0 -3.39733,1.717332 -1.23199,1.679998 -1.23199,4.629329 0,2.9119976 1.23199,4.6293294 1.26934,1.6799986 3.39733,1.6799986 2.16534,0 3.43467,-1.6799986 1.26933,-1.7173318 1.26933,-4.6293294 z"
     id="path3222"
     style="stroke-width:5.41345" /><path
     d="m 188.19717,-16.837319 q 2.24,-0.858666 4.21866,-0.858666 1.08267,0 2.016,0.336 0.97067,0.298666 1.64267,0.970666 1.60533,-1.306666 3.43466,-1.306666 0.896,0 1.68,0.336 0.82133,0.335999 1.41866,1.007999 0.63467,0.671999 1.008,1.679998 0.37334,1.008 0.37334,2.351998 V 0 h -2.8 v -12.394656 q 0,-1.343999 -0.59733,-2.053332 -0.59734,-0.709332 -1.49334,-0.709332 -0.448,0 -0.93333,0.223999 -0.48533,0.224 -0.896,0.709333 0.224,0.858666 0.224,1.903998 v 5.637329 h -2.8 v -5.674662 q 0,-1.306665 -0.41066,-2.053331 -0.41067,-0.746666 -1.60533,-0.746666 -0.74667,0 -1.68,0.335999 V 0 h -2.8 z"
     id="path3224"
     style="stroke-width:5.41345" /></g>
	</g>
</g><path
     class="st5"
     d="m 643.7,333.3 c -4.2,-3.7 -9.7,-6.1 -16.9,-6.1 v -56.4 c 0,-5.7 -3.7,-11 -11.5,-11 h -33.7 -0.2 -33.7 c -7.9,0 -11.5,5.3 -11.5,11 v 56.4 c -7.2,0 -12.7,2.4 -16.9,6.1 -4.2,3.7 -6.2,9.2 -6.2,16 v 102.1 c 0,12.6 7.9,21 20.8,21.8 0.7,0 1.5,0.1 2.3,0.1 H 627 c 11.3,0 19.2,-5.4 22,-14.2 0.7,-2.3 1.2,-4.9 1.2,-7.7 V 349.3 c -0.2,-6.8 -2.3,-12.2 -6.5,-16 z m -84.5,-51.5 h 44.6 v 45.4 h -22.2 -0.2 -22.2 z M 624.7,439 c 0,8.6 -8.2,8.6 -8.2,8.6 h -10.1 -42.6 -16.2 c -8.2,0 -8.2,-6.5 -8.2,-6.5 V 437 c 0,-4.5 4,-5.9 6.4,-6.3 v 0 h 53.1 c 8.2,0 8.2,-8.3 8.2,-8.3 v -5.2 c 0,-8.3 -8.2,-8.3 -8.2,-8.3 h -54.1 c -5.4,-1.3 -5.4,-6.2 -5.4,-6.2 v -4.1 c 0,-5.1 5.1,-6.2 7.3,-6.4 H 599 c 0.3,0 0.7,0 1,-0.1 h 0.8 V 392 c 6.4,-1.1 6.4,-8.1 6.4,-8.1 V 379 c 0,-5.8 -4,-7.5 -6.4,-8.1 v 0.1 h -0.5 c -0.8,-0.1 -1.3,-0.1 -1.3,-0.1 h -53.2 c -6.4,-0.9 -6.4,-6.3 -6.4,-6.3 v -4.1 c 0,-1.5 0.5,-2.7 1.2,-3.6 2.3,-2.9 7,-2.9 7,-2.9 h 53.1 1.5 14.3 c 3.2,0 5.1,1.3 6.3,2.9 1.9,2.5 1.9,5.7 1.9,5.7 z"
     id="path1213"
     style="stroke-width:5.41345" /></g>
</svg>
