<?xml version="1.0" encoding="UTF-8" standalone="no"?>
<!-- Created with Inkscape (http://www.inkscape.org/) -->

<svg
   width="37.219006mm"
   height="7.9066157mm"
   viewBox="0 0 37.219006 7.9066157"
   version="1.1"
   id="svg1"
   xml:space="preserve"
   inkscape:export-filename="newlogo.svg"
   inkscape:export-xdpi="96"
   inkscape:export-ydpi="96"
   xmlns:inkscape="http://www.inkscape.org/namespaces/inkscape"
   xmlns:sodipodi="http://sodipodi.sourceforge.net/DTD/sodipodi-0.dtd"
   xmlns="http://www.w3.org/2000/svg"
   xmlns:svg="http://www.w3.org/2000/svg"><sodipodi:namedview
     id="namedview1"
     pagecolor="#9d9d9d"
     bordercolor="#000000"
     borderopacity="0.25"
     inkscape:showpageshadow="2"
     inkscape:pageopacity="0.0"
     inkscape:pagecheckerboard="0"
     inkscape:deskcolor="#d1d1d1"
     inkscape:document-units="mm"
     inkscape:zoom="0.69295635"
     inkscape:cx="396.85039"
     inkscape:cy="560.64137"
     inkscape:window-width="1906"
     inkscape:window-height="1042"
     inkscape:window-x="654"
     inkscape:window-y="1468"
     inkscape:window-maximized="1"
     inkscape:current-layer="layer1" /><defs
     id="defs1" /><g
     inkscape:label="Layer 1"
     inkscape:groupmode="layer"
     id="layer1"
     transform="translate(-83.530359,-121.8543)"><path
       style="fill:#ffffff;fill-opacity:1;stroke:none"
       d="m -20.941665,121.17247 v 12.17084 h 8.643055 l 3.2449569,-0.18129 0.2828208,-2.99371 v -8.99584 H -20.941665 m 12.1708327,12.17084 v 11.99444 H 15.394445 v 17.99167 H -8.7708323 V 145.51414 H -20.941665 v 16.05139 c 0,3.45562 -0.175926,6.97549 2.06032,9.87778 2.369928,3.07578 5.549155,3.88055 9.2285683,3.88055 H 13.277779 c 4.728851,0 9.020072,0.23286 12.255894,-3.88055 2.341497,-2.97654 2.031605,-6.6745 2.031605,-10.23056 0,-6.89543 0.633957,-14.12995 -0.02994,-20.99028 -0.269315,-2.78292 -1.79546,-5.12971 -4.379777,-6.29474 -2.86661,-1.29229 -6.972049,-0.58442 -10.054166,-0.58442 H -8.7708323 M 43.0875,137.04747 v 22.75417 c 0,3.21781 -0.687571,7.09656 1.640582,9.69431 1.524664,1.70123 3.768304,2.12291 5.944141,2.12375 h 12.347222 c 2.147015,0 4.647455,0.30918 6.702777,-0.4309 2.222184,-0.80018 3.789261,-2.70886 4.155894,-5.03716 0.751139,-4.76999 0.07744,-10.16139 0.07744,-14.99305 0,-2.24043 -0.05562,-4.28005 -2.116667,-5.67085 C 70.401832,144.518 68.546142,144.80859 66.9,144.80859 H 56.140278 c -1.071064,0 -4.64021,0.56006 -5.286768,-0.40886 -0.349484,-0.52373 -0.181287,-1.46275 -0.181287,-2.06059 v -5.29167 H 43.0875 m 68.79167,0 v 3.70417 h 7.76111 v -3.70417 h -7.76111 m 11.64166,0 v 34.39584 h 7.40834 v -34.39584 h -7.40834 m 34.57222,0 v 5.29167 c 0,0.59784 0.16821,1.53686 -0.18127,2.06059 -0.64656,0.96893 -4.21572,0.40886 -5.28678,0.40886 h -10.75972 c -1.62611,0 -3.53407,-0.3155 -4.93875,0.6703 -2.06095,1.44636 -2.11681,3.57792 -2.11681,5.85608 0,4.70572 -0.55652,9.79998 0.051,14.46389 0.33257,2.55297 1.98435,4.78675 4.53507,5.48085 1.97996,0.53878 4.14455,0.33999 6.17361,0.33999 H 155.8 c 2.89924,0 6.10781,0.21323 8.25761,-2.12375 2.31364,-2.51509 1.62017,-6.38242 1.62017,-9.51792 v -22.93056 h -7.58473 m 11.46528,11.1125 h 7.58472 v -4.7625 h 15.16945 v 7.40834 h -10.40695 v 6.87916 h 10.40695 v 7.40834 h -15.16945 v -4.7625 h -7.58472 c 0,3.07996 -0.804,7.29045 1.61812,9.66872 1.75857,1.72673 4.06349,1.44378 6.31938,1.44378 h 14.11111 c 2.56673,0 4.96538,0.30871 6.86065,-1.76457 1.50028,-1.64118 1.42963,-3.74068 1.42963,-5.82016 0,-3.84299 0.18939,-9.07726 -4.93889,-9.52499 1.5698,-0.60107 2.8843,-1.02153 3.91772,-2.46945 1.01669,-1.42447 1.02117,-3.08758 1.02117,-4.7625 0,-3.01592 0.56261,-6.56897 -1.94097,-8.78678 -1.75994,-1.55907 -3.99077,-1.26739 -6.17292,-1.26739 h -14.11111 c -2.31523,0 -4.68363,-0.29238 -6.49385,1.4642 -2.4261,2.3542 -1.62004,6.59448 -1.62004,9.6483 m 38.98195,5.99723 v 0.17639 c -4.96017,0.43305 -4.93889,5.40461 -4.93889,9.17222 0,1.51813 -0.12261,3.13991 0.43539,4.58611 0.66631,1.72692 2.43732,3.25172 4.32711,3.34431 5.38104,0.26365 10.8396,0.007 16.22777,0.007 2.30914,0 5.0629,0.48196 7.05298,-0.92087 2.32557,-1.63932 2.29564,-4.29536 2.29564,-6.84024 0,-3.81429 0.1339,-8.90573 -4.93889,-9.34861 1.56174,-0.59798 2.91435,-1.02628 3.94437,-2.46945 1.08811,-1.52457 0.99452,-3.3394 0.99452,-5.11528 0,-3.25204 0.53754,-6.95205 -2.64584,-8.97229 -1.80566,-1.14589 -4.31104,-0.7291 -6.35,-0.7291 h -11.81805 c -1.83176,0 -4.06677,-0.34444 -5.82084,0.24036 -3.57379,1.1915 -3.70416,4.72783 -3.70416,7.87353 0,3.71557 0.075,8.56851 4.93889,8.99584 m 17.81527,-10.75973 v 7.40834 h -15.16944 v -7.40834 h 15.16944 M 77.836111,144.80851 V 162.271 c 0,2.28192 -0.593418,5.45366 0.818113,7.40766 1.549863,2.14549 4.094959,1.76457 6.413831,1.76457 h 16.051385 c 2.43948,0 4.91156,0.28939 6.36226,-2.11735 1.2532,-2.07909 0.6933,-5.25324 0.6933,-7.58404 v -16.93333 h -7.58472 v 19.22638 H 89.477778 c -0.929412,0 -3.250685,0.41701 -3.950513,-0.28282 -0.796151,-0.79615 -0.282821,-3.7571 -0.282821,-4.83245 v -14.11111 h -7.408333 m 34.043059,0 v 26.63472 h 7.76111 v -26.63472 h -7.76111 m -45.684725,7.58472 V 163.8585 H 50.672223 v -11.46527 h 15.522222 m 91.898605,0 v 11.46527 h -15.52222 v -11.46527 h 15.52222 m 68.2625,5.29166 v 7.40834 h -15.16944 v -7.40834 z"
       id="path1"
       transform="matrix(0.14600298,0,0,0.14600298,86.58838,104.16275)" /></g><style
     type="text/css"
     id="style1177">&#10;	.st0{fill:#FFFFFF;}&#10;	.st1{fill:#FFF41E;}&#10;	.st2{fill:none;}&#10;	.st3{font-family:'Verdana';}&#10;	.st4{font-size:37.3333px;}&#10;	.st5{fill:#0C2342;}&#10;</style></svg>
