<?xml version="1.0" encoding="UTF-8" standalone="no"?>
<svg
   width="51.053795"
   height="53.224998"
   viewBox="0 0 198.52172 53.224998"
   version="1.1"
   id="svg10"
   xmlns="http://www.w3.org/2000/svg"
   xmlns:svg="http://www.w3.org/2000/svg">
  <defs
     id="defs14" />
  <g
     fill-rule="evenodd"
     id="g8"
     transform="translate(-21.457036,-5.8327191)">
    <g
       id="g6661"
       transform="matrix(1.1658634,0,0,1.1658634,27.471688,-64.766796)"
       style="stroke-width:0.857731">
      <path
         d="M 7.603,131.858 C -6.324,100.882 -0.7,62.374 21.047,36.373 39.16,13.281 68.368,-1.339 97.91,0.097 c 8.286,0.353 16.432,1.825 24.35,4.295 -14.954,0.294 -29.961,3.105 -44.005,8.384 -7.022,2.64 -13.802,5.896 -20.215,9.764 a 115.459,115.459 0 0 0 -9.328,6.26 110.86,110.86 0 0 0 -8.68,7.171 98.994,98.994 0 0 0 -6.846,7.048 102.02,102.02 0 0 0 -6.116,7.67 106.013,106.013 0 0 0 -9.943,16.89 C 11.55,79.423 8.122,92.293 7.112,105.343 c -0.78,8.89 -0.555,17.859 0.552,26.711 z"
         fill="#0064fb"
         id="path2"
         style="fill:#f7f9fb;fill-opacity:1;stroke-width:0.857731" />
      <path
         d="M 159.961,47.6 C 115.917,62.754 70.746,76.599 29.145,97.805 c -2.401,6.316 57,4.976 62.742,10.717 6.818,6.05 3.515,56.816 11.023,58.242 6.741,-4.206 57.051,-119.162 57.051,-119.162 z m -11.553,12.61 -42.61,82.815 -3.4,-37.36 z"
         fill="#0064fb"
         id="path6"
         style="fill:#f0f5fb;fill-opacity:1;stroke-width:0.857731" />
    </g>
  </g>
</svg>
